<svg width="1440" height="600" fill="none" xmlns="http://www.w3.org/2000/svg"><g clip-path="url(#a)"><path d="M1440 0H0v600h1440V0z" fill="#0A326F"/><path d="M530.207 279.955c4.33 0 7.84-3.448 7.84-7.7 0-4.253-3.51-7.7-7.84-7.7s-7.84 3.447-7.84 7.7c0 4.252 3.51 7.7 7.84 7.7zM355.867 168.178c-4.002-1.651-8.562.197-10.184 4.129-1.621 3.931.309 8.456 4.312 10.108 4.002 1.651 8.562-.198 10.184-4.129 1.621-3.931-.309-8.457-4.312-10.108zM195.391 53.636c4.33 0 7.84-3.447 7.84-7.7 0-4.252-3.51-7.7-7.84-7.7s-7.84 3.448-7.84 7.7c0 4.253 3.51 7.7 7.84 7.7zM603.998 281.976a4.218 4.218 0 0 1-2.549 3.955 4.224 4.224 0 0 1-4.626-.862 4.22 4.22 0 0 1-.951-4.609 4.224 4.224 0 0 1 3.906-2.624 4.194 4.194 0 0 1 2.967 1.196 4.17 4.17 0 0 1 1.253 2.944zM288.426 138.17a4.217 4.217 0 0 1 6.228-2.005 4.225 4.225 0 0 1 1.849 4.328 4.223 4.223 0 0 1-5.755 3.114 4.202 4.202 0 0 1-1.366-.891 4.196 4.196 0 0 1-1.257-2.943 4.173 4.173 0 0 1 .301-1.603zM25.28 542.226a4.22 4.22 0 1 1-4.22-4.14 4.19 4.19 0 0 1 2.967 1.196 4.18 4.18 0 0 1 1.252 2.944zM151.122 150.864a4.224 4.224 0 0 1 4.237-2.048 4.217 4.217 0 0 1 3.378 5.603 4.218 4.218 0 0 1-6.17 2.177 4.172 4.172 0 0 1-1.91-2.567 4.179 4.179 0 0 1 .465-3.165zM583.923 115.099a4.222 4.222 0 0 1 5.295 5.745 4.214 4.214 0 0 1-1.648 1.826 4.215 4.215 0 0 1-4.699-.235 4.223 4.223 0 0 1-1.456-1.982 4.181 4.181 0 0 1 2.508-5.354zM243.348 300.092a4.22 4.22 0 1 1 3.769-6.38c.43.72.635 1.551.591 2.388a4.18 4.18 0 0 1-4.36 3.992zM870.025 473.364a4.215 4.215 0 0 1 2.003-4.258 4.219 4.219 0 0 1 4.964 6.781 4.212 4.212 0 0 1-2.237 1.023 4.194 4.194 0 0 1-3.099-.793 4.188 4.188 0 0 1-1.631-2.753zM1411.04 442.037a4.226 4.226 0 0 1 4.53-1.279c.8.261 1.5.752 2.01 1.413a4.193 4.193 0 0 1 .34 4.693 4.252 4.252 0 0 1-1.79 1.687c-.75.372-1.6.511-2.43.402a4.172 4.172 0 0 1-2.23-1.019c-.42-.36-.76-.797-1.01-1.288a4.302 4.302 0 0 1-.43-1.572 4.23 4.23 0 0 1 .2-1.619c.18-.521.45-1.003.81-1.418zM22.49 386.785a4.22 4.22 0 1 1-4.22-4.15 4.19 4.19 0 0 1 4.22 4.15zM72.502 284.986a4.22 4.22 0 1 1 1.44 5.741 4.19 4.19 0 0 1-1.44-5.741zM438.186 169.231a4.221 4.221 0 0 1 5.636 3.32 4.217 4.217 0 0 1-2.001 4.256 4.216 4.216 0 0 1-4.697-.238 4.22 4.22 0 0 1-1.455-1.982 4.187 4.187 0 0 1 2.517-5.356zM398.713 305.626a4.223 4.223 0 0 1-3.806-2.764 4.224 4.224 0 0 1 3.335-5.626 4.214 4.214 0 0 1 4.251 2.012c.429.719.634 1.55.59 2.386a4.19 4.19 0 0 1-4.37 3.992zM1310.28 560.433a4.275 4.275 0 0 1 2.07-1.324 4.226 4.226 0 0 1 4.47 1.47c.52.661.82 1.46.88 2.295.06.836-.13 1.67-.55 2.397a4.188 4.188 0 0 1-1.79 1.684c-.75.371-1.59.511-2.42.401a4.237 4.237 0 0 1-2.24-1.019 4.186 4.186 0 0 1-1.43-2.865 4.21 4.21 0 0 1 1.01-3.039zM673.293 225.153a4.222 4.222 0 0 1-7.799-.437 4.226 4.226 0 0 1 1.203-4.548 4.212 4.212 0 0 1 2.239-1.014 4.212 4.212 0 0 1 2.424.405 4.186 4.186 0 0 1 1.933 5.594zM202.696 164.275a4.213 4.213 0 0 1 4.654-.674 4.22 4.22 0 1 1-5.002 6.582 4.19 4.19 0 0 1 .348-5.908zM580.299 455.976a4.218 4.218 0 0 1-2.549 3.955 4.224 4.224 0 0 1-4.626-.862 4.22 4.22 0 0 1-.951-4.609 4.22 4.22 0 0 1 3.906-2.624 4.185 4.185 0 0 1 3.886 2.544 4.19 4.19 0 0 1 .334 1.596zM1103.65 478.14a4.206 4.206 0 0 1 2.32-.818 4.24 4.24 0 0 1 2.38.615 4.236 4.236 0 0 1 1.63 1.837c.35.761.47 1.61.33 2.437a4.204 4.204 0 0 1-1.08 2.208 4.19 4.19 0 0 1-2.13 1.23 4.233 4.233 0 0 1-4.4-1.673 4.074 4.074 0 0 1-.67-1.483 4.07 4.07 0 0 1-.06-1.63c.08-.542.28-1.061.57-1.528.28-.467.66-.873 1.11-1.195zM894.189 251.161a4.219 4.219 0 1 1-5.281-6.358 4.22 4.22 0 0 1 4.681.477 4.171 4.171 0 0 1 1.518 2.817 4.162 4.162 0 0 1-.918 3.064zM424.963 504.732a4.226 4.226 0 0 1-4.488 1.413 4.222 4.222 0 0 1-3.007-3.619 4.224 4.224 0 0 1 2.213-4.153 4.224 4.224 0 0 1 4.681.478 4.177 4.177 0 0 1 .601 5.881zM1020.19 101.195c.02.838-.22 1.661-.67 2.366a4.256 4.256 0 0 1-1.88 1.589c-.77.332-1.62.427-2.44.273a4.223 4.223 0 0 1-2.19-1.136c-.59-.587-1-1.338-1.17-2.159a4.27 4.27 0 0 1 .22-2.449c.32-.776.86-1.44 1.56-1.907a4.193 4.193 0 0 1 2.35-.717c.55-.005 1.09.097 1.6.303.51.205.97.508 1.37.893.39.384.7.842.92 1.347.21.505.32 1.048.33 1.597zM1347.16 266.976c.01.838-.22 1.662-.67 2.367a4.228 4.228 0 0 1-4.33 1.861 4.243 4.243 0 0 1-2.18-1.139 4.223 4.223 0 0 1-1.18-2.162 4.364 4.364 0 0 1 .23-2.45c.32-.775.87-1.438 1.56-1.905.7-.466 1.52-.714 2.36-.712.55-.005 1.09.098 1.6.303s.97.509 1.36.894c.39.384.7.842.92 1.347.21.505.32 1.048.33 1.596zM1029.18 133.816a2.525 2.525 0 0 1-1.52 2.363 2.514 2.514 0 0 1-2.76-.513c-.36-.351-.61-.8-.71-1.29a2.546 2.546 0 0 1 1.06-2.602c.42-.279.91-.428 1.41-.428a2.472 2.472 0 0 1 1.77.711c.24.23.42.503.55.805.13.302.2.626.2.954zM18 30.285a2.52 2.52 0 1 1-2.51-2.47 2.492 2.492 0 0 1 2.51 2.47zM1090.64 229.207c.01.5-.13.993-.4 1.414a2.509 2.509 0 0 1-2.58 1.112c-.5-.092-.95-.329-1.31-.68-.35-.352-.6-.802-.7-1.292a2.53 2.53 0 0 1 1.07-2.601c.42-.278.91-.425 1.41-.423a2.46 2.46 0 0 1 1.77.712c.23.229.42.503.55.805.12.301.19.625.19.953zM1376.41 154.646a2.525 2.525 0 0 1-1.52 2.363 2.514 2.514 0 0 1-2.76-.513c-.36-.351-.61-.8-.71-1.29a2.527 2.527 0 0 1 1.07-2.602c.41-.279.9-.428 1.4-.428a2.499 2.499 0 0 1 2.52 2.47zM1428.85 350.486a2.525 2.525 0 0 1-1.52 2.363c-.46.199-.97.256-1.46.164a2.556 2.556 0 0 1-1.31-.677c-.35-.351-.6-.8-.7-1.29-.1-.49-.05-.999.14-1.463.18-.463.51-.86.92-1.139.42-.279.91-.428 1.41-.428a2.472 2.472 0 0 1 1.77.711c.24.23.42.503.55.805.13.302.2.626.2.954zM1208.39 125.886a2.52 2.52 0 0 1-2.98 2.528c-.5-.092-.95-.328-1.31-.678a2.56 2.56 0 0 1-.7-1.29c-.1-.49-.05-.999.13-1.462.19-.464.52-.86.93-1.139a2.541 2.541 0 0 1 3.18.286c.47.463.74 1.094.75 1.755zM1296.93 286.116c1.39 0 2.52-1.106 2.52-2.47s-1.13-2.47-2.52-2.47c-1.39 0-2.52 1.106-2.52 2.47s1.13 2.47 2.52 2.47zM728.879 97.126a2.517 2.517 0 0 1-4.287 1.846 2.518 2.518 0 0 1 .37-3.892 2.515 2.515 0 0 1 1.407-.424 2.493 2.493 0 0 1 2.313 1.519c.128.301.195.624.197.951zM406.923 516.984a.87.87 0 1 1 1.615.644.87.87 0 0 1-1.615-.644zM220.488 2.277a.878.878 0 0 1-.875.786.88.88 0 0 1-.875-.786.882.882 0 0 1 .875-.787.879.879 0 0 1 .875.787zM72.867 11.865a.88.88 0 0 1-1.214.791.876.876 0 0 1 .344-1.681.88.88 0 0 1 .87.89zM292.65 14.266a.882.882 0 0 1-1.039.886.878.878 0 0 1-.655-1.198.88.88 0 0 1 1.148-.485.877.877 0 0 1 .476.465.863.863 0 0 1 .07.332zM578.998 234.247a.87.87 0 1 1-.87-.85.848.848 0 0 1 .611.244.863.863 0 0 1 .259.606zM293.333 191.826a.866.866 0 0 1 .313-.399.867.867 0 0 1 1.298.369.87.87 0 1 1-1.611.03zM160.529 364.866a.885.885 0 0 1-.524.835.882.882 0 0 1-1.218-.628.886.886 0 0 1 .377-.912.887.887 0 0 1 .495-.145.848.848 0 0 1 .611.244.866.866 0 0 1 .259.606zM371.77 46.25a.88.88 0 1 1-.514 1.103.852.852 0 0 1 .029-.657.852.852 0 0 1 .485-.445zM413.213 444.641a.881.881 0 0 1-.839-1.083.877.877 0 0 1 1.616-.242c.088.152.13.327.119.502a.855.855 0 0 1-.278.597.868.868 0 0 1-.286.175.871.871 0 0 1-.332.051zM588.436 20.983a.88.88 0 1 1 .895-.823.87.87 0 0 1-.564.772.857.857 0 0 1-.331.051zM917.701 242.768a.875.875 0 0 1-.839-1.083.883.883 0 0 1 1.616-.242c.089.152.13.326.119.502a.872.872 0 0 1-.277.597.871.871 0 0 1-.619.226zM1192.28 485.533a.87.87 0 0 1 .94-.279c.17.053.32.155.43.293.11.138.17.306.19.481a.89.89 0 0 1-1 .936.861.861 0 0 1-.47-.218.787.787 0 0 1-.21-.264.911.911 0 0 1-.09-.323.943.943 0 0 1 .04-.334.852.852 0 0 1 .17-.292zM806.662 266.959a.877.877 0 0 1-.841.515.883.883 0 0 1-.791-.589.882.882 0 0 1 1.231-1.074.858.858 0 0 1 .401 1.148zM337.436 520.53a.882.882 0 0 1-1.327.341.88.88 0 0 1 .926-1.49.858.858 0 0 1 .401 1.149zM605.561 557.58a.885.885 0 0 1-.842.515.88.88 0 1 1 .441-1.663.858.858 0 0 1 .401 1.148zM780.783 133.922a.877.877 0 0 1-.841.515.88.88 0 1 1 .44-1.663.858.858 0 0 1 .401 1.148zM1110.05 355.706a.862.862 0 0 1-.34.387.886.886 0 0 1-.99-.045.89.89 0 0 1-.3-.416.825.825 0 0 1-.02-.515c.04-.17.14-.323.27-.438a.885.885 0 0 1 .98-.121c.1.049.19.118.27.202.07.084.13.183.17.289.03.107.05.22.04.333 0 .112-.03.223-.08.324zM1215.36 167.906a.879.879 0 0 1-.84.514.906.906 0 0 1-.49-.173.89.89 0 0 1-.3-.416.825.825 0 0 1-.02-.515.876.876 0 0 1 1.25-.559c.1.049.19.118.27.202.07.085.13.183.17.289.04.107.05.22.05.333a.922.922 0 0 1-.09.325zM993.4 102.803a.88.88 0 1 1-.4-1.148.865.865 0 0 1 .485.823.856.856 0 0 1-.085.325zM883.479 535.894a.882.882 0 0 1-1.327.341.88.88 0 0 1 .926-1.489.854.854 0 0 1 .438.491.869.869 0 0 1-.037.657zM719.061 389.904a.882.882 0 0 1-1.327.341.88.88 0 0 1 .926-1.49.858.858 0 0 1 .401 1.149zM444.018 335.552a.877.877 0 0 1-.841.515.88.88 0 1 1 .44-1.663.843.843 0 0 1 .438.491.871.871 0 0 1-.037.657zM48.365 225.255a.876.876 0 0 1-.84.515.88.88 0 1 1 .44-1.663.863.863 0 0 1 .484.823.857.857 0 0 1-.084.325zM86.932 392.749a.884.884 0 0 1-.841.515.88.88 0 1 1 .44-1.663.863.863 0 0 1 .485.824.857.857 0 0 1-.084.324zM70.998 77.603a.88.88 0 1 1-.4-1.148.862.862 0 0 1 .4 1.148zM686.823 531.064a.883.883 0 0 1 .986-.009.886.886 0 0 1 .375.912.878.878 0 0 1-.707.688.882.882 0 0 1-.901-.401.854.854 0 0 1 .008-.955.849.849 0 0 1 .239-.235zM862.042 107.405a.89.89 0 0 1 .492-.155.881.881 0 1 1-.74 1.346.852.852 0 0 1-.125-.311.84.84 0 0 1 .133-.644.856.856 0 0 1 .24-.236zM1191.31 329.191a.87.87 0 0 1 .98-.009.886.886 0 0 1 .38.912.883.883 0 0 1-1.61.287c-.06-.094-.1-.2-.13-.311a.758.758 0 0 1 .01-.335.716.716 0 0 1 .13-.309.739.739 0 0 1 .24-.235zM1296.62 141.39a.887.887 0 0 1 .99-.008c.14.097.26.236.32.398.07.163.09.342.05.514a.887.887 0 0 1-.71.687.878.878 0 0 1-1.02-.711.948.948 0 0 1 0-.336.862.862 0 0 1 .13-.309.88.88 0 0 1 .24-.235zM1074.66 76.287a.877.877 0 0 1 1.31.39c.07.163.09.342.05.514a.885.885 0 0 1-1.22.625.869.869 0 0 1-.51-.649.76.76 0 0 1 0-.336c.02-.11.07-.215.13-.309a.756.756 0 0 1 .24-.235zM964.737 509.378a.874.874 0 0 1 .986-.008.884.884 0 0 1 .375.912.885.885 0 0 1-.707.687.882.882 0 0 1-.901-.4.861.861 0 0 1 .247-1.191zM800.319 363.388a.874.874 0 0 1 .986-.008.884.884 0 0 1 .375.912.884.884 0 0 1-.707.687.882.882 0 0 1-.901-.4.861.861 0 0 1 .247-1.191zM525.276 309.036a.883.883 0 0 1 1.313.391.875.875 0 0 1-.2.965.874.874 0 0 1-1.36-.165.854.854 0 0 1 .008-.955.852.852 0 0 1 .239-.236zM129.624 198.739a.89.89 0 0 1 .492-.155.881.881 0 1 1-.74 1.346.852.852 0 0 1-.125-.311.84.84 0 0 1 .134-.644.84.84 0 0 1 .239-.236zM67.257 558.737a.886.886 0 0 1 1.313.391.878.878 0 0 1-1.172 1.138.877.877 0 0 1-.389-.338.855.855 0 0 1 .008-.955.856.856 0 0 1 .24-.236zM168.19 366.234a.883.883 0 0 1 .986-.009.88.88 0 1 1-1.233 1.199.854.854 0 0 1 .008-.955.836.836 0 0 1 .239-.235zM152.257 51.087a.878.878 0 0 1 1.313.39.884.884 0 0 1-.201.966.88.88 0 0 1-1.36-.165.858.858 0 0 1 .248-1.191zM1318.17 54.446a.864.864 0 0 1-.51.038.853.853 0 0 1-.45-.257.903.903 0 0 1-.23-.463.895.895 0 0 1 .07-.51c.08-.16.2-.293.35-.384a.867.867 0 0 1 .98.055c.14.106.25.252.3.418.04.106.06.22.06.332-.01.113-.04.224-.08.326a.96.96 0 0 1-.2.27.904.904 0 0 1-.29.175zM106.33 327.376a.877.877 0 0 1-.522.834.878.878 0 0 1-1.218-.621.882.882 0 0 1 .368-.913.877.877 0 0 1 .492-.15.86.86 0 0 1 .88.85zM354.352 109.809a.878.878 0 0 1 .778 1.572.885.885 0 0 1-.983-.046.875.875 0 0 1-.305-.414.844.844 0 0 1 .023-.662.855.855 0 0 1 .487-.45zM453.553 392.528a.883.883 0 0 1-.805-.566.873.873 0 0 1 .223-.958.878.878 0 0 1 1.478.691.875.875 0 0 1-.274.603.84.84 0 0 1-.288.177.846.846 0 0 1-.334.053zM1208.11 549.505a.87.87 0 0 1 .43-.284.883.883 0 0 1 .94.295c.11.137.17.304.19.478.01.175-.03.35-.11.503a.902.902 0 0 1-.88.44.868.868 0 0 1-.47-.212.924.924 0 0 1-.31-.59c0-.113.01-.227.04-.336.04-.108.1-.208.17-.294zM774.81 209.265a.878.878 0 0 1-1.63-.07.892.892 0 0 1-.023-.514.884.884 0 0 1 1.244-.569.864.864 0 0 1 .409 1.153zM305.584 462.836a.883.883 0 0 1-1.324.343.88.88 0 0 1 .914-1.496.853.853 0 0 1 .494.825.87.87 0 0 1-.084.328zM573.709 499.886a.88.88 0 1 1-.41-1.153.871.871 0 0 1 .446.491.865.865 0 0 1-.036.662zM748.932 76.228a.886.886 0 0 1-.839.515.88.88 0 1 1 .429-1.668.866.866 0 0 1 .446.491.864.864 0 0 1-.036.662zM1078.2 298.013a.923.923 0 0 1-.34.386.908.908 0 0 1-.5.129.884.884 0 0 1-.49-.171.885.885 0 0 1-.3-.414.901.901 0 0 1-.03-.514.946.946 0 0 1 .27-.439c.13-.116.3-.19.47-.214a.898.898 0 0 1 .78.285c.08.084.14.183.17.29.04.107.06.221.05.335 0 .113-.03.225-.08.327zM103.537 398.597a.884.884 0 0 1-.529.827.883.883 0 0 1-1.212-.628.875.875 0 0 1 .37-.91.883.883 0 0 1 .491-.149.85.85 0 0 1 .621.244.866.866 0 0 1 .259.616zM9.481 232.671a.885.885 0 0 1 .883-.43.877.877 0 0 1 .732.655.878.878 0 0 1-.815 1.096.886.886 0 0 1-.497-.128.876.876 0 0 1-.402-.533.86.86 0 0 1 .1-.66zM422.479 88.846a.88.88 0 1 1-.52 1.115.857.857 0 0 1 .52-1.115zM382.578 385.927a.876.876 0 0 1-.798-.573.877.877 0 0 1 .23-.954.879.879 0 0 1 1.474.694.863.863 0 0 1-.906.833zM1257.33 497.949a.869.869 0 0 1 .94-.27c.17.054.31.156.42.294a.85.85 0 0 1 .19.479.96.96 0 0 1-.11.5.9.9 0 0 1-.88.437.868.868 0 0 1-.47-.212.798.798 0 0 1-.21-.267.773.773 0 0 1-.1-.328c0-.114.01-.229.05-.338a.722.722 0 0 1 .17-.295zM740.615 271.803a.88.88 0 1 1-.405-1.162.859.859 0 0 1 .405 1.162zM271.388 525.373a.88.88 0 1 1-.405-1.162.87.87 0 0 1 .447.496.859.859 0 0 1-.042.666zM539.513 562.424a.88.88 0 1 1-.405-1.162.852.852 0 0 1 .447.495.864.864 0 0 1-.042.667zM714.736 138.765a.875.875 0 0 1-.842.506.88.88 0 1 1 .437-1.667.863.863 0 0 1 .405 1.161zM1044 360.55a.848.848 0 0 1-.34.381.896.896 0 0 1-.5.124.857.857 0 0 1-.48-.175.91.91 0 0 1-.31-.414.992.992 0 0 1-.02-.513.935.935 0 0 1 .27-.437c.13-.116.3-.19.47-.213a.907.907 0 0 1 .78.287c.08.086.14.185.17.293.04.109.06.223.05.338a.943.943 0 0 1-.09.329zM641.591 189.833a.88.88 0 1 1-.405-1.162.87.87 0 0 1 .447.496.859.859 0 0 1-.042.666zM745.941 560.907a.876.876 0 0 1 .982 0 .877.877 0 0 1 .124 1.359.874.874 0 0 1-1.357-.155.858.858 0 0 1 .251-1.204zM921.163 137.248a.888.888 0 0 1 .982.001.885.885 0 0 1 .371.909.884.884 0 0 1-1.212.628.88.88 0 0 1-.391-.333.856.856 0 0 1-.128-.655.852.852 0 0 1 .378-.55zM1250.43 359.033a.873.873 0 0 1 .98 0c.15.097.26.236.32.398.07.162.09.34.05.511a.815.815 0 0 1-.25.45.876.876 0 0 1-1.35-.155.74.74 0 0 1-.13-.314.977.977 0 0 1 0-.341.882.882 0 0 1 .13-.313.892.892 0 0 1 .25-.236zM1355.74 171.232c.15-.098.32-.15.49-.15.18 0 .35.052.49.15.15.098.26.236.33.398.06.162.08.34.04.511a.868.868 0 0 1-.24.451.885.885 0 0 1-.97.177.904.904 0 0 1-.52-.988.91.91 0 0 1 .14-.313.742.742 0 0 1 .24-.236zM1133.78 106.129a.905.905 0 0 1 .49-.149.892.892 0 0 1 .82.548c.06.162.08.34.04.511a.865.865 0 0 1-.24.45.884.884 0 0 1-1.49-.47.97.97 0 0 1 0-.34.902.902 0 0 1 .14-.313.745.745 0 0 1 .24-.237zM1023.86 539.22a.881.881 0 0 1 .98 0 .81.81 0 0 1 .32.398c.07.162.09.34.05.512a.815.815 0 0 1-.25.45.855.855 0 0 1-.45.236.884.884 0 0 1-.9-.391.74.74 0 0 1-.13-.315.874.874 0 0 1 .13-.653.895.895 0 0 1 .25-.237zM859.441 393.23a.876.876 0 0 1 .982 0 .883.883 0 0 1 .124 1.36.885.885 0 0 1-.966.177.879.879 0 0 1-.391-.333.858.858 0 0 1 .251-1.204zM584.398 338.878a.883.883 0 0 1 1.306.399.876.876 0 0 1-.2.961.885.885 0 0 1-.966.178.891.891 0 0 1-.391-.333.856.856 0 0 1 .006-.968.851.851 0 0 1 .245-.237zM188.745 228.581a.876.876 0 0 1 1.306.399.884.884 0 0 1-1.165 1.139.88.88 0 0 1-.391-.333.856.856 0 0 1-.128-.655.86.86 0 0 1 .378-.55zM126.378 588.579a.883.883 0 0 1 1.306.399.884.884 0 0 1-1.166 1.139.883.883 0 0 1-.39-.333.865.865 0 0 1 .25-1.205zM227.312 396.075a.883.883 0 0 1 1.306.399.876.876 0 0 1-.2.961.874.874 0 0 1-1.357-.155.858.858 0 0 1 .251-1.205zM211.378 80.929a.88.88 0 1 1-.25 1.205.867.867 0 0 1 .005-.968.866.866 0 0 1 .245-.237zM1267.49 11.818a.87.87 0 0 1-.95-.226.903.903 0 0 1-.23-.462c-.02-.172 0-.35.08-.508a.876.876 0 0 1 1.62.081c.04.108.06.222.06.337a.942.942 0 0 1-.08.33.964.964 0 0 1-.2.274.924.924 0 0 1-.3.174zM214.91 583.976a.88.88 0 0 1-1.75 0 .877.877 0 0 1 .875-.787.88.88 0 0 1 .875.787zM11.025 16.415a.88.88 0 0 1 1.494.912.88.88 0 0 1-1.494-.912zM676.536 457.067a.882.882 0 0 1 1.735-.231.88.88 0 0 1-1.735.231zM851.755 33.41a.877.877 0 0 1 .763-.896.879.879 0 0 1 .972.664.883.883 0 0 1-.764.895.878.878 0 0 1-.971-.664zM1181.02 255.194c0-.217.07-.428.21-.594a.886.886 0 0 1 1.17-.155c.18.122.3.307.36.518 0 .217-.07.428-.21.594a.91.91 0 0 1-.56.301.876.876 0 0 1-.61-.146.871.871 0 0 1-.36-.518zM1286.33 67.394c0-.218.07-.43.21-.594a.883.883 0 0 1 1.17-.156c.18.122.31.307.36.518 0 .217-.07.429-.21.594a.883.883 0 0 1-1.17.156.873.873 0 0 1-.36-.519zM1064.37 2.291c0-.217.07-.429.21-.594a.882.882 0 0 1 1.17-.156c.18.123.31.307.36.518 0 .218-.07.43-.21.594a.882.882 0 0 1-1.17.156.873.873 0 0 1-.36-.518zM954.45 435.382a.884.884 0 0 1 .764-.895.882.882 0 0 1 .971.663.878.878 0 0 1-.763.895.88.88 0 0 1-.972-.663zM790.032 289.392a.882.882 0 0 1 1.377-.75.88.88 0 0 1 .358.518.878.878 0 0 1-.763.895.881.881 0 0 1-.972-.663zM514.989 235.04a.884.884 0 0 1 .764-.895.882.882 0 0 1 .971.663.88.88 0 0 1-1.735.232zM119.337 124.743a.878.878 0 0 1 1.376-.749c.18.122.307.307.359.518a.88.88 0 0 1-1.735.231zM56.97 484.741a.882.882 0 0 1 .763-.895.876.876 0 0 1 .972.664.882.882 0 0 1-.764.895.876.876 0 0 1-.971-.664zM157.904 292.237a.88.88 0 0 1 1.734-.231.88.88 0 0 1-1.734.231z" fill="#57ABC9" style="mix-blend-mode:screen"/><path d="M1296.48 285.262a.876.876 0 0 1 1.17-.01c.17.143.27.342.3.558a.884.884 0 0 1-.16.61.882.882 0 0 1-1.18.011.918.918 0 0 1-.29-.558.887.887 0 0 1 .16-.611zM1129.37 178.226a.882.882 0 0 1-1.03-.566.884.884 0 0 1 .45-1.086.897.897 0 0 1 .63.086.86.86 0 0 1 .4.48c.08.205.07.429-.01.63-.09.2-.24.363-.44.456zM563.849 514.835a.873.873 0 0 1-.535.813.867.867 0 0 1-.953-.192.876.876 0 0 1-.237-.45.877.877 0 0 1 .056-.506.877.877 0 0 1 .819-.525.87.87 0 0 1 .85.86zM739.068 91.177a.872.872 0 0 1-1.041.862.872.872 0 0 1-.628-1.197.871.871 0 0 1 1.418-.267c.158.16.248.376.251.602zM1068.33 312.962a.779.779 0 0 1-.14.488.832.832 0 0 1-.39.324.882.882 0 0 1-.51.051.92.92 0 0 1-.45-.242.858.858 0 0 1-.23-.45.967.967 0 0 1 .05-.506.924.924 0 0 1 .33-.388.868.868 0 0 1 1.34.723zM700.584 589.182a.87.87 0 1 1 1.5.88.87.87 0 0 1-1.5-.88zM875.803 165.524a.866.866 0 0 1 .876-.421.872.872 0 0 1 .72.655.86.86 0 0 1-.03.507.865.865 0 0 1-.79.568.865.865 0 0 1-.871-.664.871.871 0 0 1 .095-.645zM1205.07 387.308a.913.913 0 0 1 .37-.344.881.881 0 0 1 .51-.077c.17.025.33.101.45.217.13.117.22.269.26.438.05.168.04.345-.02.508a.95.95 0 0 1-.31.404.876.876 0 0 1-1.36-.5.861.861 0 0 1 .1-.646zM1310.38 199.508c.09-.15.22-.27.37-.345a.88.88 0 0 1 .97.141c.13.116.22.269.26.437a.88.88 0 0 1-.03.508.878.878 0 0 1-.79.568.839.839 0 0 1-.49-.135.857.857 0 0 1-.38-.529.855.855 0 0 1 .09-.645zM1088.42 134.405c.09-.15.22-.27.37-.345a.879.879 0 0 1 .97.141c.12.117.21.269.26.438a.876.876 0 0 1-.82 1.075.845.845 0 0 1-.49-.134.862.862 0 0 1-.38-.53.856.856 0 0 1 .09-.645zM978.498 567.496a.866.866 0 0 1 .877-.422.873.873 0 0 1 .69 1.163.867.867 0 0 1-.79.568.875.875 0 0 1-.872-.664.871.871 0 0 1 .095-.645zM814.08 421.506a.866.866 0 0 1 .877-.422.873.873 0 0 1 .69 1.163.87.87 0 1 1-1.567-.741zM539.037 367.154a.871.871 0 0 1 1.337-.204.87.87 0 1 1-1.337.204zM143.385 256.857a.866.866 0 0 1 .876-.421.872.872 0 0 1 .72.655.86.86 0 0 1-.03.507.865.865 0 0 1-.79.568.865.865 0 0 1-.871-.664.871.871 0 0 1 .095-.645zM181.951 424.351a.875.875 0 0 1 .877-.421.87.87 0 1 1-.877.421zM166.017 109.205a.871.871 0 0 1 1.597.233.872.872 0 0 1-1.31.942.87.87 0 0 1-.287-1.175zM1161.2 457.575a.873.873 0 0 1 .97-.033.876.876 0 0 1-.28 1.589.88.88 0 0 1-.51-.045.83.83 0 0 1-.39-.32.853.853 0 0 1-.14-.638.847.847 0 0 1 .35-.553zM843.921 285.92a.869.869 0 0 1-1.542-.473.873.873 0 0 1 .473-.851.876.876 0 0 1 .965.119.869.869 0 0 1 .104 1.205zM374.695 539.49a.874.874 0 0 1-1.352-.001.87.87 0 1 1 1.352.001zM642.82 576.541a.862.862 0 0 1-.931.283.867.867 0 0 1-.505-1.254.877.877 0 0 1 .366-.353.877.877 0 0 1 .966.119.871.871 0 0 1 .104 1.205zM818.043 152.883a.87.87 0 1 1-1.35-1.099.87.87 0 0 1 1.35 1.099zM1147.31 374.668a.889.889 0 0 1-.42.284c-.17.05-.35.05-.51-.001a.81.81 0 0 1-.42-.285.824.824 0 0 1-.19-.471.86.86 0 0 1 .1-.498.887.887 0 0 1 .87-.441.88.88 0 0 1 .76.789.876.876 0 0 1-.19.623zM1252.62 186.867a.889.889 0 0 1-.42.284.877.877 0 0 1-.51 0 .858.858 0 0 1-.42-.285.827.827 0 0 1-.19-.472.86.86 0 0 1 .1-.498.95.95 0 0 1 .37-.353.884.884 0 0 1 .97.12.875.875 0 0 1 .1 1.204zM1030.66 121.765a.904.904 0 0 1-.42.284c-.17.05-.35.05-.51-.001a.851.851 0 0 1-.42-.285.827.827 0 0 1-.19-.472.858.858 0 0 1 .1-.497.936.936 0 0 1 .37-.353.862.862 0 0 1 .5-.088c.17.021.33.093.47.207a.878.878 0 0 1 .1 1.205zM920.738 554.856a.867.867 0 0 1-.931.283.868.868 0 0 1-.505-1.254.865.865 0 0 1 .867-.441.869.869 0 0 1 .569 1.412zM756.32 408.865a.874.874 0 0 1-1.352-.001.87.87 0 1 1 1.352.001zM481.277 354.514a.875.875 0 0 1-.931.283.868.868 0 0 1-.505-1.254.865.865 0 0 1 .867-.441.869.869 0 0 1 .569 1.412zM85.624 244.217a.873.873 0 0 1-1.542-.474.87.87 0 1 1 1.542.474zM124.191 411.711a.869.869 0 0 1-1.542-.473.873.873 0 0 1 .472-.851.877.877 0 0 1 .966.119.87.87 0 0 1 .104 1.205zM108.257 96.564a.868.868 0 0 1-1.352-.001.87.87 0 1 1 1.352.001zM664.635 495.629a.872.872 0 0 1 1.079 1.2.872.872 0 0 1-1.61-.113.875.875 0 0 1 .531-1.087zM839.858 71.971a.87.87 0 1 1 .594 1.636.87.87 0 0 1-.594-1.636zM1169.12 293.755a.88.88 0 0 1 .95.236c.11.129.19.29.21.461.03.172 0 .347-.08.503a.792.792 0 0 1-.35.372.863.863 0 0 1-.49.114.903.903 0 0 1-.48-.183.957.957 0 0 1-.29-.416.866.866 0 0 1 .05-.651.87.87 0 0 1 .48-.436zM1274.44 105.954a.847.847 0 0 1 .5-.026c.17.042.32.134.44.263.12.128.19.289.21.461.03.171 0 .346-.08.502a.821.821 0 0 1-.34.372.895.895 0 0 1-.5.114.848.848 0 0 1-.47-.182.824.824 0 0 1-.29-.417.86.86 0 0 1 .53-1.087zM1052.48 40.852a.84.84 0 0 1 .5-.026c.17.042.32.133.44.262.11.129.19.29.21.461.03.172 0 .347-.08.502a.82.82 0 0 1-.34.372.889.889 0 0 1-.5.114.844.844 0 0 1-.47-.182.907.907 0 0 1-.3-.417.865.865 0 0 1 .05-.65c.1-.203.27-.36.49-.436zM942.553 473.943a.872.872 0 0 1 .944.236.868.868 0 0 1-.708 1.449.868.868 0 0 1-.721-1.249.87.87 0 0 1 .485-.436zM778.135 327.952a.872.872 0 0 1 1.079 1.2.872.872 0 0 1-1.61-.113.875.875 0 0 1 .531-1.087zM503.092 273.601a.872.872 0 0 1 1.079 1.2.87.87 0 1 1-1.079-1.2zM107.44 163.304a.872.872 0 0 1 1.158.697.873.873 0 0 1-.922.989.866.866 0 0 1-.767-.6.872.872 0 0 1 .531-1.086zM45.073 523.302a.872.872 0 0 1 1.078 1.2.869.869 0 0 1-1.317.303.873.873 0 0 1-.246-1.067.87.87 0 0 1 .485-.436zM146.006 330.798a.872.872 0 0 1 1.079 1.2.872.872 0 0 1-1.318.303.867.867 0 0 1-.246-1.067.87.87 0 0 1 .485-.436zM130.073 15.652a.87.87 0 1 1 .594 1.634.87.87 0 0 1-.594-1.634zM640.189 382.674a.879.879 0 1 1-.87-.859.867.867 0 0 1 .87.859zM1009.22 471.589a.881.881 0 0 1 .98-.044c.15.091.27.225.34.384.07.16.1.337.07.51a.894.894 0 0 1-.23.461.893.893 0 0 1-.45.255.87.87 0 0 1-.91-.359.868.868 0 0 1 .2-1.207zM987.097 233.049a.88.88 0 1 1-.12-1.218.868.868 0 0 1 .12 1.218zM584.687 62.331a.882.882 0 0 1-1.368.014.883.883 0 0 1 .27-1.34.882.882 0 0 1 1.288.693.868.868 0 0 1-.19.633zM517.87 486.619a.882.882 0 0 1-1.367.014.876.876 0 0 1-.096-.979.878.878 0 0 1 1.344-.252.872.872 0 0 1 .119 1.217zM693.089 62.96a.88.88 0 1 1-.119-1.217.873.873 0 0 1 .119 1.218zM1022.35 284.745a.821.821 0 0 1-.42.292.862.862 0 0 1-.51.005.862.862 0 0 1-.43-.283.882.882 0 0 1-.1-.979c.08-.154.21-.28.37-.361a.85.85 0 0 1 .5-.095c.18.019.34.09.48.204a.93.93 0 0 1 .31.584.862.862 0 0 1-.2.633zM619.945 114.028a.878.878 0 0 1-.938.298.884.884 0 0 1-.628-.759.883.883 0 0 1 .468-.865.874.874 0 0 1 .978.109.868.868 0 0 1 .12 1.217zM785.995 523.67a.882.882 0 0 1-1.367.014.876.876 0 0 1-.096-.979.88.88 0 1 1 1.463.965zM961.218 100.012a.882.882 0 0 1-1.367.014.879.879 0 0 1 1.247-1.232.87.87 0 0 1 .12 1.218zM1290.48 321.796a.864.864 0 0 1-.93.297.862.862 0 0 1-.43-.283.882.882 0 0 1-.1-.979c.08-.155.21-.28.37-.362a.866.866 0 0 1 .97.109c.18.147.29.357.31.585a.816.816 0 0 1-.19.633zM631.818 477.856a.859.859 0 0 1-.156.485.865.865 0 0 1-1.35.097.867.867 0 0 1-.151-.963.868.868 0 0 1 .837-.499c.225.01.436.108.589.273a.853.853 0 0 1 .231.607zM807.041 54.198a.878.878 0 0 1-.557.8.869.869 0 1 1-.263-1.68.86.86 0 0 1 .82.88zM1136.31 275.983a.928.928 0 0 1-.16.485.87.87 0 0 1-1.35.097.808.808 0 0 1-.22-.459.874.874 0 0 1 .41-.882.88.88 0 0 1 1.09.152c.15.164.23.382.23.607zM1241.62 88.182a.883.883 0 0 1-.56.8.873.873 0 0 1-.95-.218.877.877 0 0 1 .19-1.34.885.885 0 0 1 1.09.152.9.9 0 0 1 .23.606zM1019.66 23.08a.883.883 0 0 1-.56.8.875.875 0 0 1-.95-.219.877.877 0 0 1-.15-.963.838.838 0 0 1 .34-.377.884.884 0 0 1 1.09.152.9.9 0 0 1 .23.607zM909.736 456.171a.877.877 0 0 1-.557.8.873.873 0 0 1-.949-.219.867.867 0 0 1 .191-1.34.878.878 0 0 1 1.084.151.862.862 0 0 1 .231.608zM745.318 310.18a.864.864 0 0 1-.557.8.865.865 0 0 1-.949-.218.867.867 0 0 1-.151-.963.868.868 0 0 1 .837-.499.863.863 0 0 1 .82.88zM470.275 255.829a.868.868 0 0 1-1.729.123.87.87 0 0 1 .909-1.003c.225.01.436.108.589.273a.853.853 0 0 1 .231.607zM74.623 145.532a.866.866 0 0 1-.557.8.866.866 0 0 1-.95-.219.867.867 0 0 1 .192-1.34.869.869 0 0 1 .495-.121.857.857 0 0 1 .82.88zM12.256 505.53a.867.867 0 0 1-1.065.836.87.87 0 0 1 .244-1.716.857.857 0 0 1 .82.88zM113.189 313.026a.859.859 0 0 1-.156.485.861.861 0 0 1-.909.351.868.868 0 0 1-.592-1.217.875.875 0 0 1 1.427-.226.857.857 0 0 1 .23.607zM1091.75 423.447a.86.86 0 0 1 .97-.008c.15.096.26.233.33.394.06.16.08.337.04.507a.857.857 0 0 1-.69.68.876.876 0 0 1-.51-.062.913.913 0 0 1-.39-.334.843.843 0 0 1-.11-.639.82.82 0 0 1 .36-.538zM567.857 398.424a.879.879 0 1 1-.87-.859.867.867 0 0 1 .87.859zM1063.85 521.537a.881.881 0 0 1 .98-.044c.15.091.27.225.34.385.08.159.1.337.07.51a.891.891 0 0 1-.67.715.919.919 0 0 1-.52-.039.887.887 0 0 1-.4-.32.868.868 0 0 1 .2-1.207zM921.398 198.941a.878.878 0 0 1-.938.298.882.882 0 0 1-.16-1.624.88.88 0 0 1 .978.109.868.868 0 0 1 .12 1.217zM452.171 452.512a.882.882 0 0 1-1.367.014.879.879 0 0 1 .775-1.436.89.89 0 0 1 .782.788.87.87 0 0 1-.19.634zM627.39 28.853a.877.877 0 0 1-.938.298.884.884 0 0 1-.627-.758.883.883 0 0 1 .467-.866.883.883 0 0 1 1.288.693.868.868 0 0 1-.19.633zM956.656 250.638a.885.885 0 0 1-.938.297.882.882 0 0 1-.526-1.263.878.878 0 0 1 1.344-.252.874.874 0 0 1 .12 1.218zM554.245 79.92a.878.878 0 0 1-1.463-.964.88.88 0 0 1 1.344-.253.873.873 0 0 1 .119 1.218zM720.296 489.562a.875.875 0 0 1-.938.298.88.88 0 1 1 .819-1.515.867.867 0 0 1 .119 1.217zM895.519 65.904a.882.882 0 0 1-1.368.014.883.883 0 0 1 .27-1.34.883.883 0 0 1 1.288.693.868.868 0 0 1-.19.633zM1224.78 287.688a.815.815 0 0 1-.42.292.87.87 0 0 1-.94-.277.884.884 0 0 1-.1-.98c.08-.154.21-.28.37-.361a.866.866 0 0 1 .97.109c.18.146.29.356.31.584a.813.813 0 0 1-.19.633zM1330.1 99.888a.89.89 0 0 1-.94.297.867.867 0 0 1-.43-.283.883.883 0 0 1-.1-.98.9.9 0 0 1 .37-.36.878.878 0 0 1 .98.108.93.93 0 0 1 .31.584.9.9 0 0 1-.19.634zM1108.14 34.785a.89.89 0 0 1-.94.297.865.865 0 0 1-.43-.283.883.883 0 0 1-.1-.98c.09-.153.21-.28.37-.36a.86.86 0 0 1 .5-.095c.18.02.34.09.48.204a.93.93 0 0 1 .31.584.9.9 0 0 1-.19.633zM998.214 467.876a.882.882 0 0 1-1.367.014.876.876 0 0 1-.097-.979.884.884 0 0 1 1.654.332.868.868 0 0 1-.19.633zM833.796 321.886a.882.882 0 0 1-1.367.014.879.879 0 0 1 .775-1.436.89.89 0 0 1 .782.788.87.87 0 0 1-.19.634zM558.753 267.534a.882.882 0 0 1-1.367.014.876.876 0 0 1-.096-.979.873.873 0 0 1 .366-.361.874.874 0 0 1 .978.109.872.872 0 0 1 .119 1.217zM163.101 157.237a.878.878 0 0 1-.938.298.882.882 0 0 1-.16-1.624.872.872 0 0 1 .978.109.868.868 0 0 1 .12 1.217zM100.734 517.235a.878.878 0 0 1-1.368.014.878.878 0 0 1 .776-1.435c.174.019.338.09.472.204a.868.868 0 0 1 .12 1.217zM201.667 324.731a.875.875 0 0 1-.938.298.879.879 0 0 1-.525-1.263.884.884 0 0 1 1.654.332.867.867 0 0 1-.191.633zM185.734 9.585a.882.882 0 0 1-1.566-.46.884.884 0 0 1 .468-.867.881.881 0 0 1 .978.11.87.87 0 0 1 .12 1.217zM191.378 278.075c.48 0 .87-.385.87-.86s-.39-.86-.87-.86a.865.865 0 0 0-.87.86c0 .475.389.86.87.86zM1111.72 530.196a.86.86 0 1 0-1.14 1.29.86.86 0 1 0 1.14-1.29zM872.916 202.968c.43.214.95.043 1.162-.382a.866.866 0 0 0-.397-1.158.864.864 0 0 0-1.161.383.864.864 0 0 0 .396 1.157zM403.689 456.539a.865.865 0 0 0 1.162-.383.864.864 0 0 0-.396-1.157.865.865 0 0 0-1.162.382.866.866 0 0 0 .396 1.158zM578.908 32.88a.865.865 0 0 0 1.162-.382.865.865 0 0 0-.396-1.158.865.865 0 0 0-1.162.383.865.865 0 0 0 .396 1.158zM908.174 254.666c.43.214.95.042 1.162-.383a.866.866 0 0 0-.397-1.158.867.867 0 0 0-1.162.383.866.866 0 0 0 .397 1.158zM671.814 493.59a.866.866 0 0 0 1.162-.383.865.865 0 0 0-.396-1.158.865.865 0 0 0-1.162.383.866.866 0 0 0 .396 1.158zM847.037 69.931c.43.214.95.043 1.162-.383a.865.865 0 0 0-.396-1.157.865.865 0 0 0-1.162.383.865.865 0 0 0 .396 1.157zM1176.3 291.717c.43.213.95.042 1.16-.383a.856.856 0 0 0-.39-1.158.863.863 0 0 0-1.16.383.856.856 0 0 0 .39 1.158zM1281.62 103.916c.43.214.95.042 1.16-.383a.869.869 0 0 0-.4-1.158.864.864 0 0 0-1.16.383.86.86 0 0 0 .4 1.158zM1059.65 38.813c.43.214.95.043 1.17-.383a.868.868 0 0 0-.4-1.157.863.863 0 0 0-1.16.383.864.864 0 0 0 .39 1.157zM949.732 471.904a.865.865 0 0 0 1.162-.383.864.864 0 0 0-.396-1.157.865.865 0 0 0-1.162.383.865.865 0 0 0 .396 1.157zM785.314 325.914a.865.865 0 0 0 1.162-.383.864.864 0 0 0-.396-1.157.865.865 0 0 0-1.162.382.866.866 0 0 0 .396 1.158zM510.271 271.562a.864.864 0 0 0 1.162-.383.864.864 0 0 0-.396-1.157.865.865 0 0 0-1.162.383.865.865 0 0 0 .396 1.157zM114.619 161.265a.865.865 0 0 0 1.162-.383.865.865 0 0 0-.396-1.157.865.865 0 0 0-1.162.383.864.864 0 0 0 .396 1.157zM52.252 521.263c.43.214.95.043 1.162-.383a.865.865 0 0 0-.397-1.157.865.865 0 0 0-1.162.383.865.865 0 0 0 .397 1.157zM153.185 328.759a.865.865 0 0 0 1.162-.382.865.865 0 0 0-.396-1.158.866.866 0 0 0-1.162.383.865.865 0 0 0 .396 1.157zM137.252 13.613c.43.214.95.042 1.162-.383a.865.865 0 0 0-.397-1.157.864.864 0 0 0-1.161.383.865.865 0 0 0 .396 1.157zM1410.28 54.86c.16.454.65.694 1.1.537a.86.86 0 0 0 .52-1.105.855.855 0 0 0-1.09-.537.866.866 0 0 0-.53 1.106zM128.641 438.316a.881.881 0 0 1-1.75 0 .88.88 0 0 1 1.75 0zM8.756 185.69a.882.882 0 0 1 1.541.284.88.88 0 0 1-.047.628.879.879 0 0 1-1.494-.912zM451.635 52.002a.88.88 0 0 1 .58 1.651.882.882 0 0 1-1.032-.564.877.877 0 0 1 .452-1.087zM341.578 408.868a.88.88 0 0 1 .094-1.747.88.88 0 0 1-.094 1.747zM781.314 590.036a.878.878 0 0 1 1.376-.749.877.877 0 0 1 .358.518.88.88 0 0 1-1.734.231zM956.536 166.378a.878.878 0 0 1 .764-.895.882.882 0 0 1 .971.663.878.878 0 0 1-.763.896.886.886 0 0 1-.972-.664zM1285.8 388.163c0-.217.07-.429.21-.594a.884.884 0 0 1 1.17-.156c.18.123.31.307.36.518 0 .218-.07.429-.21.594a.88.88 0 0 1-1.17.156.874.874 0 0 1-.36-.518zM1264.79 451.559a.872.872 0 0 1 1.17-.011c.17.144.27.343.29.559a.88.88 0 0 1-.15.61.882.882 0 0 1-1.18.011.918.918 0 0 1-.29-.559.886.886 0 0 1 .16-.61zM745.416 318.543a.876.876 0 0 1-1.133.314.879.879 0 0 1-.434-1.093.88.88 0 0 1 1.567.779zM276.19 572.113a.884.884 0 0 1-1.134.315.882.882 0 0 1-.433-1.094.882.882 0 0 1 1.133-.315.88.88 0 0 1 .434 1.094zM719.537 185.506a.876.876 0 0 1-1.133.314.877.877 0 0 1-.434-1.093.883.883 0 0 1 1.134-.315.882.882 0 0 1 .433 1.094zM1048.8 407.29a.842.842 0 0 1-.5.374.884.884 0 0 1-1.06-.523.857.857 0 0 1 0-.63.844.844 0 0 1 .5-.375.884.884 0 0 1 1.06.524c.08.202.08.426 0 .63zM646.393 236.573a.88.88 0 0 1-1.567-.779.881.881 0 0 1 1.567.779zM765.884 518.362a.879.879 0 0 1 .943 1.474.88.88 0 0 1-.943-1.474zM941.103 94.704a.88.88 0 0 1 .942 1.474.88.88 0 0 1-.942-1.474zM1270.37 316.489a.873.873 0 0 1 1.13.313c.12.183.16.403.13.617a.901.901 0 0 1-.32.544.884.884 0 0 1-.63.061.842.842 0 0 1-.5-.374.844.844 0 0 1-.13-.617.901.901 0 0 1 .32-.544zM1375.68 128.688c.2-.097.42-.118.63-.061.21.058.39.192.5.375.12.183.17.402.13.617a.854.854 0 0 1-.32.543.857.857 0 0 1-.62.061.894.894 0 0 1-.51-.374.894.894 0 0 1-.13-.617.901.901 0 0 1 .32-.544zM1153.72 63.585a.886.886 0 0 1 .63-.06c.21.058.39.191.5.374.12.183.17.403.13.617a.857.857 0 0 1-.32.544.864.864 0 0 1-.62.06.894.894 0 0 1-.51-.374.894.894 0 0 1-.13-.617.902.902 0 0 1 .32-.544zM1043.8 496.676a.862.862 0 0 1 .62-.06c.21.058.39.191.51.374s.16.403.13.617a.904.904 0 0 1-.32.544.89.89 0 0 1-.63.06.842.842 0 0 1-.5-.374.844.844 0 0 1-.13-.617.904.904 0 0 1 .32-.544zM879.38 350.686a.883.883 0 0 1 1.261.931.882.882 0 0 1-.318.543.88.88 0 0 1-.943-1.474zM604.337 296.334a.884.884 0 0 1 1.134.314.882.882 0 0 1-.191 1.161.879.879 0 0 1-1.261-.931.883.883 0 0 1 .318-.544zM208.685 186.038a.878.878 0 0 1 1.26.93.878.878 0 0 1-.318.544.878.878 0 0 1-1.134-.314.875.875 0 0 1-.126-.617.873.873 0 0 1 .318-.543zM146.317 546.036a.88.88 0 0 1 .943 1.474.883.883 0 0 1-1.261-.931.882.882 0 0 1 .318-.543zM247.251 353.532a.879.879 0 0 1 .943 1.474.883.883 0 0 1-1.261-.931.878.878 0 0 1 .318-.543zM231.317 38.385a.88.88 0 0 1 .943 1.475.88.88 0 0 1-.943-1.475zM1238.31 48.642a.87.87 0 0 1-.62-.085.841.841 0 0 1-.41-.48.856.856 0 0 1 .02-.63c.08-.2.23-.363.43-.457a.87.87 0 0 1 .62.086c.2.104.34.275.41.48.07.205.07.43-.02.63-.08.2-.23.363-.43.456zM156.517 535.555a.87.87 0 1 1-1.74.022.87.87 0 0 1 1.74-.022zM35.631 88.17a.87.87 0 1 1 1.495.89.87.87 0 0 1-1.495-.89zM242.986 431.503a.867.867 0 0 1-.782-.573.862.862 0 0 1-.026-.505.87.87 0 1 1 .808 1.078zM740.818 497.339a.874.874 0 0 1 .418-.874.866.866 0 0 1 .967.054.873.873 0 0 1 .052 1.347.876.876 0 0 1-1.101.042.874.874 0 0 1-.336-.569zM916.04 73.68a.872.872 0 0 1 1.386-.819.872.872 0 0 1-.409 1.557.872.872 0 0 1-.977-.738zM1245.31 295.466a.863.863 0 0 1 .07-.501c.08-.156.2-.285.34-.373a.868.868 0 0 1 .97.054.873.873 0 0 1 .32.916.876.876 0 0 1-.73.641.89.89 0 0 1-.64-.168.862.862 0 0 1-.33-.569zM1350.62 107.665a.863.863 0 0 1 .07-.501c.08-.155.2-.285.35-.373.15-.088.32-.13.49-.12.17.01.34.071.47.175a.873.873 0 0 1 .06 1.346.873.873 0 0 1-1.1.042.837.837 0 0 1-.34-.569zM1128.66 42.562a.86.86 0 0 1 .07-.5c.08-.156.2-.286.35-.374.14-.087.32-.129.49-.12a.882.882 0 0 1 .77.584c.06.164.06.34.02.506a.847.847 0 0 1-.27.431.84.84 0 0 1-.46.21.888.888 0 0 1-.64-.167.861.861 0 0 1-.33-.57zM1018.74 475.653a.858.858 0 0 1 .07-.5c.08-.156.2-.286.34-.374a.88.88 0 0 1 .97.055.873.873 0 0 1 .32.915.917.917 0 0 1-.27.431.869.869 0 0 1-1.1.042.86.86 0 0 1-.33-.569zM854.318 329.663a.874.874 0 0 1 .418-.874.874.874 0 0 1 .967.055.87.87 0 1 1-1.385.819zM579.275 275.311a.87.87 0 1 1 1.723-.25.87.87 0 0 1-1.723.25zM183.623 165.014a.862.862 0 0 1 .418-.873.864.864 0 0 1 .967.054.873.873 0 0 1 .317.916.874.874 0 0 1-.726.641.873.873 0 0 1-.976-.738zM121.255 525.012a.872.872 0 0 1 1.386-.819.871.871 0 0 1-1.049 1.389.87.87 0 0 1-.337-.57zM222.189 332.509a.874.874 0 0 1 .418-.874.868.868 0 0 1 1.284.97.87.87 0 0 1-1.702-.096zM206.255 17.362a.872.872 0 0 1 1.386-.82.87.87 0 1 1-1.386.82zM1308.22 360.203a.878.878 0 0 1 .94-.257c.16.054.3.156.41.293a.9.9 0 0 1 .18.473.856.856 0 0 1-.12.493c-.08.15-.21.27-.36.346a.872.872 0 0 1-.5.082.858.858 0 0 1-.76-.803.893.893 0 0 1 .21-.627zM1155.76 107.108a.885.885 0 0 1-.51.027.882.882 0 0 1-.65-.716.868.868 0 0 1 .08-.501.839.839 0 0 1 .34-.375c.15-.088.32-.13.49-.121.17.009.34.069.47.172.14.104.25.246.3.409a.862.862 0 0 1-.52 1.105zM87.49 43.017a.88.88 0 1 1 .302 1.192.87.87 0 0 1-.303-1.192zM1367.14 324.761a.95.95 0 0 1 .43-.279.903.903 0 0 1 .52.009c.16.054.31.156.42.294.11.137.17.304.18.478a.802.802 0 0 1-.11.501.867.867 0 0 1-.37.352.885.885 0 0 1-.98-.128.917.917 0 0 1-.2-.267.643.643 0 0 1-.09-.328.77.77 0 0 1 .04-.336.835.835 0 0 1 .16-.296zM1087.03 109.226a.87.87 0 0 1-.95-.225.909.909 0 0 1-.23-.462c-.02-.173 0-.35.07-.509.08-.158.2-.291.35-.381a.876.876 0 0 1 1.28.463c.04.107.06.221.05.335 0 .114-.03.226-.08.33a.81.81 0 0 1-.2.273.793.793 0 0 1-.29.176zM536.49 184.975a.872.872 0 0 1-.529.827.883.883 0 0 1-.966-.177.885.885 0 0 1-.2-.962.883.883 0 0 1 1.625-.02.863.863 0 0 1 .07.332zM313.842 253.585a.88.88 0 1 1 .485 1.13.868.868 0 0 1-.485-1.13zM419.537 231.335a.88.88 0 1 1-.88-.86.85.85 0 0 1 .621.245.862.862 0 0 1 .259.615zM439.635 255.327a.88.88 0 1 1 .485 1.13.852.852 0 0 1-.48-.463.846.846 0 0 1-.005-.667zM539.279 326.696a.878.878 0 0 1-.88.86.86.86 0 0 1 0-1.72.878.878 0 0 1 .88.86zM1021.8 586.298a.88.88 0 0 1 1.36.863.89.89 0 0 1-.35.557.865.865 0 0 1-1.2-.205.876.876 0 0 1-.15-.647.868.868 0 0 1 .34-.568zM945.246 125.506a.88.88 0 0 1-1.227.099.86.86 0 0 1 1.1-1.323.884.884 0 0 1 .127 1.224zM57 27.786a.88.88 0 0 1-1.75 0 .88.88 0 0 1 1.75 0zM227.197 441.761a2.528 2.528 0 0 1 2.307-1.605 2.522 2.522 0 0 1 2.517 2.989 2.513 2.513 0 0 1-1.974 2.001c-.49.099-.999.051-1.462-.14a2.5 2.5 0 0 1-1.368-1.334 2.497 2.497 0 0 1-.02-1.911zM974.84 56.035a2.517 2.517 0 0 1-2.98 2.527 2.518 2.518 0 0 1-1.872-3.43 2.52 2.52 0 0 1 2.332-1.567 2.498 2.498 0 0 1 2.52 2.47zM779.348 395.415a2.523 2.523 0 0 1-2.984 2.527 2.52 2.52 0 0 1 .474-4.997 2.486 2.486 0 0 1 2.313 1.519c.127.301.194.624.197.951zM939.239 350.628a2.518 2.518 0 0 1 3.983 2.434 2.526 2.526 0 0 1-1.925 2.051 2.523 2.523 0 0 1-2.625-1.009 2.49 2.49 0 0 1 .567-3.476zM536.828 179.911a2.52 2.52 0 1 1-.566 3.475 2.49 2.49 0 0 1 .566-3.475zM268.668 50.286c1.392 0 2.52-1.106 2.52-2.47s-1.128-2.47-2.52-2.47c-1.391 0-2.52 1.106-2.52 2.47s1.129 2.47 2.52 2.47zM74.93 506.615a2.52 2.52 0 1 1-2.52-2.47 2.491 2.491 0 0 1 2.52 2.47zM90.19 155.387a2.515 2.515 0 0 1 2.528-1.225 2.522 2.522 0 0 1 2.09 1.878 2.52 2.52 0 0 1-3.755 2.768 2.48 2.48 0 0 1-1.143-1.531 2.493 2.493 0 0 1 .28-1.89zM533.872 80.05a2.52 2.52 0 1 1-1.496 3.197 2.504 2.504 0 0 1 .084-1.909 2.481 2.481 0 0 1 1.412-1.287zM276.248 351.58a2.526 2.526 0 0 1-2.364-3.112 2.519 2.519 0 0 1 4.965.728 2.49 2.49 0 0 1-2.601 2.384zM825.518 515.232a2.518 2.518 0 0 1 1.194-2.544 2.525 2.525 0 0 1 2.807.144 2.513 2.513 0 0 1 .928 2.652 2.518 2.518 0 0 1-2.105 1.863 2.488 2.488 0 0 1-2.502-1.196 2.492 2.492 0 0 1-.322-.919zM1350.25 435.887c.32-.382.75-.659 1.24-.795a2.534 2.534 0 0 1 2.67.871c.31.395.49.872.53 1.371.03.499-.08.998-.33 1.432a2.52 2.52 0 0 1-2.52 1.249 2.506 2.506 0 0 1-1.33-.609 2.365 2.365 0 0 1-.6-.768 2.38 2.38 0 0 1-.26-.939c-.03-.327.01-.655.12-.966.1-.311.27-.599.48-.846zM1156.09 20.54c-.47.175-.98.206-1.47.09a2.531 2.531 0 0 1-1.26-.744 2.471 2.471 0 0 1-.64-1.323c-.08-.495-.01-1 .21-1.454.21-.453.55-.833.98-1.09.43-.258.93-.383 1.43-.357.5.025.98.198 1.38.498.4.3.7.712.87 1.185.11.308.16.635.14.962-.01.328-.09.65-.23.946-.14.297-.33.564-.58.784-.24.221-.52.392-.83.503zM82.167 435.405a2.518 2.518 0 0 1-2.957 2.571 2.52 2.52 0 0 1 .447-5.001 2.486 2.486 0 0 1 2.51 2.43zM46.904 212.392a2.518 2.518 0 0 1 3.864-.653 2.52 2.52 0 0 1-2.988 4.035 2.491 2.491 0 0 1-.877-3.382zM464.288 96.814a2.518 2.518 0 0 1 3.208 3.4 2.518 2.518 0 0 1-3.799.964 2.524 2.524 0 0 1-.871-1.19 2.487 2.487 0 0 1 1.462-3.173zM346.968 362.617a2.52 2.52 0 1 1 2.561-2.376 2.49 2.49 0 0 1-2.561 2.376zM827.763 586.773a2.522 2.522 0 0 1 2.591-2.94 2.525 2.525 0 0 1 2.268 1.677 2.518 2.518 0 0 1-2.05 3.34 2.488 2.488 0 0 1-2.809-2.077zM1297.71 484.491c.31-.389.74-.673 1.22-.817.49-.143 1-.139 1.48.011.48.151.9.442 1.21.835.32.393.51.871.55 1.372.03.501-.08 1.002-.32 1.44-.25.437-.62.79-1.07 1.014a2.527 2.527 0 0 1-2.8-.373 2.497 2.497 0 0 1-.85-1.685c-.05-.651.15-1.297.58-1.797zM705.098 295.252a2.516 2.516 0 0 1-2.402 1.478 2.516 2.516 0 0 1-2.268-1.677 2.517 2.517 0 0 1 .707-2.73 2.52 2.52 0 0 1 2.797-.364 2.49 2.49 0 0 1 1.166 3.293zM200.029 87.343a2.525 2.525 0 0 1 2.785-.45 2.52 2.52 0 1 1-2.962 3.939 2.488 2.488 0 0 1 .177-3.49zM1225.4 9.009a2.513 2.513 0 0 1-3.4-1.941 2.532 2.532 0 0 1 1.18-2.562 2.525 2.525 0 0 1 2.82.14c.4.3.7.715.87 1.19.22.615.19 1.293-.08 1.886a2.499 2.499 0 0 1-1.39 1.287z" fill="#57ABC9" style="mix-blend-mode:screen"/></g><defs><clipPath id="a"><path fill="#fff" d="M0 0h1440v600H0z"/></clipPath></defs></svg>