<?xml version="1.0" encoding="utf-8"?>
<svg version="1.1" id="Слой_1" xmlns="http://www.w3.org/2000/svg" xmlns:xlink="http://www.w3.org/1999/xlink" x="0px" y="0px"
	 viewBox="0 0 1440 211.9" style="enable-background:new 0 0 1440 211.9;" xml:space="preserve">
<style type="text/css">
	.st3{fill:#313F5B;}
	.st4{fill:#42547E;}
</style>
<g>
			<path class="st3" d="M100.2,5.6H67.9v1.3h32.3V5.6z"/>
			<path class="st3" d="M100.2,0.7H67.9v1.3h32.3V0.7z"/>
			<path class="st3" d="M78.1,7.7l-0.4,0.5l11.8,9.3l0.4-0.5L78.1,7.7z"/>
			<path class="st3" d="M68.8,17.8l-0.4,0.5l11.8,9.3l0.4-0.5L68.8,17.8z"/>
			<path class="st4" d="M97,36.7l1.4-2.1L83.9,22.5l-1.4,2.1L97,36.7z"/>
			<path class="st3" d="M97,36.7l0.5-0.7L83,23.9l-0.5,0.7L97,36.7z"/>
			<path class="st4" d="M96.4,8.2L69.2,35.8l2,1.7L98.4,9.8L96.4,8.2z"/>
			<path class="st3" d="M97.7,9.3L70.5,37l0.6,0.5L98.4,9.8L97.7,9.3z"/>
			<path class="st4" d="M67.9,6.8v31.7h32.2V6.8H67.9z M96.7,35H71.3V10.1h25.4V35z"/>
			<path class="st3" d="M105.7,38.5H67.9v1.3h37.8V38.5z"/>
			<path class="st3" d="M105.7,22.1h-5.6v1.4h5.6V22.1z"/>
			<path class="st3" d="M78.1,40.7l-0.4,0.5l11.8,9.3l0.4-0.5L78.1,40.7z"/>
			<path class="st3" d="M68.8,50.8l-0.4,0.5l11.8,9.3l0.4-0.5L68.8,50.8z"/>
			<path class="st4" d="M97,69.7l1.4-2.1L83.9,55.5l-1.4,2.1L97,69.7z"/>
			<path class="st3" d="M97,69.7l0.5-0.7L83,56.9l-0.5,0.7L97,69.7z"/>
			<path class="st4" d="M96.4,41.2L69.2,68.8l2,1.7l27.2-27.7L96.4,41.2z"/>
			<path class="st3" d="M97.7,42.3L70.5,69.9l0.6,0.5l27.2-27.7L97.7,42.3z"/>
			<path class="st4" d="M67.9,39.8v31.7h32.2V39.8H67.9z M96.7,68H71.3V43h25.4V68z"/>
			<path class="st3" d="M105.7,71.5H67.9v1.3h37.8V71.5z"/>
			<path class="st3" d="M105.7,55.1h-5.6v1.4h5.6V55.1z"/>
			<path class="st3" d="M78.1,73.7l-0.4,0.5l11.8,9.3l0.4-0.5L78.1,73.7z"/>
			<path class="st3" d="M68.8,83.8l-0.4,0.5l11.8,9.3l0.4-0.5L68.8,83.8z"/>
			<path class="st4" d="M97,102.7l1.4-2.1L83.9,88.5l-1.4,2.1L97,102.7z"/>
			<path class="st3" d="M97,102.7l0.5-0.7L83,89.9l-0.5,0.7L97,102.7z"/>
			<path class="st4" d="M96.4,74.2l-27.2,27.7l2,1.7l27.2-27.7L96.4,74.2z"/>
			<path class="st3" d="M97.7,75.3l-27.2,27.7l0.6,0.5l27.2-27.7L97.7,75.3z"/>
			<path class="st4" d="M67.9,72.8v31.7h32.2V72.8H67.9z M96.7,101H71.3V76h25.4V101z"/>
			<path class="st3" d="M105.7,104.5H67.9v1.3h37.8V104.5z"/>
			<path class="st3" d="M105.7,88.1h-5.6v1.4h5.6V88.1z"/>
			<path class="st3" d="M78.1,106.7l-0.4,0.5l11.8,9.3l0.4-0.5L78.1,106.7z"/>
			<path class="st3" d="M68.8,116.7l-0.4,0.5l11.8,9.3l0.4-0.5L68.8,116.7z"/>
			<path class="st4" d="M97,135.7l1.4-2.1l-14.5-12.1l-1.4,2.1L97,135.7z"/>
			<path class="st3" d="M97,135.7l0.5-0.7L83,122.9l-0.5,0.7L97,135.7z"/>
			<path class="st4" d="M96.4,107.2l-27.2,27.7l2,1.7l27.2-27.7L96.4,107.2z"/>
			<path class="st3" d="M97.7,108.3l-27.2,27.7l0.6,0.5l27.2-27.7L97.7,108.3z"/>
			<path class="st4" d="M67.9,105.8v31.7h32.2v-31.7H67.9z M96.7,134H71.3V109h25.4V134z"/>
			<path class="st3" d="M105.7,137.5H67.9v1.3h37.8V137.5z"/>
			<path class="st3" d="M105.7,121.1h-5.6v1.4h5.6V121.1z"/>
			<path class="st3" d="M78.1,139.7l-0.4,0.5l11.8,9.3l0.4-0.5L78.1,139.7z"/>
			<path class="st3" d="M68.8,149.7l-0.4,0.5l11.8,9.3l0.4-0.5L68.8,149.7z"/>
			<path class="st4" d="M97,168.6l1.4-2.1l-14.5-12.1l-1.4,2.1L97,168.6z"/>
			<path class="st3" d="M97,168.6l0.5-0.7L83,155.9l-0.5,0.7L97,168.6z"/>
			<path class="st4" d="M96.4,140.1l-27.2,27.7l2,1.7l27.2-27.7L96.4,140.1z"/>
			<path class="st3" d="M97.7,141.3l-27.2,27.7l0.6,0.5l27.2-27.7L97.7,141.3z"/>
			<path class="st4" d="M67.9,138.8v31.7h32.2v-31.7H67.9z M96.7,167H71.3V142h25.4V167z"/>
			<path class="st3" d="M164.6,170.5H67.9v1.3h96.7V170.5z"/>
			<path class="st3" d="M105.7,154.1h-5.6v1.4h5.6V154.1z"/>
			<path class="st3" d="M78.1,172.7l-0.4,0.5l11.8,9.3l0.4-0.5L78.1,172.7z"/>
			<path class="st3" d="M68.8,182.7l-0.4,0.5l11.8,9.3l0.4-0.5L68.8,182.7z"/>
			<path class="st4" d="M97,201.6l1.4-2.1l-14.5-12.1l-1.4,2.1L97,201.6z"/>
			<path class="st3" d="M97,201.6l0.5-0.7L83,188.9l-0.5,0.7L97,201.6z"/>
			<path class="st4" d="M96.4,173.1l-27.2,27.7l2,1.7l27.2-27.7L96.4,173.1z"/>
			<path class="st3" d="M97.7,174.2l-27.2,27.7l0.6,0.5l27.2-27.7L97.7,174.2z"/>
			<path class="st4" d="M67.9,171.8v31.7h32.2v-31.7H67.9z M96.7,199.9H71.3V175h25.4V199.9z"/>
			<path class="st3" d="M100.1,203.5H67.9v1.3h32.2V203.5z"/>
			<path class="st3" d="M110.3,172.7l-0.4,0.5l11.8,9.3l0.4-0.5L110.3,172.7z"/>
			<path class="st3" d="M101,182.8l-0.4,0.5l11.8,9.3l0.4-0.5L101,182.8z"/>
			<path class="st4" d="M129.3,201.7l1.4-2.1l-14.5-12.1l-1.4,2.1L129.3,201.7z"/>
			<path class="st3" d="M129.3,201.7l0.5-0.7l-14.5-12.1l-0.5,0.7L129.3,201.7z"/>
			<path class="st4" d="M128.6,173.2l-27.2,27.7l2,1.7l27.2-27.7L128.6,173.2z"/>
			<path class="st3" d="M130,174.3L102.7,202l0.6,0.5l27.2-27.7L130,174.3z"/>
			<path class="st4" d="M100.1,171.8v31.7h32.2v-31.7H100.1z M129,200h-25.4v-24.9H129V200z"/>
			<path class="st3" d="M132.4,203.5h-32.2v1.3h32.2V203.5z"/>
			<path class="st3" d="M142.6,172.8l-0.4,0.5l11.8,9.3l0.4-0.5L142.6,172.8z"/>
			<path class="st3" d="M133.3,182.8l-0.4,0.5l11.8,9.3l0.4-0.5L133.3,182.8z"/>
			<path class="st4" d="M161.5,201.7l1.4-2.1l-14.5-12.1l-1.5,2.1L161.5,201.7z"/>
			<path class="st3" d="M161.5,201.7l0.5-0.7L147.4,189l-0.5,0.7L161.5,201.7z"/>
			<path class="st4" d="M160.9,173.2l-27.2,27.7l2,1.7l27.2-27.7L160.9,173.2z"/>
			<path class="st3" d="M162.2,174.3L135,202l0.6,0.5l27.2-27.7L162.2,174.3z"/>
			<path class="st4" d="M132.4,171.9v31.7h32.2v-31.7H132.4z M161.2,200h-25.4v-24.9h25.4V200z"/>
			<path class="st3" d="M164.6,203.5h-32.2v1.3h32.2V203.5z"/>
			<path class="st3" d="M69.4,2.1h-1.5v3.5h1.5V2.1z"/>
			<path class="st3" d="M100.2,2.1h-1.5v3.5h1.5V2.1z"/>
			<path class="st3" d="M84.5,2.1H83v3.5h1.5V2.1z"/>
			<path class="st3" d="M92.3,2.1h-1.5v3.5h1.5V2.1z"/>
			<path class="st3" d="M77,2.1h-1.5v3.5H77V2.1z"/>
			<path class="st3" d="M67.9,38.5H0.7v7.1h67.2V38.5z"/>
			<path class="st3" d="M67.9,137.7H0.7v7.1h67.2V137.7z"/>
			<path class="st3" d="M172.5,204.8h-116v7.1h116V204.8z"/>
			<path class="st3" d="M353.2,5.6H321v1.3h32.3V5.6z"/>
			<path class="st3" d="M353.2,0.7H321v1.3h32.3V0.7z"/>
			<path class="st3" d="M331.2,7.7l-0.4,0.5l11.8,9.3l0.4-0.5L331.2,7.7z"/>
			<path class="st3" d="M321.8,17.8l-0.4,0.5l11.8,9.3l0.4-0.5L321.8,17.8z"/>
			<path class="st4" d="M350.1,36.7l1.4-2.1L337,22.5l-1.4,2.1L350.1,36.7z"/>
			<path class="st3" d="M350.1,36.7l0.5-0.7L336,23.9l-0.5,0.7L350.1,36.7z"/>
			<path class="st4" d="M349.4,8.2l-27.2,27.7l2,1.7l27.2-27.7L349.4,8.2z"/>
			<path class="st3" d="M350.8,9.3L323.6,37l0.6,0.5l27.2-27.7L350.8,9.3z"/>
			<path class="st4" d="M321,6.8v31.7h32.2V6.8H321z M349.8,35h-25.4V10.1h25.4V35z"/>
			<path class="st3" d="M358.8,38.5H321v1.3h37.8V38.5z"/>
			<path class="st3" d="M358.8,22.1h-5.6v1.4h5.6V22.1z"/>
			<path class="st3" d="M331.2,40.7l-0.4,0.5l11.8,9.3l0.4-0.5L331.2,40.7z"/>
			<path class="st3" d="M321.8,50.8l-0.4,0.5l11.8,9.3l0.4-0.5L321.8,50.8z"/>
			<path class="st4" d="M350.1,69.7l1.4-2.1L337,55.5l-1.4,2.1L350.1,69.7z"/>
			<path class="st3" d="M350.1,69.7l0.5-0.7L336,56.9l-0.5,0.7L350.1,69.7z"/>
			<path class="st4" d="M349.4,41.2l-27.2,27.7l2,1.7l27.2-27.7L349.4,41.2z"/>
			<path class="st3" d="M350.8,42.3l-27.2,27.7l0.6,0.5l27.2-27.7L350.8,42.3z"/>
			<path class="st4" d="M321,39.8v31.7h32.2V39.8H321z M349.8,68h-25.4V43h25.4V68z"/>
			<path class="st3" d="M358.8,71.5H321v1.3h37.8V71.5z"/>
			<path class="st3" d="M358.8,55.1h-5.6v1.4h5.6V55.1z"/>
			<path class="st3" d="M331.2,73.7l-0.4,0.5l11.8,9.3l0.4-0.5L331.2,73.7z"/>
			<path class="st3" d="M321.8,83.8l-0.4,0.5l11.8,9.3l0.4-0.5L321.8,83.8z"/>
			<path class="st4" d="M350.1,102.7l1.4-2.1L337,88.5l-1.4,2.1L350.1,102.7z"/>
			<path class="st3" d="M350.1,102.7l0.5-0.7L336,89.9l-0.5,0.7L350.1,102.7z"/>
			<path class="st4" d="M349.4,74.2l-27.2,27.7l2,1.7l27.2-27.7L349.4,74.2z"/>
			<path class="st3" d="M350.8,75.3l-27.2,27.7l0.6,0.5l27.2-27.7L350.8,75.3z"/>
			<path class="st4" d="M321,72.8v31.7h32.2V72.8H321z M349.8,101h-25.4V76h25.4V101z"/>
			<path class="st3" d="M358.8,104.5H321v1.3h37.8V104.5z"/>
			<path class="st3" d="M358.8,88.1h-5.6v1.4h5.6V88.1z"/>
			<path class="st3" d="M331.2,106.7l-0.4,0.5l11.8,9.3l0.4-0.5L331.2,106.7z"/>
			<path class="st3" d="M321.8,116.7l-0.4,0.5l11.8,9.3l0.4-0.5L321.8,116.7z"/>
			<path class="st4" d="M350.1,135.7l1.4-2.1L337,121.5l-1.4,2.1L350.1,135.7z"/>
			<path class="st3" d="M350.1,135.7l0.5-0.7L336,122.9l-0.5,0.7L350.1,135.7z"/>
			<path class="st4" d="M349.4,107.2l-27.2,27.7l2,1.7l27.2-27.7L349.4,107.2z"/>
			<path class="st3" d="M350.8,108.3l-27.2,27.7l0.6,0.5l27.2-27.7L350.8,108.3z"/>
			<path class="st4" d="M321,105.8v31.7h32.2v-31.7H321z M349.8,134h-25.4V109h25.4V134z"/>
			<path class="st3" d="M358.8,137.5H321v1.3h37.8V137.5z"/>
			<path class="st3" d="M358.8,121.1h-5.6v1.4h5.6V121.1z"/>
			<path class="st3" d="M331.2,139.7l-0.4,0.5l11.8,9.3l0.4-0.5L331.2,139.7z"/>
			<path class="st3" d="M321.8,149.7l-0.4,0.5l11.8,9.3l0.4-0.5L321.8,149.7z"/>
			<path class="st4" d="M350.1,168.6l1.4-2.1L337,154.5l-1.4,2.1L350.1,168.6z"/>
			<path class="st3" d="M350.1,168.6l0.5-0.7L336,155.9l-0.5,0.7L350.1,168.6z"/>
			<path class="st4" d="M349.4,140.1l-27.2,27.7l2,1.7l27.2-27.7L349.4,140.1z"/>
			<path class="st3" d="M350.8,141.3l-27.2,27.7l0.6,0.5l27.2-27.7L350.8,141.3z"/>
			<path class="st4" d="M321,138.8v31.7h32.2v-31.7H321z M349.8,167h-25.4V142h25.4V167z"/>
			<path class="st3" d="M417.7,170.5H321v1.3h96.7V170.5z"/>
			<path class="st3" d="M358.8,154.1h-5.6v1.4h5.6V154.1z"/>
			<path class="st3" d="M331.2,172.7l-0.4,0.5l11.8,9.3l0.4-0.5L331.2,172.7z"/>
			<path class="st3" d="M321.8,182.7l-0.4,0.5l11.8,9.3l0.4-0.5L321.8,182.7z"/>
			<path class="st4" d="M350.1,201.6l1.4-2.1L337,187.5l-1.4,2.1L350.1,201.6z"/>
			<path class="st3" d="M350.1,201.6l0.5-0.7L336,188.9l-0.5,0.7L350.1,201.6z"/>
			<path class="st4" d="M349.4,173.1l-27.2,27.7l2,1.7l27.2-27.7L349.4,173.1z"/>
			<path class="st3" d="M350.8,174.2l-27.2,27.7l0.6,0.5l27.2-27.7L350.8,174.2z"/>
			<path class="st4" d="M321,171.8v31.7h32.2v-31.7H321z M349.8,199.9h-25.4V175h25.4V199.9z"/>
			<path class="st3" d="M353.2,203.5H321v1.3h32.2V203.5z"/>
			<path class="st3" d="M363.4,172.7l-0.4,0.5l11.8,9.3l0.4-0.5L363.4,172.7z"/>
			<path class="st3" d="M354.1,182.8l-0.4,0.5l11.8,9.3l0.4-0.5L354.1,182.8z"/>
			<path class="st4" d="M382.3,201.7l1.4-2.1l-14.5-12.1l-1.4,2.1L382.3,201.7z"/>
			<path class="st3" d="M382.3,201.7l0.5-0.7l-14.5-12.1l-0.5,0.7L382.3,201.7z"/>
			<path class="st4" d="M381.7,173.2l-27.2,27.7l2,1.7l27.2-27.7L381.7,173.2z"/>
			<path class="st3" d="M383,174.3L355.8,202l0.6,0.5l27.2-27.7L383,174.3z"/>
			<path class="st4" d="M353.2,171.8v31.7h32.2v-31.7H353.2z M382,200h-25.4v-24.9H382V200z"/>
			<path class="st3" d="M385.4,203.5h-32.2v1.3h32.2V203.5z"/>
			<path class="st3" d="M395.6,172.8l-0.4,0.5l11.8,9.3l0.4-0.5L395.6,172.8z"/>
			<path class="st3" d="M386.3,182.8l-0.4,0.5l11.8,9.3l0.4-0.5L386.3,182.8z"/>
			<path class="st4" d="M414.6,201.7l1.4-2.1l-14.5-12.1l-1.5,2.1L414.6,201.7z"/>
			<path class="st3" d="M414.6,201.7l0.5-0.7L400.5,189l-0.5,0.7L414.6,201.7z"/>
			<path class="st4" d="M413.9,173.2l-27.2,27.7l2,1.7l27.2-27.7L413.9,173.2z"/>
			<path class="st3" d="M415.3,174.3L388,202l0.6,0.5l27.2-27.7L415.3,174.3z"/>
			<path class="st4" d="M385.4,171.9v31.7h32.2v-31.7H385.4z M414.3,200h-25.4v-24.9h25.4V200z"/>
			<path class="st3" d="M417.7,203.5h-32.2v1.3h32.2V203.5z"/>
			<path class="st3" d="M322.4,2.1H321v3.5h1.5V2.1z"/>
			<path class="st3" d="M353.2,2.1h-1.5v3.5h1.5V2.1z"/>
			<path class="st3" d="M337.6,2.1h-1.5v3.5h1.5V2.1z"/>
			<path class="st3" d="M345.3,2.1h-1.5v3.5h1.5V2.1z"/>
			<path class="st3" d="M330,2.1h-1.5v3.5h1.5V2.1z"/>
			<path class="st3" d="M320.9,38.5h-67.2v7.1h67.2V38.5z"/>
			<path class="st3" d="M320.9,137.7h-67.2v7.1h67.2V137.7z"/>
			<path class="st3" d="M425.6,204.8h-116v7.1h116V204.8z"/>
			<path class="st3" d="M606.3,5.6H574v1.3h32.3V5.6z"/>
			<path class="st3" d="M606.3,0.7H574v1.3h32.3V0.7z"/>
			<path class="st3" d="M584.2,7.7l-0.4,0.5l11.8,9.3L596,17L584.2,7.7z"/>
			<path class="st3" d="M574.9,17.8l-0.4,0.5l11.8,9.3l0.4-0.5L574.9,17.8z"/>
			<path class="st4" d="M603.1,36.7l1.4-2.1l-14.5-12.1l-1.4,2.1L603.1,36.7z"/>
			<path class="st3" d="M603.1,36.7l0.5-0.7l-14.5-12.1l-0.5,0.7L603.1,36.7z"/>
			<path class="st4" d="M602.5,8.2l-27.2,27.7l2,1.7l27.2-27.7L602.5,8.2z"/>
			<path class="st3" d="M603.8,9.3L576.6,37l0.6,0.5l27.2-27.7L603.8,9.3z"/>
			<path class="st4" d="M574,6.8v31.7h32.2V6.8H574z M602.8,35h-25.4V10.1h25.4V35z"/>
			<path class="st3" d="M611.8,38.5H574v1.3h37.8V38.5z"/>
			<path class="st3" d="M611.8,22.1h-5.6v1.4h5.6V22.1z"/>
			<path class="st3" d="M584.2,40.7l-0.4,0.5l11.8,9.3L596,50L584.2,40.7z"/>
			<path class="st3" d="M574.9,50.8l-0.4,0.5l11.8,9.3l0.4-0.5L574.9,50.8z"/>
			<path class="st4" d="M603.1,69.7l1.4-2.1l-14.5-12.1l-1.4,2.1L603.1,69.7z"/>
			<path class="st3" d="M603.1,69.7l0.5-0.7l-14.5-12.1l-0.5,0.7L603.1,69.7z"/>
			<path class="st4" d="M602.5,41.2l-27.2,27.7l2,1.7l27.2-27.7L602.5,41.2z"/>
			<path class="st3" d="M603.8,42.3l-27.2,27.7l0.6,0.5l27.2-27.7L603.8,42.3z"/>
			<path class="st4" d="M574,39.8v31.7h32.2V39.8H574z M602.8,68h-25.4V43h25.4V68z"/>
			<path class="st3" d="M611.8,71.5H574v1.3h37.8V71.5z"/>
			<path class="st3" d="M611.8,55.1h-5.6v1.4h5.6V55.1z"/>
			<path class="st3" d="M584.2,73.7l-0.4,0.5l11.8,9.3L596,83L584.2,73.7z"/>
			<path class="st3" d="M574.9,83.8l-0.4,0.5l11.8,9.3l0.4-0.5L574.9,83.8z"/>
			<path class="st4" d="M603.1,102.7l1.4-2.1l-14.5-12.1l-1.4,2.1L603.1,102.7z"/>
			<path class="st3" d="M603.1,102.7l0.5-0.7l-14.5-12.1l-0.5,0.7L603.1,102.7z"/>
			<path class="st4" d="M602.5,74.2l-27.2,27.7l2,1.7l27.2-27.7L602.5,74.2z"/>
			<path class="st3" d="M603.8,75.3l-27.2,27.7l0.6,0.5l27.2-27.7L603.8,75.3z"/>
			<path class="st4" d="M574,72.8v31.7h32.2V72.8H574z M602.8,101h-25.4V76h25.4V101z"/>
			<path class="st3" d="M611.8,104.5H574v1.3h37.8V104.5z"/>
			<path class="st3" d="M611.8,88.1h-5.6v1.4h5.6V88.1z"/>
			<path class="st3" d="M584.2,106.7l-0.4,0.5l11.8,9.3l0.4-0.5L584.2,106.7z"/>
			<path class="st3" d="M574.9,116.7l-0.4,0.5l11.8,9.3l0.4-0.5L574.9,116.7z"/>
			<path class="st4" d="M603.1,135.7l1.4-2.1l-14.5-12.1l-1.4,2.1L603.1,135.7z"/>
			<path class="st3" d="M603.1,135.7l0.5-0.7l-14.5-12.1l-0.5,0.7L603.1,135.7z"/>
			<path class="st4" d="M602.5,107.2l-27.2,27.7l2,1.7l27.2-27.7L602.5,107.2z"/>
			<path class="st3" d="M603.8,108.3l-27.2,27.7l0.6,0.5l27.2-27.7L603.8,108.3z"/>
			<path class="st4" d="M574,105.8v31.7h32.2v-31.7H574z M602.8,134h-25.4V109h25.4V134z"/>
			<path class="st3" d="M611.8,137.5H574v1.3h37.8V137.5z"/>
			<path class="st3" d="M611.8,121.1h-5.6v1.4h5.6V121.1z"/>
			<path class="st3" d="M584.2,139.7l-0.4,0.5l11.8,9.3l0.4-0.5L584.2,139.7z"/>
			<path class="st3" d="M574.9,149.7l-0.4,0.5l11.8,9.3l0.4-0.5L574.9,149.7z"/>
			<path class="st4" d="M603.1,168.6l1.4-2.1l-14.5-12.1l-1.4,2.1L603.1,168.6z"/>
			<path class="st3" d="M603.1,168.6l0.5-0.7l-14.5-12.1l-0.5,0.7L603.1,168.6z"/>
			<path class="st4" d="M602.5,140.1l-27.2,27.7l2,1.7l27.2-27.7L602.5,140.1z"/>
			<path class="st3" d="M603.8,141.3l-27.2,27.7l0.6,0.5l27.2-27.7L603.8,141.3z"/>
			<path class="st4" d="M574,138.8v31.7h32.2v-31.7H574z M602.8,167h-25.4V142h25.4V167z"/>
			<path class="st3" d="M670.7,170.5H574v1.3h96.7V170.5z"/>
			<path class="st3" d="M611.8,154.1h-5.6v1.4h5.6V154.1z"/>
			<path class="st3" d="M584.2,172.7l-0.4,0.5l11.8,9.3l0.4-0.5L584.2,172.7z"/>
			<path class="st3" d="M574.9,182.7l-0.4,0.5l11.8,9.3l0.4-0.5L574.9,182.7z"/>
			<path class="st4" d="M603.1,201.6l1.4-2.1l-14.5-12.1l-1.4,2.1L603.1,201.6z"/>
			<path class="st3" d="M603.1,201.6l0.5-0.7l-14.5-12.1l-0.5,0.7L603.1,201.6z"/>
			<path class="st4" d="M602.5,173.1l-27.2,27.7l2,1.7l27.2-27.7L602.5,173.1z"/>
			<path class="st3" d="M603.8,174.2l-27.2,27.7l0.6,0.5l27.2-27.7L603.8,174.2z"/>
			<path class="st4" d="M574,171.8v31.7h32.2v-31.7H574z M602.8,199.9h-25.4V175h25.4V199.9z"/>
			<path class="st3" d="M606.3,203.5H574v1.3h32.2V203.5z"/>
			<path class="st3" d="M616.5,172.7l-0.4,0.5l11.8,9.3l0.4-0.5L616.5,172.7z"/>
			<path class="st3" d="M607.1,182.8l-0.4,0.5l11.8,9.3l0.4-0.5L607.1,182.8z"/>
			<path class="st4" d="M635.4,201.7l1.4-2.1l-14.5-12.1l-1.4,2.1L635.4,201.7z"/>
			<path class="st3" d="M635.4,201.7l0.5-0.7l-14.5-12.1l-0.5,0.7L635.4,201.7z"/>
			<path class="st4" d="M634.7,173.2l-27.2,27.7l2,1.7l27.2-27.7L634.7,173.2z"/>
			<path class="st3" d="M636.1,174.3L608.9,202l0.6,0.5l27.2-27.7L636.1,174.3z"/>
			<path class="st4" d="M606.3,171.8v31.7h32.2v-31.7H606.3z M635.1,200h-25.4v-24.9h25.4V200z"/>
			<path class="st3" d="M638.5,203.5h-32.2v1.3h32.2V203.5z"/>
			<path class="st3" d="M648.7,172.8l-0.4,0.5l11.8,9.3l0.4-0.5L648.7,172.8z"/>
			<path class="st3" d="M639.4,182.8l-0.4,0.5l11.8,9.3l0.4-0.5L639.4,182.8z"/>
			<path class="st4" d="M667.6,201.7l1.4-2.1l-14.5-12.1l-1.5,2.1L667.6,201.7z"/>
			<path class="st3" d="M667.6,201.7l0.5-0.7L653.6,189l-0.5,0.7L667.6,201.7z"/>
			<path class="st4" d="M667,173.2l-27.2,27.7l2,1.7l27.2-27.7L667,173.2z"/>
			<path class="st3" d="M668.3,174.3L641.1,202l0.6,0.5l27.2-27.7L668.3,174.3z"/>
			<path class="st4" d="M638.5,171.9v31.7h32.2v-31.7H638.5z M667.3,200h-25.4v-24.9h25.4V200z"/>
			<path class="st3" d="M670.7,203.5h-32.2v1.3h32.2V203.5z"/>
			<path class="st3" d="M575.5,2.1H574v3.5h1.5V2.1z"/>
			<path class="st3" d="M606.3,2.1h-1.5v3.5h1.5V2.1z"/>
			<path class="st3" d="M590.6,2.1h-1.5v3.5h1.5V2.1z"/>
			<path class="st3" d="M598.4,2.1h-1.5v3.5h1.5V2.1z"/>
			<path class="st3" d="M583.1,2.1h-1.5v3.5h1.5V2.1z"/>
			<path class="st3" d="M574,38.5h-67.2v7.1H574V38.5z"/>
			<path class="st3" d="M574,137.7h-67.2v7.1H574V137.7z"/>
			<path class="st3" d="M678.7,204.8h-116v7.1h116V204.8z"/>
			<path class="st3" d="M859.3,5.6h-32.3v1.3h32.3V5.6z"/>
			<path class="st3" d="M859.3,0.7h-32.3v1.3h32.3V0.7z"/>
			<path class="st3" d="M837.3,7.7l-0.4,0.5l11.8,9.3L849,17L837.3,7.7z"/>
			<path class="st3" d="M827.9,17.8l-0.4,0.5l11.8,9.3l0.4-0.5L827.9,17.8z"/>
			<path class="st4" d="M856.2,36.7l1.4-2.1l-14.5-12.1l-1.4,2.1L856.2,36.7z"/>
			<path class="st3" d="M856.2,36.7l0.5-0.7l-14.5-12.1l-0.5,0.7L856.2,36.7z"/>
			<path class="st4" d="M855.6,8.2l-27.2,27.7l2,1.7l27.2-27.7L855.6,8.2z"/>
			<path class="st3" d="M856.9,9.3L829.7,37l0.6,0.5l27.2-27.7L856.9,9.3z"/>
			<path class="st4" d="M827.1,6.8v31.7h32.2V6.8H827.1z M855.9,35h-25.4V10.1h25.4V35z"/>
			<path class="st3" d="M864.9,38.5h-37.8v1.3h37.8V38.5z"/>
			<path class="st3" d="M864.9,22.1h-5.6v1.4h5.6V22.1z"/>
			<path class="st3" d="M837.3,40.7l-0.4,0.5l11.8,9.3L849,50L837.3,40.7z"/>
			<path class="st3" d="M827.9,50.8l-0.4,0.5l11.8,9.3l0.4-0.5L827.9,50.8z"/>
			<path class="st4" d="M856.2,69.7l1.4-2.1l-14.5-12.1l-1.4,2.1L856.2,69.7z"/>
			<path class="st3" d="M856.2,69.7l0.5-0.7l-14.5-12.1l-0.5,0.7L856.2,69.7z"/>
			<path class="st4" d="M855.6,41.2l-27.2,27.7l2,1.7l27.2-27.7L855.6,41.2z"/>
			<path class="st3" d="M856.9,42.3l-27.2,27.7l0.6,0.5l27.2-27.7L856.9,42.3z"/>
			<path class="st4" d="M827.1,39.8v31.7h32.2V39.8H827.1z M855.9,68h-25.4V43h25.4V68z"/>
			<path class="st3" d="M864.9,71.5h-37.8v1.3h37.8V71.5z"/>
			<path class="st3" d="M864.9,55.1h-5.6v1.4h5.6V55.1z"/>
			<path class="st3" d="M837.3,73.7l-0.4,0.5l11.8,9.3L849,83L837.3,73.7z"/>
			<path class="st3" d="M827.9,83.8l-0.4,0.5l11.8,9.3l0.4-0.5L827.9,83.8z"/>
			<path class="st4" d="M856.2,102.7l1.4-2.1l-14.5-12.1l-1.4,2.1L856.2,102.7z"/>
			<path class="st3" d="M856.2,102.7l0.5-0.7l-14.5-12.1l-0.5,0.7L856.2,102.7z"/>
			<path class="st4" d="M855.6,74.2l-27.2,27.7l2,1.7l27.2-27.7L855.6,74.2z"/>
			<path class="st3" d="M856.9,75.3l-27.2,27.7l0.6,0.5l27.2-27.7L856.9,75.3z"/>
			<path class="st4" d="M827.1,72.8v31.7h32.2V72.8H827.1z M855.9,101h-25.4V76h25.4V101z"/>
			<path class="st3" d="M864.9,104.5h-37.8v1.3h37.8V104.5z"/>
			<path class="st3" d="M864.9,88.1h-5.6v1.4h5.6V88.1z"/>
			<path class="st3" d="M837.3,106.7l-0.4,0.5l11.8,9.3l0.4-0.5L837.3,106.7z"/>
			<path class="st3" d="M827.9,116.7l-0.4,0.5l11.8,9.3l0.4-0.5L827.9,116.7z"/>
			<path class="st4" d="M856.2,135.7l1.4-2.1l-14.5-12.1l-1.4,2.1L856.2,135.7z"/>
			<path class="st3" d="M856.2,135.7l0.5-0.7l-14.5-12.1l-0.5,0.7L856.2,135.7z"/>
			<path class="st4" d="M855.6,107.2l-27.2,27.7l2,1.7l27.2-27.7L855.6,107.2z"/>
			<path class="st3" d="M856.9,108.3l-27.2,27.7l0.6,0.5l27.2-27.7L856.9,108.3z"/>
			<path class="st4" d="M827.1,105.8v31.7h32.2v-31.7H827.1z M855.9,134h-25.4V109h25.4V134z"/>
			<path class="st3" d="M864.9,137.5h-37.8v1.3h37.8V137.5z"/>
			<path class="st3" d="M864.9,121.1h-5.6v1.4h5.6V121.1z"/>
			<path class="st3" d="M837.3,139.7l-0.4,0.5l11.8,9.3l0.4-0.5L837.3,139.7z"/>
			<path class="st3" d="M827.9,149.7l-0.4,0.5l11.8,9.3l0.4-0.5L827.9,149.7z"/>
			<path class="st4" d="M856.2,168.6l1.4-2.1l-14.5-12.1l-1.4,2.1L856.2,168.6z"/>
			<path class="st3" d="M856.2,168.6l0.5-0.7l-14.5-12.1l-0.5,0.7L856.2,168.6z"/>
			<path class="st4" d="M855.6,140.1l-27.2,27.7l2,1.7l27.2-27.7L855.6,140.1z"/>
			<path class="st3" d="M856.9,141.3l-27.2,27.7l0.6,0.5l27.2-27.7L856.9,141.3z"/>
			<path class="st4" d="M827.1,138.8v31.7h32.2v-31.7H827.1z M855.9,167h-25.4V142h25.4V167z"/>
			<path class="st3" d="M923.8,170.5h-96.7v1.3h96.7V170.5z"/>
			<path class="st3" d="M864.9,154.1h-5.6v1.4h5.6V154.1z"/>
			<path class="st3" d="M837.3,172.7l-0.4,0.5l11.8,9.3l0.4-0.5L837.3,172.7z"/>
			<path class="st3" d="M827.9,182.7l-0.4,0.5l11.8,9.3l0.4-0.5L827.9,182.7z"/>
			<path class="st4" d="M856.2,201.6l1.4-2.1l-14.5-12.1l-1.4,2.1L856.2,201.6z"/>
			<path class="st3" d="M856.2,201.6l0.5-0.7l-14.5-12.1l-0.5,0.7L856.2,201.6z"/>
			<path class="st4" d="M855.6,173.1l-27.2,27.7l2,1.7l27.2-27.7L855.6,173.1z"/>
			<path class="st3" d="M856.9,174.2l-27.2,27.7l0.6,0.5l27.2-27.7L856.9,174.2z"/>
			<path class="st4" d="M827.1,171.8v31.7h32.2v-31.7H827.1z M855.9,199.9h-25.4V175h25.4V199.9z"/>
			<path class="st3" d="M859.3,203.5h-32.2v1.3h32.2V203.5z"/>
			<path class="st3" d="M869.5,172.7l-0.4,0.5l11.8,9.3l0.4-0.5L869.5,172.7z"/>
			<path class="st3" d="M860.2,182.8l-0.4,0.5l11.8,9.3l0.4-0.5L860.2,182.8z"/>
			<path class="st4" d="M888.4,201.7l1.4-2.1l-14.5-12.1l-1.4,2.1L888.4,201.7z"/>
			<path class="st3" d="M888.4,201.7l0.5-0.7l-14.5-12.1l-0.5,0.7L888.4,201.7z"/>
			<path class="st4" d="M887.8,173.2l-27.2,27.7l2,1.7l27.2-27.7L887.8,173.2z"/>
			<path class="st3" d="M889.1,174.3L861.9,202l0.6,0.5l27.2-27.7L889.1,174.3z"/>
			<path class="st4" d="M859.3,171.8v31.7h32.2v-31.7H859.3z M888.1,200h-25.4v-24.9h25.4V200z"/>
			<path class="st3" d="M891.6,203.5h-32.2v1.3h32.2V203.5z"/>
			<path class="st3" d="M901.8,172.8l-0.4,0.5l11.8,9.3l0.4-0.5L901.8,172.8z"/>
			<path class="st3" d="M892.4,182.8l-0.4,0.5l11.8,9.3l0.4-0.5L892.4,182.8z"/>
			<path class="st4" d="M920.7,201.7l1.4-2.1l-14.5-12.1l-1.5,2.1L920.7,201.7z"/>
			<path class="st3" d="M920.7,201.7l0.5-0.7L906.6,189l-0.5,0.7L920.7,201.7z"/>
			<path class="st4" d="M920.1,173.2l-27.2,27.7l2,1.7l27.2-27.7L920.1,173.2z"/>
			<path class="st3" d="M921.4,174.3L894.2,202l0.6,0.5l27.2-27.7L921.4,174.3z"/>
			<path class="st4" d="M891.6,171.9v31.7h32.2v-31.7H891.6z M920.4,200H895v-24.9h25.4V200z"/>
			<path class="st3" d="M923.8,203.5h-32.2v1.3h32.2V203.5z"/>
			<path class="st3" d="M828.5,2.1h-1.5v3.5h1.5V2.1z"/>
			<path class="st3" d="M859.3,2.1h-1.5v3.5h1.5V2.1z"/>
			<path class="st3" d="M843.7,2.1h-1.5v3.5h1.5V2.1z"/>
			<path class="st3" d="M851.4,2.1H850v3.5h1.5V2.1z"/>
			<path class="st3" d="M836.2,2.1h-1.5v3.5h1.5V2.1z"/>
			<path class="st3" d="M827.1,38.5h-67.2v7.1h67.2V38.5z"/>
			<path class="st3" d="M827.1,137.7h-67.2v7.1h67.2V137.7z"/>
			<path class="st3" d="M931.7,204.8h-116v7.1h116V204.8z"/>
			<path class="st3" d="M1112.4,5.6h-32.3v1.3h32.3V5.6z"/>
			<path class="st3" d="M1112.4,0.7h-32.3v1.3h32.3V0.7z"/>
			<path class="st3" d="M1090.3,7.7l-0.4,0.5l11.8,9.3l0.4-0.5L1090.3,7.7z"/>
			<path class="st3" d="M1081,17.8l-0.4,0.5l11.8,9.3l0.4-0.5L1081,17.8z"/>
			<path class="st4" d="M1109.3,36.7l1.4-2.1l-14.5-12.1l-1.4,2.1L1109.3,36.7z"/>
			<path class="st3" d="M1109.3,36.7l0.5-0.7l-14.6-12.1l-0.5,0.7L1109.3,36.7z"/>
			<path class="st4" d="M1108.6,8.2l-27.2,27.7l2,1.7l27.2-27.7L1108.6,8.2z"/>
			<path class="st3" d="M1110,9.3L1082.7,37l0.7,0.5l27.2-27.7L1110,9.3z"/>
			<path class="st4" d="M1080.1,6.8v31.7h32.3V6.8H1080.1z M1108.9,35h-25.4V10.1h25.4V35z"/>
			<path class="st3" d="M1117.9,38.5h-37.8v1.3h37.8V38.5z"/>
			<path class="st3" d="M1118,22.1h-5.6v1.4h5.6V22.1z"/>
			<path class="st3" d="M1090.3,40.7l-0.4,0.5l11.8,9.3l0.4-0.5L1090.3,40.7z"/>
			<path class="st3" d="M1081,50.8l-0.4,0.5l11.8,9.3l0.4-0.5L1081,50.8z"/>
			<path class="st4" d="M1109.3,69.7l1.4-2.1l-14.5-12.1l-1.4,2.1L1109.3,69.7z"/>
			<path class="st3" d="M1109.3,69.7l0.5-0.7l-14.6-12.1l-0.5,0.7L1109.3,69.7z"/>
			<path class="st4" d="M1108.6,41.2l-27.2,27.7l2,1.7l27.2-27.7L1108.6,41.2z"/>
			<path class="st3" d="M1110,42.3l-27.2,27.7l0.7,0.5l27.2-27.7L1110,42.3z"/>
			<path class="st4" d="M1080.1,39.8v31.7h32.3V39.8H1080.1z M1108.9,68h-25.4V43h25.4V68z"/>
			<path class="st3" d="M1117.9,71.5h-37.8v1.3h37.8V71.5z"/>
			<path class="st3" d="M1118,55.1h-5.6v1.4h5.6V55.1z"/>
			<path class="st3" d="M1090.3,73.7l-0.4,0.5l11.8,9.3l0.4-0.5L1090.3,73.7z"/>
			<path class="st3" d="M1081,83.8l-0.4,0.5l11.8,9.3l0.4-0.5L1081,83.8z"/>
			<path class="st4" d="M1109.3,102.7l1.4-2.1l-14.5-12.1l-1.4,2.1L1109.3,102.7z"/>
			<path class="st3" d="M1109.3,102.7l0.5-0.7l-14.6-12.1l-0.5,0.7L1109.3,102.7z"/>
			<path class="st4" d="M1108.6,74.2l-27.2,27.7l2,1.7l27.2-27.7L1108.6,74.2z"/>
			<path class="st3" d="M1110,75.3l-27.2,27.7l0.7,0.5l27.2-27.7L1110,75.3z"/>
			<path class="st4" d="M1080.1,72.8v31.7h32.3V72.8H1080.1z M1108.9,101h-25.4V76h25.4V101z"/>
			<path class="st3" d="M1117.9,104.5h-37.8v1.3h37.8V104.5z"/>
			<path class="st3" d="M1118,88.1h-5.6v1.4h5.6V88.1z"/>
			<path class="st3" d="M1090.3,106.7l-0.4,0.5l11.8,9.3l0.4-0.5L1090.3,106.7z"/>
			<path class="st3" d="M1081,116.7l-0.4,0.5l11.8,9.3l0.4-0.5L1081,116.7z"/>
			<path class="st4" d="M1109.3,135.7l1.4-2.1l-14.5-12.1l-1.4,2.1L1109.3,135.7z"/>
			<path class="st3" d="M1109.3,135.7l0.5-0.7l-14.6-12.1l-0.5,0.7L1109.3,135.7z"/>
			<path class="st4" d="M1108.6,107.2l-27.2,27.7l2,1.7l27.2-27.7L1108.6,107.2z"/>
			<path class="st3" d="M1110,108.3l-27.2,27.7l0.6,0.5l27.2-27.7L1110,108.3z"/>
			<path class="st4" d="M1080.1,105.8v31.7h32.3v-31.7H1080.1z M1108.9,134h-25.4V109h25.4V134z"/>
			<path class="st3" d="M1117.9,137.5h-37.8v1.3h37.8V137.5z"/>
			<path class="st3" d="M1118,121.1h-5.6v1.4h5.6V121.1z"/>
			<path class="st3" d="M1090.3,139.7l-0.4,0.5l11.8,9.3l0.4-0.5L1090.3,139.7z"/>
			<path class="st3" d="M1081,149.7l-0.4,0.5l11.8,9.3l0.4-0.5L1081,149.7z"/>
			<path class="st4" d="M1109.3,168.6l1.4-2.1l-14.5-12.1l-1.4,2.1L1109.3,168.6z"/>
			<path class="st3" d="M1109.3,168.6l0.5-0.7l-14.6-12.1l-0.5,0.7L1109.3,168.6z"/>
			<path class="st4" d="M1108.6,140.1l-27.2,27.7l2,1.7l27.2-27.7L1108.6,140.1z"/>
			<path class="st3" d="M1110,141.3l-27.2,27.7l0.6,0.5l27.2-27.7L1110,141.3z"/>
			<path class="st4" d="M1080.1,138.8v31.7h32.3v-31.7H1080.1z M1108.9,167h-25.4V142h25.4V167z"/>
			<path class="st3" d="M1176.9,170.5h-96.7v1.3h96.7V170.5z"/>
			<path class="st3" d="M1118,154.1h-5.6v1.4h5.6V154.1z"/>
			<path class="st3" d="M1090.3,172.7l-0.4,0.5l11.8,9.3l0.4-0.5L1090.3,172.7z"/>
			<path class="st3" d="M1081,182.7l-0.4,0.5l11.8,9.3l0.4-0.5L1081,182.7z"/>
			<path class="st4" d="M1109.3,201.6l1.4-2.1l-14.5-12.1l-1.4,2.1L1109.3,201.6z"/>
			<path class="st3" d="M1109.3,201.6l0.5-0.7l-14.6-12.1l-0.5,0.7L1109.3,201.6z"/>
			<path class="st4" d="M1108.6,173.1l-27.2,27.7l2,1.7l27.2-27.7L1108.6,173.1z"/>
			<path class="st3" d="M1110,174.2l-27.2,27.7l0.6,0.5l27.2-27.7L1110,174.2z"/>
			<path class="st4" d="M1080.1,171.8v31.7h32.3v-31.7H1080.1z M1108.9,199.9h-25.4V175h25.4V199.9z"/>
			<path class="st3" d="M1112.4,203.5h-32.2v1.3h32.2V203.5z"/>
			<path class="st3" d="M1122.6,172.7l-0.4,0.5l11.8,9.3l0.4-0.5L1122.6,172.7z"/>
			<path class="st3" d="M1113.2,182.8l-0.4,0.5l11.8,9.3l0.4-0.5L1113.2,182.8z"/>
			<path class="st4" d="M1141.5,201.7l1.4-2.1l-14.5-12.1l-1.4,2.1L1141.5,201.7z"/>
			<path class="st3" d="M1141.5,201.7l0.5-0.7l-14.5-12.1l-0.5,0.7L1141.5,201.7z"/>
			<path class="st4" d="M1140.9,173.2l-27.2,27.7l2,1.7l27.2-27.7L1140.9,173.2z"/>
			<path class="st3" d="M1142.2,174.3L1115,202l0.6,0.5l27.2-27.7L1142.2,174.3z"/>
			<path class="st4" d="M1112.4,171.8v31.7h32.2v-31.7H1112.4z M1141.2,200h-25.4v-24.9h25.4V200z"/>
			<path class="st3" d="M1144.6,203.5h-32.2v1.3h32.2V203.5z"/>
			<path class="st3" d="M1154.8,172.8l-0.4,0.5l11.8,9.3l0.4-0.5L1154.8,172.8z"/>
			<path class="st3" d="M1145.5,182.8l-0.4,0.5l11.8,9.3l0.4-0.5L1145.5,182.8z"/>
			<path class="st4" d="M1173.7,201.7l1.4-2.1l-14.5-12.1l-1.5,2.1L1173.7,201.7z"/>
			<path class="st3" d="M1173.7,201.7l0.5-0.7l-14.5-12.1l-0.5,0.7L1173.7,201.7z"/>
			<path class="st4" d="M1173.1,173.2l-27.2,27.7l2,1.7l27.2-27.7L1173.1,173.2z"/>
			<path class="st3" d="M1174.4,174.3l-27.2,27.7l0.6,0.5l27.2-27.7L1174.4,174.3z"/>
			<path class="st4" d="M1144.6,171.9v31.7h32.2v-31.7H1144.6z M1173.4,200H1148v-24.9h25.4V200z"/>
			<path class="st3" d="M1176.8,203.5h-32.2v1.3h32.2V203.5z"/>
			<path class="st3" d="M1081.6,2.1h-1.5v3.5h1.5V2.1z"/>
			<path class="st3" d="M1112.4,2.1h-1.5v3.5h1.5V2.1z"/>
			<path class="st3" d="M1096.7,2.1h-1.5v3.5h1.5V2.1z"/>
			<path class="st3" d="M1104.5,2.1h-1.5v3.5h1.5V2.1z"/>
			<path class="st3" d="M1089.2,2.1h-1.5v3.5h1.5V2.1z"/>
			<path class="st3" d="M1080.1,38.5h-67.2v7.1h67.2V38.5z"/>
			<path class="st3" d="M1080.1,137.7h-67.2v7.1h67.2V137.7z"/>
			<path class="st3" d="M1184.8,204.8h-116v7.1h116V204.8z"/>
			<path class="st3" d="M1365.5,5.6h-32.3v1.3h32.3V5.6z"/>
			<path class="st3" d="M1365.5,0.7h-32.3v1.3h32.3V0.7z"/>
			<path class="st3" d="M1343.4,7.7l-0.4,0.5l11.8,9.3l0.4-0.5L1343.4,7.7z"/>
			<path class="st3" d="M1334,17.8l-0.4,0.5l11.8,9.3l0.4-0.5L1334,17.8z"/>
			<path class="st4" d="M1362.3,36.7l1.4-2.1l-14.5-12.1l-1.4,2.1L1362.3,36.7z"/>
			<path class="st3" d="M1362.3,36.7l0.5-0.7l-14.5-12.1l-0.5,0.7L1362.3,36.7z"/>
			<path class="st4" d="M1361.7,8.2l-27.2,27.7l2,1.7l27.2-27.7L1361.7,8.2z"/>
			<path class="st3" d="M1363,9.3L1335.8,37l0.7,0.5l27.2-27.7L1363,9.3z"/>
			<path class="st4" d="M1333.2,6.8v31.7h32.3V6.8H1333.2z M1362,35h-25.4V10.1h25.4V35z"/>
			<path class="st3" d="M1371,38.5h-37.8v1.3h37.8V38.5z"/>
			<path class="st3" d="M1371,22.1h-5.6v1.4h5.6V22.1z"/>
			<path class="st3" d="M1343.4,40.7l-0.4,0.5l11.8,9.3l0.4-0.5L1343.4,40.7z"/>
			<path class="st3" d="M1334.1,50.8l-0.4,0.5l11.8,9.3l0.4-0.5L1334.1,50.8z"/>
			<path class="st4" d="M1362.3,69.7l1.4-2.1l-14.5-12.1l-1.4,2.1L1362.3,69.7z"/>
			<path class="st3" d="M1362.3,69.7l0.5-0.7l-14.5-12.1l-0.5,0.7L1362.3,69.7z"/>
			<path class="st4" d="M1361.7,41.2l-27.2,27.7l2,1.7l27.2-27.7L1361.7,41.2z"/>
			<path class="st3" d="M1363,42.3l-27.2,27.7l0.7,0.5l27.2-27.7L1363,42.3z"/>
			<path class="st4" d="M1333.2,39.8v31.7h32.3V39.8H1333.2z M1362,68h-25.4V43h25.4V68z"/>
			<path class="st3" d="M1371,71.5h-37.8v1.3h37.8V71.5z"/>
			<path class="st3" d="M1371,55.1h-5.6v1.4h5.6V55.1z"/>
			<path class="st3" d="M1343.4,73.7l-0.4,0.5l11.8,9.3l0.4-0.5L1343.4,73.7z"/>
			<path class="st3" d="M1334.1,83.8l-0.4,0.5l11.8,9.3l0.4-0.5L1334.1,83.8z"/>
			<path class="st4" d="M1362.3,102.7l1.4-2.1l-14.5-12.1l-1.4,2.1L1362.3,102.7z"/>
			<path class="st3" d="M1362.3,102.7l0.5-0.7l-14.5-12.1l-0.5,0.7L1362.3,102.7z"/>
			<path class="st4" d="M1361.7,74.2l-27.2,27.7l2,1.7l27.2-27.7L1361.7,74.2z"/>
			<path class="st3" d="M1363,75.3l-27.2,27.7l0.7,0.5l27.2-27.7L1363,75.3z"/>
			<path class="st4" d="M1333.2,72.8v31.7h32.3V72.8H1333.2z M1362,101h-25.4V76h25.4V101z"/>
			<path class="st3" d="M1371,104.5h-37.8v1.3h37.8V104.5z"/>
			<path class="st3" d="M1371,88.1h-5.6v1.4h5.6V88.1z"/>
			<path class="st3" d="M1343.4,106.7l-0.4,0.5l11.8,9.3l0.4-0.5L1343.4,106.7z"/>
			<path class="st3" d="M1334.1,116.7l-0.4,0.5l11.8,9.3l0.4-0.5L1334.1,116.7z"/>
			<path class="st4" d="M1362.3,135.7l1.4-2.1l-14.5-12.1l-1.4,2.1L1362.3,135.7z"/>
			<path class="st3" d="M1362.3,135.7l0.5-0.7l-14.5-12.1l-0.5,0.7L1362.3,135.7z"/>
			<path class="st4" d="M1361.7,107.2l-27.2,27.7l2,1.7l27.2-27.7L1361.7,107.2z"/>
			<path class="st3" d="M1363,108.3l-27.2,27.7l0.7,0.5l27.2-27.7L1363,108.3z"/>
			<path class="st4" d="M1333.2,105.8v31.7h32.3v-31.7H1333.2z M1362,134h-25.4V109h25.4V134z"/>
			<path class="st3" d="M1371,137.5h-37.8v1.3h37.8V137.5z"/>
			<path class="st3" d="M1371,121.1h-5.6v1.4h5.6V121.1z"/>
			<path class="st3" d="M1343.4,139.7l-0.4,0.5l11.8,9.3l0.4-0.5L1343.4,139.7z"/>
			<path class="st3" d="M1334,149.7l-0.4,0.5l11.8,9.3l0.4-0.5L1334,149.7z"/>
			<path class="st4" d="M1362.3,168.6l1.4-2.1l-14.5-12.1l-1.4,2.1L1362.3,168.6z"/>
			<path class="st3" d="M1362.3,168.6l0.5-0.7l-14.5-12.1l-0.5,0.7L1362.3,168.6z"/>
			<path class="st4" d="M1361.7,140.1l-27.2,27.7l2,1.7l27.2-27.7L1361.7,140.1z"/>
			<path class="st3" d="M1363,141.3l-27.2,27.7l0.7,0.5l27.2-27.7L1363,141.3z"/>
			<path class="st4" d="M1333.2,138.8v31.7h32.3v-31.7H1333.2z M1362,167h-25.4V142h25.4V167z"/>
			<path class="st3" d="M1429.9,170.5h-96.7v1.3h96.7V170.5z"/>
			<path class="st3" d="M1371,154.1h-5.6v1.4h5.6V154.1z"/>
			<path class="st3" d="M1343.4,172.7l-0.4,0.5l11.8,9.3l0.4-0.5L1343.4,172.7z"/>
			<path class="st3" d="M1334.1,182.7l-0.4,0.5l11.8,9.3l0.4-0.5L1334.1,182.7z"/>
			<path class="st4" d="M1362.3,201.6l1.4-2.1l-14.5-12.1l-1.4,2.1L1362.3,201.6z"/>
			<path class="st3" d="M1362.3,201.6l0.5-0.7l-14.5-12.1l-0.5,0.7L1362.3,201.6z"/>
			<path class="st4" d="M1361.7,173.1l-27.2,27.7l2,1.7l27.2-27.7L1361.7,173.1z"/>
			<path class="st3" d="M1363,174.2l-27.2,27.7l0.7,0.5l27.2-27.7L1363,174.2z"/>
			<path class="st4" d="M1333.2,171.8v31.7h32.3v-31.7H1333.2z M1362,199.9h-25.4V175h25.4V199.9z"/>
			<path class="st3" d="M1365.4,203.5h-32.2v1.3h32.2V203.5z"/>
			<path class="st3" d="M1375.6,172.7l-0.4,0.5l11.8,9.3l0.4-0.5L1375.6,172.7z"/>
			<path class="st3" d="M1366.3,182.8l-0.4,0.5l11.8,9.3l0.4-0.5L1366.3,182.8z"/>
			<path class="st4" d="M1394.6,201.7l1.4-2.1l-14.5-12.1l-1.4,2.1L1394.6,201.7z"/>
			<path class="st3" d="M1394.6,201.7l0.5-0.7l-14.5-12.1l-0.5,0.7L1394.6,201.7z"/>
			<path class="st4" d="M1393.9,173.2l-27.2,27.7l2,1.7l27.2-27.7L1393.9,173.2z"/>
			<path class="st3" d="M1395.3,174.3L1368,202l0.6,0.5l27.2-27.7L1395.3,174.3z"/>
			<path class="st4" d="M1365.4,171.8v31.7h32.2v-31.7H1365.4z M1394.2,200h-25.4v-24.9h25.4V200z"/>
			<path class="st3" d="M1397.7,203.5h-32.2v1.3h32.2V203.5z"/>
			<path class="st3" d="M1407.9,172.8l-0.4,0.5l11.8,9.3l0.4-0.5L1407.9,172.8z"/>
			<path class="st3" d="M1398.5,182.8l-0.4,0.5l11.8,9.3l0.4-0.5L1398.5,182.8z"/>
			<path class="st4" d="M1426.8,201.7l1.4-2.1l-14.5-12.1l-1.5,2.1L1426.8,201.7z"/>
			<path class="st3" d="M1426.8,201.7l0.5-0.7l-14.5-12.1l-0.5,0.7L1426.8,201.7z"/>
			<path class="st4" d="M1426.2,173.2l-27.2,27.7l2,1.7l27.2-27.7L1426.2,173.2z"/>
			<path class="st3" d="M1427.5,174.3l-27.2,27.7l0.7,0.5l27.2-27.7L1427.5,174.3z"/>
			<path class="st4" d="M1397.7,171.9v31.7h32.2v-31.7H1397.7z M1426.5,200h-25.4v-24.9h25.4V200z"/>
			<path class="st3" d="M1429.9,203.5h-32.2v1.3h32.2V203.5z"/>
			<path class="st3" d="M1334.7,2.1h-1.5v3.5h1.5V2.1z"/>
			<path class="st3" d="M1365.4,2.1h-1.5v3.5h1.5V2.1z"/>
			<path class="st3" d="M1349.8,2.1h-1.5v3.5h1.5V2.1z"/>
			<path class="st3" d="M1357.5,2.1h-1.5v3.5h1.5V2.1z"/>
			<path class="st3" d="M1342.3,2.1h-1.5v3.5h1.5V2.1z"/>
			<path class="st3" d="M1333.2,38.5h-67.2v7.1h67.2V38.5z"/>
			<path class="st3" d="M1333.2,137.7h-67.2v7.1h67.2V137.7z"/>
			<path class="st3" d="M1440,204.8h-116.1v7.1H1440V204.8z"/>
		</g>
</svg>
