<svg width="242" height="718" viewBox="0 0 242 718" fill="none" xmlns="http://www.w3.org/2000/svg">
<g clip-path="url(#clip0_118_1001)">
<path d="M173.054 515.228C173.054 515.228 232.396 657.069 239.271 655.259C249.868 652.48 206.47 315.953 199.305 300.505C197.563 296.751 176.971 272.543 176.971 272.543L173.054 515.228Z" fill="url(#paint0_linear_118_1001)"/>
<path d="M68.9032 515.228C68.9032 515.228 9.56072 657.069 2.68618 655.259C-7.91142 652.48 35.4871 315.953 42.6514 300.505C44.3938 296.751 64.9857 272.543 64.9857 272.543L68.9032 515.228Z" fill="url(#paint1_linear_118_1001)"/>
<path d="M174.248 221.341C159.166 93.0025 134.366 0.259766 121.173 0.259766C107.206 0.259766 83.2992 91.6848 68.0736 221.341C63.9611 256.008 61.8764 290.886 61.8301 325.797C61.8301 358.224 62.4255 388.259 63.4178 415.705C67.9148 542.607 80.616 614.476 80.616 614.476H161.722C161.722 614.476 174.423 542.599 178.928 415.713C179.9 388.271 180.516 358.236 180.516 325.805C180.459 290.891 178.367 256.011 174.248 221.341Z" fill="#F2F2F2"/>
<path d="M155.308 614.476H86.792V652.306H155.308V614.476Z" fill="url(#paint2_linear_118_1001)"/>
<path d="M174.243 223.178C157.458 233.859 139.636 239.598 121.164 239.598C102.692 239.598 84.8586 233.855 68.0771 223.174C83.3067 92.4148 107.042 0.275391 121.164 0.275391C134.564 0.27936 159.018 92.4188 174.243 223.178Z" fill="url(#paint3_linear_118_1001)"/>
<path opacity="0.68" d="M121.161 453.46L144.384 637.953L139.467 652.306H124.487L121.161 453.46Z" fill="url(#paint4_linear_118_1001)"/>
<path d="M121.161 453.46V716.26L117.14 638.818L121.161 453.46Z" fill="url(#paint5_linear_118_1001)"/>
<path d="M121.161 453.46V716.26L125.186 638.818L121.161 453.46Z" fill="url(#paint6_linear_118_1001)"/>
<path d="M121.161 287.312C131.372 287.312 139.649 279.034 139.649 268.824C139.649 258.613 131.372 250.335 121.161 250.335C110.95 250.335 102.673 258.613 102.673 268.824C102.673 279.034 110.95 287.312 121.161 287.312Z" fill="url(#paint7_linear_118_1001)"/>
<path d="M121.161 336.783C131.372 336.783 139.649 328.506 139.649 318.295C139.649 308.085 131.372 299.807 121.161 299.807C110.95 299.807 102.673 308.085 102.673 318.295C102.673 328.506 110.95 336.783 121.161 336.783Z" fill="url(#paint8_linear_118_1001)"/>
<path d="M121.161 386.249C131.372 386.249 139.649 377.972 139.649 367.761C139.649 357.55 131.372 349.273 121.161 349.273C110.95 349.273 102.673 357.55 102.673 367.761C102.673 377.972 110.95 386.249 121.161 386.249Z" fill="url(#paint9_linear_118_1001)"/>
<path opacity="0.4" d="M115.279 272.542C119.735 272.542 123.348 268.929 123.348 264.472C123.348 260.016 119.735 256.403 115.279 256.403C110.822 256.403 107.21 260.016 107.21 264.472C107.21 268.929 110.822 272.542 115.279 272.542Z" fill="#F9F9F9"/>
<path opacity="0.4" d="M115.279 322.708C119.735 322.708 123.348 319.095 123.348 314.638C123.348 310.182 119.735 306.569 115.279 306.569C110.822 306.569 107.21 310.182 107.21 314.638C107.21 319.095 110.822 322.708 115.279 322.708Z" fill="#F9F9F9"/>
<path opacity="0.4" d="M115.279 371.283C119.735 371.283 123.348 367.67 123.348 363.214C123.348 358.757 119.735 355.144 115.279 355.144C110.822 355.144 107.21 358.757 107.21 363.214C107.21 367.67 110.822 371.283 115.279 371.283Z" fill="#F9F9F9"/>
<path opacity="0.3" d="M180.488 325.808C180.488 358.24 179.889 388.274 178.9 415.717C174.391 542.602 161.694 614.479 161.694 614.479H144.043C144.468 614.424 158.578 479.763 158.578 309.213C158.578 141.422 129.171 9.83729 127.369 5.62207C141.154 27.0554 161.297 111.054 174.248 221.344C178.357 256.015 180.441 290.895 180.488 325.808Z" fill="url(#paint10_linear_118_1001)"/>
<path opacity="0.5" d="M61.8301 325.801C61.8301 358.233 62.4295 388.267 63.4178 415.71C67.9148 542.595 80.616 614.472 80.616 614.472H98.2826C97.8579 614.416 83.7477 479.755 83.7477 309.206C83.7477 141.415 113.155 9.82948 114.957 5.61426C101.173 27.0476 81.0288 111.047 68.0775 221.337C63.9659 256.007 61.8799 290.888 61.8301 325.801Z" fill="white"/>
</g>
<defs>
<linearGradient id="paint0_linear_118_1001" x1="237.611" y1="452.734" x2="193.153" y2="461.976" gradientUnits="userSpaceOnUse">
<stop stop-color="#FBAB7E"/>
<stop offset="0.43" stop-color="#FB957E"/>
<stop offset="0.76" stop-color="#FB707E"/>
<stop offset="1" stop-color="#FB597E"/>
</linearGradient>
<linearGradient id="paint1_linear_118_1001" x1="3.89438" y1="451.714" x2="48.3519" y2="460.956" gradientUnits="userSpaceOnUse">
<stop stop-color="#FBAB7E"/>
<stop offset="0.43" stop-color="#FB957E"/>
<stop offset="0.76" stop-color="#FB707E"/>
<stop offset="1" stop-color="#FB597E"/>
</linearGradient>
<linearGradient id="paint2_linear_118_1001" x1="88.3559" y1="644.788" x2="156.991" y2="620.862" gradientUnits="userSpaceOnUse">
<stop stop-color="#FBAB7E"/>
<stop offset="0.43" stop-color="#FB957E"/>
<stop offset="0.76" stop-color="#FB707E"/>
<stop offset="1" stop-color="#FB597E"/>
</linearGradient>
<linearGradient id="paint3_linear_118_1001" x1="68.0771" y1="119.941" x2="174.243" y2="119.941" gradientUnits="userSpaceOnUse">
<stop stop-color="#FBAB7E"/>
<stop offset="0.43" stop-color="#FB957E"/>
<stop offset="0.76" stop-color="#FB707E"/>
<stop offset="1" stop-color="#FB597E"/>
</linearGradient>
<linearGradient id="paint4_linear_118_1001" x1="75.4527" y1="532.311" x2="483.38" y2="709.461" gradientUnits="userSpaceOnUse">
<stop/>
<stop offset="1" stop-color="#000711"/>
</linearGradient>
<linearGradient id="paint5_linear_118_1001" x1="119.026" y1="533.561" x2="120.475" y2="677.835" gradientUnits="userSpaceOnUse">
<stop stop-color="#FBAB7E"/>
<stop offset="0.43" stop-color="#FB957E"/>
<stop offset="0.76" stop-color="#FB707E"/>
<stop offset="1" stop-color="#FB597E"/>
</linearGradient>
<linearGradient id="paint6_linear_118_1001" x1="123.011" y1="685.094" x2="123.249" y2="482.82" gradientUnits="userSpaceOnUse">
<stop stop-color="#FBAB7E"/>
<stop offset="0.43" stop-color="#FB957E"/>
<stop offset="0.76" stop-color="#FB707E"/>
<stop offset="1" stop-color="#FB597E"/>
</linearGradient>
<linearGradient id="paint7_linear_118_1001" x1="117.263" y1="245.06" x2="139.737" y2="382.083" gradientUnits="userSpaceOnUse">
<stop stop-color="#FBAB7E"/>
<stop offset="0.43" stop-color="#FB957E"/>
<stop offset="0.76" stop-color="#FB707E"/>
<stop offset="1" stop-color="#FB597E"/>
</linearGradient>
<linearGradient id="paint8_linear_118_1001" x1="109.361" y1="246.355" x2="131.834" y2="383.381" gradientUnits="userSpaceOnUse">
<stop stop-color="#FBAB7E"/>
<stop offset="0.43" stop-color="#FB957E"/>
<stop offset="0.76" stop-color="#FB707E"/>
<stop offset="1" stop-color="#FB597E"/>
</linearGradient>
<linearGradient id="paint9_linear_118_1001" x1="101.458" y1="247.651" x2="123.932" y2="384.674" gradientUnits="userSpaceOnUse">
<stop stop-color="#FBAB7E"/>
<stop offset="0.43" stop-color="#FB957E"/>
<stop offset="0.76" stop-color="#FB707E"/>
<stop offset="1" stop-color="#FB597E"/>
</linearGradient>
<linearGradient id="paint10_linear_118_1001" x1="-18.8815" y1="181.502" x2="300.741" y2="447.287" gradientUnits="userSpaceOnUse">
<stop/>
<stop offset="1" stop-color="#000711"/>
</linearGradient>
<clipPath id="clip0_118_1001">
<rect width="241" height="717" fill="white" transform="translate(0.429688 0.182617)"/>
</clipPath>
</defs>
</svg>
