<svg width="1001" height="1000" viewBox="0 0 1001 1000" fill="none" xmlns="http://www.w3.org/2000/svg">
<path d="M501.117 803.525C668.752 803.525 804.647 667.629 804.647 499.994C804.647 332.359 668.752 196.464 501.117 196.464C333.482 196.464 197.587 332.359 197.587 499.994C197.587 667.629 333.482 803.525 501.117 803.525Z" fill="#F9E6C5"/>
<path d="M500.727 804.769C669.069 804.769 805.537 668.301 805.537 499.959C805.537 331.616 669.069 195.148 500.727 195.148C332.384 195.148 195.916 331.616 195.916 499.959C195.916 668.301 332.384 804.769 500.727 804.769Z" fill="#F9E6C5"/>
<path opacity="0.9" d="M198 536.188C191.653 483.09 199.403 429.257 220.47 380.104C339.607 442.321 639.115 230.741 641.054 229.367C652.915 235.506 664.358 242.42 675.309 250.065C675.309 250.065 431.391 370.808 404.016 406.575C376.641 442.343 272.638 551.366 198 536.188Z" fill="#44352A"/>
<path opacity="0.7" d="M204.084 570.234C201.406 559.012 199.374 547.644 198 536.189C272.638 551.381 376.691 442.35 404.03 406.576C431.37 370.801 675.324 250.065 675.324 250.065C688.286 259.089 700.52 269.116 711.916 280.052C711.916 280.052 611.834 319.118 606.943 338.441C602.053 357.765 652.072 351.044 613.454 376.835C574.837 402.626 555.73 364.804 482.857 416.4C409.984 467.997 270.749 605.126 204.084 570.234Z" fill="#B89774"/>
<path d="M218.473 615.045C212.536 600.498 207.726 585.517 204.083 570.234C270.749 605.126 409.926 467.975 482.807 416.4C555.687 364.825 574.742 402.655 613.404 376.835C652.065 351.015 602.038 357.757 606.892 338.441C611.747 319.125 711.865 280.052 711.865 280.052C741.507 308.48 765.066 342.632 781.113 380.438C781.113 380.438 728.526 381.769 644.874 435.991C561.221 490.214 503.374 498.208 471.311 506.752C439.248 515.296 307.03 598.427 221.888 623.097C220.716 620.434 219.577 617.75 218.473 615.045Z" fill="#876349"/>
<path opacity="0.7" d="M221.888 623.097C307.03 598.427 439.248 515.303 471.311 506.737C503.374 498.172 561.214 490.199 644.874 435.977C728.533 381.754 781.113 380.438 781.113 380.438C781.75 381.884 782.372 383.404 782.98 384.894C796.322 417.513 803.896 452.202 805.363 487.414C801.58 485.916 697.367 445.91 541.529 524.664C382.775 604.895 373.87 592.01 363.409 595.417C352.948 598.825 356.594 625.621 328.734 645.632C300.874 665.643 269.65 648.526 253.495 678.354C241.059 661.089 230.465 642.569 221.888 623.097Z" fill="#B89774"/>
<path d="M253.488 678.353C269.65 648.526 300.866 665.643 328.726 645.632C356.586 625.621 352.933 598.818 363.401 595.417C373.87 592.017 382.768 604.895 541.522 524.664C697.367 445.909 801.58 485.916 805.363 487.414C805.725 496.225 805.701 505.008 805.291 513.762C805.291 513.762 661.216 525.257 648.194 551.461C635.172 577.664 608.281 578.807 586.195 587.25C564.108 595.692 462.984 595.895 417.161 635.547C371.338 675.199 360.008 747.826 349.489 764.625C311.677 743.078 278.938 713.657 253.488 678.353Z" fill="#B89774"/>
<path d="M349.482 764.625C360.009 747.827 371.323 675.207 417.161 635.548C462.999 595.888 564.115 595.693 586.202 587.25C608.289 578.807 635.179 577.664 648.202 551.461C661.224 525.258 805.291 513.762 805.291 513.762C804.017 541.501 798.956 568.935 790.251 595.302C790.251 595.302 450.758 617.346 369.884 775.267C362.963 772.007 356.162 768.459 349.482 764.625Z" fill="#876349"/>
<path d="M369.883 775.267C450.758 617.345 790.25 595.302 790.25 595.302C786.262 607.402 781.521 619.241 776.056 630.751C776.056 630.751 537.036 676.509 442.149 799.126C417.162 794.206 392.887 786.191 369.883 775.267Z" fill="#B89774"/>
<path d="M442.149 799.126C537.037 676.509 776.057 630.751 776.057 630.751C743.503 699.532 686.313 753.585 615.806 782.212C560.826 804.734 500.442 810.615 442.149 799.126Z" fill="#574435"/>
<path opacity="0.3" d="M374.745 572.542C408.472 464.748 556.331 334.433 669.709 369.919C783.088 405.404 792.696 508.821 758.954 616.615C725.212 724.408 602.364 800.942 488.956 765.457C375.548 729.972 341.018 680.329 374.745 572.542Z" fill="#F1DFB1"/>
<path opacity="0.6" d="M463.686 596.496C487.972 518.877 593.74 424.807 674.593 450.106C755.445 475.405 762.072 549.812 737.779 627.438C713.485 705.064 625.644 760.371 544.799 735.072C463.954 709.773 439.392 674.158 463.686 596.496Z" fill="#F1DFB1"/>
<path opacity="0.2" d="M294.732 350.653C243.063 377.964 220.166 377.059 208.967 446.416C197.768 515.773 192.479 523.261 243.403 517.77C324.632 509.002 233.485 476.331 261.012 436.968C272.073 421.153 330.658 331.663 294.732 350.653Z" fill="#B89774"/>
<path opacity="0.4" d="M361.079 732.265C417.226 731.542 386.06 756.551 375.324 764.256C364.588 771.961 357.389 763.699 325.406 739.246C293.422 714.794 355.754 732.337 361.079 732.265Z" fill="#F1DFB1"/>
<path opacity="0.4" d="M426.515 706.496C455.736 709.216 418.811 727.628 409.717 729.928C400.623 732.229 378.377 725.161 373.219 714.353C368.061 703.544 423.752 706.236 426.515 706.496Z" fill="#F1DFB1"/>
</svg>
