<svg width="1001" height="1000" viewBox="0 0 1001 1000" fill="none" xmlns="http://www.w3.org/2000/svg">
<path d="M428.271 700.336C488.538 696.037 530.953 602.267 523.009 490.894C515.065 379.522 459.769 292.722 399.502 297.02C339.236 301.319 296.82 395.089 304.764 506.462C312.708 617.834 368.004 704.634 428.271 700.336Z" fill="url(#paint0_radial_105_1202)"/>
<path d="M500.723 804.865C669.098 804.865 805.592 668.371 805.592 499.996C805.592 331.621 669.098 195.126 500.723 195.126C332.348 195.126 195.854 331.621 195.854 499.996C195.854 668.371 332.348 804.865 500.723 804.865Z" fill="#0C54BA"/>
<path d="M308.895 736.946C259.314 696.81 346.668 561.523 468.439 445.235C598.194 321.326 772.866 351.114 790.489 405.093C821.508 500.086 805.241 608.384 737.68 691.83C631.727 822.694 439.759 842.892 308.895 736.946Z" fill="#1A8BDF"/>
<path opacity="0.6" d="M495.386 534.491C625.141 410.582 803.69 456.842 805.144 483.408C809.361 558.85 785.304 633.155 737.673 691.812C664.835 781.801 551.34 819.465 444.993 799.788C396.648 790.846 373.615 650.779 495.386 534.491Z" fill="#63CEFC"/>
<path opacity="0.5" d="M308.895 736.946C178.031 630.999 157.832 439.032 263.773 308.167C369.714 177.303 561.693 157.105 692.558 263.052C737.159 299.153 725.06 377.48 619.114 508.338C513.167 639.196 337.029 759.755 308.895 736.946Z" fill="#09279A"/>
<path opacity="0.6" d="M308.895 736.946C178.031 630.999 157.832 439.032 263.773 308.167C310.056 250.826 375.61 212.269 448.216 199.682C531.947 185.076 414.29 270.43 308.325 401.295C202.36 532.159 439.759 842.893 308.895 736.946Z" fill="#09279A"/>
<path opacity="0.9" d="M664.12 731.895C716.062 694.282 744.036 644.273 726.602 620.198C709.168 596.123 652.928 607.097 600.986 644.711C549.044 682.324 521.07 732.333 538.504 756.408C555.938 780.483 612.178 769.509 664.12 731.895Z" fill="#63CEFC"/>
<path opacity="0.1" d="M651.155 726.073C670.371 712.158 680.72 693.656 674.269 684.748C667.819 675.841 647.012 679.9 627.795 693.816C608.579 707.731 598.23 726.233 604.681 735.14C611.131 744.048 631.938 739.988 651.155 726.073Z" fill="white"/>
<path opacity="0.6" d="M460.236 802.163C460.236 802.163 438.075 798.431 429.945 796.601C420.33 794.445 405.918 789.804 405.918 789.804C405.918 789.804 410.159 744.167 452.021 689.758C493.884 635.349 553.254 598.387 571.581 589.227C589.907 580.067 601.63 588.476 598.552 593.62C595.474 598.763 445.751 698.87 460.236 802.163Z" fill="#63CEFC"/>
<path opacity="0.6" d="M587.786 792.306C587.786 792.306 566.031 797.928 557.865 799.576C548.171 801.521 533.147 803.163 533.147 803.163C533.147 803.163 544.864 795.372 545.197 762.978C545.367 746.578 509.914 731.651 515.305 709.217C522.4 679.738 567.019 662.405 582.764 640.262C601.835 613.442 622.555 564.177 643.492 551.812C661.109 541.379 692.939 539.089 692.231 545.021C689.759 565.715 658.183 551.618 639.112 599.411C620.507 646.06 554.296 688.425 552.8 710.52C550.886 738.794 573.204 769.03 587.786 792.306Z" fill="#63CEFC"/>
<path d="M217.803 506.224C203.087 501.468 197.15 461.623 213.883 409.855C230.616 358.087 263.67 314.007 278.397 318.757C293.125 323.507 291.453 369.331 274.72 421.099C257.987 472.867 232.506 510.973 217.803 506.224Z" fill="#09279A"/>
<path opacity="0.8" d="M258.057 505.244C263.462 502.381 266.557 497.632 264.971 494.637C263.384 491.642 257.717 491.534 252.312 494.397C246.907 497.26 243.812 502.009 245.398 505.004C246.985 507.999 252.652 508.107 258.057 505.244Z" fill="#09279A"/>
<path opacity="0.8" d="M237.208 529.764C241.365 527.561 243.624 523.679 242.254 521.092C240.884 518.505 236.403 518.193 232.246 520.395C228.089 522.597 225.829 526.479 227.2 529.066C228.57 531.653 233.051 531.966 237.208 529.764Z" fill="#09279A"/>
<path opacity="0.6" d="M532.804 762.353C534.229 758.747 533.765 755.183 531.767 754.394C529.769 753.604 526.994 755.888 525.569 759.495C524.144 763.101 524.609 766.665 526.606 767.454C528.604 768.244 531.379 765.96 532.804 762.353Z" fill="#63CEFC"/>
<defs>
<radialGradient id="paint0_radial_105_1202" cx="0" cy="0" r="1" gradientUnits="userSpaceOnUse" gradientTransform="translate(324.15 520.095) rotate(128.889) scale(198.34 198.34)">
<stop stop-color="white"/>
<stop offset="0.11" stop-color="#FAFAFA" stop-opacity="0.98"/>
<stop offset="0.23" stop-color="#ECECEC" stop-opacity="0.93"/>
<stop offset="0.36" stop-color="#D5D5D5" stop-opacity="0.83"/>
<stop offset="0.5" stop-color="#B4B4B4" stop-opacity="0.7"/>
<stop offset="0.64" stop-color="#898989" stop-opacity="0.54"/>
<stop offset="0.79" stop-color="#565656" stop-opacity="0.34"/>
<stop offset="0.94" stop-color="#1A1A1A" stop-opacity="0.1"/>
<stop offset="1" stop-opacity="0"/>
</radialGradient>
</defs>
</svg>
