<svg width="725" height="725" viewBox="0 0 725 725" fill="none" xmlns="http://www.w3.org/2000/svg">
<path d="M362.684 722.683C561.803 722.683 723.221 561.265 723.221 362.145C723.221 163.026 561.803 1.6084 362.684 1.6084C163.564 1.6084 2.14648 163.026 2.14648 362.145C2.14648 561.265 163.564 722.683 362.684 722.683Z" fill="#F9E6C5"/>
<path d="M362.22 724.161C562.179 724.161 724.278 562.062 724.278 362.103C724.278 162.144 562.179 0.0449219 362.22 0.0449219C162.261 0.0449219 0.162109 162.144 0.162109 362.103C0.162109 562.062 162.261 724.161 362.22 724.161Z" fill="#F9E6C5"/>
<path opacity="0.9" d="M2.63608 405.137C-4.90214 342.066 4.30343 278.122 29.3266 219.739C170.84 293.64 526.599 42.3231 528.902 40.6904C542.991 47.9824 556.583 56.1953 569.591 65.2756C569.591 65.2756 279.862 208.696 247.345 251.181C214.828 293.666 91.2923 423.166 2.63608 405.137Z" fill="#44352A"/>
<path opacity="0.7" d="M9.86362 445.578C6.68264 432.247 4.2697 418.745 2.63672 405.138C91.293 423.184 214.889 293.675 247.363 251.182C279.837 208.689 569.609 65.2764 569.609 65.2764C585.005 75.9957 599.538 87.9051 613.073 100.895C613.073 100.895 494.195 147.299 488.386 170.251C482.577 193.204 541.99 185.22 496.119 215.855C450.249 246.49 427.554 201.565 340.995 262.852C254.435 324.138 89.0501 487.023 9.86362 445.578Z" fill="#B89774"/>
<path d="M26.9552 498.805C19.9034 481.526 14.1893 463.732 9.86328 445.578C89.0498 487.023 254.366 324.113 340.934 262.852C427.502 201.591 450.137 246.525 496.059 215.856C541.981 185.186 482.559 193.195 488.325 170.251C494.091 147.307 613.013 100.896 613.013 100.896C648.222 134.663 676.205 175.229 695.267 220.135C695.267 220.135 632.803 221.716 533.44 286.122C434.076 350.529 365.365 360.024 327.28 370.173C289.194 380.321 132.145 479.066 31.0112 508.369C29.6191 505.206 28.2671 502.018 26.9552 498.805Z" fill="#876349"/>
<path opacity="0.7" d="M31.0117 508.369C132.145 479.066 289.195 380.33 327.28 370.155C365.365 359.981 434.068 350.511 533.44 286.105C632.812 221.699 695.268 220.135 695.268 220.135C696.024 221.853 696.763 223.658 697.485 225.428C713.333 264.174 722.329 305.378 724.072 347.203C719.578 345.424 595.792 297.903 410.686 391.449C222.116 486.748 211.538 471.443 199.112 475.491C186.686 479.538 191.017 511.368 157.925 535.136C124.832 558.905 87.7442 538.574 68.5555 574.004C53.7834 553.496 41.2001 531.498 31.0117 508.369V508.369Z" fill="#B89774"/>
<path d="M68.5469 574.003C87.7441 538.573 124.824 558.905 157.916 535.136C191.009 511.367 186.669 479.529 199.104 475.49C211.538 471.452 222.108 486.748 410.677 391.449C595.792 297.903 719.578 345.423 724.072 347.202C724.502 357.669 724.473 368.101 723.986 378.499C723.986 378.499 552.852 392.153 537.384 423.278C521.916 454.403 489.976 455.76 463.74 465.789C437.505 475.817 317.389 476.058 262.96 523.157C208.53 570.256 195.073 656.524 182.579 676.477C137.665 650.884 98.7767 615.937 68.5469 574.003V574.003Z" fill="#B89774"/>
<path d="M182.57 676.477C195.073 656.524 208.513 570.265 262.96 523.157C317.406 476.049 437.514 475.817 463.749 465.789C489.984 455.761 521.925 454.403 537.393 423.278C552.861 392.154 723.986 378.499 723.986 378.499C722.472 411.447 716.462 444.033 706.121 475.353C706.121 475.353 302.867 501.537 206.803 689.118C198.582 685.245 190.505 681.032 182.57 676.477Z" fill="#876349"/>
<path d="M206.801 689.118C302.864 501.537 706.118 475.354 706.118 475.354C701.38 489.726 695.75 503.789 689.258 517.46C689.258 517.46 405.347 571.812 292.638 717.459C262.96 711.615 234.125 702.095 206.801 689.118V689.118Z" fill="#B89774"/>
<path d="M292.639 717.459C405.347 571.813 689.259 517.461 689.259 517.461C650.59 599.16 582.659 663.365 498.91 697.369C433.604 724.12 361.88 731.106 292.639 717.459Z" fill="#574435"/>
<path opacity="0.3" d="M212.577 448.32C252.639 320.281 428.267 165.491 562.94 207.641C697.613 249.79 709.025 372.631 668.946 500.669C628.867 628.708 482.946 719.616 348.239 677.466C213.531 635.317 172.516 576.35 212.577 448.32Z" fill="#F1DFB1"/>
<path opacity="0.6" d="M318.222 476.771C347.069 384.574 472.702 272.836 568.74 302.887C664.778 332.937 672.649 421.319 643.793 513.524C614.937 605.729 510.598 671.424 414.569 641.374C318.54 611.323 289.366 569.019 318.222 476.771Z" fill="#F1DFB1"/>
<path opacity="0.2" d="M117.537 184.756C56.1643 217.196 28.9668 216.122 15.6645 298.505C2.36215 380.888 -3.91949 389.782 56.5682 383.26C153.053 372.845 44.7869 334.038 77.4841 287.282C90.6231 268.497 160.211 162.199 117.537 184.756Z" fill="#B89774"/>
<path opacity="0.4" d="M196.345 638.04C263.037 637.18 226.017 666.887 213.265 676.039C200.513 685.191 191.962 675.377 153.972 646.332C115.981 617.287 190.02 638.126 196.345 638.04Z" fill="#F1DFB1"/>
<path opacity="0.4" d="M274.07 607.431C308.778 610.662 264.918 632.532 254.117 635.265C243.315 637.997 216.891 629.602 210.764 616.763C204.637 603.925 270.787 607.122 274.07 607.431Z" fill="#F1DFB1"/>
</svg>
