<svg width="1140" height="600" viewBox="0 0 1140 600" fill="none" xmlns="http://www.w3.org/2000/svg">
<g clip-path="url(#clip0_170_16)">
<rect width="1140" height="600" fill="white"/>
<path d="M1140 0H0V600H1140V0Z" fill="#470B96"/>
<g filter="url(#filter0_f_170_16)">
<rect x="-162.805" y="-99.623" width="1765.61" height="453.634" fill="#8B2BA0"/>
</g>
<path opacity="0.5" fill-rule="evenodd" clip-rule="evenodd" d="M-20.4004 321.971C-5.59333 286.074 -4.19418 241.045 23.9488 214.296C68.7218 171.719 168.006 210.693 208.717 176.417C226.962 161.069 199.731 125.572 232.415 108.969C253.003 98.5111 222.869 59.9454 222.925 40.355C223.117 -9.53978 297.935 -25.8784 335.457 -58.4199H-20.4004V321.971Z" fill="#B89774"/>
<g style="mix-blend-mode:screen">
<path d="M757.811 454.48C761.273 454.48 764.079 451.725 764.079 448.328C764.079 444.93 761.273 442.176 757.811 442.176C754.349 442.176 751.543 444.93 751.543 448.328C751.543 451.725 754.349 454.48 757.811 454.48Z" fill="#ADA693"/>
</g>
<g style="mix-blend-mode:screen">
<path d="M1025.5 273.655C1028.96 273.655 1031.77 270.9 1031.77 267.503C1031.77 264.105 1028.96 261.351 1025.5 261.351C1022.04 261.351 1019.23 264.105 1019.23 267.503C1019.23 270.9 1022.04 273.655 1025.5 273.655Z" fill="#ADA693"/>
</g>
<g style="mix-blend-mode:screen">
<path d="M698.807 456.095C698.795 456.764 698.982 457.422 699.344 457.985C699.707 458.548 700.23 458.99 700.845 459.255C701.46 459.52 702.141 459.596 702.799 459.473C703.458 459.35 704.065 459.034 704.543 458.566C705.022 458.097 705.349 457.496 705.485 456.84C705.62 456.185 705.557 455.504 705.304 454.884C705.051 454.264 704.618 453.734 704.062 453.36C703.506 452.987 702.851 452.787 702.181 452.787C701.742 452.783 701.307 452.865 700.9 453.029C700.493 453.193 700.122 453.436 699.809 453.743C699.495 454.05 699.246 454.416 699.074 454.819C698.902 455.223 698.811 455.656 698.807 456.095Z" fill="#ADA693"/>
</g>
<g style="mix-blend-mode:screen">
<path d="M930.432 193.536C930.421 194.205 930.609 194.862 930.973 195.424C931.337 195.985 931.86 196.426 932.476 196.69C933.091 196.954 933.771 197.029 934.429 196.905C935.087 196.781 935.694 196.465 936.171 195.995C936.649 195.526 936.976 194.926 937.11 194.27C937.245 193.615 937.182 192.934 936.928 192.314C936.675 191.695 936.242 191.165 935.686 190.792C935.13 190.419 934.476 190.22 933.806 190.22C933.366 190.216 932.93 190.298 932.523 190.463C932.115 190.627 931.744 190.87 931.431 191.178C931.117 191.486 930.868 191.853 930.696 192.257C930.525 192.662 930.435 193.096 930.432 193.536Z" fill="#ADA693"/>
</g>
<g style="mix-blend-mode:screen">
<path d="M1029.93 134.42C1029.92 135.089 1030.11 135.747 1030.48 136.308C1030.84 136.87 1031.36 137.311 1031.98 137.575C1032.59 137.839 1033.27 137.913 1033.93 137.79C1034.59 137.666 1035.2 137.349 1035.67 136.88C1036.15 136.411 1036.48 135.81 1036.61 135.155C1036.75 134.499 1036.68 133.819 1036.43 133.199C1036.18 132.58 1035.74 132.05 1035.19 131.677C1034.63 131.304 1033.98 131.105 1033.31 131.105C1032.87 131.1 1032.43 131.183 1032.02 131.347C1031.62 131.512 1031.25 131.755 1030.93 132.063C1030.62 132.371 1030.37 132.738 1030.2 133.142C1030.03 133.547 1029.94 133.981 1029.93 134.42Z" fill="#ADA693"/>
</g>
<g style="mix-blend-mode:screen">
<path d="M1128.01 86.2748C1128 86.9439 1128.19 87.6012 1128.55 88.163C1128.92 88.7247 1129.44 89.1656 1130.05 89.4293C1130.67 89.6931 1131.35 89.7679 1132.01 89.6442C1132.67 89.5205 1133.27 89.2039 1133.75 88.7347C1134.23 88.2654 1134.55 87.6648 1134.69 87.0093C1134.82 86.3538 1134.76 85.6731 1134.51 85.0537C1134.25 84.4344 1133.82 83.9045 1133.26 83.5315C1132.71 83.1585 1132.05 82.9592 1131.38 82.9591C1130.94 82.9549 1130.51 83.0374 1130.1 83.2019C1129.69 83.3663 1129.32 83.6095 1129.01 83.9175C1128.7 84.2255 1128.45 84.5922 1128.27 84.9967C1128.1 85.4012 1128.01 85.8356 1128.01 86.2748Z" fill="#ADA693"/>
</g>
<g style="mix-blend-mode:screen">
<path d="M717.755 595.089C717.742 595.759 717.929 596.417 718.292 596.979C718.655 597.542 719.177 597.984 719.792 598.249C720.408 598.514 721.088 598.59 721.747 598.467C722.405 598.345 723.012 598.029 723.491 597.56C723.969 597.091 724.297 596.49 724.432 595.835C724.568 595.179 724.505 594.498 724.251 593.878C723.998 593.258 723.566 592.728 723.009 592.354C722.453 591.981 721.799 591.782 721.129 591.781C720.69 591.777 720.254 591.859 719.847 592.023C719.44 592.187 719.069 592.43 718.756 592.737C718.443 593.044 718.193 593.41 718.021 593.813C717.849 594.217 717.759 594.651 717.755 595.089Z" fill="#ADA693"/>
</g>
<g style="mix-blend-mode:screen">
<path d="M366.063 311.654C366.05 312.323 366.237 312.981 366.6 313.544C366.963 314.107 367.486 314.549 368.101 314.814C368.716 315.079 369.397 315.155 370.055 315.032C370.714 314.909 371.321 314.593 371.799 314.124C372.278 313.655 372.605 313.055 372.741 312.399C372.876 311.743 372.813 311.062 372.56 310.442C372.306 309.823 371.874 309.292 371.318 308.919C370.762 308.545 370.107 308.346 369.437 308.346C368.998 308.342 368.563 308.424 368.156 308.588C367.749 308.752 367.378 308.994 367.065 309.301C366.751 309.609 366.502 309.974 366.33 310.378C366.158 310.782 366.067 311.215 366.063 311.654Z" fill="#ADA693"/>
</g>
<g style="mix-blend-mode:screen">
<path d="M874.42 131.137C874.409 131.806 874.598 132.464 874.962 133.025C875.325 133.587 875.849 134.028 876.464 134.292C877.079 134.555 877.759 134.63 878.418 134.507C879.076 134.383 879.682 134.066 880.16 133.597C880.637 133.128 880.964 132.527 881.099 131.872C881.234 131.216 881.17 130.535 880.916 129.916C880.663 129.297 880.231 128.767 879.675 128.394C879.119 128.021 878.464 127.822 877.794 127.821C877.355 127.817 876.919 127.9 876.511 128.064C876.104 128.229 875.732 128.472 875.419 128.78C875.106 129.088 874.856 129.455 874.685 129.859C874.513 130.264 874.424 130.698 874.42 131.137Z" fill="#ADA693"/>
</g>
<g style="mix-blend-mode:screen">
<path d="M288.581 196.787C288.568 197.457 288.755 198.115 289.118 198.678C289.481 199.24 290.003 199.682 290.619 199.947C291.234 200.212 291.914 200.288 292.573 200.166C293.231 200.043 293.839 199.727 294.317 199.258C294.795 198.789 295.123 198.189 295.258 197.533C295.394 196.877 295.331 196.196 295.077 195.576C294.824 194.956 294.392 194.426 293.836 194.053C293.279 193.679 292.625 193.48 291.955 193.48C291.069 193.473 290.217 193.818 289.584 194.437C288.952 195.057 288.591 195.902 288.581 196.787Z" fill="#ADA693"/>
</g>
<g style="mix-blend-mode:screen">
<path d="M104.635 444.085C104.623 444.755 104.81 445.413 105.173 445.975C105.536 446.538 106.058 446.98 106.673 447.245C107.289 447.51 107.969 447.586 108.627 447.463C109.286 447.341 109.893 447.025 110.372 446.556C110.85 446.087 111.178 445.486 111.313 444.831C111.448 444.175 111.386 443.494 111.132 442.874C110.879 442.254 110.446 441.724 109.89 441.35C109.334 440.977 108.679 440.778 108.009 440.777C107.57 440.773 107.135 440.856 106.728 441.019C106.321 441.183 105.95 441.426 105.637 441.733C105.323 442.04 105.074 442.406 104.902 442.81C104.73 443.213 104.64 443.647 104.635 444.085Z" fill="#ADA693"/>
</g>
<g style="mix-blend-mode:screen">
<path d="M731.442 172.139C731.429 172.808 731.616 173.466 731.979 174.029C732.342 174.592 732.865 175.034 733.48 175.299C734.095 175.564 734.775 175.64 735.434 175.517C736.093 175.394 736.7 175.078 737.178 174.61C737.656 174.141 737.984 173.54 738.12 172.884C738.255 172.229 738.192 171.547 737.939 170.928C737.685 170.308 737.253 169.777 736.697 169.404C736.141 169.031 735.486 168.831 734.816 168.831C733.93 168.825 733.078 169.169 732.446 169.789C731.813 170.409 731.453 171.254 731.442 172.139Z" fill="#ADA693"/>
</g>
<g style="mix-blend-mode:screen">
<path d="M458.87 110.587C458.857 111.256 459.044 111.915 459.407 112.477C459.77 113.04 460.292 113.482 460.908 113.747C461.523 114.012 462.203 114.088 462.862 113.965C463.521 113.843 464.128 113.527 464.606 113.058C465.084 112.589 465.412 111.988 465.547 111.333C465.683 110.677 465.62 109.996 465.367 109.376C465.113 108.756 464.681 108.226 464.125 107.852C463.569 107.479 462.914 107.28 462.244 107.279C461.358 107.273 460.506 107.617 459.873 108.237C459.241 108.857 458.88 109.702 458.87 110.587Z" fill="#ADA693"/>
</g>
<g style="mix-blend-mode:screen">
<path d="M1071.71 29.3742C1071.7 30.0437 1071.88 30.7017 1072.25 31.2645C1072.61 31.8273 1073.13 32.2694 1073.75 32.5344C1074.36 32.7994 1075.04 32.8754 1075.7 32.7526C1076.36 32.6298 1076.97 32.3138 1077.45 31.8449C1077.92 31.3761 1078.25 30.7755 1078.39 30.1198C1078.52 29.4641 1078.46 28.7829 1078.21 28.1631C1077.95 27.5433 1077.52 27.0129 1076.96 26.6395C1076.41 26.2661 1075.75 26.0667 1075.08 26.0666C1074.64 26.0623 1074.21 26.1446 1073.8 26.3085C1073.4 26.4725 1073.02 26.7149 1072.71 27.0221C1072.4 27.3292 1072.15 27.695 1071.98 28.0986C1071.8 28.5022 1071.71 28.9357 1071.71 29.3742Z" fill="#ADA693"/>
</g>
<g style="mix-blend-mode:screen">
<path d="M358.875 337.715C358.867 338.115 358.979 338.508 359.195 338.844C359.412 339.18 359.724 339.445 360.091 339.603C360.458 339.762 360.865 339.807 361.258 339.734C361.652 339.661 362.014 339.473 362.3 339.193C362.586 338.913 362.782 338.554 362.863 338.162C362.944 337.771 362.906 337.364 362.755 336.994C362.604 336.624 362.346 336.307 362.014 336.084C361.681 335.861 361.29 335.741 360.89 335.741C360.628 335.738 360.368 335.787 360.125 335.884C359.881 335.982 359.66 336.127 359.473 336.31C359.285 336.493 359.136 336.712 359.034 336.953C358.931 337.194 358.877 337.453 358.875 337.715Z" fill="#ADA693"/>
</g>
<g style="mix-blend-mode:screen">
<path d="M309.735 413.932C309.727 414.333 309.838 414.726 310.055 415.063C310.272 415.399 310.584 415.663 310.952 415.822C311.32 415.98 311.727 416.025 312.121 415.951C312.514 415.878 312.877 415.688 313.162 415.407C313.448 415.127 313.643 414.767 313.723 414.375C313.803 413.983 313.765 413.576 313.612 413.206C313.46 412.836 313.2 412.52 312.867 412.297C312.534 412.075 312.142 411.958 311.742 411.959C311.48 411.957 311.221 412.006 310.979 412.104C310.736 412.202 310.516 412.347 310.329 412.53C310.143 412.714 309.994 412.932 309.892 413.172C309.79 413.413 309.737 413.671 309.735 413.932Z" fill="#ADA693"/>
</g>
<g style="mix-blend-mode:screen">
<path d="M81.2582 354.363C81.2503 354.761 81.361 355.153 81.5761 355.489C81.7913 355.824 82.1012 356.088 82.4667 356.248C82.8322 356.407 83.2368 356.455 83.6293 356.384C84.0218 356.314 84.3846 356.128 84.6716 355.851C84.9585 355.575 85.1569 355.219 85.2415 354.83C85.3261 354.44 85.2932 354.035 85.1468 353.664C85.0005 353.293 84.7474 352.974 84.4195 352.747C84.0916 352.52 83.7037 352.396 83.305 352.389C83.0402 352.382 82.7766 352.427 82.5296 352.523C82.2827 352.619 82.0573 352.763 81.8666 352.946C81.676 353.13 81.524 353.35 81.4196 353.593C81.3151 353.837 81.2602 354.098 81.2582 354.363Z" fill="#ADA693"/>
</g>
<g style="mix-blend-mode:screen">
<path d="M39.3305 510.831C39.3225 511.231 39.4339 511.624 39.6504 511.96C39.8669 512.297 40.1787 512.561 40.5461 512.719C40.9135 512.878 41.3198 512.923 41.7132 512.85C42.1067 512.777 42.4694 512.589 42.7552 512.309C43.041 512.029 43.2369 511.67 43.3179 511.279C43.3989 510.887 43.3614 510.48 43.2102 510.11C43.0589 509.74 42.8008 509.423 42.4687 509.2C42.1365 508.977 41.7454 508.858 41.3453 508.858C41.0832 508.854 40.823 508.903 40.5797 509.001C40.3365 509.098 40.1149 509.243 39.9277 509.426C39.7405 509.609 39.5914 509.828 39.4889 510.069C39.3864 510.31 39.3326 510.569 39.3305 510.831Z" fill="#ADA693"/>
</g>
<g style="mix-blend-mode:screen">
<path d="M215.592 331.38C215.584 331.78 215.696 332.173 215.913 332.51C216.13 332.846 216.442 333.111 216.81 333.269C217.178 333.427 217.584 333.472 217.978 333.399C218.372 333.325 218.734 333.135 219.02 332.855C219.305 332.574 219.5 332.215 219.581 331.822C219.661 331.43 219.622 331.023 219.47 330.653C219.317 330.283 219.058 329.967 218.725 329.745C218.391 329.523 217.999 329.405 217.599 329.406C217.338 329.404 217.078 329.454 216.836 329.552C216.594 329.65 216.373 329.794 216.187 329.978C216 330.161 215.852 330.379 215.75 330.62C215.648 330.86 215.594 331.118 215.592 331.38Z" fill="#ADA693"/>
</g>
<g style="mix-blend-mode:screen">
<path d="M144.804 459.402C145.917 459.402 146.819 458.518 146.819 457.429C146.819 456.339 145.917 455.455 144.804 455.455C143.691 455.455 142.789 456.339 142.789 457.429C142.789 458.518 143.691 459.402 144.804 459.402Z" fill="#ADA693"/>
</g>
<g style="mix-blend-mode:screen">
<path d="M598.995 308.402C598.987 308.802 599.098 309.196 599.315 309.532C599.532 309.869 599.844 310.133 600.212 310.291C600.58 310.45 600.987 310.495 601.38 310.421C601.774 310.347 602.137 310.158 602.422 309.877C602.708 309.596 602.903 309.237 602.983 308.845C603.063 308.453 603.024 308.046 602.872 307.676C602.72 307.306 602.46 306.989 602.127 306.767C601.794 306.545 601.402 306.427 601.001 306.429C600.74 306.427 600.481 306.476 600.238 306.574C599.996 306.672 599.775 306.817 599.589 307C599.403 307.183 599.254 307.402 599.152 307.642C599.05 307.883 598.997 308.141 598.995 308.402Z" fill="#ADA693"/>
</g>
<g style="mix-blend-mode:screen">
<path d="M710.231 204.233C710.223 204.633 710.335 205.027 710.551 205.363C710.768 205.7 711.08 205.964 711.448 206.122C711.816 206.281 712.223 206.326 712.617 206.252C713.01 206.178 713.373 205.989 713.658 205.708C713.944 205.427 714.139 205.068 714.219 204.676C714.299 204.284 714.261 203.877 714.108 203.507C713.956 203.137 713.696 202.82 713.363 202.598C713.03 202.376 712.638 202.258 712.238 202.26C711.71 202.258 711.203 202.464 710.828 202.833C710.452 203.203 710.237 203.706 710.231 204.233Z" fill="#ADA693"/>
</g>
<g style="mix-blend-mode:screen">
<path d="M810.961 197.53C810.959 197.668 810.999 197.803 811.074 197.918C811.15 198.034 811.258 198.124 811.385 198.178C811.512 198.232 811.652 198.246 811.787 198.221C811.923 198.195 812.047 198.129 812.146 198.032C812.244 197.935 812.311 197.811 812.338 197.676C812.366 197.541 812.352 197.401 812.3 197.274C812.248 197.146 812.158 197.037 812.044 196.96C811.929 196.884 811.794 196.843 811.657 196.843C811.473 196.843 811.298 196.915 811.167 197.044C811.037 197.172 810.963 197.347 810.961 197.53Z" fill="#ADA693"/>
</g>
<g style="mix-blend-mode:screen">
<path d="M956.522 222.226C956.517 222.366 956.554 222.505 956.629 222.624C956.704 222.743 956.812 222.837 956.941 222.893C957.07 222.95 957.212 222.967 957.35 222.942C957.489 222.917 957.616 222.851 957.717 222.753C957.817 222.655 957.886 222.529 957.914 222.391C957.942 222.254 957.929 222.111 957.875 221.981C957.821 221.851 957.73 221.741 957.613 221.663C957.496 221.586 957.358 221.545 957.217 221.547C957.127 221.546 957.037 221.563 956.954 221.596C956.87 221.63 956.793 221.679 956.729 221.742C956.664 221.806 956.613 221.881 956.577 221.964C956.542 222.047 956.523 222.136 956.522 222.226Z" fill="#ADA693"/>
</g>
<g style="mix-blend-mode:screen">
<path d="M901.891 212.383C901.895 212.567 901.971 212.742 902.102 212.87C902.234 212.998 902.41 213.07 902.594 213.07C902.729 213.067 902.861 213.024 902.972 212.947C903.083 212.869 903.168 212.761 903.218 212.635C903.268 212.509 903.279 212.372 903.251 212.24C903.222 212.107 903.156 211.986 903.059 211.892C902.962 211.797 902.84 211.734 902.707 211.708C902.574 211.683 902.436 211.698 902.312 211.75C902.187 211.803 902.08 211.891 902.005 212.003C901.931 212.116 901.891 212.248 901.891 212.383Z" fill="#ADA693"/>
</g>
<g style="mix-blend-mode:screen">
<path d="M1005.44 232.62C1005.45 232.792 1005.54 232.952 1005.66 233.068C1005.79 233.184 1005.96 233.248 1006.14 233.248C1006.31 233.248 1006.48 233.184 1006.61 233.068C1006.73 232.952 1006.82 232.792 1006.83 232.62C1006.83 232.436 1006.75 232.261 1006.62 232.133C1006.49 232.004 1006.31 231.933 1006.13 231.933C1005.95 231.933 1005.77 232.005 1005.64 232.133C1005.51 232.262 1005.44 232.437 1005.44 232.62Z" fill="#ADA693"/>
</g>
<g style="mix-blend-mode:screen">
<path d="M1123.48 240.282C1123.47 240.422 1123.51 240.559 1123.59 240.677C1123.66 240.795 1123.77 240.887 1123.9 240.943C1124.03 240.999 1124.17 241.015 1124.31 240.989C1124.45 240.964 1124.57 240.898 1124.67 240.801C1124.77 240.703 1124.84 240.578 1124.87 240.441C1124.9 240.304 1124.88 240.162 1124.83 240.033C1124.78 239.903 1124.69 239.793 1124.57 239.715C1124.46 239.637 1124.32 239.595 1124.18 239.595C1124.09 239.593 1124 239.609 1123.91 239.643C1123.83 239.676 1123.75 239.726 1123.68 239.79C1123.62 239.854 1123.57 239.931 1123.53 240.015C1123.5 240.1 1123.48 240.19 1123.48 240.282Z" fill="#ADA693"/>
</g>
<g style="mix-blend-mode:screen">
<path d="M947.742 242.2C947.739 242.34 947.778 242.478 947.854 242.596C947.929 242.713 948.039 242.806 948.167 242.861C948.296 242.917 948.438 242.933 948.576 242.907C948.714 242.881 948.841 242.814 948.94 242.716C949.04 242.617 949.108 242.491 949.136 242.354C949.163 242.217 949.149 242.074 949.095 241.945C949.041 241.816 948.95 241.706 948.833 241.629C948.716 241.551 948.578 241.511 948.438 241.513C948.255 241.513 948.079 241.585 947.949 241.714C947.819 241.842 947.744 242.017 947.742 242.2Z" fill="#ADA693"/>
</g>
<g style="mix-blend-mode:screen">
<path d="M718.785 417.967C718.789 418.15 718.866 418.324 718.997 418.452C719.129 418.579 719.306 418.649 719.489 418.647C719.585 418.657 719.682 418.647 719.774 418.617C719.866 418.588 719.95 418.539 720.022 418.475C720.094 418.41 720.151 418.332 720.191 418.243C720.23 418.155 720.25 418.06 720.25 417.963C720.25 417.867 720.23 417.772 720.191 417.683C720.151 417.595 720.094 417.517 720.022 417.452C719.95 417.388 719.866 417.339 719.774 417.309C719.682 417.28 719.585 417.27 719.489 417.28C719.397 417.279 719.307 417.296 719.222 417.33C719.137 417.364 719.06 417.414 718.995 417.478C718.929 417.542 718.877 417.618 718.841 417.702C718.805 417.786 718.786 417.876 718.785 417.967Z" fill="#ADA693"/>
</g>
<g style="mix-blend-mode:screen">
<path d="M1053.38 522.32C1053.37 522.46 1053.41 522.599 1053.48 522.718C1053.56 522.836 1053.67 522.93 1053.79 522.987C1053.92 523.044 1054.07 523.061 1054.2 523.036C1054.34 523.011 1054.47 522.945 1054.57 522.847C1054.67 522.749 1054.74 522.623 1054.77 522.485C1054.8 522.347 1054.78 522.205 1054.73 522.075C1054.68 521.945 1054.58 521.834 1054.47 521.757C1054.35 521.68 1054.21 521.639 1054.07 521.641C1053.98 521.64 1053.89 521.656 1053.81 521.69C1053.72 521.723 1053.65 521.773 1053.58 521.836C1053.52 521.899 1053.47 521.974 1053.43 522.057C1053.4 522.14 1053.38 522.23 1053.38 522.32Z" fill="#ADA693"/>
</g>
<g style="mix-blend-mode:screen">
<path d="M1096.71 492.375C1096.71 492.515 1096.74 492.652 1096.82 492.77C1096.9 492.888 1097.01 492.981 1097.13 493.036C1097.26 493.092 1097.41 493.107 1097.54 493.081C1097.68 493.056 1097.81 492.989 1097.91 492.891C1098.01 492.792 1098.07 492.666 1098.1 492.529C1098.13 492.391 1098.12 492.249 1098.06 492.12C1098.01 491.991 1097.92 491.88 1097.8 491.803C1097.68 491.726 1097.54 491.686 1097.4 491.688C1097.31 491.686 1097.22 491.703 1097.14 491.738C1097.05 491.772 1096.98 491.822 1096.91 491.886C1096.85 491.95 1096.8 492.026 1096.76 492.11C1096.73 492.194 1096.71 492.284 1096.71 492.375Z" fill="#ADA693"/>
</g>
<g style="mix-blend-mode:screen">
<path d="M1098.94 549.269C1098.96 549.441 1099.04 549.601 1099.17 549.717C1099.3 549.833 1099.47 549.897 1099.64 549.897C1099.81 549.897 1099.98 549.833 1100.11 549.717C1100.24 549.601 1100.32 549.441 1100.34 549.269C1100.32 549.096 1100.24 548.937 1100.11 548.821C1099.98 548.705 1099.81 548.641 1099.64 548.641C1099.47 548.641 1099.3 548.705 1099.17 548.821C1099.04 548.937 1098.96 549.096 1098.94 549.269Z" fill="#ADA693"/>
</g>
<g style="mix-blend-mode:screen">
<path d="M669.881 536.549C669.878 536.689 669.917 536.827 669.992 536.945C670.068 537.063 670.177 537.156 670.306 537.211C670.435 537.267 670.577 537.282 670.715 537.256C670.853 537.23 670.979 537.164 671.079 537.065C671.179 536.967 671.247 536.841 671.274 536.704C671.302 536.566 671.288 536.424 671.234 536.295C671.18 536.165 671.088 536.055 670.971 535.978C670.854 535.901 670.717 535.861 670.577 535.862C670.394 535.862 670.218 535.934 670.088 536.063C669.957 536.192 669.883 536.366 669.881 536.549Z" fill="#ADA693"/>
</g>
<g style="mix-blend-mode:screen">
<path d="M727.715 549.132C727.712 549.272 727.751 549.41 727.826 549.528C727.902 549.646 728.011 549.739 728.14 549.794C728.269 549.85 728.411 549.865 728.549 549.839C728.686 549.813 728.813 549.747 728.913 549.648C729.013 549.55 729.081 549.424 729.108 549.287C729.136 549.149 729.122 549.007 729.068 548.878C729.014 548.748 728.922 548.638 728.805 548.561C728.688 548.484 728.551 548.444 728.411 548.445C728.227 548.445 728.052 548.517 727.922 548.646C727.791 548.775 727.717 548.949 727.715 549.132Z" fill="#ADA693"/>
</g>
<g style="mix-blend-mode:screen">
<path d="M1028.71 452.978C1029.09 452.978 1029.4 452.67 1029.4 452.291C1029.4 451.911 1029.09 451.604 1028.71 451.604C1028.33 451.604 1028.01 451.911 1028.01 452.291C1028.01 452.67 1028.33 452.978 1028.71 452.978Z" fill="#ADA693"/>
</g>
<g style="mix-blend-mode:screen">
<path d="M1078.87 581.004C1078.87 581.143 1078.91 581.281 1078.98 581.398C1079.06 581.516 1079.17 581.609 1079.29 581.664C1079.42 581.72 1079.56 581.736 1079.7 581.711C1079.84 581.686 1079.97 581.62 1080.07 581.522C1080.17 581.425 1080.24 581.299 1080.26 581.163C1080.29 581.026 1080.28 580.884 1080.23 580.754C1080.17 580.625 1080.08 580.514 1079.97 580.436C1079.85 580.358 1079.71 580.316 1079.57 580.316C1079.48 580.315 1079.39 580.332 1079.31 580.366C1079.22 580.4 1079.15 580.451 1079.08 580.514C1079.02 580.578 1078.96 580.654 1078.93 580.738C1078.89 580.822 1078.87 580.912 1078.87 581.004Z" fill="#ADA693"/>
</g>
<g style="mix-blend-mode:screen">
<path d="M752.789 378.572C752.786 378.712 752.825 378.849 752.9 378.967C752.975 379.085 753.084 379.177 753.212 379.233C753.341 379.289 753.483 379.305 753.62 379.279C753.758 379.254 753.884 379.189 753.984 379.091C754.084 378.993 754.153 378.868 754.181 378.731C754.21 378.594 754.197 378.452 754.144 378.323C754.091 378.193 754.001 378.083 753.885 378.005C753.769 377.927 753.633 377.885 753.493 377.885C753.401 377.883 753.31 377.899 753.225 377.933C753.139 377.966 753.062 378.016 752.996 378.08C752.931 378.144 752.879 378.221 752.843 378.305C752.808 378.39 752.789 378.48 752.789 378.572Z" fill="#ADA693"/>
</g>
<g style="mix-blend-mode:screen">
<path d="M846.293 415.635C846.29 415.774 846.329 415.912 846.404 416.029C846.479 416.147 846.588 416.24 846.716 416.295C846.844 416.351 846.986 416.367 847.124 416.342C847.261 416.317 847.388 416.251 847.488 416.153C847.588 416.056 847.657 415.93 847.685 415.794C847.714 415.657 847.701 415.515 847.648 415.385C847.595 415.256 847.505 415.145 847.389 415.067C847.273 414.989 847.137 414.947 846.997 414.947C846.905 414.945 846.814 414.962 846.729 414.995C846.643 415.029 846.566 415.079 846.5 415.143C846.435 415.207 846.383 415.283 846.347 415.368C846.311 415.452 846.293 415.543 846.293 415.635Z" fill="#ADA693"/>
</g>
<g style="mix-blend-mode:screen">
<path d="M750.559 491.864C750.556 492.004 750.594 492.141 750.669 492.259C750.745 492.376 750.854 492.469 750.982 492.525C751.11 492.58 751.252 492.597 751.39 492.571C751.527 492.546 751.654 492.48 751.754 492.383C751.854 492.285 751.923 492.16 751.951 492.023C751.979 491.886 751.967 491.744 751.914 491.615C751.861 491.485 751.771 491.374 751.655 491.296C751.539 491.218 751.402 491.177 751.262 491.177C751.171 491.176 751.08 491.193 750.996 491.227C750.911 491.261 750.833 491.311 750.768 491.375C750.703 491.439 750.651 491.515 750.615 491.599C750.579 491.682 750.56 491.773 750.559 491.864Z" fill="#ADA693"/>
</g>
<g style="mix-blend-mode:screen">
<path d="M1008.78 164.509C1008.8 164.682 1008.88 164.841 1009.01 164.957C1009.14 165.073 1009.3 165.137 1009.48 165.137C1009.65 165.137 1009.82 165.073 1009.95 164.957C1010.08 164.841 1010.16 164.682 1010.18 164.509C1010.16 164.337 1010.08 164.177 1009.95 164.061C1009.82 163.945 1009.65 163.881 1009.48 163.881C1009.3 163.881 1009.14 163.945 1009.01 164.061C1008.88 164.177 1008.8 164.337 1008.78 164.509Z" fill="#ADA693"/>
</g>
<g style="mix-blend-mode:screen">
<path d="M1136.15 252.97C1136.17 253.143 1136.25 253.302 1136.38 253.418C1136.51 253.534 1136.67 253.598 1136.85 253.598C1137.02 253.598 1137.19 253.534 1137.32 253.418C1137.45 253.302 1137.53 253.143 1137.55 252.97C1137.53 252.798 1137.45 252.638 1137.32 252.522C1137.19 252.406 1137.02 252.342 1136.85 252.342C1136.67 252.342 1136.51 252.406 1136.38 252.522C1136.25 252.638 1136.17 252.798 1136.15 252.97Z" fill="#ADA693"/>
</g>
<g style="mix-blend-mode:screen">
<path d="M866.09 156.576C866.088 156.714 866.128 156.849 866.203 156.964C866.279 157.079 866.387 157.17 866.514 157.224C866.641 157.277 866.781 157.292 866.916 157.266C867.052 157.241 867.176 157.175 867.274 157.078C867.373 156.981 867.44 156.857 867.467 156.722C867.495 156.587 867.481 156.447 867.429 156.32C867.376 156.192 867.287 156.083 867.173 156.006C867.058 155.93 866.923 155.889 866.785 155.889C866.602 155.889 866.427 155.961 866.297 156.089C866.166 156.218 866.092 156.393 866.09 156.576Z" fill="#ADA693"/>
</g>
<g style="mix-blend-mode:screen">
<path d="M746.106 213.206C746.099 213.606 746.212 213.998 746.43 214.333C746.647 214.669 746.96 214.932 747.327 215.089C747.695 215.246 748.101 215.291 748.494 215.217C748.887 215.143 749.249 214.953 749.533 214.673C749.818 214.393 750.014 214.034 750.094 213.643C750.174 213.251 750.136 212.845 749.985 212.475C749.833 212.105 749.575 211.789 749.243 211.566C748.911 211.344 748.52 211.225 748.121 211.225C747.858 211.223 747.598 211.272 747.354 211.371C747.111 211.469 746.89 211.614 746.702 211.798C746.515 211.982 746.366 212.201 746.264 212.443C746.162 212.684 746.108 212.944 746.106 213.206Z" fill="#ADA693"/>
</g>
<g style="mix-blend-mode:screen">
<path d="M402.313 275.572C402.305 275.972 402.416 276.365 402.633 276.701C402.849 277.038 403.161 277.302 403.529 277.46C403.896 277.619 404.302 277.665 404.696 277.591C405.089 277.518 405.452 277.33 405.738 277.05C406.023 276.77 406.219 276.411 406.3 276.02C406.381 275.628 406.344 275.221 406.193 274.851C406.041 274.481 405.783 274.164 405.451 273.941C405.119 273.718 404.728 273.599 404.328 273.599C403.799 273.594 403.29 273.8 402.912 274.17C402.535 274.539 402.319 275.044 402.313 275.572Z" fill="#ADA693"/>
</g>
<g style="mix-blend-mode:screen">
<path d="M558.618 546.728C558.61 547.129 558.721 547.523 558.939 547.859C559.156 548.196 559.469 548.46 559.837 548.618C560.205 548.776 560.612 548.821 561.006 548.747C561.4 548.672 561.763 548.482 562.048 548.2C562.333 547.919 562.528 547.559 562.607 547.166C562.686 546.773 562.646 546.366 562.493 545.996C562.339 545.626 562.078 545.311 561.744 545.089C561.41 544.868 561.017 544.752 560.616 544.755C560.09 544.753 559.584 544.959 559.209 545.329C558.835 545.699 558.622 546.202 558.618 546.728Z" fill="#ADA693"/>
</g>
<g style="mix-blend-mode:screen">
<path d="M892.504 180.704C892.496 181.104 892.608 181.498 892.825 181.834C893.042 182.171 893.354 182.435 893.722 182.593C894.09 182.751 894.496 182.797 894.89 182.723C895.284 182.649 895.646 182.46 895.932 182.179C896.217 181.898 896.413 181.539 896.493 181.147C896.573 180.755 896.534 180.347 896.382 179.977C896.229 179.607 895.97 179.291 895.637 179.069C895.303 178.847 894.912 178.729 894.511 178.731C894.25 178.728 893.99 178.778 893.748 178.876C893.506 178.974 893.285 179.119 893.099 179.302C892.912 179.485 892.764 179.703 892.662 179.944C892.56 180.184 892.506 180.443 892.504 180.704Z" fill="#ADA693"/>
</g>
<g style="mix-blend-mode:screen">
<path d="M507.051 41.1981C507.043 41.5982 507.155 41.9917 507.372 42.3282C507.589 42.6647 507.901 42.9289 508.269 43.0872C508.637 43.2455 509.043 43.2907 509.437 43.2169C509.831 43.1431 510.193 42.9538 510.479 42.6731C510.764 42.3924 510.959 42.033 511.04 41.6408C511.12 41.2487 511.081 40.8416 510.929 40.4715C510.776 40.1014 510.517 39.7851 510.184 39.5631C509.85 39.341 509.458 39.2232 509.058 39.2247C508.797 39.2226 508.537 39.2719 508.295 39.37C508.053 39.468 507.832 39.6128 507.646 39.796C507.459 39.9793 507.311 40.1974 507.209 40.438C507.107 40.6786 507.053 40.9368 507.051 41.1981Z" fill="#ADA693"/>
</g>
<g style="mix-blend-mode:screen">
<path d="M267.928 133.126C267.92 133.526 268.032 133.919 268.249 134.256C268.465 134.592 268.778 134.857 269.146 135.015C269.513 135.173 269.92 135.218 270.314 135.145C270.707 135.071 271.07 134.882 271.356 134.601C271.641 134.32 271.836 133.961 271.917 133.569C271.997 133.176 271.958 132.769 271.806 132.399C271.653 132.029 271.394 131.713 271.06 131.491C270.727 131.269 270.335 131.151 269.935 131.152C269.673 131.15 269.414 131.2 269.172 131.298C268.929 131.396 268.709 131.541 268.522 131.724C268.336 131.907 268.188 132.125 268.086 132.366C267.984 132.606 267.93 132.865 267.928 133.126Z" fill="#ADA693"/>
</g>
<g style="mix-blend-mode:screen">
<path d="M665.914 45.2958C665.907 45.6956 666.018 46.0888 666.234 46.4251C666.451 46.7614 666.763 47.0257 667.13 47.1842C667.497 47.3427 667.904 47.3883 668.297 47.3152C668.691 47.2421 669.053 47.0536 669.339 46.7736C669.625 46.4937 669.821 46.1351 669.902 45.7435C669.983 45.3519 669.945 44.945 669.794 44.5748C669.643 44.2046 669.385 43.8877 669.053 43.6647C668.721 43.4417 668.329 43.3225 667.929 43.3224C667.667 43.3192 667.407 43.3678 667.164 43.4654C666.92 43.563 666.699 43.7076 666.512 43.8909C666.324 44.0743 666.175 44.2928 666.073 44.5339C665.97 44.775 665.917 45.0339 665.914 45.2958Z" fill="#ADA693"/>
</g>
<g style="mix-blend-mode:screen">
<path d="M966.915 270.978C968.028 270.978 968.93 270.095 968.93 269.005C968.93 267.915 968.028 267.031 966.915 267.031C965.802 267.031 964.9 267.915 964.9 269.005C964.9 270.095 965.802 270.978 966.915 270.978Z" fill="#ADA693"/>
</g>
<g style="mix-blend-mode:screen">
<path d="M1009.55 206.966C1009.54 207.368 1009.64 207.766 1009.85 208.108C1010.07 208.45 1010.38 208.72 1010.74 208.884C1011.11 209.048 1011.52 209.098 1011.92 209.028C1012.31 208.958 1012.68 208.77 1012.97 208.489C1013.26 208.209 1013.46 207.848 1013.54 207.454C1013.62 207.06 1013.58 206.65 1013.43 206.278C1013.27 205.906 1013.01 205.588 1012.68 205.366C1012.34 205.144 1011.95 205.028 1011.54 205.032C1011.02 205.032 1010.53 205.234 1010.15 205.595C1009.78 205.956 1009.57 206.448 1009.55 206.966Z" fill="#ADA693"/>
</g>
<g style="mix-blend-mode:screen">
<path d="M1116.03 578.678C1116.02 579.078 1116.13 579.471 1116.35 579.808C1116.56 580.144 1116.88 580.408 1117.24 580.567C1117.61 580.725 1118.02 580.77 1118.41 580.696C1118.81 580.623 1119.17 580.433 1119.45 580.153C1119.74 579.872 1119.93 579.512 1120.01 579.12C1120.09 578.728 1120.06 578.321 1119.9 577.951C1119.75 577.581 1119.49 577.265 1119.16 577.043C1118.82 576.82 1118.43 576.703 1118.03 576.704C1117.77 576.702 1117.51 576.751 1117.27 576.849C1117.03 576.948 1116.81 577.092 1116.62 577.276C1116.43 577.459 1116.29 577.677 1116.18 577.917C1116.08 578.158 1116.03 578.416 1116.03 578.678Z" fill="#ADA693"/>
</g>
<path d="M60.7501 77.3031C61.0681 77.3031 61.3732 77.1769 61.5981 76.9521C61.823 76.7274 61.9493 76.4225 61.9493 76.1047C61.9493 75.7868 61.823 75.482 61.5981 75.2573C61.3732 75.0325 61.0681 74.9062 60.7501 74.9062C60.432 74.9062 60.1269 75.0325 59.902 75.2573C59.6771 75.482 59.5508 75.7868 59.5508 76.1047C59.5508 76.4225 59.6771 76.7274 59.902 76.9521C60.1269 77.1769 60.432 77.3031 60.7501 77.3031Z" fill="white"/>
<path d="M49.1172 147.691C49.4353 147.691 49.7404 147.565 49.9653 147.34C50.1902 147.115 50.3165 146.81 50.3165 146.492C50.3165 146.175 50.1902 145.87 49.9653 145.645C49.7404 145.42 49.4353 145.294 49.1172 145.294C48.7992 145.294 48.4941 145.42 48.2692 145.645C48.0443 145.87 47.918 146.175 47.918 146.492C47.918 146.81 48.0443 147.115 48.2692 147.34C48.4941 147.565 48.7992 147.691 49.1172 147.691Z" fill="white"/>
<path d="M149.328 103.022V105.091C149.328 105.258 149.395 105.419 149.513 105.537C149.632 105.656 149.792 105.722 149.96 105.722C150.127 105.722 150.288 105.656 150.406 105.537C150.525 105.419 150.591 105.258 150.591 105.091V103.022C150.591 102.854 150.525 102.694 150.406 102.575C150.288 102.457 150.127 102.391 149.96 102.391C149.792 102.391 149.632 102.457 149.513 102.575C149.395 102.694 149.328 102.854 149.328 103.022Z" fill="white"/>
<path d="M113.742 185.858V183.788C113.742 183.621 113.675 183.46 113.557 183.342C113.438 183.224 113.278 183.157 113.11 183.157C112.943 183.157 112.782 183.224 112.664 183.342C112.545 183.46 112.479 183.621 112.479 183.788V185.858C112.479 186.025 112.545 186.186 112.664 186.304C112.782 186.422 112.943 186.489 113.11 186.489C113.278 186.489 113.438 186.422 113.557 186.304C113.675 186.186 113.742 186.025 113.742 185.858Z" fill="white"/>
<path d="M102.779 123.722V125.791C102.779 125.874 102.796 125.956 102.827 126.033C102.859 126.109 102.906 126.179 102.964 126.238C103.023 126.296 103.093 126.343 103.169 126.374C103.246 126.406 103.328 126.422 103.411 126.422C103.494 126.422 103.576 126.406 103.653 126.374C103.729 126.343 103.799 126.296 103.858 126.238C103.916 126.179 103.963 126.109 103.994 126.033C104.026 125.956 104.043 125.874 104.043 125.791V123.722C104.043 123.639 104.026 123.557 103.994 123.48C103.963 123.404 103.916 123.334 103.858 123.276C103.799 123.217 103.729 123.171 103.653 123.139C103.576 123.107 103.494 123.091 103.411 123.091C103.328 123.091 103.246 123.107 103.169 123.139C103.093 123.171 103.023 123.217 102.964 123.276C102.906 123.334 102.859 123.404 102.827 123.48C102.796 123.557 102.779 123.639 102.779 123.722Z" fill="white"/>
<path d="M297.344 66.9555C297.662 66.9555 297.967 66.8292 298.192 66.6044C298.417 66.3797 298.543 66.0749 298.543 65.757C298.543 65.4392 298.417 65.1344 298.192 64.9096C297.967 64.6849 297.662 64.5586 297.344 64.5586C297.026 64.5586 296.721 64.6849 296.496 64.9096C296.271 65.1344 296.145 65.4392 296.145 65.757C296.145 66.0749 296.271 66.3797 296.496 66.6044C296.721 66.8292 297.026 66.9555 297.344 66.9555Z" fill="white"/>
<path d="M307.041 197.378C307.359 197.378 307.664 197.252 307.889 197.027C308.114 196.803 308.24 196.498 308.24 196.18C308.24 195.862 308.114 195.557 307.889 195.332C307.664 195.108 307.359 194.981 307.041 194.981C306.723 194.981 306.418 195.108 306.193 195.332C305.968 195.557 305.842 195.862 305.842 196.18C305.842 196.498 305.968 196.803 306.193 197.027C306.418 197.252 306.723 197.378 307.041 197.378Z" fill="white"/>
<path d="M284.4 223.097V221.012C284.4 220.845 284.333 220.684 284.215 220.566C284.096 220.447 283.936 220.381 283.768 220.381C283.601 220.381 283.44 220.447 283.322 220.566C283.203 220.684 283.137 220.845 283.137 221.012V223.081C283.137 223.249 283.203 223.409 283.322 223.528C283.44 223.646 283.601 223.713 283.768 223.713C283.936 223.713 284.096 223.646 284.215 223.528C284.333 223.409 284.4 223.249 284.4 223.081V223.097Z" fill="white"/>
<path d="M225.617 271.912C225.935 271.912 226.24 271.786 226.465 271.561C226.69 271.337 226.817 271.032 226.817 270.714C226.817 270.396 226.69 270.091 226.465 269.867C226.24 269.642 225.935 269.516 225.617 269.516C225.299 269.516 224.994 269.642 224.769 269.867C224.544 270.091 224.418 270.396 224.418 270.714C224.418 271.032 224.544 271.337 224.769 271.561C224.994 271.786 225.299 271.912 225.617 271.912Z" fill="white"/>
<path d="M244.985 172.011H246.92C247.086 171.993 247.24 171.914 247.352 171.79C247.464 171.665 247.526 171.504 247.526 171.336C247.526 171.169 247.464 171.007 247.352 170.883C247.24 170.758 247.086 170.679 246.92 170.661H244.985C244.818 170.679 244.664 170.758 244.553 170.883C244.441 171.007 244.379 171.169 244.379 171.336C244.379 171.504 244.441 171.665 244.553 171.79C244.664 171.914 244.818 171.993 244.985 172.011Z" fill="white"/>
<path d="M433.541 197.777L431.599 195.708C431.023 195.093 430.127 196.043 430.703 196.659L432.646 198.728C433.222 199.343 434.117 198.392 433.541 197.777Z" fill="white"/>
<path d="M418.207 334.894V332.817C418.207 332.734 418.19 332.652 418.159 332.575C418.127 332.499 418.08 332.429 418.022 332.37C417.963 332.312 417.893 332.265 417.817 332.234C417.74 332.202 417.658 332.186 417.575 332.186C417.492 332.186 417.41 332.202 417.333 332.234C417.257 332.265 417.187 332.312 417.128 332.37C417.07 332.429 417.023 332.499 416.991 332.575C416.96 332.652 416.943 332.734 416.943 332.817V334.894C416.943 334.977 416.96 335.059 416.991 335.136C417.023 335.212 417.07 335.282 417.128 335.34C417.187 335.399 417.257 335.445 417.333 335.477C417.41 335.509 417.492 335.525 417.575 335.525C417.658 335.525 417.74 335.509 417.817 335.477C417.893 335.445 417.963 335.399 418.022 335.34C418.08 335.282 418.127 335.212 418.159 335.136C418.19 335.059 418.207 334.977 418.207 334.894Z" fill="white"/>
<path d="M322.553 391.995C322.871 391.995 323.176 391.868 323.401 391.644C323.626 391.419 323.752 391.114 323.752 390.796C323.752 390.478 323.626 390.173 323.401 389.949C323.176 389.724 322.871 389.598 322.553 389.598C322.235 389.598 321.93 389.724 321.705 389.949C321.48 390.173 321.354 390.478 321.354 390.796C321.354 391.114 321.48 391.419 321.705 391.644C321.93 391.868 322.235 391.995 322.553 391.995Z" fill="white"/>
<path d="M228.16 469.493V467.415C228.16 467.248 228.093 467.087 227.975 466.969C227.856 466.851 227.696 466.784 227.528 466.784C227.361 466.784 227.2 466.851 227.081 466.969C226.963 467.087 226.896 467.248 226.896 467.415V469.493C226.896 469.66 226.963 469.821 227.081 469.939C227.2 470.057 227.361 470.124 227.528 470.124C227.696 470.124 227.856 470.057 227.975 469.939C228.093 469.821 228.16 469.66 228.16 469.493Z" fill="white"/>
<path d="M285.701 336.062C285.996 336.028 286.267 335.887 286.464 335.666C286.661 335.445 286.77 335.159 286.77 334.863C286.77 334.568 286.661 334.282 286.464 334.061C286.267 333.84 285.996 333.699 285.701 333.665C285.407 333.699 285.136 333.84 284.939 334.061C284.742 334.282 284.633 334.568 284.633 334.863C284.633 335.159 284.742 335.445 284.939 335.666C285.136 335.887 285.407 336.028 285.701 336.062Z" fill="white"/>
<path d="M99.0879 389.198L101.031 391.275C101.606 391.882 102.494 390.931 101.918 390.316L99.9834 388.247C99.4077 387.632 98.5122 388.583 99.0879 389.198Z" fill="white"/>
<path d="M46.91 436.224C46.6302 438.389 50.1081 438.222 49.7083 436.168C49.5404 435.313 48.3252 435.673 48.4931 436.52C48.4931 436.368 48.4931 436.52 48.4931 436.464C48.4931 436.408 48.4931 436.504 48.4931 436.392C48.4371 436.488 48.557 436.392 48.4931 436.392C48.4291 436.392 48.4211 436.52 48.4931 436.392L48.4131 436.44C48.5331 436.44 48.4531 436.44 48.4131 436.44H48.2932C48.3731 436.44 48.3572 436.44 48.2932 436.44C48.2292 436.44 48.0453 436.44 48.1893 436.44H48.0693C48.0214 436.44 48.0693 436.44 48.1093 436.44H48.0693C48.0693 436.344 48.0693 436.52 48.0693 436.44C48.0693 436.44 48.0693 436.44 48.0693 436.488C48.0693 436.536 48.1093 436.608 48.0693 436.488C48.0693 436.656 48.0693 436.488 48.0693 436.592C48.103 436.428 48.0772 436.258 47.9966 436.111C47.9161 435.965 47.7859 435.852 47.6296 435.793C47.5461 435.768 47.4583 435.76 47.3717 435.77C47.2851 435.781 47.2017 435.809 47.1266 435.853C47.0515 435.898 46.9863 435.957 46.9353 436.028C46.8843 436.098 46.8485 436.179 46.8301 436.264L46.91 436.224Z" fill="white"/>
<path d="M82.0803 284.336C82.3745 284.302 82.6459 284.161 82.8429 283.94C83.04 283.719 83.1488 283.434 83.1488 283.138C83.1488 282.842 83.04 282.556 82.8429 282.335C82.6459 282.114 82.3745 281.973 82.0803 281.939C81.7861 281.973 81.5146 282.114 81.3176 282.335C81.1206 282.556 81.0117 282.842 81.0117 283.138C81.0117 283.434 81.1206 283.719 81.3176 283.94C81.5146 284.161 81.7861 284.302 82.0803 284.336Z" fill="white"/>
<path d="M173.651 377.892C173.003 377.205 172.355 376.518 171.716 375.823C171.076 375.128 170.245 376.166 170.82 376.781C171.396 377.397 172.116 378.156 172.755 378.851C173.395 379.546 174.226 378.507 173.651 377.892Z" fill="white"/>
<path d="M431.151 81.4496C431.445 81.4156 431.716 81.2747 431.913 81.0537C432.11 80.8328 432.219 80.5471 432.219 80.2512C432.219 79.9552 432.11 79.6696 431.913 79.4486C431.716 79.2276 431.445 79.0867 431.151 79.0527C430.856 79.0867 430.585 79.2276 430.388 79.4486C430.191 79.6696 430.082 79.9552 430.082 80.2512C430.082 80.5471 430.191 80.8328 430.388 81.0537C430.585 81.2747 430.856 81.4156 431.151 81.4496Z" fill="white"/>
<path d="M530.059 139.414C530.377 139.414 530.682 139.288 530.907 139.063C531.132 138.839 531.258 138.534 531.258 138.216C531.258 137.898 531.132 137.593 530.907 137.369C530.682 137.144 530.377 137.018 530.059 137.018C529.741 137.018 529.436 137.144 529.211 137.369C528.986 137.593 528.859 137.898 528.859 138.216C528.859 138.534 528.986 138.839 529.211 139.063C529.436 139.288 529.741 139.414 530.059 139.414Z" fill="white"/>
<path d="M506.785 276.051C507.103 276.051 507.408 275.925 507.633 275.7C507.858 275.475 507.984 275.171 507.984 274.853C507.984 274.535 507.858 274.23 507.633 274.005C507.408 273.781 507.103 273.654 506.785 273.654C506.467 273.654 506.162 273.781 505.937 274.005C505.712 274.23 505.586 274.535 505.586 274.853C505.586 275.171 505.712 275.475 505.937 275.7C506.162 275.925 506.467 276.051 506.785 276.051Z" fill="white"/>
<path d="M470.271 460.6V458.203C470.271 458.036 470.205 457.875 470.086 457.757C469.968 457.639 469.807 457.572 469.639 457.572C469.472 457.572 469.311 457.639 469.193 457.757C469.074 457.875 469.008 458.036 469.008 458.203V460.6C469.008 460.768 469.074 460.928 469.193 461.047C469.311 461.165 469.472 461.231 469.639 461.231C469.807 461.231 469.968 461.165 470.086 461.047C470.205 460.928 470.271 460.768 470.271 460.6Z" fill="white"/>
<path d="M374.76 589.592C375.078 589.592 375.383 589.466 375.608 589.241C375.833 589.016 375.959 588.712 375.959 588.394C375.959 588.076 375.833 587.771 375.608 587.546C375.383 587.322 375.078 587.195 374.76 587.195C374.442 587.195 374.137 587.322 373.912 587.546C373.687 587.771 373.561 588.076 373.561 588.394C373.561 588.712 373.687 589.016 373.912 589.241C374.137 589.466 374.442 589.592 374.76 589.592Z" fill="white"/>
<path d="M93.434 530.27C93.434 530.438 93.434 530.182 93.434 530.27C93.434 530.358 93.434 530.318 93.434 530.27V530.334C93.434 530.414 93.3221 530.334 93.434 530.334C93.5459 530.334 93.354 530.382 93.434 530.334C93.5139 530.286 93.482 530.334 93.434 530.334H93.5699C93.6419 530.334 93.482 530.334 93.5699 530.334H93.7138C93.8226 530.334 93.9287 530.367 94.0176 530.43C93.9537 530.366 94.0176 530.43 94.0176 530.43C94.0176 530.43 94.0176 530.35 94.0176 530.43C94.0176 530.382 94.0176 530.35 94.0176 530.43C94.0176 530.27 94.0176 530.502 94.0176 530.374C93.8497 531.221 95.065 531.58 95.2329 530.733C95.6726 528.512 91.8749 528.336 92.1707 530.661C92.1891 530.746 92.225 530.827 92.276 530.898C92.327 530.968 92.3921 531.028 92.4672 531.072C92.5423 531.116 92.6258 531.144 92.7124 531.155C92.799 531.165 92.8868 531.158 92.9703 531.133C93.1271 531.074 93.258 530.961 93.34 530.815C93.4219 530.669 93.4495 530.498 93.418 530.334L93.434 530.27Z" fill="white"/>
<path d="M299.59 554.638V557.035C299.59 557.202 299.656 557.363 299.775 557.481C299.893 557.6 300.054 557.666 300.221 557.666C300.389 557.666 300.55 557.6 300.668 557.481C300.787 557.363 300.853 557.202 300.853 557.035V554.638C300.853 554.471 300.787 554.31 300.668 554.192C300.55 554.073 300.389 554.007 300.221 554.007C300.054 554.007 299.893 554.073 299.775 554.192C299.656 554.31 299.59 554.471 299.59 554.638Z" fill="white"/>
<path d="M597.397 354.012C597.715 354.012 598.02 353.886 598.245 353.661C598.469 353.436 598.596 353.132 598.596 352.814C598.596 352.496 598.469 352.191 598.245 351.966C598.02 351.742 597.715 351.615 597.397 351.615C597.078 351.615 596.773 351.742 596.549 351.966C596.324 352.191 596.197 352.496 596.197 352.814C596.197 353.132 596.324 353.436 596.549 353.661C596.773 353.886 597.078 354.012 597.397 354.012Z" fill="white"/>
<path d="M809.834 161.329C810.152 161.329 810.457 161.203 810.682 160.978C810.907 160.754 811.033 160.449 811.033 160.131C811.033 159.813 810.907 159.508 810.682 159.284C810.457 159.059 810.152 158.933 809.834 158.933C809.516 158.933 809.211 159.059 808.986 159.284C808.761 159.508 808.635 159.813 808.635 160.131C808.635 160.449 808.761 160.754 808.986 160.978C809.211 161.203 809.516 161.329 809.834 161.329Z" fill="white"/>
<path d="M973.167 293.605L974.766 291.903C975.342 291.288 974.446 290.305 973.871 290.944L972.271 292.654C971.696 293.269 972.591 294.252 973.167 293.605Z" fill="white"/>
<path d="M857.75 434.147C858.068 434.147 858.373 434.021 858.598 433.796C858.823 433.571 858.949 433.266 858.949 432.948C858.949 432.631 858.823 432.326 858.598 432.101C858.373 431.876 858.068 431.75 857.75 431.75C857.432 431.75 857.127 431.876 856.902 432.101C856.677 432.326 856.551 432.631 856.551 432.948C856.551 433.266 856.677 433.571 856.902 433.796C857.127 434.021 857.432 434.147 857.75 434.147Z" fill="white"/>
<path d="M1040.79 129.443V131.144C1040.79 131.312 1040.86 131.472 1040.98 131.591C1041.09 131.709 1041.26 131.776 1041.42 131.776C1041.59 131.776 1041.75 131.709 1041.87 131.591C1041.99 131.472 1042.05 131.312 1042.05 131.144V129.443C1042.05 129.275 1041.99 129.115 1041.87 128.996C1041.75 128.878 1041.59 128.812 1041.42 128.812C1041.26 128.812 1041.09 128.878 1040.98 128.996C1040.86 129.115 1040.79 129.275 1040.79 129.443Z" fill="white"/>
<path d="M650.115 111.882C650.433 111.882 650.738 111.756 650.963 111.531C651.188 111.306 651.315 111.002 651.315 110.684C651.315 110.366 651.188 110.061 650.963 109.836C650.738 109.612 650.433 109.485 650.115 109.485C649.797 109.485 649.492 109.612 649.267 109.836C649.042 110.061 648.916 110.366 648.916 110.684C648.916 111.002 649.042 111.306 649.267 111.531C649.492 111.756 649.797 111.882 650.115 111.882Z" fill="white"/>
<path d="M691.026 283.513L689.427 281.804C688.851 281.188 687.956 282.147 688.531 282.754L690.13 284.464C690.706 285.079 691.601 284.121 691.026 283.513Z" fill="white"/>
<path d="M709.871 417.688V414.117C709.871 413.949 709.804 413.789 709.686 413.67C709.567 413.552 709.407 413.485 709.239 413.485C709.072 413.485 708.911 413.552 708.792 413.67C708.674 413.789 708.607 413.949 708.607 414.117V417.688C708.607 417.855 708.674 418.016 708.792 418.134C708.911 418.253 709.072 418.319 709.239 418.319C709.407 418.319 709.567 418.253 709.686 418.134C709.804 418.016 709.871 417.855 709.871 417.688Z" fill="white"/>
<path d="M605.654 590.135C605.972 590.135 606.277 590.009 606.502 589.784C606.727 589.559 606.854 589.255 606.854 588.937C606.854 588.619 606.727 588.314 606.502 588.089C606.277 587.865 605.972 587.738 605.654 587.738C605.336 587.738 605.031 587.865 604.806 588.089C604.581 588.314 604.455 588.619 604.455 588.937C604.455 589.255 604.581 589.559 604.806 589.784C605.031 590.009 605.336 590.135 605.654 590.135Z" fill="white"/>
<path d="M521.912 57.5687C522.23 57.5687 522.535 57.4425 522.76 57.2177C522.985 56.993 523.111 56.6882 523.111 56.3703C523.111 56.0525 522.985 55.7476 522.76 55.5229C522.535 55.2981 522.23 55.1719 521.912 55.1719C521.594 55.1719 521.289 55.2981 521.064 55.5229C520.839 55.7476 520.713 56.0525 520.713 56.3703C520.713 56.6882 520.839 56.993 521.064 57.2177C521.289 57.4425 521.594 57.5687 521.912 57.5687Z" fill="white"/>
<path d="M510.248 127.957C510.566 127.957 510.871 127.831 511.096 127.606C511.321 127.382 511.447 127.077 511.447 126.759C511.447 126.441 511.321 126.136 511.096 125.912C510.871 125.687 510.566 125.561 510.248 125.561C509.93 125.561 509.625 125.687 509.4 125.912C509.175 126.136 509.049 126.441 509.049 126.759C509.049 127.077 509.175 127.382 509.4 127.606C509.625 127.831 509.93 127.957 510.248 127.957Z" fill="white"/>
<path d="M610.492 83.2864V85.3557C610.492 85.5231 610.559 85.6837 610.677 85.8021C610.796 85.9204 610.956 85.9869 611.124 85.9869C611.291 85.9869 611.452 85.9204 611.57 85.8021C611.689 85.6837 611.755 85.5231 611.755 85.3557V83.2864C611.755 83.1191 611.689 82.9585 611.57 82.8401C611.452 82.7218 611.291 82.6553 611.124 82.6553C610.956 82.6553 610.796 82.7218 610.677 82.8401C610.559 82.9585 610.492 83.1191 610.492 83.2864Z" fill="white"/>
<path d="M574.914 166.099V164.022C574.914 163.854 574.847 163.694 574.729 163.575C574.61 163.457 574.45 163.391 574.282 163.391C574.115 163.391 573.954 163.457 573.835 163.575C573.717 163.694 573.65 163.854 573.65 164.022V166.099C573.65 166.266 573.717 166.427 573.835 166.545C573.954 166.664 574.115 166.73 574.282 166.73C574.45 166.73 574.61 166.664 574.729 166.545C574.847 166.427 574.914 166.266 574.914 166.099Z" fill="white"/>
<path d="M563.951 103.989V106.058C563.951 106.225 564.018 106.386 564.136 106.504C564.255 106.623 564.415 106.689 564.583 106.689C564.75 106.689 564.911 106.623 565.029 106.504C565.148 106.386 565.214 106.225 565.214 106.058V103.989C565.214 103.821 565.148 103.661 565.029 103.542C564.911 103.424 564.75 103.357 564.583 103.357C564.415 103.357 564.255 103.424 564.136 103.542C564.018 103.661 563.951 103.821 563.951 103.989Z" fill="white"/>
<path d="M758.506 47.2221C758.8 47.1881 759.072 47.0472 759.269 46.8262C759.466 46.6052 759.575 46.3196 759.575 46.0236C759.575 45.7277 759.466 45.442 759.269 45.2211C759.072 45.0001 758.8 44.8592 758.506 44.8252C758.212 44.8592 757.94 45.0001 757.743 45.2211C757.546 45.442 757.438 45.7277 757.438 46.0236C757.438 46.3196 757.546 46.6052 757.743 46.8262C757.94 47.0472 758.212 47.1881 758.506 47.2221Z" fill="white"/>
<path d="M768.203 177.644C768.521 177.644 768.826 177.518 769.051 177.293C769.276 177.068 769.402 176.763 769.402 176.446C769.402 176.128 769.276 175.823 769.051 175.598C768.826 175.373 768.521 175.247 768.203 175.247C767.885 175.247 767.58 175.373 767.355 175.598C767.13 175.823 767.004 176.128 767.004 176.446C767.004 176.763 767.13 177.068 767.355 177.293C767.58 177.518 767.885 177.644 768.203 177.644Z" fill="white"/>
<path d="M745.562 203.362V201.292C745.562 201.125 745.496 200.964 745.377 200.846C745.259 200.728 745.098 200.661 744.93 200.661C744.763 200.661 744.602 200.728 744.484 200.846C744.365 200.964 744.299 201.125 744.299 201.292V203.362C744.299 203.529 744.365 203.69 744.484 203.808C744.602 203.926 744.763 203.993 744.93 203.993C745.098 203.993 745.259 203.926 745.377 203.808C745.496 203.69 745.562 203.529 745.562 203.362Z" fill="white"/>
<path d="M686.758 252.171C687.052 252.137 687.324 251.996 687.521 251.775C687.718 251.554 687.827 251.269 687.827 250.973C687.827 250.677 687.718 250.391 687.521 250.17C687.324 249.949 687.052 249.808 686.758 249.774C686.464 249.808 686.192 249.949 685.995 250.17C685.798 250.391 685.689 250.677 685.689 250.973C685.689 251.269 685.798 251.554 685.995 251.775C686.192 251.996 686.464 252.137 686.758 252.171Z" fill="white"/>
<path d="M706.131 152.301H708.074C708.24 152.283 708.394 152.204 708.506 152.08C708.618 151.955 708.68 151.794 708.68 151.626C708.68 151.459 708.618 151.297 708.506 151.173C708.394 151.048 708.24 150.969 708.074 150.951H706.131C705.331 150.951 705.331 152.301 706.131 152.301Z" fill="white"/>
<path d="M894.703 178.044L892.769 175.975C892.193 175.359 891.297 176.31 891.873 176.925L893.808 178.995C894.384 179.61 895.279 178.659 894.703 178.044Z" fill="white"/>
<path d="M879.376 315.153V313.083C879.376 312.916 879.31 312.755 879.192 312.637C879.073 312.519 878.912 312.452 878.745 312.452C878.577 312.452 878.417 312.519 878.298 312.637C878.18 312.755 878.113 312.916 878.113 313.083V315.153C878.113 315.32 878.18 315.481 878.298 315.599C878.417 315.717 878.577 315.784 878.745 315.784C878.912 315.784 879.073 315.717 879.192 315.599C879.31 315.481 879.376 315.32 879.376 315.153Z" fill="white"/>
<path d="M783.723 372.26C784.041 372.26 784.346 372.134 784.571 371.909C784.796 371.684 784.922 371.38 784.922 371.062C784.922 370.744 784.796 370.439 784.571 370.214C784.346 369.99 784.041 369.863 783.723 369.863C783.405 369.863 783.1 369.99 782.875 370.214C782.65 370.439 782.523 370.744 782.523 371.062C782.523 371.38 782.65 371.684 782.875 371.909C783.1 372.134 783.405 372.26 783.723 372.26Z" fill="white"/>
<path d="M689.339 449.727V447.658C689.339 447.49 689.273 447.33 689.154 447.211C689.036 447.093 688.875 447.026 688.708 447.026C688.54 447.026 688.38 447.093 688.261 447.211C688.143 447.33 688.076 447.49 688.076 447.658V449.727C688.076 449.894 688.143 450.055 688.261 450.173C688.38 450.292 688.54 450.358 688.708 450.358C688.875 450.358 689.036 450.292 689.154 450.173C689.273 450.055 689.339 449.894 689.339 449.727Z" fill="white"/>
<path d="M746.904 316.351C747.222 316.351 747.527 316.225 747.752 316C747.977 315.775 748.104 315.47 748.104 315.153C748.104 314.835 747.977 314.53 747.752 314.305C747.527 314.08 747.222 313.954 746.904 313.954C746.586 313.954 746.281 314.08 746.056 314.305C745.831 314.53 745.705 314.835 745.705 315.153C745.705 315.47 745.831 315.775 746.056 316C746.281 316.225 746.586 316.351 746.904 316.351Z" fill="white"/>
<path d="M560.258 369.463L562.193 371.533C562.768 372.148 563.664 371.197 563.088 370.582L561.145 368.513C560.578 367.897 559.682 368.848 560.258 369.463Z" fill="white"/>
<path d="M508.074 416.491C507.802 418.656 511.272 418.488 510.881 416.427C510.713 415.58 509.489 415.939 509.657 416.786C509.657 416.634 509.657 416.786 509.657 416.73C509.657 416.674 509.657 416.77 509.657 416.658C509.609 416.754 509.729 416.658 509.657 416.658C509.585 416.658 509.577 416.786 509.657 416.658C509.634 416.679 509.607 416.695 509.577 416.706C509.697 416.706 509.625 416.706 509.577 416.706H509.457C509.545 416.706 509.529 416.706 509.457 416.706C509.386 416.706 509.21 416.706 509.346 416.706H509.234C509.186 416.706 509.234 416.706 509.274 416.706H509.234C509.234 416.61 509.234 416.786 509.234 416.706V416.754C509.234 416.794 509.234 416.874 509.234 416.754C509.282 416.922 509.234 416.714 509.234 416.858C509.263 416.694 509.235 416.524 509.153 416.378C509.072 416.232 508.942 416.119 508.786 416.059C508.702 416.035 508.615 416.029 508.529 416.04C508.443 416.051 508.359 416.079 508.285 416.123C508.21 416.167 508.145 416.226 508.094 416.296C508.042 416.366 508.006 416.446 507.986 416.53L508.074 416.491Z" fill="white"/>
<path d="M543.252 264.595C543.57 264.595 543.875 264.469 544.1 264.244C544.325 264.019 544.451 263.715 544.451 263.397C544.451 263.079 544.325 262.774 544.1 262.549C543.875 262.325 543.57 262.198 543.252 262.198C542.934 262.198 542.629 262.325 542.404 262.549C542.179 262.774 542.053 263.079 542.053 263.397C542.053 263.715 542.179 264.019 542.404 264.244C542.629 264.469 542.934 264.595 543.252 264.595Z" fill="white"/>
<path d="M634.846 358.158L632.903 356.089C632.328 355.473 631.432 356.432 632.008 357.047L633.951 359.117C634.526 359.732 635.422 358.773 634.846 358.158Z" fill="white"/>
<path d="M892.32 61.7064C892.638 61.7064 892.943 61.5802 893.168 61.3554C893.393 61.1307 893.52 60.8258 893.52 60.508C893.52 60.1902 893.393 59.8853 893.168 59.6606C892.943 59.4358 892.638 59.3096 892.32 59.3096C892.002 59.3096 891.697 59.4358 891.472 59.6606C891.247 59.8853 891.121 60.1902 891.121 60.508C891.121 60.8258 891.247 61.1307 891.472 61.3554C891.697 61.5802 892.002 61.7064 892.32 61.7064Z" fill="white"/>
<path d="M991.221 119.68C991.539 119.68 991.844 119.554 992.069 119.329C992.294 119.104 992.42 118.799 992.42 118.482C992.42 118.164 992.294 117.859 992.069 117.634C991.844 117.409 991.539 117.283 991.221 117.283C990.903 117.283 990.598 117.409 990.373 117.634C990.148 117.859 990.021 118.164 990.021 118.482C990.021 118.799 990.148 119.104 990.373 119.329C990.598 119.554 990.903 119.68 991.221 119.68Z" fill="white"/>
<path d="M967.947 256.317C968.265 256.317 968.57 256.191 968.795 255.966C969.02 255.741 969.147 255.436 969.147 255.118C969.147 254.801 969.02 254.496 968.795 254.271C968.57 254.046 968.265 253.92 967.947 253.92C967.629 253.92 967.324 254.046 967.099 254.271C966.874 254.496 966.748 254.801 966.748 255.118C966.748 255.436 966.874 255.741 967.099 255.966C967.324 256.191 967.629 256.317 967.947 256.317Z" fill="white"/>
<path d="M931.425 440.867V438.47C931.425 438.303 931.359 438.142 931.24 438.024C931.122 437.905 930.961 437.839 930.794 437.839C930.626 437.839 930.466 437.905 930.347 438.024C930.229 438.142 930.162 438.303 930.162 438.47V440.867C930.162 441.034 930.229 441.195 930.347 441.313C930.466 441.432 930.626 441.498 930.794 441.498C930.961 441.498 931.122 441.432 931.24 441.313C931.359 441.195 931.425 441.034 931.425 440.867Z" fill="white"/>
<path d="M835.922 569.859C836.24 569.859 836.545 569.733 836.77 569.508C836.995 569.283 837.121 568.978 837.121 568.66C837.121 568.343 836.995 568.038 836.77 567.813C836.545 567.588 836.24 567.462 835.922 567.462C835.604 567.462 835.299 567.588 835.074 567.813C834.849 568.038 834.723 568.343 834.723 568.66C834.723 568.978 834.849 569.283 835.074 569.508C835.299 569.733 835.604 569.859 835.922 569.859Z" fill="white"/>
<path d="M601.024 588.625H603.279C603.445 588.607 603.599 588.528 603.711 588.403C603.823 588.278 603.885 588.117 603.885 587.95C603.885 587.782 603.823 587.621 603.711 587.496C603.599 587.371 603.445 587.293 603.279 587.274H601.024C600.857 587.293 600.704 587.371 600.592 587.496C600.48 587.621 600.418 587.782 600.418 587.95C600.418 588.117 600.48 588.278 600.592 588.403C600.704 588.528 600.857 588.607 601.024 588.625Z" fill="white"/>
<path d="M554.599 510.535C554.599 510.703 554.599 510.439 554.599 510.535C554.599 510.631 554.599 510.583 554.599 510.535V510.599C554.647 510.679 554.495 510.599 554.599 510.599C554.703 510.599 554.511 510.647 554.599 510.599C554.687 510.551 554.647 510.599 554.599 510.599L554.735 510.559H554.911C555.018 510.556 555.122 510.59 555.207 510.655C555.143 510.591 555.207 510.655 555.207 510.655C555.207 510.655 555.207 510.575 555.207 510.655C555.207 510.607 555.207 510.575 555.207 510.655C555.207 510.495 555.207 510.727 555.207 510.599C555.047 511.446 556.262 511.806 556.43 510.959C556.862 508.738 553.072 508.562 553.368 510.887C553.386 510.972 553.422 511.053 553.473 511.123C553.524 511.194 553.589 511.253 553.665 511.297C553.74 511.342 553.823 511.37 553.91 511.381C553.996 511.391 554.084 511.383 554.168 511.358C554.324 511.299 554.454 511.186 554.535 511.04C554.615 510.893 554.641 510.723 554.607 510.559L554.599 510.535Z" fill="white"/>
<path d="M760.76 534.904V537.3C760.76 537.468 760.826 537.628 760.945 537.747C761.063 537.865 761.224 537.932 761.391 537.932C761.559 537.932 761.72 537.865 761.838 537.747C761.956 537.628 762.023 537.468 762.023 537.3V534.904C762.023 534.736 761.956 534.576 761.838 534.457C761.72 534.339 761.559 534.272 761.391 534.272C761.224 534.272 761.063 534.339 760.945 534.457C760.826 534.576 760.76 534.736 760.76 534.904Z" fill="white"/>
<path d="M1058.57 334.271C1058.89 334.271 1059.2 334.145 1059.42 333.92C1059.65 333.695 1059.77 333.39 1059.77 333.072C1059.77 332.755 1059.65 332.45 1059.42 332.225C1059.2 332 1058.89 331.874 1058.57 331.874C1058.25 331.874 1057.95 332 1057.72 332.225C1057.5 332.45 1057.37 332.755 1057.37 333.072C1057.37 333.39 1057.5 333.695 1057.72 333.92C1057.95 334.145 1058.25 334.271 1058.57 334.271Z" fill="white"/>
<path d="M1111.28 92.1478C1111.59 92.1478 1111.9 92.0216 1112.12 91.7968C1112.35 91.5721 1112.47 91.2673 1112.47 90.9494C1112.47 90.6316 1112.35 90.3267 1112.12 90.102C1111.9 89.8772 1111.59 89.751 1111.28 89.751C1110.96 89.751 1110.65 89.8772 1110.43 90.102C1110.2 90.3267 1110.08 90.6316 1110.08 90.9494C1110.08 91.2673 1110.2 91.5721 1110.43 91.7968C1110.65 92.0216 1110.96 92.1478 1111.28 92.1478Z" fill="white"/>
<path d="M1066.82 570.37C1067.14 570.37 1067.45 570.243 1067.67 570.019C1067.9 569.794 1068.02 569.489 1068.02 569.171C1068.02 568.853 1067.9 568.548 1067.67 568.324C1067.45 568.099 1067.14 567.973 1066.82 567.973C1066.5 567.973 1066.2 568.099 1065.97 568.324C1065.75 568.548 1065.62 568.853 1065.62 569.171C1065.62 569.489 1065.75 569.794 1065.97 570.019C1066.2 570.243 1066.5 570.37 1066.82 570.37Z" fill="white"/>
<path fill-rule="evenodd" clip-rule="evenodd" d="M538.135 73.2516C539.124 73.2532 540.092 72.9615 540.915 72.4134C541.738 71.8653 542.379 71.0855 542.759 70.1727C543.138 69.26 543.237 68.2553 543.045 67.2859C542.852 66.3165 542.376 65.426 541.677 64.7272C540.978 64.0284 540.086 63.5526 539.116 63.3602C538.146 63.1678 537.141 63.2674 536.227 63.6463C535.314 64.0252 534.534 64.6665 533.985 65.4889C533.437 66.3113 533.145 67.2778 533.146 68.2661C533.149 69.5877 533.675 70.8545 534.61 71.789C535.545 72.7236 536.813 73.2495 538.135 73.2516Z" fill="white"/>
<path fill-rule="evenodd" clip-rule="evenodd" d="M204.081 266.488C205.068 266.488 206.032 266.195 206.853 265.647C207.673 265.1 208.312 264.321 208.69 263.41C209.068 262.499 209.166 261.497 208.974 260.529C208.781 259.562 208.306 258.674 207.609 257.977C206.911 257.28 206.022 256.805 205.054 256.612C204.086 256.42 203.083 256.519 202.172 256.896C201.26 257.273 200.481 257.912 199.933 258.732C199.384 259.552 199.092 260.516 199.092 261.502C199.1 262.822 199.628 264.085 200.562 265.018C201.496 265.951 202.76 266.479 204.081 266.488Z" fill="white"/>
<path fill-rule="evenodd" clip-rule="evenodd" d="M523.839 450.494C524.829 450.497 525.798 450.207 526.623 449.66C527.448 449.112 528.092 448.333 528.473 447.42C528.855 446.506 528.957 445.501 528.766 444.53C528.575 443.559 528.101 442.666 527.402 441.965C526.704 441.263 525.813 440.785 524.842 440.589C523.871 440.394 522.864 440.491 521.949 440.868C521.033 441.245 520.25 441.885 519.698 442.707C519.146 443.528 518.851 444.495 518.85 445.485C518.852 446.808 519.377 448.078 520.312 449.016C521.246 449.954 522.514 450.486 523.839 450.494Z" fill="white"/>
<path fill-rule="evenodd" clip-rule="evenodd" d="M845.053 404.841C846.042 404.843 847.01 404.551 847.833 404.003C848.656 403.455 849.297 402.675 849.676 401.763C850.056 400.85 850.155 399.845 849.963 398.876C849.77 397.906 849.294 397.016 848.595 396.317C847.895 395.618 847.004 395.142 846.034 394.95C845.064 394.758 844.059 394.857 843.145 395.236C842.232 395.615 841.452 396.256 840.903 397.079C840.355 397.901 840.063 398.868 840.064 399.856C840.067 401.178 840.593 402.444 841.528 403.379C842.463 404.313 843.731 404.839 845.053 404.841Z" fill="white"/>
<path fill-rule="evenodd" clip-rule="evenodd" d="M699.462 550.323C700.451 550.32 701.416 550.024 702.237 549.474C703.058 548.923 703.697 548.142 704.073 547.228C704.45 546.315 704.548 545.311 704.354 544.342C704.161 543.373 703.684 542.484 702.985 541.785C702.286 541.087 701.396 540.611 700.427 540.417C699.457 540.224 698.452 540.321 697.538 540.698C696.625 541.075 695.843 541.713 695.292 542.533C694.74 543.353 694.445 544.318 694.441 545.306C694.439 545.965 694.568 546.619 694.819 547.228C695.071 547.838 695.441 548.392 695.907 548.858C696.374 549.325 696.928 549.694 697.538 549.946C698.149 550.197 698.802 550.325 699.462 550.323Z" fill="white"/>
<path fill-rule="evenodd" clip-rule="evenodd" d="M737.981 61.1237C738.97 61.1252 739.937 60.8335 740.76 60.2854C741.583 59.7374 742.225 58.9576 742.604 58.0448C742.983 57.132 743.083 56.1274 742.891 55.158C742.698 54.1886 742.222 53.2981 741.523 52.5993C740.823 51.9004 739.932 51.4247 738.962 51.2323C737.992 51.0399 736.987 51.1394 736.073 51.5184C735.16 51.8973 734.38 52.5386 733.831 53.361C733.283 54.1833 732.991 55.1499 732.992 56.1382C732.994 57.4598 733.521 58.7266 734.456 59.6611C735.391 60.5956 736.659 61.1216 737.981 61.1237Z" fill="white"/>
<path fill-rule="evenodd" clip-rule="evenodd" d="M429.632 276.491C430.621 276.494 431.59 276.204 432.415 275.657C433.24 275.11 433.884 274.331 434.265 273.418C434.647 272.506 434.749 271.5 434.559 270.53C434.369 269.559 433.896 268.666 433.198 267.964C432.5 267.263 431.61 266.784 430.64 266.588C429.669 266.391 428.663 266.487 427.747 266.863C426.831 267.239 426.048 267.877 425.495 268.698C424.942 269.519 424.646 270.485 424.643 271.474C424.641 272.131 424.768 272.781 425.017 273.389C425.267 273.997 425.634 274.549 426.097 275.015C426.56 275.481 427.111 275.851 427.717 276.104C428.324 276.358 428.974 276.489 429.632 276.491Z" fill="white"/>
<path fill-rule="evenodd" clip-rule="evenodd" d="M280.098 391.283C280.591 391.28 281.072 391.131 281.481 390.855C281.889 390.579 282.206 390.188 282.392 389.732C282.578 389.275 282.625 388.774 282.526 388.292C282.428 387.809 282.188 387.366 281.838 387.02C281.488 386.673 281.042 386.438 280.558 386.344C280.074 386.25 279.573 386.301 279.119 386.491C278.664 386.682 278.276 387.003 278.003 387.413C277.731 387.824 277.586 388.306 277.588 388.799C277.586 389.125 277.648 389.448 277.772 389.75C277.896 390.052 278.078 390.326 278.309 390.557C278.539 390.788 278.813 390.972 279.115 391.096C279.417 391.221 279.74 391.284 280.066 391.283H280.098Z" fill="white"/>
<path fill-rule="evenodd" clip-rule="evenodd" d="M118.802 84.6537C119.44 84.6176 120.04 84.3389 120.48 83.8746C120.919 83.4103 121.163 82.7958 121.163 82.157C121.163 81.5182 120.919 80.9036 120.48 80.4394C120.04 79.9751 119.44 79.6963 118.802 79.6602C118.462 79.641 118.122 79.6913 117.802 79.8081C117.482 79.9249 117.189 80.1057 116.942 80.3394C116.694 80.5732 116.497 80.8549 116.362 81.1674C116.228 81.48 116.158 81.8167 116.158 82.157C116.158 82.4973 116.228 82.834 116.362 83.1465C116.497 83.4591 116.694 83.7408 116.942 83.9745C117.189 84.2083 117.482 84.3891 117.802 84.5058C118.122 84.6226 118.462 84.6729 118.802 84.6537Z" fill="white"/>
<path fill-rule="evenodd" clip-rule="evenodd" d="M417.143 40.4474C417.805 40.4474 418.439 40.1848 418.907 39.7173C419.375 39.2498 419.637 38.6158 419.637 37.9547C419.637 37.2935 419.375 36.6595 418.907 36.192C418.439 35.7245 417.805 35.4619 417.143 35.4619C416.481 35.4619 415.847 35.7245 415.379 36.192C414.911 36.6595 414.648 37.2935 414.648 37.9547C414.648 38.6158 414.911 39.2498 415.379 39.7173C415.847 40.1848 416.481 40.4474 417.143 40.4474Z" fill="white"/>
<path fill-rule="evenodd" clip-rule="evenodd" d="M380.021 135.994C380.516 135.997 381 135.854 381.413 135.581C381.825 135.309 382.147 134.92 382.338 134.465C382.529 134.009 382.58 133.507 382.485 133.022C382.39 132.537 382.153 132.092 381.804 131.742C381.455 131.392 381.01 131.153 380.525 131.057C380.04 130.96 379.538 131.01 379.081 131.199C378.624 131.389 378.234 131.709 377.961 132.121C377.687 132.532 377.541 133.015 377.543 133.509C377.542 133.835 377.605 134.158 377.729 134.46C377.853 134.761 378.036 135.035 378.266 135.266C378.496 135.497 378.77 135.68 379.071 135.805C379.372 135.93 379.695 135.994 380.021 135.994Z" fill="white"/>
<path fill-rule="evenodd" clip-rule="evenodd" d="M691.235 44.7378C691.899 44.7336 692.535 44.4679 693.005 43.9984C693.475 43.5288 693.741 42.8931 693.745 42.2291C693.744 41.7351 693.596 41.2528 693.32 40.8427C693.045 40.4327 692.654 40.1134 692.197 39.9252C691.74 39.7369 691.237 39.688 690.753 39.7848C690.268 39.8815 689.823 40.1195 689.473 40.4688C689.124 40.818 688.886 41.2629 688.789 41.7472C688.692 42.2316 688.741 42.7337 688.929 43.1904C689.118 43.647 689.437 44.0376 689.847 44.313C690.258 44.5884 690.74 44.7362 691.235 44.7378Z" fill="white"/>
<path fill-rule="evenodd" clip-rule="evenodd" d="M464.274 332.819C464.602 332.816 464.926 332.75 465.228 332.623C465.529 332.495 465.803 332.31 466.033 332.077C466.264 331.844 466.446 331.568 466.569 331.265C466.692 330.962 466.755 330.637 466.753 330.31C466.754 329.984 466.69 329.662 466.566 329.361C466.442 329.06 466.259 328.786 466.029 328.556C465.799 328.326 465.525 328.144 465.224 328.019C464.923 327.895 464.6 327.832 464.274 327.833C463.947 327.831 463.622 327.893 463.318 328.017C463.015 328.14 462.739 328.322 462.506 328.552C462.272 328.782 462.087 329.055 461.96 329.357C461.832 329.659 461.766 329.982 461.764 330.31C461.768 330.974 462.034 331.61 462.504 332.079C462.974 332.549 463.61 332.814 464.274 332.819Z" fill="white"/>
<path fill-rule="evenodd" clip-rule="evenodd" d="M98.8132 478.281C99.139 478.282 99.4618 478.219 99.7629 478.095C100.064 477.971 100.338 477.788 100.568 477.558C100.799 477.328 100.981 477.055 101.105 476.754C101.229 476.453 101.293 476.13 101.292 475.805C101.294 475.477 101.231 475.153 101.108 474.849C100.985 474.546 100.803 474.27 100.572 474.037C100.342 473.804 100.068 473.619 99.7666 473.492C99.4648 473.365 99.1408 473.298 98.8132 473.296C98.1487 473.3 97.5126 473.566 97.0427 474.035C96.5728 474.505 96.3069 475.141 96.3027 475.805C96.3048 476.132 96.3714 476.456 96.4987 476.757C96.626 477.059 96.8115 477.333 97.0446 477.563C97.2778 477.793 97.5539 477.974 97.8574 478.098C98.1608 478.221 98.4856 478.283 98.8132 478.281Z" fill="white"/>
<path fill-rule="evenodd" clip-rule="evenodd" d="M824.01 493.965C824.337 493.967 824.66 493.905 824.962 493.781C825.265 493.657 825.539 493.475 825.77 493.245C826.002 493.014 826.185 492.741 826.31 492.439C826.434 492.138 826.498 491.814 826.497 491.488C826.5 490.994 826.356 490.51 826.084 490.098C825.811 489.686 825.422 489.364 824.966 489.173C824.51 488.982 824.008 488.931 823.523 489.026C823.037 489.121 822.591 489.358 822.241 489.707C821.891 490.056 821.653 490.5 821.556 490.985C821.459 491.469 821.509 491.972 821.698 492.428C821.888 492.884 822.209 493.274 822.621 493.548C823.032 493.821 823.516 493.967 824.01 493.965Z" fill="white"/>
<path fill-rule="evenodd" clip-rule="evenodd" d="M671.431 472.594C671.764 472.594 672.083 472.462 672.319 472.226C672.554 471.991 672.686 471.672 672.686 471.339C672.686 471.007 672.554 470.688 672.319 470.452C672.083 470.217 671.764 470.085 671.431 470.085C671.098 470.085 670.779 470.217 670.543 470.452C670.308 470.688 670.176 471.007 670.176 471.339C670.176 471.672 670.308 471.991 670.543 472.226C670.779 472.462 671.098 472.594 671.431 472.594Z" fill="white"/>
<path fill-rule="evenodd" clip-rule="evenodd" d="M598.459 563.849C598.622 563.85 598.783 563.819 598.934 563.757C599.085 563.695 599.222 563.604 599.337 563.489C599.453 563.374 599.544 563.237 599.606 563.086C599.668 562.935 599.699 562.774 599.698 562.611C599.698 562.278 599.566 561.959 599.33 561.724C599.095 561.489 598.776 561.356 598.443 561.356C598.11 561.356 597.791 561.489 597.555 561.724C597.32 561.959 597.188 562.278 597.188 562.611C597.187 562.776 597.221 562.94 597.285 563.092C597.349 563.245 597.443 563.383 597.562 563.498C597.68 563.613 597.821 563.704 597.975 563.764C598.129 563.825 598.293 563.853 598.459 563.849Z" fill="white"/>
<path fill-rule="evenodd" clip-rule="evenodd" d="M334.353 439.795C334.686 439.795 335.005 439.663 335.241 439.427C335.476 439.192 335.608 438.873 335.608 438.54C335.608 438.208 335.476 437.889 335.241 437.654C335.005 437.418 334.686 437.286 334.353 437.286C334.02 437.286 333.701 437.418 333.465 437.654C333.23 437.889 333.098 438.208 333.098 438.54C333.098 438.873 333.23 439.192 333.465 439.427C333.701 439.663 334.02 439.795 334.353 439.795Z" fill="white"/>
<path fill-rule="evenodd" clip-rule="evenodd" d="M244.407 291.448C244.573 291.452 244.737 291.423 244.891 291.363C245.045 291.303 245.186 291.212 245.304 291.097C245.423 290.981 245.517 290.843 245.581 290.691C245.645 290.538 245.679 290.375 245.678 290.209C245.678 289.877 245.546 289.558 245.311 289.322C245.075 289.087 244.756 288.955 244.423 288.955C244.09 288.955 243.771 289.087 243.536 289.322C243.3 289.558 243.168 289.877 243.168 290.209C243.167 290.372 243.198 290.534 243.26 290.685C243.322 290.835 243.413 290.972 243.529 291.087C243.644 291.203 243.781 291.294 243.932 291.356C244.083 291.418 244.244 291.449 244.407 291.448Z" fill="white"/>
<path fill-rule="evenodd" clip-rule="evenodd" d="M117.371 274.334C117.534 274.335 117.696 274.304 117.847 274.242C117.999 274.18 118.136 274.089 118.252 273.974C118.368 273.859 118.46 273.722 118.523 273.571C118.585 273.421 118.618 273.259 118.618 273.096C118.621 272.846 118.55 272.602 118.414 272.394C118.277 272.185 118.082 272.022 117.852 271.925C117.623 271.827 117.369 271.801 117.125 271.848C116.88 271.895 116.655 272.014 116.478 272.19C116.301 272.365 116.181 272.59 116.132 272.834C116.083 273.078 116.108 273.331 116.204 273.561C116.299 273.791 116.462 273.988 116.669 274.125C116.877 274.263 117.121 274.335 117.371 274.334Z" fill="white"/>
<path fill-rule="evenodd" clip-rule="evenodd" d="M441.423 224.423C441.752 224.419 442.066 224.286 442.297 224.053C442.529 223.82 442.66 223.505 442.662 223.177C442.662 222.849 442.532 222.534 442.299 222.301C442.067 222.069 441.752 221.939 441.423 221.939C441.26 221.936 441.098 221.967 440.946 222.028C440.795 222.09 440.657 222.181 440.542 222.297C440.426 222.412 440.335 222.549 440.274 222.701C440.212 222.852 440.182 223.014 440.184 223.177C440.183 223.34 440.214 223.502 440.276 223.653C440.338 223.805 440.429 223.942 440.544 224.058C440.659 224.174 440.796 224.266 440.947 224.328C441.098 224.391 441.26 224.423 441.423 224.423Z" fill="white"/>
<path fill-rule="evenodd" clip-rule="evenodd" d="M605.583 80.3953C605.831 80.3985 606.075 80.328 606.283 80.1928C606.491 80.0576 606.655 79.8638 606.752 79.6358C606.85 79.4078 606.878 79.1559 606.833 78.912C606.788 78.6681 606.671 78.4431 606.498 78.2655C606.324 78.0878 606.102 77.9655 605.859 77.914C605.617 77.8625 605.364 77.8842 605.133 77.9762C604.903 78.0682 604.705 78.2264 604.564 78.4309C604.424 78.6354 604.347 78.8769 604.344 79.125C604.342 79.4571 604.47 79.7766 604.702 80.0144C604.934 80.2522 605.251 80.389 605.583 80.3953Z" fill="white"/>
<path fill-rule="evenodd" clip-rule="evenodd" d="M468.536 20.4735C468.87 20.4756 469.191 20.3457 469.429 20.1122C469.667 19.8787 469.803 19.5605 469.807 19.2271C469.809 18.9794 469.737 18.7367 469.601 18.5297C469.465 18.3228 469.27 18.1608 469.042 18.0642C468.813 17.9675 468.562 17.9406 468.318 17.9869C468.074 18.0331 467.85 18.1503 467.673 18.3238C467.496 18.4973 467.374 18.7193 467.324 18.9618C467.273 19.2043 467.295 19.4564 467.387 19.6863C467.479 19.9162 467.638 20.1137 467.842 20.2538C468.047 20.3939 468.288 20.4703 468.536 20.4735Z" fill="white"/>
<path fill-rule="evenodd" clip-rule="evenodd" d="M778.318 462.598C778.482 462.6 778.644 462.569 778.796 462.507C778.948 462.445 779.086 462.354 779.202 462.237C779.317 462.121 779.408 461.983 779.469 461.831C779.53 461.678 779.56 461.516 779.557 461.352C779.557 461.023 779.426 460.708 779.194 460.476C778.961 460.244 778.646 460.113 778.318 460.113C777.989 460.115 777.674 460.246 777.441 460.478C777.208 460.709 777.074 461.023 777.07 461.352C777.07 461.682 777.202 461.999 777.436 462.233C777.67 462.467 777.987 462.598 778.318 462.598Z" fill="white"/>
<path fill-rule="evenodd" clip-rule="evenodd" d="M133.074 27.663C133.407 27.663 133.726 27.5309 133.961 27.2956C134.197 27.0604 134.329 26.7413 134.329 26.4087C134.329 26.076 134.197 25.7569 133.961 25.5217C133.726 25.2865 133.407 25.1543 133.074 25.1543C132.741 25.1543 132.421 25.2865 132.186 25.5217C131.951 25.7569 131.818 26.076 131.818 26.4087C131.818 26.7413 131.951 27.0604 132.186 27.2956C132.421 27.5309 132.741 27.663 133.074 27.663Z" fill="white"/>
<path fill-rule="evenodd" clip-rule="evenodd" d="M586.642 426.693C586.89 426.692 587.131 426.617 587.337 426.479C587.542 426.34 587.701 426.144 587.795 425.915C587.889 425.686 587.914 425.435 587.865 425.192C587.816 424.95 587.697 424.727 587.522 424.552C587.347 424.377 587.124 424.258 586.881 424.209C586.638 424.16 586.387 424.185 586.158 424.279C585.928 424.372 585.732 424.532 585.594 424.737C585.455 424.942 585.381 425.183 585.379 425.431C585.378 425.597 585.41 425.762 585.473 425.915C585.536 426.069 585.629 426.208 585.747 426.326C585.864 426.443 586.004 426.536 586.158 426.599C586.311 426.662 586.476 426.694 586.642 426.693Z" fill="white"/>
<path fill-rule="evenodd" clip-rule="evenodd" d="M536.681 332.546C536.93 332.544 537.172 332.469 537.378 332.329C537.584 332.19 537.743 331.992 537.837 331.762C537.93 331.532 537.953 331.279 537.902 331.036C537.852 330.793 537.73 330.57 537.552 330.396C537.375 330.222 537.15 330.105 536.905 330.059C536.661 330.013 536.409 330.04 536.18 330.138C535.951 330.236 535.757 330.399 535.621 330.607C535.486 330.815 535.415 331.059 535.418 331.307C535.419 331.472 535.453 331.634 535.517 331.786C535.581 331.937 535.674 332.074 535.792 332.189C535.909 332.304 536.048 332.395 536.201 332.456C536.354 332.517 536.517 332.548 536.681 332.546Z" fill="white"/>
<path fill-rule="evenodd" clip-rule="evenodd" d="M837.882 219.893C838.13 219.897 838.374 219.826 838.582 219.691C838.79 219.556 838.953 219.362 839.051 219.134C839.149 218.906 839.177 218.654 839.132 218.41C839.087 218.166 838.97 217.941 838.797 217.764C838.623 217.586 838.401 217.464 838.158 217.412C837.916 217.361 837.663 217.382 837.432 217.474C837.202 217.566 837.004 217.724 836.863 217.929C836.723 218.133 836.646 218.375 836.643 218.623C836.641 218.788 836.671 218.951 836.732 219.104C836.793 219.257 836.884 219.397 836.999 219.515C837.114 219.633 837.251 219.727 837.403 219.792C837.554 219.857 837.717 219.891 837.882 219.893Z" fill="white"/>
<path fill-rule="evenodd" clip-rule="evenodd" d="M139.847 203.154C140.18 203.154 140.499 203.022 140.735 202.787C140.97 202.552 141.102 202.233 141.102 201.9C141.102 201.567 140.97 201.248 140.735 201.013C140.499 200.778 140.18 200.646 139.847 200.646C139.514 200.646 139.195 200.778 138.959 201.013C138.724 201.248 138.592 201.567 138.592 201.9C138.592 202.233 138.724 202.552 138.959 202.787C139.195 203.022 139.514 203.154 139.847 203.154Z" fill="white"/>
<path fill-rule="evenodd" clip-rule="evenodd" d="M293.992 236.99C294.239 236.989 294.48 236.914 294.685 236.776C294.89 236.638 295.05 236.442 295.144 236.214C295.238 235.985 295.263 235.734 295.215 235.492C295.167 235.25 295.048 235.027 294.874 234.852C294.7 234.676 294.478 234.556 294.235 234.507C293.993 234.457 293.742 234.48 293.513 234.573C293.283 234.666 293.087 234.824 292.947 235.028C292.808 235.232 292.732 235.473 292.729 235.72C292.727 235.886 292.759 236.051 292.822 236.205C292.885 236.359 292.978 236.5 293.096 236.618C293.213 236.736 293.353 236.829 293.507 236.893C293.66 236.957 293.825 236.99 293.992 236.99Z" fill="white"/>
<path fill-rule="evenodd" clip-rule="evenodd" d="M508.305 581.611C508.802 581.611 509.288 581.464 509.701 581.188C510.114 580.912 510.436 580.52 510.626 580.061C510.815 579.602 510.865 579.097 510.767 578.61C510.67 578.123 510.43 577.676 510.078 577.326C509.726 576.975 509.278 576.737 508.79 576.641C508.303 576.545 507.798 576.596 507.339 576.787C506.881 576.978 506.489 577.301 506.214 577.715C505.939 578.128 505.793 578.614 505.795 579.11C505.794 579.44 505.858 579.766 505.984 580.071C506.11 580.375 506.295 580.651 506.528 580.884C506.762 581.116 507.039 581.3 507.344 581.425C507.649 581.55 507.976 581.613 508.305 581.611Z" fill="white"/>
<path fill-rule="evenodd" clip-rule="evenodd" d="M892.297 535.958C892.791 535.96 893.275 535.814 893.687 535.541C894.098 535.267 894.419 534.877 894.609 534.421C894.798 533.965 894.848 533.463 894.751 532.978C894.655 532.494 894.416 532.049 894.066 531.7C893.716 531.351 893.27 531.114 892.785 531.019C892.3 530.924 891.797 530.975 891.341 531.166C890.885 531.357 890.496 531.679 890.224 532.091C889.951 532.504 889.807 532.987 889.811 533.481C889.815 534.138 890.078 534.767 890.544 535.231C891.01 535.695 891.64 535.956 892.297 535.958Z" fill="white"/>
<path fill-rule="evenodd" clip-rule="evenodd" d="M1053.62 585.869C1053.94 585.871 1054.27 585.809 1054.57 585.686C1054.88 585.562 1055.15 585.38 1055.38 585.15C1055.62 584.92 1055.8 584.647 1055.93 584.345C1056.06 584.044 1056.12 583.72 1056.13 583.393C1056.13 582.727 1055.86 582.089 1055.39 581.619C1054.92 581.148 1054.28 580.884 1053.62 580.884C1052.95 580.884 1052.31 581.148 1051.84 581.619C1051.37 582.089 1051.11 582.727 1051.11 583.393C1051.11 583.72 1051.17 584.044 1051.3 584.345C1051.43 584.647 1051.61 584.92 1051.85 585.15C1052.08 585.38 1052.36 585.562 1052.66 585.686C1052.96 585.809 1053.29 585.871 1053.62 585.869Z" fill="white"/>
<path fill-rule="evenodd" clip-rule="evenodd" d="M749.558 394.782C750.199 394.746 750.801 394.466 751.241 394C751.682 393.535 751.927 392.918 751.927 392.277C751.927 391.636 751.682 391.02 751.241 390.554C750.801 390.088 750.199 389.809 749.558 389.773C749.217 389.753 748.876 389.804 748.555 389.921C748.234 390.038 747.941 390.22 747.692 390.454C747.444 390.688 747.246 390.971 747.111 391.285C746.976 391.598 746.906 391.936 746.906 392.277C746.906 392.619 746.976 392.956 747.111 393.27C747.246 393.583 747.444 393.866 747.692 394.101C747.941 394.335 748.234 394.516 748.555 394.634C748.876 394.751 749.217 394.801 749.558 394.782Z" fill="white"/>
<path fill-rule="evenodd" clip-rule="evenodd" d="M1003.66 282.1C1004.15 282.098 1004.63 281.95 1005.04 281.674C1005.46 281.397 1005.78 281.005 1005.96 280.547C1006.15 280.089 1006.2 279.586 1006.1 279.101C1006 278.616 1005.76 278.171 1005.41 277.823C1005.06 277.474 1004.61 277.238 1004.12 277.144C1003.64 277.05 1003.13 277.102 1002.68 277.294C1002.22 277.486 1001.83 277.809 1001.56 278.223C1001.29 278.636 1001.14 279.12 1001.14 279.615C1001.15 280.277 1001.42 280.91 1001.89 281.376C1002.36 281.842 1002.99 282.102 1003.66 282.1Z" fill="white"/>
<path fill-rule="evenodd" clip-rule="evenodd" d="M868.432 65.6785C868.929 65.6832 869.417 65.5401 869.833 65.2674C870.249 64.9946 870.574 64.6045 870.768 64.1465C870.962 63.6885 871.015 63.1834 870.921 62.6952C870.827 62.207 870.59 61.7577 870.239 61.4045C869.889 61.0512 869.442 60.8099 868.954 60.7111C868.467 60.6124 867.961 60.6606 867.501 60.8498C867.041 61.0389 866.647 61.3604 866.37 61.7735C866.093 62.1866 865.945 62.6725 865.945 63.1697C865.949 63.8297 866.212 64.4618 866.677 64.9307C867.141 65.3996 867.771 65.668 868.432 65.6785Z" fill="white"/>
<path fill-rule="evenodd" clip-rule="evenodd" d="M374.114 212.223C374.44 212.224 374.763 212.161 375.065 212.037C375.366 211.913 375.64 211.73 375.871 211.5C376.102 211.27 376.286 210.997 376.411 210.696C376.536 210.395 376.6 210.072 376.6 209.746C376.603 209.252 376.46 208.768 376.187 208.356C375.915 207.944 375.526 207.622 375.07 207.431C374.614 207.24 374.111 207.189 373.626 207.284C373.141 207.379 372.695 207.616 372.345 207.965C371.995 208.313 371.756 208.758 371.659 209.243C371.563 209.727 371.612 210.23 371.802 210.686C371.992 211.142 372.312 211.532 372.724 211.805C373.136 212.079 373.619 212.224 374.114 212.223Z" fill="white"/>
<path fill-rule="evenodd" clip-rule="evenodd" d="M166.205 184.451C166.703 184.456 167.19 184.313 167.606 184.04C168.022 183.767 168.348 183.377 168.542 182.919C168.735 182.461 168.789 181.956 168.694 181.468C168.6 180.979 168.363 180.53 168.013 180.177C167.663 179.824 167.216 179.582 166.728 179.484C166.24 179.385 165.734 179.433 165.274 179.622C164.814 179.811 164.42 180.133 164.144 180.546C163.867 180.959 163.719 181.445 163.719 181.942C163.721 182.603 163.983 183.236 164.448 183.705C164.913 184.175 165.544 184.443 166.205 184.451Z" fill="white"/>
<path fill-rule="evenodd" clip-rule="evenodd" d="M878.753 297.782C879.739 297.781 880.703 297.487 881.522 296.938C882.342 296.39 882.98 295.61 883.356 294.699C883.733 293.788 883.83 292.786 883.637 291.819C883.444 290.853 882.968 289.965 882.27 289.269C881.572 288.572 880.683 288.098 879.715 287.907C878.748 287.715 877.745 287.814 876.834 288.192C875.923 288.569 875.144 289.208 874.596 290.028C874.048 290.848 873.756 291.811 873.756 292.797C873.758 294.12 874.285 295.388 875.222 296.323C876.159 297.257 877.429 297.782 878.753 297.782Z" fill="white"/>
<path fill-rule="evenodd" clip-rule="evenodd" d="M476.173 166.578C477.164 166.581 478.134 166.29 478.959 165.742C479.785 165.194 480.429 164.413 480.809 163.498C481.19 162.583 481.291 161.577 481.098 160.605C480.906 159.633 480.429 158.741 479.728 158.04C479.027 157.34 478.133 156.863 477.161 156.671C476.189 156.478 475.181 156.578 474.266 156.959C473.351 157.339 472.569 157.983 472.02 158.808C471.472 159.633 471.18 160.602 471.184 161.593C471.186 162.914 471.712 164.181 472.647 165.116C473.582 166.05 474.85 166.576 476.173 166.578Z" fill="white"/>
<path fill-rule="evenodd" clip-rule="evenodd" d="M380.532 336.292C381.519 336.292 382.483 336 383.304 335.452C384.124 334.904 384.764 334.126 385.141 333.215C385.519 332.304 385.618 331.301 385.425 330.334C385.233 329.367 384.757 328.479 384.06 327.782C383.362 327.084 382.473 326.609 381.505 326.417C380.537 326.225 379.534 326.323 378.623 326.701C377.711 327.078 376.932 327.717 376.384 328.537C375.836 329.357 375.543 330.321 375.543 331.307C375.545 332.628 376.071 333.895 377.007 334.83C377.942 335.764 379.209 336.29 380.532 336.292Z" fill="white"/>
<path fill-rule="evenodd" clip-rule="evenodd" d="M133.561 437.533C134.548 437.533 135.513 437.241 136.333 436.693C137.153 436.145 137.793 435.367 138.17 434.456C138.548 433.545 138.647 432.542 138.454 431.575C138.262 430.608 137.787 429.72 137.089 429.023C136.391 428.325 135.502 427.851 134.535 427.658C133.567 427.466 132.564 427.565 131.652 427.942C130.74 428.319 129.961 428.958 129.413 429.778C128.865 430.598 128.572 431.562 128.572 432.548C128.574 433.87 129.101 435.136 130.036 436.071C130.971 437.005 132.239 437.531 133.561 437.533Z" fill="white"/>
</g>
<defs>
<filter id="filter0_f_170_16" x="-462.805" y="-399.623" width="2365.61" height="1053.63" filterUnits="userSpaceOnUse" color-interpolation-filters="sRGB">
<feFlood flood-opacity="0" result="BackgroundImageFix"/>
<feBlend mode="normal" in="SourceGraphic" in2="BackgroundImageFix" result="shape"/>
<feGaussianBlur stdDeviation="150" result="effect1_foregroundBlur_170_16"/>
</filter>
<clipPath id="clip0_170_16">
<rect width="1140" height="600" fill="white"/>
</clipPath>
</defs>
</svg>
