<svg width="725" height="725" viewBox="0 0 725 725" fill="none" xmlns="http://www.w3.org/2000/svg">
<path d="M363.038 722.664C562.157 722.664 723.575 561.246 723.575 362.127C723.575 163.008 562.157 1.58984 363.038 1.58984C163.919 1.58984 2.50098 163.008 2.50098 362.127C2.50098 561.246 163.919 722.664 363.038 722.664Z" fill="#F9E6C5"/>
<path d="M362.573 724.143C562.532 724.143 724.631 562.044 724.631 362.084C724.631 162.125 562.532 0.0263672 362.573 0.0263672C162.614 0.0263672 0.514648 162.125 0.514648 362.084C0.514648 562.044 162.614 724.143 362.573 724.143Z" fill="#F9E6C5"/>
<path opacity="0.9" d="M2.98959 405.119C-4.54863 342.048 4.65695 278.104 29.6801 219.72C171.193 293.622 526.953 42.3046 529.255 40.6719C543.344 47.9638 556.937 56.1767 569.944 65.2571C569.944 65.2571 280.215 208.678 247.699 251.163C215.182 293.648 91.6458 423.147 2.98959 405.119Z" fill="#44352A"/>
<path opacity="0.7" d="M10.2171 445.559C7.03615 432.229 4.62321 418.727 2.99023 405.12C91.6465 423.165 215.243 293.657 247.716 251.163C280.19 208.67 569.962 65.2578 569.962 65.2578C585.359 75.9771 599.891 87.8865 613.427 100.877C613.427 100.877 494.548 147.28 488.739 170.233C482.93 193.185 542.344 185.202 496.473 215.837C450.602 246.472 427.908 201.546 341.348 262.833C254.789 324.12 89.4036 487.004 10.2171 445.559Z" fill="#B89774"/>
<path d="M27.3087 498.786C20.2569 481.508 14.5428 463.713 10.2168 445.56C89.4033 487.005 254.72 324.094 341.288 262.833C427.856 201.572 450.49 246.506 496.413 215.837C542.335 185.168 482.913 193.177 488.679 170.233C494.445 147.289 613.366 100.877 613.366 100.877C648.575 134.644 676.559 175.211 695.62 220.116C695.62 220.116 633.156 221.698 533.793 286.104C434.43 350.51 365.718 360.005 327.633 370.154C289.548 380.303 132.498 479.047 31.3647 508.35C29.9726 505.188 28.6206 502 27.3087 498.786Z" fill="#876349"/>
<path opacity="0.7" d="M31.3652 508.35C132.499 479.047 289.548 380.311 327.634 370.137C365.719 359.962 434.422 350.493 533.794 286.086C633.166 221.68 695.621 220.116 695.621 220.116C696.377 221.835 697.116 223.639 697.838 225.41C713.686 264.155 722.682 305.359 724.426 347.184C719.931 345.405 596.146 297.885 411.039 391.431C222.47 486.729 211.892 471.425 199.466 475.472C187.04 479.52 191.371 511.349 158.278 535.118C125.186 558.887 88.0977 538.555 68.909 573.985C54.1369 553.478 41.5537 531.479 31.3652 508.35Z" fill="#B89774"/>
<path d="M68.8994 573.985C88.0967 538.555 125.176 558.886 158.269 535.117C191.361 511.349 187.022 479.511 199.456 475.472C211.891 471.433 222.46 486.729 411.03 391.43C596.145 297.884 719.93 345.405 724.424 347.184C724.854 357.65 724.826 368.082 724.339 378.48C724.339 378.48 553.205 392.135 537.737 423.259C522.269 454.384 490.328 455.742 464.093 465.77C437.858 475.798 317.742 476.039 263.312 523.138C208.883 570.238 195.426 656.505 182.931 676.459C138.018 650.865 99.1292 615.918 68.8994 573.985Z" fill="#B89774"/>
<path d="M182.923 676.459C195.426 656.505 208.866 570.247 263.312 523.139C317.759 476.031 437.866 475.799 464.102 465.77C490.337 455.742 522.278 454.384 537.745 423.26C553.213 392.135 724.339 378.48 724.339 378.48C722.825 411.428 716.814 444.015 706.473 475.335C706.473 475.335 303.219 501.518 207.156 689.1C198.935 685.227 190.857 681.013 182.923 676.459Z" fill="#876349"/>
<path d="M207.155 689.1C303.219 501.519 706.473 475.335 706.473 475.335C701.735 489.708 696.104 503.771 689.613 517.442C689.613 517.442 405.702 571.794 292.993 717.44C263.314 711.596 234.479 702.076 207.155 689.1Z" fill="#B89774"/>
<path d="M292.993 717.441C405.702 571.794 689.613 517.442 689.613 517.442C650.945 599.142 583.013 663.347 499.265 697.35C433.958 724.101 362.234 731.087 292.993 717.441Z" fill="#574435"/>
<path opacity="0.3" d="M212.931 448.301C252.993 320.262 428.621 165.472 563.294 207.622C697.967 249.772 709.378 372.612 669.3 500.651C629.221 628.69 483.299 719.598 348.592 677.448C213.885 635.298 172.869 576.331 212.931 448.301Z" fill="#F1DFB1"/>
<path opacity="0.6" d="M318.575 476.752C347.423 384.555 473.055 272.818 569.093 302.868C665.131 332.919 673.002 421.3 644.146 513.505C615.29 605.711 510.951 671.406 414.922 641.355C318.893 611.305 289.719 569 318.575 476.752Z" fill="#F1DFB1"/>
<path opacity="0.2" d="M117.89 184.738C56.5168 217.177 29.3193 216.103 16.017 298.486C2.71469 380.869 -3.56695 389.763 56.9207 383.241C153.405 372.826 45.1394 334.019 77.8366 287.264C90.9756 268.479 160.564 162.181 117.89 184.738Z" fill="#B89774"/>
<path opacity="0.4" d="M196.698 638.021C263.39 637.162 226.371 666.869 213.618 676.02C200.866 685.172 192.316 675.359 154.325 646.314C116.335 617.269 190.374 638.107 196.698 638.021Z" fill="#F1DFB1"/>
<path opacity="0.4" d="M274.423 607.413C309.131 610.644 265.271 632.513 254.469 635.246C243.667 637.979 217.243 629.583 211.116 616.745C204.989 603.907 271.14 607.103 274.423 607.413Z" fill="#F1DFB1"/>
</svg>
