<svg width="1001" height="1000" viewBox="0 0 1001 1000" fill="none" xmlns="http://www.w3.org/2000/svg">
<g clip-path="url(#clip0_105_1203)">
<path d="M506.086 804.643C674.47 804.643 810.972 668.141 810.972 499.756C810.972 331.372 674.47 194.87 506.086 194.87C337.702 194.87 201.2 331.372 201.2 499.756C201.2 668.141 337.702 804.643 506.086 804.643Z" fill="white"/>
<path opacity="0.7" d="M454.012 648.891C491.087 632.393 536.22 675.391 636.49 775.685C597.864 794.035 555.806 804.039 513.055 805.046C470.304 806.053 427.821 798.039 388.375 781.528C298.277 743.906 235.726 668.113 211.652 580.771C239.055 619.24 396.169 734.911 426.69 747.242C457.212 759.574 479.884 747.911 479.489 727.15C479.094 706.388 416.946 665.389 454.012 648.891Z" fill="#E9A973"/>
<path opacity="0.9" d="M365.97 619.893C372.917 599.953 400.924 588.726 491.216 574.275C581.508 559.825 622.587 659.264 679.641 750.781C665.959 760.237 651.527 768.56 636.49 775.669C536.253 675.391 491.087 632.425 454.013 648.891C416.939 665.357 479.062 706.388 479.489 727.15C479.916 747.911 457.213 759.582 426.691 747.242C396.169 734.903 239.039 619.24 211.653 580.771C209.165 571.804 207.115 562.726 205.503 553.538C206.753 560.969 337.616 658.313 379.381 679.872C421.146 701.432 359.023 639.84 365.97 619.893Z" fill="#E9A973"/>
<path d="M201.843 473.257C200.57 485.04 252.047 527.965 285.01 534.453C317.974 540.941 380.347 470.428 508.487 493.688C634.869 516.666 651.359 603.186 723.404 714.013C710.006 727.624 695.353 739.939 679.64 750.797C622.546 659.264 581.507 559.825 491.215 574.292C400.923 588.759 372.916 599.97 365.969 619.909C359.022 639.849 421.121 701.432 379.348 679.889C337.575 658.345 206.72 560.969 205.503 553.538C200.726 527.059 199.496 500.061 201.843 473.257Z" fill="#E9A973"/>
<path d="M210.137 424.673C210.081 425.906 212.047 432.128 247.461 452.93C285.172 475.07 441.157 416.557 492.223 434.337C624.554 480.422 706.326 606.425 748.204 685.474C740.547 695.5 732.264 705.032 723.404 714.013C651.36 603.185 634.87 516.666 508.487 493.688C380.34 470.387 317.975 540.941 285.011 534.453C252.047 527.965 200.571 485.04 201.844 473.257C203.278 456.863 206.052 440.614 210.137 424.673Z" fill="#D97B49"/>
<path opacity="0.9" d="M434.807 203.131C451.745 199.056 469.002 196.44 486.388 195.313C486.388 195.313 521.238 214.6 534.246 231.283C547.254 247.967 523.527 236.667 502.008 242.704C480.488 248.741 491.627 260.185 495.512 266.399C502.354 277.392 708.865 421.143 728.506 396.964C743.078 379.056 715.611 378.008 712.04 340.902C707.334 292.061 747.761 359.947 784.577 375.558C793.793 396.226 800.696 417.85 805.161 440.035C784.682 414.768 767.071 396.207 763.88 418.717C760.688 441.228 744.037 452.366 721.164 451.246C692.665 449.86 426.336 304.448 448.605 267.116C472.646 226.802 477.837 219.774 434.807 203.131Z" fill="#532F47"/>
<path opacity="0.9" d="M534.246 231.283C521.938 215.498 490.077 197.383 486.682 195.478C493.098 195.075 499.568 194.87 506.086 194.87C624.523 194.87 727.186 262.402 777.671 361.06L784.577 375.558C769.908 369.338 754.667 354.82 741.935 342.693C722.711 324.381 709.209 311.52 712.04 340.902C713.77 358.875 721.105 368.388 726.555 375.455C732.356 382.979 736.02 387.73 728.506 396.964C708.865 421.143 502.354 277.392 495.511 266.399C495.077 265.704 494.552 264.944 493.992 264.133C489.544 257.693 482.894 248.065 502.007 242.704C510.452 240.335 519.236 240.636 526.007 240.867C536.492 241.226 542.149 241.42 534.246 231.283Z" fill="#644459"/>
<path d="M329.057 251.207C360.919 228.596 396.811 212.286 434.799 203.155C477.829 219.814 472.679 226.826 448.597 267.14C426.336 304.448 692.665 449.859 721.124 451.246C744.005 452.366 760.616 441.236 763.84 418.717C767.063 396.199 784.641 414.768 805.121 440.035C817.12 499.595 810.977 561.386 787.486 617.418C786.068 620.836 784.59 624.207 783.054 627.533C782.57 625.978 750.211 525.458 696.889 492.309C643.139 458.91 583.651 434.449 524.349 403.847C503.91 393.289 288.041 313.644 329.057 251.207Z" fill="#93454B"/>
<path opacity="0.9" d="M329.057 251.207C288.041 313.668 503.95 393.313 524.349 403.871C583.651 434.449 643.139 458.91 696.888 492.309C750.211 525.458 782.57 625.978 783.062 627.533C773.634 648.083 761.943 667.517 748.204 685.474C706.294 606.425 624.554 480.421 492.223 434.337C441.158 416.557 285.172 475.07 247.461 452.93C212.047 432.128 210.081 425.906 210.137 424.673C213.825 410.256 218.555 396.125 224.29 382.393C246.19 329.687 282.5 284.221 329.057 251.207Z" fill="#93454B"/>
<path d="M580.274 696.79C582.217 695.379 583.031 696.29 583.917 697.515C584.804 698.74 586.263 699.933 584.32 701.343C582.378 702.754 580.79 701.633 579.912 700.416C579.033 699.199 578.308 698.192 580.274 696.79Z" fill="#F2D2C4"/>
<path d="M588.116 704.502C589.624 702.632 590.881 704.002 591.759 705.227C592.638 706.452 594.105 707.645 592.162 709.047C590.22 710.45 589.809 709.853 588.939 708.653C588.068 707.452 586.916 705.993 588.116 704.502Z" fill="#F2D2C4"/>
<path d="M592.921 697.531C593.48 697.126 593.41 696.077 592.765 695.186C592.12 694.296 591.144 693.902 590.586 694.306C590.027 694.711 590.096 695.761 590.741 696.651C591.386 697.542 592.362 697.936 592.921 697.531Z" fill="#F2D2C4"/>
<path d="M577.857 621.593C579.799 620.191 580.613 621.102 581.5 622.327C582.386 623.552 583.845 624.745 581.903 626.147C579.96 627.549 578.373 626.445 577.486 625.228C576.6 624.011 575.931 623.004 577.857 621.593Z" fill="#F2D2C4"/>
<path d="M585.739 629.307C587.238 627.437 588.503 628.815 589.381 630.04C590.26 631.265 591.727 632.458 589.784 633.86C587.842 635.263 587.431 634.666 586.561 633.465C585.69 632.265 584.538 630.814 585.739 629.307Z" fill="#F2D2C4"/>
<path d="M590.541 622.348C591.1 621.944 591.03 620.894 590.385 620.003C589.74 619.113 588.764 618.719 588.206 619.124C587.647 619.528 587.717 620.578 588.361 621.469C589.006 622.359 589.982 622.753 590.541 622.348Z" fill="#F2D2C4"/>
<path d="M469.414 451.6C468.608 448.376 469.479 447.974 470.583 447.708C471.687 447.442 472.864 446.466 473.654 449.698C474.443 452.93 473.315 454.107 472.211 454.381C471.107 454.655 470.204 454.832 469.414 451.6Z" fill="#E9A973"/>
<path d="M483.204 449.182C481.979 446.176 483.26 445.556 484.365 445.29C485.469 445.024 486.653 444.048 487.435 447.28C488.217 450.512 487.701 450.625 486.629 450.891C485.557 451.157 484.179 451.584 483.204 449.182Z" fill="#E9A973"/>
<path d="M451.176 448.772C450.515 446.08 451.224 445.758 452.143 445.548C453.061 445.339 454.045 444.516 454.706 447.208C455.367 449.9 454.424 450.859 453.505 451.085C452.586 451.311 451.828 451.464 451.176 448.772Z" fill="#E9A973"/>
<path d="M500.846 459.563C500.186 456.871 500.895 456.549 501.814 456.339C502.732 456.13 503.716 455.307 504.377 457.999C505.037 460.691 504.086 461.666 503.168 461.892C502.249 462.118 501.499 462.255 500.846 459.563Z" fill="#E9A973"/>
<path d="M512.324 457.532C511.308 455.025 512.38 454.517 513.299 454.308C514.218 454.098 515.193 453.276 515.854 455.968C516.515 458.66 516.071 458.749 515.153 458.974C514.234 459.2 513.138 459.547 512.324 457.532Z" fill="#E9A973"/>
<path d="M276.541 470.927C277.532 468.549 278.798 468.928 280.289 469.549C281.78 470.169 283.795 470.427 282.803 472.845C281.812 475.263 279.733 475.094 278.242 474.457C276.751 473.82 275.55 473.304 276.541 470.927Z" fill="#E9A973"/>
<path d="M259.075 480.454C259.405 477.891 261.332 478.447 262.831 479.075C264.33 479.704 266.329 479.978 265.337 482.356C264.346 484.733 263.645 484.427 262.113 483.806C260.582 483.186 258.809 482.517 259.075 480.454Z" fill="#E9A973"/>
<path d="M272.878 480.912C273.162 480.23 272.511 479.309 271.422 478.855C270.333 478.4 269.22 478.585 268.936 479.267C268.651 479.949 269.303 480.87 270.391 481.324C271.48 481.778 272.593 481.594 272.878 480.912Z" fill="#E9A973"/>
<path d="M251.758 469.775C252.91 468.969 253.37 469.484 253.918 470.21C254.466 470.935 255.304 471.636 254.151 472.475C253.951 472.63 253.719 472.741 253.471 472.798C253.224 472.855 252.967 472.858 252.719 472.805C252.47 472.753 252.236 472.648 252.032 472.496C251.829 472.344 251.661 472.15 251.54 471.927C251.016 471.233 250.637 470.605 251.758 469.775Z" fill="#E9A973"/>
<path d="M265.266 469.444C266.152 468.34 266.878 469.154 267.418 469.88C267.958 470.605 268.812 471.314 267.659 472.144C266.507 472.974 266.265 472.628 265.741 471.902C265.217 471.177 264.548 470.331 265.266 469.444Z" fill="#E9A973"/>
<path d="M257.526 464.837C257.857 464.597 257.817 463.976 257.436 463.449C257.055 462.923 256.477 462.691 256.145 462.931C255.814 463.171 255.854 463.793 256.235 464.319C256.616 464.846 257.194 465.078 257.526 464.837Z" fill="#E9A973"/>
<path d="M686.741 629.943C684.162 629.895 684.049 628.581 684.081 626.961C684.113 625.341 683.63 623.374 686.209 623.415C688.788 623.455 689.433 625.438 689.433 627.058C689.433 628.678 689.32 630.007 686.741 629.943Z" fill="#E9A973"/>
<path d="M702.031 642.661C699.54 643.298 699.347 641.299 699.371 639.687C699.395 638.075 698.92 636.093 701.499 636.141C704.078 636.189 704.046 636.947 704.021 638.559C703.997 640.171 704.03 642.153 702.031 642.661Z" fill="#E9A973"/>
<path d="M698.734 631.833C698.755 630.653 698.173 629.687 697.434 629.674C696.696 629.661 696.08 630.606 696.059 631.785C696.038 632.965 696.62 633.931 697.359 633.944C698.098 633.958 698.714 633.012 698.734 631.833Z" fill="#E9A973"/>
<path d="M699 618.434C697.525 619.482 696.912 618.789 696.26 617.862C695.607 616.935 694.511 616.025 695.986 614.977C697.46 613.929 698.645 614.775 699.298 615.702C699.951 616.629 700.475 617.395 699 618.434Z" fill="#E9A973"/>
<path d="M691.328 606.764C690.175 608.158 689.241 607.11 688.588 606.184C687.935 605.257 686.839 604.346 688.306 603.298C689.773 602.25 690.087 602.702 690.724 603.629C691.36 604.555 692.247 605.644 691.328 606.764Z" fill="#E9A973"/>
<path d="M688.95 616.87C689.375 616.568 689.331 615.777 688.851 615.101C688.372 614.426 687.639 614.123 687.215 614.425C686.79 614.726 686.834 615.518 687.314 616.193C687.793 616.868 688.526 617.171 688.95 616.87Z" fill="#E9A973"/>
<path d="M694.809 653.38C693.616 652.615 693.939 651.97 694.414 651.212C694.89 650.455 695.22 649.399 696.437 650.156C696.657 650.284 696.845 650.459 696.99 650.668C697.135 650.877 697.232 651.115 697.275 651.365C697.318 651.615 697.306 651.872 697.239 652.117C697.172 652.362 697.053 652.59 696.889 652.784C696.413 653.566 696.01 654.186 694.809 653.38Z" fill="#E9A973"/>
<path d="M689.53 640.968C688.168 640.549 688.651 639.558 689.135 638.808C689.618 638.059 689.941 636.987 691.15 637.752C692.359 638.518 692.117 638.865 691.633 639.622C691.15 640.38 690.61 641.291 689.53 640.968Z" fill="#E9A973"/>
<path d="M688.056 651.205C688.404 650.657 688.407 650.034 688.061 649.814C687.715 649.595 687.153 649.861 686.804 650.41C686.455 650.958 686.453 651.581 686.799 651.801C687.144 652.02 687.707 651.754 688.056 651.205Z" fill="#E9A973"/>
<path d="M660.967 594.013C658.549 594.819 657.985 593.602 657.485 592.063C656.985 590.523 655.873 588.839 658.347 588.033C660.821 587.227 662.047 588.895 662.546 590.451C663.046 592.006 663.425 593.215 660.967 594.013Z" fill="#E9A973"/>
<path d="M679.56 601.074C677.408 602.492 676.578 600.663 676.079 599.123C675.579 597.584 674.467 595.9 676.941 595.094C679.415 594.288 679.617 595.037 680.108 596.577C680.6 598.116 681.285 599.945 679.56 601.074Z" fill="#E9A973"/>
<path d="M672.249 594.364C672.952 594.136 673.228 593.042 672.864 591.92C672.501 590.797 671.636 590.072 670.933 590.3C670.23 590.527 669.955 591.622 670.319 592.744C670.682 593.866 671.546 594.591 672.249 594.364Z" fill="#E9A973"/>
<path d="M668.825 579.151C667.777 580.618 666.971 580.158 666.052 579.497C665.133 578.836 663.796 578.321 664.851 576.854C665.907 575.387 667.269 575.806 668.228 576.467C669.187 577.128 669.881 577.684 668.825 579.151Z" fill="#E9A973"/>
<path d="M657.775 570.6C657.146 572.293 655.921 571.607 654.995 570.947C654.068 570.286 652.746 569.77 653.802 568.303C654.858 566.836 655.285 567.159 656.22 567.819C657.155 568.48 658.283 569.246 657.775 570.6Z" fill="#E9A973"/>
<path d="M658.865 580.991C659.168 580.568 658.87 579.833 658.197 579.35C657.525 578.867 656.733 578.818 656.43 579.241C656.126 579.664 656.425 580.399 657.097 580.882C657.769 581.365 658.561 581.414 658.865 580.991Z" fill="#E9A973"/>
<path d="M676.224 613.582C674.838 613.252 674.935 612.526 675.144 611.664C675.354 610.802 675.329 609.673 676.708 610.012C676.957 610.061 677.193 610.164 677.399 610.313C677.605 610.463 677.775 610.657 677.898 610.879C678.021 611.102 678.094 611.349 678.111 611.603C678.128 611.857 678.089 612.112 677.997 612.349C677.796 613.211 677.602 613.888 676.224 613.582Z" fill="#E9A973"/>
<path d="M667.181 603.54C665.762 603.58 665.899 602.484 666.109 601.622C666.319 600.76 666.294 599.631 667.673 599.97C669.051 600.308 668.946 600.711 668.736 601.582C668.527 602.452 668.317 603.508 667.181 603.54Z" fill="#E9A973"/>
<path d="M669.189 613.733C669.341 613.101 669.141 612.512 668.743 612.416C668.345 612.32 667.899 612.755 667.747 613.387C667.596 614.019 667.795 614.609 668.194 614.704C668.592 614.8 669.038 614.365 669.189 613.733Z" fill="#E9A973"/>
<path d="M630.566 548.041C628.261 549.186 627.552 548.041 626.835 546.615C626.118 545.188 624.788 543.633 627.101 542.488C629.414 541.344 630.889 542.811 631.606 544.262C632.323 545.712 632.88 546.897 630.566 548.041Z" fill="#E9A973"/>
<path d="M649.99 552.329C648.063 554.038 646.975 552.329 646.258 550.903C645.541 549.476 644.211 547.921 646.524 546.776C648.837 545.632 649.16 546.333 649.877 547.784C650.594 549.234 651.537 550.959 649.99 552.329Z" fill="#E9A973"/>
<path d="M641.758 546.679C642.42 546.352 642.533 545.229 642.01 544.172C641.487 543.115 640.527 542.523 639.864 542.85C639.202 543.178 639.089 544.301 639.612 545.358C640.134 546.415 641.095 547.007 641.758 546.679Z" fill="#E9A973"/>
<path d="M636.183 532.196C635.377 533.808 634.491 533.462 633.483 532.938C632.476 532.414 631.065 532.132 631.912 530.52C632.758 528.908 634.184 529.126 635.192 529.641C636.199 530.157 637.013 530.584 636.183 532.196Z" fill="#E9A973"/>
<path d="M624.006 525.338C623.627 527.111 622.313 526.611 621.306 526.087C620.298 525.563 618.888 525.281 619.734 523.669C620.58 522.057 621.04 522.315 622.047 522.863C623.054 523.411 624.304 523.927 624.006 525.338Z" fill="#E9A973"/>
<path d="M626.532 535.421C626.771 534.958 626.369 534.275 625.633 533.895C624.897 533.515 624.107 533.582 623.868 534.045C623.629 534.508 624.032 535.191 624.767 535.571C625.503 535.951 626.293 535.884 626.532 535.421Z" fill="#E9A973"/>
<path d="M648.507 565.184C647.088 565.055 647.08 564.329 647.161 563.443C647.241 562.556 647.056 561.452 648.466 561.573C648.72 561.586 648.969 561.654 649.194 561.772C649.419 561.891 649.615 562.058 649.769 562.261C649.923 562.464 650.03 562.698 650.083 562.946C650.137 563.195 650.135 563.453 650.078 563.701C649.998 564.595 649.917 565.313 648.507 565.184Z" fill="#E9A973"/>
<path d="M638.102 556.561C636.707 556.811 636.675 555.706 636.756 554.82C636.836 553.933 636.651 552.829 638.069 552.958C639.488 553.087 639.432 553.506 639.351 554.393C639.27 555.279 639.222 556.359 638.102 556.561Z" fill="#E9A973"/>
<path d="M641.505 566.34C641.563 565.693 641.279 565.138 640.871 565.102C640.463 565.065 640.086 565.56 640.028 566.207C639.969 566.855 640.253 567.409 640.661 567.446C641.069 567.482 641.446 566.987 641.505 566.34Z" fill="#E9A973"/>
<path d="M590.422 514.384C588.592 516.19 587.569 515.351 586.392 514.199C585.215 513.046 583.506 512.015 585.344 510.169C587.182 508.323 589.043 509.283 590.18 510.435C591.316 511.588 592.259 512.571 590.422 514.384Z" fill="#E9A973"/>
<path d="M610.208 512.337C608.918 514.562 607.354 513.305 606.218 512.152C605.082 511 603.333 509.968 605.17 508.122C607.008 506.277 607.54 506.873 608.676 508.026C609.813 509.178 611.247 510.564 610.208 512.337Z" fill="#E9A973"/>
<path d="M600.676 509.661C601.202 509.143 600.957 508.041 600.128 507.201C599.3 506.362 598.202 506.102 597.676 506.621C597.15 507.139 597.395 508.241 598.224 509.081C599.052 509.92 600.15 510.18 600.676 509.661Z" fill="#E9A973"/>
<path d="M590.751 497.572C590.469 499.362 589.542 499.313 588.422 499.136C587.302 498.959 585.883 499.136 586.165 497.314C586.447 495.493 587.882 495.275 589.002 495.453C590.123 495.63 591.057 495.791 590.751 497.572Z" fill="#E9A973"/>
<path d="M577.051 494.897C577.252 496.694 575.842 496.629 574.721 496.452C573.601 496.275 572.183 496.452 572.473 494.631C572.763 492.809 573.279 492.938 574.407 493.115C575.535 493.293 576.906 493.454 577.051 494.897Z" fill="#E9A973"/>
<path d="M582.603 503.665C582.685 503.151 582.088 502.629 581.27 502.499C580.452 502.369 579.723 502.681 579.642 503.196C579.56 503.71 580.157 504.232 580.975 504.362C581.792 504.491 582.521 504.179 582.603 503.665Z" fill="#E9A973"/>
<path d="M612.835 525.023C611.449 525.346 611.223 524.661 611.013 523.79C610.804 522.92 610.288 521.936 611.666 521.614C611.912 521.546 612.169 521.532 612.42 521.574C612.672 521.616 612.911 521.713 613.12 521.857C613.33 522.002 613.506 522.191 613.635 522.41C613.764 522.63 613.843 522.876 613.866 523.129C614.068 523.992 614.221 524.701 612.835 525.023Z" fill="#E9A973"/>
<path d="M600.254 520.107C599.005 520.784 598.642 519.744 598.433 518.874C598.223 518.003 597.699 517.02 599.086 516.698C600.472 516.375 600.56 516.786 600.762 517.657C600.963 518.527 601.229 519.591 600.254 520.107Z" fill="#E9A973"/>
<path d="M606.149 529.688C606.548 529.594 606.751 529.006 606.603 528.373C606.455 527.74 606.011 527.303 605.613 527.396C605.214 527.489 605.011 528.078 605.159 528.711C605.307 529.343 605.75 529.781 606.149 529.688Z" fill="#E9A973"/>
<path d="M540.782 486.999C538.952 488.804 537.929 487.966 536.752 486.813C535.575 485.661 533.875 484.629 535.704 482.783C537.534 480.938 539.404 481.897 540.54 483.049C541.676 484.202 542.579 485.185 540.782 486.999Z" fill="#E9A973"/>
<path d="M560.528 484.935C559.239 487.167 557.675 485.91 556.499 484.757C555.322 483.605 553.621 482.565 555.451 480.728C557.28 478.89 557.82 479.47 558.957 480.623C560.093 481.775 561.568 483.178 560.528 484.935Z" fill="#E9A973"/>
<path d="M551.001 482.265C551.527 481.747 551.282 480.645 550.454 479.805C549.625 478.966 548.527 478.706 548.001 479.224C547.475 479.743 547.72 480.845 548.549 481.685C549.377 482.524 550.475 482.784 551.001 482.265Z" fill="#E9A973"/>
<path d="M541.096 470.186C540.814 471.975 539.887 471.919 538.767 471.741C537.647 471.564 536.228 471.741 536.51 469.92C536.793 468.098 538.235 467.881 539.355 468.058C540.476 468.235 541.378 468.405 541.096 470.186Z" fill="#E9A973"/>
<path d="M527.379 467.502C527.581 469.299 526.178 469.243 525.058 469.065C523.938 468.888 522.519 469.065 522.801 467.244C523.084 465.422 523.607 465.551 524.736 465.729C525.864 465.906 527.226 466.067 527.379 467.502Z" fill="#E9A973"/>
<path d="M532.93 476.277C533.012 475.763 532.415 475.241 531.597 475.111C530.78 474.982 530.051 475.294 529.969 475.808C529.887 476.322 530.484 476.844 531.302 476.974C532.12 477.104 532.849 476.792 532.93 476.277Z" fill="#E9A973"/>
<path d="M563.156 497.636C561.777 497.959 561.544 497.273 561.334 496.403C561.125 495.533 560.609 494.549 561.987 494.227C562.23 494.164 562.483 494.154 562.73 494.199C562.977 494.243 563.211 494.34 563.417 494.483C563.623 494.626 563.795 494.812 563.923 495.028C564.05 495.244 564.129 495.485 564.155 495.734C564.389 496.605 564.542 497.314 563.156 497.636Z" fill="#E9A973"/>
<path d="M550.575 492.72C549.325 493.397 548.963 492.358 548.753 491.487C548.543 490.617 548.028 489.634 549.406 489.303C550.784 488.973 550.881 489.4 551.082 490.262C551.284 491.125 551.574 492.188 550.575 492.72Z" fill="#E9A973"/>
<path d="M556.476 502.297C556.875 502.204 557.078 501.615 556.93 500.983C556.782 500.35 556.338 499.913 555.94 500.006C555.541 500.099 555.338 500.688 555.486 501.321C555.634 501.953 556.077 502.391 556.476 502.297Z" fill="#E9A973"/>
<path d="M487.403 474.208C485.566 476.013 484.55 475.175 483.374 474.022C482.197 472.87 480.496 471.838 482.326 469.992C484.155 468.147 486.025 469.106 487.162 470.258C488.298 471.411 489.201 472.394 487.403 474.208Z" fill="#E9A973"/>
<path d="M507.19 472.176C505.893 474.401 504.329 473.143 503.16 471.991C501.992 470.838 500.283 469.807 502.113 467.961C503.942 466.115 504.482 466.712 505.619 467.864C506.755 469.017 508.222 470.427 507.19 472.176Z" fill="#E9A973"/>
<path d="M497.655 469.474C498.181 468.955 497.936 467.854 497.108 467.014C496.28 466.174 495.182 465.914 494.656 466.433C494.13 466.952 494.375 468.053 495.203 468.893C496.031 469.733 497.129 469.993 497.655 469.474Z" fill="#E9A973"/>
<path d="M487.751 457.395C487.469 459.184 486.542 459.136 485.422 458.959C484.301 458.781 482.883 458.959 483.173 457.137C483.463 455.316 484.89 455.114 485.978 455.276C487.066 455.437 488.033 455.614 487.751 457.395Z" fill="#E9A973"/>
<path d="M474.041 454.719C474.234 456.517 472.832 456.452 471.711 456.275C470.591 456.098 469.173 456.235 469.455 454.453C469.737 452.672 470.261 452.761 471.389 452.938C472.517 453.116 473.888 453.277 474.041 454.719Z" fill="#E9A973"/>
<path d="M479.592 463.484C479.674 462.97 479.077 462.448 478.259 462.318C477.442 462.189 476.713 462.501 476.631 463.015C476.55 463.529 477.146 464.051 477.964 464.181C478.782 464.311 479.511 463.999 479.592 463.484Z" fill="#E9A973"/>
<path d="M509.809 484.846C508.431 485.168 508.198 484.483 507.988 483.613C507.778 482.742 507.263 481.759 508.649 481.437C508.894 481.37 509.15 481.357 509.401 481.4C509.651 481.442 509.889 481.539 510.098 481.684C510.307 481.828 510.481 482.016 510.61 482.236C510.738 482.455 510.817 482.699 510.841 482.952C511.043 483.814 511.196 484.523 509.809 484.846Z" fill="#E9A973"/>
<path d="M497.261 479.93C496.011 480.607 495.649 479.567 495.439 478.697C495.23 477.826 494.714 476.843 496.092 476.521C497.47 476.198 497.567 476.609 497.768 477.48C497.97 478.35 498.228 479.39 497.261 479.93Z" fill="#E9A973"/>
<path d="M503.126 489.506C503.525 489.413 503.728 488.824 503.58 488.191C503.432 487.558 502.988 487.121 502.59 487.214C502.191 487.308 501.988 487.896 502.136 488.529C502.284 489.162 502.727 489.599 503.126 489.506Z" fill="#E9A973"/>
<path d="M444.333 467.631C442.504 469.444 441.48 468.606 440.303 467.453C439.127 466.301 437.426 465.261 439.255 463.423C441.085 461.586 442.955 462.537 444.091 463.689C445.228 464.842 446.171 465.817 444.333 467.631Z" fill="#E9A973"/>
<path d="M464.119 465.592C462.83 467.817 461.266 466.559 460.09 465.407C458.913 464.254 457.204 463.223 459.042 461.377C460.879 459.531 461.411 460.128 462.548 461.28C463.684 462.433 465.159 463.811 464.119 465.592Z" fill="#E9A973"/>
<path d="M454.581 462.898C455.107 462.379 454.862 461.277 454.033 460.438C453.205 459.598 452.107 459.338 451.581 459.857C451.055 460.376 451.3 461.477 452.128 462.317C452.957 463.157 454.055 463.417 454.581 462.898Z" fill="#E9A973"/>
<path d="M444.688 450.827C444.406 452.608 443.479 452.559 442.359 452.382C441.239 452.205 439.82 452.382 440.102 450.561C440.384 448.739 441.819 448.521 442.947 448.699C444.076 448.876 444.97 449.037 444.688 450.827Z" fill="#E9A973"/>
<path d="M436.532 456.912C436.613 456.398 436.016 455.876 435.199 455.746C434.381 455.616 433.652 455.928 433.571 456.443C433.489 456.957 434.086 457.479 434.903 457.609C435.721 457.738 436.45 457.427 436.532 456.912Z" fill="#E9A973"/>
<path d="M466.747 478.269C465.369 478.591 465.135 477.906 464.925 477.044C464.716 476.181 464.2 475.182 465.578 474.86C465.824 474.791 466.081 474.778 466.332 474.82C466.584 474.862 466.823 474.958 467.033 475.103C467.242 475.247 467.418 475.436 467.547 475.656C467.676 475.876 467.755 476.121 467.778 476.375C467.98 477.237 468.133 477.947 466.747 478.269Z" fill="#E9A973"/>
<path d="M454.165 473.353C452.916 474.03 452.553 472.99 452.344 472.12C452.134 471.25 451.618 470.266 452.997 469.944C454.375 469.621 454.472 470.033 454.673 470.903C454.875 471.773 455.165 472.845 454.165 473.353Z" fill="#E9A973"/>
<path d="M460.06 482.921C460.459 482.828 460.662 482.239 460.514 481.606C460.366 480.973 459.923 480.536 459.524 480.629C459.125 480.723 458.922 481.311 459.07 481.944C459.218 482.577 459.662 483.014 460.06 482.921Z" fill="#E9A973"/>
<path d="M402.052 471.523C400.215 473.329 399.199 472.491 398.022 471.338C396.846 470.186 395.145 469.154 396.975 467.308C398.804 465.463 400.674 466.422 401.81 467.574C402.947 468.727 403.882 469.71 402.052 471.523Z" fill="#E9A973"/>
<path d="M421.839 469.484C420.541 471.717 418.978 470.46 417.809 469.307C416.64 468.155 414.932 467.115 416.761 465.277C418.591 463.44 419.131 464.02 420.267 465.173C421.403 466.325 422.87 467.703 421.839 469.484Z" fill="#E9A973"/>
<path d="M412.304 466.783C412.83 466.264 412.585 465.162 411.757 464.322C410.928 463.483 409.831 463.223 409.305 463.742C408.778 464.26 409.024 465.362 409.852 466.202C410.68 467.041 411.778 467.301 412.304 466.783Z" fill="#E9A973"/>
<path d="M402.399 454.712C402.117 456.501 401.19 456.445 400.07 456.267C398.949 456.09 397.531 456.267 397.821 454.446C398.111 452.624 399.538 452.407 400.658 452.584C401.778 452.761 402.681 452.931 402.399 454.712Z" fill="#E9A973"/>
<path d="M388.69 452.028C388.883 453.825 387.481 453.769 386.36 453.591C385.24 453.414 383.822 453.551 384.104 451.77C384.386 449.989 384.91 450.077 386.038 450.255C387.166 450.432 388.528 450.593 388.69 452.028Z" fill="#E9A973"/>
<path d="M394.246 460.803C394.328 460.288 393.731 459.766 392.913 459.637C392.095 459.507 391.366 459.819 391.285 460.333C391.203 460.848 391.8 461.37 392.618 461.499C393.436 461.629 394.164 461.317 394.246 460.803Z" fill="#E9A973"/>
<path d="M424.458 482.162C423.08 482.484 422.846 481.799 422.637 480.929C422.427 480.058 421.912 479.075 423.298 478.753C423.545 478.677 423.805 478.658 424.061 478.696C424.316 478.735 424.56 478.829 424.774 478.974C424.988 479.118 425.167 479.309 425.298 479.531C425.428 479.754 425.508 480.003 425.53 480.26C425.692 481.13 425.845 481.84 424.458 482.162Z" fill="#E9A973"/>
<path d="M411.877 477.246C410.628 477.923 410.265 476.883 410.055 476.013C409.846 475.142 409.33 474.159 410.708 473.828C412.086 473.498 412.183 473.925 412.385 474.788C412.586 475.65 412.876 476.706 411.877 477.246Z" fill="#E9A973"/>
<path d="M417.78 486.81C418.179 486.717 418.382 486.128 418.234 485.495C418.086 484.863 417.643 484.425 417.244 484.519C416.845 484.612 416.642 485.2 416.79 485.833C416.938 486.466 417.381 486.903 417.78 486.81Z" fill="#E9A973"/>
<path d="M365.575 476.964C363.746 478.777 362.722 477.939 361.545 476.787C360.369 475.634 358.668 474.603 360.498 472.757C362.327 470.911 364.197 471.87 365.333 473.023C366.47 474.175 367.413 475.159 365.575 476.964Z" fill="#E9A973"/>
<path d="M385.361 474.933C384.072 477.165 382.508 475.908 381.372 474.755C380.235 473.603 378.494 472.563 380.324 470.726C382.153 468.888 382.693 469.468 383.83 470.621C384.966 471.773 386.401 473.152 385.361 474.933Z" fill="#E9A973"/>
<path d="M375.824 472.237C376.35 471.718 376.105 470.616 375.277 469.777C374.448 468.937 373.351 468.677 372.825 469.196C372.298 469.715 372.544 470.816 373.372 471.656C374.2 472.495 375.298 472.756 375.824 472.237Z" fill="#E9A973"/>
<path d="M365.93 460.16C365.648 461.949 364.721 461.893 363.601 461.715C362.48 461.538 361.062 461.715 361.344 459.894C361.626 458.073 363.061 457.855 364.189 458.032C365.317 458.21 366.212 458.379 365.93 460.16Z" fill="#E9A973"/>
<path d="M352.188 457.476C352.389 459.273 350.987 459.217 349.859 459.039C348.73 458.862 347.328 459.039 347.61 457.218C347.892 455.396 348.416 455.525 349.544 455.703C350.673 455.88 352.059 456.041 352.188 457.476Z" fill="#E9A973"/>
<path d="M357.777 466.251C357.858 465.737 357.262 465.215 356.444 465.085C355.626 464.955 354.897 465.267 354.816 465.782C354.734 466.296 355.331 466.818 356.149 466.948C356.966 467.077 357.695 466.765 357.777 466.251Z" fill="#E9A973"/>
<path d="M387.989 487.61C386.61 487.933 386.377 487.248 386.167 486.377C385.958 485.507 385.442 484.523 386.82 484.193C387.068 484.124 387.328 484.112 387.581 484.155C387.835 484.199 388.075 484.299 388.286 484.447C388.496 484.595 388.671 484.788 388.798 485.011C388.925 485.235 389.001 485.484 389.02 485.74C389.262 486.546 389.375 487.288 387.989 487.61Z" fill="#E9A973"/>
<path d="M375.408 482.694C374.158 483.371 373.796 482.331 373.586 481.461C373.376 480.59 372.861 479.607 374.239 479.277C375.617 478.946 375.714 479.373 375.915 480.236C376.117 481.098 376.407 482.154 375.408 482.694Z" fill="#E9A973"/>
<path d="M381.295 492.254C381.694 492.161 381.897 491.572 381.749 490.939C381.601 490.306 381.157 489.869 380.759 489.962C380.36 490.056 380.157 490.644 380.305 491.277C380.453 491.91 380.896 492.347 381.295 492.254Z" fill="#E9A973"/>
<path d="M334.239 487.353C332.41 489.166 331.386 488.328 330.21 487.175C329.033 486.023 327.332 484.983 329.162 483.146C330.991 481.308 332.861 482.251 333.997 483.403C335.134 484.556 336.069 485.547 334.239 487.353Z" fill="#E9A973"/>
<path d="M354.025 485.322C352.736 487.554 351.172 486.297 350.036 485.144C348.899 483.992 347.151 482.952 348.988 481.115C350.826 479.277 351.358 479.865 352.494 481.018C353.63 482.17 355.065 483.541 354.025 485.322Z" fill="#E9A973"/>
<path d="M344.485 482.613C345.012 482.094 344.766 480.992 343.938 480.153C343.11 479.313 342.012 479.053 341.486 479.572C340.96 480.091 341.205 481.192 342.033 482.032C342.862 482.871 343.959 483.132 344.485 482.613Z" fill="#E9A973"/>
<path d="M334.593 470.548C334.311 472.329 333.384 472.281 332.264 472.104C331.144 471.926 329.725 472.104 330.008 470.282C330.29 468.461 331.724 468.243 332.853 468.42C333.981 468.598 334.876 468.759 334.593 470.548Z" fill="#E9A973"/>
<path d="M320.876 467.865C321.078 469.662 319.675 469.598 318.547 469.42C317.419 469.243 316.016 469.42 316.298 467.599C316.58 465.777 317.104 465.906 318.233 466.092C319.361 466.277 320.755 466.398 320.876 467.865Z" fill="#E9A973"/>
<path d="M326.442 476.631C326.524 476.117 325.927 475.595 325.109 475.465C324.292 475.335 323.563 475.647 323.481 476.161C323.4 476.676 323.996 477.198 324.814 477.328C325.632 477.457 326.361 477.145 326.442 476.631Z" fill="#E9A973"/>
<path d="M356.653 497.999C355.274 498.322 355.041 497.628 354.831 496.766C354.622 495.904 354.106 494.904 355.484 494.582C355.729 494.514 355.987 494.5 356.238 494.542C356.489 494.584 356.728 494.681 356.938 494.825C357.148 494.97 357.324 495.158 357.453 495.378C357.581 495.598 357.661 495.843 357.684 496.097C357.886 496.967 358.039 497.669 356.653 497.999Z" fill="#E9A973"/>
<path d="M344.072 493.075C342.823 493.752 342.46 492.713 342.251 491.85C342.041 490.988 341.525 489.988 342.903 489.666C344.282 489.344 344.378 489.755 344.58 490.625C344.781 491.496 345.071 492.535 344.072 493.075Z" fill="#E9A973"/>
<path d="M349.956 502.635C350.355 502.541 350.558 501.953 350.41 501.32C350.262 500.687 349.819 500.25 349.42 500.343C349.021 500.437 348.818 501.025 348.966 501.658C349.114 502.291 349.558 502.728 349.956 502.635Z" fill="#E9A973"/>
<path d="M303.556 502.36C301.718 504.173 300.703 503.335 299.526 502.182C298.349 501.03 296.641 499.998 298.478 498.152C300.316 496.307 302.178 497.266 303.314 498.418C304.45 499.571 305.393 500.554 303.556 502.36Z" fill="#E9A973"/>
<path d="M323.343 500.329C322.045 502.561 320.49 501.304 319.353 500.151C318.217 498.999 316.468 497.959 318.306 496.122C320.143 494.284 320.667 494.864 321.803 496.017C322.94 497.169 324.374 498.548 323.343 500.329Z" fill="#E9A973"/>
<path d="M313.804 497.626C314.33 497.107 314.085 496.006 313.256 495.166C312.428 494.326 311.33 494.066 310.804 494.585C310.278 495.104 310.523 496.206 311.351 497.045C312.18 497.885 313.278 498.145 313.804 497.626Z" fill="#E9A973"/>
<path d="M303.91 485.556C303.62 487.345 302.701 487.288 301.581 487.111C300.461 486.934 299.042 487.111 299.324 485.29C299.606 483.468 301.041 483.25 302.161 483.428C303.282 483.605 304.192 483.774 303.91 485.556Z" fill="#E9A973"/>
<path d="M290.194 482.872C290.387 484.669 288.985 484.612 287.864 484.435C286.744 484.258 285.326 484.395 285.608 482.614C285.89 480.832 286.414 480.921 287.55 481.098C288.686 481.276 290.032 481.437 290.194 482.872Z" fill="#E9A973"/>
<path d="M295.757 491.65C295.838 491.136 295.242 490.614 294.424 490.484C293.606 490.355 292.877 490.667 292.796 491.181C292.714 491.695 293.311 492.217 294.129 492.347C294.946 492.477 295.675 492.165 295.757 491.65Z" fill="#E9A973"/>
<path d="M325.97 513.007C324.584 513.329 324.358 512.644 324.148 511.774C323.939 510.903 323.415 509.92 324.801 509.589C325.047 509.522 325.304 509.51 325.554 509.553C325.805 509.595 326.044 509.692 326.253 509.836C326.463 509.981 326.638 510.169 326.767 510.388C326.897 510.607 326.977 510.851 327.002 511.105C327.203 511.975 327.348 512.684 325.97 513.007Z" fill="#E9A973"/>
<path d="M313.389 508.09C312.14 508.767 311.777 507.727 311.56 506.857C311.342 505.986 310.834 505.003 312.22 504.673C313.607 504.342 313.687 504.769 313.897 505.632C314.106 506.494 314.388 507.55 313.389 508.09Z" fill="#E9A973"/>
<path d="M319.279 517.652C319.677 517.559 319.881 516.97 319.733 516.338C319.584 515.705 319.141 515.268 318.742 515.361C318.344 515.454 318.141 516.043 318.289 516.676C318.437 517.308 318.88 517.746 319.279 517.652Z" fill="#E9A973"/>
<path d="M274.888 512.547C273.051 514.36 272.035 513.522 270.899 512.369C269.762 511.217 268.013 510.177 269.851 508.339C271.689 506.502 273.542 507.453 274.687 508.605C275.831 509.758 276.718 510.725 274.888 512.547Z" fill="#E9A973"/>
<path d="M294.674 510.516C293.377 512.741 291.821 511.483 290.685 510.331C289.549 509.178 287.8 508.147 289.629 506.301C291.459 504.455 291.999 505.052 293.135 506.204C294.272 507.357 295.706 508.727 294.674 510.516Z" fill="#E9A973"/>
<path d="M285.125 507.807C285.651 507.288 285.406 506.187 284.578 505.347C283.749 504.507 282.651 504.247 282.125 504.766C281.599 505.285 281.844 506.386 282.673 507.226C283.501 508.066 284.599 508.326 285.125 507.807Z" fill="#E9A973"/>
<path d="M275.235 495.742C274.953 497.524 274.026 497.475 272.906 497.298C271.786 497.121 270.367 497.258 270.657 495.477C270.948 493.695 272.374 493.437 273.494 493.615C274.615 493.792 275.517 493.953 275.235 495.742Z" fill="#E9A973"/>
<path d="M261.525 493.059C261.718 494.856 260.316 494.791 259.196 494.614C258.076 494.437 256.657 494.614 256.939 492.793C257.221 490.971 257.745 491.1 258.873 491.277C260.002 491.455 261.364 491.624 261.525 493.059Z" fill="#E9A973"/>
<path d="M267.092 501.831C267.174 501.316 266.577 500.794 265.759 500.665C264.942 500.535 264.213 500.847 264.131 501.361C264.05 501.876 264.646 502.398 265.464 502.527C266.282 502.657 267.011 502.345 267.092 501.831Z" fill="#E9A973"/>
<path d="M297.294 523.186C295.916 523.509 295.682 522.823 295.472 521.961C295.263 521.099 294.747 520.099 296.133 519.777C296.378 519.71 296.635 519.697 296.885 519.74C297.135 519.783 297.373 519.88 297.582 520.024C297.791 520.168 297.966 520.357 298.094 520.576C298.223 520.795 298.302 521.039 298.325 521.292C298.527 522.155 298.68 522.864 297.294 523.186Z" fill="#E9A973"/>
<path d="M284.713 518.27C283.463 518.947 283.101 517.907 282.891 517.036C282.682 516.166 282.166 515.183 283.544 514.86C284.922 514.538 285.019 514.949 285.22 515.819C285.422 516.69 285.712 517.73 284.713 518.27Z" fill="#E9A973"/>
<path d="M290.605 527.826C291.004 527.732 291.207 527.144 291.059 526.511C290.911 525.878 290.468 525.441 290.069 525.534C289.67 525.627 289.467 526.216 289.615 526.849C289.763 527.482 290.207 527.919 290.605 527.826Z" fill="#E9A973"/>
<path d="M233.752 497.701C231.922 499.514 230.899 498.676 229.762 497.524C228.626 496.371 226.877 495.331 228.715 493.494C230.552 491.656 232.414 492.599 233.55 493.752C234.687 494.904 235.59 495.895 233.752 497.701Z" fill="#E9A973"/>
<path d="M253.539 495.67C252.249 497.902 250.686 496.645 249.509 495.493C248.332 494.34 246.624 493.3 248.461 491.463C250.299 489.625 250.823 490.206 251.967 491.358C253.112 492.511 254.578 493.889 253.539 495.67Z" fill="#E9A973"/>
<path d="M243.988 492.962C244.514 492.443 244.269 491.341 243.44 490.502C242.612 489.662 241.514 489.402 240.988 489.921C240.462 490.44 240.707 491.541 241.536 492.381C242.364 493.221 243.462 493.481 243.988 492.962Z" fill="#E9A973"/>
<path d="M234.107 480.905C233.825 482.686 232.898 482.638 231.777 482.461C230.657 482.283 229.239 482.461 229.521 480.639C229.803 478.818 231.237 478.6 232.358 478.777C233.478 478.955 234.389 479.108 234.107 480.905Z" fill="#E9A973"/>
<path d="M220.39 478.213C220.591 480.01 219.181 479.954 218.06 479.776C216.94 479.599 215.522 479.736 215.812 477.947C216.102 476.158 216.618 476.262 217.746 476.44C218.874 476.617 220.236 476.778 220.39 478.213Z" fill="#E9A973"/>
<path d="M225.958 486.989C226.04 486.475 225.443 485.953 224.626 485.823C223.808 485.694 223.079 486.005 222.997 486.52C222.916 487.034 223.512 487.556 224.33 487.686C225.148 487.816 225.877 487.504 225.958 486.989Z" fill="#E9A973"/>
<path d="M256.165 508.348C254.779 508.671 254.553 507.986 254.344 507.115C254.134 506.245 253.618 505.253 254.997 504.931C255.242 504.863 255.5 504.849 255.751 504.891C256.002 504.933 256.241 505.03 256.451 505.174C256.661 505.319 256.836 505.508 256.965 505.727C257.094 505.947 257.173 506.193 257.197 506.446C257.398 507.317 257.552 508.026 256.165 508.348Z" fill="#E9A973"/>
<path d="M243.585 503.472C242.336 504.149 241.973 503.109 241.755 502.239C241.538 501.368 241.03 500.377 242.416 500.055C243.802 499.732 243.891 500.143 244.093 501.014C244.294 501.884 244.584 502.884 243.585 503.472Z" fill="#E9A973"/>
<path d="M249.475 512.982C249.874 512.889 250.077 512.3 249.929 511.667C249.781 511.034 249.338 510.597 248.939 510.69C248.541 510.784 248.337 511.372 248.485 512.005C248.633 512.638 249.077 513.075 249.475 512.982Z" fill="#E9A973"/>
<path d="M223.371 464.061C221.542 465.866 220.518 465.028 219.382 463.875C218.246 462.723 216.505 461.691 218.334 459.845C220.164 458 222.034 458.959 223.17 460.111C224.306 461.264 225.209 462.247 223.371 464.061Z" fill="#E9A973"/>
<path d="M243.157 462.03C241.868 464.254 240.304 462.997 239.128 461.844C237.951 460.692 236.242 459.66 238.08 457.815C239.917 455.969 240.449 456.565 241.586 457.718C242.722 458.87 244.189 460.241 243.157 462.03Z" fill="#E9A973"/>
<path d="M233.613 459.313C234.139 458.794 233.894 457.693 233.066 456.853C232.238 456.014 231.14 455.753 230.614 456.272C230.088 456.791 230.333 457.893 231.161 458.732C231.989 459.572 233.087 459.832 233.613 459.313Z" fill="#E9A973"/>
<path d="M215.57 453.335C215.651 452.82 215.055 452.298 214.237 452.168C213.419 452.039 212.69 452.351 212.609 452.865C212.527 453.379 213.124 453.901 213.942 454.031C214.759 454.161 215.488 453.849 215.57 453.335Z" fill="#E9A973"/>
<path d="M245.801 474.699C244.423 475.021 244.189 474.336 243.98 473.466C243.77 472.595 243.254 471.612 244.632 471.29C244.877 471.221 245.134 471.207 245.385 471.249C245.636 471.291 245.874 471.387 246.084 471.53C246.294 471.674 246.469 471.862 246.599 472.08C246.728 472.299 246.808 472.544 246.833 472.797C247.018 473.651 247.171 474.376 245.801 474.699Z" fill="#E9A973"/>
<path d="M233.204 469.783C231.955 470.46 231.592 469.42 231.383 468.55C231.173 467.679 230.649 466.696 232.036 466.374C233.422 466.051 233.511 466.462 233.712 467.333C233.914 468.203 234.204 469.243 233.204 469.783Z" fill="#E9A973"/>
<path d="M239.092 479.336C239.491 479.243 239.694 478.654 239.546 478.021C239.398 477.388 238.955 476.951 238.556 477.044C238.157 477.138 237.954 477.726 238.102 478.359C238.25 478.992 238.693 479.429 239.092 479.336Z" fill="#E9A973"/>
<path d="M725.04 672.449C727.458 671.482 728.047 672.643 728.659 674.142C729.272 675.641 730.489 677.269 728.095 678.244C725.701 679.219 724.339 677.648 723.727 676.149C723.114 674.649 722.647 673.424 725.04 672.449Z" fill="#E9A973"/>
<path d="M706.004 666.775C708.051 665.204 709.01 666.961 709.623 668.46C710.235 669.959 711.444 671.587 709.059 672.562C706.673 673.537 706.399 672.812 705.786 671.313C705.174 669.814 704.336 668.024 706.004 666.775Z" fill="#E9A973"/>
<path d="M715.378 676.919C716.062 676.641 716.257 675.529 715.812 674.437C715.367 673.344 714.452 672.684 713.768 672.963C713.083 673.241 712.889 674.353 713.334 675.445C713.778 676.538 714.694 677.198 715.378 676.919Z" fill="#E9A973"/>
<path d="M718.295 687.851C719.237 686.312 720.068 686.706 721.035 687.303C722.002 687.899 723.372 688.302 722.429 689.85C721.486 691.397 720.06 691.075 719.092 690.478C718.125 689.882 717.352 689.39 718.295 687.851Z" fill="#E9A973"/>
<path d="M729.941 695.572C730.449 693.832 731.722 694.428 732.689 695.016C733.656 695.605 735.018 696.024 734.075 697.563C733.132 699.103 732.673 698.812 731.706 698.224C730.739 697.636 729.538 696.959 729.941 695.572Z" fill="#E9A973"/>
<path d="M730.652 686.847C730.924 686.403 730.572 685.692 729.866 685.26C729.16 684.828 728.367 684.837 728.095 685.282C727.823 685.726 728.175 686.436 728.882 686.869C729.588 687.301 730.381 687.291 730.652 686.847Z" fill="#E9A973"/>
<path d="M708.422 654.058C709.824 654.284 709.784 655.009 709.639 655.887C709.494 656.766 709.598 657.886 708.196 657.652C707.944 657.621 707.703 657.535 707.488 657.401C707.273 657.266 707.09 657.086 706.952 656.873C706.813 656.661 706.723 656.421 706.688 656.17C706.652 655.918 706.672 655.663 706.745 655.42C706.858 654.541 706.987 653.824 708.422 654.058Z" fill="#E9A973"/>
<path d="M718.141 663.406C719.551 663.261 719.503 664.366 719.358 665.244C719.213 666.123 719.318 667.235 717.915 667.009C716.513 666.783 716.594 666.364 716.739 665.478C716.884 664.591 717.013 663.527 718.141 663.406Z" fill="#E9A973"/>
<path d="M716.919 653.648C717.024 653.007 716.781 652.433 716.377 652.367C715.973 652.301 715.56 652.767 715.456 653.409C715.351 654.05 715.593 654.623 715.997 654.69C716.402 654.756 716.814 654.289 716.919 653.648Z" fill="#E9A973"/>
<path d="M551.953 649.124C556.087 647.746 557.006 649.777 557.869 652.348C558.731 654.919 560.609 657.813 556.482 659.191C552.356 660.569 550.212 657.78 549.35 655.161C548.487 652.542 547.826 650.503 551.953 649.124Z" fill="#F2D2C4"/>
<path d="M522.93 649.213C526.557 646.795 527.983 649.866 528.846 652.437C529.708 655.008 531.586 657.902 527.459 659.28C523.333 660.658 522.946 659.425 522.076 656.862C521.205 654.299 520.036 651.148 522.93 649.213Z" fill="#F2D2C4"/>
<path d="M538.681 663.214C539.868 662.818 540.318 660.963 539.686 659.072C539.055 657.18 537.581 655.968 536.395 656.364C535.208 656.76 534.758 658.614 535.39 660.506C536.021 662.397 537.495 663.61 538.681 663.214Z" fill="#F2D2C4"/>
<path d="M545.489 675.585C547.246 673.086 548.616 673.852 550.18 674.956C551.743 676.06 554 676.898 552.243 679.397C550.486 681.895 548.116 681.21 546.553 680.106C544.989 679.002 543.732 678.075 545.489 675.585Z" fill="#F2D2C4"/>
<path d="M558.151 681.589C559.191 678.712 561.27 679.857 562.834 680.961C564.397 682.065 566.654 682.903 564.897 685.402C563.14 687.9 562.407 687.352 560.867 686.248C559.328 685.144 557.321 683.919 558.151 681.589Z" fill="#F2D2C4"/>
<path d="M561.054 671.25C561.559 670.533 561.042 669.299 559.899 668.495C558.756 667.69 557.421 667.618 556.916 668.335C556.411 669.052 556.928 670.286 558.07 671.091C559.213 671.896 560.549 671.967 561.054 671.25Z" fill="#F2D2C4"/>
<path d="M534.262 622.753C536.599 623.293 536.454 624.51 536.116 625.977C535.777 627.444 535.834 629.338 533.496 628.798C531.159 628.258 530.95 626.34 531.288 624.865C531.627 623.39 531.917 622.189 534.262 622.753Z" fill="#F2D2C4"/>
<path d="M533.634 633.731C536.051 633.634 535.818 635.488 535.479 636.955C535.141 638.421 535.197 640.315 532.86 639.775C530.522 639.235 530.7 638.542 531.03 637.075C531.361 635.609 531.715 633.811 533.634 633.731Z" fill="#F2D2C4"/>
<path d="M543.655 631.097C543.902 630.026 543.557 629.031 542.884 628.877C542.212 628.722 541.467 629.465 541.22 630.536C540.973 631.608 541.318 632.602 541.991 632.756C542.663 632.911 543.408 632.168 543.655 631.097Z" fill="#F2D2C4"/>
<path d="M540.984 590.806C542.821 586.864 544.925 587.582 547.431 588.742C549.938 589.903 553.283 590.507 551.461 594.457C549.64 598.406 546.134 598.043 543.659 596.874C541.185 595.706 539.17 594.755 540.984 590.806Z" fill="#F2D2C4"/>
<path d="M521.085 611.93C521.818 607.642 525.026 608.706 527.532 609.867C530.039 611.027 533.384 611.64 531.562 615.581C529.741 619.522 528.556 618.958 526.073 617.805C523.591 616.653 520.496 615.363 521.085 611.93Z" fill="#F2D2C4"/>
<path d="M542.04 610.097C542.568 608.963 541.531 607.361 539.724 606.519C537.916 605.676 536.023 605.912 535.494 607.046C534.966 608.18 536.003 609.782 537.81 610.624C539.618 611.466 541.511 611.23 542.04 610.097Z" fill="#F2D2C4"/>
<path d="M555.741 613.695C555.136 610.705 556.627 610.237 558.505 609.859C560.383 609.48 562.535 608.424 563.148 611.414C563.76 614.404 561.632 615.653 559.755 616.032C557.877 616.411 556.345 616.685 555.741 613.695Z" fill="#F2D2C4"/>
<path d="M568.83 608.657C567.46 605.925 569.717 605.2 571.595 604.821C573.473 604.442 575.625 603.386 576.237 606.376C576.85 609.367 575.947 609.536 574.061 609.915C572.175 610.293 569.926 610.841 568.83 608.657Z" fill="#F2D2C4"/>
<path d="M561.147 601.518C562.517 601.243 563.488 600.322 563.315 599.463C563.142 598.603 561.891 598.13 560.521 598.405C559.15 598.681 558.18 599.602 558.353 600.461C558.526 601.321 559.777 601.794 561.147 601.518Z" fill="#F2D2C4"/>
<path d="M509.657 585.494C511.656 584.164 512.437 585.115 513.267 586.364C514.098 587.614 515.508 588.879 513.509 590.209C511.51 591.539 509.979 590.362 509.141 589.105C508.303 587.847 507.658 586.816 509.657 585.494Z" fill="#F2D2C4"/>
<path d="M517.2 593.522C518.812 591.716 519.98 593.143 520.811 594.392C521.641 595.641 523.059 596.907 521.06 598.236C519.062 599.566 518.643 598.954 517.837 597.705C517.031 596.455 515.943 594.964 517.2 593.522Z" fill="#F2D2C4"/>
<path d="M522.295 586.779C522.87 586.398 522.843 585.346 522.235 584.43C521.627 583.514 520.668 583.081 520.094 583.462C519.519 583.844 519.546 584.895 520.154 585.812C520.761 586.728 521.72 587.161 522.295 586.779Z" fill="#F2D2C4"/>
<path d="M495.277 607.44C499.307 605.828 500.355 607.763 501.395 610.293C502.434 612.824 504.514 615.5 500.484 617.176C496.454 618.853 494.141 616.185 493.109 613.654C492.078 611.124 491.248 609.052 495.277 607.44Z" fill="#F2D2C4"/>
<path d="M466.32 609.391C469.777 606.739 471.405 609.713 472.437 612.244C473.469 614.775 475.532 617.515 471.502 619.159C467.472 620.803 466.997 619.594 465.965 617.064C464.934 614.533 463.555 611.511 466.32 609.391Z" fill="#F2D2C4"/>
<path d="M482.948 622.273C484.106 621.8 484.434 619.92 483.68 618.074C482.927 616.228 481.377 615.114 480.219 615.587C479.061 616.06 478.733 617.94 479.487 619.786C480.241 621.632 481.791 622.746 482.948 622.273Z" fill="#F2D2C4"/>
<path d="M490.554 634.23C492.166 631.619 493.552 632.296 495.188 633.296C496.825 634.295 499.13 634.988 497.542 637.591C495.954 640.195 493.512 639.671 491.9 638.671C490.288 637.672 488.966 636.834 490.554 634.23Z" fill="#F2D2C4"/>
<path d="M503.579 639.429C504.385 636.495 506.577 637.494 508.213 638.494C509.849 639.493 512.154 640.186 510.567 642.79C508.979 645.393 508.205 644.901 506.537 643.902C504.868 642.902 502.902 641.774 503.579 639.429Z" fill="#F2D2C4"/>
<path d="M505.828 628.931C506.285 628.182 505.688 626.985 504.496 626.256C503.303 625.528 501.965 625.544 501.508 626.292C501.051 627.04 501.648 628.238 502.84 628.966C504.033 629.695 505.37 629.679 505.828 628.931Z" fill="#F2D2C4"/>
<path d="M475.903 582.222C478.272 582.609 478.2 583.834 477.958 585.325C477.716 586.816 477.894 588.686 475.54 588.307C473.187 587.928 472.84 586.018 473.122 584.527C473.404 583.036 473.533 581.843 475.903 582.222Z" fill="#F2D2C4"/>
<path d="M475.983 593.24C478.401 592.99 478.28 594.851 478.039 596.342C477.797 597.833 477.982 599.703 475.621 599.324C473.259 598.946 473.38 598.236 473.622 596.745C473.864 595.254 474.081 593.441 475.983 593.24Z" fill="#F2D2C4"/>
<path d="M485.855 589.98C486.032 588.895 485.623 587.926 484.942 587.815C484.261 587.704 483.565 588.494 483.389 589.579C483.213 590.665 483.622 591.634 484.303 591.745C484.984 591.855 485.679 591.065 485.855 589.98Z" fill="#F2D2C4"/>
<path d="M428.448 611.543C425.676 608.19 427.231 606.594 429.343 604.853C431.454 603.112 433.453 600.332 436.226 603.685C438.998 607.037 437.169 610.044 435.065 611.744C432.961 613.445 431.221 614.896 428.448 611.543Z" fill="#F2D2C4"/>
<path d="M438.973 638.583C435.419 636.077 437.764 633.643 439.876 631.902C441.988 630.161 443.978 627.372 446.759 630.733C449.539 634.094 448.508 634.9 446.404 636.641C444.301 638.382 441.826 640.59 438.973 638.583Z" fill="#F2D2C4"/>
<path d="M445.059 621.246C446.594 619.969 447.19 618.154 446.389 617.191C445.589 616.228 443.695 616.482 442.16 617.758C440.624 619.034 440.028 620.85 440.829 621.813C441.629 622.776 443.523 622.522 445.059 621.246Z" fill="#F2D2C4"/>
<path d="M455.455 608.045C452.489 607.303 452.715 605.756 453.174 603.902C453.634 602.049 453.617 599.639 456.575 600.38C459.533 601.122 459.751 603.604 459.291 605.434C458.832 607.263 458.413 608.786 455.455 608.045Z" fill="#F2D2C4"/>
<path d="M456.527 594.07C453.472 594.126 453.786 591.781 454.254 589.919C454.721 588.058 454.689 585.656 457.655 586.397C460.621 587.139 460.379 588.009 459.912 589.879C459.444 591.749 458.969 594.014 456.527 594.07Z" fill="#F2D2C4"/>
<path d="M446.756 597.922C447.096 596.566 446.681 595.294 445.831 595.081C444.98 594.868 444.015 595.794 443.676 597.15C443.336 598.506 443.751 599.778 444.601 599.991C445.452 600.204 446.417 599.277 446.756 597.922Z" fill="#F2D2C4"/>
<path d="M410.216 637.551C409.878 635.133 411.022 634.875 412.554 634.666C414.085 634.456 415.778 633.715 416.124 636.092C416.471 638.47 414.746 639.316 413.255 639.566C411.764 639.816 410.531 639.921 410.216 637.551Z" fill="#F2D2C4"/>
<path d="M420.694 634.182C419.743 631.982 421.548 631.507 423.039 631.297C424.53 631.088 426.263 630.354 426.61 632.724C426.956 635.093 426.239 635.19 424.748 635.399C423.257 635.609 421.443 635.939 420.694 634.182Z" fill="#F2D2C4"/>
<path d="M414.977 628.201C416.065 628.045 416.868 627.365 416.771 626.682C416.673 625.999 415.712 625.572 414.624 625.727C413.535 625.883 412.732 626.562 412.829 627.245C412.927 627.928 413.889 628.356 414.977 628.201Z" fill="#F2D2C4"/>
<path d="M404.051 675.995C401.279 672.642 402.842 671.055 404.946 669.314C407.049 667.573 409.056 664.784 411.829 668.145C414.601 671.506 412.78 674.496 410.668 676.205C408.557 677.913 406.824 679.356 404.051 675.995Z" fill="#F2D2C4"/>
<path d="M414.585 703.044C411.023 700.537 413.368 698.095 415.48 696.354C417.592 694.613 419.59 691.833 422.363 695.186C425.135 698.538 424.12 699.352 422.008 701.093C419.897 702.834 417.471 705.051 414.585 703.044Z" fill="#F2D2C4"/>
<path d="M420.576 687.357C422.113 686.086 422.713 684.275 421.916 683.311C421.12 682.346 419.228 682.595 417.691 683.865C416.153 685.135 415.553 686.947 416.35 687.911C417.147 688.875 419.039 688.627 420.576 687.357Z" fill="#F2D2C4"/>
<path d="M431.059 672.506C428.093 671.765 428.319 670.217 428.786 668.355C429.254 666.494 429.221 664.092 432.187 664.833C435.153 665.575 435.363 668.057 434.895 669.887C434.428 671.716 434.017 673.248 431.059 672.506Z" fill="#F2D2C4"/>
<path d="M432.131 658.522C429.084 658.587 429.391 656.233 429.858 654.371C430.325 652.51 430.293 650.108 433.259 650.849C436.225 651.591 435.983 652.461 435.516 654.331C435.048 656.201 434.573 658.474 432.131 658.522Z" fill="#F2D2C4"/>
<path d="M422.368 662.385C422.708 661.029 422.293 659.757 421.443 659.544C420.592 659.331 419.627 660.258 419.288 661.613C418.948 662.969 419.362 664.241 420.213 664.454C421.064 664.667 422.028 663.741 422.368 662.385Z" fill="#F2D2C4"/>
<path d="M385.797 702.004C385.458 699.634 386.602 699.336 388.134 699.118C389.665 698.901 391.358 698.175 391.712 700.545C392.067 702.914 390.326 703.809 388.835 704.019C387.344 704.228 386.135 704.381 385.797 702.004Z" fill="#F2D2C4"/>
<path d="M396.29 698.635C395.331 696.435 397.096 695.968 398.627 695.75C400.158 695.532 401.851 694.807 402.198 697.185C402.544 699.562 401.827 699.603 400.336 699.86C398.845 700.118 397.047 700.4 396.29 698.635Z" fill="#F2D2C4"/>
<path d="M390.585 692.66C391.673 692.504 392.476 691.824 392.379 691.141C392.281 690.458 391.32 690.031 390.231 690.186C389.143 690.342 388.34 691.021 388.437 691.704C388.535 692.387 389.496 692.815 390.585 692.66Z" fill="#F2D2C4"/>
<path d="M435.202 711.611C436.54 707.468 438.724 707.936 441.319 708.774C443.914 709.612 447.348 709.814 446.002 713.956C444.656 718.099 441.166 718.163 438.547 717.325C435.927 716.487 433.864 715.754 435.202 711.611Z" fill="#F2D2C4"/>
<path d="M418.035 735.007C418.245 730.655 421.557 731.332 424.16 732.179C426.764 733.025 430.181 733.218 428.843 737.353C427.505 741.487 426.272 741.076 423.669 740.23C421.066 739.384 417.874 738.489 418.035 735.007Z" fill="#F2D2C4"/>
<path d="M438.642 730.642C439.028 729.453 437.803 727.989 435.906 727.374C434.01 726.758 432.159 727.224 431.773 728.413C431.387 729.603 432.611 731.066 434.508 731.682C436.405 732.298 438.255 731.832 438.642 730.642Z" fill="#F2D2C4"/>
<path d="M452.651 732.525C451.684 729.624 453.11 728.979 454.932 728.375C456.753 727.77 458.76 726.457 459.727 729.358C460.694 732.259 458.736 733.751 456.914 734.355C455.093 734.959 453.61 735.419 452.651 732.525Z" fill="#F2D2C4"/>
<path d="M465.023 725.917C463.33 723.378 465.482 722.378 467.304 721.774C469.125 721.169 471.14 719.856 472.099 722.749C473.058 725.642 472.196 725.917 470.374 726.521C468.553 727.125 466.377 727.956 465.023 725.917Z" fill="#F2D2C4"/>
<path d="M458.281 717.768C459.608 717.321 460.457 716.283 460.177 715.45C459.896 714.617 458.592 714.304 457.265 714.752C455.937 715.199 455.088 716.237 455.368 717.07C455.649 717.903 456.953 718.216 458.281 717.768Z" fill="#F2D2C4"/>
<path d="M403.463 710.16C405.285 708.596 406.179 709.442 407.154 710.587C408.13 711.731 409.693 712.811 407.872 714.367C406.05 715.922 404.382 714.955 403.399 713.811C402.415 712.666 401.642 711.723 403.463 710.16Z" fill="#F2D2C4"/>
<path d="M411.934 717.204C413.28 715.221 414.65 716.487 415.625 717.631C416.6 718.776 418.164 719.856 416.342 721.411C414.521 722.967 414.061 722.419 413.118 721.282C412.175 720.146 410.862 718.792 411.934 717.204Z" fill="#F2D2C4"/>
<path d="M416.169 709.932C416.693 709.484 416.538 708.443 415.823 707.608C415.108 706.773 414.103 706.46 413.579 706.909C413.055 707.357 413.21 708.398 413.925 709.233C414.641 710.068 415.645 710.381 416.169 709.932Z" fill="#F2D2C4"/>
<path d="M356.71 671.684C358.193 669.064 359.853 669.886 361.803 671.071C363.754 672.256 366.421 673.167 364.938 675.786C363.455 678.405 360.699 677.664 358.749 676.479C356.798 675.294 355.235 674.335 356.71 671.684Z" fill="#F2D2C4"/>
<path d="M340.84 684.337C341.444 681.315 343.975 682.54 345.926 683.724C347.876 684.909 350.544 685.82 349.069 688.439C347.594 691.059 346.651 690.486 344.708 689.302C342.766 688.117 340.348 686.755 340.84 684.337Z" fill="#F2D2C4"/>
<path d="M357.404 685.908C357.861 685.175 357.085 683.867 355.671 682.987C354.258 682.108 352.743 681.989 352.286 682.722C351.83 683.455 352.606 684.762 354.019 685.642C355.432 686.522 356.948 686.641 357.404 685.908Z" fill="#F2D2C4"/>
<path d="M368.235 690.406C367.775 688.141 368.96 687.988 370.451 687.988C371.942 687.988 373.675 687.496 374.11 689.761C374.545 692.026 372.877 692.646 371.394 692.662C369.911 692.679 368.686 692.671 368.235 690.406Z" fill="#F2D2C4"/>
<path d="M378.616 688.544C377.552 686.368 379.341 686.127 380.832 686.127C382.323 686.127 384.056 685.635 384.491 687.9C384.927 690.164 384.242 690.156 382.75 690.173C381.259 690.189 379.47 690.285 378.616 688.544Z" fill="#F2D2C4"/>
<path d="M374.3 681.241C374.36 680.599 373.524 679.996 372.434 679.894C371.344 679.793 370.412 680.232 370.352 680.874C370.292 681.517 371.128 682.12 372.218 682.222C373.308 682.323 374.24 681.884 374.3 681.241Z" fill="#F2D2C4"/>
<path d="M331.975 663.487C333.587 662.794 334.175 663.592 334.82 664.624C335.464 665.655 336.577 666.768 334.989 667.453C333.401 668.138 332.192 667.082 331.539 666.05C330.887 665.019 330.379 664.181 331.975 663.487Z" fill="#F2D2C4"/>
<path d="M337.89 670.378C339.147 669.282 340.09 670.491 340.735 671.514C341.38 672.538 342.492 673.658 340.904 674.351C339.317 675.045 339.018 674.545 338.366 673.545C337.713 672.546 336.875 671.257 337.89 670.378Z" fill="#F2D2C4"/>
<path d="M342.054 666.099C342.449 665.81 342.342 664.99 341.815 664.268C341.287 663.545 340.539 663.193 340.143 663.482C339.748 663.771 339.855 664.591 340.382 665.313C340.91 666.036 341.658 666.388 342.054 666.099Z" fill="#F2D2C4"/>
<path d="M307.208 640.292C309.15 638.801 310.133 639.945 311.237 641.46C312.342 642.976 314.026 644.507 312.043 645.99C310.061 647.473 308.271 646.038 307.208 644.531C306.144 643.024 305.265 641.783 307.208 640.292Z" fill="#F2D2C4"/>
<path d="M291.282 644.684C292.708 642.613 294.207 644.346 295.311 645.853C296.416 647.36 298.092 648.899 296.117 650.382C294.143 651.865 293.699 651.148 292.579 649.641C291.459 648.134 290.129 646.344 291.282 644.684Z" fill="#F2D2C4"/>
<path d="M303.182 651.181C303.758 650.778 303.597 649.552 302.821 648.443C302.046 647.334 300.95 646.762 300.374 647.165C299.797 647.568 299.959 648.794 300.734 649.903C301.51 651.012 302.606 651.584 303.182 651.181Z" fill="#F2D2C4"/>
<path d="M309.842 657.982C310.229 656.144 311.156 656.418 312.26 656.886C313.365 657.353 314.807 657.539 314.428 659.384C314.05 661.23 312.591 661.149 311.471 660.682C310.35 660.215 309.472 659.828 309.842 657.982Z" fill="#F2D2C4"/>
<path d="M318.208 659.909C318.112 657.934 319.522 658.345 320.626 658.812C321.73 659.28 323.173 659.465 322.794 661.311C322.415 663.157 321.884 662.923 320.763 662.455C319.643 661.988 318.289 661.48 318.208 659.909Z" fill="#F2D2C4"/>
<path d="M317.328 653.085C317.578 652.623 317.147 651.905 316.364 651.481C315.581 651.057 314.744 651.088 314.493 651.549C314.243 652.011 314.675 652.729 315.458 653.153C316.241 653.577 317.078 653.547 317.328 653.085Z" fill="#F2D2C4"/>
<path d="M291.314 626.252C292.724 626.252 292.926 627.058 293.087 628.009C293.248 628.96 293.716 630.177 292.281 630.185C290.847 630.193 290.307 629.008 290.153 628.033C290 627.058 289.904 626.26 291.314 626.252Z" fill="#F2D2C4"/>
<path d="M293.538 633.296C294.836 632.877 295.15 634.102 295.311 635.061C295.472 636.02 295.94 637.229 294.505 637.237C293.071 637.245 293.03 636.778 292.893 635.803C292.756 634.827 292.547 633.635 293.538 633.296Z" fill="#F2D2C4"/>
<path d="M298.017 631.45C298.403 631.361 298.583 630.716 298.42 630.009C298.257 629.302 297.811 628.801 297.425 628.89C297.039 628.979 296.859 629.624 297.022 630.331C297.185 631.038 297.631 631.539 298.017 631.45Z" fill="#F2D2C4"/>
<path d="M271.326 628.251C269.617 628.936 269.142 627.904 268.666 626.639C268.191 625.374 267.272 623.875 268.981 623.198C270.689 622.521 271.713 623.923 272.205 625.237C272.696 626.55 273.027 627.59 271.326 628.251Z" fill="#F2D2C4"/>
<path d="M283.681 628.315C282.23 629.524 281.497 627.969 281.021 626.663C280.546 625.357 279.635 623.899 281.343 623.222C283.052 622.545 283.262 623.165 283.761 624.479C284.261 625.793 284.874 627.356 283.681 628.315Z" fill="#F2D2C4"/>
<path d="M277.653 624.679C278.153 624.504 278.287 623.586 277.952 622.628C277.618 621.67 276.941 621.035 276.441 621.209C275.941 621.384 275.807 622.302 276.141 623.26C276.476 624.218 277.153 624.854 277.653 624.679Z" fill="#F2D2C4"/>
<path d="M273.01 614.944C272.366 616.193 271.753 615.807 271.036 615.242C270.318 614.678 269.327 614.251 269.98 612.994C270.633 611.737 271.664 612.099 272.398 612.663C273.131 613.228 273.663 613.695 273.01 614.944Z" fill="#F2D2C4"/>
<path d="M267.37 611.85C267.039 613.292 266.104 612.712 265.387 612.156C264.67 611.6 263.678 611.156 264.331 609.907C264.984 608.658 265.314 608.932 266.032 609.488C266.749 610.044 267.627 610.665 267.37 611.85Z" fill="#F2D2C4"/>
<path d="M268.344 618.621C268.617 618.34 268.45 617.735 267.971 617.27C267.492 616.805 266.882 616.655 266.609 616.936C266.336 617.218 266.504 617.822 266.983 618.288C267.462 618.753 268.071 618.902 268.344 618.621Z" fill="#F2D2C4"/>
<path d="M279.942 641.621C278.926 641.347 278.942 640.735 279.023 640.009C279.103 639.284 279.023 638.317 280.03 638.599C280.431 638.731 280.766 639.01 280.97 639.379C281.173 639.748 281.229 640.181 281.126 640.59C281.046 641.291 280.965 641.903 279.942 641.621Z" fill="#F2D2C4"/>
<path d="M279.773 636.084C278.749 636.124 278.765 635.189 278.854 634.472C278.943 633.755 278.854 632.779 279.853 633.062C280.853 633.344 280.828 633.69 280.748 634.432C280.667 635.173 280.587 636.052 279.773 636.084Z" fill="#F2D2C4"/>
<path d="M276.635 637.523C276.661 636.981 276.44 636.53 276.142 636.515C275.845 636.501 275.582 636.93 275.556 637.472C275.531 638.014 275.751 638.466 276.049 638.48C276.347 638.494 276.609 638.066 276.635 637.523Z" fill="#F2D2C4"/>
<path d="M391.39 649.205C389.681 649.882 389.205 648.859 388.73 647.545C388.254 646.231 387.336 644.781 389.044 644.104C390.753 643.427 391.776 644.837 392.268 646.143C392.76 647.448 393.098 648.545 391.39 649.205Z" fill="#F2D2C4"/>
<path d="M403.77 649.27C402.319 650.47 401.585 648.923 401.11 647.609C400.634 646.296 399.724 644.845 401.432 644.168C403.141 643.491 403.35 644.111 403.85 645.425C404.35 646.739 404.938 648.302 403.77 649.27Z" fill="#F2D2C4"/>
<path d="M397.719 645.635C398.219 645.461 398.353 644.542 398.018 643.584C397.684 642.626 397.007 641.991 396.507 642.166C396.007 642.34 395.873 643.259 396.207 644.217C396.542 645.175 397.219 645.81 397.719 645.635Z" fill="#F2D2C4"/>
<path d="M393.082 635.891C392.43 637.148 391.817 636.753 391.1 636.189C390.382 635.625 389.391 635.198 390.044 633.948C390.697 632.699 391.728 633.046 392.462 633.61C393.195 634.174 393.727 634.642 393.082 635.891Z" fill="#F2D2C4"/>
<path d="M387.432 632.804C387.102 634.247 386.167 633.667 385.449 633.102C384.732 632.538 383.741 632.111 384.394 630.854C385.046 629.596 385.377 629.879 386.094 630.443C386.811 631.007 387.69 631.619 387.432 632.804Z" fill="#F2D2C4"/>
<path d="M388.397 639.564C388.67 639.283 388.503 638.678 388.024 638.213C387.545 637.748 386.935 637.598 386.663 637.879C386.39 638.16 386.557 638.765 387.036 639.23C387.515 639.696 388.124 639.845 388.397 639.564Z" fill="#F2D2C4"/>
<path d="M400.006 662.577C398.99 662.295 399.006 661.682 399.087 660.965C399.167 660.248 399.087 659.28 400.094 659.554C400.495 659.686 400.83 659.965 401.034 660.334C401.237 660.704 401.293 661.136 401.19 661.545C401.11 662.246 401.029 662.859 400.006 662.577Z" fill="#F2D2C4"/>
<path d="M399.837 657.031C398.813 657.071 398.829 656.137 398.918 655.419C399.006 654.702 398.918 653.727 399.917 654.009C400.917 654.291 400.892 654.637 400.812 655.371C400.731 656.104 400.651 656.999 399.837 657.031Z" fill="#F2D2C4"/>
<path d="M396.707 658.471C396.733 657.928 396.512 657.477 396.214 657.463C395.916 657.449 395.654 657.877 395.628 658.42C395.602 658.962 395.823 659.413 396.121 659.427C396.419 659.442 396.681 659.013 396.707 658.471Z" fill="#F2D2C4"/>
<path d="M411.619 610.705C412.651 612.22 411.756 612.905 410.579 613.654C409.403 614.404 408.161 615.613 407.146 614.09C406.13 612.566 407.267 611.261 408.444 610.519C409.62 609.778 410.587 609.181 411.619 610.705Z" fill="#F2D2C4"/>
<path d="M409 598.575C410.491 599.728 409.137 600.783 407.96 601.525C406.783 602.266 405.542 603.483 404.527 601.968C403.511 600.453 404.059 600.098 405.236 599.349C406.413 598.599 407.799 597.664 409 598.575Z" fill="#F2D2C4"/>
<path d="M405.716 607.064C406.579 606.529 407.052 605.731 406.773 605.281C406.494 604.831 405.569 604.898 404.706 605.433C403.843 605.967 403.37 606.765 403.648 607.215C403.927 607.666 404.853 607.598 405.716 607.064Z" fill="#F2D2C4"/>
<path d="M398.264 611.93C399.626 612.3 399.377 612.977 398.982 613.8C398.587 614.622 398.377 615.685 397.015 615.323C395.653 614.96 395.774 613.864 396.209 613.05C396.644 612.236 396.894 611.567 398.264 611.93Z" fill="#F2D2C4"/>
<path d="M396.467 618.119C397.95 618.119 397.579 619.167 397.185 619.981C396.79 620.795 396.588 621.867 395.226 621.504C393.864 621.142 394.057 620.755 394.42 619.933C394.783 619.111 395.282 618.111 396.467 618.119Z" fill="#F2D2C4"/>
<path d="M402.84 617.059C403.191 616.491 403.204 615.863 402.871 615.658C402.538 615.452 401.983 615.746 401.633 616.315C401.283 616.883 401.269 617.51 401.602 617.716C401.936 617.921 402.49 617.627 402.84 617.059Z" fill="#F2D2C4"/>
<path d="M422.806 599.381C422.758 600.437 422.153 600.558 421.412 600.63C420.67 600.703 419.8 601.017 419.8 599.953C419.842 599.534 420.042 599.146 420.359 598.868C420.676 598.59 421.087 598.442 421.508 598.454C422.258 598.382 422.862 598.333 422.806 599.381Z" fill="#F2D2C4"/>
<path d="M417.47 600.759C417.728 601.743 416.81 601.936 416.076 602.009C415.343 602.081 414.424 602.387 414.464 601.332C414.504 600.276 414.867 600.243 415.609 600.171C416.35 600.098 417.229 599.969 417.47 600.759Z" fill="#F2D2C4"/>
<path d="M419.712 604.545C420.247 604.453 420.64 604.14 420.589 603.846C420.538 603.552 420.063 603.388 419.528 603.481C418.993 603.573 418.6 603.886 418.651 604.18C418.702 604.474 419.177 604.637 419.712 604.545Z" fill="#F2D2C4"/>
<path d="M249.686 595.062C251.185 594.006 251.886 594.9 252.652 596.061C253.417 597.222 254.642 598.479 253.135 599.486C251.628 600.494 250.306 599.406 249.541 598.237C248.775 597.068 248.219 596.158 249.686 595.062Z" fill="#F2D2C4"/>
<path d="M237.604 597.849C238.741 596.342 239.813 597.68 240.578 598.849C241.344 600.017 242.561 601.218 241.062 602.274C239.563 603.33 239.2 602.766 238.434 601.597C237.669 600.428 236.702 599.05 237.604 597.849Z" fill="#F2D2C4"/>
<path d="M246.313 603.106C246.76 602.821 246.679 601.896 246.134 601.041C245.588 600.185 244.784 599.722 244.337 600.007C243.89 600.292 243.971 601.217 244.516 602.072C245.062 602.928 245.867 603.391 246.313 603.106Z" fill="#F2D2C4"/>
<path d="M251.096 608.408C251.443 607.038 252.128 607.28 252.95 607.658C253.772 608.037 254.844 608.239 254.498 609.601C254.151 610.963 253.063 610.866 252.241 610.479C251.419 610.092 250.75 609.77 251.096 608.408Z" fill="#F2D2C4"/>
<path d="M257.302 610.117C257.302 608.634 258.334 608.988 259.156 609.367C259.978 609.746 261.05 609.947 260.703 611.31C260.357 612.672 259.97 612.486 259.148 612.116C258.326 611.745 257.31 611.301 257.302 610.117Z" fill="#F2D2C4"/>
<path d="M256.864 604.986C257.065 604.65 256.763 604.099 256.19 603.757C255.617 603.414 254.99 603.409 254.789 603.745C254.588 604.081 254.889 604.631 255.462 604.974C256.035 605.317 256.663 605.322 256.864 604.986Z" fill="#F2D2C4"/>
<path d="M238.217 584.068C239.273 584.108 239.402 584.712 239.49 585.446C239.579 586.179 239.893 587.058 238.838 587.058C238.417 587.021 238.026 586.827 237.742 586.515C237.458 586.203 237.303 585.795 237.306 585.373C237.218 584.591 237.161 583.995 238.217 584.068Z" fill="#F2D2C4"/>
<path d="M239.66 589.387C240.643 589.113 240.844 590.023 240.933 590.765C241.022 591.506 241.336 592.377 240.28 592.377C239.224 592.377 239.184 591.982 239.095 591.249C239.007 590.515 238.878 589.604 239.66 589.387Z" fill="#F2D2C4"/>
<path d="M243.077 588.142C243.37 588.087 243.527 587.61 243.427 587.076C243.328 586.542 243.01 586.154 242.716 586.209C242.423 586.263 242.266 586.74 242.366 587.274C242.465 587.808 242.784 588.197 243.077 588.142Z" fill="#F2D2C4"/>
<path d="M225.652 577.234C227.159 576.186 227.852 577.072 228.618 578.241C229.383 579.41 230.609 580.611 229.101 581.666C227.594 582.722 226.272 581.578 225.507 580.417C224.741 579.257 224.121 578.289 225.652 577.234Z" fill="#F2D2C4"/>
<path d="M213.563 580.037C214.691 578.53 215.763 579.868 216.529 581.037C217.294 582.205 218.519 583.406 217.012 584.462C215.505 585.518 215.15 584.954 214.385 583.793C213.619 582.633 212.644 581.222 213.563 580.037Z" fill="#F2D2C4"/>
<path d="M222.262 585.28C222.709 584.995 222.628 584.071 222.082 583.215C221.537 582.359 220.732 581.897 220.286 582.182C219.839 582.466 219.919 583.391 220.465 584.247C221.011 585.102 221.815 585.565 222.262 585.28Z" fill="#F2D2C4"/>
<path d="M227.039 590.579C227.385 589.209 228.07 589.451 228.893 589.83C229.715 590.208 230.787 590.41 230.44 591.772C230.093 593.134 229.005 593.037 228.183 592.651C227.361 592.264 226.692 591.949 227.039 590.579Z" fill="#F2D2C4"/>
<path d="M233.245 592.289C233.245 590.806 234.276 591.16 235.106 591.539C235.937 591.918 236.992 592.119 236.654 593.481C236.315 594.843 235.912 594.666 235.09 594.287C234.268 593.909 233.261 593.473 233.245 592.289Z" fill="#F2D2C4"/>
<path d="M232.815 587.147C233.016 586.811 232.714 586.261 232.141 585.918C231.568 585.576 230.941 585.57 230.74 585.906C230.538 586.243 230.84 586.793 231.413 587.136C231.986 587.478 232.614 587.484 232.815 587.147Z" fill="#F2D2C4"/>
<path d="M214.167 566.208C215.223 566.208 215.344 566.845 215.432 567.578C215.521 568.312 215.835 569.19 214.779 569.19C214.36 569.155 213.969 568.963 213.685 568.653C213.401 568.342 213.245 567.935 213.248 567.514C213.167 566.764 213.103 566.168 214.167 566.208Z" fill="#F2D2C4"/>
<path d="M215.601 571.56C216.585 571.286 216.786 572.196 216.875 572.938C216.964 573.679 217.278 574.55 216.222 574.55C215.166 574.55 215.126 574.155 215.045 573.421C214.965 572.688 214.82 571.777 215.601 571.56Z" fill="#F2D2C4"/>
<path d="M219.022 570.319C219.315 570.264 219.472 569.787 219.373 569.253C219.273 568.719 218.955 568.331 218.662 568.385C218.369 568.44 218.212 568.917 218.311 569.451C218.411 569.985 218.729 570.373 219.022 570.319Z" fill="#F2D2C4"/>
<path d="M633.508 722.064C637.038 719.509 638.521 721.169 640.125 723.386C641.729 725.602 644.38 727.778 640.85 730.333C637.32 732.888 634.451 730.865 632.847 728.657C631.243 726.449 629.986 724.619 633.508 722.064Z" fill="#F2D2C4"/>
<path d="M605.848 730.841C608.58 727.448 610.861 729.946 612.465 732.162C614.069 734.379 616.712 736.555 613.19 739.11C609.668 741.665 608.919 740.593 607.315 738.376C605.711 736.16 603.648 733.549 605.848 730.841Z" fill="#F2D2C4"/>
<path d="M625.044 739.363C626.057 738.63 625.93 736.726 624.761 735.111C623.592 733.495 621.822 732.78 620.809 733.514C619.796 734.247 619.923 736.151 621.092 737.767C622.261 739.382 624.03 740.097 625.044 739.363Z" fill="#F2D2C4"/>
<path d="M635.273 749.241C636.2 746.331 637.691 746.654 639.552 747.234C641.414 747.814 643.784 747.943 642.849 750.853C641.914 753.762 639.464 753.819 637.634 753.271C635.805 752.723 634.338 752.15 635.273 749.241Z" fill="#F2D2C4"/>
<path d="M649.152 751.207C649.289 748.161 651.57 748.62 653.44 749.2C655.31 749.781 657.663 749.918 656.736 752.819C655.809 755.72 654.947 755.438 653.117 754.85C651.288 754.262 649.047 753.649 649.152 751.207Z" fill="#F2D2C4"/>
<path d="M648.818 740.447C649.085 739.612 648.222 738.59 646.891 738.164C645.56 737.739 644.264 738.071 643.997 738.906C643.73 739.741 644.593 740.763 645.924 741.189C647.255 741.615 648.551 741.283 648.818 740.447Z" fill="#F2D2C4"/>
<path d="M608.725 702.181C611.143 701.996 611.345 703.197 611.457 704.704C611.57 706.211 612.199 707.992 609.805 708.177C607.412 708.363 606.638 706.565 606.525 705.091C606.412 703.616 606.34 702.366 608.725 702.181Z" fill="#F2D2C4"/>
<path d="M611.417 712.869C613.673 712.063 614.028 713.884 614.149 715.391C614.27 716.898 614.882 718.671 612.488 718.857C610.095 719.042 610.071 718.333 609.942 716.834C609.813 715.335 609.611 713.513 611.417 712.869Z" fill="#F2D2C4"/>
<path d="M619.159 709.4C619.847 709.346 620.335 708.414 620.25 707.318C620.164 706.222 619.537 705.377 618.849 705.431C618.162 705.484 617.673 706.416 617.759 707.513C617.844 708.609 618.471 709.454 619.159 709.4Z" fill="#F2D2C4"/>
<path d="M605.017 659.989C608.539 657.434 610.03 659.094 611.626 661.311C613.222 663.527 615.882 665.703 612.352 668.258C608.822 670.813 605.952 668.79 604.348 666.582C602.745 664.373 601.487 662.544 605.017 659.989Z" fill="#F2D2C4"/>
<path d="M577.349 668.766C580.081 665.373 582.362 667.871 583.966 670.088C585.57 672.304 588.221 674.48 584.691 677.027C581.161 679.574 580.42 678.518 578.824 676.302C577.228 674.085 575.165 671.474 577.349 668.766Z" fill="#F2D2C4"/>
<path d="M596.541 677.301C597.554 676.568 597.427 674.663 596.258 673.048C595.089 671.433 593.319 670.718 592.306 671.451C591.293 672.185 591.42 674.089 592.589 675.704C593.758 677.319 595.527 678.034 596.541 677.301Z" fill="#F2D2C4"/>
<path d="M606.774 687.166C607.701 684.256 609.192 684.578 611.054 685.159C612.916 685.739 615.285 685.868 614.35 688.777C613.415 691.687 610.965 691.743 609.136 691.195C607.306 690.647 605.839 690.075 606.774 687.166Z" fill="#F2D2C4"/>
<path d="M620.653 689.133C620.79 686.086 623.119 686.546 624.941 687.126C626.762 687.706 629.172 687.835 628.237 690.745C627.302 693.654 626.448 693.364 624.618 692.776C622.789 692.187 620.572 691.575 620.653 689.133Z" fill="#F2D2C4"/>
<path d="M620.322 678.369C620.589 677.534 619.726 676.512 618.395 676.086C617.063 675.66 615.768 675.992 615.501 676.828C615.234 677.663 616.096 678.685 617.428 679.111C618.759 679.536 620.055 679.204 620.322 678.369Z" fill="#F2D2C4"/>
<path d="M580.274 640.106C582.692 639.92 582.885 641.121 582.998 642.628C583.111 644.136 583.74 645.909 581.346 646.102C578.952 646.296 578.186 644.49 578.066 643.007C577.945 641.524 577.856 640.291 580.274 640.106Z" fill="#F2D2C4"/>
<path d="M582.918 650.793C585.175 649.987 585.529 651.808 585.65 653.316C585.771 654.823 586.384 656.596 584.038 656.781C581.693 656.967 581.62 656.257 581.483 654.75C581.346 653.243 581.08 651.438 582.918 650.793Z" fill="#F2D2C4"/>
<path d="M590.659 647.327C591.346 647.274 591.835 646.342 591.749 645.245C591.664 644.149 591.037 643.304 590.349 643.358C589.661 643.412 589.173 644.344 589.258 645.44C589.344 646.536 589.971 647.381 590.659 647.327Z" fill="#F2D2C4"/>
<path opacity="0.3" d="M562.334 781.608C464.329 803.031 401.69 783.035 369.452 740.625C337.213 698.216 281.207 611.97 333.038 585.881C384.87 559.792 470.954 557.673 577.768 574.412C684.582 591.152 699.508 699.489 670.123 724.603C638.972 751.216 597.764 773.863 562.334 781.608Z" fill="#F2D2C4"/>
<path opacity="0.5" d="M539.855 771.792C499.38 780.658 473.5 772.381 460.186 754.867C446.871 737.354 423.732 701.738 445.147 690.93C466.561 680.122 502.112 679.268 546.238 686.191C590.364 693.114 596.522 737.869 584.384 748.25C571.513 759.235 554.483 768.633 539.855 771.792Z" fill="#F2D2C4"/>
<path opacity="0.3" d="M233.156 601.799C233.156 601.799 166.35 458 302.428 299.306C438.506 140.613 327.058 374.591 359.127 389.251C391.196 403.912 337.302 447.055 304.951 440.325C272.599 433.595 245.801 456.355 283.262 502.577C320.723 548.799 252.37 535.178 242.279 546.365C232.189 557.552 250.911 620.336 233.156 601.799Z" fill="#E9A973"/>
<path opacity="0.3" d="M791.097 427.285C790.662 425.721 790.291 424.166 789.88 422.65C781.015 390.904 765.089 374.228 754.764 377.186C743.948 380.281 741.402 404.976 748.236 427.156C755.071 449.336 753.467 479.906 774.962 468.107C796.457 456.307 793.749 436.69 791.097 427.285Z" fill="#532F47"/>
<path d="M201.28 518.947C200.861 512.378 200.667 506.527 200.676 499.91C100.043 436.134 41.2971 379.105 54.7888 346.834C67.5069 316.344 141.026 314.918 247.002 337.356H247.058C254.387 338.903 261.864 340.566 269.488 342.345C295.545 348.414 323.294 355.796 352.381 364.428C417.47 383.739 489.201 409.264 563.414 440.237C618.412 463.174 670.316 487.272 717.723 511.532C748.615 527.337 777.597 543.19 804.275 558.842L804.387 558.914C928.505 631.708 954.578 679.179 939.474 715.367C923.637 753.328 862.102 766.706 712.46 724.595C707.89 728.826 704.013 732.171 699.202 736.088C883.871 788.701 976.637 776.386 996.085 729.761C1017.1 679.397 968.859 602.041 809.844 510.403C804.605 507.437 663.756 432.669 578.219 396.973C502.346 365.307 323.326 307.302 277.064 297.485C129.34 263.248 22.22 264.844 3.554 309.574C-15.7165 355.74 65.2099 435.151 201.28 518.947Z" fill="url(#paint0_linear_105_1203)"/>
<path d="M114.204 454.574C62.1955 418.37 25.8951 373.075 22.6874 365.427C19.4797 357.778 24.3719 354.53 25.6614 356.932C55.6753 412.986 111.504 445.442 115.671 452.462C119.838 459.482 116.114 455.92 114.204 454.574Z" fill="#93454B"/>
<path d="M900.829 579.877C948.937 621.118 980.506 669.83 982.932 677.761C985.358 685.691 980.159 688.431 979.12 685.917C954.885 627.13 902.594 589.202 899.153 581.827C895.711 574.453 899.056 578.362 900.829 579.877Z" fill="#F4E5DF"/>
</g>
<defs>
<linearGradient id="paint0_linear_105_1203" x1="669.254" y1="401.857" x2="408.956" y2="584.349" gradientUnits="userSpaceOnUse">
<stop stop-color="#F2D2C4"/>
<stop offset="0.17" stop-color="#E9A973"/>
<stop offset="0.42" stop-color="#DE8955"/>
<stop offset="0.56" stop-color="#D97B49"/>
<stop offset="0.99" stop-color="#532F47"/>
</linearGradient>
<clipPath id="clip0_105_1203">
<rect width="1000" height="1000" fill="white" transform="translate(0.73291)"/>
</clipPath>
</defs>
</svg>
