<svg width="1440" height="900" viewBox="0 0 1440 900" fill="none" xmlns="http://www.w3.org/2000/svg">
<g clip-path="url(#clip0_121_1023)">
<rect width="1440" height="900" fill="white"/>
<path d="M1440 0H0V900H1440V0Z" fill="#470B96"/>
<g style="mix-blend-mode:screen">
<path d="M1005.65 577.939C1009.98 577.939 1013.49 574.492 1013.49 570.239C1013.49 565.986 1009.98 562.539 1005.65 562.539C1001.32 562.539 997.807 565.986 997.807 570.239C997.807 574.492 1001.32 577.939 1005.65 577.939Z" fill="#ADA693"/>
</g>
<g style="mix-blend-mode:screen">
<path d="M670.826 351.62C675.156 351.62 678.666 348.172 678.666 343.92C678.666 339.667 675.156 336.22 670.826 336.22C666.496 336.22 662.986 339.667 662.986 343.92C662.986 348.172 666.496 351.62 670.826 351.62Z" fill="#ADA693"/>
</g>
<g style="mix-blend-mode:screen">
<path d="M1079.45 579.94C1079.46 580.778 1079.23 581.601 1078.78 582.306C1078.32 583.01 1077.67 583.564 1076.9 583.895C1076.13 584.227 1075.28 584.322 1074.45 584.168C1073.63 584.015 1072.87 583.619 1072.27 583.032C1071.67 582.446 1071.26 581.694 1071.09 580.873C1070.93 580.052 1071 579.2 1071.32 578.424C1071.64 577.648 1072.18 576.984 1072.87 576.517C1073.57 576.05 1074.39 575.8 1075.23 575.8C1075.78 575.795 1076.32 575.898 1076.83 576.103C1077.34 576.308 1077.8 576.612 1078.19 576.996C1078.59 577.38 1078.9 577.838 1079.11 578.343C1079.33 578.849 1079.44 579.391 1079.45 579.94Z" fill="#ADA693"/>
</g>
<g style="mix-blend-mode:screen">
<path d="M789.727 251.34C789.74 252.178 789.505 253.001 789.049 253.704C788.593 254.407 787.939 254.959 787.168 255.289C786.398 255.619 785.547 255.712 784.723 255.556C783.9 255.401 783.141 255.003 782.545 254.415C781.948 253.827 781.54 253.074 781.372 252.253C781.205 251.432 781.286 250.579 781.604 249.804C781.923 249.029 782.465 248.367 783.162 247.901C783.859 247.435 784.679 247.188 785.517 247.19C786.066 247.184 786.611 247.288 787.12 247.494C787.629 247.7 788.093 248.004 788.484 248.39C788.875 248.775 789.186 249.234 789.4 249.741C789.613 250.247 789.724 250.79 789.727 251.34Z" fill="#ADA693"/>
</g>
<g style="mix-blend-mode:screen">
<path d="M665.287 177.349C665.301 178.187 665.065 179.009 664.61 179.713C664.155 180.416 663.501 180.967 662.731 181.298C661.961 181.628 661.111 181.721 660.288 181.567C659.464 181.412 658.706 181.015 658.109 180.428C657.512 179.841 657.103 179.089 656.934 178.269C656.765 177.448 656.845 176.596 657.162 175.821C657.479 175.046 658.02 174.383 658.715 173.916C659.411 173.449 660.229 173.199 661.067 173.199C662.177 173.191 663.244 173.624 664.035 174.402C664.826 175.18 665.277 176.24 665.287 177.349Z" fill="#ADA693"/>
</g>
<g style="mix-blend-mode:screen">
<path d="M500.717 840.21C500.732 841.047 500.499 841.871 500.045 842.575C499.591 843.28 498.937 843.833 498.168 844.165C497.398 844.497 496.547 844.592 495.723 844.438C494.9 844.284 494.14 843.889 493.542 843.302C492.944 842.715 492.534 841.963 492.364 841.143C492.195 840.322 492.274 839.469 492.591 838.694C492.908 837.918 493.448 837.254 494.144 836.787C494.84 836.319 495.659 836.07 496.497 836.07C497.046 836.064 497.59 836.167 498.099 836.372C498.608 836.578 499.072 836.881 499.464 837.265C499.856 837.65 500.168 838.108 500.383 838.613C500.598 839.118 500.711 839.661 500.717 840.21Z" fill="#ADA693"/>
</g>
<g style="mix-blend-mode:screen">
<path d="M497.928 684.769C497.942 685.607 497.706 686.429 497.251 687.133C496.796 687.836 496.141 688.387 495.372 688.718C494.602 689.048 493.751 689.141 492.928 688.986C492.105 688.832 491.347 688.435 490.749 687.848C490.152 687.261 489.743 686.509 489.575 685.689C489.406 684.868 489.485 684.016 489.803 683.241C490.12 682.466 490.661 681.802 491.356 681.336C492.051 680.869 492.87 680.619 493.708 680.619C494.817 680.611 495.885 681.044 496.676 681.822C497.467 682.6 497.917 683.66 497.928 684.769Z" fill="#ADA693"/>
</g>
<g style="mix-blend-mode:screen">
<path d="M542.617 117.09C542.631 117.927 542.395 118.75 541.94 119.453C541.485 120.156 540.831 120.708 540.061 121.038C539.291 121.368 538.441 121.462 537.618 121.307C536.794 121.152 536.036 120.756 535.439 120.168C534.842 119.581 534.433 118.829 534.264 118.009C534.096 117.188 534.175 116.336 534.492 115.561C534.809 114.786 535.35 114.123 536.046 113.656C536.741 113.189 537.56 112.94 538.397 112.94C539.507 112.932 540.574 113.364 541.365 114.142C542.156 114.92 542.607 115.98 542.617 117.09Z" fill="#ADA693"/>
</g>
<g style="mix-blend-mode:screen">
<path d="M1055.74 753.939C1055.75 754.777 1055.51 755.6 1055.06 756.304C1054.6 757.007 1053.95 757.559 1053.18 757.889C1052.41 758.218 1051.56 758.311 1050.73 758.156C1049.91 758 1049.15 757.603 1048.55 757.015C1047.96 756.426 1047.55 755.674 1047.38 754.852C1047.21 754.031 1047.3 753.179 1047.61 752.404C1047.93 751.629 1048.48 750.966 1049.17 750.501C1049.87 750.035 1050.69 749.787 1051.53 749.789C1052.08 749.784 1052.62 749.887 1053.13 750.093C1053.64 750.299 1054.1 750.604 1054.49 750.989C1054.88 751.375 1055.2 751.834 1055.41 752.34C1055.62 752.847 1055.73 753.39 1055.74 753.939Z" fill="#ADA693"/>
</g>
<g style="mix-blend-mode:screen">
<path d="M859.848 173.24C859.862 174.078 859.626 174.9 859.171 175.603C858.716 176.306 858.061 176.858 857.292 177.188C856.522 177.519 855.671 177.612 854.848 177.457C854.025 177.302 853.266 176.906 852.669 176.319C852.072 175.732 851.663 174.98 851.495 174.159C851.326 173.339 851.405 172.487 851.723 171.712C852.04 170.937 852.581 170.273 853.276 169.806C853.971 169.34 854.79 169.09 855.628 169.09C856.177 169.085 856.723 169.188 857.233 169.394C857.742 169.6 858.207 169.904 858.599 170.29C858.991 170.675 859.303 171.134 859.517 171.64C859.731 172.147 859.844 172.69 859.848 173.24Z" fill="#ADA693"/>
</g>
<g style="mix-blend-mode:screen">
<path d="M1038.63 224.559C1038.64 225.397 1038.41 226.221 1037.95 226.925C1037.5 227.629 1036.85 228.183 1036.08 228.514C1035.31 228.846 1034.46 228.941 1033.63 228.788C1032.81 228.634 1032.05 228.238 1031.45 227.652C1030.85 227.065 1030.44 226.313 1030.27 225.492C1030.11 224.672 1030.18 223.819 1030.5 223.043C1030.82 222.267 1031.36 221.604 1032.05 221.136C1032.75 220.669 1033.57 220.419 1034.41 220.419C1034.96 220.414 1035.5 220.517 1036.01 220.722C1036.52 220.927 1036.98 221.231 1037.37 221.615C1037.77 222 1038.08 222.457 1038.29 222.963C1038.51 223.468 1038.62 224.01 1038.63 224.559Z" fill="#ADA693"/>
</g>
<g style="mix-blend-mode:screen">
<path d="M1379.55 147.52C1379.56 148.358 1379.33 149.181 1378.87 149.886C1378.42 150.59 1377.77 151.144 1377 151.475C1376.23 151.807 1375.38 151.902 1374.55 151.748C1373.73 151.595 1372.97 151.199 1372.37 150.612C1371.77 150.026 1371.36 149.274 1371.19 148.453C1371.03 147.632 1371.1 146.78 1371.42 146.004C1371.74 145.228 1372.28 144.564 1372.97 144.097C1373.67 143.63 1374.49 143.38 1375.33 143.38C1376.43 143.372 1377.5 143.803 1378.29 144.579C1379.08 145.355 1379.53 146.412 1379.55 147.52Z" fill="#ADA693"/>
</g>
<g style="mix-blend-mode:screen">
<path d="M613.037 45.8696C613.053 46.7087 612.818 47.5335 612.363 48.2386C611.908 48.9437 611.252 49.497 610.481 49.8278C609.71 50.1586 608.857 50.252 608.033 50.0958C607.208 49.9397 606.449 49.5412 605.852 48.9513C605.255 48.3614 604.847 47.6069 604.681 46.7842C604.515 45.9615 604.598 45.108 604.92 44.3328C605.241 43.5575 605.787 42.8957 606.486 42.432C607.186 41.9683 608.008 41.7238 608.847 41.7296C609.95 41.7269 611.01 42.1606 611.795 42.9362C612.58 43.7117 613.026 44.7662 613.037 45.8696Z" fill="#ADA693"/>
</g>
<g style="mix-blend-mode:screen">
<path d="M493.467 328.27C493.477 328.771 493.338 329.263 493.066 329.684C492.795 330.106 492.405 330.436 491.944 330.634C491.484 330.833 490.976 330.889 490.483 330.797C489.991 330.704 489.537 330.467 489.18 330.116C488.823 329.765 488.579 329.315 488.479 328.824C488.378 328.333 488.427 327.824 488.618 327.36C488.808 326.897 489.133 326.501 489.549 326.223C489.966 325.945 490.456 325.798 490.957 325.8C491.284 325.797 491.609 325.859 491.912 325.982C492.215 326.104 492.491 326.286 492.724 326.515C492.957 326.744 493.143 327.017 493.27 327.319C493.398 327.62 493.465 327.943 493.467 328.27Z" fill="#ADA693"/>
</g>
<g style="mix-blend-mode:screen">
<path d="M1204.32 395.11C1204.32 395.61 1204.18 396.102 1203.91 396.522C1203.64 396.942 1203.25 397.271 1202.79 397.467C1202.33 397.664 1201.82 397.719 1201.33 397.626C1200.84 397.532 1200.38 397.294 1200.03 396.943C1199.67 396.591 1199.43 396.141 1199.33 395.65C1199.23 395.16 1199.28 394.651 1199.47 394.188C1199.66 393.725 1199.98 393.33 1200.4 393.053C1200.82 392.775 1201.31 392.628 1201.81 392.63C1202.13 392.627 1202.46 392.689 1202.76 392.813C1203.07 392.936 1203.34 393.118 1203.58 393.349C1203.81 393.579 1204 393.853 1204.12 394.156C1204.25 394.458 1204.32 394.782 1204.32 395.11Z" fill="#ADA693"/>
</g>
<g style="mix-blend-mode:screen">
<path d="M1065.16 264.73C1065.17 265.23 1065.03 265.722 1064.76 266.143C1064.49 266.564 1064.1 266.895 1063.64 267.093C1063.18 267.292 1062.67 267.349 1062.18 267.257C1061.68 267.166 1061.23 266.93 1060.87 266.58C1060.52 266.229 1060.27 265.78 1060.17 265.29C1060.07 264.8 1060.11 264.291 1060.3 263.827C1060.49 263.364 1060.82 262.967 1061.23 262.688C1061.65 262.409 1062.14 262.26 1062.64 262.26C1063.3 262.255 1063.93 262.511 1064.41 262.974C1064.88 263.437 1065.15 264.069 1065.16 264.73Z" fill="#ADA693"/>
</g>
<g style="mix-blend-mode:screen">
<path d="M939.168 256.339C939.17 256.512 939.12 256.681 939.026 256.826C938.932 256.97 938.796 257.083 938.638 257.15C938.479 257.218 938.304 257.236 938.134 257.204C937.965 257.172 937.809 257.089 937.686 256.968C937.563 256.847 937.48 256.692 937.445 256.523C937.411 256.354 937.427 256.178 937.493 256.019C937.559 255.859 937.67 255.723 937.813 255.627C937.957 255.531 938.125 255.48 938.298 255.479C938.527 255.479 938.746 255.57 938.909 255.731C939.072 255.892 939.165 256.11 939.168 256.339Z" fill="#ADA693"/>
</g>
<g style="mix-blend-mode:screen">
<path d="M757.107 287.25C757.111 287.425 757.063 287.597 756.969 287.744C756.875 287.891 756.739 288.007 756.578 288.077C756.418 288.147 756.24 288.167 756.068 288.135C755.896 288.104 755.738 288.021 755.613 287.899C755.488 287.777 755.402 287.62 755.366 287.449C755.33 287.278 755.347 287.1 755.413 286.938C755.479 286.776 755.591 286.637 755.737 286.54C755.882 286.442 756.053 286.39 756.227 286.39C756.342 286.387 756.456 286.407 756.563 286.45C756.669 286.492 756.767 286.554 756.849 286.635C756.93 286.715 756.996 286.81 757.04 286.916C757.085 287.022 757.107 287.135 757.107 287.25Z" fill="#ADA693"/>
</g>
<g style="mix-blend-mode:screen">
<path d="M825.427 274.94C825.429 275.113 825.38 275.282 825.286 275.426C825.191 275.57 825.056 275.684 824.897 275.751C824.739 275.818 824.563 275.837 824.394 275.805C824.225 275.772 824.069 275.69 823.946 275.569C823.823 275.448 823.739 275.293 823.705 275.124C823.671 274.954 823.687 274.779 823.753 274.619C823.818 274.46 823.93 274.323 824.073 274.227C824.216 274.131 824.385 274.08 824.557 274.08C824.786 274.08 825.006 274.17 825.169 274.331C825.332 274.492 825.425 274.711 825.427 274.94Z" fill="#ADA693"/>
</g>
<g style="mix-blend-mode:screen">
<path d="M695.928 300.26C695.905 300.476 695.802 300.676 695.641 300.821C695.479 300.966 695.27 301.046 695.053 301.046C694.836 301.046 694.626 300.966 694.465 300.821C694.303 300.676 694.201 300.476 694.178 300.26C694.201 300.044 694.303 299.844 694.465 299.699C694.626 299.554 694.836 299.474 695.053 299.474C695.27 299.474 695.479 299.554 695.641 299.699C695.802 299.844 695.905 300.044 695.928 300.26Z" fill="#ADA693"/>
</g>
<g style="mix-blend-mode:screen">
<path d="M548.306 309.849C548.301 310.079 548.206 310.298 548.042 310.459C547.877 310.619 547.656 310.709 547.426 310.709C547.198 310.709 546.98 310.619 546.818 310.457C546.657 310.296 546.566 310.077 546.566 309.849C546.566 309.621 546.657 309.402 546.818 309.241C546.98 309.08 547.198 308.989 547.426 308.989C547.656 308.989 547.877 309.079 548.042 309.24C548.206 309.401 548.301 309.619 548.306 309.849Z" fill="#ADA693"/>
</g>
<g style="mix-blend-mode:screen">
<path d="M768.088 312.25C768.092 312.425 768.044 312.597 767.949 312.744C767.855 312.891 767.719 313.007 767.559 313.077C767.398 313.147 767.221 313.167 767.049 313.135C766.877 313.103 766.718 313.021 766.593 312.899C766.468 312.777 766.382 312.62 766.347 312.449C766.311 312.278 766.327 312.1 766.393 311.938C766.459 311.776 766.572 311.637 766.717 311.54C766.862 311.442 767.033 311.39 767.208 311.39C767.322 311.388 767.436 311.41 767.542 311.452C767.648 311.495 767.744 311.558 767.826 311.637C767.908 311.717 767.973 311.812 768.018 311.918C768.063 312.023 768.087 312.135 768.088 312.25Z" fill="#ADA693"/>
</g>
<g style="mix-blend-mode:screen">
<path d="M1054.45 532.23C1054.45 532.403 1054.4 532.573 1054.31 532.719C1054.22 532.864 1054.08 532.979 1053.92 533.048C1053.77 533.117 1053.59 533.137 1053.42 533.106C1053.25 533.074 1053.09 532.993 1052.97 532.872C1052.85 532.751 1052.76 532.596 1052.73 532.427C1052.69 532.258 1052.71 532.082 1052.77 531.922C1052.84 531.762 1052.95 531.625 1053.09 531.528C1053.23 531.432 1053.4 531.38 1053.58 531.38C1053.69 531.379 1053.8 531.4 1053.91 531.442C1054.01 531.484 1054.11 531.546 1054.19 531.625C1054.27 531.704 1054.33 531.798 1054.38 531.902C1054.42 532.005 1054.45 532.117 1054.45 532.23Z" fill="#ADA693"/>
</g>
<g style="mix-blend-mode:screen">
<path d="M635.967 662.85C635.944 663.066 635.842 663.266 635.68 663.411C635.518 663.556 635.309 663.636 635.092 663.636C634.875 663.636 634.665 663.556 634.504 663.411C634.342 663.266 634.24 663.066 634.217 662.85C634.24 662.634 634.342 662.434 634.504 662.289C634.665 662.144 634.875 662.063 635.092 662.063C635.309 662.063 635.518 662.144 635.68 662.289C635.842 662.434 635.944 662.634 635.967 662.85Z" fill="#ADA693"/>
</g>
<g style="mix-blend-mode:screen">
<path d="M581.767 625.36C581.773 625.535 581.727 625.708 581.634 625.857C581.541 626.005 581.406 626.123 581.245 626.194C581.085 626.265 580.907 626.287 580.735 626.257C580.562 626.226 580.403 626.145 580.276 626.023C580.15 625.901 580.064 625.744 580.027 625.573C579.991 625.402 580.006 625.223 580.072 625.061C580.137 624.898 580.25 624.759 580.395 624.661C580.541 624.563 580.712 624.51 580.887 624.51C581.001 624.507 581.114 624.527 581.22 624.569C581.326 624.61 581.423 624.672 581.505 624.751C581.587 624.83 581.652 624.925 581.697 625.029C581.742 625.134 581.766 625.246 581.767 625.36Z" fill="#ADA693"/>
</g>
<g style="mix-blend-mode:screen">
<path d="M578.977 696.579C578.953 696.795 578.851 696.995 578.69 697.14C578.528 697.285 578.319 697.366 578.102 697.366C577.884 697.366 577.675 697.285 577.513 697.14C577.352 696.995 577.25 696.795 577.227 696.579C577.25 696.363 577.352 696.164 577.513 696.018C577.675 695.873 577.884 695.793 578.102 695.793C578.319 695.793 578.528 695.873 578.69 696.018C578.851 696.164 578.953 696.363 578.977 696.579Z" fill="#ADA693"/>
</g>
<g style="mix-blend-mode:screen">
<path d="M690.348 881.94C690.325 882.156 690.222 882.355 690.061 882.5C689.899 882.646 689.69 882.726 689.473 882.726C689.255 882.726 689.046 882.646 688.884 882.5C688.723 882.355 688.621 882.156 688.598 881.94C688.621 881.724 688.723 881.524 688.884 881.379C689.046 881.234 689.255 881.153 689.473 881.153C689.69 881.153 689.899 881.234 690.061 881.379C690.222 881.524 690.325 881.724 690.348 881.94Z" fill="#ADA693"/>
</g>
<g style="mix-blend-mode:screen">
<path d="M1039.29 812.82C1039.29 812.992 1039.24 813.162 1039.15 813.306C1039.05 813.45 1038.92 813.563 1038.76 813.631C1038.6 813.698 1038.42 813.717 1038.25 813.684C1038.08 813.652 1037.93 813.57 1037.81 813.449C1037.68 813.327 1037.6 813.172 1037.56 813.003C1037.53 812.834 1037.55 812.659 1037.61 812.499C1037.68 812.34 1037.79 812.203 1037.93 812.107C1038.08 812.011 1038.24 811.96 1038.42 811.96C1038.65 811.96 1038.87 812.05 1039.03 812.211C1039.19 812.372 1039.28 812.591 1039.29 812.82Z" fill="#ADA693"/>
</g>
<g style="mix-blend-mode:screen">
<path d="M1115.63 680.66C1115.63 680.835 1115.58 681.008 1115.49 681.155C1115.39 681.303 1115.26 681.419 1115.1 681.488C1114.93 681.557 1114.76 681.577 1114.58 681.545C1114.41 681.512 1114.25 681.429 1114.13 681.306C1114 681.182 1113.92 681.025 1113.88 680.853C1113.85 680.681 1113.87 680.503 1113.94 680.341C1114 680.179 1114.12 680.041 1114.26 679.945C1114.41 679.848 1114.58 679.798 1114.76 679.8C1114.99 679.8 1115.21 679.89 1115.37 680.051C1115.53 680.212 1115.62 680.431 1115.63 680.66Z" fill="#ADA693"/>
</g>
<g style="mix-blend-mode:screen">
<path d="M1107.26 775.84C1107.26 776.012 1107.21 776.181 1107.12 776.326C1107.02 776.47 1106.89 776.583 1106.73 776.65C1106.57 776.718 1106.39 776.736 1106.22 776.704C1106.05 776.672 1105.9 776.59 1105.78 776.468C1105.65 776.347 1105.57 776.192 1105.54 776.023C1105.5 775.854 1105.52 775.679 1105.58 775.519C1105.65 775.359 1105.76 775.223 1105.9 775.127C1106.05 775.031 1106.22 774.98 1106.39 774.98C1106.5 774.978 1106.61 775 1106.72 775.042C1106.83 775.085 1106.92 775.148 1107 775.228C1107.08 775.308 1107.15 775.403 1107.19 775.508C1107.23 775.613 1107.26 775.726 1107.26 775.84Z" fill="#ADA693"/>
</g>
<g style="mix-blend-mode:screen">
<path d="M1043.3 696.41C1043.3 696.585 1043.25 696.758 1043.16 696.905C1043.06 697.053 1042.93 697.169 1042.77 697.238C1042.6 697.307 1042.43 697.327 1042.25 697.295C1042.08 697.262 1041.92 697.179 1041.8 697.056C1041.67 696.932 1041.59 696.775 1041.55 696.603C1041.52 696.431 1041.54 696.253 1041.61 696.091C1041.67 695.929 1041.79 695.791 1041.93 695.695C1042.08 695.598 1042.25 695.548 1042.43 695.55C1042.66 695.55 1042.88 695.64 1043.04 695.801C1043.2 695.962 1043.29 696.181 1043.3 696.41Z" fill="#ADA693"/>
</g>
<g style="mix-blend-mode:screen">
<path d="M666.817 576.06C667.298 576.06 667.687 575.675 667.687 575.2C667.687 574.725 667.298 574.34 666.817 574.34C666.337 574.34 665.947 574.725 665.947 575.2C665.947 575.675 666.337 576.06 666.817 576.06Z" fill="#ADA693"/>
</g>
<g style="mix-blend-mode:screen">
<path d="M604.078 736.3C604.055 736.516 603.953 736.716 603.791 736.861C603.63 737.006 603.42 737.086 603.203 737.086C602.986 737.086 602.776 737.006 602.615 736.861C602.453 736.716 602.351 736.516 602.328 736.3C602.351 736.084 602.453 735.884 602.615 735.739C602.776 735.594 602.986 735.514 603.203 735.514C603.42 735.514 603.63 735.594 603.791 735.739C603.953 735.884 604.055 736.084 604.078 736.3Z" fill="#ADA693"/>
</g>
<g style="mix-blend-mode:screen">
<path d="M631.957 833.54C631.959 833.712 631.909 833.881 631.815 834.026C631.721 834.17 631.585 834.283 631.427 834.351C631.268 834.418 631.093 834.437 630.923 834.404C630.754 834.372 630.598 834.29 630.475 834.168C630.352 834.047 630.269 833.892 630.234 833.723C630.2 833.554 630.217 833.379 630.282 833.219C630.348 833.06 630.459 832.923 630.602 832.827C630.746 832.731 630.914 832.68 631.087 832.68C631.201 832.678 631.313 832.7 631.419 832.742C631.524 832.785 631.62 832.848 631.701 832.928C631.782 833.008 631.846 833.103 631.89 833.208C631.934 833.313 631.957 833.426 631.957 833.54Z" fill="#ADA693"/>
</g>
<g style="mix-blend-mode:screen">
<path d="M611.227 899.099C611.231 899.274 611.182 899.446 611.088 899.594C610.994 899.741 610.858 899.857 610.697 899.926C610.537 899.996 610.359 900.016 610.187 899.985C610.015 899.953 609.857 899.871 609.732 899.749C609.607 899.626 609.521 899.47 609.485 899.299C609.45 899.127 609.466 898.949 609.532 898.787C609.598 898.625 609.711 898.487 609.856 898.389C610.001 898.292 610.172 898.239 610.347 898.239C610.461 898.238 610.574 898.259 610.68 898.302C610.786 898.344 610.883 898.407 610.965 898.487C611.046 898.567 611.112 898.662 611.157 898.767C611.201 898.872 611.225 898.985 611.227 899.099Z" fill="#ADA693"/>
</g>
<g style="mix-blend-mode:screen">
<path d="M1011.93 482.939C1011.93 483.114 1011.88 483.286 1011.79 483.433C1011.7 483.581 1011.56 483.697 1011.4 483.766C1011.24 483.836 1011.06 483.856 1010.89 483.825C1010.72 483.793 1010.56 483.711 1010.43 483.588C1010.31 483.466 1010.22 483.31 1010.19 483.138C1010.15 482.967 1010.17 482.789 1010.23 482.627C1010.3 482.465 1010.41 482.327 1010.56 482.229C1010.7 482.131 1010.87 482.079 1011.05 482.079C1011.16 482.078 1011.28 482.099 1011.38 482.142C1011.49 482.184 1011.58 482.247 1011.67 482.327C1011.75 482.407 1011.81 482.502 1011.86 482.607C1011.9 482.712 1011.93 482.825 1011.93 482.939Z" fill="#ADA693"/>
</g>
<g style="mix-blend-mode:screen">
<path d="M894.977 529.319C894.981 529.494 894.932 529.666 894.838 529.813C894.744 529.961 894.608 530.077 894.447 530.146C894.287 530.216 894.109 530.236 893.937 530.205C893.765 530.173 893.607 530.091 893.482 529.969C893.357 529.846 893.271 529.69 893.235 529.518C893.2 529.347 893.216 529.169 893.282 529.007C893.348 528.845 893.461 528.707 893.606 528.609C893.751 528.511 893.922 528.459 894.097 528.459C894.211 528.457 894.325 528.477 894.432 528.519C894.538 528.561 894.636 528.624 894.718 528.704C894.8 528.784 894.865 528.88 894.909 528.985C894.954 529.091 894.977 529.205 894.977 529.319Z" fill="#ADA693"/>
</g>
<g style="mix-blend-mode:screen">
<path d="M1014.72 624.679C1014.71 624.909 1014.62 625.128 1014.45 625.289C1014.29 625.449 1014.07 625.539 1013.84 625.539C1013.61 625.539 1013.39 625.449 1013.23 625.287C1013.07 625.126 1012.98 624.907 1012.98 624.679C1012.98 624.451 1013.07 624.233 1013.23 624.071C1013.39 623.91 1013.61 623.819 1013.84 623.819C1014.07 623.819 1014.29 623.909 1014.45 624.07C1014.62 624.231 1014.71 624.449 1014.72 624.679Z" fill="#ADA693"/>
</g>
<g style="mix-blend-mode:screen">
<path d="M518.668 291.71C518.67 291.882 518.62 292.051 518.526 292.196C518.432 292.34 518.296 292.453 518.138 292.521C517.979 292.588 517.804 292.607 517.634 292.574C517.465 292.542 517.309 292.46 517.186 292.338C517.063 292.217 516.98 292.062 516.945 291.893C516.911 291.724 516.927 291.549 516.993 291.389C517.059 291.23 517.17 291.093 517.313 290.997C517.457 290.901 517.625 290.85 517.798 290.85C517.911 290.848 518.024 290.87 518.13 290.912C518.235 290.955 518.331 291.018 518.412 291.098C518.493 291.178 518.557 291.273 518.601 291.378C518.645 291.483 518.668 291.596 518.668 291.71Z" fill="#ADA693"/>
</g>
<g style="mix-blend-mode:screen">
<path d="M691.748 215.01C691.725 215.226 691.623 215.426 691.461 215.571C691.3 215.716 691.09 215.796 690.873 215.796C690.656 215.796 690.446 215.716 690.285 215.571C690.123 215.426 690.021 215.226 689.998 215.01C690.021 214.794 690.123 214.594 690.285 214.449C690.446 214.304 690.656 214.224 690.873 214.224C691.09 214.224 691.3 214.304 691.461 214.449C691.623 214.594 691.725 214.794 691.748 215.01Z" fill="#ADA693"/>
</g>
<g style="mix-blend-mode:screen">
<path d="M532.438 325.77C532.414 325.986 532.312 326.185 532.151 326.331C531.989 326.476 531.78 326.556 531.562 326.556C531.345 326.556 531.136 326.476 530.974 326.331C530.813 326.185 530.711 325.986 530.688 325.77C530.711 325.554 530.813 325.354 530.974 325.209C531.136 325.064 531.345 324.983 531.562 324.983C531.78 324.983 531.989 325.064 532.151 325.209C532.312 325.354 532.414 325.554 532.438 325.77Z" fill="#ADA693"/>
</g>
<g style="mix-blend-mode:screen">
<path d="M870.216 205.08C870.218 205.252 870.169 205.421 870.075 205.566C869.98 205.71 869.845 205.823 869.686 205.891C869.528 205.958 869.352 205.977 869.183 205.944C869.014 205.912 868.858 205.83 868.735 205.708C868.612 205.587 868.528 205.432 868.494 205.263C868.46 205.094 868.476 204.919 868.542 204.759C868.607 204.6 868.719 204.463 868.862 204.367C869.005 204.271 869.174 204.22 869.347 204.22C869.576 204.22 869.795 204.31 869.958 204.471C870.121 204.632 870.214 204.851 870.216 205.08Z" fill="#ADA693"/>
</g>
<g style="mix-blend-mode:screen">
<path d="M1020.27 275.94C1020.28 276.44 1020.14 276.932 1019.87 277.353C1019.6 277.774 1019.21 278.105 1018.75 278.303C1018.29 278.502 1017.78 278.559 1017.29 278.467C1016.8 278.376 1016.34 278.14 1015.98 277.79C1015.63 277.439 1015.38 276.99 1015.28 276.5C1015.18 276.01 1015.23 275.501 1015.42 275.037C1015.6 274.574 1015.93 274.177 1016.34 273.898C1016.76 273.619 1017.25 273.47 1017.75 273.47C1018.08 273.466 1018.4 273.527 1018.71 273.649C1019.01 273.771 1019.29 273.952 1019.52 274.181C1019.76 274.411 1019.94 274.684 1020.07 274.986C1020.2 275.288 1020.27 275.612 1020.27 275.94Z" fill="#ADA693"/>
</g>
<g style="mix-blend-mode:screen">
<path d="M1254.79 693.4C1254.8 693.901 1254.66 694.393 1254.39 694.814C1254.12 695.235 1253.72 695.566 1253.26 695.764C1252.8 695.962 1252.3 696.019 1251.8 695.927C1251.31 695.834 1250.86 695.597 1250.5 695.246C1250.14 694.895 1249.9 694.445 1249.8 693.954C1249.7 693.463 1249.75 692.954 1249.94 692.49C1250.13 692.027 1250.45 691.631 1250.87 691.353C1251.29 691.075 1251.78 690.928 1252.28 690.93C1252.6 690.927 1252.93 690.989 1253.23 691.112C1253.54 691.234 1253.81 691.416 1254.04 691.645C1254.28 691.874 1254.46 692.147 1254.59 692.448C1254.72 692.749 1254.78 693.073 1254.79 693.4Z" fill="#ADA693"/>
</g>
<g style="mix-blend-mode:screen">
<path d="M837.178 235.28C837.188 235.781 837.049 236.273 836.777 236.694C836.506 237.115 836.115 237.446 835.655 237.644C835.195 237.842 834.687 237.899 834.194 237.807C833.702 237.714 833.248 237.477 832.891 237.126C832.534 236.775 832.29 236.325 832.19 235.834C832.089 235.343 832.138 234.834 832.328 234.37C832.519 233.907 832.844 233.511 833.26 233.233C833.677 232.955 834.167 232.808 834.668 232.81C834.996 232.806 835.32 232.867 835.624 232.989C835.928 233.111 836.204 233.292 836.438 233.522C836.671 233.752 836.857 234.025 836.984 234.327C837.111 234.628 837.177 234.952 837.178 235.28Z" fill="#ADA693"/>
</g>
<g style="mix-blend-mode:screen">
<path d="M1319.28 60.6693C1319.29 61.1701 1319.15 61.6626 1318.88 62.0837C1318.61 62.5049 1318.22 62.8357 1317.76 63.0338C1317.29 63.2319 1316.79 63.2884 1316.29 63.1961C1315.8 63.1038 1315.35 62.8668 1314.99 62.5154C1314.63 62.1641 1314.39 61.7143 1314.29 61.2235C1314.19 60.7326 1314.24 60.2231 1314.43 59.7599C1314.62 59.2967 1314.94 58.9008 1315.36 58.6228C1315.78 58.3449 1316.27 58.1974 1316.77 58.1993C1317.09 58.1967 1317.42 58.2585 1317.72 58.3812C1318.03 58.5039 1318.3 58.6851 1318.53 58.9144C1318.77 59.1438 1318.95 59.4168 1319.08 59.7179C1319.21 60.019 1319.28 60.3423 1319.28 60.6693Z" fill="#ADA693"/>
</g>
<g style="mix-blend-mode:screen">
<path d="M1120.59 65.7993C1120.6 66.2997 1120.46 66.7917 1120.19 67.2127C1119.92 67.6336 1119.53 67.9644 1119.07 68.1628C1118.61 68.3612 1118.1 68.4183 1117.61 68.3268C1117.11 68.2353 1116.66 67.9993 1116.3 67.649C1115.95 67.2986 1115.7 66.8497 1115.6 66.3596C1115.5 65.8694 1115.54 65.3602 1115.73 64.8968C1115.92 64.4334 1116.25 64.0369 1116.66 63.7577C1117.08 63.4785 1117.57 63.3294 1118.07 63.3293C1118.39 63.3253 1118.72 63.3861 1119.02 63.5083C1119.33 63.6304 1119.61 63.8114 1119.84 64.0409C1120.07 64.2703 1120.26 64.5438 1120.39 64.8456C1120.52 65.1473 1120.58 65.4714 1120.59 65.7993Z" fill="#ADA693"/>
</g>
<g style="mix-blend-mode:screen">
<path d="M744.108 348.27C745.5 348.27 746.628 347.164 746.628 345.8C746.628 344.436 745.5 343.33 744.108 343.33C742.716 343.33 741.588 344.436 741.588 345.8C741.588 347.164 742.716 348.27 744.108 348.27Z" fill="#ADA693"/>
</g>
<g style="mix-blend-mode:screen">
<path d="M690.768 268.15C690.778 268.651 690.638 269.143 690.367 269.564C690.096 269.985 689.705 270.316 689.245 270.514C688.785 270.712 688.276 270.769 687.784 270.677C687.292 270.584 686.838 270.347 686.481 269.996C686.124 269.645 685.88 269.195 685.779 268.704C685.679 268.213 685.728 267.704 685.918 267.24C686.109 266.777 686.433 266.381 686.85 266.103C687.267 265.825 687.757 265.678 688.258 265.68C688.585 265.676 688.91 265.737 689.214 265.859C689.518 265.981 689.794 266.162 690.028 266.392C690.261 266.622 690.446 266.895 690.574 267.197C690.701 267.499 690.767 267.822 690.768 268.15Z" fill="#ADA693"/>
</g>
<g style="mix-blend-mode:screen">
<path d="M550.368 804.599C550.378 805.099 550.238 805.592 549.967 806.013C549.697 806.433 549.307 806.764 548.847 806.963C548.388 807.161 547.879 807.218 547.387 807.127C546.895 807.035 546.442 806.799 546.084 806.449C545.727 806.098 545.482 805.65 545.38 805.159C545.279 804.669 545.326 804.16 545.515 803.697C545.704 803.233 546.027 802.837 546.443 802.557C546.858 802.278 547.347 802.129 547.848 802.129C548.175 802.125 548.501 802.186 548.805 802.308C549.109 802.43 549.387 802.611 549.621 802.841C549.855 803.07 550.041 803.344 550.17 803.645C550.298 803.947 550.365 804.271 550.368 804.599Z" fill="#ADA693"/>
</g>
<g style="mix-blend-mode:screen">
<path d="M557.607 733.39C557.621 733.891 557.485 734.385 557.216 734.809C556.948 735.233 556.559 735.567 556.099 735.768C555.639 735.969 555.13 736.029 554.636 735.939C554.143 735.849 553.687 735.613 553.328 735.263C552.969 734.912 552.723 734.463 552.621 733.971C552.519 733.48 552.566 732.969 552.756 732.505C552.946 732.041 553.27 731.644 553.688 731.365C554.105 731.086 554.596 730.938 555.097 730.94C555.754 730.934 556.387 731.189 556.857 731.648C557.327 732.107 557.597 732.733 557.607 733.39Z" fill="#ADA693"/>
</g>
<path d="M519.578 82.4297C519.976 82.4297 520.357 82.2717 520.639 81.9903C520.92 81.709 521.078 81.3275 521.078 80.9297C521.078 80.5319 520.92 80.1503 520.639 79.869C520.357 79.5877 519.976 79.4297 519.578 79.4297C519.18 79.4297 518.799 79.5877 518.517 79.869C518.236 80.1503 518.078 80.5319 518.078 80.9297C518.078 81.3275 518.236 81.709 518.517 81.9903C518.799 82.2717 519.18 82.4297 519.578 82.4297Z" fill="white"/>
<path d="M505.018 170.54C505.386 170.497 505.726 170.321 505.972 170.045C506.218 169.768 506.355 169.41 506.355 169.04C506.355 168.67 506.218 168.312 505.972 168.036C505.726 167.759 505.386 167.583 505.018 167.54C504.65 167.583 504.311 167.759 504.064 168.036C503.818 168.312 503.682 168.67 503.682 169.04C503.682 169.41 503.818 169.768 504.064 170.045C504.311 170.321 504.65 170.497 505.018 170.54Z" fill="white"/>
<path d="M630.357 114.62V117.21C630.357 117.42 630.441 117.621 630.589 117.769C630.737 117.917 630.938 118 631.147 118C631.357 118 631.558 117.917 631.706 117.769C631.854 117.621 631.937 117.42 631.937 117.21V114.62C631.937 114.411 631.854 114.21 631.706 114.061C631.558 113.913 631.357 113.83 631.147 113.83C630.938 113.83 630.737 113.913 630.589 114.061C630.441 114.21 630.357 114.411 630.357 114.62Z" fill="white"/>
<path d="M585.848 218.27V215.68C585.848 215.47 585.764 215.269 585.616 215.121C585.468 214.973 585.267 214.89 585.058 214.89C584.848 214.89 584.647 214.973 584.499 215.121C584.351 215.269 584.268 215.47 584.268 215.68V218.27C584.268 218.479 584.351 218.68 584.499 218.828C584.647 218.976 584.848 219.06 585.058 219.06C585.267 219.06 585.468 218.976 585.616 218.828C585.764 218.68 585.848 218.479 585.848 218.27Z" fill="white"/>
<path d="M572.146 140.529V143.119C572.146 143.329 572.23 143.53 572.378 143.678C572.526 143.826 572.727 143.909 572.936 143.909C573.146 143.909 573.347 143.826 573.495 143.678C573.643 143.53 573.726 143.329 573.726 143.119V140.529C573.726 140.32 573.643 140.119 573.495 139.971C573.347 139.822 573.146 139.739 572.936 139.739C572.727 139.739 572.526 139.822 572.378 139.971C572.23 140.119 572.146 140.32 572.146 140.529Z" fill="white"/>
<path d="M815.498 69.4795C815.896 69.4795 816.277 69.3215 816.559 69.0401C816.84 68.7588 816.998 68.3773 816.998 67.9795C816.998 67.5817 816.84 67.2001 816.559 66.9188C816.277 66.6375 815.896 66.4795 815.498 66.4795C815.1 66.4795 814.719 66.6375 814.437 66.9188C814.156 67.2001 813.998 67.5817 813.998 67.9795C813.998 68.3773 814.156 68.7588 814.437 69.0401C814.719 69.3215 815.1 69.4795 815.498 69.4795Z" fill="white"/>
<path d="M827.618 232.729C827.986 232.687 828.325 232.511 828.572 232.234C828.818 231.957 828.954 231.6 828.954 231.229C828.954 230.859 828.818 230.502 828.572 230.225C828.325 229.948 827.986 229.772 827.618 229.729C827.25 229.772 826.91 229.948 826.664 230.225C826.417 230.502 826.281 230.859 826.281 231.229C826.281 231.6 826.417 231.957 826.664 232.234C826.91 232.511 827.25 232.687 827.618 232.729Z" fill="white"/>
<path d="M799.307 264.94V262.35C799.307 262.246 799.286 262.143 799.246 262.047C799.207 261.951 799.149 261.864 799.075 261.791C799.002 261.718 798.915 261.659 798.819 261.62C798.723 261.58 798.62 261.56 798.517 261.56C798.413 261.56 798.31 261.58 798.214 261.62C798.118 261.659 798.031 261.718 797.958 261.791C797.885 261.864 797.826 261.951 797.787 262.047C797.747 262.143 797.727 262.246 797.727 262.35V264.94C797.727 265.043 797.747 265.146 797.787 265.242C797.826 265.338 797.885 265.425 797.958 265.498C798.031 265.572 798.118 265.63 798.214 265.669C798.31 265.709 798.413 265.73 798.517 265.73C798.62 265.73 798.723 265.709 798.819 265.669C798.915 265.63 799.002 265.572 799.075 265.498C799.149 265.425 799.207 265.338 799.246 265.242C799.286 265.146 799.307 265.043 799.307 264.94Z" fill="white"/>
<path d="M725.748 326.01C726.146 326.01 726.527 325.852 726.809 325.57C727.09 325.289 727.248 324.908 727.248 324.51C727.248 324.112 727.09 323.73 726.809 323.449C726.527 323.168 726.146 323.01 725.748 323.01C725.35 323.01 724.969 323.168 724.687 323.449C724.406 323.73 724.248 324.112 724.248 324.51C724.248 324.908 724.406 325.289 724.687 325.57C724.969 325.852 725.35 326.01 725.748 326.01Z" fill="white"/>
<path d="M749.996 200.94H752.426C752.649 200.94 752.863 200.851 753.02 200.694C753.178 200.536 753.266 200.323 753.266 200.1C753.266 199.877 753.178 199.663 753.02 199.506C752.863 199.348 752.649 199.26 752.426 199.26H749.996C749.773 199.26 749.56 199.348 749.402 199.506C749.245 199.663 749.156 199.877 749.156 200.1C749.156 200.323 749.245 200.536 749.402 200.694C749.56 200.851 749.773 200.94 749.996 200.94Z" fill="white"/>
<path d="M985.846 233.22L983.426 230.63C982.706 229.86 981.586 231.05 982.306 231.82L984.736 234.41C985.456 235.18 986.566 233.99 985.846 233.22Z" fill="white"/>
<path d="M966.668 404.84V402.25C966.668 402.04 966.585 401.839 966.437 401.691C966.288 401.543 966.087 401.46 965.878 401.46C965.668 401.46 965.467 401.543 965.319 401.691C965.171 401.839 965.088 402.04 965.088 402.25V404.84C965.088 405.049 965.171 405.25 965.319 405.399C965.467 405.547 965.668 405.63 965.878 405.63C966.087 405.63 966.288 405.547 966.437 405.399C966.585 405.25 966.668 405.049 966.668 404.84Z" fill="white"/>
<path d="M847.027 476.3C847.425 476.3 847.807 476.142 848.088 475.86C848.369 475.579 848.527 475.198 848.527 474.8C848.527 474.402 848.369 474.02 848.088 473.739C847.807 473.458 847.425 473.3 847.027 473.3C846.63 473.3 846.248 473.458 845.967 473.739C845.685 474.02 845.527 474.402 845.527 474.8C845.527 475.198 845.685 475.579 845.967 475.86C846.248 476.142 846.63 476.3 847.027 476.3Z" fill="white"/>
<path d="M728.957 573.27V570.68C728.957 570.47 728.874 570.269 728.726 570.121C728.577 569.973 728.376 569.89 728.167 569.89C727.957 569.89 727.756 569.973 727.608 570.121C727.46 570.269 727.377 570.47 727.377 570.68V573.27C727.377 573.479 727.46 573.68 727.608 573.828C727.756 573.976 727.957 574.06 728.167 574.06C728.376 574.06 728.577 573.976 728.726 573.828C728.874 573.68 728.957 573.479 728.957 573.27Z" fill="white"/>
<path d="M800.938 406.34C801.335 406.34 801.717 406.182 801.998 405.901C802.279 405.619 802.438 405.238 802.438 404.84C802.438 404.442 802.279 404.06 801.998 403.779C801.717 403.498 801.335 403.34 800.938 403.34C800.54 403.34 800.158 403.498 799.877 403.779C799.596 404.06 799.438 404.442 799.438 404.84C799.438 405.238 799.596 405.619 799.877 405.901C800.158 406.182 800.54 406.34 800.938 406.34Z" fill="white"/>
<path d="M567.527 472.809L569.947 475.399C570.667 476.169 571.787 474.969 571.067 474.199C570.347 473.429 569.447 472.479 568.647 471.609C567.847 470.739 566.807 472.039 567.527 472.809Z" fill="white"/>
<path d="M502.257 531.66C501.917 534.37 506.257 534.16 505.767 531.59C505.557 530.52 504.027 530.97 504.237 532.04C504.237 531.84 504.237 532.04 504.237 531.96C504.237 531.88 504.237 532.01 504.237 531.87C504.177 531.99 504.327 531.87 504.237 531.87C504.147 531.87 504.147 532.03 504.237 531.87C504.21 531.899 504.176 531.919 504.137 531.93C504.287 531.93 504.197 531.93 504.137 531.93H503.987C504.087 531.93 504.067 531.93 503.987 531.93C503.907 531.93 503.677 531.93 503.847 531.93H503.707C503.647 531.93 503.707 531.93 503.707 531.93C503.707 531.81 503.707 532.03 503.707 531.93L503.757 531.99C503.817 532.2 503.757 531.99 503.757 532.12C503.795 531.914 503.759 531.701 503.657 531.519C503.555 531.336 503.392 531.195 503.197 531.12C503.093 531.09 502.983 531.081 502.876 531.095C502.768 531.109 502.664 531.144 502.57 531.2C502.477 531.255 502.396 531.328 502.331 531.416C502.267 531.504 502.222 531.604 502.197 531.71L502.257 531.66Z" fill="white"/>
<path d="M546.256 341.56C546.624 341.517 546.964 341.341 547.21 341.064C547.457 340.788 547.593 340.43 547.593 340.06C547.593 339.689 547.457 339.332 547.21 339.055C546.964 338.778 546.624 338.602 546.256 338.56C545.888 338.602 545.549 338.778 545.303 339.055C545.056 339.332 544.92 339.689 544.92 340.06C544.92 340.43 545.056 340.788 545.303 341.064C545.549 341.341 545.888 341.517 546.256 341.56Z" fill="white"/>
<path d="M660.847 458.659L658.417 456.059C657.697 455.299 656.577 456.489 657.297 457.259L659.727 459.849C660.447 460.619 661.567 459.429 660.847 458.659Z" fill="white"/>
<path d="M982.846 87.6191C983.214 87.5766 983.554 87.4002 983.8 87.1237C984.047 86.8471 984.183 86.4896 984.183 86.1191C984.183 85.7487 984.047 85.3912 983.8 85.1146C983.554 84.838 983.214 84.6617 982.846 84.6191C982.478 84.6617 982.139 84.838 981.892 85.1146C981.646 85.3912 981.51 85.7487 981.51 86.1191C981.51 86.4896 981.646 86.8471 981.892 87.1237C982.139 87.4002 982.478 87.5766 982.846 87.6191Z" fill="white"/>
<path d="M1106.56 160.17C1106.95 160.17 1107.34 160.012 1107.62 159.731C1107.9 159.449 1108.06 159.068 1108.06 158.67C1108.06 158.272 1107.9 157.891 1107.62 157.609C1107.34 157.328 1106.95 157.17 1106.56 157.17C1106.16 157.17 1105.78 157.328 1105.5 157.609C1105.21 157.891 1105.06 158.272 1105.06 158.67C1105.06 159.068 1105.21 159.449 1105.5 159.731C1105.78 160.012 1106.16 160.17 1106.56 160.17Z" fill="white"/>
<path d="M1077.46 331.189C1077.85 331.189 1078.24 331.031 1078.52 330.75C1078.8 330.469 1078.96 330.087 1078.96 329.689C1078.96 329.292 1078.8 328.91 1078.52 328.629C1078.24 328.347 1077.85 328.189 1077.46 328.189C1077.06 328.189 1076.68 328.347 1076.4 328.629C1076.12 328.91 1075.96 329.292 1075.96 329.689C1075.96 330.087 1076.12 330.469 1076.4 330.75C1076.68 331.031 1077.06 331.189 1077.46 331.189Z" fill="white"/>
<path d="M1031.77 562.17V559.17C1031.77 558.96 1031.68 558.759 1031.54 558.611C1031.39 558.463 1031.19 558.38 1030.98 558.38C1030.77 558.38 1030.57 558.463 1030.42 558.611C1030.27 558.759 1030.19 558.96 1030.19 559.17V562.17C1030.19 562.379 1030.27 562.58 1030.42 562.729C1030.57 562.877 1030.77 562.96 1030.98 562.96C1031.19 562.96 1031.39 562.877 1031.54 562.729C1031.68 562.58 1031.77 562.379 1031.77 562.17Z" fill="white"/>
<path d="M912.316 723.619C912.714 723.619 913.096 723.461 913.377 723.18C913.658 722.899 913.816 722.517 913.816 722.119C913.816 721.721 913.658 721.34 913.377 721.058C913.096 720.777 912.714 720.619 912.316 720.619C911.919 720.619 911.537 720.777 911.256 721.058C910.974 721.34 910.816 721.721 910.816 722.119C910.816 722.517 910.974 722.899 911.256 723.18C911.537 723.461 911.919 723.619 912.316 723.619Z" fill="white"/>
<path d="M618.518 747.11H621.338C621.546 747.087 621.739 746.988 621.878 746.833C622.018 746.677 622.096 746.474 622.096 746.265C622.096 746.055 622.018 745.853 621.878 745.697C621.739 745.541 621.546 745.443 621.338 745.42H618.518C618.309 745.443 618.117 745.541 617.977 745.697C617.837 745.853 617.76 746.055 617.76 746.265C617.76 746.474 617.837 746.677 617.977 746.833C618.117 746.988 618.309 747.087 618.518 747.11Z" fill="white"/>
<path d="M582.348 845.26L579.528 842.26C578.808 841.49 577.688 842.68 578.408 843.45L581.238 846.45C581.958 847.22 583.068 846.02 582.348 845.25V845.26Z" fill="white"/>
<path d="M560.447 649.37C560.447 649.58 560.447 649.26 560.447 649.37C560.447 649.48 560.447 649.43 560.447 649.37V649.45C560.447 649.55 560.307 649.45 560.447 649.45C560.587 649.45 560.337 649.5 560.447 649.45H560.617C560.707 649.45 560.497 649.45 560.617 649.45H560.847C560.983 649.451 561.115 649.493 561.227 649.57C561.147 649.49 561.227 649.57 561.227 649.57C561.227 649.57 561.227 649.47 561.227 649.57C561.227 649.5 561.227 649.46 561.227 649.57C561.227 649.37 561.177 649.66 561.227 649.5C561.017 650.56 562.537 651.01 562.747 649.95C563.297 647.17 558.547 646.95 558.917 649.86C558.94 649.966 558.985 650.067 559.049 650.156C559.112 650.244 559.194 650.318 559.288 650.374C559.382 650.429 559.486 650.465 559.595 650.478C559.703 650.491 559.813 650.481 559.917 650.45C560.114 650.377 560.278 650.236 560.379 650.053C560.48 649.869 560.511 649.655 560.467 649.45L560.447 649.37Z" fill="white"/>
<path d="M495.008 860.939V857.939C495.008 857.73 494.925 857.529 494.776 857.381C494.628 857.233 494.427 857.149 494.218 857.149C494.008 857.149 493.807 857.233 493.659 857.381C493.511 857.529 493.428 857.73 493.428 857.939V860.939C493.428 861.149 493.511 861.35 493.659 861.498C493.807 861.646 494.008 861.729 494.218 861.729C494.427 861.729 494.628 861.646 494.776 861.498C494.925 861.35 495.008 861.149 495.008 860.939Z" fill="white"/>
<path d="M818.307 679.87V682.87C818.307 683.08 818.39 683.28 818.538 683.429C818.686 683.577 818.887 683.66 819.097 683.66C819.306 683.66 819.507 683.577 819.655 683.429C819.803 683.28 819.887 683.08 819.887 682.87V679.87C819.887 679.661 819.803 679.46 819.655 679.311C819.507 679.163 819.306 679.08 819.097 679.08C818.887 679.08 818.686 679.163 818.538 679.311C818.39 679.46 818.307 679.661 818.307 679.87Z" fill="white"/>
<path d="M780.338 876.04V873.04C780.338 872.83 780.255 872.63 780.106 872.481C779.958 872.333 779.757 872.25 779.548 872.25C779.338 872.25 779.137 872.333 778.989 872.481C778.841 872.63 778.758 872.83 778.758 873.04V876.04C778.758 876.249 778.841 876.45 778.989 876.599C779.137 876.747 779.338 876.83 779.548 876.83C779.757 876.83 779.958 876.747 780.106 876.599C780.255 876.45 780.338 876.249 780.338 876.04Z" fill="white"/>
<path d="M1190.85 428.76C1191.25 428.76 1191.63 428.602 1191.91 428.32C1192.19 428.039 1192.35 427.658 1192.35 427.26C1192.35 426.862 1192.19 426.48 1191.91 426.199C1191.63 425.918 1191.25 425.76 1190.85 425.76C1190.45 425.76 1190.07 425.918 1189.79 426.199C1189.51 426.48 1189.35 426.862 1189.35 427.26C1189.35 427.658 1189.51 428.039 1189.79 428.32C1190.07 428.602 1190.45 428.76 1190.85 428.76Z" fill="white"/>
<path d="M1256.72 125.72C1257.09 125.677 1257.42 125.501 1257.67 125.224C1257.92 124.948 1258.05 124.59 1258.05 124.22C1258.05 123.849 1257.92 123.492 1257.67 123.215C1257.42 122.939 1257.09 122.762 1256.72 122.72C1256.35 122.762 1256.01 122.939 1255.76 123.215C1255.52 123.492 1255.38 123.849 1255.38 124.22C1255.38 124.59 1255.52 124.948 1255.76 125.224C1256.01 125.501 1256.35 125.677 1256.72 125.72Z" fill="white"/>
<path d="M1307.85 340.529L1305.85 338.39C1305.13 337.62 1304.01 338.819 1304.73 339.589L1306.73 341.719C1307.45 342.489 1308.56 341.299 1307.84 340.529H1307.85Z" fill="white"/>
<path d="M1331.47 508.459V503.989C1331.47 503.78 1331.38 503.579 1331.24 503.431C1331.09 503.282 1330.89 503.199 1330.68 503.199C1330.47 503.199 1330.27 503.282 1330.12 503.431C1329.97 503.579 1329.89 503.78 1329.89 503.989V508.459C1329.89 508.669 1329.97 508.87 1330.12 509.018C1330.27 509.166 1330.47 509.249 1330.68 509.249C1330.89 509.249 1331.09 509.166 1331.24 509.018C1331.38 508.87 1331.47 508.669 1331.47 508.459Z" fill="white"/>
<path d="M1201.12 724.27C1201.49 724.227 1201.83 724.051 1202.07 723.774C1202.32 723.497 1202.45 723.14 1202.45 722.77C1202.45 722.399 1202.32 722.042 1202.07 721.765C1201.83 721.488 1201.49 721.312 1201.12 721.27C1200.75 721.312 1200.41 721.488 1200.16 721.765C1199.92 722.042 1199.78 722.399 1199.78 722.77C1199.78 723.14 1199.92 723.497 1200.16 723.774C1200.41 724.051 1200.75 724.227 1201.12 724.27Z" fill="white"/>
<path d="M1096.38 57.7295C1096.77 57.7295 1097.16 57.5715 1097.44 57.2901C1097.72 57.0088 1097.88 56.6273 1097.88 56.2295C1097.88 55.8317 1097.72 55.4501 1097.44 55.1688C1097.16 54.8875 1096.77 54.7295 1096.38 54.7295C1095.98 54.7295 1095.6 54.8875 1095.32 55.1688C1095.03 55.4501 1094.88 55.8317 1094.88 56.2295C1094.88 56.6273 1095.03 57.0088 1095.32 57.2901C1095.6 57.5715 1095.98 57.7295 1096.38 57.7295Z" fill="white"/>
<path d="M1081.85 145.83C1082.25 145.83 1082.63 145.672 1082.91 145.391C1083.19 145.109 1083.35 144.728 1083.35 144.33C1083.35 143.932 1083.19 143.551 1082.91 143.269C1082.63 142.988 1082.25 142.83 1081.85 142.83C1081.45 142.83 1081.07 142.988 1080.79 143.269C1080.51 143.551 1080.35 143.932 1080.35 144.33C1080.35 144.728 1080.51 145.109 1080.79 145.391C1081.07 145.672 1081.45 145.83 1081.85 145.83Z" fill="white"/>
<path d="M1207.17 89.9394V92.5294C1207.17 92.7389 1207.25 92.9399 1207.4 93.088C1207.55 93.2362 1207.75 93.3194 1207.96 93.3194C1208.17 93.3194 1208.37 93.2362 1208.52 93.088C1208.66 92.9399 1208.75 92.7389 1208.75 92.5294V89.9394C1208.75 89.7299 1208.66 89.529 1208.52 89.3808C1208.37 89.2326 1208.17 89.1494 1207.96 89.1494C1207.75 89.1494 1207.55 89.2326 1207.4 89.3808C1207.25 89.529 1207.17 89.7299 1207.17 89.9394Z" fill="white"/>
<path d="M1162.66 193.569V190.939C1162.66 190.73 1162.57 190.529 1162.43 190.381C1162.28 190.233 1162.08 190.149 1161.87 190.149C1161.66 190.149 1161.46 190.233 1161.31 190.381C1161.16 190.529 1161.08 190.73 1161.08 190.939V193.529C1161.08 193.739 1161.16 193.94 1161.31 194.088C1161.46 194.236 1161.66 194.319 1161.87 194.319C1162.08 194.319 1162.28 194.236 1162.43 194.088C1162.57 193.94 1162.66 193.739 1162.66 193.529V193.569Z" fill="white"/>
<path d="M1148.95 115.83V118.42C1148.95 118.63 1149.03 118.83 1149.18 118.979C1149.33 119.127 1149.53 119.21 1149.74 119.21C1149.95 119.21 1150.15 119.127 1150.3 118.979C1150.44 118.83 1150.53 118.63 1150.53 118.42V115.83C1150.53 115.621 1150.44 115.42 1150.3 115.271C1150.15 115.123 1149.95 115.04 1149.74 115.04C1149.53 115.04 1149.33 115.123 1149.18 115.271C1149.03 115.42 1148.95 115.621 1148.95 115.83Z" fill="white"/>
<path d="M1392.3 44.7793C1392.67 44.7367 1393 44.5604 1393.25 44.2838C1393.5 44.0072 1393.63 43.6497 1393.63 43.2793C1393.63 42.9089 1393.5 42.5514 1393.25 42.2748C1393 41.9982 1392.67 41.8219 1392.3 41.7793C1391.93 41.8219 1391.59 41.9982 1391.34 42.2748C1391.1 42.5514 1390.96 42.9089 1390.96 43.2793C1390.96 43.6497 1391.1 44.0072 1391.34 44.2838C1391.59 44.5604 1391.93 44.7367 1392.3 44.7793Z" fill="white"/>
<path d="M1404.43 208.02C1404.83 208.02 1405.21 207.861 1405.49 207.58C1405.77 207.299 1405.93 206.917 1405.93 206.52C1405.93 206.122 1405.77 205.74 1405.49 205.459C1405.21 205.178 1404.83 205.02 1404.43 205.02C1404.03 205.02 1403.65 205.178 1403.37 205.459C1403.09 205.74 1402.93 206.122 1402.93 206.52C1402.93 206.917 1403.09 207.299 1403.37 207.58C1403.65 207.861 1404.03 208.02 1404.43 208.02Z" fill="white"/>
<path d="M1376.11 240.21V237.62C1376.11 237.411 1376.02 237.21 1375.88 237.061C1375.73 236.913 1375.53 236.83 1375.32 236.83C1375.11 236.83 1374.91 236.913 1374.76 237.061C1374.61 237.21 1374.53 237.411 1374.53 237.62V240.21C1374.53 240.42 1374.61 240.621 1374.76 240.769C1374.91 240.917 1375.11 241 1375.32 241C1375.53 241 1375.73 240.917 1375.88 240.769C1376.02 240.621 1376.11 240.42 1376.11 240.21Z" fill="white"/>
<path d="M1302.55 301.31C1302.94 301.31 1303.33 301.152 1303.61 300.87C1303.89 300.589 1304.05 300.207 1304.05 299.81C1304.05 299.412 1303.89 299.03 1303.61 298.749C1303.33 298.468 1302.94 298.31 1302.55 298.31C1302.15 298.31 1301.77 298.468 1301.49 298.749C1301.2 299.03 1301.05 299.412 1301.05 299.81C1301.05 300.207 1301.2 300.589 1301.49 300.87C1301.77 301.152 1302.15 301.31 1302.55 301.31Z" fill="white"/>
<path d="M1326.85 176.27H1329.28C1330.28 176.27 1330.28 174.58 1329.28 174.58H1326.85C1326.64 174.603 1326.45 174.702 1326.31 174.858C1326.17 175.013 1326.09 175.216 1326.09 175.425C1326.09 175.635 1326.17 175.837 1326.31 175.993C1326.45 176.149 1326.64 176.247 1326.85 176.27Z" fill="white"/>
<path d="M1423.85 451.6C1424.25 451.6 1424.63 451.442 1424.91 451.16C1425.19 450.879 1425.35 450.497 1425.35 450.1C1425.35 449.702 1425.19 449.32 1424.91 449.039C1424.63 448.758 1424.25 448.6 1423.85 448.6C1423.45 448.6 1423.07 448.758 1422.79 449.039C1422.51 449.32 1422.35 449.702 1422.35 450.1C1422.35 450.497 1422.51 450.879 1422.79 451.16C1423.07 451.442 1423.45 451.6 1423.85 451.6Z" fill="white"/>
<path d="M1305.77 548.559V545.939C1305.77 545.73 1305.68 545.529 1305.54 545.381C1305.39 545.233 1305.19 545.149 1304.98 545.149C1304.77 545.149 1304.57 545.233 1304.42 545.381C1304.27 545.529 1304.19 545.73 1304.19 545.939V548.529C1304.19 548.739 1304.27 548.94 1304.42 549.088C1304.57 549.236 1304.77 549.319 1304.98 549.319C1305.19 549.319 1305.39 549.236 1305.54 549.088C1305.68 548.94 1305.77 548.739 1305.77 548.529V548.559Z" fill="white"/>
<path d="M1377.75 381.64C1378.11 381.597 1378.45 381.421 1378.7 381.144C1378.95 380.868 1379.08 380.51 1379.08 380.14C1379.08 379.769 1378.95 379.412 1378.7 379.135C1378.45 378.859 1378.11 378.682 1377.75 378.64C1377.38 378.682 1377.04 378.859 1376.79 379.135C1376.55 379.412 1376.41 379.769 1376.41 380.14C1376.41 380.51 1376.55 380.868 1376.79 381.144C1377.04 381.421 1377.38 381.597 1377.75 381.64Z" fill="white"/>
<path d="M1144.33 448.1L1146.76 450.69C1147.48 451.46 1148.6 450.27 1147.88 449.5L1145.45 446.94C1144.73 446.17 1143.61 447.36 1144.33 448.13V448.1Z" fill="white"/>
<path d="M1079.07 506.939C1078.72 509.649 1083.07 509.439 1082.57 506.869C1082.36 505.799 1080.84 506.249 1081.05 507.309C1081.05 507.119 1081.05 507.309 1081.05 507.239C1081.05 507.169 1081.05 507.289 1081.05 507.149C1080.98 507.269 1081.14 507.149 1081.05 507.149C1080.96 507.149 1080.95 507.309 1081.05 507.149C1081.02 507.175 1080.98 507.196 1080.95 507.209C1081.1 507.209 1081 507.209 1080.95 507.209H1080.8C1080.91 507.209 1080.89 507.209 1080.8 507.209C1080.71 507.209 1080.49 507.159 1080.67 507.209H1080.52C1080.47 507.209 1080.52 507.209 1080.58 507.209H1080.52C1080.52 507.089 1080.52 507.309 1080.52 507.209C1080.52 507.209 1080.52 507.209 1080.52 507.269C1080.52 507.329 1080.52 507.419 1080.52 507.269C1080.58 507.479 1080.52 507.269 1080.52 507.399C1080.56 507.195 1080.53 506.981 1080.43 506.798C1080.33 506.615 1080.16 506.474 1079.97 506.399C1079.86 506.368 1079.75 506.359 1079.64 506.372C1079.54 506.385 1079.43 506.42 1079.34 506.476C1079.24 506.531 1079.16 506.605 1079.1 506.694C1079.03 506.782 1078.99 506.883 1078.97 506.989L1079.07 506.939Z" fill="white"/>
<path d="M1123.06 316.859C1123.43 316.817 1123.76 316.64 1124.01 316.364C1124.26 316.087 1124.39 315.73 1124.39 315.359C1124.39 314.989 1124.26 314.631 1124.01 314.355C1123.76 314.078 1123.43 313.902 1123.06 313.859C1122.69 313.902 1122.35 314.078 1122.1 314.355C1121.86 314.631 1121.72 314.989 1121.72 315.359C1121.72 315.73 1121.86 316.087 1122.1 316.364C1122.35 316.64 1122.69 316.817 1123.06 316.859Z" fill="white"/>
<path d="M1237.62 433.939L1235.2 431.349C1234.48 430.579 1233.36 431.779 1234.08 432.549L1236.51 435.139C1237.23 435.909 1238.34 434.709 1237.62 433.939Z" fill="white"/>
<path d="M1195.33 722.41H1198.15C1198.35 722.387 1198.55 722.288 1198.69 722.132C1198.83 721.976 1198.9 721.774 1198.9 721.565C1198.9 721.355 1198.83 721.153 1198.69 720.997C1198.55 720.841 1198.35 720.742 1198.15 720.72H1195.33C1195.12 720.742 1194.93 720.841 1194.79 720.997C1194.65 721.153 1194.57 721.355 1194.57 721.565C1194.57 721.774 1194.65 721.976 1194.79 722.132C1194.93 722.288 1195.12 722.387 1195.33 722.41Z" fill="white"/>
<path d="M1159.16 820.559L1156.33 817.559C1155.61 816.799 1154.5 817.989 1155.22 818.759L1158.04 821.759C1158.76 822.519 1159.88 821.329 1159.16 820.559Z" fill="white"/>
<path d="M1137.26 624.67C1137.26 624.88 1137.26 624.56 1137.26 624.67C1137.26 624.78 1137.26 624.73 1137.26 624.67V624.75C1137.31 624.85 1137.12 624.75 1137.26 624.75C1137.4 624.75 1137.15 624.81 1137.26 624.75C1137.37 624.69 1137.32 624.75 1137.26 624.75H1137.43C1137.52 624.75 1137.32 624.75 1137.43 624.75H1137.62C1137.75 624.751 1137.88 624.793 1137.99 624.87C1137.91 624.79 1137.94 624.87 1137.99 624.87C1138.04 624.87 1137.99 624.77 1137.99 624.87C1137.99 624.81 1137.99 624.77 1137.99 624.87C1137.99 624.67 1137.94 624.96 1137.99 624.8C1137.78 625.86 1139.31 626.31 1139.51 625.25C1140.06 622.47 1135.31 622.25 1135.69 625.16C1135.71 625.267 1135.75 625.369 1135.82 625.458C1135.88 625.547 1135.96 625.622 1136.06 625.678C1136.15 625.733 1136.26 625.769 1136.36 625.781C1136.47 625.793 1136.58 625.783 1136.69 625.75C1136.88 625.674 1137.04 625.532 1137.14 625.349C1137.24 625.167 1137.28 624.954 1137.24 624.75L1137.26 624.67Z" fill="white"/>
<path d="M1071.85 836.25V833.25C1071.85 833.04 1071.76 832.839 1071.62 832.691C1071.47 832.543 1071.27 832.46 1071.06 832.46C1070.85 832.46 1070.65 832.543 1070.5 832.691C1070.35 832.839 1070.27 833.04 1070.27 833.25V836.25C1070.27 836.459 1070.35 836.66 1070.5 836.809C1070.65 836.957 1070.85 837.04 1071.06 837.04C1071.27 837.04 1071.47 836.957 1071.62 836.809C1071.76 836.66 1071.85 836.459 1071.85 836.25Z" fill="white"/>
<path d="M1395.11 655.17V658.17C1395.11 658.379 1395.19 658.58 1395.34 658.729C1395.49 658.877 1395.69 658.96 1395.9 658.96C1396.11 658.96 1396.31 658.877 1396.46 658.729C1396.6 658.58 1396.69 658.379 1396.69 658.17V655.17C1396.69 654.96 1396.6 654.759 1396.46 654.611C1396.31 654.463 1396.11 654.38 1395.9 654.38C1395.69 654.38 1395.49 654.463 1395.34 654.611C1395.19 654.759 1395.11 654.96 1395.11 655.17Z" fill="white"/>
<path d="M1357.14 851.34V848.34C1357.14 848.13 1357.05 847.929 1356.91 847.781C1356.76 847.633 1356.56 847.55 1356.35 847.55C1356.14 847.55 1355.94 847.633 1355.79 847.781C1355.64 847.929 1355.56 848.13 1355.56 848.34V851.34C1355.56 851.549 1355.64 851.75 1355.79 851.898C1355.94 852.047 1356.14 852.13 1356.35 852.13C1356.56 852.13 1356.76 852.047 1356.91 851.898C1357.05 851.75 1357.14 851.549 1357.14 851.34Z" fill="white"/>
<g style="mix-blend-mode:screen">
<path d="M64.3962 579.94C64.4121 580.778 64.1782 581.601 63.7243 582.306C63.2704 583.01 62.617 583.564 61.8474 583.895C61.0778 584.227 60.2269 584.322 59.4031 584.168C58.5793 584.015 57.8199 583.619 57.2217 583.032C56.6235 582.446 56.2136 581.694 56.0442 580.873C55.8748 580.052 55.9535 579.2 56.2704 578.424C56.5873 577.648 57.1281 576.984 57.8237 576.517C58.5193 576.05 59.3382 575.8 60.1763 575.8C60.7252 575.795 61.2698 575.898 61.7789 576.103C62.2881 576.308 62.7519 576.612 63.1437 576.996C63.5356 577.38 63.8479 577.838 64.0628 578.343C64.2777 578.849 64.391 579.391 64.3962 579.94Z" fill="#ADA693"/>
</g>
<g style="mix-blend-mode:screen">
<path d="M40.6855 753.939C40.6994 754.777 40.4635 755.6 40.0079 756.304C39.5523 757.007 38.8976 757.559 38.1272 757.889C37.3569 758.218 36.5057 758.311 35.6823 758.156C34.8588 758 34.1004 757.603 33.5036 757.015C32.9068 756.426 32.4987 755.674 32.3312 754.852C32.1638 754.031 32.2445 753.179 32.5633 752.404C32.8821 751.629 33.4244 750.966 34.1211 750.501C34.8179 750.035 35.6375 749.787 36.4755 749.789C37.0248 749.784 37.5697 749.887 38.0789 750.093C38.5882 750.299 39.0518 750.604 39.443 750.989C39.8342 751.375 40.1453 751.834 40.3586 752.34C40.5718 752.847 40.6829 753.39 40.6855 753.939Z" fill="#ADA693"/>
</g>
<g style="mix-blend-mode:screen">
<path d="M480.576 399.179C480.592 400.017 480.358 400.841 479.904 401.545C479.45 402.25 478.797 402.803 478.027 403.135C477.258 403.466 476.407 403.561 475.583 403.408C474.759 403.254 474 402.859 473.401 402.272C472.803 401.685 472.393 400.933 472.224 400.112C472.054 399.292 472.133 398.439 472.45 397.663C472.767 396.888 473.308 396.224 474.003 395.756C474.699 395.289 475.518 395.039 476.356 395.039C476.905 395.034 477.45 395.137 477.959 395.342C478.468 395.547 478.932 395.851 479.323 396.235C479.715 396.62 480.028 397.078 480.242 397.583C480.457 398.088 480.571 398.63 480.576 399.179Z" fill="#ADA693"/>
</g>
<g style="mix-blend-mode:screen">
<path d="M577.486 255.41C577.502 256.248 577.268 257.071 576.814 257.776C576.36 258.48 575.707 259.033 574.937 259.365C574.168 259.697 573.317 259.792 572.493 259.638C571.669 259.484 570.91 259.089 570.312 258.502C569.713 257.915 569.303 257.164 569.134 256.343C568.965 255.522 569.043 254.67 569.36 253.894C569.677 253.118 570.218 252.454 570.914 251.987C571.609 251.52 572.428 251.27 573.266 251.27C573.815 251.264 574.36 251.367 574.869 251.573C575.378 251.778 575.842 252.081 576.234 252.466C576.625 252.85 576.938 253.308 577.153 253.813C577.368 254.318 577.481 254.861 577.486 255.41Z" fill="#ADA693"/>
</g>
<g style="mix-blend-mode:screen">
<path d="M807.547 564.94C807.563 565.778 807.328 566.602 806.874 567.307C806.42 568.012 805.766 568.565 804.996 568.896C804.225 569.228 803.374 569.322 802.55 569.168C801.726 569.013 800.966 568.617 800.369 568.029C799.771 567.441 799.362 566.688 799.193 565.867C799.025 565.046 799.105 564.193 799.424 563.417C799.742 562.642 800.284 561.978 800.981 561.512C801.678 561.046 802.498 560.798 803.337 560.8C803.885 560.795 804.429 560.898 804.938 561.103C805.446 561.308 805.91 561.612 806.301 561.997C806.692 562.381 807.003 562.839 807.217 563.344C807.431 563.849 807.543 564.392 807.547 564.94Z" fill="#ADA693"/>
</g>
<g style="mix-blend-mode:screen">
<path d="M23.576 224.559C23.5919 225.397 23.3579 226.221 22.904 226.925C22.45 227.629 21.7967 228.183 21.0271 228.514C20.2575 228.846 19.4066 228.941 18.5828 228.788C17.759 228.634 16.9996 228.238 16.4014 227.652C15.8032 227.065 15.3933 226.313 15.2239 225.492C15.0544 224.672 15.1332 223.819 15.4501 223.043C15.767 222.267 16.3077 221.604 17.0033 221.136C17.6989 220.669 18.5179 220.419 19.3559 220.419C19.9049 220.414 20.4495 220.517 20.9587 220.722C21.4678 220.927 21.9315 221.231 22.3234 221.615C22.7153 222 23.0276 222.457 23.2425 222.963C23.4574 223.468 23.5707 224.01 23.576 224.559Z" fill="#ADA693"/>
</g>
<g style="mix-blend-mode:screen">
<path d="M364.496 147.52C364.512 148.358 364.278 149.181 363.824 149.886C363.37 150.59 362.717 151.144 361.947 151.475C361.177 151.807 360.327 151.902 359.503 151.748C358.679 151.595 357.92 151.199 357.321 150.612C356.723 150.026 356.313 149.274 356.144 148.453C355.974 147.632 356.053 146.78 356.37 146.004C356.687 145.228 357.228 144.564 357.923 144.097C358.619 143.63 359.438 143.38 360.276 143.38C361.384 143.372 362.45 143.803 363.24 144.579C364.031 145.355 364.483 146.412 364.496 147.52Z" fill="#ADA693"/>
</g>
<g style="mix-blend-mode:screen">
<path d="M489.567 431.799C489.577 432.3 489.437 432.792 489.167 433.213C488.896 433.634 488.506 433.964 488.046 434.163C487.587 434.361 487.079 434.418 486.587 434.327C486.094 434.235 485.641 433.999 485.283 433.649C484.926 433.299 484.681 432.85 484.58 432.36C484.478 431.869 484.525 431.36 484.714 430.897C484.903 430.433 485.226 430.037 485.642 429.758C486.057 429.479 486.546 429.329 487.047 429.329C487.375 429.325 487.7 429.386 488.004 429.508C488.309 429.63 488.586 429.811 488.82 430.041C489.054 430.27 489.241 430.544 489.369 430.846C489.497 431.147 489.564 431.471 489.567 431.799Z" fill="#ADA693"/>
</g>
<g style="mix-blend-mode:screen">
<path d="M551.026 527.19C551.036 527.691 550.896 528.183 550.625 528.604C550.354 529.025 549.963 529.356 549.503 529.554C549.043 529.753 548.534 529.809 548.042 529.717C547.55 529.624 547.096 529.387 546.739 529.036C546.382 528.685 546.138 528.235 546.037 527.744C545.937 527.253 545.985 526.744 546.176 526.28C546.367 525.817 546.691 525.421 547.108 525.143C547.525 524.865 548.015 524.718 548.516 524.72C548.843 524.716 549.168 524.777 549.472 524.899C549.775 525.021 550.052 525.202 550.285 525.432C550.519 525.662 550.704 525.935 550.831 526.237C550.958 526.539 551.025 526.863 551.026 527.19Z" fill="#ADA693"/>
</g>
<g style="mix-blend-mode:screen">
<path d="M836.797 452.629C836.807 453.13 836.668 453.622 836.396 454.044C836.125 454.465 835.735 454.796 835.274 454.994C834.814 455.192 834.306 455.248 833.813 455.156C833.321 455.064 832.867 454.827 832.51 454.475C832.153 454.124 831.909 453.674 831.809 453.183C831.709 452.693 831.757 452.183 831.948 451.72C832.138 451.257 832.463 450.861 832.879 450.583C833.296 450.305 833.786 450.157 834.287 450.159C834.947 450.157 835.581 450.415 836.051 450.877C836.521 451.34 836.789 451.97 836.797 452.629Z" fill="#ADA693"/>
</g>
<g style="mix-blend-mode:screen">
<path d="M889.237 648.469C889.247 648.97 889.107 649.462 888.837 649.883C888.566 650.304 888.176 650.634 887.716 650.833C887.257 651.031 886.749 651.088 886.256 650.997C885.764 650.905 885.311 650.669 884.953 650.319C884.596 649.969 884.351 649.52 884.249 649.03C884.148 648.539 884.195 648.03 884.384 647.567C884.573 647.103 884.896 646.707 885.312 646.428C885.727 646.148 886.216 645.999 886.717 645.999C887.045 645.995 887.37 646.056 887.674 646.178C887.978 646.3 888.256 646.481 888.49 646.711C888.724 646.94 888.91 647.214 889.039 647.516C889.167 647.817 889.234 648.141 889.237 648.469Z" fill="#ADA693"/>
</g>
<g style="mix-blend-mode:screen">
<path d="M668.797 423.869C668.807 424.37 668.668 424.863 668.396 425.284C668.125 425.705 667.735 426.036 667.274 426.234C666.814 426.432 666.306 426.489 665.813 426.396C665.321 426.304 664.867 426.067 664.51 425.716C664.153 425.364 663.909 424.914 663.809 424.424C663.709 423.933 663.757 423.423 663.948 422.96C664.138 422.497 664.463 422.101 664.879 421.823C665.296 421.545 665.786 421.398 666.287 421.399C666.947 421.397 667.581 421.655 668.051 422.118C668.521 422.58 668.789 423.21 668.797 423.869Z" fill="#ADA693"/>
</g>
<g style="mix-blend-mode:screen">
<path d="M757.317 584.099C758.709 584.099 759.837 582.993 759.837 581.629C759.837 580.265 758.709 579.159 757.317 579.159C755.925 579.159 754.797 580.265 754.797 581.629C754.797 582.993 755.925 584.099 757.317 584.099Z" fill="#ADA693"/>
</g>
<g style="mix-blend-mode:screen">
<path d="M189.266 395.11C189.274 395.61 189.133 396.102 188.86 396.522C188.588 396.942 188.197 397.271 187.736 397.467C187.276 397.664 186.768 397.719 186.276 397.626C185.784 397.532 185.331 397.294 184.975 396.943C184.619 396.591 184.376 396.141 184.277 395.65C184.177 395.16 184.226 394.651 184.417 394.188C184.608 393.725 184.933 393.33 185.349 393.053C185.766 392.775 186.256 392.628 186.756 392.63C187.084 392.627 187.409 392.689 187.713 392.813C188.017 392.936 188.293 393.118 188.526 393.349C188.76 393.579 188.945 393.853 189.072 394.156C189.199 394.458 189.265 394.782 189.266 395.11Z" fill="#ADA693"/>
</g>
<g style="mix-blend-mode:screen">
<path d="M50.1059 264.73C50.1159 265.23 49.9766 265.722 49.7058 266.143C49.435 266.564 49.0449 266.895 48.5854 267.093C48.1259 267.292 47.6177 267.349 47.1256 267.257C46.6336 267.166 46.1799 266.93 45.8225 266.58C45.465 266.229 45.22 265.78 45.1186 265.29C45.0173 264.8 45.0642 264.291 45.2533 263.827C45.4425 263.364 45.7654 262.967 46.1808 262.688C46.5962 262.409 47.0854 262.26 47.5859 262.26C48.2472 262.255 48.8837 262.511 49.356 262.974C49.8284 263.437 50.098 264.069 50.1059 264.73Z" fill="#ADA693"/>
</g>
<g style="mix-blend-mode:screen">
<path d="M39.396 532.23C39.4 532.403 39.3524 532.573 39.2592 532.719C39.1661 532.864 39.0316 532.979 38.873 533.048C38.7145 533.117 38.5389 533.137 38.3689 533.106C38.1988 533.074 38.0419 532.993 37.9183 532.872C37.7946 532.751 37.7097 532.596 37.6745 532.427C37.6393 532.258 37.6553 532.082 37.7205 531.922C37.7857 531.762 37.8972 531.625 38.0406 531.528C38.1841 531.432 38.3531 531.38 38.526 531.38C38.6389 531.379 38.751 531.4 38.8559 531.442C38.9607 531.484 39.0563 531.546 39.1371 531.625C39.2179 531.704 39.2823 531.798 39.3267 531.902C39.3711 532.005 39.3947 532.117 39.396 532.23Z" fill="#ADA693"/>
</g>
<g style="mix-blend-mode:screen">
<path d="M24.236 812.82C24.238 812.992 24.1887 813.162 24.0943 813.306C23.9999 813.45 23.8647 813.563 23.7059 813.631C23.5472 813.698 23.3719 813.717 23.2025 813.684C23.0331 813.652 22.8771 813.57 22.7545 813.449C22.6318 813.327 22.5479 813.172 22.5136 813.003C22.4792 812.834 22.4958 812.659 22.5613 812.499C22.6269 812.34 22.7384 812.203 22.8817 812.107C23.0249 812.011 23.1935 811.96 23.366 811.96C23.5951 811.96 23.8149 812.05 23.9777 812.211C24.1406 812.372 24.2334 812.591 24.236 812.82Z" fill="#ADA693"/>
</g>
<g style="mix-blend-mode:screen">
<path d="M100.576 680.66C100.58 680.835 100.532 681.008 100.437 681.155C100.342 681.303 100.206 681.419 100.045 681.488C99.8837 681.557 99.7056 681.577 99.5333 681.545C99.3611 681.512 99.2024 681.429 99.0777 681.306C98.953 681.182 98.8681 681.025 98.8336 680.853C98.7991 680.681 98.8168 680.503 98.8843 680.341C98.9518 680.179 99.0661 680.041 99.2125 679.945C99.359 679.848 99.5308 679.798 99.7061 679.8C99.9352 679.8 100.155 679.89 100.318 680.051C100.481 680.212 100.574 680.431 100.576 680.66Z" fill="#ADA693"/>
</g>
<g style="mix-blend-mode:screen">
<path d="M92.2067 775.84C92.2087 776.012 92.1594 776.181 92.065 776.326C91.9706 776.47 91.8355 776.583 91.6767 776.65C91.5179 776.718 91.3426 776.736 91.1732 776.704C91.0038 776.672 90.8479 776.59 90.7252 776.468C90.6026 776.347 90.5186 776.192 90.4843 776.023C90.4499 775.854 90.4665 775.679 90.5321 775.519C90.5976 775.359 90.7091 775.223 90.8524 775.127C90.9956 775.031 91.1642 774.98 91.3367 774.98C91.4505 774.978 91.5635 775 91.669 775.042C91.7745 775.085 91.8704 775.148 91.9514 775.228C92.0323 775.308 92.0965 775.403 92.1403 775.508C92.1842 775.613 92.2067 775.726 92.2067 775.84Z" fill="#ADA693"/>
</g>
<g style="mix-blend-mode:screen">
<path d="M28.2461 696.41C28.2501 696.585 28.2016 696.758 28.1069 696.905C28.0122 697.053 27.8756 697.169 27.7146 697.238C27.5536 697.307 27.3755 697.327 27.2033 697.295C27.031 697.262 26.8724 697.179 26.7477 697.056C26.623 696.932 26.538 696.775 26.5035 696.603C26.469 696.431 26.4867 696.253 26.5542 696.091C26.6217 695.929 26.736 695.791 26.8825 695.695C27.0289 695.598 27.2008 695.548 27.3761 695.55C27.6051 695.55 27.8249 695.64 27.9878 695.801C28.1506 695.962 28.2435 696.181 28.2461 696.41Z" fill="#ADA693"/>
</g>
<g style="mix-blend-mode:screen">
<path d="M5.21724 275.94C5.22717 276.44 5.08789 276.932 4.81709 277.353C4.5463 277.774 4.1563 278.105 3.69679 278.303C3.23728 278.502 2.72909 278.559 2.23701 278.467C1.74493 278.376 1.29124 278.14 0.93379 277.79C0.576343 277.439 0.331289 276.99 0.229933 276.5C0.128576 276.01 0.175523 275.501 0.364698 275.037C0.553873 274.574 0.876763 274.177 1.29219 273.898C1.70761 273.619 2.19676 273.47 2.69728 273.47C3.02511 273.466 3.35047 273.527 3.65474 273.649C3.959 273.771 4.23615 273.952 4.47029 274.181C4.70443 274.411 4.89093 274.684 5.01912 274.986C5.1473 275.288 5.21463 275.612 5.21724 275.94Z" fill="#ADA693"/>
</g>
<g style="mix-blend-mode:screen">
<path d="M435.227 354.02C435.237 354.52 435.098 355.012 434.827 355.433C434.556 355.854 434.166 356.185 433.706 356.383C433.247 356.582 432.739 356.639 432.247 356.547C431.755 356.456 431.301 356.22 430.944 355.87C430.586 355.519 430.341 355.07 430.24 354.58C430.138 354.09 430.185 353.581 430.374 353.117C430.564 352.654 430.886 352.257 431.302 351.978C431.717 351.699 432.206 351.55 432.707 351.55C433.368 351.545 434.005 351.801 434.477 352.264C434.949 352.727 435.219 353.359 435.227 354.02Z" fill="#ADA693"/>
</g>
<g style="mix-blend-mode:screen">
<path d="M239.737 693.4C239.747 693.901 239.607 694.393 239.336 694.814C239.065 695.235 238.674 695.566 238.214 695.764C237.754 695.962 237.245 696.019 236.753 695.927C236.26 695.834 235.807 695.597 235.45 695.246C235.093 694.895 234.848 694.445 234.748 693.954C234.648 693.463 234.696 692.954 234.887 692.49C235.078 692.027 235.402 691.631 235.819 691.353C236.236 691.075 236.726 690.928 237.227 690.93C237.554 690.927 237.878 690.989 238.181 691.112C238.484 691.234 238.76 691.416 238.993 691.645C239.226 691.874 239.412 692.147 239.54 692.448C239.667 692.749 239.734 693.073 239.737 693.4Z" fill="#ADA693"/>
</g>
<g style="mix-blend-mode:screen">
<path d="M304.227 60.6693C304.237 61.1701 304.097 61.6626 303.826 62.0837C303.555 62.5049 303.164 62.8357 302.704 63.0338C302.244 63.2319 301.735 63.2884 301.243 63.1961C300.751 63.1038 300.297 62.8668 299.94 62.5154C299.583 62.1641 299.339 61.7143 299.238 61.2235C299.138 60.7326 299.187 60.2231 299.377 59.7599C299.568 59.2967 299.892 58.9008 300.309 58.6228C300.726 58.3449 301.216 58.1974 301.717 58.1993C302.044 58.1967 302.368 58.2585 302.671 58.3812C302.974 58.5039 303.251 58.6851 303.484 58.9144C303.717 59.1438 303.902 59.4168 304.03 59.7179C304.157 60.019 304.224 60.3423 304.227 60.6693Z" fill="#ADA693"/>
</g>
<g style="mix-blend-mode:screen">
<path d="M603.317 175.709C603.327 176.21 603.187 176.703 602.916 177.124C602.645 177.545 602.254 177.876 601.794 178.074C601.334 178.272 600.825 178.328 600.333 178.236C599.84 178.144 599.387 177.907 599.03 177.555C598.673 177.204 598.429 176.754 598.328 176.263C598.228 175.773 598.276 175.263 598.467 174.8C598.658 174.337 598.982 173.941 599.399 173.663C599.816 173.385 600.306 173.237 600.807 173.239C601.466 173.237 602.1 173.495 602.57 173.957C603.041 174.42 603.309 175.05 603.317 175.709Z" fill="#ADA693"/>
</g>
<g style="mix-blend-mode:screen">
<path d="M105.536 65.7993C105.546 66.2997 105.406 66.7917 105.135 67.2127C104.865 67.6336 104.475 67.9644 104.015 68.1628C103.556 68.3612 103.047 68.4183 102.555 68.3268C102.063 68.2353 101.61 67.9993 101.252 67.649C100.895 67.2986 100.65 66.8497 100.548 66.3596C100.447 65.8694 100.494 65.3602 100.683 64.8968C100.872 64.4334 101.195 64.0369 101.61 63.7577C102.026 63.4785 102.515 63.3294 103.016 63.3293C103.343 63.3253 103.669 63.3861 103.973 63.5083C104.277 63.6304 104.555 63.8114 104.789 64.0409C105.023 64.2703 105.209 64.5438 105.337 64.8456C105.466 65.1473 105.533 65.4714 105.536 65.7993Z" fill="#ADA693"/>
</g>
<path d="M91.5059 160.17C91.9037 160.17 92.2852 160.012 92.5665 159.731C92.8478 159.449 93.0059 159.068 93.0059 158.67C93.0059 158.272 92.8478 157.891 92.5665 157.609C92.2852 157.328 91.9037 157.17 91.5059 157.17C91.108 157.17 90.7265 157.328 90.4452 157.609C90.1639 157.891 90.0059 158.272 90.0059 158.67C90.0059 159.068 90.1639 159.449 90.4452 159.731C90.7265 160.012 91.108 160.17 91.5059 160.17Z" fill="white"/>
<path d="M62.4062 331.189C62.8041 331.189 63.1856 331.031 63.4669 330.75C63.7482 330.469 63.9062 330.087 63.9062 329.689C63.9062 329.292 63.7482 328.91 63.4669 328.629C63.1856 328.347 62.8041 328.189 62.4062 328.189C62.0084 328.189 61.6269 328.347 61.3456 328.629C61.0643 328.91 60.9062 329.292 60.9062 329.689C60.9062 330.087 61.0643 330.469 61.3456 330.75C61.6269 331.031 62.0084 331.189 62.4062 331.189Z" fill="white"/>
<path d="M16.7167 562.17V559.17C16.7167 558.96 16.6334 558.759 16.4853 558.611C16.3371 558.463 16.1362 558.38 15.9267 558.38C15.7172 558.38 15.5163 558.463 15.3681 558.611C15.2199 558.759 15.1367 558.96 15.1367 559.17V562.17C15.1367 562.379 15.2199 562.58 15.3681 562.729C15.5163 562.877 15.7172 562.96 15.9267 562.96C16.1362 562.96 16.3371 562.877 16.4853 562.729C16.6334 562.58 16.7167 562.379 16.7167 562.17Z" fill="white"/>
<path d="M175.797 428.76C176.195 428.76 176.576 428.602 176.858 428.32C177.139 428.039 177.297 427.658 177.297 427.26C177.297 426.862 177.139 426.48 176.858 426.199C176.576 425.918 176.195 425.76 175.797 425.76C175.399 425.76 175.018 425.918 174.736 426.199C174.455 426.48 174.297 426.862 174.297 427.26C174.297 427.658 174.455 428.039 174.736 428.32C175.018 428.602 175.399 428.76 175.797 428.76Z" fill="white"/>
<path d="M441.436 187.609C441.804 187.567 442.144 187.39 442.39 187.114C442.637 186.837 442.773 186.48 442.773 186.109C442.773 185.739 442.637 185.381 442.39 185.105C442.144 184.828 441.804 184.652 441.436 184.609C441.068 184.652 440.729 184.828 440.482 185.105C440.236 185.381 440.1 185.739 440.1 186.109C440.1 186.48 440.236 186.837 440.482 187.114C440.729 187.39 441.068 187.567 441.436 187.609Z" fill="white"/>
<path d="M645.797 353.16L647.797 351.03C648.517 350.26 647.407 349.03 646.687 349.84L644.687 351.97C643.967 352.74 645.077 353.97 645.797 353.16Z" fill="white"/>
<path d="M501.366 529.069C501.734 529.027 502.073 528.85 502.32 528.574C502.566 528.297 502.702 527.94 502.702 527.569C502.702 527.199 502.566 526.841 502.32 526.565C502.073 526.288 501.734 526.112 501.366 526.069C500.998 526.112 500.658 526.288 500.412 526.565C500.165 526.841 500.029 527.199 500.029 527.569C500.029 527.94 500.165 528.297 500.412 528.574C500.658 528.85 500.998 529.027 501.366 529.069Z" fill="white"/>
<path d="M873.077 60.3701L871.857 61.6601C871.137 62.4301 872.257 63.6601 872.977 62.8601C873.377 62.4201 873.787 61.9901 874.187 61.5601C874.907 60.7901 873.797 59.5601 873.077 60.3701L871.857 61.6601C871.137 62.4301 872.257 63.6601 872.977 62.8601C873.377 62.4201 873.787 61.9901 874.187 61.5601C874.907 60.7901 873.797 59.5601 873.077 60.3701Z" fill="white"/>
<path d="M730.316 147.689V149.819C730.316 150.029 730.4 150.23 730.548 150.378C730.696 150.526 730.897 150.609 731.106 150.609C731.316 150.609 731.517 150.526 731.665 150.378C731.813 150.23 731.896 150.029 731.896 149.819V147.689C731.896 147.48 731.813 147.279 731.665 147.131C731.517 146.983 731.316 146.899 731.106 146.899C730.897 146.899 730.696 146.983 730.548 147.131C730.4 147.279 730.316 147.48 730.316 147.689Z" fill="white"/>
<path d="M241.667 125.72C242.035 125.677 242.374 125.501 242.62 125.224C242.867 124.948 243.003 124.59 243.003 124.22C243.003 123.849 242.867 123.492 242.62 123.215C242.374 122.939 242.035 122.762 241.667 122.72C241.299 122.762 240.959 122.939 240.713 123.215C240.466 123.492 240.33 123.849 240.33 124.22C240.33 124.59 240.466 124.948 240.713 125.224C240.959 125.501 241.299 125.677 241.667 125.72Z" fill="white"/>
<path d="M292.797 340.529L290.797 338.39C290.077 337.62 288.957 338.819 289.677 339.589L291.677 341.719C292.397 342.489 293.507 341.299 292.787 340.529H292.797Z" fill="white"/>
<path d="M316.416 508.459V503.989C316.416 503.78 316.333 503.579 316.185 503.431C316.036 503.282 315.835 503.199 315.626 503.199C315.416 503.199 315.215 503.282 315.067 503.431C314.919 503.579 314.836 503.78 314.836 503.989V508.459C314.836 508.669 314.919 508.87 315.067 509.018C315.215 509.166 315.416 509.249 315.626 509.249C315.835 509.249 316.036 509.166 316.185 509.018C316.333 508.87 316.416 508.669 316.416 508.459Z" fill="white"/>
<path d="M186.067 724.27C186.435 724.227 186.775 724.051 187.021 723.774C187.267 723.497 187.404 723.14 187.404 722.77C187.404 722.399 187.267 722.042 187.021 721.765C186.775 721.488 186.435 721.312 186.067 721.27C185.699 721.312 185.36 721.488 185.113 721.765C184.867 722.042 184.73 722.399 184.73 722.77C184.73 723.14 184.867 723.497 185.113 723.774C185.36 724.051 185.699 724.227 186.067 724.27Z" fill="white"/>
<path d="M81.3262 57.7295C81.724 57.7295 82.1055 57.5715 82.3868 57.2901C82.6681 57.0088 82.8262 56.6273 82.8262 56.2295C82.8262 55.8317 82.6681 55.4501 82.3868 55.1688C82.1055 54.8875 81.724 54.7295 81.3262 54.7295C80.9283 54.7295 80.5468 54.8875 80.2655 55.1688C79.9842 55.4501 79.8262 55.8317 79.8262 56.2295C79.8262 56.6273 79.9842 57.0088 80.2655 57.2901C80.5468 57.5715 80.9283 57.7295 81.3262 57.7295Z" fill="white"/>
<path d="M66.7969 145.83C67.1947 145.83 67.5762 145.672 67.8575 145.391C68.1388 145.109 68.2969 144.728 68.2969 144.33C68.2969 143.932 68.1388 143.551 67.8575 143.269C67.5762 142.988 67.1947 142.83 66.7969 142.83C66.3991 142.83 66.0175 142.988 65.7362 143.269C65.4549 143.551 65.2969 143.932 65.2969 144.33C65.2969 144.728 65.4549 145.109 65.7362 145.391C66.0175 145.672 66.3991 145.83 66.7969 145.83Z" fill="white"/>
<path d="M192.117 89.9394V92.5294C192.117 92.7389 192.2 92.9399 192.349 93.088C192.497 93.2362 192.698 93.3194 192.907 93.3194C193.117 93.3194 193.318 93.2362 193.466 93.088C193.614 92.9399 193.697 92.7389 193.697 92.5294V89.9394C193.697 89.7299 193.614 89.529 193.466 89.3808C193.318 89.2326 193.117 89.1494 192.907 89.1494C192.698 89.1494 192.497 89.2326 192.349 89.3808C192.2 89.529 192.117 89.7299 192.117 89.9394Z" fill="white"/>
<path d="M147.607 193.569V190.939C147.607 190.73 147.524 190.529 147.376 190.381C147.228 190.233 147.027 190.149 146.817 190.149C146.608 190.149 146.407 190.233 146.259 190.381C146.111 190.529 146.027 190.73 146.027 190.939V193.529C146.027 193.739 146.111 193.94 146.259 194.088C146.407 194.236 146.608 194.319 146.817 194.319C147.027 194.319 147.228 194.236 147.376 194.088C147.524 193.94 147.607 193.739 147.607 193.529V193.569Z" fill="white"/>
<path d="M133.896 115.83V118.42C133.896 118.63 133.98 118.83 134.128 118.979C134.276 119.127 134.477 119.21 134.687 119.21C134.896 119.21 135.097 119.127 135.245 118.979C135.393 118.83 135.477 118.63 135.477 118.42V115.83C135.477 115.621 135.393 115.42 135.245 115.271C135.097 115.123 134.896 115.04 134.687 115.04C134.477 115.04 134.276 115.123 134.128 115.271C133.98 115.42 133.896 115.621 133.896 115.83Z" fill="white"/>
<path d="M377.247 44.7793C377.615 44.7367 377.954 44.5604 378.201 44.2838C378.447 44.0072 378.583 43.6497 378.583 43.2793C378.583 42.9089 378.447 42.5514 378.201 42.2748C377.954 41.9982 377.615 41.8219 377.247 41.7793C376.879 41.8219 376.539 41.9982 376.293 42.2748C376.046 42.5514 375.91 42.9089 375.91 43.2793C375.91 43.6497 376.046 44.0072 376.293 44.2838C376.539 44.5604 376.879 44.7367 377.247 44.7793Z" fill="white"/>
<path d="M389.377 208.02C389.775 208.02 390.156 207.861 390.438 207.58C390.719 207.299 390.877 206.917 390.877 206.52C390.877 206.122 390.719 205.74 390.438 205.459C390.156 205.178 389.775 205.02 389.377 205.02C388.979 205.02 388.598 205.178 388.316 205.459C388.035 205.74 387.877 206.122 387.877 206.52C387.877 206.917 388.035 207.299 388.316 207.58C388.598 207.861 388.979 208.02 389.377 208.02Z" fill="white"/>
<path d="M361.057 240.21V237.62C361.057 237.411 360.973 237.21 360.825 237.061C360.677 236.913 360.476 236.83 360.267 236.83C360.057 236.83 359.856 236.913 359.708 237.061C359.56 237.21 359.477 237.411 359.477 237.62V240.21C359.477 240.42 359.56 240.621 359.708 240.769C359.856 240.917 360.057 241 360.267 241C360.476 241 360.677 240.917 360.825 240.769C360.973 240.621 361.057 240.42 361.057 240.21Z" fill="white"/>
<path d="M287.496 301.31C287.894 301.31 288.275 301.152 288.557 300.87C288.838 300.589 288.996 300.207 288.996 299.81C288.996 299.412 288.838 299.03 288.557 298.749C288.275 298.468 287.894 298.31 287.496 298.31C287.098 298.31 286.717 298.468 286.435 298.749C286.154 299.03 285.996 299.412 285.996 299.81C285.996 300.207 286.154 300.589 286.435 300.87C286.717 301.152 287.098 301.31 287.496 301.31Z" fill="white"/>
<path d="M311.797 176.27H314.227C315.227 176.27 315.227 174.58 314.227 174.58H311.797C311.589 174.603 311.396 174.702 311.256 174.858C311.116 175.013 311.039 175.216 311.039 175.425C311.039 175.635 311.116 175.837 311.256 175.993C311.396 176.149 311.589 176.247 311.797 176.27Z" fill="white"/>
<path d="M547.596 208.52L545.166 205.93C544.446 205.16 543.336 206.35 544.056 207.12L546.476 209.71C547.196 210.48 548.316 209.29 547.596 208.52Z" fill="white"/>
<path d="M528.426 380.14V377.54C528.426 377.33 528.342 377.13 528.194 376.981C528.046 376.833 527.845 376.75 527.636 376.75C527.426 376.75 527.225 376.833 527.077 376.981C526.929 377.13 526.846 377.33 526.846 377.54V380.14C526.846 380.35 526.929 380.55 527.077 380.699C527.225 380.847 527.426 380.93 527.636 380.93C527.845 380.93 528.046 380.847 528.194 380.699C528.342 380.55 528.426 380.35 528.426 380.14Z" fill="white"/>
<path d="M408.797 451.6C409.195 451.6 409.576 451.442 409.858 451.16C410.139 450.879 410.297 450.497 410.297 450.1C410.297 449.702 410.139 449.32 409.858 449.039C409.576 448.758 409.195 448.6 408.797 448.6C408.399 448.6 408.018 448.758 407.736 449.039C407.455 449.32 407.297 449.702 407.297 450.1C407.297 450.497 407.455 450.879 407.736 451.16C408.018 451.442 408.399 451.6 408.797 451.6Z" fill="white"/>
<path d="M290.717 548.559V545.939C290.717 545.73 290.633 545.529 290.485 545.381C290.337 545.233 290.136 545.149 289.927 545.149C289.717 545.149 289.516 545.233 289.368 545.381C289.22 545.529 289.137 545.73 289.137 545.939V548.529C289.137 548.739 289.22 548.94 289.368 549.088C289.516 549.236 289.717 549.319 289.927 549.319C290.136 549.319 290.337 549.236 290.485 549.088C290.633 548.94 290.717 548.739 290.717 548.529V548.559Z" fill="white"/>
<path d="M362.696 381.64C363.064 381.597 363.403 381.421 363.65 381.144C363.896 380.868 364.032 380.51 364.032 380.14C364.032 379.769 363.896 379.412 363.65 379.135C363.403 378.859 363.064 378.682 362.696 378.64C362.328 378.682 361.988 378.859 361.742 379.135C361.496 379.412 361.359 379.769 361.359 380.14C361.359 380.51 361.496 380.868 361.742 381.144C361.988 381.421 362.328 381.597 362.696 381.64Z" fill="white"/>
<path d="M129.277 448.1L131.707 450.69C132.427 451.46 133.547 450.27 132.827 449.5L130.397 446.94C129.677 446.17 128.557 447.36 129.277 448.13V448.1Z" fill="white"/>
<path d="M64.016 506.939C63.666 509.649 68.016 509.439 67.516 506.869C67.306 505.799 65.786 506.249 65.996 507.309C65.996 507.119 65.996 507.309 65.996 507.239C65.996 507.169 65.996 507.289 65.996 507.149C65.926 507.269 66.086 507.149 65.996 507.149C65.906 507.149 65.896 507.309 65.996 507.149C65.9665 507.175 65.9326 507.196 65.896 507.209C66.046 507.209 65.946 507.209 65.896 507.209H65.746C65.856 507.209 65.836 507.209 65.746 507.209C65.656 507.209 65.436 507.159 65.616 507.209H65.466C65.416 507.209 65.466 507.209 65.526 507.209H65.466C65.466 507.089 65.466 507.309 65.466 507.209C65.466 507.209 65.466 507.209 65.466 507.269C65.466 507.329 65.466 507.419 65.466 507.269C65.526 507.479 65.466 507.269 65.466 507.399C65.5081 507.195 65.4759 506.981 65.3751 506.798C65.2743 506.615 65.1116 506.474 64.916 506.399C64.8116 506.368 64.7017 506.359 64.5934 506.372C64.4852 506.385 64.3808 506.42 64.2869 506.476C64.1929 506.531 64.1114 506.605 64.0476 506.694C63.9838 506.782 63.939 506.883 63.916 506.989L64.016 506.939Z" fill="white"/>
<path d="M108.006 316.859C108.374 316.817 108.714 316.64 108.96 316.364C109.207 316.087 109.343 315.73 109.343 315.359C109.343 314.989 109.207 314.631 108.96 314.355C108.714 314.078 108.374 313.902 108.006 313.859C107.638 313.902 107.299 314.078 107.053 314.355C106.806 314.631 106.67 314.989 106.67 315.359C106.67 315.73 106.806 316.087 107.053 316.364C107.299 316.64 107.638 316.817 108.006 316.859Z" fill="white"/>
<path d="M222.567 433.939L220.147 431.349C219.427 430.579 218.307 431.779 219.027 432.549L221.457 435.139C222.177 435.909 223.287 434.709 222.567 433.939Z" fill="white"/>
<path d="M544.606 62.9395C544.974 62.8969 545.314 62.7205 545.56 62.444C545.806 62.1674 545.943 61.8099 545.943 61.4395C545.943 61.069 545.806 60.7115 545.56 60.4349C545.314 60.1584 544.974 59.982 544.606 59.9395C544.238 59.982 543.899 60.1584 543.652 60.4349C543.406 60.7115 543.27 61.069 543.27 61.4395C543.27 61.8099 543.406 62.1674 543.652 62.444C543.899 62.7205 544.238 62.8969 544.606 62.9395Z" fill="white"/>
<path d="M668.316 135.47C668.714 135.47 669.096 135.312 669.377 135.03C669.658 134.749 669.816 134.368 669.816 133.97C669.816 133.572 669.658 133.19 669.377 132.909C669.096 132.628 668.714 132.47 668.316 132.47C667.919 132.47 667.537 132.628 667.256 132.909C666.974 133.19 666.816 133.572 666.816 133.97C666.816 134.368 666.974 134.749 667.256 135.03C667.537 135.312 667.919 135.47 668.316 135.47Z" fill="white"/>
<path d="M639.207 306.489C639.605 306.489 639.986 306.331 640.268 306.05C640.549 305.769 640.707 305.387 640.707 304.989C640.707 304.591 640.549 304.21 640.268 303.929C639.986 303.647 639.605 303.489 639.207 303.489C638.809 303.489 638.428 303.647 638.146 303.929C637.865 304.21 637.707 304.591 637.707 304.989C637.707 305.387 637.865 305.769 638.146 306.05C638.428 306.331 638.809 306.489 639.207 306.489Z" fill="white"/>
<path d="M593.517 537.47V534.47C593.517 534.366 593.497 534.263 593.457 534.167C593.418 534.072 593.359 533.984 593.286 533.911C593.213 533.838 593.126 533.78 593.03 533.74C592.934 533.7 592.831 533.68 592.728 533.68C592.624 533.68 592.521 533.7 592.425 533.74C592.329 533.78 592.242 533.838 592.169 533.911C592.095 533.984 592.037 534.072 591.998 534.167C591.958 534.263 591.937 534.366 591.938 534.47V537.47C591.937 537.573 591.958 537.676 591.998 537.772C592.037 537.868 592.095 537.955 592.169 538.028C592.242 538.102 592.329 538.16 592.425 538.2C592.521 538.239 592.624 538.26 592.728 538.26C592.831 538.26 592.934 538.239 593.03 538.2C593.126 538.16 593.213 538.102 593.286 538.028C593.359 537.955 593.418 537.868 593.457 537.772C593.497 537.676 593.517 537.573 593.517 537.47Z" fill="white"/>
<path d="M474.076 698.939C474.474 698.939 474.855 698.781 475.137 698.5C475.418 698.219 475.576 697.837 475.576 697.439C475.576 697.042 475.418 696.66 475.137 696.379C474.855 696.097 474.474 695.939 474.076 695.939C473.678 695.939 473.297 696.097 473.016 696.379C472.734 696.66 472.576 697.042 472.576 697.439C472.576 697.837 472.734 698.219 473.016 698.5C473.297 698.781 473.678 698.939 474.076 698.939Z" fill="white"/>
<path d="M180.276 722.41H183.096C183.304 722.387 183.496 722.288 183.636 722.132C183.776 721.976 183.853 721.774 183.853 721.565C183.853 721.355 183.776 721.153 183.636 720.997C183.496 720.841 183.304 720.742 183.096 720.72H180.276C180.067 720.742 179.875 720.841 179.735 720.997C179.595 721.153 179.518 721.355 179.518 721.565C179.518 721.774 179.595 721.976 179.735 722.132C179.875 722.288 180.067 722.387 180.276 722.41Z" fill="white"/>
<path d="M144.107 820.559L141.277 817.559C140.557 816.799 139.447 817.989 140.167 818.759L142.987 821.759C143.707 822.519 144.827 821.329 144.107 820.559Z" fill="white"/>
<path d="M122.207 624.67C122.207 624.88 122.207 624.56 122.207 624.67C122.207 624.78 122.207 624.73 122.207 624.67V624.75C122.257 624.85 122.067 624.75 122.207 624.75C122.347 624.75 122.097 624.81 122.207 624.75C122.317 624.69 122.267 624.75 122.207 624.75H122.377C122.467 624.75 122.267 624.75 122.377 624.75H122.567C122.7 624.751 122.829 624.793 122.937 624.87C122.857 624.79 122.887 624.87 122.937 624.87C122.987 624.87 122.937 624.77 122.937 624.87C122.937 624.81 122.937 624.77 122.937 624.87C122.937 624.67 122.887 624.96 122.937 624.8C122.727 625.86 124.257 626.31 124.457 625.25C125.007 622.47 120.257 622.25 120.637 625.16C120.658 625.267 120.702 625.369 120.766 625.458C120.829 625.547 120.911 625.622 121.005 625.678C121.1 625.733 121.205 625.769 121.313 625.781C121.422 625.793 121.532 625.783 121.637 625.75C121.831 625.674 121.993 625.532 122.093 625.349C122.194 625.167 122.227 624.954 122.187 624.75L122.207 624.67Z" fill="white"/>
<path d="M56.7968 836.25V833.25C56.7968 833.04 56.7136 832.839 56.5654 832.691C56.4173 832.543 56.2164 832.46 56.0068 832.46C55.7973 832.46 55.5963 832.543 55.4482 832.691C55.3 832.839 55.2168 833.04 55.2168 833.25V836.25C55.2168 836.459 55.3 836.66 55.4482 836.809C55.5963 836.957 55.7973 837.04 56.0068 837.04C56.2164 837.04 56.4173 836.957 56.5654 836.809C56.7136 836.66 56.7968 836.459 56.7968 836.25Z" fill="white"/>
<path d="M380.057 655.17V658.17C380.057 658.379 380.14 658.58 380.288 658.729C380.436 658.877 380.637 658.96 380.847 658.96C381.056 658.96 381.257 658.877 381.405 658.729C381.553 658.58 381.637 658.379 381.637 658.17V655.17C381.637 654.96 381.553 654.759 381.405 654.611C381.257 654.463 381.056 654.38 380.847 654.38C380.637 654.38 380.436 654.463 380.288 654.611C380.14 654.759 380.057 654.96 380.057 655.17Z" fill="white"/>
<path d="M342.086 851.34V848.34C342.086 848.13 342.003 847.929 341.854 847.781C341.706 847.633 341.505 847.55 341.296 847.55C341.086 847.55 340.885 847.633 340.737 847.781C340.589 847.929 340.506 848.13 340.506 848.34V851.34C340.506 851.549 340.589 851.75 340.737 851.898C340.885 852.047 341.086 852.13 341.296 852.13C341.505 852.13 341.706 852.047 341.854 851.898C342.003 851.75 342.086 851.549 342.086 851.34Z" fill="white"/>
<path d="M752.557 404.06C752.954 404.06 753.336 403.902 753.617 403.62C753.899 403.339 754.057 402.957 754.057 402.56C754.057 402.162 753.899 401.78 753.617 401.499C753.336 401.218 752.954 401.06 752.557 401.06C752.159 401.06 751.777 401.218 751.496 401.499C751.215 401.78 751.057 402.162 751.057 402.56C751.057 402.957 751.215 403.339 751.496 403.62C751.777 403.902 752.159 404.06 752.557 404.06Z" fill="white"/>
<path d="M818.477 101.01C818.874 101.01 819.256 100.852 819.537 100.57C819.818 100.289 819.977 99.9076 819.977 99.5098C819.977 99.1119 819.818 98.7304 819.537 98.4491C819.256 98.1678 818.874 98.0098 818.477 98.0098C818.079 98.0098 817.697 98.1678 817.416 98.4491C817.135 98.7304 816.977 99.1119 816.977 99.5098C816.977 99.9076 817.135 100.289 817.416 100.57C817.697 100.852 818.079 101.01 818.477 101.01Z" fill="white"/>
<path d="M869.647 315.82L867.647 313.69C866.927 312.92 865.807 314.11 866.527 314.88L868.527 317.02C869.247 317.79 870.367 316.59 869.647 315.82Z" fill="white"/>
<path d="M893.217 483.76V479.29C893.217 479.186 893.196 479.084 893.157 478.988C893.117 478.892 893.059 478.805 892.985 478.731C892.912 478.658 892.825 478.6 892.729 478.56C892.633 478.52 892.531 478.5 892.427 478.5C892.323 478.5 892.22 478.52 892.124 478.56C892.029 478.6 891.942 478.658 891.868 478.731C891.795 478.805 891.737 478.892 891.697 478.988C891.657 479.084 891.637 479.186 891.637 479.29V483.76C891.637 483.864 891.657 483.966 891.697 484.062C891.737 484.158 891.795 484.245 891.868 484.319C891.942 484.392 892.029 484.45 892.124 484.49C892.22 484.53 892.323 484.55 892.427 484.55C892.531 484.55 892.633 484.53 892.729 484.49C892.825 484.45 892.912 484.392 892.985 484.319C893.059 484.245 893.117 484.158 893.157 484.062C893.196 483.966 893.217 483.864 893.217 483.76Z" fill="white"/>
<path d="M762.867 699.56C763.265 699.56 763.647 699.402 763.928 699.12C764.209 698.839 764.367 698.457 764.367 698.06C764.367 697.662 764.209 697.28 763.928 696.999C763.647 696.718 763.265 696.56 762.867 696.56C762.469 696.56 762.088 696.718 761.807 696.999C761.525 697.28 761.367 697.662 761.367 698.06C761.367 698.457 761.525 698.839 761.807 699.12C762.088 699.402 762.469 699.56 762.867 699.56Z" fill="white"/>
<path opacity="0.5" fill-rule="evenodd" clip-rule="evenodd" d="M1886.78 -339.723C1850.17 -370.512 1734.34 -340.28 1686.24 -325.107C1643.15 -311.518 1607.29 -271.081 1595.45 -226.555C1587.51 -196.628 1668.47 -176.966 1685.4 -147.969C1711.59 -103.008 1710.97 -54.0022 1649.4 -30.7301C1603 -13.1912 1532.26 -16.993 1487.51 1.5116C1440.78 20.8079 1432.83 57.4864 1387.31 77.5135C1345.56 95.8963 1277.76 94.0432 1235.71 112.313C1179.73 136.603 1203.57 192.247 1102.18 201.225C1013.39 209.099 966.573 292.713 891.636 251.467C816.7 210.221 805.992 314.384 891.636 317.186C977.281 319.987 1016.12 249.823 1097.02 230.857C1166.69 214.519 1290.3 239.722 1325.67 215.397C1367.55 186.601 1276.2 133.401 1302.54 116.811C1354.43 84.1515 1477.32 119.186 1526.04 89.1104C1551.04 73.7117 1508.42 43.7581 1526.04 25.9843C1563.36 -11.7296 1688.79 30.3951 1813.77 2.79047C1879.01 -11.6078 1975.2 54.2588 2021.87 27.2631C2072.24 -1.83789 1966.34 -46.3115 1965.37 -84.8431C1964.58 -115.675 1969.74 -153.842 2016.77 -173.756C2076.9 -199.194 2193.2 -173.843 2245.4 -203.335C2287.51 -227.138 2209.11 -270.324 2237.68 -298.686C2263.11 -323.915 2335.33 -308.943 2384.13 -322.897V-381.186C2384.13 -385.101 2156.29 -308.977 2134.93 -279.354C2114.76 -251.367 2041.29 -284.844 1998.75 -276.745C1922.28 -262.259 1862.62 -215.202 1782.93 -205.893C1740.75 -200.96 1715.45 -231.366 1749.55 -245.825C1784.64 -260.772 1892.26 -310.604 1886.78 -339.723ZM1933.21 -33.34C1949.54 -37.8118 1972.73 -32.3657 1984.98 -21.1602C1997.23 -9.95483 1994.03 2.82527 1977.72 7.297C1961.42 11.7687 1938.16 6.3226 1925.89 -4.88281C1913.63 -16.0882 1916.84 -28.8335 1933.21 -33.34ZM1231.64 -162.054C1224.29 -164.064 1213.92 -161.628 1208.39 -156.582C1202.87 -151.536 1204.33 -145.838 1211.67 -143.828C1219.01 -141.818 1229.39 -144.254 1234.92 -149.3C1240.44 -154.346 1238.92 -160.045 1231.64 -162.054ZM1254.27 -126.08C1241.29 -129.639 1222.91 -125.315 1213.19 -116.398C1203.48 -107.48 1206.03 -97.4057 1219.02 -93.8475C1232.01 -90.2892 1250.33 -94.6044 1260.05 -103.522C1269.76 -112.439 1267.2 -122.522 1254.27 -126.08ZM1892.37 -521.837C1880.42 -525.125 1863.34 -521.132 1854.38 -512.885C1845.41 -504.637 1847.76 -495.259 1859.72 -492.005C1871.67 -488.751 1888.74 -492.701 1897.77 -500.948C1906.8 -509.196 1904.38 -518.574 1892.37 -521.828V-521.837ZM1497.4 58.7305C1485.45 55.4507 1468.37 59.4613 1459.41 67.7175C1450.44 75.9736 1452.79 85.3086 1464.75 88.5971C1476.7 91.8857 1493.77 87.8924 1502.8 79.645C1511.83 71.3975 1509.41 62.0539 1497.4 58.7653V58.7305ZM1918.71 -71.1757C1926.11 -73.1854 1936.61 -70.7146 1942.14 -65.6339C1947.66 -60.5532 1946.2 -54.8026 1938.86 -52.7581C1931.52 -50.7137 1920.96 -53.2192 1915.43 -58.2999C1909.91 -63.3806 1911.37 -69.1399 1918.71 -71.1757Z" fill="#B89774"/>
</g>
<defs>
<clipPath id="clip0_121_1023">
<rect width="1440" height="900" fill="white"/>
</clipPath>
</defs>
</svg>
