<svg width="1440" height="900" viewBox="0 0 1440 900" fill="none" xmlns="http://www.w3.org/2000/svg">
<g clip-path="url(#clip0_121_1587)">
<rect width="1440" height="900" fill="white"/>
<path d="M1440 0H0V900H1440V0Z" fill="#470B96"/>
<g filter="url(#filter0_f_121_1587)">
<path d="M-529.717 515.144C-380.041 217.35 2191.48 578.822 2191.48 578.822V1277.62H-118.841C-118.841 1277.62 -652.271 758.975 -529.717 515.144Z" fill="#8B2BA0"/>
</g>
<g style="mix-blend-mode:screen">
<path d="M524.908 627.882C529.238 627.882 532.748 624.435 532.748 620.182C532.748 615.93 529.238 612.482 524.908 612.482C520.578 612.482 517.068 615.93 517.068 620.182C517.068 624.435 520.578 627.882 524.908 627.882Z" fill="#ADA693"/>
</g>
<g style="mix-blend-mode:screen">
<path d="M190.088 401.562C194.418 401.562 197.928 398.115 197.928 393.862C197.928 389.61 194.418 386.162 190.088 386.162C185.758 386.162 182.248 389.61 182.248 393.862C182.248 398.115 185.758 401.562 190.088 401.562Z" fill="#ADA693"/>
</g>
<g style="mix-blend-mode:screen">
<path d="M598.709 629.882C598.725 630.72 598.491 631.544 598.037 632.248C597.583 632.953 596.929 633.506 596.16 633.838C595.39 634.169 594.539 634.265 593.716 634.111C592.892 633.957 592.132 633.562 591.534 632.975C590.936 632.388 590.526 631.636 590.357 630.816C590.187 629.995 590.266 629.142 590.583 628.366C590.9 627.591 591.441 626.927 592.136 626.46C592.832 625.992 593.651 625.743 594.489 625.742C595.038 625.737 595.582 625.84 596.091 626.045C596.601 626.25 597.064 626.554 597.456 626.938C597.848 627.323 598.16 627.781 598.375 628.286C598.59 628.791 598.703 629.333 598.709 629.882Z" fill="#ADA693"/>
</g>
<g style="mix-blend-mode:screen">
<path d="M308.988 301.281C309.002 302.119 308.766 302.942 308.311 303.645C307.855 304.349 307.2 304.9 306.43 305.23C305.66 305.56 304.808 305.653 303.985 305.498C303.162 305.342 302.403 304.945 301.806 304.356C301.21 303.768 300.801 303.015 300.634 302.194C300.466 301.373 300.547 300.521 300.866 299.746C301.185 298.971 301.727 298.308 302.424 297.843C303.121 297.377 303.94 297.129 304.778 297.131C305.328 297.126 305.872 297.229 306.382 297.435C306.891 297.641 307.354 297.946 307.746 298.331C308.137 298.717 308.448 299.176 308.661 299.682C308.875 300.188 308.986 300.732 308.988 301.281Z" fill="#ADA693"/>
</g>
<g style="mix-blend-mode:screen">
<path d="M184.549 227.293C184.563 228.13 184.327 228.953 183.872 229.656C183.417 230.359 182.763 230.911 181.993 231.241C181.223 231.571 180.372 231.665 179.549 231.51C178.726 231.355 177.968 230.959 177.37 230.372C176.773 229.784 176.364 229.033 176.196 228.212C176.027 227.392 176.107 226.54 176.424 225.764C176.741 224.989 177.282 224.326 177.977 223.859C178.673 223.392 179.491 223.143 180.329 223.143C181.438 223.135 182.506 223.567 183.297 224.345C184.088 225.123 184.538 226.183 184.549 227.293Z" fill="#ADA693"/>
</g>
<g style="mix-blend-mode:screen">
<path d="M19.9783 890.152C19.9942 890.99 19.7603 891.813 19.3063 892.518C18.8524 893.222 18.199 893.776 17.4294 894.107C16.6599 894.439 15.809 894.534 14.9852 894.38C14.1614 894.227 13.402 893.831 12.8038 893.244C12.2056 892.657 11.7956 891.906 11.6262 891.085C11.4568 890.264 11.5356 889.412 11.8525 888.636C12.1694 887.86 12.7101 887.196 13.4057 886.729C14.1013 886.262 14.9203 886.012 15.7583 886.012C16.3072 886.007 16.8518 886.11 17.361 886.315C17.8702 886.52 18.3339 886.823 18.7258 887.208C19.1177 887.592 19.43 888.05 19.6449 888.555C19.8598 889.06 19.9731 889.603 19.9783 890.152Z" fill="#ADA693"/>
</g>
<g style="mix-blend-mode:screen">
<path d="M17.1894 734.712C17.2033 735.549 16.9677 736.372 16.5125 737.075C16.0573 737.778 15.4032 738.33 14.6334 738.66C13.8637 738.99 13.013 739.084 12.1899 738.929C11.3667 738.774 10.6083 738.378 10.0111 737.79C9.41387 737.203 9.00495 736.451 8.83636 735.631C8.66778 734.811 8.74716 733.958 9.0644 733.183C9.38164 732.408 9.92239 731.745 10.6178 731.278C11.3132 730.811 12.1318 730.562 12.9694 730.562C14.079 730.554 15.1464 730.986 15.9375 731.764C16.7286 732.542 17.1789 733.602 17.1894 734.712Z" fill="#ADA693"/>
</g>
<g style="mix-blend-mode:screen">
<path d="M61.8789 167.033C61.8928 167.87 61.6571 168.693 61.202 169.396C60.7468 170.099 60.0927 170.651 59.3229 170.981C58.5531 171.311 57.7025 171.405 56.8793 171.25C56.0562 171.095 55.2977 170.699 54.7005 170.112C54.1033 169.524 53.6944 168.773 53.5258 167.952C53.3572 167.132 53.4366 166.28 53.7539 165.505C54.0711 164.729 54.6118 164.066 55.3073 163.599C56.0027 163.132 56.8213 162.883 57.6589 162.883C58.7684 162.875 59.8358 163.307 60.627 164.085C61.4181 164.863 61.8683 165.923 61.8789 167.033Z" fill="#ADA693"/>
</g>
<g style="mix-blend-mode:screen">
<path d="M574.998 803.882C575.012 804.72 574.776 805.543 574.32 806.246C573.865 806.949 573.21 807.501 572.44 807.831C571.669 808.161 570.818 808.254 569.995 808.098C569.171 807.943 568.413 807.545 567.816 806.957C567.219 806.369 566.811 805.616 566.644 804.795C566.476 803.974 566.557 803.121 566.876 802.346C567.195 801.571 567.737 800.909 568.434 800.443C569.13 799.977 569.95 799.73 570.788 799.732C571.337 799.726 571.882 799.83 572.391 800.036C572.901 800.242 573.364 800.546 573.755 800.932C574.147 801.317 574.458 801.776 574.671 802.283C574.884 802.789 574.995 803.332 574.998 803.882Z" fill="#ADA693"/>
</g>
<g style="mix-blend-mode:screen">
<path d="M1014.89 449.123C1014.9 449.96 1014.67 450.784 1014.22 451.489C1013.76 452.193 1013.11 452.746 1012.34 453.078C1011.57 453.41 1010.72 453.505 1009.9 453.351C1009.07 453.197 1008.31 452.802 1007.71 452.215C1007.12 451.628 1006.71 450.876 1006.54 450.056C1006.37 449.235 1006.45 448.382 1006.76 447.607C1007.08 446.831 1007.62 446.167 1008.32 445.7C1009.01 445.232 1009.83 444.983 1010.67 444.983C1011.22 444.977 1011.76 445.08 1012.27 445.285C1012.78 445.491 1013.24 445.794 1013.64 446.179C1014.03 446.563 1014.34 447.021 1014.55 447.526C1014.77 448.031 1014.88 448.574 1014.89 449.123Z" fill="#ADA693"/>
</g>
<g style="mix-blend-mode:screen">
<path d="M379.109 223.181C379.123 224.019 378.888 224.842 378.432 225.545C377.977 226.248 377.323 226.8 376.553 227.13C375.784 227.46 374.933 227.554 374.11 227.399C373.287 227.244 372.528 226.848 371.931 226.26C371.334 225.673 370.925 224.921 370.756 224.101C370.588 223.28 370.667 222.428 370.984 221.653C371.302 220.878 371.842 220.215 372.538 219.748C373.233 219.281 374.052 219.032 374.889 219.031C375.439 219.026 375.985 219.129 376.494 219.335C377.004 219.541 377.468 219.845 377.86 220.231C378.252 220.616 378.564 221.075 378.779 221.582C378.993 222.088 379.105 222.632 379.109 223.181Z" fill="#ADA693"/>
</g>
<g style="mix-blend-mode:screen">
<path d="M1111.8 305.351C1111.81 306.189 1111.58 307.013 1111.13 307.717C1110.67 308.421 1110.02 308.975 1109.25 309.306C1108.48 309.638 1107.63 309.733 1106.81 309.58C1105.98 309.426 1105.22 309.03 1104.62 308.444C1104.03 307.857 1103.62 307.105 1103.45 306.284C1103.28 305.464 1103.36 304.611 1103.67 303.835C1103.99 303.059 1104.53 302.396 1105.23 301.928C1105.92 301.461 1106.74 301.211 1107.58 301.211C1108.13 301.206 1108.67 301.309 1109.18 301.514C1109.69 301.719 1110.15 302.023 1110.55 302.407C1110.94 302.792 1111.25 303.249 1111.47 303.755C1111.68 304.26 1111.79 304.802 1111.8 305.351Z" fill="#ADA693"/>
</g>
<g style="mix-blend-mode:screen">
<path d="M1341.86 614.882C1341.88 615.721 1341.64 616.545 1341.19 617.249C1340.73 617.954 1340.08 618.507 1339.31 618.839C1338.54 619.17 1337.69 619.265 1336.86 619.11C1336.04 618.956 1335.28 618.559 1334.68 617.971C1334.08 617.383 1333.67 616.631 1333.51 615.809C1333.34 614.988 1333.42 614.135 1333.74 613.36C1334.05 612.584 1334.6 611.921 1335.29 611.455C1335.99 610.989 1336.81 610.741 1337.65 610.742C1338.2 610.737 1338.74 610.84 1339.25 611.045C1339.76 611.251 1340.22 611.554 1340.61 611.939C1341 612.324 1341.32 612.781 1341.53 613.287C1341.74 613.792 1341.86 614.334 1341.86 614.882Z" fill="#ADA693"/>
</g>
<g style="mix-blend-mode:screen">
<path d="M557.888 274.502C557.904 275.339 557.67 276.163 557.216 276.867C556.763 277.572 556.109 278.125 555.34 278.457C554.57 278.789 553.719 278.884 552.895 278.73C552.072 278.576 551.312 278.181 550.714 277.594C550.116 277.007 549.706 276.255 549.536 275.435C549.367 274.614 549.446 273.761 549.763 272.986C550.08 272.21 550.62 271.546 551.316 271.079C552.011 270.611 552.83 270.362 553.668 270.362C554.217 270.356 554.762 270.459 555.271 270.664C555.78 270.87 556.244 271.173 556.636 271.557C557.028 271.942 557.34 272.4 557.555 272.905C557.77 273.41 557.883 273.953 557.888 274.502Z" fill="#ADA693"/>
</g>
<g style="mix-blend-mode:screen">
<path d="M898.808 197.462C898.824 198.3 898.59 199.124 898.136 199.828C897.682 200.533 897.029 201.086 896.26 201.418C895.49 201.749 894.639 201.844 893.815 201.691C892.991 201.537 892.232 201.142 891.634 200.555C891.036 199.968 890.626 199.216 890.456 198.396C890.287 197.575 890.366 196.722 890.683 195.946C890.999 195.171 891.54 194.507 892.236 194.04C892.931 193.572 893.75 193.323 894.588 193.322C895.696 193.314 896.762 193.745 897.553 194.521C898.344 195.297 898.795 196.355 898.808 197.462Z" fill="#ADA693"/>
</g>
<g style="mix-blend-mode:screen">
<path d="M132.299 95.812C132.315 96.6511 132.08 97.4759 131.625 98.181C131.169 98.8861 130.514 99.4394 129.743 99.7702C128.971 100.101 128.119 100.194 127.294 100.038C126.47 99.8821 125.71 99.4836 125.113 98.8937C124.516 98.3038 124.109 97.5493 123.943 96.7266C123.777 95.9039 123.86 95.0504 124.181 94.2751C124.503 93.4999 125.048 92.8381 125.748 92.3744C126.447 91.9107 127.269 91.6662 128.109 91.672C129.212 91.6693 130.272 92.103 131.057 92.8786C131.842 93.6541 132.288 94.7086 132.299 95.812Z" fill="#ADA693"/>
</g>
<g style="mix-blend-mode:screen">
<path d="M1023.88 481.742C1023.89 482.242 1023.75 482.734 1023.48 483.155C1023.21 483.576 1022.82 483.907 1022.36 484.105C1021.9 484.304 1021.39 484.361 1020.9 484.269C1020.41 484.178 1019.95 483.942 1019.6 483.591C1019.24 483.241 1018.99 482.792 1018.89 482.302C1018.79 481.812 1018.84 481.303 1019.03 480.839C1019.22 480.376 1019.54 479.979 1019.95 479.7C1020.37 479.421 1020.86 479.272 1021.36 479.272C1021.69 479.268 1022.01 479.329 1022.32 479.451C1022.62 479.573 1022.9 479.754 1023.13 479.983C1023.37 480.213 1023.55 480.486 1023.68 480.788C1023.81 481.09 1023.88 481.414 1023.88 481.742Z" fill="#ADA693"/>
</g>
<g style="mix-blend-mode:screen">
<path d="M12.729 378.212C12.7389 378.713 12.5993 379.206 12.3281 379.627C12.0569 380.048 11.6663 380.379 11.2062 380.577C10.7461 380.775 10.2374 380.831 9.745 380.739C9.25264 380.647 8.79897 380.41 8.44191 380.058C8.08486 379.707 7.84063 379.257 7.74041 378.766C7.64018 378.276 7.68851 377.766 7.87923 377.303C8.06994 376.84 8.39439 376.444 8.81114 376.166C9.22788 375.888 9.71802 375.74 10.219 375.742C10.546 375.74 10.8703 375.801 11.1734 375.924C11.4765 376.047 11.7525 376.228 11.9855 376.457C12.2186 376.687 12.4042 376.96 12.5318 377.261C12.6593 377.562 12.7263 377.885 12.729 378.212Z" fill="#ADA693"/>
</g>
<g style="mix-blend-mode:screen">
<path d="M1085.34 577.132C1085.35 577.633 1085.21 578.126 1084.94 578.547C1084.67 578.968 1084.28 579.299 1083.82 579.497C1083.36 579.695 1082.85 579.751 1082.35 579.659C1081.86 579.567 1081.41 579.33 1081.05 578.978C1080.69 578.627 1080.45 578.177 1080.35 577.686C1080.25 577.196 1080.3 576.686 1080.49 576.223C1080.68 575.76 1081 575.364 1081.42 575.086C1081.84 574.808 1082.33 574.66 1082.83 574.662C1083.16 574.658 1083.48 574.719 1083.78 574.841C1084.09 574.964 1084.36 575.145 1084.6 575.374C1084.83 575.604 1085.02 575.878 1085.14 576.179C1085.27 576.481 1085.34 576.805 1085.34 577.132Z" fill="#ADA693"/>
</g>
<g style="mix-blend-mode:screen">
<path d="M1371.11 502.572C1371.12 503.072 1370.98 503.565 1370.71 503.986C1370.44 504.407 1370.05 504.738 1369.59 504.936C1369.13 505.134 1368.62 505.191 1368.13 505.098C1367.63 505.006 1367.18 504.769 1366.82 504.418C1366.47 504.066 1366.22 503.617 1366.12 503.126C1366.02 502.635 1366.07 502.125 1366.26 501.662C1366.45 501.199 1366.78 500.803 1367.19 500.525C1367.61 500.247 1368.1 500.1 1368.6 500.102C1369.26 500.099 1369.89 500.357 1370.36 500.82C1370.83 501.282 1371.1 501.912 1371.11 502.572Z" fill="#ADA693"/>
</g>
<g style="mix-blend-mode:screen">
<path d="M1423.55 698.412C1423.56 698.912 1423.42 699.404 1423.15 699.825C1422.88 700.246 1422.49 700.577 1422.03 700.775C1421.57 700.974 1421.06 701.031 1420.57 700.939C1420.08 700.848 1419.62 700.612 1419.27 700.261C1418.91 699.911 1418.66 699.462 1418.56 698.972C1418.46 698.482 1418.51 697.973 1418.7 697.509C1418.89 697.046 1419.21 696.649 1419.62 696.37C1420.04 696.091 1420.53 695.942 1421.03 695.942C1421.36 695.938 1421.68 695.998 1421.99 696.121C1422.29 696.243 1422.57 696.424 1422.8 696.653C1423.04 696.883 1423.22 697.156 1423.35 697.458C1423.48 697.76 1423.55 698.084 1423.55 698.412Z" fill="#ADA693"/>
</g>
<g style="mix-blend-mode:screen">
<path d="M1203.11 473.812C1203.12 474.313 1202.98 474.805 1202.71 475.226C1202.44 475.647 1202.05 475.978 1201.59 476.176C1201.13 476.374 1200.62 476.431 1200.13 476.339C1199.63 476.246 1199.18 476.009 1198.82 475.658C1198.47 475.307 1198.22 474.857 1198.12 474.366C1198.02 473.875 1198.07 473.366 1198.26 472.902C1198.45 472.439 1198.78 472.043 1199.19 471.765C1199.61 471.487 1200.1 471.34 1200.6 471.342C1201.26 471.339 1201.89 471.597 1202.36 472.06C1202.83 472.523 1203.1 473.152 1203.11 473.812Z" fill="#ADA693"/>
</g>
<g style="mix-blend-mode:screen">
<path d="M1291.63 634.042C1293.02 634.042 1294.15 632.936 1294.15 631.572C1294.15 630.207 1293.02 629.102 1291.63 629.102C1290.24 629.102 1289.11 630.207 1289.11 631.572C1289.11 632.936 1290.24 634.042 1291.63 634.042Z" fill="#ADA693"/>
</g>
<g style="mix-blend-mode:screen">
<path d="M723.579 445.052C723.587 445.553 723.445 446.044 723.173 446.464C722.901 446.884 722.509 447.213 722.049 447.41C721.589 447.606 721.08 447.661 720.588 447.568C720.097 447.474 719.644 447.237 719.288 446.885C718.932 446.533 718.689 446.083 718.589 445.593C718.49 445.102 718.539 444.593 718.73 444.13C718.921 443.668 719.245 443.273 719.662 442.995C720.078 442.718 720.568 442.57 721.069 442.572C721.397 442.57 721.722 442.632 722.025 442.755C722.329 442.879 722.606 443.061 722.839 443.291C723.072 443.521 723.257 443.796 723.384 444.098C723.511 444.4 723.577 444.725 723.579 445.052Z" fill="#ADA693"/>
</g>
<g style="mix-blend-mode:screen">
<path d="M584.418 314.671C584.428 315.172 584.289 315.664 584.018 316.085C583.747 316.506 583.357 316.836 582.898 317.035C582.438 317.233 581.93 317.29 581.438 317.199C580.946 317.107 580.492 316.871 580.135 316.521C579.778 316.171 579.532 315.722 579.431 315.232C579.33 314.741 579.377 314.232 579.566 313.769C579.755 313.305 580.078 312.909 580.493 312.63C580.909 312.35 581.398 312.201 581.898 312.201C582.56 312.196 583.196 312.453 583.669 312.916C584.141 313.379 584.411 314.01 584.418 314.671Z" fill="#ADA693"/>
</g>
<g style="mix-blend-mode:screen">
<path d="M458.429 306.282C458.431 306.454 458.382 306.624 458.288 306.768C458.193 306.912 458.058 307.025 457.899 307.093C457.741 307.16 457.565 307.179 457.396 307.146C457.226 307.114 457.07 307.032 456.948 306.911C456.825 306.789 456.741 306.634 456.707 306.465C456.673 306.296 456.689 306.121 456.755 305.961C456.82 305.802 456.932 305.665 457.075 305.569C457.218 305.473 457.387 305.422 457.559 305.422C457.788 305.422 458.008 305.512 458.171 305.673C458.334 305.834 458.427 306.053 458.429 306.282Z" fill="#ADA693"/>
</g>
<g style="mix-blend-mode:screen">
<path d="M276.369 337.192C276.373 337.367 276.325 337.539 276.231 337.686C276.136 337.834 276 337.95 275.84 338.019C275.68 338.089 275.502 338.109 275.33 338.078C275.158 338.046 274.999 337.964 274.874 337.842C274.749 337.719 274.663 337.563 274.628 337.391C274.592 337.22 274.608 337.042 274.674 336.88C274.74 336.718 274.853 336.58 274.998 336.482C275.143 336.384 275.314 336.332 275.489 336.332C275.604 336.33 275.718 336.35 275.824 336.392C275.931 336.434 276.028 336.497 276.11 336.577C276.192 336.657 276.257 336.753 276.302 336.858C276.346 336.964 276.369 337.078 276.369 337.192Z" fill="#ADA693"/>
</g>
<g style="mix-blend-mode:screen">
<path d="M344.689 324.881C344.691 325.054 344.642 325.223 344.547 325.368C344.453 325.512 344.318 325.625 344.159 325.692C344 325.76 343.825 325.778 343.656 325.746C343.486 325.714 343.33 325.631 343.208 325.51C343.085 325.389 343.001 325.234 342.967 325.065C342.932 324.896 342.949 324.72 343.014 324.561C343.08 324.401 343.192 324.265 343.335 324.169C343.478 324.073 343.647 324.021 343.819 324.021C344.048 324.021 344.268 324.112 344.431 324.273C344.594 324.434 344.687 324.652 344.689 324.881Z" fill="#ADA693"/>
</g>
<g style="mix-blend-mode:screen">
<path d="M215.189 350.202C215.166 350.418 215.064 350.618 214.903 350.763C214.741 350.908 214.532 350.989 214.314 350.989C214.097 350.989 213.888 350.908 213.726 350.763C213.565 350.618 213.463 350.418 213.439 350.202C213.463 349.986 213.565 349.787 213.726 349.641C213.888 349.496 214.097 349.416 214.314 349.416C214.532 349.416 214.741 349.496 214.903 349.641C215.064 349.787 215.166 349.986 215.189 350.202Z" fill="#ADA693"/>
</g>
<g style="mix-blend-mode:screen">
<path d="M67.5681 359.792C67.5629 360.022 67.4679 360.24 67.3034 360.401C67.1389 360.562 66.9181 360.652 66.6881 360.652C66.46 360.652 66.2413 360.561 66.08 360.4C65.9187 360.238 65.8281 360.02 65.8281 359.792C65.8281 359.564 65.9187 359.345 66.08 359.184C66.2413 359.022 66.46 358.932 66.6881 358.932C66.9181 358.932 67.1389 359.022 67.3034 359.182C67.4679 359.343 67.5629 359.562 67.5681 359.792Z" fill="#ADA693"/>
</g>
<g style="mix-blend-mode:screen">
<path d="M287.35 362.192C287.354 362.367 287.305 362.539 287.211 362.686C287.117 362.834 286.981 362.95 286.82 363.019C286.66 363.089 286.483 363.109 286.311 363.078C286.139 363.046 285.98 362.964 285.855 362.841C285.73 362.719 285.644 362.562 285.608 362.391C285.573 362.22 285.589 362.042 285.655 361.88C285.721 361.718 285.834 361.58 285.979 361.482C286.124 361.384 286.295 361.332 286.47 361.332C286.584 361.331 286.697 361.352 286.803 361.394C286.909 361.437 287.006 361.5 287.088 361.58C287.169 361.66 287.235 361.755 287.28 361.86C287.325 361.965 287.348 362.078 287.35 362.192Z" fill="#ADA693"/>
</g>
<g style="mix-blend-mode:screen">
<path d="M573.708 582.172C573.712 582.345 573.665 582.515 573.572 582.661C573.479 582.807 573.344 582.921 573.186 582.99C573.027 583.059 572.851 583.079 572.681 583.048C572.511 583.017 572.354 582.935 572.231 582.815C572.107 582.694 572.022 582.539 571.987 582.37C571.952 582.2 571.968 582.024 572.033 581.864C572.098 581.704 572.21 581.567 572.353 581.47C572.497 581.374 572.666 581.322 572.838 581.322C572.951 581.321 573.064 581.342 573.168 581.384C573.273 581.426 573.369 581.488 573.45 581.567C573.53 581.646 573.595 581.74 573.639 581.844C573.684 581.948 573.707 582.059 573.708 582.172Z" fill="#ADA693"/>
</g>
<g style="mix-blend-mode:screen">
<path d="M155.229 712.792C155.205 713.008 155.103 713.208 154.942 713.353C154.78 713.498 154.571 713.579 154.354 713.579C154.136 713.579 153.927 713.498 153.765 713.353C153.604 713.208 153.502 713.008 153.479 712.792C153.502 712.576 153.604 712.376 153.765 712.231C153.927 712.086 154.136 712.006 154.354 712.006C154.571 712.006 154.78 712.086 154.942 712.231C155.103 712.376 155.205 712.576 155.229 712.792Z" fill="#ADA693"/>
</g>
<g style="mix-blend-mode:screen">
<path d="M101.029 675.302C101.035 675.478 100.989 675.651 100.896 675.799C100.803 675.948 100.667 676.065 100.507 676.136C100.347 676.208 100.169 676.229 99.9965 676.199C99.8238 676.168 99.6642 676.087 99.5382 675.965C99.4121 675.844 99.3252 675.687 99.2888 675.515C99.2523 675.344 99.2679 675.165 99.3335 675.003C99.3992 674.84 99.5119 674.701 99.6571 674.603C99.8024 674.505 99.9737 674.452 100.149 674.452C100.263 674.45 100.376 674.47 100.482 674.511C100.588 674.553 100.685 674.615 100.767 674.694C100.848 674.773 100.914 674.867 100.959 674.972C101.004 675.076 101.028 675.189 101.029 675.302Z" fill="#ADA693"/>
</g>
<g style="mix-blend-mode:screen">
<path d="M98.2383 746.522C98.2152 746.738 98.113 746.937 97.9515 747.083C97.79 747.228 97.5805 747.308 97.3633 747.308C97.1461 747.308 96.9366 747.228 96.7751 747.083C96.6135 746.937 96.5114 746.738 96.4883 746.522C96.5114 746.306 96.6135 746.106 96.7751 745.961C96.9366 745.816 97.1461 745.735 97.3633 745.735C97.5805 745.735 97.79 745.816 97.9515 745.961C98.113 746.106 98.2152 746.306 98.2383 746.522Z" fill="#ADA693"/>
</g>
<g style="mix-blend-mode:screen">
<path d="M558.549 862.762C558.551 862.935 558.501 863.104 558.407 863.248C558.312 863.393 558.177 863.506 558.018 863.573C557.86 863.641 557.684 863.659 557.515 863.627C557.346 863.594 557.19 863.512 557.067 863.391C556.944 863.27 556.86 863.115 556.826 862.946C556.792 862.777 556.808 862.601 556.874 862.442C556.939 862.282 557.051 862.146 557.194 862.05C557.337 861.954 557.506 861.902 557.679 861.902C557.908 861.902 558.127 861.993 558.29 862.154C558.453 862.315 558.546 862.533 558.549 862.762Z" fill="#ADA693"/>
</g>
<g style="mix-blend-mode:screen">
<path d="M634.889 730.602C634.893 730.777 634.844 730.95 634.749 731.098C634.655 731.245 634.518 731.361 634.357 731.43C634.196 731.5 634.018 731.519 633.846 731.487C633.674 731.455 633.515 731.371 633.39 731.248C633.266 731.125 633.181 730.967 633.146 730.795C633.112 730.623 633.129 730.445 633.197 730.283C633.264 730.121 633.379 729.984 633.525 729.887C633.671 729.791 633.843 729.74 634.019 729.742C634.248 729.742 634.467 729.833 634.63 729.994C634.793 730.155 634.886 730.373 634.889 730.602Z" fill="#ADA693"/>
</g>
<g style="mix-blend-mode:screen">
<path d="M626.519 825.782C626.521 825.954 626.472 826.124 626.378 826.268C626.283 826.412 626.148 826.525 625.989 826.593C625.83 826.66 625.655 826.679 625.486 826.646C625.316 826.614 625.16 826.532 625.038 826.411C624.915 826.289 624.831 826.134 624.797 825.965C624.762 825.796 624.779 825.621 624.845 825.461C624.91 825.302 625.022 825.165 625.165 825.069C625.308 824.973 625.477 824.922 625.649 824.922C625.763 824.921 625.876 824.942 625.981 824.985C626.087 825.027 626.183 825.09 626.264 825.17C626.345 825.25 626.409 825.346 626.453 825.45C626.497 825.555 626.519 825.668 626.519 825.782Z" fill="#ADA693"/>
</g>
<g style="mix-blend-mode:screen">
<path d="M562.559 746.352C562.563 746.527 562.514 746.7 562.419 746.848C562.325 746.995 562.188 747.111 562.027 747.18C561.866 747.25 561.688 747.269 561.516 747.237C561.343 747.205 561.185 747.121 561.06 746.998C560.936 746.875 560.85 746.717 560.816 746.545C560.782 746.373 560.799 746.195 560.867 746.033C560.934 745.871 561.049 745.734 561.195 745.637C561.341 745.541 561.513 745.49 561.689 745.492C561.918 745.492 562.137 745.583 562.3 745.744C562.463 745.905 562.556 746.123 562.559 746.352Z" fill="#ADA693"/>
</g>
<g style="mix-blend-mode:screen">
<path d="M186.079 626.001C186.559 626.001 186.949 625.616 186.949 625.141C186.949 624.666 186.559 624.281 186.079 624.281C185.598 624.281 185.209 624.666 185.209 625.141C185.209 625.616 185.598 626.001 186.079 626.001Z" fill="#ADA693"/>
</g>
<g style="mix-blend-mode:screen">
<path d="M123.34 786.242C123.317 786.458 123.215 786.658 123.053 786.803C122.892 786.948 122.682 787.029 122.465 787.029C122.248 787.029 122.038 786.948 121.877 786.803C121.715 786.658 121.613 786.458 121.59 786.242C121.613 786.026 121.715 785.827 121.877 785.682C122.038 785.536 122.248 785.456 122.465 785.456C122.682 785.456 122.892 785.536 123.053 785.682C123.215 785.827 123.317 786.026 123.34 786.242Z" fill="#ADA693"/>
</g>
<g style="mix-blend-mode:screen">
<path d="M151.218 883.482C151.22 883.655 151.171 883.824 151.077 883.968C150.982 884.113 150.847 884.226 150.688 884.293C150.53 884.36 150.354 884.379 150.185 884.347C150.016 884.314 149.86 884.232 149.737 884.111C149.614 883.99 149.53 883.835 149.496 883.666C149.462 883.497 149.478 883.321 149.544 883.162C149.609 883.002 149.721 882.866 149.864 882.769C150.007 882.673 150.176 882.622 150.348 882.622C150.462 882.621 150.575 882.642 150.681 882.685C150.786 882.727 150.882 882.79 150.963 882.87C151.044 882.95 151.108 883.046 151.152 883.151C151.196 883.256 151.218 883.368 151.218 883.482Z" fill="#ADA693"/>
</g>
<g style="mix-blend-mode:screen">
<path d="M531.189 532.882C531.193 533.056 531.145 533.228 531.051 533.376C530.957 533.523 530.821 533.639 530.66 533.709C530.5 533.778 530.322 533.799 530.15 533.767C529.978 533.735 529.82 533.653 529.695 533.531C529.57 533.409 529.484 533.252 529.448 533.081C529.413 532.909 529.429 532.732 529.495 532.57C529.561 532.408 529.673 532.269 529.819 532.171C529.964 532.074 530.135 532.022 530.309 532.022C530.424 532.02 530.537 532.041 530.643 532.084C530.749 532.126 530.846 532.189 530.928 532.269C531.009 532.349 531.074 532.444 531.119 532.549C531.164 532.654 531.188 532.767 531.189 532.882Z" fill="#ADA693"/>
</g>
<g style="mix-blend-mode:screen">
<path d="M414.238 579.263C414.242 579.437 414.194 579.609 414.1 579.757C414.006 579.904 413.87 580.02 413.709 580.09C413.549 580.159 413.371 580.18 413.199 580.148C413.027 580.116 412.869 580.034 412.743 579.912C412.618 579.79 412.533 579.633 412.497 579.462C412.461 579.29 412.478 579.113 412.544 578.951C412.61 578.789 412.722 578.65 412.867 578.552C413.012 578.455 413.183 578.403 413.358 578.403C413.473 578.4 413.587 578.42 413.694 578.462C413.8 578.504 413.897 578.567 413.979 578.647C414.061 578.727 414.127 578.823 414.171 578.929C414.215 579.034 414.238 579.148 414.238 579.263Z" fill="#ADA693"/>
</g>
<g style="mix-blend-mode:screen">
<path d="M533.978 674.622C533.973 674.852 533.878 675.07 533.714 675.231C533.549 675.392 533.328 675.482 533.098 675.482C532.87 675.482 532.651 675.391 532.49 675.23C532.329 675.069 532.238 674.85 532.238 674.622C532.238 674.394 532.329 674.175 532.49 674.014C532.651 673.852 532.87 673.762 533.098 673.762C533.328 673.762 533.549 673.852 533.714 674.012C533.878 674.173 533.973 674.392 533.978 674.622Z" fill="#ADA693"/>
</g>
<g style="mix-blend-mode:screen">
<path d="M37.9294 341.651C37.9314 341.824 37.882 341.993 37.7877 342.137C37.6933 342.281 37.5581 342.395 37.3993 342.462C37.2405 342.529 37.0653 342.548 36.8959 342.516C36.7265 342.483 36.5705 342.401 36.4478 342.28C36.3252 342.159 36.2413 342.004 36.2069 341.835C36.1725 341.665 36.1892 341.49 36.2547 341.33C36.3203 341.171 36.4317 341.034 36.575 340.938C36.7183 340.842 36.8869 340.791 37.0594 340.791C37.1732 340.79 37.2861 340.811 37.3916 340.854C37.4971 340.896 37.5931 340.959 37.674 341.039C37.7549 341.119 37.8191 341.215 37.863 341.32C37.9068 341.425 37.9294 341.537 37.9294 341.651Z" fill="#ADA693"/>
</g>
<g style="mix-blend-mode:screen">
<path d="M211.01 264.952C210.987 265.168 210.885 265.368 210.723 265.513C210.561 265.658 210.352 265.739 210.135 265.739C209.918 265.739 209.708 265.658 209.547 265.513C209.385 265.368 209.283 265.168 209.26 264.952C209.283 264.736 209.385 264.537 209.547 264.391C209.708 264.246 209.918 264.166 210.135 264.166C210.352 264.166 210.561 264.246 210.723 264.391C210.885 264.537 210.987 264.736 211.01 264.952Z" fill="#ADA693"/>
</g>
<g style="mix-blend-mode:screen">
<path d="M51.6992 375.712C51.6761 375.928 51.574 376.128 51.4124 376.273C51.2509 376.418 51.0414 376.498 50.8242 376.498C50.607 376.498 50.3975 376.418 50.236 376.273C50.0745 376.128 49.9723 375.928 49.9492 375.712C49.9723 375.496 50.0745 375.296 50.236 375.151C50.3975 375.006 50.607 374.926 50.8242 374.926C51.0414 374.926 51.2509 375.006 51.4124 375.151C51.574 375.296 51.6761 375.496 51.6992 375.712Z" fill="#ADA693"/>
</g>
<g style="mix-blend-mode:screen">
<path d="M389.478 255.022C389.48 255.195 389.431 255.364 389.336 255.508C389.242 255.653 389.107 255.766 388.948 255.833C388.789 255.9 388.614 255.919 388.445 255.887C388.275 255.854 388.119 255.772 387.997 255.651C387.874 255.53 387.79 255.375 387.756 255.206C387.721 255.037 387.738 254.861 387.804 254.702C387.869 254.542 387.981 254.405 388.124 254.309C388.267 254.213 388.436 254.162 388.608 254.162C388.837 254.162 389.057 254.252 389.22 254.413C389.383 254.574 389.476 254.793 389.478 255.022Z" fill="#ADA693"/>
</g>
<g style="mix-blend-mode:screen">
<path d="M539.53 325.882C539.54 326.383 539.4 326.875 539.13 327.296C538.859 327.717 538.469 328.047 538.009 328.246C537.55 328.444 537.042 328.501 536.55 328.41C536.057 328.318 535.604 328.082 535.246 327.732C534.889 327.382 534.644 326.933 534.542 326.443C534.441 325.952 534.488 325.443 534.677 324.98C534.866 324.516 535.189 324.12 535.605 323.841C536.02 323.562 536.509 323.412 537.01 323.412C537.338 323.408 537.663 323.469 537.967 323.591C538.272 323.713 538.549 323.894 538.783 324.124C539.017 324.353 539.203 324.627 539.332 324.929C539.46 325.23 539.527 325.554 539.53 325.882Z" fill="#ADA693"/>
</g>
<g style="mix-blend-mode:screen">
<path d="M969.54 403.962C969.549 404.463 969.41 404.955 969.139 405.376C968.869 405.797 968.479 406.127 968.019 406.326C967.559 406.524 967.051 406.581 966.559 406.49C966.067 406.398 965.614 406.162 965.256 405.812C964.899 405.462 964.654 405.013 964.552 404.523C964.451 404.032 964.498 403.523 964.687 403.06C964.876 402.596 965.199 402.2 965.614 401.921C966.03 401.642 966.519 401.492 967.019 401.492C967.681 401.487 968.317 401.744 968.79 402.207C969.262 402.67 969.532 403.301 969.54 403.962Z" fill="#ADA693"/>
</g>
<g style="mix-blend-mode:screen">
<path d="M774.049 743.342C774.059 743.843 773.92 744.335 773.648 744.757C773.377 745.178 772.987 745.509 772.526 745.707C772.066 745.905 771.558 745.961 771.065 745.869C770.573 745.777 770.119 745.54 769.762 745.188C769.405 744.837 769.161 744.387 769.061 743.896C768.961 743.406 769.009 742.896 769.2 742.433C769.39 741.97 769.715 741.574 770.131 741.296C770.548 741.018 771.038 740.87 771.539 740.872C771.866 740.87 772.191 740.931 772.494 741.054C772.797 741.177 773.073 741.358 773.306 741.587C773.539 741.817 773.724 742.09 773.852 742.391C773.98 742.692 774.047 743.015 774.049 743.342Z" fill="#ADA693"/>
</g>
<g style="mix-blend-mode:screen">
<path d="M356.44 285.222C356.45 285.723 356.31 286.215 356.039 286.637C355.768 287.058 355.377 287.389 354.917 287.587C354.457 287.785 353.948 287.841 353.456 287.749C352.964 287.657 352.51 287.42 352.153 287.068C351.796 286.717 351.552 286.267 351.451 285.776C351.351 285.285 351.399 284.776 351.59 284.313C351.781 283.85 352.105 283.454 352.522 283.176C352.939 282.898 353.429 282.75 353.93 282.752C354.257 282.748 354.582 282.809 354.886 282.931C355.19 283.054 355.466 283.235 355.699 283.464C355.933 283.694 356.118 283.967 356.245 284.269C356.372 284.571 356.439 284.895 356.44 285.222Z" fill="#ADA693"/>
</g>
<g style="mix-blend-mode:screen">
<path d="M838.539 110.613C838.549 111.114 838.41 111.606 838.139 112.027C837.867 112.448 837.477 112.779 837.017 112.977C836.557 113.175 836.048 113.232 835.556 113.139C835.063 113.047 834.609 112.81 834.252 112.459C833.895 112.107 833.651 111.658 833.551 111.167C833.451 110.676 833.499 110.166 833.69 109.703C833.88 109.24 834.205 108.844 834.622 108.566C835.038 108.288 835.529 108.141 836.029 108.143C836.356 108.14 836.681 108.202 836.984 108.325C837.287 108.447 837.563 108.628 837.796 108.858C838.029 109.087 838.215 109.36 838.342 109.661C838.47 109.962 838.537 110.286 838.539 110.613Z" fill="#ADA693"/>
</g>
<g style="mix-blend-mode:screen">
<path d="M1137.63 225.652C1137.64 226.153 1137.5 226.645 1137.23 227.066C1136.96 227.487 1136.57 227.818 1136.11 228.016C1135.65 228.214 1135.14 228.271 1134.65 228.178C1134.15 228.086 1133.7 227.849 1133.34 227.498C1132.99 227.146 1132.74 226.697 1132.64 226.206C1132.54 225.715 1132.59 225.205 1132.78 224.742C1132.97 224.279 1133.29 223.883 1133.71 223.605C1134.13 223.327 1134.62 223.18 1135.12 223.182C1135.78 223.179 1136.41 223.437 1136.88 223.9C1137.35 224.362 1137.62 224.992 1137.63 225.652Z" fill="#ADA693"/>
</g>
<g style="mix-blend-mode:screen">
<path d="M639.848 115.742C639.858 116.242 639.719 116.734 639.448 117.155C639.177 117.576 638.787 117.907 638.328 118.105C637.868 118.304 637.36 118.361 636.868 118.269C636.376 118.178 635.922 117.942 635.565 117.591C635.207 117.241 634.962 116.792 634.861 116.302C634.759 115.812 634.806 115.303 634.996 114.839C635.185 114.376 635.508 113.979 635.923 113.7C636.338 113.421 636.828 113.272 637.328 113.272C637.656 113.268 637.981 113.329 638.286 113.451C638.59 113.573 638.867 113.754 639.101 113.983C639.335 114.213 639.522 114.486 639.65 114.788C639.778 115.09 639.845 115.414 639.848 115.742Z" fill="#ADA693"/>
</g>
<g style="mix-blend-mode:screen">
<path d="M263.37 398.211C264.761 398.211 265.89 397.106 265.89 395.741C265.89 394.377 264.761 393.271 263.37 393.271C261.978 393.271 260.85 394.377 260.85 395.741C260.85 397.106 261.978 398.211 263.37 398.211Z" fill="#ADA693"/>
</g>
<g style="mix-blend-mode:screen">
<path d="M210.03 318.091C210.04 318.592 209.9 319.085 209.629 319.506C209.358 319.927 208.967 320.258 208.507 320.456C208.047 320.654 207.538 320.71 207.046 320.618C206.553 320.526 206.1 320.289 205.743 319.937C205.386 319.586 205.141 319.136 205.041 318.645C204.941 318.155 204.989 317.645 205.18 317.182C205.371 316.719 205.695 316.323 206.112 316.045C206.529 315.767 207.019 315.619 207.52 315.621C207.847 315.617 208.172 315.678 208.476 315.8C208.779 315.923 209.056 316.104 209.289 316.333C209.523 316.563 209.708 316.837 209.835 317.138C209.962 317.44 210.028 317.764 210.03 318.091Z" fill="#ADA693"/>
</g>
<g style="mix-blend-mode:screen">
<path d="M69.6293 854.542C69.6393 855.043 69.5 855.535 69.2292 855.956C68.9584 856.377 68.5684 856.708 68.1089 856.906C67.6494 857.104 67.1412 857.161 66.6491 857.07C66.157 856.978 65.7033 856.742 65.3459 856.392C64.9884 856.042 64.7434 855.593 64.6421 855.103C64.5407 854.613 64.5876 854.103 64.7768 853.64C64.9659 853.177 65.2888 852.78 65.7043 852.501C66.1197 852.222 66.6088 852.073 67.1093 852.072C67.4372 852.068 67.7626 852.129 68.0668 852.251C68.3711 852.374 68.6483 852.555 68.8824 852.784C69.1165 853.013 69.303 853.287 69.4312 853.589C69.5594 853.891 69.6267 854.215 69.6293 854.542Z" fill="#ADA693"/>
</g>
<g style="mix-blend-mode:screen">
<path d="M76.8691 783.332C76.883 783.834 76.7469 784.328 76.4782 784.752C76.2094 785.175 75.8203 785.509 75.3607 785.71C74.901 785.912 74.3917 785.971 73.8981 785.881C73.4045 785.791 72.9489 785.556 72.5898 785.205C72.2308 784.855 71.9845 784.405 71.8826 783.914C71.7807 783.422 71.8278 782.912 72.0178 782.447C72.2079 781.983 72.5322 781.586 72.9493 781.307C73.3664 781.028 73.8573 780.88 74.3591 780.882C75.0161 780.877 75.6485 781.131 76.1187 781.59C76.5888 782.049 76.8586 782.675 76.8691 783.332Z" fill="#ADA693"/>
</g>
<path d="M38.8398 132.371C39.2377 132.371 39.6192 132.213 39.9005 131.932C40.1818 131.65 40.3398 131.269 40.3398 130.871C40.3398 130.473 40.1818 130.092 39.9005 129.81C39.6192 129.529 39.2377 129.371 38.8398 129.371C38.442 129.371 38.0605 129.529 37.7792 129.81C37.4979 130.092 37.3398 130.473 37.3398 130.871C37.3398 131.269 37.4979 131.65 37.7792 131.932C38.0605 132.213 38.442 132.371 38.8398 132.371Z" fill="white"/>
<path d="M24.2799 220.482C24.6478 220.44 24.9873 220.264 25.2338 219.987C25.4802 219.71 25.6164 219.353 25.6164 218.982C25.6164 218.612 25.4802 218.254 25.2338 217.978C24.9873 217.701 24.6478 217.525 24.2799 217.482C23.9119 217.525 23.5724 217.701 23.326 217.978C23.0795 218.254 22.9434 218.612 22.9434 218.982C22.9434 219.353 23.0795 219.71 23.326 219.987C23.5724 220.264 23.9119 220.44 24.2799 220.482Z" fill="white"/>
<path d="M149.619 164.561V167.151C149.619 167.361 149.702 167.562 149.851 167.71C149.999 167.858 150.2 167.941 150.409 167.941C150.619 167.941 150.82 167.858 150.968 167.71C151.116 167.562 151.199 167.361 151.199 167.151V164.561C151.199 164.352 151.116 164.151 150.968 164.003C150.82 163.855 150.619 163.771 150.409 163.771C150.2 163.771 149.999 163.855 149.851 164.003C149.702 164.151 149.619 164.352 149.619 164.561Z" fill="white"/>
<path d="M105.109 268.212V265.622C105.109 265.413 105.026 265.212 104.878 265.063C104.73 264.915 104.529 264.832 104.319 264.832C104.11 264.832 103.909 264.915 103.761 265.063C103.613 265.212 103.529 265.413 103.529 265.622V268.212C103.529 268.422 103.613 268.622 103.761 268.771C103.909 268.919 104.11 269.002 104.319 269.002C104.529 269.002 104.73 268.919 104.878 268.771C105.026 268.622 105.109 268.422 105.109 268.212Z" fill="white"/>
<path d="M91.4082 190.472V193.062C91.4082 193.271 91.4914 193.472 91.6396 193.62C91.7877 193.768 91.9887 193.852 92.1982 193.852C92.4077 193.852 92.6087 193.768 92.7568 193.62C92.905 193.472 92.9882 193.271 92.9882 193.062V190.472C92.9882 190.262 92.905 190.061 92.7568 189.913C92.6087 189.765 92.4077 189.682 92.1982 189.682C91.9887 189.682 91.7877 189.765 91.6396 189.913C91.4914 190.061 91.4082 190.262 91.4082 190.472Z" fill="white"/>
<path d="M334.76 119.422C335.158 119.422 335.539 119.264 335.82 118.983C336.102 118.701 336.26 118.32 336.26 117.922C336.26 117.524 336.102 117.143 335.82 116.861C335.539 116.58 335.158 116.422 334.76 116.422C334.362 116.422 333.98 116.58 333.699 116.861C333.418 117.143 333.26 117.524 333.26 117.922C333.26 118.32 333.418 118.701 333.699 118.983C333.98 119.264 334.362 119.422 334.76 119.422Z" fill="white"/>
<path d="M346.879 282.672C347.247 282.629 347.587 282.453 347.833 282.176C348.08 281.9 348.216 281.542 348.216 281.172C348.216 280.801 348.08 280.444 347.833 280.167C347.587 279.891 347.247 279.714 346.879 279.672C346.511 279.714 346.172 279.891 345.926 280.167C345.679 280.444 345.543 280.801 345.543 281.172C345.543 281.542 345.679 281.9 345.926 282.176C346.172 282.453 346.511 282.629 346.879 282.672Z" fill="white"/>
<path d="M318.568 314.882V312.292C318.568 312.188 318.548 312.085 318.508 311.99C318.468 311.894 318.41 311.807 318.337 311.733C318.264 311.66 318.176 311.602 318.081 311.562C317.985 311.522 317.882 311.502 317.778 311.502C317.675 311.502 317.572 311.522 317.476 311.562C317.38 311.602 317.293 311.66 317.22 311.733C317.146 311.807 317.088 311.894 317.048 311.99C317.009 312.085 316.988 312.188 316.988 312.292V314.882C316.988 314.986 317.009 315.088 317.048 315.184C317.088 315.28 317.146 315.367 317.22 315.441C317.293 315.514 317.38 315.572 317.476 315.612C317.572 315.652 317.675 315.672 317.778 315.672C317.882 315.672 317.985 315.652 318.081 315.612C318.176 315.572 318.264 315.514 318.337 315.441C318.41 315.367 318.468 315.28 318.508 315.184C318.548 315.088 318.568 314.986 318.568 314.882Z" fill="white"/>
<path d="M245.01 375.951C245.408 375.951 245.789 375.793 246.07 375.512C246.352 375.231 246.51 374.849 246.51 374.451C246.51 374.053 246.352 373.672 246.07 373.391C245.789 373.109 245.408 372.951 245.01 372.951C244.612 372.951 244.23 373.109 243.949 373.391C243.668 373.672 243.51 374.053 243.51 374.451C243.51 374.849 243.668 375.231 243.949 375.512C244.23 375.793 244.612 375.951 245.01 375.951Z" fill="white"/>
<path d="M269.258 250.881H271.688C271.911 250.881 272.124 250.793 272.282 250.635C272.439 250.478 272.528 250.264 272.528 250.041C272.528 249.818 272.439 249.605 272.282 249.447C272.124 249.29 271.911 249.201 271.688 249.201H269.258C269.035 249.201 268.822 249.29 268.664 249.447C268.506 249.605 268.418 249.818 268.418 250.041C268.418 250.264 268.506 250.478 268.664 250.635C268.822 250.793 269.035 250.881 269.258 250.881Z" fill="white"/>
<path d="M505.108 283.161L502.688 280.571C501.968 279.801 500.848 280.991 501.568 281.761L503.998 284.351C504.718 285.121 505.828 283.931 505.108 283.161Z" fill="white"/>
<path d="M485.93 454.782V452.192C485.93 451.983 485.846 451.782 485.698 451.634C485.55 451.486 485.349 451.402 485.14 451.402C484.93 451.402 484.729 451.486 484.581 451.634C484.433 451.782 484.35 451.983 484.35 452.192V454.782C484.35 454.992 484.433 455.193 484.581 455.341C484.729 455.489 484.93 455.572 485.14 455.572C485.349 455.572 485.55 455.489 485.698 455.341C485.846 455.193 485.93 454.992 485.93 454.782Z" fill="white"/>
<path d="M366.289 526.242C366.687 526.242 367.068 526.084 367.35 525.803C367.631 525.522 367.789 525.14 367.789 524.742C367.789 524.344 367.631 523.963 367.35 523.682C367.068 523.4 366.687 523.242 366.289 523.242C365.891 523.242 365.51 523.4 365.228 523.682C364.947 523.963 364.789 524.344 364.789 524.742C364.789 525.14 364.947 525.522 365.228 525.803C365.51 526.084 365.891 526.242 366.289 526.242Z" fill="white"/>
<path d="M248.219 623.212V620.622C248.219 620.412 248.135 620.212 247.987 620.063C247.839 619.915 247.638 619.832 247.429 619.832C247.219 619.832 247.018 619.915 246.87 620.063C246.722 620.212 246.639 620.412 246.639 620.622V623.212C246.639 623.422 246.722 623.622 246.87 623.771C247.018 623.919 247.219 624.002 247.429 624.002C247.638 624.002 247.839 623.919 247.987 623.771C248.135 623.622 248.219 623.422 248.219 623.212Z" fill="white"/>
<path d="M320.199 456.281C320.597 456.281 320.979 456.123 321.26 455.842C321.541 455.561 321.699 455.179 321.699 454.781C321.699 454.383 321.541 454.002 321.26 453.721C320.979 453.439 320.597 453.281 320.199 453.281C319.801 453.281 319.42 453.439 319.139 453.721C318.857 454.002 318.699 454.383 318.699 454.781C318.699 455.179 318.857 455.561 319.139 455.842C319.42 456.123 319.801 456.281 320.199 456.281Z" fill="white"/>
<path d="M86.7888 522.753L89.2088 525.343C89.9288 526.113 91.0488 524.913 90.3288 524.143C89.6088 523.373 88.7089 522.423 87.9089 521.553C87.1089 520.683 86.0688 521.983 86.7888 522.753Z" fill="white"/>
<path d="M21.519 581.602C21.179 584.312 25.519 584.102 25.029 581.532C24.819 580.462 23.289 580.912 23.499 581.982C23.499 581.782 23.499 581.982 23.499 581.902C23.499 581.822 23.499 581.952 23.499 581.812C23.439 581.932 23.589 581.812 23.499 581.812C23.409 581.812 23.409 581.972 23.499 581.812C23.472 581.841 23.4373 581.862 23.399 581.872C23.549 581.872 23.459 581.872 23.399 581.872H23.249C23.349 581.872 23.329 581.872 23.249 581.872C23.169 581.872 22.939 581.872 23.109 581.872H22.969C22.909 581.872 22.969 581.872 22.969 581.872C22.969 581.752 22.969 581.972 22.969 581.872L23.019 581.932C23.079 582.142 23.019 581.932 23.019 582.062C23.0564 581.856 23.0209 581.644 22.9187 581.461C22.8165 581.279 22.654 581.138 22.459 581.062C22.3545 581.032 22.2451 581.024 22.1373 581.037C22.0296 581.051 21.9257 581.087 21.8322 581.142C21.7386 581.197 21.6573 581.271 21.5931 581.359C21.5289 581.446 21.4833 581.546 21.459 581.652L21.519 581.602Z" fill="white"/>
<path d="M65.5182 391.502C65.8861 391.459 66.2256 391.283 66.4721 391.006C66.7185 390.73 66.8547 390.372 66.8547 390.002C66.8547 389.632 66.7185 389.274 66.4721 388.997C66.2256 388.721 65.8861 388.545 65.5182 388.502C65.1502 388.545 64.8107 388.721 64.5642 388.997C64.3178 389.274 64.1816 389.632 64.1816 390.002C64.1816 390.372 64.3178 390.73 64.5642 391.006C64.8107 391.283 65.1502 391.459 65.5182 391.502Z" fill="white"/>
<path d="M180.108 508.602L177.678 506.002C176.958 505.242 175.838 506.432 176.558 507.202L178.988 509.792C179.708 510.562 180.828 509.372 180.108 508.602Z" fill="white"/>
<path d="M502.108 137.562C502.476 137.52 502.815 137.344 503.062 137.067C503.308 136.79 503.445 136.433 503.445 136.062C503.445 135.692 503.308 135.335 503.062 135.058C502.815 134.781 502.476 134.605 502.108 134.562C501.74 134.605 501.401 134.781 501.154 135.058C500.908 135.335 500.771 135.692 500.771 136.062C500.771 136.433 500.908 136.79 501.154 137.067C501.401 137.344 501.74 137.52 502.108 137.562Z" fill="white"/>
<path d="M625.818 210.111C626.216 210.111 626.598 209.953 626.879 209.672C627.16 209.391 627.318 209.009 627.318 208.611C627.318 208.214 627.16 207.832 626.879 207.551C626.598 207.269 626.216 207.111 625.818 207.111C625.421 207.111 625.039 207.269 624.758 207.551C624.476 207.832 624.318 208.214 624.318 208.611C624.318 209.009 624.476 209.391 624.758 209.672C625.039 209.953 625.421 210.111 625.818 210.111Z" fill="white"/>
<path d="M596.719 381.133C597.117 381.133 597.498 380.975 597.779 380.693C598.061 380.412 598.219 380.031 598.219 379.633C598.219 379.235 598.061 378.853 597.779 378.572C597.498 378.291 597.117 378.133 596.719 378.133C596.321 378.133 595.939 378.291 595.658 378.572C595.377 378.853 595.219 379.235 595.219 379.633C595.219 380.031 595.377 380.412 595.658 380.693C595.939 380.975 596.321 381.133 596.719 381.133Z" fill="white"/>
<path d="M551.029 612.112V609.112C551.029 608.903 550.946 608.702 550.798 608.554C550.65 608.405 550.449 608.322 550.239 608.322C550.03 608.322 549.829 608.405 549.681 608.554C549.532 608.702 549.449 608.903 549.449 609.112V612.112C549.449 612.322 549.532 612.523 549.681 612.671C549.829 612.819 550.03 612.902 550.239 612.902C550.449 612.902 550.65 612.819 550.798 612.671C550.946 612.523 551.029 612.322 551.029 612.112Z" fill="white"/>
<path d="M431.578 773.562C431.976 773.562 432.357 773.403 432.639 773.122C432.92 772.841 433.078 772.459 433.078 772.062C433.078 771.664 432.92 771.282 432.639 771.001C432.357 770.72 431.976 770.562 431.578 770.562C431.18 770.562 430.799 770.72 430.517 771.001C430.236 771.282 430.078 771.664 430.078 772.062C430.078 772.459 430.236 772.841 430.517 773.122C430.799 773.403 431.18 773.562 431.578 773.562Z" fill="white"/>
<path d="M137.779 797.052H140.599C140.808 797.03 141 796.931 141.14 796.775C141.28 796.619 141.357 796.417 141.357 796.207C141.357 795.998 141.28 795.796 141.14 795.64C141 795.484 140.808 795.385 140.599 795.362H137.779C137.571 795.385 137.379 795.484 137.239 795.64C137.099 795.796 137.021 795.998 137.021 796.207C137.021 796.417 137.099 796.619 137.239 796.775C137.379 796.931 137.571 797.03 137.779 797.052Z" fill="white"/>
<path d="M101.61 895.202L98.7896 892.202C98.0696 891.432 96.9496 892.622 97.6696 893.392L100.5 896.392C101.22 897.162 102.33 895.962 101.61 895.192V895.202Z" fill="white"/>
<path d="M79.7088 699.312C79.7088 699.522 79.7088 699.202 79.7088 699.312C79.7088 699.422 79.7088 699.372 79.7088 699.312V699.392C79.7088 699.492 79.5688 699.392 79.7088 699.392C79.8488 699.392 79.5988 699.442 79.7088 699.392H79.8788C79.9688 699.392 79.7588 699.392 79.8788 699.392H80.1088C80.2446 699.393 80.3769 699.435 80.4888 699.512C80.4088 699.432 80.4888 699.512 80.4888 699.512C80.4888 699.512 80.4888 699.412 80.4888 699.512C80.4888 699.442 80.4888 699.402 80.4888 699.512C80.4888 699.312 80.4388 699.602 80.4888 699.442C80.2788 700.502 81.7988 700.952 82.0088 699.892C82.5588 697.112 77.8088 696.892 78.1788 699.802C78.2018 699.909 78.2466 700.01 78.3104 700.098C78.3742 700.186 78.4557 700.261 78.5496 700.316C78.6435 700.372 78.7479 700.407 78.8562 700.42C78.9645 700.433 79.0743 700.424 79.1788 700.392C79.3756 700.32 79.5396 700.179 79.6407 699.995C79.7417 699.811 79.773 699.597 79.7288 699.392L79.7088 699.312Z" fill="white"/>
<path d="M337.568 729.811V732.811C337.568 733.021 337.652 733.222 337.8 733.37C337.948 733.518 338.149 733.601 338.358 733.601C338.568 733.601 338.769 733.518 338.917 733.37C339.065 733.222 339.148 733.021 339.148 732.811V729.811C339.148 729.602 339.065 729.401 338.917 729.253C338.769 729.105 338.568 729.021 338.358 729.021C338.149 729.021 337.948 729.105 337.8 729.253C337.652 729.401 337.568 729.602 337.568 729.811Z" fill="white"/>
<path d="M710.109 478.701C710.507 478.701 710.889 478.543 711.17 478.262C711.451 477.981 711.609 477.599 711.609 477.201C711.609 476.803 711.451 476.422 711.17 476.141C710.889 475.859 710.507 475.701 710.109 475.701C709.712 475.701 709.33 475.859 709.049 476.141C708.767 476.422 708.609 476.803 708.609 477.201C708.609 477.599 708.767 477.981 709.049 478.262C709.33 478.543 709.712 478.701 710.109 478.701Z" fill="white"/>
<path d="M975.749 237.553C976.117 237.51 976.456 237.334 976.703 237.057C976.949 236.781 977.085 236.423 977.085 236.053C977.085 235.682 976.949 235.325 976.703 235.048C976.456 234.772 976.117 234.595 975.749 234.553C975.381 234.595 975.041 234.772 974.795 235.048C974.548 235.325 974.412 235.682 974.412 236.053C974.412 236.423 974.548 236.781 974.795 237.057C975.041 237.334 975.381 237.51 975.749 237.553Z" fill="white"/>
<path d="M1180.11 403.101L1182.11 400.971C1182.83 400.201 1181.72 398.971 1181 399.781L1179 401.911C1178.28 402.681 1179.39 403.911 1180.11 403.101Z" fill="white"/>
<path d="M1035.68 579.012C1036.05 578.969 1036.39 578.793 1036.63 578.516C1036.88 578.24 1037.01 577.882 1037.01 577.512C1037.01 577.141 1036.88 576.784 1036.63 576.507C1036.39 576.231 1036.05 576.054 1035.68 576.012C1035.31 576.054 1034.97 576.231 1034.72 576.507C1034.48 576.784 1034.34 577.141 1034.34 577.512C1034.34 577.882 1034.48 578.24 1034.72 578.516C1034.97 578.793 1035.31 578.969 1035.68 579.012Z" fill="white"/>
<path d="M1407.39 110.312L1406.17 111.602C1405.45 112.372 1406.57 113.602 1407.29 112.802C1407.69 112.362 1408.1 111.932 1408.5 111.502C1409.22 110.732 1408.11 109.502 1407.39 110.312L1406.17 111.602C1405.45 112.372 1406.57 113.602 1407.29 112.802C1407.69 112.362 1408.1 111.932 1408.5 111.502C1409.22 110.732 1408.11 109.502 1407.39 110.312Z" fill="white"/>
<path d="M1264.63 197.632V199.762C1264.63 199.971 1264.71 200.172 1264.86 200.32C1265.01 200.469 1265.21 200.552 1265.42 200.552C1265.63 200.552 1265.83 200.469 1265.98 200.32C1266.13 200.172 1266.21 199.971 1266.21 199.762V197.632C1266.21 197.422 1266.13 197.221 1265.98 197.073C1265.83 196.925 1265.63 196.842 1265.42 196.842C1265.21 196.842 1265.01 196.925 1264.86 197.073C1264.71 197.221 1264.63 197.422 1264.63 197.632Z" fill="white"/>
<path d="M775.979 175.662C776.347 175.62 776.687 175.443 776.933 175.167C777.179 174.89 777.316 174.533 777.316 174.162C777.316 173.792 777.179 173.434 776.933 173.158C776.687 172.881 776.347 172.705 775.979 172.662C775.611 172.705 775.272 172.881 775.025 173.158C774.779 173.434 774.643 173.792 774.643 174.162C774.643 174.533 774.779 174.89 775.025 175.167C775.272 175.443 775.611 175.62 775.979 175.662Z" fill="white"/>
<path d="M827.11 390.472L825.11 388.332C824.39 387.562 823.27 388.762 823.99 389.532L825.99 391.662C826.71 392.432 827.82 391.242 827.1 390.472H827.11Z" fill="white"/>
<path d="M850.728 558.403V553.933C850.728 553.723 850.645 553.522 850.497 553.374C850.349 553.226 850.148 553.143 849.938 553.143C849.729 553.143 849.528 553.226 849.38 553.374C849.232 553.522 849.148 553.723 849.148 553.933V558.403C849.148 558.612 849.232 558.813 849.38 558.961C849.528 559.109 849.729 559.193 849.938 559.193C850.148 559.193 850.349 559.109 850.497 558.961C850.645 558.813 850.728 558.612 850.728 558.403Z" fill="white"/>
<path d="M720.38 774.212C720.747 774.169 721.087 773.993 721.333 773.716C721.58 773.44 721.716 773.082 721.716 772.712C721.716 772.341 721.58 771.984 721.333 771.707C721.087 771.431 720.747 771.254 720.38 771.212C720.012 771.254 719.672 771.431 719.426 771.707C719.179 771.984 719.043 772.341 719.043 772.712C719.043 773.082 719.179 773.44 719.426 773.716C719.672 773.993 720.012 774.169 720.38 774.212Z" fill="white"/>
<path d="M615.639 107.672C616.036 107.672 616.418 107.514 616.699 107.233C616.981 106.951 617.139 106.57 617.139 106.172C617.139 105.774 616.981 105.393 616.699 105.111C616.418 104.83 616.036 104.672 615.639 104.672C615.241 104.672 614.859 104.83 614.578 105.111C614.297 105.393 614.139 105.774 614.139 106.172C614.139 106.57 614.297 106.951 614.578 107.233C614.859 107.514 615.241 107.672 615.639 107.672Z" fill="white"/>
<path d="M601.109 195.771C601.507 195.771 601.889 195.613 602.17 195.332C602.451 195.051 602.609 194.669 602.609 194.271C602.609 193.874 602.451 193.492 602.17 193.211C601.889 192.93 601.507 192.771 601.109 192.771C600.712 192.771 600.33 192.93 600.049 193.211C599.767 193.492 599.609 193.874 599.609 194.271C599.609 194.669 599.767 195.051 600.049 195.332C600.33 195.613 600.712 195.771 601.109 195.771Z" fill="white"/>
<path d="M726.43 139.882V142.472C726.43 142.681 726.513 142.882 726.661 143.03C726.809 143.179 727.01 143.262 727.22 143.262C727.429 143.262 727.63 143.179 727.778 143.03C727.926 142.882 728.01 142.681 728.01 142.472V139.882C728.01 139.672 727.926 139.471 727.778 139.323C727.63 139.175 727.429 139.092 727.22 139.092C727.01 139.092 726.809 139.175 726.661 139.323C726.513 139.471 726.43 139.672 726.43 139.882Z" fill="white"/>
<path d="M681.92 243.512V240.882C681.92 240.672 681.837 240.471 681.688 240.323C681.54 240.175 681.339 240.092 681.13 240.092C680.92 240.092 680.719 240.175 680.571 240.323C680.423 240.471 680.34 240.672 680.34 240.882V243.472C680.34 243.681 680.423 243.882 680.571 244.03C680.719 244.179 680.92 244.262 681.13 244.262C681.339 244.262 681.54 244.179 681.688 244.03C681.837 243.882 681.92 243.681 681.92 243.472V243.512Z" fill="white"/>
<path d="M668.209 165.772V168.362C668.209 168.572 668.292 168.773 668.44 168.921C668.589 169.069 668.79 169.152 668.999 169.152C669.209 169.152 669.409 169.069 669.558 168.921C669.706 168.773 669.789 168.572 669.789 168.362V165.772C669.789 165.563 669.706 165.362 669.558 165.214C669.409 165.066 669.209 164.982 668.999 164.982C668.79 164.982 668.589 165.066 668.44 165.214C668.292 165.362 668.209 165.563 668.209 165.772Z" fill="white"/>
<path d="M911.559 94.7227C911.927 94.6801 912.267 94.5038 912.513 94.2272C912.76 93.9506 912.896 93.5931 912.896 93.2227C912.896 92.8522 912.76 92.4947 912.513 92.2181C912.267 91.9416 911.927 91.7652 911.559 91.7227C911.191 91.7652 910.852 91.9416 910.605 92.2181C910.359 92.4947 910.223 92.8522 910.223 93.2227C910.223 93.5931 910.359 93.9506 910.605 94.2272C910.852 94.5038 911.191 94.6801 911.559 94.7227Z" fill="white"/>
<path d="M923.689 257.963C924.087 257.963 924.469 257.805 924.75 257.524C925.031 257.242 925.189 256.861 925.189 256.463C925.189 256.065 925.031 255.684 924.75 255.402C924.469 255.121 924.087 254.963 923.689 254.963C923.292 254.963 922.91 255.121 922.629 255.402C922.347 255.684 922.189 256.065 922.189 256.463C922.189 256.861 922.347 257.242 922.629 257.524C922.91 257.805 923.292 257.963 923.689 257.963Z" fill="white"/>
<path d="M895.369 290.151V287.561C895.369 287.352 895.286 287.151 895.138 287.003C894.99 286.855 894.789 286.771 894.579 286.771C894.37 286.771 894.169 286.855 894.02 287.003C893.872 287.151 893.789 287.352 893.789 287.561V290.151C893.789 290.361 893.872 290.562 894.02 290.71C894.169 290.858 894.37 290.941 894.579 290.941C894.789 290.941 894.99 290.858 895.138 290.71C895.286 290.562 895.369 290.361 895.369 290.151Z" fill="white"/>
<path d="M821.809 351.252C822.206 351.252 822.588 351.094 822.869 350.813C823.151 350.531 823.309 350.15 823.309 349.752C823.309 349.354 823.151 348.973 822.869 348.691C822.588 348.41 822.206 348.252 821.809 348.252C821.411 348.252 821.029 348.41 820.748 348.691C820.467 348.973 820.309 349.354 820.309 349.752C820.309 350.15 820.467 350.531 820.748 350.813C821.029 351.094 821.411 351.252 821.809 351.252Z" fill="white"/>
<path d="M846.109 226.211H848.539C849.539 226.211 849.539 224.521 848.539 224.521H846.109C845.901 224.544 845.709 224.643 845.569 224.799C845.429 224.955 845.352 225.157 845.352 225.366C845.352 225.576 845.429 225.778 845.569 225.934C845.709 226.09 845.901 226.189 846.109 226.211Z" fill="white"/>
<path d="M1081.91 258.462L1079.48 255.872C1078.76 255.102 1077.65 256.292 1078.37 257.062L1080.79 259.652C1081.51 260.422 1082.63 259.232 1081.91 258.462Z" fill="white"/>
<path d="M1062.74 430.081V427.481C1062.74 427.272 1062.65 427.071 1062.51 426.923C1062.36 426.775 1062.16 426.691 1061.95 426.691C1061.74 426.691 1061.54 426.775 1061.39 426.923C1061.24 427.071 1061.16 427.272 1061.16 427.481V430.081C1061.16 430.291 1061.24 430.492 1061.39 430.64C1061.54 430.788 1061.74 430.871 1061.95 430.871C1062.16 430.871 1062.36 430.788 1062.51 430.64C1062.65 430.492 1062.74 430.291 1062.74 430.081Z" fill="white"/>
<path d="M943.109 501.543C943.507 501.543 943.889 501.385 944.17 501.104C944.451 500.822 944.609 500.441 944.609 500.043C944.609 499.645 944.451 499.264 944.17 498.982C943.889 498.701 943.507 498.543 943.109 498.543C942.712 498.543 942.33 498.701 942.049 498.982C941.767 499.264 941.609 499.645 941.609 500.043C941.609 500.441 941.767 500.822 942.049 501.104C942.33 501.385 942.712 501.543 943.109 501.543Z" fill="white"/>
<path d="M825.029 598.502V595.882C825.029 595.672 824.946 595.471 824.798 595.323C824.65 595.175 824.449 595.092 824.239 595.092C824.03 595.092 823.829 595.175 823.681 595.323C823.532 595.471 823.449 595.672 823.449 595.882V598.472C823.449 598.681 823.532 598.882 823.681 599.03C823.829 599.179 824.03 599.262 824.239 599.262C824.449 599.262 824.65 599.179 824.798 599.03C824.946 598.882 825.029 598.681 825.029 598.472V598.502Z" fill="white"/>
<path d="M897.008 431.582C897.376 431.539 897.716 431.363 897.962 431.087C898.209 430.81 898.345 430.452 898.345 430.082C898.345 429.712 898.209 429.354 897.962 429.077C897.716 428.801 897.376 428.625 897.008 428.582C896.64 428.625 896.301 428.801 896.055 429.077C895.808 429.354 895.672 429.712 895.672 430.082C895.672 430.452 895.808 430.81 896.055 431.087C896.301 431.363 896.64 431.539 897.008 431.582Z" fill="white"/>
<path d="M663.59 498.042L666.019 500.632C666.739 501.402 667.86 500.212 667.14 499.442L664.709 496.882C663.989 496.112 662.87 497.302 663.59 498.072V498.042Z" fill="white"/>
<path d="M598.328 556.882C597.978 559.592 602.328 559.382 601.828 556.812C601.618 555.742 600.099 556.192 600.309 557.252C600.309 557.062 600.309 557.252 600.309 557.182C600.309 557.112 600.309 557.232 600.309 557.092C600.239 557.212 600.399 557.092 600.309 557.092C600.219 557.092 600.209 557.252 600.309 557.092C600.279 557.118 600.245 557.138 600.208 557.152C600.358 557.152 600.258 557.152 600.208 557.152H600.059C600.169 557.152 600.149 557.152 600.059 557.152C599.969 557.152 599.749 557.102 599.929 557.152H599.779C599.729 557.152 599.779 557.152 599.839 557.152H599.779C599.779 557.032 599.779 557.252 599.779 557.152C599.779 557.152 599.779 557.152 599.779 557.212C599.779 557.272 599.779 557.362 599.779 557.212C599.839 557.422 599.779 557.212 599.779 557.342C599.821 557.137 599.788 556.924 599.688 556.741C599.587 556.557 599.424 556.416 599.229 556.342C599.124 556.31 599.014 556.301 598.906 556.314C598.798 556.327 598.693 556.363 598.599 556.418C598.505 556.473 598.424 556.548 598.36 556.636C598.296 556.725 598.251 556.825 598.229 556.932L598.328 556.882Z" fill="white"/>
<path d="M642.319 366.803C642.687 366.76 643.026 366.584 643.273 366.307C643.519 366.031 643.655 365.673 643.655 365.303C643.655 364.932 643.519 364.575 643.273 364.298C643.026 364.022 642.687 363.845 642.319 363.803C641.951 363.845 641.611 364.022 641.365 364.298C641.119 364.575 640.982 364.932 640.982 365.303C640.982 365.673 641.119 366.031 641.365 366.307C641.611 366.584 641.951 366.76 642.319 366.803Z" fill="white"/>
<path d="M756.88 483.883L754.459 481.293C753.739 480.523 752.62 481.723 753.34 482.493L755.769 485.083C756.489 485.853 757.6 484.653 756.88 483.883Z" fill="white"/>
<path d="M1078.92 112.883C1079.29 112.84 1079.63 112.664 1079.87 112.387C1080.12 112.111 1080.26 111.753 1080.26 111.383C1080.26 111.012 1080.12 110.655 1079.87 110.378C1079.63 110.102 1079.29 109.925 1078.92 109.883C1078.55 109.925 1078.21 110.102 1077.96 110.378C1077.72 110.655 1077.58 111.012 1077.58 111.383C1077.58 111.753 1077.72 112.111 1077.96 112.387C1078.21 112.664 1078.55 112.84 1078.92 112.883Z" fill="white"/>
<path d="M1202.63 185.412C1203.03 185.412 1203.41 185.254 1203.69 184.973C1203.97 184.691 1204.13 184.31 1204.13 183.912C1204.13 183.514 1203.97 183.133 1203.69 182.851C1203.41 182.57 1203.03 182.412 1202.63 182.412C1202.23 182.412 1201.85 182.57 1201.57 182.851C1201.29 183.133 1201.13 183.514 1201.13 183.912C1201.13 184.31 1201.29 184.691 1201.57 184.973C1201.85 185.254 1202.23 185.412 1202.63 185.412Z" fill="white"/>
<path d="M1173.52 356.432C1173.92 356.432 1174.3 356.274 1174.58 355.992C1174.86 355.711 1175.02 355.329 1175.02 354.932C1175.02 354.534 1174.86 354.152 1174.58 353.871C1174.3 353.59 1173.92 353.432 1173.52 353.432C1173.12 353.432 1172.74 353.59 1172.46 353.871C1172.18 354.152 1172.02 354.534 1172.02 354.932C1172.02 355.329 1172.18 355.711 1172.46 355.992C1172.74 356.274 1173.12 356.432 1173.52 356.432Z" fill="white"/>
<path d="M1127.83 587.411V584.411C1127.83 584.307 1127.81 584.205 1127.77 584.109C1127.73 584.013 1127.67 583.926 1127.6 583.852C1127.53 583.779 1127.44 583.721 1127.34 583.681C1127.25 583.642 1127.14 583.621 1127.04 583.621C1126.94 583.621 1126.83 583.642 1126.74 583.681C1126.64 583.721 1126.55 583.779 1126.48 583.852C1126.41 583.926 1126.35 584.013 1126.31 584.109C1126.27 584.205 1126.25 584.307 1126.25 584.411V587.411C1126.25 587.515 1126.27 587.618 1126.31 587.713C1126.35 587.809 1126.41 587.896 1126.48 587.97C1126.55 588.043 1126.64 588.101 1126.74 588.141C1126.83 588.181 1126.94 588.201 1127.04 588.201C1127.14 588.201 1127.25 588.181 1127.34 588.141C1127.44 588.101 1127.53 588.043 1127.6 587.97C1127.67 587.896 1127.73 587.809 1127.77 587.713C1127.81 587.618 1127.83 587.515 1127.83 587.411Z" fill="white"/>
<path d="M1008.39 748.882C1008.79 748.882 1009.17 748.724 1009.45 748.443C1009.73 748.161 1009.89 747.78 1009.89 747.382C1009.89 746.984 1009.73 746.602 1009.45 746.321C1009.17 746.04 1008.79 745.882 1008.39 745.882C1007.99 745.882 1007.61 746.04 1007.33 746.321C1007.05 746.602 1006.89 746.984 1006.89 747.382C1006.89 747.78 1007.05 748.161 1007.33 748.443C1007.61 748.724 1007.99 748.882 1008.39 748.882Z" fill="white"/>
<path d="M714.588 772.352H717.408C717.616 772.329 717.809 772.231 717.949 772.075C718.089 771.919 718.166 771.717 718.166 771.507C718.166 771.298 718.089 771.095 717.949 770.94C717.809 770.784 717.616 770.685 717.408 770.662H714.588C714.38 770.685 714.187 770.784 714.047 770.94C713.907 771.095 713.83 771.298 713.83 771.507C713.83 771.717 713.907 771.919 714.047 772.075C714.187 772.231 714.38 772.329 714.588 772.352Z" fill="white"/>
<path d="M678.419 870.502L675.589 867.502C674.869 866.742 673.759 867.932 674.479 868.702L677.3 871.702C678.02 872.462 679.139 871.272 678.419 870.502Z" fill="white"/>
<path d="M656.519 674.612C656.519 674.822 656.519 674.502 656.519 674.612C656.519 674.722 656.519 674.672 656.519 674.612V674.692C656.569 674.792 656.379 674.692 656.519 674.692C656.659 674.692 656.409 674.752 656.519 674.692C656.629 674.632 656.579 674.692 656.519 674.692H656.689C656.779 674.692 656.579 674.692 656.689 674.692H656.879C657.012 674.693 657.141 674.735 657.249 674.812C657.169 674.732 657.199 674.812 657.249 674.812C657.299 674.812 657.249 674.712 657.249 674.812C657.249 674.752 657.249 674.712 657.249 674.812C657.249 674.612 657.199 674.902 657.249 674.742C657.039 675.802 658.569 676.252 658.769 675.192C659.319 672.412 654.569 672.192 654.949 675.102C654.971 675.209 655.015 675.311 655.078 675.4C655.142 675.49 655.223 675.565 655.318 675.62C655.412 675.676 655.517 675.711 655.626 675.723C655.735 675.736 655.845 675.725 655.949 675.692C656.144 675.616 656.305 675.475 656.406 675.292C656.506 675.109 656.539 674.897 656.499 674.692L656.519 674.612Z" fill="white"/>
<path d="M591.109 886.192V883.192C591.109 882.983 591.026 882.782 590.878 882.634C590.73 882.486 590.529 882.402 590.319 882.402C590.11 882.402 589.909 882.486 589.761 882.634C589.613 882.782 589.529 882.983 589.529 883.192V886.192C589.529 886.402 589.613 886.603 589.761 886.751C589.909 886.899 590.11 886.982 590.319 886.982C590.529 886.982 590.73 886.899 590.878 886.751C591.026 886.603 591.109 886.402 591.109 886.192Z" fill="white"/>
<path d="M914.369 705.112V708.112C914.369 708.322 914.452 708.523 914.601 708.671C914.749 708.819 914.95 708.902 915.159 708.902C915.369 708.902 915.57 708.819 915.718 708.671C915.866 708.523 915.949 708.322 915.949 708.112V705.112C915.949 704.903 915.866 704.702 915.718 704.554C915.57 704.405 915.369 704.322 915.159 704.322C914.95 704.322 914.749 704.405 914.601 704.554C914.452 704.702 914.369 704.903 914.369 705.112Z" fill="white"/>
<path d="M876.398 901.282V898.282C876.398 898.073 876.315 897.872 876.167 897.724C876.019 897.575 875.818 897.492 875.608 897.492C875.399 897.492 875.198 897.575 875.05 897.724C874.902 897.872 874.818 898.073 874.818 898.282V901.282C874.818 901.492 874.902 901.693 875.05 901.841C875.198 901.989 875.399 902.072 875.608 902.072C875.818 902.072 876.019 901.989 876.167 901.841C876.315 901.693 876.398 901.492 876.398 901.282Z" fill="white"/>
<path d="M1286.87 454.002C1287.27 454.002 1287.65 453.844 1287.93 453.563C1288.21 453.281 1288.37 452.9 1288.37 452.502C1288.37 452.104 1288.21 451.723 1287.93 451.441C1287.65 451.16 1287.27 451.002 1286.87 451.002C1286.47 451.002 1286.09 451.16 1285.81 451.441C1285.53 451.723 1285.37 452.104 1285.37 452.502C1285.37 452.9 1285.53 453.281 1285.81 453.563C1286.09 453.844 1286.47 454.002 1286.87 454.002Z" fill="white"/>
<path d="M1352.79 150.951C1353.19 150.951 1353.57 150.793 1353.85 150.512C1354.13 150.231 1354.29 149.849 1354.29 149.451C1354.29 149.053 1354.13 148.672 1353.85 148.391C1353.57 148.109 1353.19 147.951 1352.79 147.951C1352.39 147.951 1352.01 148.109 1351.73 148.391C1351.45 148.672 1351.29 149.053 1351.29 149.451C1351.29 149.849 1351.45 150.231 1351.73 150.512C1352.01 150.793 1352.39 150.951 1352.79 150.951Z" fill="white"/>
<path d="M1403.96 365.762L1401.96 363.632C1401.24 362.862 1400.12 364.052 1400.84 364.822L1402.84 366.962C1403.56 367.732 1404.68 366.532 1403.96 365.762Z" fill="white"/>
<path d="M1427.53 533.701V529.231C1427.53 529.128 1427.51 529.025 1427.47 528.929C1427.43 528.833 1427.37 528.746 1427.3 528.673C1427.22 528.599 1427.14 528.541 1427.04 528.502C1426.95 528.462 1426.84 528.441 1426.74 528.441C1426.64 528.441 1426.53 528.462 1426.44 528.502C1426.34 528.541 1426.25 528.599 1426.18 528.673C1426.11 528.746 1426.05 528.833 1426.01 528.929C1425.97 529.025 1425.95 529.128 1425.95 529.231V533.701C1425.95 533.805 1425.97 533.908 1426.01 534.004C1426.05 534.1 1426.11 534.187 1426.18 534.26C1426.25 534.333 1426.34 534.392 1426.44 534.431C1426.53 534.471 1426.64 534.491 1426.74 534.491C1426.84 534.491 1426.95 534.471 1427.04 534.431C1427.14 534.392 1427.22 534.333 1427.3 534.26C1427.37 534.187 1427.43 534.1 1427.47 534.004C1427.51 533.908 1427.53 533.805 1427.53 533.701Z" fill="white"/>
<path d="M1297.18 749.502C1297.58 749.502 1297.96 749.344 1298.24 749.063C1298.52 748.781 1298.68 748.4 1298.68 748.002C1298.68 747.604 1298.52 747.223 1298.24 746.941C1297.96 746.66 1297.58 746.502 1297.18 746.502C1296.78 746.502 1296.4 746.66 1296.12 746.941C1295.84 747.223 1295.68 747.604 1295.68 748.002C1295.68 748.4 1295.84 748.781 1296.12 749.063C1296.4 749.344 1296.78 749.502 1297.18 749.502Z" fill="white"/>
</g>
<defs>
<filter id="filter0_f_121_1587" x="-848.008" y="97.498" width="3339.49" height="1480.12" filterUnits="userSpaceOnUse" color-interpolation-filters="sRGB">
<feFlood flood-opacity="0" result="BackgroundImageFix"/>
<feBlend mode="normal" in="SourceGraphic" in2="BackgroundImageFix" result="shape"/>
<feGaussianBlur stdDeviation="150" result="effect1_foregroundBlur_121_1587"/>
</filter>
<clipPath id="clip0_121_1587">
<rect width="1440" height="900" fill="white"/>
</clipPath>
</defs>
</svg>
