<?xml version="1.0" encoding="utf-8"?>
<!-- Generator: Adobe Illustrator 24.1.2, SVG Export Plug-In . SVG Version: 6.00 Build 0)  -->
<svg version="1.1" id="Слой_1" xmlns="http://www.w3.org/2000/svg" xmlns:xlink="http://www.w3.org/1999/xlink" x="0px" y="0px"
	 viewBox="0 0 1440 900" style="enable-background:new 0 0 1440 900;" xml:space="preserve">
<style type="text/css">
	.st0{clip-path:url(#SVGID_2_);}
	.st3{fill:#ADA693;}
	.st4{opacity:0.5;fill-rule:evenodd;clip-rule:evenodd;fill:#B89774;enable-background:new    ;}
</style>
<g>
	<defs>
		<rect id="SVGID_1_" width="1440" height="900"/>
	</defs>
	<clipPath id="SVGID_2_">
		<use xlink:href="#SVGID_1_"  style="overflow:visible;"/>
	</clipPath>
	<g class="st0">
		<!-- <rect class="st1" width="1440" height="900"/> -->
		<g>
			<path class="st3" d="M524.9,627.9c4.3,0,7.8-3.4,7.8-7.7c0-4.3-3.5-7.7-7.8-7.7c-4.3,0-7.8,3.4-7.8,7.7
				C517.1,624.4,520.6,627.9,524.9,627.9z"/>
		</g>
		<g>
			<path class="st3" d="M190.1,401.6c4.3,0,7.8-3.4,7.8-7.7c0-4.3-3.5-7.7-7.8-7.7s-7.8,3.4-7.8,7.7
				C182.2,398.1,185.8,401.6,190.1,401.6z"/>
		</g>
		<g>
			<path class="st3" d="M598.7,629.9c0,0.8-0.2,1.7-0.7,2.4c-0.5,0.7-1.1,1.3-1.9,1.6c-0.8,0.3-1.6,0.4-2.4,0.3
				c-0.8-0.2-1.6-0.5-2.2-1.1c-0.6-0.6-1-1.3-1.2-2.2c-0.2-0.8-0.1-1.7,0.2-2.4c0.3-0.8,0.9-1.4,1.6-1.9c0.7-0.5,1.5-0.7,2.4-0.7
				c0.5,0,1.1,0.1,1.6,0.3c0.5,0.2,1,0.5,1.4,0.9c0.4,0.4,0.7,0.8,0.9,1.3S598.7,629.3,598.7,629.9z"/>
		</g>
		<g>
			<path class="st3" d="M309,301.3c0,0.8-0.2,1.7-0.7,2.4c-0.5,0.7-1.1,1.3-1.9,1.6c-0.8,0.3-1.6,0.4-2.4,0.3
				c-0.8-0.2-1.6-0.6-2.2-1.1c-0.6-0.6-1-1.3-1.2-2.2c-0.2-0.8-0.1-1.7,0.2-2.4s0.9-1.4,1.6-1.9c0.7-0.5,1.5-0.7,2.4-0.7
				c0.5,0,1.1,0.1,1.6,0.3c0.5,0.2,1,0.5,1.4,0.9c0.4,0.4,0.7,0.8,0.9,1.4C308.9,300.2,309,300.7,309,301.3z"/>
		</g>
		<g>
			<path class="st3" d="M184.5,227.3c0,0.8-0.2,1.7-0.7,2.4c-0.5,0.7-1.1,1.3-1.9,1.6c-0.8,0.3-1.6,0.4-2.4,0.3s-1.6-0.6-2.2-1.1
				c-0.6-0.6-1-1.3-1.2-2.2c-0.2-0.8-0.1-1.7,0.2-2.4c0.3-0.8,0.9-1.4,1.6-1.9c0.7-0.5,1.5-0.7,2.4-0.7c1.1,0,2.2,0.4,3,1.2
				S184.5,226.2,184.5,227.3z"/>
		</g>
		<g>
			<path class="st3" d="M20,890.2c0,0.8-0.2,1.7-0.7,2.4c-0.5,0.7-1.1,1.3-1.9,1.6c-0.8,0.3-1.6,0.4-2.4,0.3
				c-0.8-0.2-1.6-0.5-2.2-1.1c-0.6-0.6-1-1.3-1.2-2.2c-0.2-0.8-0.1-1.7,0.2-2.4s0.9-1.4,1.6-1.9c0.7-0.5,1.5-0.7,2.4-0.7
				c0.5,0,1.1,0.1,1.6,0.3s1,0.5,1.4,0.9c0.4,0.4,0.7,0.8,0.9,1.3C19.9,889.1,20,889.6,20,890.2z"/>
		</g>
		<g>
			<path class="st3" d="M17.2,734.7c0,0.8-0.2,1.7-0.7,2.4c-0.5,0.7-1.1,1.3-1.9,1.6c-0.8,0.3-1.6,0.4-2.4,0.3
				c-0.8-0.2-1.6-0.6-2.2-1.1c-0.6-0.6-1-1.3-1.2-2.2c-0.2-0.8-0.1-1.7,0.2-2.4c0.3-0.8,0.9-1.4,1.6-1.9c0.7-0.5,1.5-0.7,2.4-0.7
				c1.1,0,2.2,0.4,3,1.2S17.2,733.6,17.2,734.7z"/>
		</g>
		<g>
			<path class="st3" d="M61.9,167c0,0.8-0.2,1.7-0.7,2.4c-0.5,0.7-1.1,1.3-1.9,1.6c-0.8,0.3-1.6,0.4-2.4,0.3
				c-0.8-0.2-1.6-0.6-2.2-1.1c-0.6-0.6-1-1.3-1.2-2.2c-0.2-0.8-0.1-1.7,0.2-2.4c0.3-0.8,0.9-1.4,1.6-1.9c0.7-0.5,1.5-0.7,2.4-0.7
				c1.1,0,2.2,0.4,3,1.2C61.4,164.9,61.9,165.9,61.9,167z"/>
		</g>
		<g>
			<path class="st3" d="M575,803.9c0,0.8-0.2,1.7-0.7,2.4c-0.5,0.7-1.1,1.3-1.9,1.6c-0.8,0.3-1.6,0.4-2.4,0.3
				c-0.8-0.2-1.6-0.6-2.2-1.1c-0.6-0.6-1-1.3-1.2-2.2c-0.2-0.8-0.1-1.7,0.2-2.4c0.3-0.8,0.9-1.4,1.6-1.9c0.7-0.5,1.5-0.7,2.4-0.7
				c0.5,0,1.1,0.1,1.6,0.3c0.5,0.2,1,0.5,1.4,0.9c0.4,0.4,0.7,0.8,0.9,1.4C574.9,802.8,575,803.3,575,803.9z"/>
		</g>
		<g>
			<path class="st3" d="M1014.9,449.1c0,0.8-0.2,1.7-0.7,2.4c-0.5,0.7-1.1,1.3-1.9,1.6c-0.8,0.3-1.6,0.4-2.4,0.3
				c-0.8-0.2-1.6-0.5-2.2-1.1c-0.6-0.6-1-1.3-1.2-2.2c-0.2-0.8-0.1-1.7,0.2-2.4c0.3-0.8,0.9-1.4,1.6-1.9c0.7-0.5,1.5-0.7,2.3-0.7
				c0.5,0,1.1,0.1,1.6,0.3c0.5,0.2,1,0.5,1.4,0.9c0.4,0.4,0.7,0.8,0.9,1.3C1014.8,448,1014.9,448.6,1014.9,449.1z"/>
		</g>
		<g>
			<path class="st3" d="M379.1,223.2c0,0.8-0.2,1.7-0.7,2.4c-0.5,0.7-1.1,1.3-1.9,1.6c-0.8,0.3-1.6,0.4-2.4,0.3
				c-0.8-0.2-1.6-0.6-2.2-1.1c-0.6-0.6-1-1.3-1.2-2.2c-0.2-0.8-0.1-1.7,0.2-2.4c0.3-0.8,0.9-1.4,1.6-1.9c0.7-0.5,1.5-0.7,2.4-0.7
				c0.5,0,1.1,0.1,1.6,0.3c0.5,0.2,1,0.5,1.4,0.9c0.4,0.4,0.7,0.8,0.9,1.4C379,222.1,379.1,222.6,379.1,223.2z"/>
		</g>
		<g>
			<path class="st3" d="M1111.8,305.4c0,0.8-0.2,1.7-0.7,2.4c-0.5,0.7-1.1,1.3-1.9,1.6c-0.8,0.3-1.6,0.4-2.4,0.3
				c-0.8-0.2-1.6-0.5-2.2-1.1c-0.6-0.6-1-1.3-1.2-2.2c-0.2-0.8-0.1-1.7,0.2-2.4c0.3-0.8,0.9-1.4,1.6-1.9c0.7-0.5,1.5-0.7,2.3-0.7
				c0.6,0,1.1,0.1,1.6,0.3c0.5,0.2,1,0.5,1.4,0.9c0.4,0.4,0.7,0.8,0.9,1.3C1111.7,304.3,1111.8,304.8,1111.8,305.4z"/>
		</g>
		<g>
			<path class="st3" d="M1341.9,614.9c0,0.8-0.2,1.7-0.7,2.4c-0.5,0.7-1.1,1.3-1.9,1.6c-0.8,0.3-1.6,0.4-2.5,0.3
				c-0.8-0.2-1.6-0.6-2.2-1.1c-0.6-0.6-1-1.3-1.2-2.2c-0.2-0.8-0.1-1.7,0.2-2.4c0.3-0.8,0.9-1.4,1.6-1.9c0.7-0.5,1.5-0.7,2.4-0.7
				c0.5,0,1.1,0.1,1.6,0.3c0.5,0.2,1,0.5,1.4,0.9c0.4,0.4,0.7,0.8,0.9,1.3C1341.7,613.8,1341.9,614.3,1341.9,614.9z"/>
		</g>
		<g>
			<path class="st3" d="M557.9,274.5c0,0.8-0.2,1.7-0.7,2.4c-0.5,0.7-1.1,1.3-1.9,1.6c-0.8,0.3-1.6,0.4-2.4,0.3
				c-0.8-0.2-1.6-0.5-2.2-1.1c-0.6-0.6-1-1.3-1.2-2.2c-0.2-0.8-0.1-1.7,0.2-2.4c0.3-0.8,0.9-1.4,1.6-1.9c0.7-0.5,1.5-0.7,2.4-0.7
				c0.5,0,1.1,0.1,1.6,0.3c0.5,0.2,1,0.5,1.4,0.9c0.4,0.4,0.7,0.8,0.9,1.3C557.8,273.4,557.9,274,557.9,274.5z"/>
		</g>
		<g>
			<path class="st3" d="M898.8,197.5c0,0.8-0.2,1.7-0.7,2.4c-0.5,0.7-1.1,1.3-1.9,1.6c-0.8,0.3-1.6,0.4-2.4,0.3
				c-0.8-0.2-1.6-0.5-2.2-1.1c-0.6-0.6-1-1.3-1.2-2.2c-0.2-0.8-0.1-1.7,0.2-2.4c0.3-0.8,0.9-1.4,1.6-1.9c0.7-0.5,1.5-0.7,2.4-0.7
				c1.1,0,2.2,0.4,3,1.2C898.3,195.3,898.8,196.4,898.8,197.5z"/>
		</g>
		<g>
			<path class="st3" d="M132.3,95.8c0,0.8-0.2,1.7-0.7,2.4c-0.5,0.7-1.1,1.3-1.9,1.6c-0.8,0.3-1.6,0.4-2.4,0.3
				c-0.8-0.2-1.6-0.6-2.2-1.1s-1-1.3-1.2-2.2s-0.1-1.7,0.2-2.5c0.3-0.8,0.9-1.4,1.6-1.9c0.7-0.5,1.5-0.7,2.4-0.7
				c1.1,0,2.2,0.4,2.9,1.2C131.8,93.7,132.3,94.7,132.3,95.8z"/>
		</g>
		<g>
			<path class="st3" d="M1023.9,481.7c0,0.5-0.1,1-0.4,1.4c-0.3,0.4-0.7,0.8-1.1,1c-0.5,0.2-1,0.3-1.5,0.2c-0.5-0.1-1-0.3-1.3-0.7
				c-0.4-0.4-0.6-0.8-0.7-1.3c-0.1-0.5,0-1,0.1-1.5c0.2-0.5,0.5-0.9,0.9-1.1c0.4-0.3,0.9-0.4,1.4-0.4c0.3,0,0.7,0.1,1,0.2
				c0.3,0.1,0.6,0.3,0.8,0.5c0.2,0.2,0.4,0.5,0.5,0.8S1023.9,481.4,1023.9,481.7z"/>
		</g>
		<g>
			<path class="st3" d="M12.7,378.2c0,0.5-0.1,1-0.4,1.4c-0.3,0.4-0.7,0.8-1.1,0.9c-0.5,0.2-1,0.3-1.5,0.2c-0.5-0.1-0.9-0.3-1.3-0.7
				c-0.4-0.4-0.6-0.8-0.7-1.3c-0.1-0.5-0.1-1,0.1-1.5c0.2-0.5,0.5-0.9,0.9-1.1c0.4-0.3,0.9-0.4,1.4-0.4c0.3,0,0.7,0.1,1,0.2
				c0.3,0.1,0.6,0.3,0.8,0.5c0.2,0.2,0.4,0.5,0.5,0.8C12.7,377.6,12.7,377.9,12.7,378.2z"/>
		</g>
		<g>
			<path class="st3" d="M1085.3,577.1c0,0.5-0.1,1-0.4,1.4c-0.3,0.4-0.7,0.8-1.1,1c-0.5,0.2-1,0.3-1.5,0.2c-0.5-0.1-0.9-0.3-1.3-0.7
				c-0.4-0.4-0.6-0.8-0.7-1.3c-0.1-0.5,0-1,0.1-1.5c0.2-0.5,0.5-0.9,0.9-1.1c0.4-0.3,0.9-0.4,1.4-0.4c0.3,0,0.7,0.1,1,0.2
				c0.3,0.1,0.6,0.3,0.8,0.5c0.2,0.2,0.4,0.5,0.5,0.8C1085.3,576.5,1085.3,576.8,1085.3,577.1z"/>
		</g>
		<g>
			<path class="st3" d="M1371.1,502.6c0,0.5-0.1,1-0.4,1.4c-0.3,0.4-0.7,0.8-1.1,1c-0.5,0.2-1,0.3-1.5,0.2c-0.5-0.1-0.9-0.3-1.3-0.7
				c-0.3-0.4-0.6-0.8-0.7-1.3s-0.1-1,0.1-1.5c0.2-0.5,0.5-0.9,0.9-1.1c0.4-0.3,0.9-0.4,1.4-0.4c0.7,0,1.3,0.3,1.8,0.7
				C1370.8,501.3,1371.1,501.9,1371.1,502.6z"/>
		</g>
		<g>
			<path class="st3" d="M1423.6,698.4c0,0.5-0.1,1-0.4,1.4c-0.3,0.4-0.7,0.8-1.1,1c-0.5,0.2-1,0.3-1.5,0.2c-0.5-0.1-0.9-0.3-1.3-0.7
				c-0.4-0.3-0.6-0.8-0.7-1.3c-0.1-0.5-0.1-1,0.1-1.5c0.2-0.5,0.5-0.9,0.9-1.1c0.4-0.3,0.9-0.4,1.4-0.4c0.3,0,0.7,0.1,1,0.2
				c0.3,0.1,0.6,0.3,0.8,0.5c0.2,0.2,0.4,0.5,0.5,0.8S1423.6,698.1,1423.6,698.4z"/>
		</g>
		<g>
			<path class="st3" d="M1203.1,473.8c0,0.5-0.1,1-0.4,1.4c-0.3,0.4-0.7,0.8-1.1,0.9c-0.5,0.2-1,0.3-1.5,0.2
				c-0.5-0.1-0.9-0.3-1.3-0.7c-0.3-0.4-0.6-0.8-0.7-1.3s-0.1-1,0.1-1.5c0.2-0.5,0.5-0.9,0.9-1.1c0.4-0.3,0.9-0.4,1.4-0.4
				c0.7,0,1.3,0.3,1.8,0.7S1203.1,473.2,1203.1,473.8z"/>
		</g>
		<g>
			<path class="st3" d="M1291.6,634c1.4,0,2.5-1.1,2.5-2.5c0-1.4-1.1-2.5-2.5-2.5s-2.5,1.1-2.5,2.5
				C1289.1,632.9,1290.2,634,1291.6,634z"/>
		</g>
		<g>
			<path class="st3" d="M723.6,445.1c0,0.5-0.1,1-0.4,1.4c-0.3,0.4-0.7,0.7-1.1,0.9c-0.5,0.2-1,0.3-1.5,0.2
				c-0.5-0.1-0.9-0.3-1.3-0.7c-0.4-0.4-0.6-0.8-0.7-1.3c-0.1-0.5,0-1,0.1-1.5c0.2-0.5,0.5-0.9,0.9-1.1c0.4-0.3,0.9-0.4,1.4-0.4
				c0.3,0,0.7,0.1,1,0.2c0.3,0.1,0.6,0.3,0.8,0.5c0.2,0.2,0.4,0.5,0.5,0.8C723.5,444.4,723.6,444.7,723.6,445.1z"/>
		</g>
		<g>
			<path class="st3" d="M584.4,314.7c0,0.5-0.1,1-0.4,1.4c-0.3,0.4-0.7,0.8-1.1,1c-0.5,0.2-1,0.3-1.5,0.2c-0.5-0.1-0.9-0.3-1.3-0.7
				s-0.6-0.8-0.7-1.3c-0.1-0.5-0.1-1,0.1-1.5c0.2-0.5,0.5-0.9,0.9-1.1c0.4-0.3,0.9-0.4,1.4-0.4c0.7,0,1.3,0.3,1.8,0.7
				C584.1,313.4,584.4,314,584.4,314.7z"/>
		</g>
		<g>
			<path class="st3" d="M458.4,306.3c0,0.2,0,0.3-0.1,0.5c-0.1,0.1-0.2,0.3-0.4,0.3c-0.2,0.1-0.3,0.1-0.5,0.1
				c-0.2,0-0.3-0.1-0.4-0.2c-0.1-0.1-0.2-0.3-0.2-0.4s0-0.3,0-0.5c0.1-0.2,0.2-0.3,0.3-0.4c0.1-0.1,0.3-0.1,0.5-0.1
				c0.2,0,0.4,0.1,0.6,0.3C458.3,305.8,458.4,306.1,458.4,306.3z"/>
		</g>
		<g>
			<path class="st3" d="M276.4,337.2c0,0.2,0,0.3-0.1,0.5c-0.1,0.1-0.2,0.3-0.4,0.3c-0.2,0.1-0.3,0.1-0.5,0.1
				c-0.2,0-0.3-0.1-0.5-0.2c-0.1-0.1-0.2-0.3-0.2-0.5c0-0.2,0-0.3,0-0.5c0.1-0.2,0.2-0.3,0.3-0.4c0.1-0.1,0.3-0.1,0.5-0.1
				c0.1,0,0.2,0,0.3,0.1c0.1,0,0.2,0.1,0.3,0.2c0.1,0.1,0.1,0.2,0.2,0.3C276.3,337,276.4,337.1,276.4,337.2z"/>
		</g>
		<g>
			<path class="st3" d="M344.7,324.9c0,0.2,0,0.3-0.1,0.5c-0.1,0.1-0.2,0.3-0.4,0.3c-0.2,0.1-0.3,0.1-0.5,0.1
				c-0.2,0-0.3-0.1-0.4-0.2c-0.1-0.1-0.2-0.3-0.2-0.4c0-0.2,0-0.3,0-0.5c0.1-0.2,0.2-0.3,0.3-0.4s0.3-0.1,0.5-0.1
				c0.2,0,0.4,0.1,0.6,0.3C344.6,324.4,344.7,324.7,344.7,324.9z"/>
		</g>
		<g>
			<path class="st3" d="M215.2,350.2c0,0.2-0.1,0.4-0.3,0.6c-0.2,0.1-0.4,0.2-0.6,0.2c-0.2,0-0.4-0.1-0.6-0.2
				c-0.2-0.1-0.3-0.3-0.3-0.6c0-0.2,0.1-0.4,0.3-0.6c0.2-0.1,0.4-0.2,0.6-0.2c0.2,0,0.4,0.1,0.6,0.2
				C215.1,349.8,215.2,350,215.2,350.2z"/>
		</g>
		<g>
			<path class="st3" d="M67.6,359.8c0,0.2-0.1,0.4-0.3,0.6c-0.2,0.2-0.4,0.3-0.6,0.3c-0.2,0-0.4-0.1-0.6-0.3
				c-0.2-0.2-0.3-0.4-0.3-0.6s0.1-0.4,0.3-0.6c0.2-0.2,0.4-0.3,0.6-0.3c0.2,0,0.5,0.1,0.6,0.3C67.5,359.3,67.6,359.6,67.6,359.8z"/>
		</g>
		<g>
			<path class="st3" d="M287.4,362.2c0,0.2,0,0.3-0.1,0.5c-0.1,0.1-0.2,0.3-0.4,0.3c-0.2,0.1-0.3,0.1-0.5,0.1
				c-0.2,0-0.3-0.1-0.5-0.2c-0.1-0.1-0.2-0.3-0.2-0.5c0-0.2,0-0.3,0-0.5c0.1-0.2,0.2-0.3,0.3-0.4s0.3-0.1,0.5-0.1
				c0.1,0,0.2,0,0.3,0.1c0.1,0,0.2,0.1,0.3,0.2c0.1,0.1,0.1,0.2,0.2,0.3C287.3,362,287.3,362.1,287.4,362.2z"/>
		</g>
		<g>
			<path class="st3" d="M573.7,582.2c0,0.2,0,0.3-0.1,0.5c-0.1,0.1-0.2,0.3-0.4,0.3c-0.2,0.1-0.3,0.1-0.5,0.1
				c-0.2,0-0.3-0.1-0.5-0.2c-0.1-0.1-0.2-0.3-0.2-0.4c0-0.2,0-0.3,0-0.5c0.1-0.2,0.2-0.3,0.3-0.4c0.1-0.1,0.3-0.1,0.5-0.1
				c0.1,0,0.2,0,0.3,0.1c0.1,0,0.2,0.1,0.3,0.2c0.1,0.1,0.1,0.2,0.2,0.3C573.7,581.9,573.7,582.1,573.7,582.2z"/>
		</g>
		<g>
			<path class="st3" d="M155.2,712.8c0,0.2-0.1,0.4-0.3,0.6c-0.2,0.1-0.4,0.2-0.6,0.2c-0.2,0-0.4-0.1-0.6-0.2
				c-0.2-0.1-0.3-0.3-0.3-0.6c0-0.2,0.1-0.4,0.3-0.6c0.2-0.1,0.4-0.2,0.6-0.2c0.2,0,0.4,0.1,0.6,0.2
				C155.1,712.4,155.2,712.6,155.2,712.8z"/>
		</g>
		<g>
			<path class="st3" d="M101,675.3c0,0.2,0,0.3-0.1,0.5c-0.1,0.1-0.2,0.3-0.4,0.3c-0.2,0.1-0.3,0.1-0.5,0.1c-0.2,0-0.3-0.1-0.5-0.2
				c-0.1-0.1-0.2-0.3-0.2-0.5c0-0.2,0-0.3,0-0.5c0.1-0.2,0.2-0.3,0.3-0.4c0.1-0.1,0.3-0.1,0.5-0.2c0.1,0,0.2,0,0.3,0.1
				c0.1,0,0.2,0.1,0.3,0.2c0.1,0.1,0.1,0.2,0.2,0.3C101,675.1,101,675.2,101,675.3z"/>
		</g>
		<g>
			<path class="st3" d="M98.2,746.5c0,0.2-0.1,0.4-0.3,0.6c-0.2,0.1-0.4,0.2-0.6,0.2c-0.2,0-0.4-0.1-0.6-0.2
				c-0.2-0.1-0.3-0.3-0.3-0.6c0-0.2,0.1-0.4,0.3-0.6c0.2-0.1,0.4-0.2,0.6-0.2c0.2,0,0.4,0.1,0.6,0.2
				C98.1,746.1,98.2,746.3,98.2,746.5z"/>
		</g>
		<g>
			<path class="st3" d="M558.5,862.8c0,0.2,0,0.3-0.1,0.5c-0.1,0.1-0.2,0.3-0.4,0.3c-0.2,0.1-0.3,0.1-0.5,0.1
				c-0.2,0-0.3-0.1-0.4-0.2c-0.1-0.1-0.2-0.3-0.2-0.4s0-0.3,0-0.5c0.1-0.2,0.2-0.3,0.3-0.4c0.1-0.1,0.3-0.1,0.5-0.1
				c0.2,0,0.4,0.1,0.6,0.3C558.5,862.3,558.5,862.5,558.5,862.8z"/>
		</g>
		<g>
			<path class="st3" d="M634.9,730.6c0,0.2,0,0.3-0.1,0.5c-0.1,0.1-0.2,0.3-0.4,0.3c-0.2,0.1-0.3,0.1-0.5,0.1s-0.3-0.1-0.5-0.2
				c-0.1-0.1-0.2-0.3-0.2-0.5c0-0.2,0-0.3,0.1-0.5c0.1-0.2,0.2-0.3,0.3-0.4c0.1-0.1,0.3-0.1,0.5-0.1c0.2,0,0.4,0.1,0.6,0.3
				S634.9,730.4,634.9,730.6z"/>
		</g>
		<g>
			<path class="st3" d="M626.5,825.8c0,0.2,0,0.3-0.1,0.5c-0.1,0.1-0.2,0.3-0.4,0.3c-0.2,0.1-0.3,0.1-0.5,0.1
				c-0.2,0-0.3-0.1-0.4-0.2c-0.1-0.1-0.2-0.3-0.2-0.4c0-0.2,0-0.3,0-0.5c0.1-0.2,0.2-0.3,0.3-0.4c0.1-0.1,0.3-0.1,0.5-0.1
				c0.1,0,0.2,0,0.3,0.1c0.1,0,0.2,0.1,0.3,0.2c0.1,0.1,0.1,0.2,0.2,0.3C626.5,825.6,626.5,825.7,626.5,825.8z"/>
		</g>
		<g>
			<path class="st3" d="M562.6,746.4c0,0.2,0,0.3-0.1,0.5c-0.1,0.1-0.2,0.3-0.4,0.3c-0.2,0.1-0.3,0.1-0.5,0.1
				c-0.2,0-0.3-0.1-0.5-0.2c-0.1-0.1-0.2-0.3-0.2-0.5s0-0.3,0.1-0.5c0.1-0.2,0.2-0.3,0.3-0.4c0.1-0.1,0.3-0.1,0.5-0.1
				c0.2,0,0.4,0.1,0.6,0.3C562.5,745.9,562.6,746.1,562.6,746.4z"/>
		</g>
		<g>
			<path class="st3" d="M186.1,626c0.5,0,0.9-0.4,0.9-0.9c0-0.5-0.4-0.9-0.9-0.9c-0.5,0-0.9,0.4-0.9,0.9
				C185.2,625.6,185.6,626,186.1,626z"/>
		</g>
		<g>
			<path class="st3" d="M123.3,786.2c0,0.2-0.1,0.4-0.3,0.6c-0.2,0.1-0.4,0.2-0.6,0.2c-0.2,0-0.4-0.1-0.6-0.2
				c-0.2-0.1-0.3-0.3-0.3-0.6c0-0.2,0.1-0.4,0.3-0.6c0.2-0.1,0.4-0.2,0.6-0.2c0.2,0,0.4,0.1,0.6,0.2
				C123.2,785.8,123.3,786,123.3,786.2z"/>
		</g>
		<g>
			<path class="st3" d="M151.2,883.5c0,0.2,0,0.3-0.1,0.5c-0.1,0.1-0.2,0.3-0.4,0.3c-0.2,0.1-0.3,0.1-0.5,0.1
				c-0.2,0-0.3-0.1-0.4-0.2c-0.1-0.1-0.2-0.3-0.2-0.4s0-0.3,0-0.5c0.1-0.2,0.2-0.3,0.3-0.4c0.1-0.1,0.3-0.1,0.5-0.1
				c0.1,0,0.2,0,0.3,0.1c0.1,0,0.2,0.1,0.3,0.2c0.1,0.1,0.1,0.2,0.2,0.3C151.2,883.3,151.2,883.4,151.2,883.5z"/>
		</g>
		<g>
			<path class="st3" d="M531.2,532.9c0,0.2,0,0.3-0.1,0.5c-0.1,0.1-0.2,0.3-0.4,0.3c-0.2,0.1-0.3,0.1-0.5,0.1
				c-0.2,0-0.3-0.1-0.5-0.2s-0.2-0.3-0.2-0.5c0-0.2,0-0.3,0-0.5s0.2-0.3,0.3-0.4c0.1-0.1,0.3-0.1,0.5-0.1c0.1,0,0.2,0,0.3,0.1
				c0.1,0,0.2,0.1,0.3,0.2c0.1,0.1,0.1,0.2,0.2,0.3C531.2,532.7,531.2,532.8,531.2,532.9z"/>
		</g>
		<g>
			<path class="st3" d="M414.2,579.3c0,0.2,0,0.3-0.1,0.5c-0.1,0.1-0.2,0.3-0.4,0.3c-0.2,0.1-0.3,0.1-0.5,0.1s-0.3-0.1-0.5-0.2
				c-0.1-0.1-0.2-0.3-0.2-0.5c0-0.2,0-0.3,0-0.5c0.1-0.2,0.2-0.3,0.3-0.4c0.1-0.1,0.3-0.1,0.5-0.1c0.1,0,0.2,0,0.3,0.1
				c0.1,0,0.2,0.1,0.3,0.2c0.1,0.1,0.1,0.2,0.2,0.3C414.2,579,414.2,579.1,414.2,579.3z"/>
		</g>
		<g>
			<path class="st3" d="M534,674.6c0,0.2-0.1,0.4-0.3,0.6c-0.2,0.2-0.4,0.3-0.6,0.3c-0.2,0-0.4-0.1-0.6-0.3s-0.3-0.4-0.3-0.6
				c0-0.2,0.1-0.4,0.3-0.6c0.2-0.2,0.4-0.3,0.6-0.3c0.2,0,0.5,0.1,0.6,0.3C533.9,674.2,534,674.4,534,674.6z"/>
		</g>
		<g>
			<path class="st3" d="M37.9,341.7c0,0.2,0,0.3-0.1,0.5c-0.1,0.1-0.2,0.3-0.4,0.3c-0.2,0.1-0.3,0.1-0.5,0.1c-0.2,0-0.3-0.1-0.4-0.2
				c-0.1-0.1-0.2-0.3-0.2-0.4c0-0.2,0-0.3,0-0.5c0.1-0.2,0.2-0.3,0.3-0.4c0.1-0.1,0.3-0.1,0.5-0.1c0.1,0,0.2,0,0.3,0.1
				c0.1,0,0.2,0.1,0.3,0.2c0.1,0.1,0.1,0.2,0.2,0.3C37.9,341.4,37.9,341.5,37.9,341.7z"/>
		</g>
		<g>
			<path class="st3" d="M211,265c0,0.2-0.1,0.4-0.3,0.6c-0.2,0.1-0.4,0.2-0.6,0.2c-0.2,0-0.4-0.1-0.6-0.2c-0.2-0.1-0.3-0.3-0.3-0.6
				c0-0.2,0.1-0.4,0.3-0.6c0.2-0.1,0.4-0.2,0.6-0.2c0.2,0,0.4,0.1,0.6,0.2C210.9,264.5,211,264.7,211,265z"/>
		</g>
		<g>
			<path class="st3" d="M51.7,375.7c0,0.2-0.1,0.4-0.3,0.6c-0.2,0.1-0.4,0.2-0.6,0.2s-0.4-0.1-0.6-0.2c-0.2-0.1-0.3-0.3-0.3-0.6
				c0-0.2,0.1-0.4,0.3-0.6s0.4-0.2,0.6-0.2s0.4,0.1,0.6,0.2C51.6,375.3,51.7,375.5,51.7,375.7z"/>
		</g>
		<g>
			<path class="st3" d="M389.5,255c0,0.2,0,0.3-0.1,0.5c-0.1,0.1-0.2,0.3-0.4,0.3c-0.2,0.1-0.3,0.1-0.5,0.1c-0.2,0-0.3-0.1-0.4-0.2
				c-0.1-0.1-0.2-0.3-0.2-0.4c0-0.2,0-0.3,0-0.5c0.1-0.2,0.2-0.3,0.3-0.4c0.1-0.1,0.3-0.1,0.5-0.1c0.2,0,0.4,0.1,0.6,0.3
				C389.4,254.6,389.5,254.8,389.5,255z"/>
		</g>
		<g>
			<path class="st3" d="M539.5,325.9c0,0.5-0.1,1-0.4,1.4c-0.3,0.4-0.7,0.8-1.1,1c-0.5,0.2-1,0.3-1.5,0.2c-0.5-0.1-0.9-0.3-1.3-0.7
				c-0.4-0.4-0.6-0.8-0.7-1.3c-0.1-0.5-0.1-1,0.1-1.5c0.2-0.5,0.5-0.9,0.9-1.1c0.4-0.3,0.9-0.4,1.4-0.4c0.3,0,0.7,0.1,1,0.2
				c0.3,0.1,0.6,0.3,0.8,0.5c0.2,0.2,0.4,0.5,0.5,0.8C539.5,325.2,539.5,325.6,539.5,325.9z"/>
		</g>
		<g>
			<path class="st3" d="M969.5,404c0,0.5-0.1,1-0.4,1.4c-0.3,0.4-0.7,0.8-1.1,0.9c-0.5,0.2-1,0.3-1.5,0.2c-0.5-0.1-0.9-0.3-1.3-0.7
				c-0.4-0.4-0.6-0.8-0.7-1.3c-0.1-0.5-0.1-1,0.1-1.5c0.2-0.5,0.5-0.9,0.9-1.1c0.4-0.3,0.9-0.4,1.4-0.4c0.7,0,1.3,0.3,1.8,0.7
				C969.3,402.7,969.5,403.3,969.5,404z"/>
		</g>
		<g>
			<path class="st3" d="M774,743.3c0,0.5-0.1,1-0.4,1.4c-0.3,0.4-0.7,0.8-1.1,1c-0.5,0.2-1,0.3-1.5,0.2c-0.5-0.1-0.9-0.3-1.3-0.7
				c-0.4-0.4-0.6-0.8-0.7-1.3c-0.1-0.5-0.1-1,0.1-1.5c0.2-0.5,0.5-0.9,0.9-1.1c0.4-0.3,0.9-0.4,1.4-0.4c0.3,0,0.7,0.1,1,0.2
				c0.3,0.1,0.6,0.3,0.8,0.5c0.2,0.2,0.4,0.5,0.5,0.8C774,742.7,774,743,774,743.3z"/>
		</g>
		<g>
			<path class="st3" d="M356.4,285.2c0,0.5-0.1,1-0.4,1.4c-0.3,0.4-0.7,0.8-1.1,1c-0.5,0.2-1,0.3-1.5,0.2c-0.5-0.1-0.9-0.3-1.3-0.7
				c-0.4-0.4-0.6-0.8-0.7-1.3c-0.1-0.5-0.1-1,0.1-1.5c0.2-0.5,0.5-0.9,0.9-1.1c0.4-0.3,0.9-0.4,1.4-0.4c0.3,0,0.7,0.1,1,0.2
				c0.3,0.1,0.6,0.3,0.8,0.5c0.2,0.2,0.4,0.5,0.5,0.8C356.4,284.6,356.4,284.9,356.4,285.2z"/>
		</g>
		<g>
			<path class="st3" d="M838.5,110.6c0,0.5-0.1,1-0.4,1.4c-0.3,0.4-0.7,0.8-1.1,0.9c-0.5,0.2-1,0.3-1.5,0.2
				c-0.5-0.1-0.9-0.3-1.3-0.7c-0.4-0.4-0.6-0.8-0.7-1.3c-0.1-0.5-0.1-1,0.1-1.5c0.2-0.5,0.5-0.9,0.9-1.1c0.4-0.3,0.9-0.4,1.4-0.4
				c0.3,0,0.7,0.1,1,0.2c0.3,0.1,0.6,0.3,0.8,0.5c0.2,0.2,0.4,0.5,0.5,0.8C838.5,110,838.5,110.3,838.5,110.6z"/>
		</g>
		<g>
			<path class="st3" d="M1137.6,225.7c0,0.5-0.1,1-0.4,1.4c-0.3,0.4-0.7,0.8-1.1,1c-0.5,0.2-1,0.3-1.5,0.2c-0.5-0.1-1-0.3-1.3-0.7
				c-0.3-0.4-0.6-0.8-0.7-1.3c-0.1-0.5-0.1-1,0.1-1.5c0.2-0.5,0.5-0.9,0.9-1.1c0.4-0.3,0.9-0.4,1.4-0.4c0.7,0,1.3,0.3,1.8,0.7
				C1137.3,224.4,1137.6,225,1137.6,225.7z"/>
		</g>
		<g>
			<path class="st3" d="M639.8,115.7c0,0.5-0.1,1-0.4,1.4s-0.7,0.8-1.1,1c-0.5,0.2-1,0.3-1.5,0.2c-0.5-0.1-0.9-0.3-1.3-0.7
				c-0.4-0.4-0.6-0.8-0.7-1.3c-0.1-0.5-0.1-1,0.1-1.5c0.2-0.5,0.5-0.9,0.9-1.1c0.4-0.3,0.9-0.4,1.4-0.4c0.3,0,0.7,0.1,1,0.2
				c0.3,0.1,0.6,0.3,0.8,0.5c0.2,0.2,0.4,0.5,0.5,0.8C639.8,115.1,639.8,115.4,639.8,115.7z"/>
		</g>
		<g>
			<path class="st3" d="M263.4,398.2c1.4,0,2.5-1.1,2.5-2.5c0-1.4-1.1-2.5-2.5-2.5c-1.4,0-2.5,1.1-2.5,2.5
				C260.9,397.1,262,398.2,263.4,398.2z"/>
		</g>
		<g>
			<path class="st3" d="M210,318.1c0,0.5-0.1,1-0.4,1.4c-0.3,0.4-0.7,0.8-1.1,0.9c-0.5,0.2-1,0.3-1.5,0.2c-0.5-0.1-0.9-0.3-1.3-0.7
				c-0.4-0.4-0.6-0.8-0.7-1.3c-0.1-0.5-0.1-1,0.1-1.5c0.2-0.5,0.5-0.9,0.9-1.1c0.4-0.3,0.9-0.4,1.4-0.4c0.3,0,0.7,0.1,1,0.2
				c0.3,0.1,0.6,0.3,0.8,0.5c0.2,0.2,0.4,0.5,0.5,0.8C210,317.4,210,317.8,210,318.1z"/>
		</g>
		<g>
			<path class="st3" d="M69.6,854.5c0,0.5-0.1,1-0.4,1.4c-0.3,0.4-0.7,0.8-1.1,1c-0.5,0.2-1,0.3-1.5,0.2c-0.5-0.1-0.9-0.3-1.3-0.7
				c-0.4-0.4-0.6-0.8-0.7-1.3c-0.1-0.5-0.1-1,0.1-1.5c0.2-0.5,0.5-0.9,0.9-1.1c0.4-0.3,0.9-0.4,1.4-0.4c0.3,0,0.7,0.1,1,0.2
				c0.3,0.1,0.6,0.3,0.8,0.5s0.4,0.5,0.5,0.8C69.6,853.9,69.6,854.2,69.6,854.5z"/>
		</g>
		<g>
			<path class="st3" d="M76.9,783.3c0,0.5-0.1,1-0.4,1.4c-0.3,0.4-0.7,0.8-1.1,1c-0.5,0.2-1,0.3-1.5,0.2c-0.5-0.1-0.9-0.3-1.3-0.7
				c-0.4-0.3-0.6-0.8-0.7-1.3c-0.1-0.5-0.1-1,0.1-1.5c0.2-0.5,0.5-0.9,0.9-1.1s0.9-0.4,1.4-0.4c0.7,0,1.3,0.2,1.8,0.7
				C76.6,782,76.9,782.7,76.9,783.3z"/>
		</g>
		<path class="st1" d="M38.8,132.4c0.4,0,0.8-0.2,1.1-0.4c0.3-0.3,0.4-0.7,0.4-1.1s-0.2-0.8-0.4-1.1c-0.3-0.3-0.7-0.4-1.1-0.4
			c-0.4,0-0.8,0.2-1.1,0.4c-0.3,0.3-0.4,0.7-0.4,1.1s0.2,0.8,0.4,1.1C38.1,132.2,38.4,132.4,38.8,132.4z"/>
		<path class="st1" d="M24.3,220.5c0.4,0,0.7-0.2,1-0.5c0.2-0.3,0.4-0.6,0.4-1c0-0.4-0.1-0.7-0.4-1c-0.2-0.3-0.6-0.5-1-0.5
			c-0.4,0-0.7,0.2-1,0.5c-0.2,0.3-0.4,0.6-0.4,1c0,0.4,0.1,0.7,0.4,1C23.6,220.3,23.9,220.4,24.3,220.5z"/>
		<path class="st1" d="M149.6,164.6v2.6c0,0.2,0.1,0.4,0.2,0.6c0.1,0.1,0.3,0.2,0.6,0.2c0.2,0,0.4-0.1,0.6-0.2
			c0.1-0.1,0.2-0.3,0.2-0.6v-2.6c0-0.2-0.1-0.4-0.2-0.6c-0.1-0.1-0.3-0.2-0.6-0.2c-0.2,0-0.4,0.1-0.6,0.2
			C149.7,164.2,149.6,164.4,149.6,164.6z"/>
		<path class="st1" d="M105.1,268.2v-2.6c0-0.2-0.1-0.4-0.2-0.6c-0.1-0.1-0.3-0.2-0.6-0.2c-0.2,0-0.4,0.1-0.6,0.2
			c-0.1,0.1-0.2,0.4-0.2,0.6v2.6c0,0.2,0.1,0.4,0.2,0.6c0.1,0.1,0.3,0.2,0.6,0.2c0.2,0,0.4-0.1,0.6-0.2
			C105,268.6,105.1,268.4,105.1,268.2z"/>
		<path class="st1" d="M91.4,190.5v2.6c0,0.2,0.1,0.4,0.2,0.6c0.1,0.1,0.3,0.2,0.6,0.2c0.2,0,0.4-0.1,0.6-0.2
			c0.1-0.1,0.2-0.3,0.2-0.6v-2.6c0-0.2-0.1-0.4-0.2-0.6c-0.1-0.1-0.3-0.2-0.6-0.2c-0.2,0-0.4,0.1-0.6,0.2
			C91.5,190.1,91.4,190.3,91.4,190.5z"/>
		<path class="st1" d="M334.8,119.4c0.4,0,0.8-0.2,1.1-0.4c0.3-0.3,0.4-0.7,0.4-1.1c0-0.4-0.2-0.8-0.4-1.1c-0.3-0.3-0.7-0.4-1.1-0.4
			c-0.4,0-0.8,0.2-1.1,0.4c-0.3,0.3-0.4,0.7-0.4,1.1c0,0.4,0.2,0.8,0.4,1.1C334,119.3,334.4,119.4,334.8,119.4z"/>
		<path class="st1" d="M346.9,282.7c0.4,0,0.7-0.2,1-0.5c0.2-0.3,0.4-0.6,0.4-1c0-0.4-0.1-0.7-0.4-1c-0.2-0.3-0.6-0.5-1-0.5
			c-0.4,0-0.7,0.2-1,0.5c-0.2,0.3-0.4,0.6-0.4,1c0,0.4,0.1,0.7,0.4,1C346.2,282.5,346.5,282.6,346.9,282.7z"/>
		<path class="st1" d="M318.6,314.9v-2.6c0-0.1,0-0.2-0.1-0.3c0-0.1-0.1-0.2-0.2-0.3c-0.1-0.1-0.2-0.1-0.3-0.2
			c-0.1,0-0.2-0.1-0.3-0.1c-0.1,0-0.2,0-0.3,0.1c-0.1,0-0.2,0.1-0.3,0.2c-0.1,0.1-0.1,0.2-0.2,0.3c0,0.1-0.1,0.2-0.1,0.3v2.6
			c0,0.1,0,0.2,0.1,0.3c0,0.1,0.1,0.2,0.2,0.3c0.1,0.1,0.2,0.1,0.3,0.2c0.1,0,0.2,0.1,0.3,0.1c0.1,0,0.2,0,0.3-0.1
			c0.1,0,0.2-0.1,0.3-0.2c0.1-0.1,0.1-0.2,0.2-0.3C318.5,315.1,318.6,315,318.6,314.9z"/>
		<path class="st1" d="M245,376c0.4,0,0.8-0.2,1.1-0.4c0.3-0.3,0.4-0.7,0.4-1.1c0-0.4-0.2-0.8-0.4-1.1c-0.3-0.3-0.7-0.4-1.1-0.4
			c-0.4,0-0.8,0.2-1.1,0.4c-0.3,0.3-0.4,0.7-0.4,1.1c0,0.4,0.2,0.8,0.4,1.1C244.2,375.8,244.6,376,245,376z"/>
		<path class="st1" d="M269.3,250.9h2.4c0.2,0,0.4-0.1,0.6-0.2c0.2-0.2,0.2-0.4,0.2-0.6s-0.1-0.4-0.2-0.6c-0.2-0.2-0.4-0.2-0.6-0.2
			h-2.4c-0.2,0-0.4,0.1-0.6,0.2c-0.2,0.2-0.2,0.4-0.2,0.6s0.1,0.4,0.2,0.6C268.8,250.8,269,250.9,269.3,250.9z"/>
		<path class="st1" d="M505.1,283.2l-2.4-2.6c-0.7-0.8-1.8,0.4-1.1,1.2l2.4,2.6C504.7,285.1,505.8,283.9,505.1,283.2z"/>
		<path class="st1" d="M485.9,454.8v-2.6c0-0.2-0.1-0.4-0.2-0.6s-0.3-0.2-0.6-0.2c-0.2,0-0.4,0.1-0.6,0.2c-0.1,0.1-0.2,0.3-0.2,0.6
			v2.6c0,0.2,0.1,0.4,0.2,0.6c0.1,0.1,0.3,0.2,0.6,0.2c0.2,0,0.4-0.1,0.6-0.2S485.9,455,485.9,454.8z"/>
		<path class="st1" d="M366.3,526.2c0.4,0,0.8-0.2,1.1-0.4c0.3-0.3,0.4-0.7,0.4-1.1s-0.2-0.8-0.4-1.1c-0.3-0.3-0.7-0.4-1.1-0.4
			s-0.8,0.2-1.1,0.4c-0.3,0.3-0.4,0.7-0.4,1.1s0.2,0.8,0.4,1.1C365.5,526.1,365.9,526.2,366.3,526.2z"/>
		<path class="st1" d="M248.2,623.2v-2.6c0-0.2-0.1-0.4-0.2-0.6c-0.1-0.1-0.3-0.2-0.6-0.2c-0.2,0-0.4,0.1-0.6,0.2
			c-0.1,0.1-0.2,0.3-0.2,0.6v2.6c0,0.2,0.1,0.4,0.2,0.6c0.1,0.1,0.3,0.2,0.6,0.2c0.2,0,0.4-0.1,0.6-0.2
			C248.1,623.6,248.2,623.4,248.2,623.2z"/>
		<path class="st1" d="M320.2,456.3c0.4,0,0.8-0.2,1.1-0.4c0.3-0.3,0.4-0.7,0.4-1.1c0-0.4-0.2-0.8-0.4-1.1c-0.3-0.3-0.7-0.4-1.1-0.4
			c-0.4,0-0.8,0.2-1.1,0.4c-0.3,0.3-0.4,0.7-0.4,1.1c0,0.4,0.2,0.8,0.4,1.1C319.4,456.1,319.8,456.3,320.2,456.3z"/>
		<path class="st1" d="M86.8,522.8l2.4,2.6c0.7,0.8,1.8-0.4,1.1-1.2c-0.7-0.8-1.6-1.7-2.4-2.6C87.1,520.7,86.1,522,86.8,522.8z"/>
		<path class="st1" d="M21.5,581.6c-0.3,2.7,4,2.5,3.5-0.1c-0.2-1.1-1.7-0.6-1.5,0.5c0-0.2,0,0,0-0.1c0-0.1,0,0.1,0-0.1
			c-0.1,0.1,0.1,0,0,0s-0.1,0.2,0,0c0,0-0.1,0-0.1,0.1c0.1,0,0.1,0,0,0h-0.1c0.1,0,0.1,0,0,0s-0.3,0-0.1,0H23c-0.1,0,0,0,0,0
			c0-0.1,0,0.1,0,0l0,0.1c0.1,0.2,0,0,0,0.1c0-0.2,0-0.4-0.1-0.6c-0.1-0.2-0.3-0.3-0.5-0.4c-0.1,0-0.2,0-0.3,0c-0.1,0-0.2,0-0.3,0.1
			c-0.1,0.1-0.2,0.1-0.2,0.2C21.5,581.4,21.5,581.5,21.5,581.6L21.5,581.6z"/>
		<path class="st1" d="M65.5,391.5c0.4,0,0.7-0.2,1-0.5c0.2-0.3,0.4-0.6,0.4-1c0-0.4-0.1-0.7-0.4-1c-0.2-0.3-0.6-0.5-1-0.5
			c-0.4,0-0.7,0.2-1,0.5c-0.2,0.3-0.4,0.6-0.4,1c0,0.4,0.1,0.7,0.4,1C64.8,391.3,65.2,391.5,65.5,391.5z"/>
		<path class="st1" d="M180.1,508.6l-2.4-2.6c-0.7-0.8-1.8,0.4-1.1,1.2l2.4,2.6C179.7,510.6,180.8,509.4,180.1,508.6z"/>
		<path class="st1" d="M502.1,137.6c0.4,0,0.7-0.2,1-0.5c0.2-0.3,0.4-0.6,0.4-1c0-0.4-0.1-0.7-0.4-1c-0.2-0.3-0.6-0.5-1-0.5
			c-0.4,0-0.7,0.2-1,0.5c-0.2,0.3-0.4,0.6-0.4,1c0,0.4,0.1,0.7,0.4,1C501.4,137.3,501.7,137.5,502.1,137.6z"/>
		<path class="st1" d="M625.8,210.1c0.4,0,0.8-0.2,1.1-0.4c0.3-0.3,0.4-0.7,0.4-1.1c0-0.4-0.2-0.8-0.4-1.1c-0.3-0.3-0.7-0.4-1.1-0.4
			c-0.4,0-0.8,0.2-1.1,0.4c-0.3,0.3-0.4,0.7-0.4,1.1c0,0.4,0.2,0.8,0.4,1.1C625,210,625.4,210.1,625.8,210.1z"/>
		<path class="st1" d="M596.7,381.1c0.4,0,0.8-0.2,1.1-0.4c0.3-0.3,0.4-0.7,0.4-1.1s-0.2-0.8-0.4-1.1c-0.3-0.3-0.7-0.4-1.1-0.4
			s-0.8,0.2-1.1,0.4s-0.4,0.7-0.4,1.1s0.2,0.8,0.4,1.1C595.9,381,596.3,381.1,596.7,381.1z"/>
		<path class="st1" d="M551,612.1v-3c0-0.2-0.1-0.4-0.2-0.6c-0.1-0.1-0.3-0.2-0.6-0.2c-0.2,0-0.4,0.1-0.6,0.2
			c-0.1,0.1-0.2,0.3-0.2,0.6v3c0,0.2,0.1,0.4,0.2,0.6c0.1,0.1,0.3,0.2,0.6,0.2c0.2,0,0.4-0.1,0.6-0.2
			C550.9,612.5,551,612.3,551,612.1z"/>
		<path class="st1" d="M431.6,773.6c0.4,0,0.8-0.2,1.1-0.4c0.3-0.3,0.4-0.7,0.4-1.1c0-0.4-0.2-0.8-0.4-1.1c-0.3-0.3-0.7-0.4-1.1-0.4
			s-0.8,0.2-1.1,0.4c-0.3,0.3-0.4,0.7-0.4,1.1c0,0.4,0.2,0.8,0.4,1.1C430.8,773.4,431.2,773.6,431.6,773.6z"/>
		<path class="st1" d="M137.8,797.1h2.8c0.2,0,0.4-0.1,0.5-0.3s0.2-0.4,0.2-0.6c0-0.2-0.1-0.4-0.2-0.6s-0.3-0.3-0.5-0.3h-2.8
			c-0.2,0-0.4,0.1-0.5,0.3s-0.2,0.4-0.2,0.6c0,0.2,0.1,0.4,0.2,0.6S137.6,797,137.8,797.1z"/>
		<path class="st1" d="M101.6,895.2l-2.8-3c-0.7-0.8-1.8,0.4-1.1,1.2l2.8,3C101.2,897.2,102.3,896,101.6,895.2L101.6,895.2z"/>
		<path class="st1" d="M79.7,699.3C79.7,699.5,79.7,699.2,79.7,699.3C79.7,699.4,79.7,699.4,79.7,699.3L79.7,699.3
			C79.7,699.5,79.6,699.4,79.7,699.3C79.8,699.4,79.6,699.4,79.7,699.3l0.2,0.1c0.1,0-0.1,0,0,0h0.2c0.1,0,0.3,0,0.4,0.1
			c-0.1-0.1,0,0,0,0s0-0.1,0,0c0-0.1,0-0.1,0,0c0-0.2-0.1,0.1,0-0.1c-0.2,1.1,1.3,1.5,1.5,0.5c0.6-2.8-4.2-3-3.8-0.1
			c0,0.1,0.1,0.2,0.1,0.3c0.1,0.1,0.1,0.2,0.2,0.2c0.1,0.1,0.2,0.1,0.3,0.1s0.2,0,0.3,0c0.2-0.1,0.4-0.2,0.5-0.4
			C79.7,699.8,79.8,699.6,79.7,699.3L79.7,699.3z"/>
		<path class="st1" d="M337.6,729.8v3c0,0.2,0.1,0.4,0.2,0.6c0.1,0.1,0.3,0.2,0.6,0.2c0.2,0,0.4-0.1,0.6-0.2
			c0.1-0.1,0.2-0.3,0.2-0.6v-3c0-0.2-0.1-0.4-0.2-0.6c-0.1-0.1-0.3-0.2-0.6-0.2c-0.2,0-0.4,0.1-0.6,0.2
			C337.7,729.4,337.6,729.6,337.6,729.8z"/>
		<path class="st1" d="M710.1,478.7c0.4,0,0.8-0.2,1.1-0.4s0.4-0.7,0.4-1.1c0-0.4-0.2-0.8-0.4-1.1c-0.3-0.3-0.7-0.4-1.1-0.4
			c-0.4,0-0.8,0.2-1.1,0.4c-0.3,0.3-0.4,0.7-0.4,1.1c0,0.4,0.2,0.8,0.4,1.1C709.3,478.5,709.7,478.7,710.1,478.7z"/>
		<path class="st1" d="M975.7,237.6c0.4,0,0.7-0.2,1-0.5c0.2-0.3,0.4-0.6,0.4-1c0-0.4-0.1-0.7-0.4-1c-0.2-0.3-0.6-0.5-1-0.5
			c-0.4,0-0.7,0.2-1,0.5c-0.2,0.3-0.4,0.6-0.4,1c0,0.4,0.1,0.7,0.4,1C975,237.3,975.4,237.5,975.7,237.6z"/>
		<path class="st1" d="M1180.1,403.1l2-2.1c0.7-0.8-0.4-2-1.1-1.2l-2,2.1C1178.3,402.7,1179.4,403.9,1180.1,403.1z"/>
		<path class="st1" d="M1035.7,579c0.4,0,0.7-0.2,0.9-0.5c0.3-0.3,0.4-0.6,0.4-1c0-0.4-0.1-0.7-0.4-1c-0.2-0.3-0.6-0.5-0.9-0.5
			c-0.4,0-0.7,0.2-1,0.5c-0.2,0.3-0.4,0.6-0.4,1c0,0.4,0.1,0.7,0.4,1C1035,578.8,1035.3,579,1035.7,579z"/>
		<path class="st1" d="M1407.4,110.3l-1.2,1.3c-0.7,0.8,0.4,2,1.1,1.2c0.4-0.4,0.8-0.9,1.2-1.3
			C1409.2,110.7,1408.1,109.5,1407.4,110.3l-1.2,1.3c-0.7,0.8,0.4,2,1.1,1.2c0.4-0.4,0.8-0.9,1.2-1.3
			C1409.2,110.7,1408.1,109.5,1407.4,110.3z"/>
		<path class="st1" d="M1264.6,197.6v2.1c0,0.2,0.1,0.4,0.2,0.6c0.2,0.1,0.3,0.2,0.6,0.2c0.2,0,0.4-0.1,0.6-0.2
			c0.2-0.1,0.2-0.3,0.2-0.6v-2.1c0-0.2-0.1-0.4-0.2-0.6s-0.3-0.2-0.6-0.2c-0.2,0-0.4,0.1-0.6,0.2S1264.6,197.4,1264.6,197.6z"/>
		<path class="st1" d="M776,175.7c0.4,0,0.7-0.2,1-0.5c0.2-0.3,0.4-0.6,0.4-1c0-0.4-0.1-0.7-0.4-1c-0.2-0.3-0.6-0.5-1-0.5
			c-0.4,0-0.7,0.2-1,0.5c-0.2,0.3-0.4,0.6-0.4,1c0,0.4,0.1,0.7,0.4,1C775.3,175.4,775.6,175.6,776,175.7z"/>
		<path class="st1" d="M827.1,390.5l-2-2.1c-0.7-0.8-1.8,0.4-1.1,1.2l2,2.1C826.7,392.4,827.8,391.2,827.1,390.5L827.1,390.5z"/>
		<path class="st1" d="M850.7,558.4v-4.5c0-0.2-0.1-0.4-0.2-0.6c-0.1-0.1-0.3-0.2-0.6-0.2c-0.2,0-0.4,0.1-0.6,0.2
			c-0.1,0.1-0.2,0.3-0.2,0.6v4.5c0,0.2,0.1,0.4,0.2,0.6s0.3,0.2,0.6,0.2c0.2,0,0.4-0.1,0.6-0.2S850.7,558.6,850.7,558.4z"/>
		<path class="st1" d="M720.4,774.2c0.4,0,0.7-0.2,1-0.5c0.2-0.3,0.4-0.6,0.4-1s-0.1-0.7-0.4-1c-0.2-0.3-0.6-0.5-1-0.5
			c-0.4,0-0.7,0.2-1,0.5c-0.2,0.3-0.4,0.6-0.4,1s0.1,0.7,0.4,1C719.7,774,720,774.2,720.4,774.2z"/>
		<path class="st1" d="M615.6,107.7c0.4,0,0.8-0.2,1.1-0.4c0.3-0.3,0.4-0.7,0.4-1.1c0-0.4-0.2-0.8-0.4-1.1c-0.3-0.3-0.7-0.4-1.1-0.4
			c-0.4,0-0.8,0.2-1.1,0.4c-0.3,0.3-0.4,0.7-0.4,1.1c0,0.4,0.2,0.8,0.4,1.1C614.9,107.5,615.2,107.7,615.6,107.7z"/>
		<path class="st1" d="M601.1,195.8c0.4,0,0.8-0.2,1.1-0.4s0.4-0.7,0.4-1.1c0-0.4-0.2-0.8-0.4-1.1s-0.7-0.4-1.1-0.4
			c-0.4,0-0.8,0.2-1.1,0.4c-0.3,0.3-0.4,0.7-0.4,1.1c0,0.4,0.2,0.8,0.4,1.1C600.3,195.6,600.7,195.8,601.1,195.8z"/>
		<path class="st1" d="M726.4,139.9v2.6c0,0.2,0.1,0.4,0.2,0.6c0.1,0.1,0.3,0.2,0.6,0.2c0.2,0,0.4-0.1,0.6-0.2
			c0.1-0.1,0.2-0.3,0.2-0.6v-2.6c0-0.2-0.1-0.4-0.2-0.6s-0.3-0.2-0.6-0.2c-0.2,0-0.4,0.1-0.6,0.2S726.4,139.7,726.4,139.9z"/>
		<path class="st1" d="M681.9,243.5v-2.6c0-0.2-0.1-0.4-0.2-0.6c-0.1-0.1-0.3-0.2-0.6-0.2c-0.2,0-0.4,0.1-0.6,0.2s-0.2,0.3-0.2,0.6
			v2.6c0,0.2,0.1,0.4,0.2,0.6c0.1,0.1,0.3,0.2,0.6,0.2c0.2,0,0.4-0.1,0.6-0.2C681.8,243.9,681.9,243.7,681.9,243.5L681.9,243.5z"/>
		<path class="st1" d="M668.2,165.8v2.6c0,0.2,0.1,0.4,0.2,0.6c0.1,0.1,0.3,0.2,0.6,0.2c0.2,0,0.4-0.1,0.6-0.2
			c0.1-0.1,0.2-0.3,0.2-0.6v-2.6c0-0.2-0.1-0.4-0.2-0.6c-0.1-0.1-0.3-0.2-0.6-0.2c-0.2,0-0.4,0.1-0.6,0.2
			C668.3,165.4,668.2,165.6,668.2,165.8z"/>
		<path class="st1" d="M911.6,94.7c0.4,0,0.7-0.2,1-0.5c0.2-0.3,0.4-0.6,0.4-1c0-0.4-0.1-0.7-0.4-1c-0.2-0.3-0.6-0.5-1-0.5
			c-0.4,0-0.7,0.2-1,0.5c-0.2,0.3-0.4,0.6-0.4,1c0,0.4,0.1,0.7,0.4,1C910.9,94.5,911.2,94.7,911.6,94.7z"/>
		<path class="st1" d="M923.7,258c0.4,0,0.8-0.2,1.1-0.4c0.3-0.3,0.4-0.7,0.4-1.1c0-0.4-0.2-0.8-0.4-1.1c-0.3-0.3-0.7-0.4-1.1-0.4
			c-0.4,0-0.8,0.2-1.1,0.4c-0.3,0.3-0.4,0.7-0.4,1.1c0,0.4,0.2,0.8,0.4,1.1C922.9,257.8,923.3,258,923.7,258z"/>
		<path class="st1" d="M895.4,290.2v-2.6c0-0.2-0.1-0.4-0.2-0.6c-0.1-0.1-0.3-0.2-0.6-0.2c-0.2,0-0.4,0.1-0.6,0.2
			c-0.1,0.1-0.2,0.3-0.2,0.6v2.6c0,0.2,0.1,0.4,0.2,0.6c0.1,0.1,0.3,0.2,0.6,0.2c0.2,0,0.4-0.1,0.6-0.2
			C895.3,290.6,895.4,290.4,895.4,290.2z"/>
		<path class="st1" d="M821.8,351.3c0.4,0,0.8-0.2,1.1-0.4c0.3-0.3,0.4-0.7,0.4-1.1c0-0.4-0.2-0.8-0.4-1.1c-0.3-0.3-0.7-0.4-1.1-0.4
			c-0.4,0-0.8,0.2-1.1,0.4c-0.3,0.3-0.4,0.7-0.4,1.1c0,0.4,0.2,0.8,0.4,1.1C821,351.1,821.4,351.3,821.8,351.3z"/>
		<path class="st1" d="M846.1,226.2h2.4c1,0,1-1.7,0-1.7h-2.4c-0.2,0-0.4,0.1-0.5,0.3c-0.1,0.2-0.2,0.4-0.2,0.6
			c0,0.2,0.1,0.4,0.2,0.6C845.7,226.1,845.9,226.2,846.1,226.2z"/>
		<path class="st1" d="M1081.9,258.5l-2.4-2.6c-0.7-0.8-1.8,0.4-1.1,1.2l2.4,2.6C1081.5,260.4,1082.6,259.2,1081.9,258.5z"/>
		<path class="st1" d="M1062.7,430.1v-2.6c0-0.2-0.1-0.4-0.2-0.6c-0.2-0.1-0.3-0.2-0.6-0.2c-0.2,0-0.4,0.1-0.6,0.2s-0.2,0.3-0.2,0.6
			v2.6c0,0.2,0.1,0.4,0.2,0.6c0.2,0.1,0.3,0.2,0.6,0.2c0.2,0,0.4-0.1,0.6-0.2C1062.7,430.5,1062.7,430.3,1062.7,430.1z"/>
		<path class="st1" d="M943.1,501.5c0.4,0,0.8-0.2,1.1-0.4c0.3-0.3,0.4-0.7,0.4-1.1s-0.2-0.8-0.4-1.1c-0.3-0.3-0.7-0.4-1.1-0.4
			c-0.4,0-0.8,0.2-1.1,0.4c-0.3,0.3-0.4,0.7-0.4,1.1s0.2,0.8,0.4,1.1C942.3,501.4,942.7,501.5,943.1,501.5z"/>
		<path class="st1" d="M825,598.5v-2.6c0-0.2-0.1-0.4-0.2-0.6c-0.1-0.1-0.3-0.2-0.6-0.2c-0.2,0-0.4,0.1-0.6,0.2
			c-0.1,0.1-0.2,0.3-0.2,0.6v2.6c0,0.2,0.1,0.4,0.2,0.6c0.1,0.1,0.3,0.2,0.6,0.2c0.2,0,0.4-0.1,0.6-0.2
			C824.9,598.9,825,598.7,825,598.5L825,598.5z"/>
		<path class="st1" d="M897,431.6c0.4,0,0.7-0.2,1-0.5c0.2-0.3,0.4-0.6,0.4-1s-0.1-0.7-0.4-1c-0.2-0.3-0.6-0.5-1-0.5
			c-0.4,0-0.7,0.2-1,0.5c-0.2,0.3-0.4,0.6-0.4,1s0.1,0.7,0.4,1C896.3,431.4,896.6,431.5,897,431.6z"/>
		<path class="st1" d="M663.6,498l2.4,2.6c0.7,0.8,1.8-0.4,1.1-1.2l-2.4-2.6C664,496.1,662.9,497.3,663.6,498L663.6,498z"/>
		<path class="st1" d="M598.3,556.9c-0.3,2.7,4,2.5,3.5-0.1c-0.2-1.1-1.7-0.6-1.5,0.4c0-0.2,0,0,0-0.1s0,0,0-0.1c-0.1,0.1,0.1,0,0,0
			c-0.1,0-0.1,0.2,0,0c0,0-0.1,0-0.1,0.1c0.1,0,0,0,0,0h-0.1c0.1,0,0.1,0,0,0c-0.1,0-0.3,0-0.1,0h-0.2c0,0,0,0,0.1,0h-0.1
			c0-0.1,0,0.1,0,0c0,0,0,0,0,0.1s0,0.2,0,0c0.1,0.2,0,0,0,0.1c0-0.2,0-0.4-0.1-0.6c-0.1-0.2-0.3-0.3-0.5-0.4c-0.1,0-0.2,0-0.3,0
			c-0.1,0-0.2,0-0.3,0.1c-0.1,0.1-0.2,0.1-0.2,0.2C598.3,556.7,598.3,556.8,598.3,556.9L598.3,556.9z"/>
		<path class="st1" d="M642.3,366.8c0.4,0,0.7-0.2,1-0.5c0.2-0.3,0.4-0.6,0.4-1c0-0.4-0.1-0.7-0.4-1c-0.2-0.3-0.6-0.5-1-0.5
			c-0.4,0-0.7,0.2-1,0.5c-0.2,0.3-0.4,0.6-0.4,1c0,0.4,0.1,0.7,0.4,1C641.6,366.6,642,366.8,642.3,366.8z"/>
		<path class="st1" d="M756.9,483.9l-2.4-2.6c-0.7-0.8-1.8,0.4-1.1,1.2l2.4,2.6C756.5,485.9,757.6,484.7,756.9,483.9z"/>
		<path class="st1" d="M1078.9,112.9c0.4,0,0.7-0.2,0.9-0.5c0.3-0.3,0.4-0.6,0.4-1c0-0.4-0.1-0.7-0.4-1c-0.2-0.3-0.6-0.5-0.9-0.5
			c-0.4,0-0.7,0.2-1,0.5c-0.2,0.3-0.4,0.6-0.4,1c0,0.4,0.1,0.7,0.4,1C1078.2,112.7,1078.6,112.8,1078.9,112.9z"/>
		<path class="st1" d="M1202.6,185.4c0.4,0,0.8-0.2,1.1-0.4c0.3-0.3,0.4-0.7,0.4-1.1s-0.2-0.8-0.4-1.1c-0.3-0.3-0.7-0.4-1.1-0.4
			s-0.8,0.2-1.1,0.4c-0.3,0.3-0.4,0.7-0.4,1.1s0.2,0.8,0.4,1.1C1201.8,185.3,1202.2,185.4,1202.6,185.4z"/>
		<path class="st1" d="M1173.5,356.4c0.4,0,0.8-0.2,1.1-0.4c0.3-0.3,0.4-0.7,0.4-1.1c0-0.4-0.2-0.8-0.4-1.1
			c-0.3-0.3-0.7-0.4-1.1-0.4s-0.8,0.2-1.1,0.4c-0.3,0.3-0.4,0.7-0.4,1.1c0,0.4,0.2,0.8,0.4,1.1
			C1172.7,356.3,1173.1,356.4,1173.5,356.4z"/>
		<path class="st1" d="M1127.8,587.4v-3c0-0.1,0-0.2-0.1-0.3s-0.1-0.2-0.2-0.3c-0.1-0.1-0.2-0.1-0.3-0.2c-0.1,0-0.2-0.1-0.3-0.1
			c-0.1,0-0.2,0-0.3,0.1c-0.1,0-0.2,0.1-0.3,0.2c-0.1,0.1-0.1,0.2-0.2,0.3c0,0.1-0.1,0.2-0.1,0.3v3c0,0.1,0,0.2,0.1,0.3
			c0,0.1,0.1,0.2,0.2,0.3c0.1,0.1,0.2,0.1,0.3,0.2c0.1,0,0.2,0.1,0.3,0.1c0.1,0,0.2,0,0.3-0.1c0.1,0,0.2-0.1,0.3-0.2
			c0.1-0.1,0.1-0.2,0.2-0.3C1127.8,587.6,1127.8,587.5,1127.8,587.4z"/>
		<path class="st1" d="M1008.4,748.9c0.4,0,0.8-0.2,1.1-0.4c0.3-0.3,0.4-0.7,0.4-1.1s-0.2-0.8-0.4-1.1c-0.3-0.3-0.7-0.4-1.1-0.4
			c-0.4,0-0.8,0.2-1.1,0.4c-0.3,0.3-0.4,0.7-0.4,1.1s0.2,0.8,0.4,1.1C1007.6,748.7,1008,748.9,1008.4,748.9z"/>
		<path class="st1" d="M714.6,772.4h2.8c0.2,0,0.4-0.1,0.5-0.3c0.1-0.2,0.2-0.4,0.2-0.6c0-0.2-0.1-0.4-0.2-0.6
			c-0.1-0.2-0.3-0.3-0.5-0.3h-2.8c-0.2,0-0.4,0.1-0.5,0.3c-0.1,0.2-0.2,0.4-0.2,0.6c0,0.2,0.1,0.4,0.2,0.6S714.4,772.3,714.6,772.4z
			"/>
		<path class="st1" d="M678.4,870.5l-2.8-3c-0.7-0.8-1.8,0.4-1.1,1.2l2.8,3C678,872.5,679.1,871.3,678.4,870.5z"/>
		<path class="st1" d="M656.5,674.6C656.5,674.8,656.5,674.5,656.5,674.6S656.5,674.7,656.5,674.6L656.5,674.6
			C656.6,674.8,656.4,674.7,656.5,674.6C656.7,674.7,656.4,674.8,656.5,674.6C656.6,674.6,656.6,674.7,656.5,674.6l0.2,0.1
			c0.1,0-0.1,0,0,0h0.2c0.1,0,0.3,0,0.4,0.1c-0.1-0.1-0.1,0,0,0c0,0,0-0.1,0,0c0-0.1,0-0.1,0,0c0-0.2-0.1,0.1,0-0.1
			c-0.2,1.1,1.3,1.5,1.5,0.5c0.5-2.8-4.2-3-3.8-0.1c0,0.1,0.1,0.2,0.1,0.3c0.1,0.1,0.1,0.2,0.2,0.2c0.1,0.1,0.2,0.1,0.3,0.1
			c0.1,0,0.2,0,0.3,0c0.2-0.1,0.4-0.2,0.5-0.4C656.5,675.1,656.5,674.9,656.5,674.6L656.5,674.6z"/>
		<path class="st1" d="M591.1,886.2v-3c0-0.2-0.1-0.4-0.2-0.6c-0.1-0.1-0.3-0.2-0.6-0.2c-0.2,0-0.4,0.1-0.6,0.2
			c-0.1,0.1-0.2,0.3-0.2,0.6v3c0,0.2,0.1,0.4,0.2,0.6c0.1,0.1,0.3,0.2,0.6,0.2c0.2,0,0.4-0.1,0.6-0.2
			C591,886.6,591.1,886.4,591.1,886.2z"/>
		<path class="st1" d="M914.4,705.1v3c0,0.2,0.1,0.4,0.2,0.6c0.1,0.1,0.3,0.2,0.6,0.2c0.2,0,0.4-0.1,0.6-0.2
			c0.1-0.1,0.2-0.3,0.2-0.6v-3c0-0.2-0.1-0.4-0.2-0.6c-0.1-0.1-0.3-0.2-0.6-0.2c-0.2,0-0.4,0.1-0.6,0.2
			C914.5,704.7,914.4,704.9,914.4,705.1z"/>
		<path class="st1" d="M1286.9,454c0.4,0,0.8-0.2,1.1-0.4c0.3-0.3,0.4-0.7,0.4-1.1c0-0.4-0.2-0.8-0.4-1.1c-0.3-0.3-0.7-0.4-1.1-0.4
			s-0.8,0.2-1.1,0.4c-0.3,0.3-0.4,0.7-0.4,1.1c0,0.4,0.2,0.8,0.4,1.1C1286.1,453.8,1286.5,454,1286.9,454z"/>
		<path class="st1" d="M1352.8,151c0.4,0,0.8-0.2,1.1-0.4c0.3-0.3,0.4-0.7,0.4-1.1c0-0.4-0.2-0.8-0.4-1.1c-0.3-0.3-0.7-0.4-1.1-0.4
			c-0.4,0-0.8,0.2-1.1,0.4c-0.3,0.3-0.4,0.7-0.4,1.1c0,0.4,0.2,0.8,0.4,1.1C1352,150.8,1352.4,151,1352.8,151z"/>
		<path class="st1" d="M1404,365.8l-2-2.1c-0.7-0.8-1.8,0.4-1.1,1.2l2,2.1C1403.6,367.7,1404.7,366.5,1404,365.8z"/>
		<path class="st1" d="M1427.5,533.7v-4.5c0-0.1,0-0.2-0.1-0.3c0-0.1-0.1-0.2-0.2-0.3c-0.1-0.1-0.2-0.1-0.3-0.2
			c-0.1,0-0.2-0.1-0.3-0.1s-0.2,0-0.3,0.1c-0.1,0-0.2,0.1-0.3,0.2c-0.1,0.1-0.1,0.2-0.2,0.3s-0.1,0.2-0.1,0.3v4.5
			c0,0.1,0,0.2,0.1,0.3c0,0.1,0.1,0.2,0.2,0.3c0.1,0.1,0.2,0.1,0.3,0.2c0.1,0,0.2,0.1,0.3,0.1s0.2,0,0.3-0.1c0.1,0,0.2-0.1,0.3-0.2
			c0.1-0.1,0.1-0.2,0.2-0.3C1427.5,533.9,1427.5,533.8,1427.5,533.7z"/>
		<path class="st1" d="M1297.2,749.5c0.4,0,0.8-0.2,1.1-0.4c0.3-0.3,0.4-0.7,0.4-1.1s-0.2-0.8-0.4-1.1c-0.3-0.3-0.7-0.4-1.1-0.4
			c-0.4,0-0.8,0.2-1.1,0.4c-0.3,0.3-0.4,0.7-0.4,1.1s0.2,0.8,0.4,1.1C1296.4,749.3,1296.8,749.5,1297.2,749.5z"/>
		<g>
			<path class="st3" d="M409.9,291c4.3,0,7.8-3.4,7.8-7.7c0-4.3-3.5-7.7-7.8-7.7c-4.3,0-7.8,3.4-7.8,7.7
				C402.1,287.5,405.6,291,409.9,291z"/>
		</g>
		<g>
			<path class="st3" d="M75.1,64.7c4.3,0,7.8-3.4,7.8-7.7s-3.5-7.7-7.8-7.7c-4.3,0-7.8,3.4-7.8,7.7S70.8,64.7,75.1,64.7z"/>
		</g>
		<g>
			<path class="st3" d="M483.7,293c0,0.8-0.2,1.7-0.7,2.4c-0.5,0.7-1.1,1.3-1.9,1.6c-0.8,0.3-1.6,0.4-2.4,0.3
				c-0.8-0.2-1.6-0.5-2.2-1.1c-0.6-0.6-1-1.3-1.2-2.2c-0.2-0.8-0.1-1.7,0.2-2.4c0.3-0.8,0.9-1.4,1.6-1.9c0.7-0.5,1.5-0.7,2.4-0.7
				c0.5,0,1.1,0.1,1.6,0.3c0.5,0.2,1,0.5,1.4,0.9c0.4,0.4,0.7,0.8,0.9,1.3S483.7,292.4,483.7,293z"/>
		</g>
		<g>
			<path class="st3" d="M460,467c0,0.8-0.2,1.7-0.7,2.4c-0.5,0.7-1.1,1.3-1.9,1.6c-0.8,0.3-1.6,0.4-2.4,0.3
				c-0.8-0.2-1.6-0.6-2.2-1.1c-0.6-0.6-1-1.3-1.2-2.2c-0.2-0.8-0.1-1.7,0.2-2.4s0.9-1.4,1.6-1.9c0.7-0.5,1.5-0.7,2.4-0.7
				c0.5,0,1.1,0.1,1.6,0.3c0.5,0.2,1,0.5,1.4,0.9c0.4,0.4,0.7,0.8,0.9,1.4C459.9,465.9,460,466.4,460,467z"/>
		</g>
		<g>
			<path class="st3" d="M899.9,112.2c0,0.8-0.2,1.7-0.7,2.4c-0.5,0.7-1.1,1.3-1.9,1.6c-0.8,0.3-1.6,0.4-2.4,0.3
				c-0.8-0.2-1.6-0.6-2.2-1.1c-0.6-0.6-1-1.3-1.2-2.2c-0.2-0.8-0.1-1.7,0.2-2.4s0.9-1.4,1.6-1.9c0.7-0.5,1.5-0.7,2.4-0.7
				c0.5,0,1.1,0.1,1.6,0.3c0.5,0.2,1,0.5,1.4,0.9c0.4,0.4,0.7,0.8,0.9,1.3C899.8,111.1,899.9,111.7,899.9,112.2z"/>
		</g>
		<g>
			<path class="st3" d="M1226.9,278c0,0.8-0.2,1.7-0.7,2.4c-0.5,0.7-1.1,1.3-1.9,1.6c-0.8,0.3-1.6,0.4-2.5,0.3
				c-0.8-0.2-1.6-0.6-2.2-1.1c-0.6-0.6-1-1.3-1.2-2.2c-0.2-0.8-0.1-1.7,0.2-2.5c0.3-0.8,0.9-1.4,1.6-1.9c0.7-0.5,1.5-0.7,2.4-0.7
				c0.5,0,1.1,0.1,1.6,0.3s1,0.5,1.4,0.9c0.4,0.4,0.7,0.8,0.9,1.3C1226.7,276.9,1226.9,277.4,1226.9,278z"/>
		</g>
		<g>
			<path class="st3" d="M908.9,144.8c0,0.5-0.1,1-0.4,1.4c-0.3,0.4-0.7,0.8-1.1,0.9c-0.5,0.2-1,0.3-1.5,0.2
				c-0.5-0.1-0.9-0.3-1.3-0.7c-0.4-0.4-0.6-0.8-0.7-1.3c-0.1-0.5-0.1-1,0.1-1.5c0.2-0.5,0.5-0.9,0.9-1.1c0.4-0.3,0.9-0.4,1.4-0.4
				c0.3,0,0.7,0.1,1,0.2c0.3,0.1,0.6,0.3,0.8,0.5c0.2,0.2,0.4,0.5,0.5,0.8C908.8,144.2,908.9,144.5,908.9,144.8z"/>
		</g>
		<g>
			<path class="st3" d="M970.3,240.2c0,0.5-0.1,1-0.4,1.4c-0.3,0.4-0.7,0.8-1.1,1c-0.5,0.2-1,0.3-1.5,0.2c-0.5-0.1-0.9-0.3-1.3-0.7
				c-0.4-0.4-0.6-0.8-0.7-1.3c-0.1-0.5-0.1-1,0.1-1.5c0.2-0.5,0.5-0.9,0.9-1.1c0.4-0.3,0.9-0.4,1.4-0.4c0.3,0,0.7,0.1,1,0.2
				c0.3,0.1,0.6,0.3,0.8,0.5c0.2,0.2,0.4,0.5,0.5,0.8C970.3,239.6,970.3,239.9,970.3,240.2z"/>
		</g>
		<g>
			<path class="st3" d="M1256.1,165.7c0,0.5-0.1,1-0.4,1.4c-0.3,0.4-0.7,0.8-1.1,1c-0.5,0.2-1,0.3-1.5,0.2c-0.5-0.1-0.9-0.3-1.3-0.7
				c-0.3-0.4-0.6-0.8-0.7-1.3s-0.1-1,0.1-1.5c0.2-0.5,0.5-0.9,0.9-1.1c0.4-0.3,0.9-0.4,1.4-0.4c0.7,0,1.3,0.3,1.8,0.7
				S1256.1,165,1256.1,165.7z"/>
		</g>
		<g>
			<path class="st3" d="M1308.6,361.5c0,0.5-0.1,1-0.4,1.4c-0.3,0.4-0.7,0.8-1.1,1c-0.5,0.2-1,0.3-1.5,0.2c-0.5-0.1-0.9-0.3-1.3-0.7
				c-0.4-0.4-0.6-0.8-0.7-1.3c-0.1-0.5-0.1-1,0.1-1.5c0.2-0.5,0.5-0.9,0.9-1.1c0.4-0.3,0.9-0.4,1.4-0.4c0.3,0,0.7,0.1,1,0.2
				c0.3,0.1,0.6,0.3,0.8,0.5c0.2,0.2,0.4,0.5,0.5,0.8C1308.5,360.9,1308.6,361.2,1308.6,361.5z"/>
		</g>
		<g>
			<path class="st3" d="M1088.1,136.9c0,0.5-0.1,1-0.4,1.4s-0.7,0.8-1.1,0.9c-0.5,0.2-1,0.3-1.5,0.2c-0.5-0.1-0.9-0.3-1.3-0.7
				c-0.3-0.4-0.6-0.8-0.7-1.3c-0.1-0.5-0.1-1,0.1-1.5c0.2-0.5,0.5-0.9,0.9-1.1c0.4-0.3,0.9-0.4,1.4-0.4c0.7,0,1.3,0.3,1.8,0.7
				C1087.8,135.6,1088.1,136.3,1088.1,136.9z"/>
		</g>
		<g>
			<path class="st3" d="M1176.6,297.1c1.4,0,2.5-1.1,2.5-2.5c0-1.4-1.1-2.5-2.5-2.5s-2.5,1.1-2.5,2.5
				C1174.1,296,1175.2,297.1,1176.6,297.1z"/>
		</g>
		<g>
			<path class="st3" d="M608.6,108.2c0,0.5-0.1,1-0.4,1.4c-0.3,0.4-0.7,0.7-1.1,0.9c-0.5,0.2-1,0.3-1.5,0.2
				c-0.5-0.1-0.9-0.3-1.3-0.7c-0.4-0.4-0.6-0.8-0.7-1.3c-0.1-0.5,0-1,0.1-1.5c0.2-0.5,0.5-0.9,0.9-1.1c0.4-0.3,0.9-0.4,1.4-0.4
				c0.3,0,0.7,0.1,1,0.2c0.3,0.1,0.6,0.3,0.8,0.5c0.2,0.2,0.4,0.5,0.5,0.8C608.5,107.5,608.6,107.8,608.6,108.2z"/>
		</g>
		<g>
			<path class="st3" d="M100.2,13.3c0,0.2-0.1,0.4-0.3,0.6c-0.2,0.1-0.4,0.2-0.6,0.2c-0.2,0-0.4-0.1-0.6-0.2
				c-0.2-0.1-0.3-0.3-0.3-0.6c0-0.2,0.1-0.4,0.3-0.6c0.2-0.1,0.4-0.2,0.6-0.2c0.2,0,0.4,0.1,0.6,0.2
				C100.1,12.9,100.2,13.1,100.2,13.3z"/>
		</g>
		<g>
			<path class="st3" d="M172.4,25.3c0,0.2,0,0.3-0.1,0.5c-0.1,0.1-0.2,0.3-0.4,0.3c-0.2,0.1-0.3,0.1-0.5,0.1s-0.3-0.1-0.5-0.2
				s-0.2-0.3-0.2-0.5c0-0.2,0-0.3,0-0.5c0.1-0.2,0.2-0.3,0.3-0.4c0.1-0.1,0.3-0.1,0.5-0.1c0.1,0,0.2,0,0.3,0.1
				c0.1,0,0.2,0.1,0.3,0.2c0.1,0.1,0.1,0.2,0.2,0.3C172.3,25.1,172.3,25.2,172.4,25.3z"/>
		</g>
		<g>
			<path class="st3" d="M458.7,245.3c0,0.2,0,0.3-0.1,0.5c-0.1,0.1-0.2,0.3-0.4,0.3c-0.2,0.1-0.3,0.1-0.5,0.1
				c-0.2,0-0.3-0.1-0.5-0.2c-0.1-0.1-0.2-0.3-0.2-0.4c0-0.2,0-0.3,0-0.5s0.2-0.3,0.3-0.4c0.1-0.1,0.3-0.1,0.5-0.1
				c0.1,0,0.2,0,0.3,0.1c0.1,0,0.2,0.1,0.3,0.2c0.1,0.1,0.1,0.2,0.2,0.3C458.7,245.1,458.7,245.2,458.7,245.3z"/>
		</g>
		<g>
			<path class="st3" d="M40.2,375.9c0,0.2-0.1,0.4-0.3,0.6c-0.2,0.1-0.4,0.2-0.6,0.2s-0.4-0.1-0.6-0.2c-0.2-0.1-0.3-0.3-0.3-0.6
				c0-0.2,0.1-0.4,0.3-0.6c0.2-0.1,0.4-0.2,0.6-0.2s0.4,0.1,0.6,0.2C40.1,375.5,40.2,375.7,40.2,375.9z"/>
		</g>
		<g>
			<path class="st3" d="M94.6,595c0,0.2-0.1,0.4-0.3,0.6c-0.2,0.1-0.4,0.2-0.6,0.2c-0.2,0-0.4-0.1-0.6-0.2c-0.2-0.1-0.3-0.3-0.3-0.6
				c0-0.2,0.1-0.4,0.3-0.6c0.2-0.1,0.4-0.2,0.6-0.2c0.2,0,0.4,0.1,0.6,0.2C94.5,594.6,94.6,594.8,94.6,595z"/>
		</g>
		<g>
			<path class="st3" d="M443.5,525.9c0,0.2,0,0.3-0.1,0.5c-0.1,0.1-0.2,0.3-0.4,0.3c-0.2,0.1-0.3,0.1-0.5,0.1
				c-0.2,0-0.3-0.1-0.4-0.2c-0.1-0.1-0.2-0.3-0.2-0.4c0-0.2,0-0.3,0-0.5c0.1-0.2,0.2-0.3,0.3-0.4c0.1-0.1,0.3-0.1,0.5-0.1
				c0.2,0,0.4,0.1,0.6,0.3C443.5,525.4,443.5,525.6,443.5,525.9z"/>
		</g>
		<g>
			<path class="st3" d="M519.9,393.7c0,0.2,0,0.3-0.1,0.5c-0.1,0.1-0.2,0.3-0.4,0.3c-0.2,0.1-0.3,0.1-0.5,0.1
				c-0.2,0-0.3-0.1-0.5-0.2c-0.1-0.1-0.2-0.3-0.2-0.5c0-0.2,0-0.4,0.1-0.5c0.1-0.2,0.2-0.3,0.3-0.4c0.1-0.1,0.3-0.1,0.5-0.1
				c0.2,0,0.4,0.1,0.6,0.3S519.9,393.5,519.9,393.7z"/>
		</g>
		<g>
			<path class="st3" d="M511.5,488.9c0,0.2,0,0.3-0.1,0.5c-0.1,0.1-0.2,0.3-0.4,0.3c-0.2,0.1-0.3,0.1-0.5,0.1
				c-0.2,0-0.3-0.1-0.4-0.2c-0.1-0.1-0.2-0.3-0.2-0.4c0-0.2,0-0.3,0-0.5c0.1-0.2,0.2-0.3,0.3-0.4c0.1-0.1,0.3-0.1,0.5-0.1
				c0.1,0,0.2,0,0.3,0.1c0.1,0,0.2,0.1,0.3,0.2s0.1,0.2,0.2,0.3S511.5,488.8,511.5,488.9z"/>
		</g>
		<g>
			<path class="st3" d="M447.6,409.5c0,0.2,0,0.3-0.1,0.5c-0.1,0.1-0.2,0.3-0.4,0.3c-0.2,0.1-0.3,0.1-0.5,0.1
				c-0.2,0-0.3-0.1-0.5-0.2c-0.1-0.1-0.2-0.3-0.2-0.5s0-0.4,0.1-0.5c0.1-0.2,0.2-0.3,0.3-0.4c0.1-0.1,0.3-0.1,0.5-0.1
				c0.2,0,0.4,0.1,0.6,0.3C447.5,409,447.6,409.2,447.6,409.5z"/>
		</g>
		<g>
			<path class="st3" d="M71.1,289.1c0.5,0,0.9-0.4,0.9-0.9c0-0.5-0.4-0.9-0.9-0.9s-0.9,0.4-0.9,0.9
				C70.2,288.7,70.6,289.1,71.1,289.1z"/>
		</g>
		<g>
			<path class="st3" d="M8.3,449.3c0,0.2-0.1,0.4-0.3,0.6c-0.2,0.1-0.4,0.2-0.6,0.2c-0.2,0-0.4-0.1-0.6-0.2
				c-0.2-0.1-0.3-0.3-0.3-0.6c0-0.2,0.1-0.4,0.3-0.6c0.2-0.1,0.4-0.2,0.6-0.2c0.2,0,0.4,0.1,0.6,0.2C8.2,448.9,8.3,449.1,8.3,449.3z
				"/>
		</g>
		<g>
			<path class="st3" d="M36.2,546.6c0,0.2,0,0.3-0.1,0.5c-0.1,0.1-0.2,0.3-0.4,0.3c-0.2,0.1-0.3,0.1-0.5,0.1c-0.2,0-0.3-0.1-0.4-0.2
				c-0.1-0.1-0.2-0.3-0.2-0.4c0-0.2,0-0.3,0-0.5c0.1-0.2,0.2-0.3,0.3-0.4c0.1-0.1,0.3-0.1,0.5-0.1c0.1,0,0.2,0,0.3,0.1
				c0.1,0,0.2,0.1,0.3,0.2c0.1,0.1,0.1,0.2,0.2,0.3C36.2,546.4,36.2,546.5,36.2,546.6z"/>
		</g>
		<g>
			<path class="st3" d="M15.5,612.1c0,0.2,0,0.3-0.1,0.5c-0.1,0.1-0.2,0.3-0.4,0.3c-0.2,0.1-0.3,0.1-0.5,0.1c-0.2,0-0.3-0.1-0.5-0.2
				c-0.1-0.1-0.2-0.3-0.2-0.5c0-0.2,0-0.3,0-0.5c0.1-0.2,0.2-0.3,0.3-0.4c0.1-0.1,0.3-0.2,0.5-0.2c0.1,0,0.2,0,0.3,0.1
				c0.1,0,0.2,0.1,0.3,0.2c0.1,0.1,0.1,0.2,0.2,0.3C15.5,611.9,15.5,612,15.5,612.1z"/>
		</g>
		<g>
			<path class="st3" d="M416.2,196c0,0.2,0,0.3-0.1,0.5c-0.1,0.1-0.2,0.3-0.4,0.3c-0.2,0.1-0.3,0.1-0.5,0.1c-0.2,0-0.3-0.1-0.5-0.2
				c-0.1-0.1-0.2-0.3-0.2-0.4c0-0.2,0-0.3,0-0.5s0.2-0.3,0.3-0.4c0.1-0.1,0.3-0.1,0.5-0.1c0.1,0,0.2,0,0.3,0.1
				c0.1,0,0.2,0.1,0.3,0.2c0.1,0.1,0.1,0.2,0.2,0.3C416.2,195.8,416.2,195.9,416.2,196z"/>
		</g>
		<g>
			<path class="st3" d="M299.2,242.4c0,0.2,0,0.3-0.1,0.5c-0.1,0.1-0.2,0.3-0.4,0.3c-0.2,0.1-0.3,0.1-0.5,0.1
				c-0.2,0-0.3-0.1-0.5-0.2c-0.1-0.1-0.2-0.3-0.2-0.4c0-0.2,0-0.3,0-0.5c0.1-0.2,0.2-0.3,0.3-0.4c0.1-0.1,0.3-0.2,0.5-0.2
				c0.1,0,0.2,0,0.3,0.1c0.1,0,0.2,0.1,0.3,0.2c0.1,0.1,0.1,0.2,0.2,0.3C299.2,242.1,299.2,242.3,299.2,242.4z"/>
		</g>
		<g>
			<path class="st3" d="M419,337.7c0,0.2-0.1,0.4-0.3,0.6c-0.2,0.2-0.4,0.3-0.6,0.3c-0.2,0-0.4-0.1-0.6-0.3
				c-0.2-0.2-0.3-0.4-0.3-0.6s0.1-0.4,0.3-0.6c0.2-0.2,0.4-0.3,0.6-0.3c0.2,0,0.5,0.1,0.6,0.3C418.9,337.3,419,337.5,419,337.7z"/>
		</g>
		<g>
			<path class="st3" d="M854.5,67.1c0,0.5-0.1,1-0.4,1.4c-0.3,0.4-0.7,0.8-1.1,1c-0.5,0.2-1,0.3-1.5,0.2s-0.9-0.3-1.3-0.7
				c-0.4-0.4-0.6-0.8-0.7-1.3c-0.1-0.5-0.1-1,0.1-1.5c0.2-0.5,0.5-0.9,0.9-1.1c0.4-0.3,0.9-0.4,1.4-0.4c0.7,0,1.3,0.3,1.8,0.7
				C854.3,65.8,854.5,66.4,854.5,67.1z"/>
		</g>
		<g>
			<path class="st3" d="M659,406.4c0,0.5-0.1,1-0.4,1.4c-0.3,0.4-0.7,0.8-1.1,1c-0.5,0.2-1,0.3-1.5,0.2c-0.5-0.1-0.9-0.3-1.3-0.7
				c-0.4-0.4-0.6-0.8-0.7-1.3c-0.1-0.5-0.1-1,0.1-1.5c0.2-0.5,0.5-0.9,0.9-1.1c0.4-0.3,0.9-0.4,1.4-0.4c0.3,0,0.7,0.1,1,0.2
				c0.3,0.1,0.6,0.3,0.8,0.5c0.2,0.2,0.4,0.5,0.5,0.8S659,406.1,659,406.4z"/>
		</g>
		<g>
			<path class="st3" d="M148.4,61.3c1.4,0,2.5-1.1,2.5-2.5c0-1.4-1.1-2.5-2.5-2.5c-1.4,0-2.5,1.1-2.5,2.5
				C145.9,60.2,147,61.3,148.4,61.3z"/>
		</g>
		<path class="st1" d="M130,39.1c0.4,0,0.8-0.2,1.1-0.4c0.3-0.3,0.4-0.7,0.4-1.1c0-0.4-0.2-0.8-0.4-1.1c-0.3-0.3-0.7-0.4-1.1-0.4
			c-0.4,0-0.8,0.2-1.1,0.4c-0.3,0.3-0.4,0.7-0.4,1.1c0,0.4,0.2,0.8,0.4,1.1C129.2,38.9,129.6,39.1,130,39.1z"/>
		<path class="st1" d="M370.9,117.9v-2.6c0-0.2-0.1-0.4-0.2-0.6c-0.1-0.1-0.3-0.2-0.6-0.2c-0.2,0-0.4,0.1-0.6,0.2
			c-0.1,0.1-0.2,0.3-0.2,0.6v2.6c0,0.2,0.1,0.4,0.2,0.6c0.1,0.1,0.3,0.2,0.6,0.2c0.2,0,0.4-0.1,0.6-0.2
			C370.8,118.3,370.9,118.1,370.9,117.9z"/>
		<path class="st1" d="M251.3,189.3c0.4,0,0.8-0.2,1.1-0.4c0.3-0.3,0.4-0.7,0.4-1.1c0-0.4-0.2-0.8-0.4-1.1c-0.3-0.3-0.7-0.4-1.1-0.4
			s-0.8,0.2-1.1,0.4c-0.3,0.3-0.4,0.7-0.4,1.1c0,0.4,0.2,0.8,0.4,1.1C250.5,189.2,250.9,189.3,251.3,189.3z"/>
		<path class="st1" d="M133.2,286.3v-2.6c0-0.2-0.1-0.4-0.2-0.6c-0.1-0.1-0.3-0.2-0.6-0.2c-0.2,0-0.4,0.1-0.6,0.2
			c-0.1,0.1-0.2,0.3-0.2,0.6v2.6c0,0.2,0.1,0.4,0.2,0.6c0.1,0.1,0.3,0.2,0.6,0.2c0.2,0,0.4-0.1,0.6-0.2
			C133.1,286.7,133.2,286.5,133.2,286.3z"/>
		<path class="st1" d="M205.2,119.4c0.4,0,0.8-0.2,1.1-0.4c0.3-0.3,0.4-0.7,0.4-1.1s-0.2-0.8-0.4-1.1c-0.3-0.3-0.7-0.4-1.1-0.4
			c-0.4,0-0.8,0.2-1.1,0.4c-0.3,0.3-0.4,0.7-0.4,1.1s0.2,0.8,0.4,1.1C204.4,119.2,204.8,119.4,205.2,119.4z"/>
		<path class="st1" d="M65.1,171.7l-2.4-2.6c-0.7-0.8-1.8,0.4-1.1,1.2l2.4,2.6C64.7,173.7,65.8,172.5,65.1,171.7z"/>
		<path class="st1" d="M481.7,44.2c0.4,0,0.8-0.2,1.1-0.4c0.3-0.3,0.4-0.7,0.4-1.1s-0.2-0.8-0.4-1.1c-0.3-0.3-0.7-0.4-1.1-0.4
			c-0.4,0-0.8,0.2-1.1,0.4c-0.3,0.3-0.4,0.7-0.4,1.1s0.2,0.8,0.4,1.1C480.9,44.1,481.3,44.2,481.7,44.2z"/>
		<path class="st1" d="M436,275.2v-3c0-0.2-0.1-0.4-0.2-0.6s-0.3-0.2-0.6-0.2c-0.2,0-0.4,0.1-0.6,0.2c-0.1,0.1-0.2,0.3-0.2,0.6v3
			c0,0.2,0.1,0.4,0.2,0.6c0.1,0.1,0.3,0.2,0.6,0.2c0.2,0,0.4-0.1,0.6-0.2C435.9,275.6,436,275.4,436,275.2z"/>
		<path class="st1" d="M316.6,436.7c0.4,0,0.8-0.2,1.1-0.4c0.3-0.3,0.4-0.7,0.4-1.1s-0.2-0.8-0.4-1.1c-0.3-0.3-0.7-0.4-1.1-0.4
			s-0.8,0.2-1.1,0.4c-0.3,0.3-0.4,0.7-0.4,1.1s0.2,0.8,0.4,1.1C315.8,436.5,316.2,436.7,316.6,436.7z"/>
		<path class="st1" d="M22.8,460.2h2.8c0.2,0,0.4-0.1,0.5-0.3s0.2-0.4,0.2-0.6c0-0.2-0.1-0.4-0.2-0.6c-0.1-0.2-0.3-0.3-0.5-0.3h-2.8
			c-0.2,0-0.4,0.1-0.5,0.3c-0.1,0.2-0.2,0.4-0.2,0.6c0,0.2,0.1,0.4,0.2,0.6C22.4,460,22.6,460.1,22.8,460.2z"/>
		<path class="st1" d="M222.6,392.9v3c0,0.2,0.1,0.4,0.2,0.6c0.1,0.1,0.3,0.2,0.6,0.2c0.2,0,0.4-0.1,0.6-0.2
			c0.1-0.1,0.2-0.4,0.2-0.6v-3c0-0.2-0.1-0.4-0.2-0.6c-0.1-0.1-0.3-0.2-0.6-0.2c-0.2,0-0.4,0.1-0.6,0.2
			C222.7,392.5,222.6,392.7,222.6,392.9z"/>
		<path class="st1" d="M184.6,589.1v-3c0-0.2-0.1-0.4-0.2-0.6c-0.1-0.1-0.3-0.2-0.6-0.2c-0.2,0-0.4,0.1-0.6,0.2
			c-0.1,0.1-0.2,0.3-0.2,0.6v3c0,0.2,0.1,0.4,0.2,0.6c0.1,0.1,0.3,0.2,0.6,0.2c0.2,0,0.4-0.1,0.6-0.2
			C184.5,589.5,184.6,589.3,184.6,589.1z"/>
		<path class="st1" d="M595.1,141.8c0.4,0,0.8-0.2,1.1-0.4c0.3-0.3,0.4-0.7,0.4-1.1c0-0.4-0.2-0.8-0.4-1.1c-0.3-0.3-0.7-0.4-1.1-0.4
			c-0.4,0-0.8,0.2-1.1,0.4c-0.3,0.3-0.4,0.7-0.4,1.1c0,0.4,0.2,0.8,0.4,1.1C594.3,141.6,594.7,141.8,595.1,141.8z"/>
		<path class="st1" d="M1065.1,66.2l2-2.1c0.7-0.8-0.4-2-1.1-1.2l-2,2.1C1063.3,65.8,1064.4,67,1065.1,66.2z"/>
		<path class="st1" d="M920.7,242.1c0.4,0,0.7-0.2,1-0.5c0.2-0.3,0.4-0.6,0.4-1c0-0.4-0.1-0.7-0.4-1c-0.2-0.3-0.6-0.5-1-0.5
			c-0.4,0-0.7,0.2-1,0.5c-0.2,0.3-0.4,0.6-0.4,1c0,0.4,0.1,0.7,0.4,1C920,241.9,920.3,242.1,920.7,242.1z"/>
		<path class="st1" d="M712.1,53.6l-2-2.1c-0.7-0.8-1.8,0.4-1.1,1.2l2,2.1C711.7,55.5,712.8,54.3,712.1,53.6L712.1,53.6z"/>
		<path class="st1" d="M735.7,221.5V217c0-0.2-0.1-0.4-0.2-0.6c-0.1-0.1-0.3-0.2-0.6-0.2c-0.2,0-0.4,0.1-0.6,0.2
			c-0.1,0.1-0.2,0.3-0.2,0.6v4.5c0,0.2,0.1,0.4,0.2,0.6c0.1,0.1,0.3,0.2,0.6,0.2c0.2,0,0.4-0.1,0.6-0.2
			C735.6,221.9,735.7,221.7,735.7,221.5z"/>
		<path class="st1" d="M605.4,437.3c0.4,0,0.7-0.2,1-0.5c0.2-0.3,0.4-0.6,0.4-1c0-0.4-0.1-0.7-0.4-1c-0.2-0.3-0.6-0.5-1-0.5
			c-0.4,0-0.7,0.2-1,0.5c-0.2,0.3-0.4,0.6-0.4,1c0,0.4,0.1,0.7,0.4,1C604.7,437.1,605,437.3,605.4,437.3z"/>
		<path class="st1" d="M706.8,14.4c0.4,0,0.8-0.2,1.1-0.4c0.3-0.3,0.4-0.7,0.4-1.1c0-0.4-0.2-0.8-0.4-1.1c-0.3-0.3-0.7-0.4-1.1-0.4
			c-0.4,0-0.8,0.2-1.1,0.4c-0.3,0.3-0.4,0.7-0.4,1.1c0,0.4,0.2,0.8,0.4,1.1C706,14.2,706.4,14.4,706.8,14.4z"/>
		<path class="st1" d="M947.7,93.2v-2.6c0-0.2-0.1-0.4-0.2-0.6c-0.1-0.1-0.3-0.2-0.6-0.2c-0.2,0-0.4,0.1-0.6,0.2
			c-0.1,0.1-0.2,0.3-0.2,0.6v2.6c0,0.2,0.1,0.4,0.2,0.6c0.1,0.1,0.3,0.2,0.6,0.2c0.2,0,0.4-0.1,0.6-0.2
			C947.7,93.6,947.7,93.4,947.7,93.2z"/>
		<path class="st1" d="M828.1,164.6c0.4,0,0.8-0.2,1.1-0.4s0.4-0.7,0.4-1.1c0-0.4-0.2-0.8-0.4-1.1c-0.3-0.3-0.7-0.4-1.1-0.4
			c-0.4,0-0.8,0.2-1.1,0.4c-0.3,0.3-0.4,0.7-0.4,1.1c0,0.4,0.2,0.8,0.4,1.1C827.3,164.5,827.7,164.6,828.1,164.6z"/>
		<path class="st1" d="M710,261.6V259c0-0.2-0.1-0.4-0.2-0.6c-0.1-0.1-0.3-0.2-0.6-0.2c-0.2,0-0.4,0.1-0.6,0.2
			c-0.1,0.1-0.2,0.3-0.2,0.6v2.6c0,0.2,0.1,0.4,0.2,0.6c0.1,0.1,0.3,0.2,0.6,0.2c0.2,0,0.4-0.1,0.6-0.2
			C709.9,262,710,261.8,710,261.6L710,261.6z"/>
		<path class="st1" d="M782,94.7c0.4,0,0.7-0.2,1-0.5c0.2-0.3,0.4-0.6,0.4-1s-0.1-0.7-0.4-1c-0.2-0.3-0.6-0.5-1-0.5
			c-0.4,0-0.7,0.2-1,0.5c-0.2,0.3-0.4,0.6-0.4,1s0.1,0.7,0.4,1C781.3,94.5,781.6,94.6,782,94.7z"/>
		<path class="st1" d="M548.6,161.1l2.4,2.6c0.7,0.8,1.8-0.4,1.1-1.2l-2.4-2.6C549,159.2,547.9,160.4,548.6,161.1L548.6,161.1z"/>
		<path class="st1" d="M483.3,220c-0.4,2.7,4,2.5,3.5-0.1c-0.2-1.1-1.7-0.6-1.5,0.4c0-0.2,0,0,0-0.1c0-0.1,0,0.1,0-0.1
			c-0.1,0.1,0.1,0,0,0s-0.1,0.2,0,0c0,0-0.1,0-0.1,0.1c0.1,0,0,0,0,0h-0.1c0.1,0,0.1,0,0,0s-0.3-0.1-0.1,0h-0.1c0,0,0,0,0.1,0h-0.1
			c0-0.1,0,0.1,0,0c0,0,0,0,0,0.1s0,0.1,0,0c0.1,0.2,0,0,0,0.1c0-0.2,0-0.4-0.1-0.6c-0.1-0.2-0.3-0.3-0.5-0.4c-0.1,0-0.2,0-0.3,0
			c-0.1,0-0.2,0-0.3,0.1c-0.1,0.1-0.2,0.1-0.2,0.2C483.3,219.8,483.3,219.9,483.3,220L483.3,220z"/>
		<path class="st1" d="M527.3,29.9c0.4,0,0.7-0.2,1-0.5c0.2-0.3,0.4-0.6,0.4-1c0-0.4-0.1-0.7-0.4-1c-0.2-0.3-0.6-0.5-1-0.5
			c-0.4,0-0.7,0.2-1,0.5c-0.2,0.3-0.4,0.6-0.4,1c0,0.4,0.1,0.7,0.4,1C526.6,29.7,527,29.9,527.3,29.9z"/>
		<path class="st1" d="M641.9,147l-2.4-2.6c-0.7-0.8-1.8,0.4-1.1,1.2l2.4,2.6C641.5,149,642.6,147.8,641.9,147z"/>
		<path class="st1" d="M1058.5,19.5c0.4,0,0.8-0.2,1.1-0.4c0.3-0.3,0.4-0.7,0.4-1.1s-0.2-0.8-0.4-1.1c-0.3-0.3-0.7-0.4-1.1-0.4
			s-0.8,0.2-1.1,0.4c-0.3,0.3-0.4,0.7-0.4,1.1s0.2,0.8,0.4,1.1C1057.7,19.4,1058.1,19.5,1058.5,19.5z"/>
		<path class="st1" d="M1012.8,250.5v-3c0-0.1,0-0.2-0.1-0.3c0-0.1-0.1-0.2-0.2-0.3c-0.1-0.1-0.2-0.1-0.3-0.2
			c-0.1,0-0.2-0.1-0.3-0.1c-0.1,0-0.2,0-0.3,0.1c-0.1,0-0.2,0.1-0.3,0.2c-0.1,0.1-0.1,0.2-0.2,0.3c0,0.1-0.1,0.2-0.1,0.3v3
			c0,0.1,0,0.2,0.1,0.3s0.1,0.2,0.2,0.3c0.1,0.1,0.2,0.1,0.3,0.2c0.1,0,0.2,0.1,0.3,0.1c0.1,0,0.2,0,0.3-0.1c0.1,0,0.2-0.1,0.3-0.2
			c0.1-0.1,0.1-0.2,0.2-0.3C1012.8,250.7,1012.8,250.6,1012.8,250.5z"/>
		<path class="st1" d="M893.4,412c0.4,0,0.8-0.2,1.1-0.4c0.3-0.3,0.4-0.7,0.4-1.1c0-0.4-0.2-0.8-0.4-1.1c-0.3-0.3-0.7-0.4-1.1-0.4
			c-0.4,0-0.8,0.2-1.1,0.4c-0.3,0.3-0.4,0.7-0.4,1.1c0,0.4,0.2,0.8,0.4,1.1C892.6,411.8,893,412,893.4,412z"/>
		<path class="st1" d="M599.6,435.5h2.8c0.2,0,0.4-0.1,0.5-0.3c0.1-0.2,0.2-0.4,0.2-0.6c0-0.2-0.1-0.4-0.2-0.6
			c-0.1-0.2-0.3-0.3-0.5-0.3h-2.8c-0.2,0-0.4,0.1-0.5,0.3c-0.1,0.2-0.2,0.4-0.2,0.6c0,0.2,0.1,0.4,0.2,0.6S599.4,435.4,599.6,435.5z
			"/>
		<path class="st1" d="M563.4,533.6l-2.8-3c-0.7-0.8-1.8,0.4-1.1,1.2l2.8,3C563,535.6,564.1,534.4,563.4,533.6z"/>
		<path class="st1" d="M541.5,337.7C541.5,337.9,541.5,337.6,541.5,337.7C541.5,337.8,541.5,337.8,541.5,337.7L541.5,337.7
			C541.6,337.9,541.4,337.8,541.5,337.7C541.7,337.8,541.4,337.9,541.5,337.7C541.6,337.7,541.6,337.8,541.5,337.7l0.2,0.1
			c0.1,0-0.1,0,0,0h0.2c0.1,0,0.3,0,0.4,0.1c-0.1-0.1-0.1,0,0,0c0,0,0-0.1,0,0c0-0.1,0-0.1,0,0c0-0.2-0.1,0.1,0-0.1
			c-0.2,1.1,1.3,1.5,1.5,0.5c0.5-2.8-4.2-3-3.8-0.1c0,0.1,0.1,0.2,0.1,0.3c0.1,0.1,0.1,0.2,0.2,0.2c0.1,0.1,0.2,0.1,0.3,0.1
			c0.1,0,0.2,0,0.3,0c0.2-0.1,0.4-0.2,0.5-0.4C541.5,338.2,541.5,338,541.5,337.7L541.5,337.7z"/>
		<path class="st1" d="M476.1,549.3v-3c0-0.2-0.1-0.4-0.2-0.6c-0.1-0.1-0.3-0.2-0.6-0.2c-0.2,0-0.4,0.1-0.6,0.2
			c-0.1,0.1-0.2,0.3-0.2,0.6v3c0,0.2,0.1,0.4,0.2,0.6c0.1,0.1,0.3,0.2,0.6,0.2c0.2,0,0.4-0.1,0.6-0.2
			C476,549.7,476.1,549.5,476.1,549.3z"/>
		<path class="st1" d="M799.4,368.2v3c0,0.2,0.1,0.4,0.2,0.6c0.1,0.1,0.3,0.2,0.6,0.2c0.2,0,0.4-0.1,0.6-0.2
			c0.1-0.1,0.2-0.3,0.2-0.6v-3c0-0.2-0.1-0.4-0.2-0.6s-0.3-0.2-0.6-0.2c-0.2,0-0.4,0.1-0.6,0.2C799.5,367.8,799.4,368,799.4,368.2z"
			/>
		<path class="st1" d="M761.4,564.4v-3c0-0.2-0.1-0.4-0.2-0.6c-0.1-0.1-0.3-0.2-0.6-0.2c-0.2,0-0.4,0.1-0.6,0.2
			c-0.1,0.1-0.2,0.3-0.2,0.6v3c0,0.2,0.1,0.4,0.2,0.6s0.3,0.2,0.6,0.2c0.2,0,0.4-0.1,0.6-0.2S761.4,564.6,761.4,564.4z"/>
		<path class="st1" d="M1171.9,117.1c0.4,0,0.8-0.2,1.1-0.4c0.3-0.3,0.4-0.7,0.4-1.1c0-0.4-0.2-0.8-0.4-1.1
			c-0.3-0.3-0.7-0.4-1.1-0.4s-0.8,0.2-1.1,0.4c-0.3,0.3-0.4,0.7-0.4,1.1c0,0.4,0.2,0.8,0.4,1.1
			C1171.1,116.9,1171.5,117.1,1171.9,117.1z"/>
		<path class="st1" d="M1289,28.9l-2-2.1c-0.7-0.8-1.8,0.4-1.1,1.2l2,2.1C1288.6,30.8,1289.7,29.6,1289,28.9z"/>
		<path class="st1" d="M1312.5,196.8v-4.5c0-0.1,0-0.2-0.1-0.3c0-0.1-0.1-0.2-0.2-0.3c-0.1-0.1-0.2-0.1-0.3-0.2
			c-0.1,0-0.2-0.1-0.3-0.1s-0.2,0-0.3,0.1c-0.1,0-0.2,0.1-0.3,0.2c-0.1,0.1-0.1,0.2-0.2,0.3c0,0.1-0.1,0.2-0.1,0.3v4.5
			c0,0.1,0,0.2,0.1,0.3c0,0.1,0.1,0.2,0.2,0.3c0.1,0.1,0.2,0.1,0.3,0.2c0.1,0,0.2,0.1,0.3,0.1s0.2,0,0.3-0.1c0.1,0,0.2-0.1,0.3-0.2
			c0.1-0.1,0.1-0.2,0.2-0.3C1312.5,197,1312.5,196.9,1312.5,196.8z"/>
		<path class="st1" d="M1182.2,412.6c0.4,0,0.8-0.2,1.1-0.4s0.4-0.7,0.4-1.1c0-0.4-0.2-0.8-0.4-1.1c-0.3-0.3-0.7-0.4-1.1-0.4
			c-0.4,0-0.8,0.2-1.1,0.4c-0.3,0.3-0.4,0.7-0.4,1.1c0,0.4,0.2,0.8,0.4,1.1S1181.8,412.6,1182.2,412.6z"/>
		<path class="st4" d="M962.2,199.8c-36.6-30.8-152.4-0.6-200.5,14.6c-43.1,13.6-78.9,54-90.8,98.6c-7.9,29.9,73,49.6,89.9,78.6
			c26.2,45,25.6,94-36,117.2c-46.4,17.5-117.1,13.7-161.9,32.2c-46.7,19.3-54.7,56-100.2,76c-41.8,18.4-109.5,16.5-151.6,34.8
			c-56,24.3-32.1,79.9-133.5,88.9C88.8,748.6,42,832.2-32.9,791v65.7c85.6,2.8,124.5-67.4,205.4-86.3
			c69.7-16.3,193.3,8.9,228.7-15.5c41.9-28.8-49.5-82-23.1-98.6c51.9-32.7,174.8,2.4,223.5-27.7c25-15.4-17.6-45.4,0-63.1
			c37.3-37.7,162.7,4.4,287.7-23.2c65.2-14.4,161.4,51.5,208.1,24.5c50.4-29.1-55.5-73.6-56.5-112.1c-0.8-30.8,4.4-69,51.4-88.9
			c60.1-25.4,176.4-0.1,228.6-29.6c42.1-23.8-36.3-67-7.7-95.4c25.4-25.2,97.7-10.3,146.4-24.2v-58.3c0-3.9-227.8,72.2-249.2,101.8
			c-20.2,28-93.7-5.5-136.2,2.6c-76.5,14.5-136.1,61.5-215.8,70.9c-42.2,4.9-67.5-25.5-33.4-39.9
			C860.1,278.8,967.7,228.9,962.2,199.8z M1008.6,506.2c16.3-4.5,39.5,1,51.8,12.2c12.3,11.2,9,24-7.3,28.5
			c-16.3,4.5-39.6-1-51.8-12.2C989,523.4,992.3,510.7,1008.6,506.2z M307.1,377.5c-7.4-2-17.7,0.4-23.3,5.5
			c-5.5,5-4.1,10.7,3.3,12.8c7.3,2,17.7-0.4,23.3-5.5C315.9,385.2,314.3,379.5,307.1,377.5z M329.7,413.4c-13-3.6-31.4,0.8-41.1,9.7
			c-9.7,8.9-7.2,19,5.8,22.6c13,3.6,31.3-0.8,41-9.7C345.2,427.1,342.6,417,329.7,413.4z M967.8,17.7c-12-3.3-29,0.7-38,9
			c-9,8.2-6.6,17.6,5.3,20.9c12,3.3,29-0.7,38.1-8.9C982.2,30.3,979.8,21,967.8,17.7L967.8,17.7z M572.8,598.3c-12-3.3-29,0.7-38,9
			c-9,8.3-6.6,17.6,5.3,20.9c12,3.3,29-0.7,38.1-9C587.2,610.9,584.8,601.6,572.8,598.3L572.8,598.3z M994.1,468.4
			c7.4-2,17.9,0.5,23.4,5.5c5.5,5.1,4.1,10.8-3.3,12.9c-7.3,2-17.9-0.5-23.4-5.5C985.3,476.1,986.8,470.4,994.1,468.4z"/>
	</g>
</g>
</svg>
