<svg width="1440" height="900" viewBox="0 0 1440 900" fill="none" xmlns="http://www.w3.org/2000/svg">
<g clip-path="url(#clip0_121_743)">
<rect width="1440" height="900" fill="white"/>
<path d="M1440 0H0V900H1440V0Z" fill="#470B96"/>
<g filter="url(#filter0_f_121_743)">
<rect x="-162.805" y="-99.623" width="1765.61" height="672.208" fill="#8B2BA0"/>
</g>
<path opacity="0.5" fill-rule="evenodd" clip-rule="evenodd" d="M-39.582 365.251C-20.8784 319.876 -19.111 262.957 16.438 229.145C72.9934 175.326 198.405 224.59 249.83 181.265C272.876 161.864 238.478 116.994 279.764 96.0076C305.769 82.7877 267.705 34.0391 267.776 9.27591C268.018 -53.7934 362.526 -74.4462 409.922 -115.58H-39.582V365.251Z" fill="#B89774"/>
<g style="mix-blend-mode:screen">
<path d="M957.234 574.482C961.607 574.482 965.152 571.001 965.152 566.706C965.152 562.411 961.607 558.93 957.234 558.93C952.861 558.93 949.316 562.411 949.316 566.706C949.316 571.001 952.861 574.482 957.234 574.482Z" fill="#ADA693"/>
</g>
<g style="mix-blend-mode:screen">
<path d="M1295.37 345.912C1299.75 345.912 1303.29 342.431 1303.29 338.136C1303.29 333.841 1299.75 330.359 1295.37 330.359C1291 330.359 1287.46 333.841 1287.46 338.136C1287.46 342.431 1291 345.912 1295.37 345.912Z" fill="#ADA693"/>
</g>
<g style="mix-blend-mode:screen">
<path d="M882.704 576.523C882.688 577.369 882.924 578.201 883.382 578.912C883.841 579.624 884.501 580.183 885.278 580.518C886.055 580.853 886.915 580.949 887.747 580.793C888.578 580.638 889.345 580.239 889.95 579.646C890.554 579.053 890.968 578.294 891.139 577.465C891.31 576.637 891.23 575.776 890.91 574.992C890.59 574.209 890.044 573.538 889.342 573.066C888.639 572.594 887.812 572.342 886.966 572.342C886.411 572.337 885.861 572.441 885.347 572.648C884.833 572.855 884.365 573.162 883.969 573.55C883.573 573.938 883.258 574.4 883.041 574.911C882.824 575.421 882.709 575.969 882.704 576.523Z" fill="#ADA693"/>
</g>
<g style="mix-blend-mode:screen">
<path d="M1175.28 244.637C1175.27 245.482 1175.51 246.313 1175.97 247.023C1176.43 247.733 1177.09 248.291 1177.87 248.624C1178.64 248.958 1179.5 249.052 1180.33 248.896C1181.16 248.739 1181.93 248.339 1182.53 247.746C1183.14 247.153 1183.55 246.394 1183.72 245.565C1183.89 244.737 1183.81 243.876 1183.49 243.093C1183.17 242.31 1182.62 241.64 1181.92 241.169C1181.22 240.697 1180.39 240.446 1179.55 240.446C1178.99 240.44 1178.44 240.544 1177.92 240.752C1177.41 240.96 1176.94 241.268 1176.55 241.657C1176.15 242.046 1175.83 242.51 1175.62 243.021C1175.4 243.532 1175.29 244.081 1175.28 244.637Z" fill="#ADA693"/>
</g>
<g style="mix-blend-mode:screen">
<path d="M1300.97 169.912C1300.96 170.758 1301.19 171.589 1301.65 172.299C1302.11 173.009 1302.77 173.566 1303.55 173.9C1304.33 174.233 1305.19 174.328 1306.02 174.171C1306.85 174.015 1307.62 173.615 1308.22 173.021C1308.82 172.428 1309.23 171.669 1309.41 170.841C1309.58 170.012 1309.5 169.151 1309.17 168.369C1308.85 167.586 1308.31 166.916 1307.61 166.444C1306.9 165.973 1306.08 165.721 1305.23 165.721C1304.68 165.716 1304.13 165.82 1303.61 166.028C1303.1 166.236 1302.63 166.543 1302.23 166.932C1301.83 167.322 1301.52 167.785 1301.3 168.297C1301.09 168.808 1300.97 169.357 1300.97 169.912Z" fill="#ADA693"/>
</g>
<g style="mix-blend-mode:screen">
<path d="M1424.85 109.055C1424.84 109.9 1425.08 110.731 1425.54 111.441C1426 112.151 1426.66 112.709 1427.44 113.042C1428.21 113.376 1429.07 113.47 1429.9 113.314C1430.73 113.157 1431.5 112.757 1432.1 112.164C1432.71 111.571 1433.12 110.812 1433.29 109.983C1433.46 109.155 1433.38 108.294 1433.06 107.511C1432.74 106.728 1432.19 106.058 1431.49 105.587C1430.79 105.115 1429.96 104.864 1429.12 104.863C1428.56 104.858 1428.01 104.962 1427.5 105.17C1426.98 105.378 1426.51 105.686 1426.12 106.075C1425.72 106.464 1425.4 106.928 1425.19 107.439C1424.97 107.95 1424.86 108.499 1424.85 109.055Z" fill="#ADA693"/>
</g>
<g style="mix-blend-mode:screen">
<path d="M906.637 752.218C906.621 753.065 906.858 753.896 907.316 754.608C907.775 755.319 908.434 755.878 909.212 756.213C909.989 756.548 910.848 756.644 911.68 756.489C912.512 756.333 913.279 755.934 913.883 755.341C914.487 754.749 914.901 753.99 915.072 753.161C915.244 752.332 915.164 751.471 914.844 750.687C914.524 749.904 913.978 749.234 913.275 748.762C912.573 748.29 911.746 748.037 910.899 748.037C910.345 748.032 909.795 748.136 909.281 748.343C908.767 748.55 908.298 748.857 907.902 749.245C907.507 749.633 907.191 750.096 906.974 750.606C906.757 751.116 906.643 751.664 906.637 752.218Z" fill="#ADA693"/>
</g>
<g style="mix-blend-mode:screen">
<path d="M462.395 393.943C462.379 394.789 462.615 395.621 463.074 396.332C463.532 397.044 464.192 397.603 464.969 397.938C465.747 398.273 466.606 398.369 467.438 398.213C468.27 398.058 469.037 397.659 469.641 397.066C470.245 396.473 470.659 395.714 470.83 394.885C471.001 394.057 470.922 393.196 470.602 392.412C470.282 391.629 469.736 390.958 469.033 390.486C468.331 390.014 467.503 389.762 466.657 389.762C466.103 389.757 465.553 389.861 465.039 390.068C464.524 390.275 464.056 390.581 463.66 390.97C463.264 391.358 462.949 391.82 462.732 392.331C462.515 392.841 462.401 393.389 462.395 393.943Z" fill="#ADA693"/>
</g>
<g style="mix-blend-mode:screen">
<path d="M1104.53 165.762C1104.52 166.607 1104.75 167.438 1105.21 168.148C1105.67 168.858 1106.33 169.416 1107.11 169.749C1107.89 170.083 1108.75 170.177 1109.58 170.021C1110.41 169.864 1111.18 169.464 1111.78 168.871C1112.38 168.278 1112.8 167.519 1112.97 166.69C1113.14 165.862 1113.06 165.001 1112.74 164.218C1112.42 163.435 1111.87 162.765 1111.17 162.294C1110.46 161.822 1109.64 161.571 1108.79 161.571C1108.24 161.565 1107.69 161.669 1107.17 161.877C1106.66 162.085 1106.19 162.393 1105.79 162.782C1105.4 163.171 1105.08 163.635 1104.86 164.146C1104.65 164.657 1104.53 165.206 1104.53 165.762Z" fill="#ADA693"/>
</g>
<g style="mix-blend-mode:screen">
<path d="M364.524 248.748C364.508 249.594 364.744 250.426 365.203 251.137C365.661 251.848 366.321 252.407 367.098 252.742C367.876 253.077 368.735 253.173 369.567 253.018C370.399 252.863 371.166 252.463 371.77 251.871C372.374 251.278 372.788 250.519 372.959 249.69C373.13 248.861 373.051 248 372.731 247.217C372.411 246.433 371.864 245.763 371.162 245.291C370.459 244.819 369.632 244.567 368.786 244.567C367.667 244.558 366.591 244.994 365.792 245.777C364.993 246.561 364.538 247.629 364.524 248.748Z" fill="#ADA693"/>
</g>
<g style="mix-blend-mode:screen">
<path d="M132.173 561.343C132.157 562.19 132.393 563.021 132.851 563.733C133.31 564.444 133.97 565.003 134.747 565.338C135.524 565.673 136.383 565.769 137.215 565.614C138.047 565.458 138.814 565.059 139.418 564.466C140.022 563.874 140.436 563.115 140.608 562.286C140.779 561.457 140.699 560.596 140.379 559.812C140.059 559.029 139.513 558.359 138.81 557.887C138.108 557.415 137.281 557.162 136.434 557.162C135.88 557.157 135.33 557.261 134.816 557.468C134.302 557.675 133.833 557.982 133.438 558.37C133.042 558.758 132.726 559.221 132.509 559.731C132.292 560.241 132.178 560.789 132.173 561.343Z" fill="#ADA693"/>
</g>
<g style="mix-blend-mode:screen">
<path d="M923.927 217.591C923.911 218.437 924.147 219.269 924.605 219.981C925.064 220.692 925.724 221.251 926.501 221.586C927.278 221.921 928.137 222.017 928.969 221.862C929.801 221.706 930.568 221.307 931.172 220.714C931.776 220.122 932.19 219.363 932.361 218.534C932.533 217.705 932.453 216.844 932.133 216.06C931.813 215.277 931.267 214.606 930.564 214.135C929.862 213.663 929.035 213.41 928.188 213.41C927.07 213.402 925.993 213.838 925.194 214.621C924.396 215.405 923.94 216.473 923.927 217.591Z" fill="#ADA693"/>
</g>
<g style="mix-blend-mode:screen">
<path d="M579.626 139.787C579.61 140.633 579.846 141.465 580.304 142.176C580.763 142.887 581.423 143.446 582.2 143.781C582.977 144.116 583.836 144.212 584.668 144.057C585.5 143.902 586.267 143.502 586.871 142.91C587.476 142.317 587.89 141.558 588.061 140.729C588.232 139.9 588.152 139.039 587.832 138.256C587.512 137.472 586.966 136.802 586.264 136.33C585.561 135.858 584.734 135.606 583.888 135.606C582.769 135.597 581.692 136.033 580.894 136.816C580.095 137.6 579.639 138.668 579.626 139.787Z" fill="#ADA693"/>
</g>
<g style="mix-blend-mode:screen">
<path d="M1353.74 37.1285C1353.72 37.9747 1353.96 38.8065 1354.42 39.5179C1354.87 40.2293 1355.53 40.7881 1356.31 41.1231C1357.09 41.4581 1357.95 41.5541 1358.78 41.3989C1359.61 41.2437 1360.38 40.8443 1360.98 40.2516C1361.59 39.6589 1362 38.8998 1362.17 38.0709C1362.34 37.2421 1362.26 36.3811 1361.94 35.5976C1361.62 34.8141 1361.08 34.1437 1360.37 33.6717C1359.67 33.1997 1358.85 32.9476 1358 32.9475C1357.44 32.9421 1356.89 33.0461 1356.38 33.2533C1355.87 33.4605 1355.4 33.767 1355 34.1553C1354.61 34.5435 1354.29 35.0059 1354.07 35.5161C1353.86 36.0262 1353.74 36.5741 1353.74 37.1285Z" fill="#ADA693"/>
</g>
<g style="mix-blend-mode:screen">
<path d="M453.315 426.887C453.305 427.393 453.446 427.89 453.719 428.315C453.993 428.74 454.386 429.074 454.851 429.274C455.315 429.475 455.828 429.532 456.325 429.44C456.822 429.347 457.28 429.109 457.641 428.755C458.002 428.401 458.249 427.948 458.352 427.453C458.454 426.958 458.407 426.444 458.216 425.976C458.025 425.508 457.699 425.107 457.279 424.825C456.859 424.543 456.365 424.393 455.86 424.393C455.529 424.389 455.2 424.45 454.893 424.573C454.586 424.697 454.306 424.88 454.069 425.111C453.833 425.343 453.644 425.619 453.515 425.924C453.386 426.229 453.318 426.556 453.315 426.887Z" fill="#ADA693"/>
</g>
<g style="mix-blend-mode:screen">
<path d="M391.245 523.229C391.235 523.735 391.376 524.232 391.649 524.657C391.923 525.083 392.318 525.417 392.783 525.617C393.247 525.817 393.761 525.874 394.258 525.781C394.755 525.688 395.214 525.448 395.574 525.093C395.935 524.739 396.181 524.284 396.283 523.789C396.384 523.293 396.335 522.778 396.142 522.311C395.95 521.843 395.622 521.443 395.201 521.162C394.78 520.881 394.285 520.733 393.78 520.734C393.449 520.732 393.122 520.794 392.816 520.918C392.51 521.042 392.231 521.225 391.995 521.457C391.76 521.688 391.573 521.964 391.444 522.268C391.315 522.572 391.247 522.899 391.245 523.229Z" fill="#ADA693"/>
</g>
<g style="mix-blend-mode:screen">
<path d="M102.641 447.931C102.631 448.435 102.771 448.93 103.043 449.354C103.314 449.778 103.706 450.112 104.168 450.314C104.629 450.515 105.14 450.575 105.636 450.486C106.132 450.397 106.59 450.162 106.953 449.813C107.315 449.463 107.566 449.013 107.673 448.521C107.78 448.029 107.738 447.516 107.553 447.047C107.368 446.579 107.048 446.176 106.634 445.889C106.22 445.602 105.73 445.445 105.227 445.437C104.892 445.427 104.559 445.485 104.247 445.605C103.935 445.726 103.65 445.908 103.41 446.141C103.169 446.373 102.977 446.651 102.845 446.958C102.713 447.266 102.644 447.596 102.641 447.931Z" fill="#ADA693"/>
</g>
<g style="mix-blend-mode:screen">
<path d="M49.6802 645.711C49.6702 646.217 49.8109 646.714 50.0843 647.139C50.3578 647.564 50.7517 647.898 51.2158 648.098C51.6798 648.299 52.193 648.356 52.69 648.264C53.187 648.172 53.6451 647.933 54.0061 647.579C54.3671 647.226 54.6146 646.772 54.7169 646.277C54.8193 645.782 54.7719 645.268 54.5809 644.8C54.3898 644.332 54.0638 643.932 53.6442 643.65C53.2247 643.368 52.7307 643.217 52.2252 643.217C51.8941 643.213 51.5655 643.274 51.2582 643.398C50.9509 643.521 50.671 643.704 50.4346 643.936C50.1981 644.167 50.0097 644.444 49.8803 644.748C49.7508 645.053 49.6828 645.38 49.6802 645.711Z" fill="#ADA693"/>
</g>
<g style="mix-blend-mode:screen">
<path d="M272.327 418.879C272.317 419.385 272.458 419.882 272.731 420.308C273.005 420.733 273.4 421.067 273.865 421.267C274.329 421.467 274.843 421.524 275.34 421.431C275.837 421.338 276.296 421.099 276.656 420.744C277.017 420.389 277.263 419.935 277.365 419.439C277.466 418.943 277.417 418.429 277.224 417.961C277.032 417.493 276.704 417.093 276.283 416.813C275.862 416.532 275.367 416.383 274.862 416.385C274.531 416.382 274.204 416.445 273.898 416.569C273.592 416.692 273.313 416.875 273.077 417.107C272.842 417.339 272.655 417.614 272.526 417.919C272.397 418.223 272.329 418.549 272.327 418.879Z" fill="#ADA693"/>
</g>
<g style="mix-blend-mode:screen">
<path d="M182.91 580.704C184.316 580.704 185.455 579.587 185.455 578.209C185.455 576.832 184.316 575.715 182.91 575.715C181.505 575.715 180.365 576.832 180.365 578.209C180.365 579.587 181.505 580.704 182.91 580.704Z" fill="#ADA693"/>
</g>
<g style="mix-blend-mode:screen">
<path d="M756.626 389.832C756.615 390.338 756.756 390.836 757.03 391.261C757.304 391.686 757.699 392.02 758.163 392.22C758.628 392.421 759.142 392.478 759.639 392.384C760.136 392.291 760.594 392.052 760.955 391.697C761.316 391.342 761.562 390.888 761.663 390.392C761.765 389.896 761.716 389.382 761.523 388.914C761.331 388.446 761.003 388.046 760.582 387.766C760.161 387.485 759.666 387.336 759.16 387.338C758.83 387.335 758.503 387.398 758.197 387.522C757.89 387.646 757.612 387.829 757.376 388.06C757.141 388.292 756.953 388.568 756.825 388.872C756.696 389.176 756.628 389.502 756.626 389.832Z" fill="#ADA693"/>
</g>
<g style="mix-blend-mode:screen">
<path d="M897.133 258.159C897.123 258.664 897.264 259.162 897.538 259.587C897.812 260.012 898.207 260.346 898.671 260.547C899.136 260.747 899.65 260.804 900.147 260.71C900.644 260.617 901.102 260.378 901.463 260.023C901.823 259.668 902.07 259.214 902.171 258.718C902.273 258.223 902.224 257.708 902.031 257.24C901.839 256.772 901.511 256.373 901.09 256.092C900.669 255.811 900.174 255.662 899.668 255.664C899.002 255.661 898.362 255.922 897.887 256.389C897.412 256.857 897.141 257.492 897.133 258.159Z" fill="#ADA693"/>
</g>
<g style="mix-blend-mode:screen">
<path d="M1024.37 249.687C1024.37 249.861 1024.42 250.032 1024.51 250.178C1024.61 250.324 1024.75 250.438 1024.91 250.506C1025.07 250.574 1025.24 250.593 1025.41 250.56C1025.59 250.527 1025.74 250.444 1025.87 250.322C1025.99 250.199 1026.08 250.043 1026.11 249.872C1026.15 249.701 1026.13 249.524 1026.06 249.363C1026 249.202 1025.88 249.064 1025.74 248.967C1025.59 248.87 1025.42 248.818 1025.25 248.818C1025.02 248.818 1024.8 248.91 1024.63 249.072C1024.47 249.235 1024.37 249.456 1024.37 249.687Z" fill="#ADA693"/>
</g>
<g style="mix-blend-mode:screen">
<path d="M1208.24 280.903C1208.23 281.081 1208.28 281.256 1208.37 281.406C1208.47 281.556 1208.6 281.675 1208.77 281.747C1208.93 281.818 1209.11 281.84 1209.28 281.808C1209.46 281.777 1209.62 281.693 1209.75 281.569C1209.87 281.445 1209.96 281.286 1210 281.112C1210.03 280.938 1210.01 280.758 1209.95 280.594C1209.88 280.43 1209.76 280.29 1209.61 280.192C1209.47 280.094 1209.29 280.043 1209.12 280.045C1209 280.044 1208.89 280.065 1208.78 280.107C1208.68 280.15 1208.58 280.212 1208.5 280.292C1208.42 280.372 1208.35 280.467 1208.31 280.572C1208.26 280.677 1208.24 280.789 1208.24 280.903Z" fill="#ADA693"/>
</g>
<g style="mix-blend-mode:screen">
<path d="M1139.23 268.46C1139.23 268.692 1139.33 268.913 1139.5 269.076C1139.66 269.238 1139.89 269.329 1140.12 269.329C1140.29 269.325 1140.45 269.27 1140.59 269.173C1140.73 269.075 1140.84 268.938 1140.91 268.779C1140.97 268.62 1140.98 268.446 1140.95 268.279C1140.91 268.111 1140.83 267.959 1140.7 267.839C1140.58 267.72 1140.43 267.639 1140.26 267.607C1140.09 267.575 1139.92 267.594 1139.76 267.66C1139.6 267.726 1139.47 267.837 1139.37 267.98C1139.28 268.122 1139.23 268.289 1139.23 268.46Z" fill="#ADA693"/>
</g>
<g style="mix-blend-mode:screen">
<path d="M1270.02 294.042C1270.05 294.26 1270.15 294.462 1270.31 294.609C1270.48 294.755 1270.69 294.836 1270.91 294.836C1271.13 294.836 1271.34 294.755 1271.5 294.609C1271.66 294.462 1271.77 294.26 1271.79 294.042C1271.79 293.81 1271.69 293.589 1271.52 293.427C1271.36 293.265 1271.13 293.174 1270.9 293.174C1270.67 293.174 1270.45 293.265 1270.28 293.428C1270.12 293.59 1270.03 293.811 1270.02 294.042Z" fill="#ADA693"/>
</g>
<g style="mix-blend-mode:screen">
<path d="M1419.13 303.728C1419.13 303.905 1419.17 304.078 1419.27 304.227C1419.36 304.376 1419.5 304.493 1419.66 304.563C1419.83 304.634 1420 304.654 1420.18 304.622C1420.35 304.59 1420.51 304.507 1420.64 304.384C1420.77 304.26 1420.85 304.102 1420.89 303.929C1420.92 303.756 1420.91 303.577 1420.84 303.413C1420.77 303.249 1420.66 303.109 1420.51 303.011C1420.37 302.912 1420.19 302.86 1420.02 302.86C1419.9 302.857 1419.79 302.877 1419.68 302.92C1419.57 302.962 1419.47 303.026 1419.39 303.107C1419.31 303.188 1419.24 303.284 1419.2 303.391C1419.15 303.498 1419.13 303.612 1419.13 303.728Z" fill="#ADA693"/>
</g>
<g style="mix-blend-mode:screen">
<path d="M1197.15 306.152C1197.14 306.329 1197.19 306.503 1197.29 306.652C1197.38 306.801 1197.52 306.918 1197.69 306.988C1197.85 307.058 1198.03 307.078 1198.2 307.045C1198.38 307.012 1198.54 306.928 1198.66 306.804C1198.79 306.679 1198.87 306.52 1198.91 306.347C1198.94 306.173 1198.93 305.993 1198.86 305.83C1198.79 305.666 1198.67 305.527 1198.53 305.43C1198.38 305.332 1198.2 305.281 1198.03 305.283C1197.8 305.283 1197.57 305.374 1197.41 305.537C1197.25 305.7 1197.15 305.92 1197.15 306.152Z" fill="#ADA693"/>
</g>
<g style="mix-blend-mode:screen">
<path d="M907.939 528.329C907.945 528.56 908.041 528.78 908.207 528.941C908.374 529.101 908.597 529.19 908.828 529.187C908.949 529.2 909.072 529.188 909.188 529.15C909.304 529.113 909.411 529.051 909.502 528.97C909.593 528.889 909.665 528.789 909.715 528.677C909.765 528.566 909.79 528.446 909.79 528.324C909.79 528.202 909.765 528.081 909.715 527.97C909.665 527.858 909.593 527.759 909.502 527.677C909.411 527.596 909.304 527.534 909.188 527.497C909.072 527.46 908.949 527.447 908.828 527.46C908.713 527.459 908.598 527.48 908.491 527.523C908.384 527.566 908.286 527.63 908.204 527.71C908.121 527.791 908.056 527.887 908.01 527.993C907.965 528.099 907.941 528.213 907.939 528.329Z" fill="#ADA693"/>
</g>
<g style="mix-blend-mode:screen">
<path d="M1330.58 660.235C1330.57 660.413 1330.62 660.588 1330.71 660.738C1330.81 660.889 1330.95 661.007 1331.11 661.079C1331.27 661.15 1331.45 661.172 1331.63 661.14C1331.8 661.109 1331.96 661.025 1332.09 660.901C1332.21 660.777 1332.3 660.618 1332.34 660.444C1332.37 660.27 1332.36 660.09 1332.29 659.926C1332.22 659.762 1332.1 659.622 1331.96 659.524C1331.81 659.426 1331.63 659.375 1331.46 659.377C1331.34 659.376 1331.23 659.397 1331.12 659.439C1331.02 659.482 1330.92 659.544 1330.84 659.624C1330.76 659.704 1330.69 659.799 1330.65 659.904C1330.6 660.009 1330.58 660.121 1330.58 660.235Z" fill="#ADA693"/>
</g>
<g style="mix-blend-mode:screen">
<path d="M1385.32 622.382C1385.31 622.559 1385.36 622.733 1385.46 622.882C1385.55 623.031 1385.69 623.148 1385.85 623.219C1386.02 623.289 1386.2 623.309 1386.37 623.276C1386.54 623.243 1386.7 623.159 1386.83 623.034C1386.96 622.91 1387.04 622.751 1387.08 622.577C1387.11 622.403 1387.09 622.224 1387.03 622.06C1386.96 621.897 1386.84 621.757 1386.69 621.66C1386.55 621.563 1386.37 621.512 1386.2 621.514C1386.08 621.512 1385.97 621.534 1385.86 621.577C1385.75 621.62 1385.66 621.684 1385.57 621.764C1385.49 621.845 1385.43 621.941 1385.38 622.048C1385.34 622.154 1385.32 622.267 1385.32 622.382Z" fill="#ADA693"/>
</g>
<g style="mix-blend-mode:screen">
<path d="M1388.13 694.3C1388.16 694.518 1388.26 694.72 1388.42 694.866C1388.59 695.013 1388.8 695.094 1389.02 695.094C1389.24 695.094 1389.45 695.013 1389.61 694.866C1389.78 694.72 1389.88 694.518 1389.9 694.3C1389.88 694.082 1389.78 693.88 1389.61 693.734C1389.45 693.587 1389.24 693.506 1389.02 693.506C1388.8 693.506 1388.59 693.587 1388.42 693.734C1388.26 693.88 1388.16 694.082 1388.13 694.3Z" fill="#ADA693"/>
</g>
<g style="mix-blend-mode:screen">
<path d="M1275.66 881.536C1275.68 881.755 1275.78 881.956 1275.95 882.103C1276.11 882.249 1276.32 882.331 1276.54 882.331C1276.76 882.331 1276.97 882.249 1277.14 882.103C1277.3 881.956 1277.4 881.755 1277.43 881.536C1277.42 881.304 1277.32 881.083 1277.16 880.921C1276.99 880.759 1276.77 880.668 1276.54 880.668C1276.31 880.668 1276.08 880.759 1275.92 880.922C1275.75 881.084 1275.66 881.305 1275.66 881.536Z" fill="#ADA693"/>
</g>
<g style="mix-blend-mode:screen">
<path d="M923.258 811.693C923.256 811.867 923.306 812.038 923.401 812.184C923.496 812.329 923.633 812.444 923.793 812.512C923.954 812.58 924.131 812.599 924.302 812.566C924.473 812.533 924.63 812.45 924.754 812.328C924.878 812.205 924.963 812.049 924.997 811.878C925.032 811.707 925.015 811.53 924.949 811.369C924.883 811.208 924.77 811.07 924.626 810.973C924.481 810.876 924.311 810.824 924.136 810.824C923.905 810.824 923.683 810.915 923.519 811.078C923.354 811.241 923.261 811.462 923.258 811.693Z" fill="#ADA693"/>
</g>
<g style="mix-blend-mode:screen">
<path d="M846.164 678.222C846.16 678.399 846.209 678.573 846.305 678.722C846.401 678.871 846.538 678.988 846.701 679.058C846.864 679.128 847.043 679.148 847.217 679.116C847.391 679.083 847.552 678.999 847.678 678.874C847.804 678.75 847.889 678.591 847.924 678.417C847.959 678.243 847.941 678.063 847.873 677.9C847.805 677.737 847.689 677.597 847.541 677.5C847.394 677.403 847.22 677.352 847.043 677.354C846.812 677.354 846.59 677.445 846.425 677.607C846.261 677.77 846.167 677.991 846.164 678.222Z" fill="#ADA693"/>
</g>
<g style="mix-blend-mode:screen">
<path d="M854.586 774.345C854.584 774.519 854.634 774.69 854.729 774.836C854.824 774.982 854.961 775.096 855.121 775.164C855.282 775.232 855.459 775.251 855.63 775.218C855.801 775.185 855.958 775.103 856.082 774.98C856.206 774.858 856.291 774.701 856.326 774.53C856.36 774.36 856.343 774.183 856.277 774.021C856.211 773.86 856.098 773.722 855.954 773.625C855.809 773.528 855.639 773.477 855.465 773.477C855.35 773.475 855.236 773.497 855.129 773.54C855.023 773.583 854.926 773.647 854.844 773.727C854.762 773.808 854.697 773.904 854.653 774.01C854.609 774.116 854.586 774.23 854.586 774.345Z" fill="#ADA693"/>
</g>
<g style="mix-blend-mode:screen">
<path d="M919.219 694.128C919.215 694.305 919.264 694.48 919.36 694.629C919.455 694.778 919.593 694.895 919.756 694.965C919.918 695.035 920.098 695.055 920.272 695.022C920.446 694.989 920.606 694.905 920.732 694.781C920.858 694.656 920.944 694.497 920.979 694.323C921.014 694.15 920.996 693.97 920.928 693.806C920.859 693.643 920.744 693.504 920.596 693.406C920.448 693.309 920.275 693.258 920.098 693.26C919.866 693.26 919.644 693.351 919.48 693.514C919.315 693.676 919.222 693.897 919.219 694.128Z" fill="#ADA693"/>
</g>
<g style="mix-blend-mode:screen">
<path d="M1299.42 572.585C1299.91 572.585 1300.3 572.196 1300.3 571.716C1300.3 571.236 1299.91 570.848 1299.42 570.848C1298.94 570.848 1298.54 571.236 1298.54 571.716C1298.54 572.196 1298.94 572.585 1299.42 572.585Z" fill="#ADA693"/>
</g>
<g style="mix-blend-mode:screen">
<path d="M1362.78 734.413C1362.78 734.59 1362.83 734.764 1362.92 734.913C1363.02 735.061 1363.16 735.178 1363.32 735.249C1363.48 735.319 1363.66 735.34 1363.83 735.308C1364.01 735.276 1364.17 735.193 1364.29 735.069C1364.42 734.946 1364.51 734.788 1364.54 734.615C1364.58 734.442 1364.56 734.262 1364.5 734.098C1364.43 733.935 1364.31 733.795 1364.17 733.696C1364.02 733.598 1363.85 733.545 1363.67 733.545C1363.56 733.544 1363.44 733.565 1363.34 733.608C1363.23 733.651 1363.13 733.714 1363.05 733.795C1362.97 733.876 1362.9 733.972 1362.85 734.078C1362.81 734.184 1362.78 734.298 1362.78 734.413Z" fill="#ADA693"/>
</g>
<g style="mix-blend-mode:screen">
<path d="M1334.62 832.618C1334.62 832.85 1334.72 833.071 1334.89 833.234C1335.05 833.396 1335.28 833.487 1335.51 833.487C1335.68 833.483 1335.84 833.429 1335.98 833.331C1336.12 833.233 1336.23 833.096 1336.3 832.937C1336.36 832.778 1336.37 832.604 1336.34 832.437C1336.3 832.27 1336.22 832.117 1336.09 831.997C1335.97 831.878 1335.82 831.797 1335.65 831.765C1335.48 831.733 1335.31 831.752 1335.15 831.818C1334.99 831.884 1334.86 831.996 1334.76 832.138C1334.67 832.28 1334.62 832.447 1334.62 832.618Z" fill="#ADA693"/>
</g>
<g style="mix-blend-mode:screen">
<path d="M1355.56 898.828C1355.56 899.004 1355.61 899.178 1355.7 899.327C1355.8 899.476 1355.94 899.593 1356.1 899.663C1356.26 899.733 1356.44 899.754 1356.61 899.722C1356.79 899.69 1356.95 899.607 1357.07 899.484C1357.2 899.36 1357.29 899.202 1357.32 899.029C1357.36 898.856 1357.34 898.676 1357.28 898.513C1357.21 898.349 1357.1 898.209 1356.95 898.11C1356.8 898.012 1356.63 897.959 1356.45 897.959C1356.34 897.957 1356.22 897.977 1356.11 898.019C1356.01 898.062 1355.91 898.125 1355.83 898.206C1355.74 898.287 1355.68 898.384 1355.63 898.491C1355.59 898.597 1355.56 898.712 1355.56 898.828Z" fill="#ADA693"/>
</g>
<g style="mix-blend-mode:screen">
<path d="M950.891 478.531C950.887 478.707 950.936 478.881 951.031 479.03C951.126 479.179 951.263 479.296 951.425 479.366C951.587 479.437 951.767 479.457 951.94 479.425C952.114 479.393 952.274 479.31 952.401 479.187C952.527 479.063 952.613 478.905 952.649 478.732C952.685 478.559 952.669 478.379 952.602 478.216C952.536 478.052 952.422 477.912 952.275 477.814C952.129 477.715 951.956 477.662 951.78 477.662C951.664 477.66 951.549 477.68 951.441 477.723C951.333 477.765 951.235 477.829 951.152 477.909C951.07 477.99 951.004 478.087 950.959 478.194C950.914 478.3 950.891 478.415 950.891 478.531Z" fill="#ADA693"/>
</g>
<g style="mix-blend-mode:screen">
<path d="M1069 525.38C1069 525.557 1069.04 525.731 1069.14 525.88C1069.24 526.028 1069.37 526.145 1069.53 526.216C1069.7 526.286 1069.88 526.307 1070.05 526.275C1070.22 526.243 1070.38 526.16 1070.51 526.036C1070.64 525.913 1070.72 525.755 1070.76 525.582C1070.79 525.409 1070.78 525.229 1070.71 525.065C1070.65 524.902 1070.53 524.762 1070.38 524.663C1070.24 524.565 1070.07 524.512 1069.89 524.512C1069.77 524.509 1069.66 524.53 1069.55 524.572C1069.44 524.615 1069.34 524.678 1069.26 524.759C1069.18 524.84 1069.11 524.937 1069.07 525.043C1069.02 525.15 1069 525.265 1069 525.38Z" fill="#ADA693"/>
</g>
<g style="mix-blend-mode:screen">
<path d="M948.074 621.738C948.07 621.914 948.119 622.088 948.214 622.237C948.309 622.386 948.447 622.503 948.609 622.573C948.771 622.643 948.95 622.664 949.124 622.632C949.298 622.6 949.458 622.517 949.584 622.394C949.71 622.27 949.797 622.112 949.833 621.939C949.869 621.766 949.853 621.586 949.786 621.423C949.719 621.259 949.606 621.119 949.459 621.02C949.312 620.922 949.14 620.869 948.963 620.869C948.848 620.868 948.733 620.889 948.626 620.932C948.519 620.975 948.421 621.039 948.339 621.119C948.256 621.2 948.191 621.296 948.145 621.402C948.1 621.508 948.076 621.622 948.074 621.738Z" fill="#ADA693"/>
</g>
<g style="mix-blend-mode:screen">
<path d="M1274.24 207.946C1274.27 208.165 1274.37 208.366 1274.53 208.513C1274.7 208.66 1274.91 208.741 1275.13 208.741C1275.35 208.741 1275.56 208.66 1275.72 208.513C1275.88 208.366 1275.99 208.165 1276.01 207.946C1275.99 207.728 1275.88 207.527 1275.72 207.38C1275.56 207.233 1275.35 207.152 1275.13 207.152C1274.91 207.152 1274.7 207.233 1274.53 207.38C1274.37 207.527 1274.27 207.728 1274.24 207.946Z" fill="#ADA693"/>
</g>
<g style="mix-blend-mode:screen">
<path d="M1435.13 319.765C1435.16 319.983 1435.26 320.185 1435.42 320.331C1435.59 320.478 1435.8 320.559 1436.02 320.559C1436.24 320.559 1436.45 320.478 1436.61 320.331C1436.78 320.185 1436.88 319.983 1436.9 319.765C1436.88 319.547 1436.78 319.345 1436.61 319.198C1436.45 319.052 1436.24 318.971 1436.02 318.971C1435.8 318.971 1435.59 319.052 1435.42 319.198C1435.26 319.345 1435.16 319.547 1435.13 319.765Z" fill="#ADA693"/>
</g>
<g style="mix-blend-mode:screen">
<path d="M1094.01 197.917C1094 198.092 1094.05 198.262 1094.15 198.408C1094.24 198.554 1094.38 198.668 1094.54 198.736C1094.7 198.804 1094.88 198.823 1095.05 198.79C1095.22 198.758 1095.38 198.675 1095.5 198.552C1095.63 198.43 1095.71 198.273 1095.75 198.103C1095.78 197.932 1095.76 197.755 1095.7 197.594C1095.63 197.432 1095.52 197.295 1095.37 197.198C1095.23 197.101 1095.06 197.049 1094.88 197.049C1094.65 197.049 1094.43 197.14 1094.27 197.303C1094.1 197.465 1094.01 197.686 1094.01 197.917Z" fill="#ADA693"/>
</g>
<g style="mix-blend-mode:screen">
<path d="M942.45 269.501C942.442 270.006 942.584 270.502 942.859 270.926C943.133 271.349 943.528 271.682 943.992 271.881C944.457 272.079 944.969 272.136 945.466 272.042C945.962 271.949 946.419 271.709 946.779 271.355C947.139 271.001 947.386 270.547 947.487 270.053C947.589 269.558 947.541 269.044 947.349 268.577C947.158 268.109 946.832 267.71 946.413 267.428C945.993 267.147 945.5 266.996 944.995 266.996C944.663 266.994 944.334 267.056 944.027 267.181C943.719 267.305 943.44 267.489 943.203 267.721C942.967 267.954 942.779 268.231 942.649 268.536C942.52 268.841 942.452 269.169 942.45 269.501Z" fill="#ADA693"/>
</g>
<g style="mix-blend-mode:screen">
<path d="M508.184 348.334C508.174 348.84 508.315 349.337 508.588 349.762C508.862 350.187 509.256 350.521 509.72 350.721C510.184 350.922 510.697 350.979 511.194 350.887C511.691 350.795 512.149 350.556 512.51 350.202C512.871 349.849 513.118 349.395 513.221 348.9C513.323 348.405 513.276 347.891 513.085 347.423C512.894 346.955 512.568 346.555 512.148 346.273C511.729 345.991 511.235 345.84 510.729 345.84C510.061 345.835 509.418 346.094 508.941 346.562C508.464 347.029 508.192 347.667 508.184 348.334Z" fill="#ADA693"/>
</g>
<g style="mix-blend-mode:screen">
<path d="M705.624 691.088C705.614 691.595 705.755 692.092 706.029 692.518C706.303 692.943 706.699 693.277 707.164 693.477C707.629 693.677 708.143 693.733 708.641 693.639C709.138 693.545 709.597 693.305 709.957 692.949C710.317 692.593 710.563 692.138 710.663 691.642C710.763 691.145 710.713 690.63 710.518 690.163C710.324 689.695 709.995 689.296 709.573 689.017C709.151 688.737 708.655 688.59 708.148 688.594C707.483 688.591 706.844 688.852 706.371 689.32C705.898 689.787 705.629 690.423 705.624 691.088Z" fill="#ADA693"/>
</g>
<g style="mix-blend-mode:screen">
<path d="M1127.37 228.418C1127.36 228.924 1127.5 229.422 1127.78 229.847C1128.05 230.272 1128.45 230.606 1128.91 230.806C1129.38 231.006 1129.89 231.064 1130.39 230.97C1130.88 230.877 1131.34 230.638 1131.7 230.283C1132.06 229.928 1132.31 229.474 1132.41 228.978C1132.51 228.482 1132.46 227.968 1132.27 227.5C1132.08 227.032 1131.75 226.632 1131.33 226.352C1130.91 226.071 1130.41 225.922 1129.91 225.924C1129.58 225.921 1129.25 225.984 1128.94 226.108C1128.64 226.232 1128.36 226.414 1128.12 226.646C1127.89 226.878 1127.7 227.154 1127.57 227.458C1127.44 227.762 1127.38 228.088 1127.37 228.418Z" fill="#ADA693"/>
</g>
<g style="mix-blend-mode:screen">
<path d="M640.485 52.0747C640.475 52.5805 640.616 53.0778 640.89 53.5031C641.164 53.9285 641.558 54.2625 642.023 54.4626C642.487 54.6627 643.001 54.7198 643.498 54.6265C643.996 54.5333 644.454 54.294 644.814 53.9391C645.175 53.5843 645.422 53.13 645.523 52.6343C645.624 52.1386 645.575 51.624 645.383 51.1562C645.19 50.6884 644.862 50.2886 644.442 50.0079C644.021 49.7272 643.526 49.5783 643.02 49.5802C642.69 49.5775 642.362 49.6399 642.056 49.7638C641.75 49.8877 641.471 50.0708 641.236 50.3024C641 50.534 640.813 50.8098 640.684 51.1138C640.555 51.4179 640.488 51.7444 640.485 52.0747Z" fill="#ADA693"/>
</g>
<g style="mix-blend-mode:screen">
<path d="M338.436 168.276C338.426 168.782 338.567 169.279 338.841 169.704C339.115 170.13 339.509 170.464 339.974 170.664C340.439 170.864 340.952 170.921 341.45 170.828C341.947 170.734 342.405 170.495 342.766 170.14C343.126 169.785 343.373 169.331 343.474 168.835C343.575 168.34 343.526 167.825 343.334 167.357C343.141 166.89 342.814 166.49 342.393 166.209C341.972 165.928 341.477 165.779 340.971 165.781C340.641 165.779 340.313 165.841 340.007 165.965C339.701 166.089 339.422 166.272 339.187 166.504C338.951 166.735 338.764 167.011 338.635 167.315C338.506 167.619 338.439 167.946 338.436 168.276Z" fill="#ADA693"/>
</g>
<g style="mix-blend-mode:screen">
<path d="M841.153 57.2564C841.143 57.7618 841.283 58.2587 841.557 58.6838C841.83 59.1089 842.224 59.443 842.688 59.6434C843.152 59.8437 843.666 59.9014 844.163 59.809C844.66 59.7166 845.118 59.4782 845.479 59.1244C845.84 58.7706 846.087 58.3173 846.19 57.8223C846.292 57.3273 846.245 56.813 846.054 56.345C845.862 55.877 845.536 55.4765 845.117 55.1946C844.697 54.9126 844.203 54.762 843.698 54.7619C843.367 54.7579 843.038 54.8193 842.731 54.9426C842.424 55.066 842.144 55.2488 841.907 55.4805C841.671 55.7123 841.482 55.9885 841.353 56.2932C841.223 56.598 841.155 56.9253 841.153 57.2564Z" fill="#ADA693"/>
</g>
<g style="mix-blend-mode:screen">
<path d="M1221.37 342.528C1222.77 342.528 1223.91 341.411 1223.91 340.034C1223.91 338.656 1222.77 337.539 1221.37 337.539C1219.96 337.539 1218.82 338.656 1218.82 340.034C1218.82 341.411 1219.96 342.528 1221.37 342.528Z" fill="#ADA693"/>
</g>
<g style="mix-blend-mode:screen">
<path d="M1275.22 261.614C1275.2 262.123 1275.34 262.625 1275.61 263.058C1275.87 263.49 1276.27 263.832 1276.73 264.039C1277.2 264.246 1277.71 264.31 1278.21 264.221C1278.71 264.132 1279.18 263.895 1279.54 263.54C1279.91 263.185 1280.16 262.729 1280.26 262.231C1280.36 261.733 1280.31 261.215 1280.12 260.745C1279.93 260.274 1279.6 259.873 1279.17 259.592C1278.75 259.311 1278.25 259.164 1277.74 259.17C1277.08 259.17 1276.46 259.425 1275.99 259.881C1275.52 260.338 1275.24 260.959 1275.22 261.614Z" fill="#ADA693"/>
</g>
<g style="mix-blend-mode:screen">
<path d="M1417.03 803.391C1417.02 803.897 1417.16 804.393 1417.43 804.819C1417.71 805.244 1418.1 805.578 1418.56 805.778C1419.03 805.978 1419.54 806.036 1420.04 805.944C1420.53 805.851 1420.99 805.613 1421.35 805.259C1421.71 804.905 1421.96 804.452 1422.06 803.957C1422.17 803.462 1422.12 802.948 1421.93 802.48C1421.74 802.012 1421.41 801.611 1420.99 801.329C1420.57 801.047 1420.08 800.897 1419.57 800.897C1419.24 800.893 1418.91 800.954 1418.61 801.077C1418.3 801.201 1418.02 801.384 1417.78 801.615C1417.55 801.847 1417.36 802.123 1417.23 802.428C1417.1 802.733 1417.03 803.06 1417.03 803.391Z" fill="#ADA693"/>
</g>
<g style="mix-blend-mode:screen">
<path d="M1409.72 731.475C1409.71 731.981 1409.85 732.478 1410.12 732.904C1410.39 733.329 1410.79 733.663 1411.25 733.863C1411.72 734.063 1412.23 734.12 1412.73 734.027C1413.23 733.934 1413.68 733.694 1414.04 733.34C1414.41 732.985 1414.65 732.53 1414.75 732.035C1414.85 731.539 1414.81 731.024 1414.61 730.557C1414.42 730.089 1414.09 729.689 1413.67 729.408C1413.25 729.128 1412.76 728.979 1412.25 728.981C1411.92 728.978 1411.59 729.04 1411.29 729.164C1410.98 729.288 1410.7 729.471 1410.47 729.703C1410.23 729.934 1410.04 730.21 1409.91 730.514C1409.79 730.818 1409.72 731.145 1409.72 731.475Z" fill="#ADA693"/>
</g>
<path d="M76.7356 97.7133C77.1373 97.7133 77.5227 97.5537 77.8068 97.2696C78.0908 96.9856 78.2505 96.6002 78.2505 96.1985C78.2505 95.7967 78.0908 95.4114 77.8068 95.1273C77.5227 94.8432 77.1373 94.6836 76.7356 94.6836C76.3338 94.6836 75.9485 94.8432 75.6644 95.1273C75.3803 95.4114 75.2207 95.7967 75.2207 96.1985C75.2207 96.6002 75.3803 96.9856 75.6644 97.2696C75.9485 97.5537 76.3338 97.7133 76.7356 97.7133Z" fill="white"/>
<path d="M62.0442 186.688C62.4459 186.688 62.8313 186.528 63.1154 186.244C63.3994 185.96 63.559 185.575 63.559 185.173C63.559 184.771 63.3994 184.386 63.1154 184.102C62.8313 183.818 62.4459 183.658 62.0442 183.658C61.6424 183.658 61.2571 183.818 60.973 184.102C60.6889 184.386 60.5293 184.771 60.5293 185.173C60.5293 185.575 60.6889 185.96 60.973 186.244C61.2571 186.528 61.6424 186.688 62.0442 186.688Z" fill="white"/>
<path d="M188.627 130.224V132.839C188.627 133.051 188.711 133.254 188.861 133.403C189.01 133.553 189.213 133.637 189.425 133.637C189.636 133.637 189.839 133.553 189.989 133.403C190.139 133.254 190.223 133.051 190.223 132.839V130.224C190.223 130.012 190.139 129.809 189.989 129.659C189.839 129.51 189.636 129.426 189.425 129.426C189.213 129.426 189.01 129.51 188.861 129.659C188.711 129.809 188.627 130.012 188.627 130.224Z" fill="white"/>
<path d="M143.676 234.931V232.315C143.676 232.104 143.592 231.901 143.442 231.751C143.292 231.602 143.09 231.518 142.878 231.518C142.666 231.518 142.463 231.602 142.314 231.751C142.164 231.901 142.08 232.104 142.08 232.315V234.931C142.08 235.143 142.164 235.346 142.314 235.495C142.463 235.645 142.666 235.729 142.878 235.729C143.09 235.729 143.292 235.645 143.442 235.495C143.592 235.346 143.676 235.143 143.676 234.931Z" fill="white"/>
<path d="M129.828 156.39V159.005C129.828 159.11 129.849 159.214 129.889 159.311C129.929 159.407 129.988 159.495 130.062 159.569C130.136 159.644 130.224 159.702 130.321 159.742C130.417 159.783 130.521 159.803 130.626 159.803C130.731 159.803 130.834 159.783 130.931 159.742C131.028 159.702 131.116 159.644 131.19 159.569C131.264 159.495 131.323 159.407 131.363 159.311C131.403 159.214 131.424 159.11 131.424 159.005V156.39C131.424 156.285 131.403 156.181 131.363 156.084C131.323 155.988 131.264 155.9 131.19 155.825C131.116 155.751 131.028 155.693 130.931 155.653C130.834 155.612 130.731 155.592 130.626 155.592C130.521 155.592 130.417 155.612 130.321 155.653C130.224 155.693 130.136 155.751 130.062 155.825C129.988 155.9 129.929 155.988 129.889 156.084C129.849 156.181 129.828 156.285 129.828 156.39Z" fill="white"/>
<path d="M375.593 84.6352C375.995 84.6352 376.38 84.4756 376.664 84.1915C376.948 83.9074 377.108 83.5221 377.108 83.1203C377.108 82.7186 376.948 82.3333 376.664 82.0492C376.38 81.7651 375.995 81.6055 375.593 81.6055C375.191 81.6055 374.806 81.7651 374.522 82.0492C374.238 82.3333 374.078 82.7186 374.078 83.1203C374.078 83.5221 374.238 83.9074 374.522 84.1915C374.806 84.4756 375.191 84.6352 375.593 84.6352Z" fill="white"/>
<path d="M387.843 249.495C388.245 249.495 388.63 249.335 388.914 249.051C389.198 248.767 389.358 248.381 389.358 247.98C389.358 247.578 389.198 247.193 388.914 246.909C388.63 246.624 388.245 246.465 387.843 246.465C387.441 246.465 387.056 246.624 386.772 246.909C386.488 247.193 386.328 247.578 386.328 247.98C386.328 248.381 386.488 248.767 386.772 249.051C387.056 249.335 387.441 249.495 387.843 249.495Z" fill="white"/>
<path d="M359.24 282.004V279.368C359.24 279.157 359.156 278.954 359.007 278.804C358.857 278.654 358.654 278.57 358.442 278.57C358.231 278.57 358.028 278.654 357.878 278.804C357.729 278.954 357.645 279.157 357.645 279.368V281.984C357.645 282.195 357.729 282.398 357.878 282.548C358.028 282.698 358.231 282.782 358.442 282.782C358.654 282.782 358.857 282.698 359.007 282.548C359.156 282.398 359.24 282.195 359.24 281.984V282.004Z" fill="white"/>
<path d="M284.991 343.709C285.393 343.709 285.779 343.55 286.063 343.266C286.347 342.982 286.506 342.596 286.506 342.195C286.506 341.793 286.347 341.408 286.063 341.123C285.779 340.839 285.393 340.68 284.991 340.68C284.59 340.68 284.204 340.839 283.92 341.123C283.636 341.408 283.477 341.793 283.477 342.195C283.477 342.596 283.636 342.982 283.92 343.266C284.204 343.55 284.59 343.709 284.991 343.709Z" fill="white"/>
<path d="M309.453 217.429H311.897C312.107 217.407 312.302 217.307 312.443 217.149C312.584 216.992 312.662 216.788 312.662 216.576C312.662 216.364 312.584 216.16 312.443 216.003C312.302 215.845 312.107 215.746 311.897 215.723H309.453C309.243 215.746 309.048 215.845 308.907 216.003C308.766 216.16 308.688 216.364 308.688 216.576C308.688 216.788 308.766 216.992 308.907 217.149C309.048 217.307 309.243 217.407 309.453 217.429Z" fill="white"/>
<path d="M547.632 249.998L545.178 247.383C544.451 246.605 543.32 247.807 544.047 248.584L546.501 251.2C547.228 251.978 548.359 250.776 547.632 249.998Z" fill="white"/>
<path d="M528.262 423.32V420.694C528.262 420.59 528.241 420.486 528.201 420.389C528.161 420.292 528.102 420.204 528.028 420.13C527.954 420.056 527.866 419.997 527.769 419.957C527.672 419.917 527.569 419.896 527.464 419.896C527.359 419.896 527.255 419.917 527.159 419.957C527.062 419.997 526.974 420.056 526.9 420.13C526.826 420.204 526.767 420.292 526.727 420.389C526.687 420.486 526.666 420.59 526.666 420.694V423.32C526.666 423.425 526.687 423.529 526.727 423.625C526.767 423.722 526.826 423.81 526.9 423.884C526.974 423.958 527.062 424.017 527.159 424.057C527.255 424.097 527.359 424.118 527.464 424.118C527.569 424.118 527.672 424.097 527.769 424.057C527.866 424.017 527.954 423.958 528.028 423.884C528.102 423.81 528.161 423.722 528.201 423.625C528.241 423.529 528.262 423.425 528.262 423.32Z" fill="white"/>
<path d="M407.435 495.498C407.837 495.498 408.222 495.339 408.506 495.055C408.79 494.771 408.95 494.385 408.95 493.984C408.95 493.582 408.79 493.197 408.506 492.912C408.222 492.628 407.837 492.469 407.435 492.469C407.033 492.469 406.648 492.628 406.364 492.912C406.08 493.197 405.92 493.582 405.92 493.984C405.92 494.385 406.08 494.771 406.364 495.055C406.648 495.339 407.033 495.498 407.435 495.498Z" fill="white"/>
<path d="M288.203 593.459V590.833C288.203 590.621 288.119 590.418 287.969 590.269C287.82 590.119 287.617 590.035 287.405 590.035C287.194 590.035 286.991 590.119 286.841 590.269C286.691 590.418 286.607 590.621 286.607 590.833V593.459C286.607 593.67 286.691 593.873 286.841 594.023C286.991 594.173 287.194 594.257 287.405 594.257C287.617 594.257 287.82 594.173 287.969 594.023C288.119 593.873 288.203 593.67 288.203 593.459Z" fill="white"/>
<path d="M360.887 424.797C361.258 424.754 361.601 424.576 361.85 424.297C362.099 424.018 362.237 423.657 362.237 423.282C362.237 422.908 362.099 422.547 361.85 422.268C361.601 421.989 361.258 421.811 360.887 421.768C360.515 421.811 360.172 421.989 359.923 422.268C359.675 422.547 359.537 422.908 359.537 423.282C359.537 423.657 359.675 424.018 359.923 424.297C360.172 424.576 360.515 424.754 360.887 424.797Z" fill="white"/>
<path d="M125.162 491.963L127.616 494.589C128.343 495.357 129.464 494.155 128.737 493.377L126.293 490.761C125.566 489.984 124.435 491.186 125.162 491.963Z" fill="white"/>
<path d="M59.2553 551.406C58.9018 554.143 63.295 553.931 62.79 551.336C62.5779 550.255 61.0428 550.709 61.2549 551.78C61.2549 551.588 61.2549 551.78 61.2549 551.709C61.2549 551.638 61.2549 551.76 61.2549 551.618C61.1842 551.74 61.3357 551.618 61.2549 551.618C61.1741 551.618 61.164 551.78 61.2549 551.618L61.1539 551.679C61.3054 551.679 61.2044 551.679 61.1539 551.679H61.0024C61.1034 551.679 61.0832 551.679 61.0024 551.679C60.9217 551.679 60.6894 551.679 60.8712 551.679H60.7197C60.6591 551.679 60.7197 551.679 60.7702 551.679H60.7197C60.7197 551.558 60.7197 551.78 60.7197 551.679C60.7197 551.679 60.7197 551.679 60.7197 551.74C60.7197 551.8 60.7702 551.891 60.7197 551.74C60.7197 551.952 60.7197 551.74 60.7197 551.871C60.7622 551.664 60.7296 551.449 60.6279 551.264C60.5261 551.079 60.3617 550.936 60.1642 550.861C60.0587 550.829 59.9478 550.82 59.8385 550.833C59.7291 550.846 59.6237 550.882 59.5288 550.938C59.4339 550.994 59.3517 551.069 59.2872 551.158C59.2228 551.247 59.1775 551.349 59.1543 551.457L59.2553 551.406Z" fill="white"/>
<path d="M103.682 359.415C104.053 359.372 104.396 359.193 104.645 358.914C104.894 358.635 105.032 358.274 105.032 357.9C105.032 357.526 104.894 357.164 104.645 356.885C104.396 356.606 104.053 356.428 103.682 356.385C103.31 356.428 102.967 356.606 102.718 356.885C102.47 357.164 102.332 357.526 102.332 357.9C102.332 358.274 102.47 358.635 102.718 358.914C102.967 359.193 103.31 359.372 103.682 359.415Z" fill="white"/>
<path d="M219.347 477.673C218.529 476.805 217.711 475.936 216.903 475.057C216.095 474.179 215.045 475.492 215.772 476.269C216.499 477.047 217.408 478.006 218.216 478.885C219.024 479.764 220.074 478.451 219.347 477.673Z" fill="white"/>
<path d="M544.611 102.956C544.983 102.913 545.326 102.734 545.575 102.455C545.824 102.176 545.961 101.815 545.961 101.441C545.961 101.067 545.824 100.705 545.575 100.426C545.326 100.147 544.983 99.9688 544.611 99.9258C544.24 99.9688 543.897 100.147 543.648 100.426C543.399 100.705 543.262 101.067 543.262 101.441C543.262 101.815 543.399 102.176 543.648 102.455C543.897 102.734 544.24 102.913 544.611 102.956Z" fill="white"/>
<path d="M669.548 176.225C669.95 176.225 670.335 176.065 670.619 175.781C670.903 175.497 671.063 175.112 671.063 174.71C671.063 174.308 670.903 173.923 670.619 173.639C670.335 173.355 669.95 173.195 669.548 173.195C669.146 173.195 668.761 173.355 668.477 173.639C668.193 173.923 668.033 174.308 668.033 174.71C668.033 175.112 668.193 175.497 668.477 175.781C668.761 176.065 669.146 176.225 669.548 176.225Z" fill="white"/>
<path d="M640.15 348.94C640.551 348.94 640.937 348.78 641.221 348.496C641.505 348.212 641.665 347.827 641.665 347.425C641.665 347.023 641.505 346.638 641.221 346.354C640.937 346.07 640.551 345.91 640.15 345.91C639.748 345.91 639.363 346.07 639.078 346.354C638.794 346.638 638.635 347.023 638.635 347.425C638.635 347.827 638.794 348.212 639.078 348.496C639.363 348.78 639.748 348.94 640.15 348.94Z" fill="white"/>
<path d="M594.027 582.218V579.188C594.027 578.977 593.943 578.774 593.794 578.624C593.644 578.475 593.441 578.391 593.23 578.391C593.018 578.391 592.815 578.475 592.665 578.624C592.516 578.774 592.432 578.977 592.432 579.188V582.218C592.432 582.43 592.516 582.633 592.665 582.782C592.815 582.932 593.018 583.016 593.23 583.016C593.441 583.016 593.644 582.932 593.794 582.782C593.943 582.633 594.027 582.43 594.027 582.218Z" fill="white"/>
<path d="M473.382 745.27C473.784 745.27 474.169 745.11 474.453 744.826C474.737 744.542 474.897 744.157 474.897 743.755C474.897 743.353 474.737 742.968 474.453 742.684C474.169 742.4 473.784 742.24 473.382 742.24C472.98 742.24 472.595 742.4 472.311 742.684C472.027 742.968 471.867 743.353 471.867 743.755C471.867 744.157 472.027 744.542 472.311 744.826C472.595 745.11 472.98 745.27 473.382 745.27Z" fill="white"/>
<path d="M176.66 768.994H179.518C180.528 768.994 180.528 767.287 179.518 767.287H176.66C175.65 767.287 175.65 768.994 176.66 768.994Z" fill="white"/>
<path d="M140.14 868.157C139.18 867.147 138.231 866.137 137.282 865.127C136.554 864.36 135.423 865.561 136.15 866.339C137.11 867.349 138.059 868.359 139.008 869.369C139.736 870.136 140.867 868.935 140.14 868.157Z" fill="white"/>
<path d="M118.023 670.284C118.023 670.496 118.023 670.173 118.023 670.284C118.023 670.395 118.023 670.345 118.023 670.284V670.365C118.023 670.466 117.881 670.365 118.023 670.365C118.164 670.365 117.922 670.426 118.023 670.365C118.124 670.304 118.083 670.365 118.023 670.365H118.194C118.285 670.365 118.083 670.365 118.194 670.365H118.376C118.514 670.365 118.648 670.407 118.76 670.486C118.679 670.405 118.76 670.486 118.76 670.486C118.76 670.486 118.76 670.385 118.76 670.486C118.76 670.426 118.76 670.385 118.76 670.486C118.76 670.284 118.76 670.577 118.76 670.415C118.548 671.486 120.083 671.94 120.295 670.87C120.85 668.062 116.053 667.84 116.427 670.779C116.45 670.887 116.496 670.988 116.56 671.078C116.624 671.167 116.707 671.242 116.802 671.298C116.896 671.354 117.002 671.39 117.111 671.403C117.221 671.416 117.331 671.407 117.437 671.375C117.635 671.3 117.8 671.158 117.904 670.973C118.007 670.788 118.042 670.573 118.003 670.365L118.023 670.284Z" fill="white"/>
<path d="M51.9238 883.96V880.931C51.9238 880.719 51.8397 880.516 51.6901 880.366C51.5405 880.217 51.3376 880.133 51.126 880.133C50.9144 880.133 50.7114 880.217 50.5618 880.366C50.4122 880.516 50.3281 880.719 50.3281 880.931V883.96C50.3281 884.172 50.4122 884.375 50.5618 884.525C50.7114 884.674 50.9144 884.758 51.126 884.758C51.3376 884.758 51.5405 884.674 51.6901 884.525C51.8397 884.375 51.9238 884.172 51.9238 883.96Z" fill="white"/>
<path d="M378.43 701.087V704.117C378.43 704.328 378.514 704.531 378.663 704.681C378.813 704.83 379.016 704.914 379.228 704.914C379.439 704.914 379.642 704.83 379.792 704.681C379.941 704.531 380.025 704.328 380.025 704.117V701.087C380.025 700.875 379.941 700.672 379.792 700.523C379.642 700.373 379.439 700.289 379.228 700.289C379.016 700.289 378.813 700.373 378.663 700.523C378.514 700.672 378.43 700.875 378.43 701.087Z" fill="white"/>
<path d="M754.605 447.487C755.006 447.487 755.392 447.327 755.676 447.043C755.96 446.759 756.12 446.374 756.12 445.972C756.12 445.57 755.96 445.185 755.676 444.901C755.392 444.617 755.006 444.457 754.605 444.457C754.203 444.457 753.818 444.617 753.534 444.901C753.249 445.185 753.09 445.57 753.09 445.972C753.09 446.374 753.249 446.759 753.534 447.043C753.818 447.327 754.203 447.487 754.605 447.487Z" fill="white"/>
<path d="M1022.95 203.926C1023.35 203.926 1023.74 203.767 1024.02 203.483C1024.3 203.198 1024.46 202.813 1024.46 202.411C1024.46 202.01 1024.3 201.624 1024.02 201.34C1023.74 201.056 1023.35 200.896 1022.95 200.896C1022.55 200.896 1022.16 201.056 1021.88 201.34C1021.59 201.624 1021.43 202.01 1021.43 202.411C1021.43 202.813 1021.59 203.198 1021.88 203.483C1022.16 203.767 1022.55 203.926 1022.95 203.926Z" fill="white"/>
<path d="M1229.26 371.128L1231.28 368.977C1232.01 368.199 1230.88 366.957 1230.15 367.765L1228.13 369.926C1227.41 370.704 1228.54 371.946 1229.26 371.128Z" fill="white"/>
<path d="M1083.47 548.78C1083.87 548.78 1084.26 548.62 1084.54 548.336C1084.83 548.052 1084.99 547.667 1084.99 547.265C1084.99 546.863 1084.83 546.478 1084.54 546.194C1084.26 545.91 1083.87 545.75 1083.47 545.75C1083.07 545.75 1082.68 545.91 1082.4 546.194C1082.12 546.478 1081.96 546.863 1081.96 547.265C1081.96 547.667 1082.12 548.052 1082.4 548.336C1082.68 548.62 1083.07 548.78 1083.47 548.78Z" fill="white"/>
<path d="M1314.68 163.62V165.771C1314.68 165.983 1314.77 166.186 1314.92 166.335C1315.07 166.485 1315.27 166.569 1315.48 166.569C1315.69 166.569 1315.89 166.485 1316.04 166.335C1316.19 166.186 1316.28 165.983 1316.28 165.771V163.62C1316.28 163.408 1316.19 163.206 1316.04 163.056C1315.89 162.906 1315.69 162.822 1315.48 162.822C1315.27 162.822 1315.07 162.906 1314.92 163.056C1314.77 163.206 1314.68 163.408 1314.68 163.62Z" fill="white"/>
<path d="M821.197 141.424C821.598 141.424 821.984 141.265 822.268 140.981C822.552 140.696 822.711 140.311 822.711 139.909C822.711 139.508 822.552 139.122 822.268 138.838C821.984 138.554 821.598 138.395 821.197 138.395C820.795 138.395 820.409 138.554 820.125 138.838C819.841 139.122 819.682 139.508 819.682 139.909C819.682 140.311 819.841 140.696 820.125 140.981C820.409 141.265 820.795 141.424 821.197 141.424Z" fill="white"/>
<path d="M872.874 358.373L870.854 356.211C870.127 355.434 868.996 356.646 869.723 357.413L871.742 359.574C872.47 360.352 873.601 359.14 872.874 358.373Z" fill="white"/>
<path d="M896.68 527.976V523.462C896.68 523.25 896.596 523.047 896.446 522.898C896.296 522.748 896.093 522.664 895.882 522.664C895.67 522.664 895.467 522.748 895.318 522.898C895.168 523.047 895.084 523.25 895.084 523.462V527.976C895.084 528.188 895.168 528.391 895.318 528.54C895.467 528.69 895.67 528.774 895.882 528.774C896.093 528.774 896.296 528.69 896.446 528.54C896.596 528.391 896.68 528.188 896.68 527.976Z" fill="white"/>
<path d="M765.036 745.957C765.438 745.957 765.823 745.798 766.108 745.514C766.392 745.23 766.551 744.844 766.551 744.443C766.551 744.041 766.392 743.656 766.108 743.371C765.823 743.087 765.438 742.928 765.036 742.928C764.635 742.928 764.249 743.087 763.965 743.371C763.681 743.656 763.521 744.041 763.521 744.443C763.521 744.844 763.681 745.23 763.965 745.514C764.249 745.798 764.635 745.957 765.036 745.957Z" fill="white"/>
<path d="M659.257 72.768C659.659 72.768 660.044 72.6084 660.328 72.3243C660.612 72.0402 660.772 71.6549 660.772 71.2532C660.772 70.8514 660.612 70.4661 660.328 70.182C660.044 69.8979 659.659 69.7383 659.257 69.7383C658.855 69.7383 658.47 69.8979 658.186 70.182C657.902 70.4661 657.742 70.8514 657.742 71.2532C657.742 71.6549 657.902 72.0402 658.186 72.3243C658.47 72.6084 658.855 72.768 659.257 72.768Z" fill="white"/>
<path d="M644.523 161.743C644.924 161.743 645.31 161.583 645.594 161.299C645.878 161.015 646.038 160.63 646.038 160.228C646.038 159.826 645.878 159.441 645.594 159.157C645.31 158.872 644.924 158.713 644.523 158.713C644.121 158.713 643.736 158.872 643.452 159.157C643.167 159.441 643.008 159.826 643.008 160.228C643.008 160.63 643.167 161.015 643.452 161.299C643.736 161.583 644.121 161.743 644.523 161.743Z" fill="white"/>
<path d="M771.146 105.278V107.894C771.146 108.106 771.231 108.309 771.38 108.458C771.53 108.608 771.733 108.692 771.944 108.692C772.156 108.692 772.359 108.608 772.508 108.458C772.658 108.309 772.742 108.106 772.742 107.894V105.278C772.742 105.067 772.658 104.864 772.508 104.714C772.359 104.565 772.156 104.48 771.944 104.48C771.733 104.48 771.53 104.565 771.38 104.714C771.231 104.864 771.146 105.067 771.146 105.278Z" fill="white"/>
<path d="M726.205 209.957V207.331C726.205 207.119 726.121 206.917 725.971 206.767C725.822 206.617 725.619 206.533 725.407 206.533C725.196 206.533 724.993 206.617 724.843 206.767C724.693 206.917 724.609 207.119 724.609 207.331V209.957C724.609 210.168 724.693 210.371 724.843 210.521C724.993 210.671 725.196 210.755 725.407 210.755C725.619 210.755 725.822 210.671 725.971 210.521C726.121 210.371 726.205 210.168 726.205 209.957Z" fill="white"/>
<path d="M712.359 131.446V134.062C712.359 134.274 712.443 134.476 712.593 134.626C712.743 134.776 712.946 134.86 713.157 134.86C713.369 134.86 713.572 134.776 713.721 134.626C713.871 134.476 713.955 134.274 713.955 134.062V131.446C713.955 131.235 713.871 131.032 713.721 130.882C713.572 130.732 713.369 130.648 713.157 130.648C712.946 130.648 712.743 130.732 712.593 130.882C712.443 131.032 712.359 131.235 712.359 131.446Z" fill="white"/>
<path d="M958.113 59.6899C958.485 59.6469 958.828 59.4688 959.077 59.1895C959.326 58.9102 959.463 58.5491 959.463 58.175C959.463 57.8009 959.326 57.4399 959.077 57.1605C958.828 56.8812 958.485 56.7031 958.113 56.6602C957.742 56.7031 957.399 56.8812 957.15 57.1605C956.901 57.4399 956.764 57.8009 956.764 58.175C956.764 58.5491 956.901 58.9102 957.15 59.1895C957.399 59.4688 957.742 59.6469 958.113 59.6899Z" fill="white"/>
<path d="M970.363 224.549C970.764 224.549 971.15 224.39 971.434 224.106C971.718 223.821 971.877 223.436 971.877 223.034C971.877 222.633 971.718 222.247 971.434 221.963C971.15 221.679 970.764 221.52 970.363 221.52C969.961 221.52 969.575 221.679 969.291 221.963C969.007 222.247 968.848 222.633 968.848 223.034C968.848 223.436 969.007 223.821 969.291 224.106C969.575 224.39 969.961 224.549 970.363 224.549Z" fill="white"/>
<path d="M941.762 257.058V254.442C941.762 254.231 941.678 254.028 941.528 253.878C941.378 253.729 941.175 253.645 940.964 253.645C940.752 253.645 940.549 253.729 940.4 253.878C940.25 254.028 940.166 254.231 940.166 254.442V257.058C940.166 257.27 940.25 257.473 940.4 257.622C940.549 257.772 940.752 257.856 940.964 257.856C941.175 257.856 941.378 257.772 941.528 257.622C941.678 257.473 941.762 257.27 941.762 257.058Z" fill="white"/>
<path d="M867.483 318.754C867.854 318.711 868.197 318.533 868.446 318.254C868.695 317.975 868.832 317.614 868.832 317.239C868.832 316.865 868.695 316.504 868.446 316.225C868.197 315.946 867.854 315.768 867.483 315.725C867.111 315.768 866.768 315.946 866.519 316.225C866.27 316.504 866.133 316.865 866.133 317.239C866.133 317.614 866.27 317.975 866.519 318.254C866.768 318.533 867.111 318.711 867.483 318.754Z" fill="white"/>
<path d="M891.953 192.515H894.407C894.617 192.492 894.812 192.393 894.953 192.235C895.094 192.078 895.172 191.874 895.172 191.662C895.172 191.45 895.094 191.246 894.953 191.089C894.812 190.931 894.617 190.832 894.407 190.809H891.953C890.943 190.809 890.943 192.515 891.953 192.515Z" fill="white"/>
<path d="M1130.15 225.055L1127.71 222.439C1126.98 221.662 1125.85 222.863 1126.58 223.641L1129.02 226.257C1129.75 227.034 1130.88 225.833 1130.15 225.055Z" fill="white"/>
<path d="M1110.79 398.367V395.751C1110.79 395.539 1110.71 395.336 1110.56 395.187C1110.41 395.037 1110.2 394.953 1109.99 394.953C1109.78 394.953 1109.58 395.037 1109.43 395.187C1109.28 395.336 1109.2 395.539 1109.2 395.751V398.367C1109.2 398.578 1109.28 398.781 1109.43 398.931C1109.58 399.08 1109.78 399.164 1109.99 399.164C1110.2 399.164 1110.41 399.08 1110.56 398.931C1110.71 398.781 1110.79 398.578 1110.79 398.367Z" fill="white"/>
<path d="M989.964 470.553C990.366 470.553 990.751 470.394 991.035 470.109C991.319 469.825 991.479 469.44 991.479 469.038C991.479 468.637 991.319 468.251 991.035 467.967C990.751 467.683 990.366 467.523 989.964 467.523C989.562 467.523 989.177 467.683 988.893 467.967C988.609 468.251 988.449 468.637 988.449 469.038C988.449 469.44 988.609 469.825 988.893 470.109C989.177 470.394 989.562 470.553 989.964 470.553Z" fill="white"/>
<path d="M870.744 568.474V565.858C870.744 565.647 870.66 565.444 870.51 565.294C870.361 565.145 870.158 565.061 869.946 565.061C869.735 565.061 869.532 565.145 869.382 565.294C869.232 565.444 869.148 565.647 869.148 565.858V568.474C869.148 568.686 869.232 568.889 869.382 569.038C869.532 569.188 869.735 569.272 869.946 569.272C870.158 569.272 870.361 569.188 870.51 569.038C870.66 568.889 870.744 568.686 870.744 568.474Z" fill="white"/>
<path d="M943.456 399.881C943.858 399.881 944.243 399.722 944.527 399.438C944.812 399.154 944.971 398.768 944.971 398.366C944.971 397.965 944.812 397.579 944.527 397.295C944.243 397.011 943.858 396.852 943.456 396.852C943.055 396.852 942.669 397.011 942.385 397.295C942.101 397.579 941.941 397.965 941.941 398.366C941.941 398.768 942.101 399.154 942.385 399.438C942.669 399.722 943.055 399.881 943.456 399.881Z" fill="white"/>
<path d="M707.693 467.018L710.137 469.634C710.865 470.411 711.996 469.209 711.269 468.432L708.814 465.816C708.097 465.039 706.966 466.24 707.693 467.018Z" fill="white"/>
<path d="M641.777 526.461C641.434 529.198 645.817 528.986 645.322 526.38C645.11 525.31 643.565 525.764 643.777 526.835C643.777 526.643 643.777 526.835 643.777 526.764C643.777 526.693 643.777 526.815 643.777 526.673C643.716 526.794 643.868 526.673 643.777 526.673C643.686 526.673 643.676 526.835 643.777 526.673C643.747 526.699 643.713 526.72 643.676 526.734C643.827 526.734 643.736 526.734 643.676 526.734H643.524C643.635 526.734 643.615 526.734 643.524 526.734C643.433 526.734 643.211 526.734 643.383 526.734H643.241C643.181 526.734 643.242 526.734 643.292 526.734H643.241C643.241 526.613 643.241 526.835 643.241 526.734V526.794C643.241 526.845 643.241 526.946 643.241 526.794C643.302 527.006 643.241 526.744 643.241 526.926C643.279 526.718 643.243 526.503 643.14 526.319C643.037 526.135 642.873 525.992 642.676 525.916C642.57 525.886 642.46 525.877 642.351 525.891C642.242 525.905 642.137 525.941 642.043 525.997C641.948 526.052 641.866 526.127 641.802 526.215C641.737 526.304 641.691 526.405 641.666 526.512L641.777 526.461Z" fill="white"/>
<path d="M686.212 334.459C686.614 334.459 686.999 334.3 687.283 334.016C687.567 333.732 687.727 333.346 687.727 332.945C687.727 332.543 687.567 332.158 687.283 331.873C686.999 331.589 686.614 331.43 686.212 331.43C685.81 331.43 685.425 331.589 685.141 331.873C684.857 332.158 684.697 332.543 684.697 332.945C684.697 333.346 684.857 333.732 685.141 334.016C685.425 334.3 685.81 334.459 686.212 334.459Z" fill="white"/>
<path d="M801.909 452.727L799.455 450.112C798.728 449.334 797.597 450.546 798.324 451.324L800.778 453.939C801.505 454.717 802.637 453.505 801.909 452.727Z" fill="white"/>
<path d="M1127.14 78.0005C1127.54 78.0005 1127.93 77.8409 1128.21 77.5568C1128.5 77.2727 1128.66 76.8873 1128.66 76.4856C1128.66 76.0838 1128.5 75.6985 1128.21 75.4144C1127.93 75.1303 1127.54 74.9707 1127.14 74.9707C1126.74 74.9707 1126.35 75.1303 1126.07 75.4144C1125.79 75.6985 1125.63 76.0838 1125.63 76.4856C1125.63 76.8873 1125.79 77.2727 1126.07 77.5568C1126.35 77.8409 1126.74 78.0005 1127.14 78.0005Z" fill="white"/>
<path d="M1252.07 151.28C1252.47 151.28 1252.85 151.12 1253.14 150.836C1253.42 150.552 1253.58 150.167 1253.58 149.765C1253.58 149.363 1253.42 148.978 1253.14 148.694C1252.85 148.41 1252.47 148.25 1252.07 148.25C1251.67 148.25 1251.28 148.41 1251 148.694C1250.71 148.978 1250.55 149.363 1250.55 149.765C1250.55 150.167 1250.71 150.552 1251 150.836C1251.28 151.12 1251.67 151.28 1252.07 151.28Z" fill="white"/>
<path d="M1222.67 323.997C1223.07 323.997 1223.46 323.837 1223.74 323.553C1224.02 323.269 1224.18 322.883 1224.18 322.482C1224.18 322.08 1224.02 321.695 1223.74 321.41C1223.46 321.126 1223.07 320.967 1222.67 320.967C1222.27 320.967 1221.88 321.126 1221.6 321.41C1221.31 321.695 1221.15 322.08 1221.15 322.482C1221.15 322.883 1221.31 323.269 1221.6 323.553C1221.88 323.837 1222.27 323.997 1222.67 323.997Z" fill="white"/>
<path d="M1176.54 557.275V554.245C1176.54 554.033 1176.45 553.831 1176.3 553.681C1176.15 553.531 1175.95 553.447 1175.74 553.447C1175.53 553.447 1175.32 553.531 1175.18 553.681C1175.03 553.831 1174.94 554.033 1174.94 554.245V557.275C1174.94 557.486 1175.03 557.689 1175.18 557.839C1175.32 557.989 1175.53 558.073 1175.74 558.073C1175.95 558.073 1176.15 557.989 1176.3 557.839C1176.45 557.689 1176.54 557.486 1176.54 557.275Z" fill="white"/>
<path d="M1055.9 720.327C1056.3 720.327 1056.69 720.167 1056.97 719.883C1057.26 719.599 1057.42 719.214 1057.42 718.812C1057.42 718.41 1057.26 718.025 1056.97 717.741C1056.69 717.456 1056.3 717.297 1055.9 717.297C1055.5 717.297 1055.11 717.456 1054.83 717.741C1054.55 718.025 1054.39 718.41 1054.39 718.812C1054.39 719.214 1054.55 719.599 1054.83 719.883C1055.11 720.167 1055.5 720.327 1055.9 720.327Z" fill="white"/>
<path d="M759.187 744.049H762.035C762.246 744.026 762.44 743.926 762.581 743.768C762.723 743.611 762.801 743.407 762.801 743.195C762.801 742.984 762.723 742.78 762.581 742.622C762.44 742.465 762.246 742.365 762.035 742.342H759.187C758.977 742.365 758.783 742.465 758.641 742.622C758.5 742.78 758.422 742.984 758.422 743.195C758.422 743.407 758.5 743.611 758.641 743.768C758.783 743.926 758.977 744.026 759.187 744.049Z" fill="white"/>
<path d="M722.661 843.171L719.813 840.141C719.086 839.363 717.955 840.575 718.682 841.353L721.53 844.383C722.257 845.16 723.388 843.958 722.661 843.181V843.171Z" fill="white"/>
<path d="M700.545 645.339C700.545 645.551 700.545 645.217 700.545 645.339C700.545 645.46 700.545 645.399 700.545 645.339V645.419C700.605 645.52 700.414 645.419 700.545 645.419C700.676 645.419 700.434 645.48 700.545 645.419C700.656 645.359 700.605 645.419 700.545 645.419L700.717 645.369H700.939C701.073 645.365 701.205 645.408 701.312 645.49C701.232 645.409 701.312 645.49 701.312 645.49C701.312 645.49 701.312 645.389 701.312 645.49C701.312 645.429 701.312 645.389 701.312 645.49C701.312 645.288 701.312 645.581 701.312 645.419C701.11 646.49 702.645 646.944 702.858 645.874C703.403 643.066 698.616 642.844 698.99 645.783C699.013 645.891 699.058 645.992 699.123 646.082C699.187 646.171 699.269 646.246 699.364 646.302C699.459 646.358 699.564 646.394 699.674 646.407C699.783 646.42 699.894 646.411 699.999 646.379C700.197 646.304 700.361 646.161 700.463 645.976C700.565 645.791 700.597 645.576 700.555 645.369L700.545 645.339Z" fill="white"/>
<path d="M634.424 859.068V856.038C634.424 855.826 634.34 855.624 634.19 855.474C634.041 855.324 633.838 855.24 633.626 855.24C633.414 855.24 633.211 855.324 633.062 855.474C632.912 855.624 632.828 855.826 632.828 856.038V859.068C632.828 859.279 632.912 859.482 633.062 859.632C633.211 859.782 633.414 859.866 633.626 859.866C633.838 859.866 634.041 859.782 634.19 859.632C634.34 859.482 634.424 859.279 634.424 859.068Z" fill="white"/>
<path d="M960.959 676.142V679.171C960.959 679.383 961.043 679.586 961.193 679.735C961.342 679.885 961.545 679.969 961.757 679.969C961.968 679.969 962.171 679.885 962.321 679.735C962.471 679.586 962.555 679.383 962.555 679.171V676.142C962.555 675.93 962.471 675.727 962.321 675.577C962.171 675.428 961.968 675.344 961.757 675.344C961.545 675.344 961.342 675.428 961.193 675.577C961.043 675.727 960.959 675.93 960.959 676.142Z" fill="white"/>
<path d="M922.613 874.216V871.186C922.613 870.975 922.529 870.772 922.38 870.622C922.23 870.473 922.027 870.389 921.815 870.389C921.604 870.389 921.401 870.473 921.251 870.622C921.102 870.772 921.018 870.975 921.018 871.186V874.216C921.018 874.428 921.102 874.631 921.251 874.78C921.401 874.93 921.604 875.014 921.815 875.014C922.027 875.014 922.23 874.93 922.38 874.78C922.529 874.631 922.613 874.428 922.613 874.216Z" fill="white"/>
<path d="M1337.14 422.534C1337.55 422.534 1337.93 422.374 1338.21 422.09C1338.5 421.806 1338.66 421.421 1338.66 421.019C1338.66 420.617 1338.5 420.232 1338.21 419.948C1337.93 419.663 1337.55 419.504 1337.14 419.504C1336.74 419.504 1336.36 419.663 1336.07 419.948C1335.79 420.232 1335.63 420.617 1335.63 421.019C1335.63 421.421 1335.79 421.806 1336.07 422.09C1336.36 422.374 1336.74 422.534 1337.14 422.534Z" fill="white"/>
<path d="M1403.72 116.479C1404.12 116.479 1404.5 116.319 1404.79 116.035C1405.07 115.751 1405.23 115.366 1405.23 114.964C1405.23 114.562 1405.07 114.177 1404.79 113.893C1404.5 113.609 1404.12 113.449 1403.72 113.449C1403.31 113.449 1402.93 113.609 1402.64 113.893C1402.36 114.177 1402.2 114.562 1402.2 114.964C1402.2 115.366 1402.36 115.751 1402.64 116.035C1402.93 116.319 1403.31 116.479 1403.72 116.479Z" fill="white"/>
<path d="M1347.57 720.971C1347.97 720.971 1348.35 720.812 1348.64 720.527C1348.92 720.243 1349.08 719.858 1349.08 719.456C1349.08 719.055 1348.92 718.669 1348.64 718.385C1348.35 718.101 1347.97 717.941 1347.57 717.941C1347.16 717.941 1346.78 718.101 1346.49 718.385C1346.21 718.669 1346.05 719.055 1346.05 719.456C1346.05 719.858 1346.21 720.243 1346.49 720.527C1346.78 720.812 1347.16 720.971 1347.57 720.971Z" fill="white"/>
<path fill-rule="evenodd" clip-rule="evenodd" d="M679.749 92.5927C680.998 92.5947 682.22 92.226 683.26 91.5331C684.299 90.8403 685.11 89.8547 685.589 88.7009C686.068 87.5471 686.194 86.2771 685.95 85.0518C685.707 83.8265 685.106 82.7008 684.222 81.8175C683.339 80.9341 682.214 80.3328 680.988 80.0895C679.763 79.8463 678.493 79.9722 677.339 80.4512C676.185 80.9301 675.2 81.7407 674.507 82.7803C673.814 83.8198 673.445 85.0416 673.447 86.2908C673.45 87.9614 674.115 89.5627 675.296 90.744C676.477 91.9252 678.079 92.59 679.749 92.5927Z" fill="white"/>
<path fill-rule="evenodd" clip-rule="evenodd" d="M257.786 336.852C259.033 336.852 260.251 336.482 261.287 335.79C262.324 335.097 263.131 334.113 263.608 332.962C264.085 331.81 264.21 330.543 263.967 329.321C263.724 328.098 263.124 326.975 262.242 326.094C261.361 325.212 260.238 324.612 259.016 324.369C257.793 324.126 256.526 324.251 255.375 324.728C254.223 325.205 253.239 326.012 252.546 327.049C251.854 328.085 251.484 329.304 251.484 330.55C251.495 332.218 252.162 333.815 253.342 334.994C254.521 336.174 256.118 336.841 257.786 336.852Z" fill="white"/>
<path fill-rule="evenodd" clip-rule="evenodd" d="M661.691 569.445C662.941 569.449 664.165 569.082 665.207 568.39C666.249 567.698 667.063 566.713 667.545 565.559C668.027 564.404 668.155 563.133 667.914 561.906C667.674 560.678 667.074 559.55 666.192 558.663C665.309 557.777 664.184 557.172 662.958 556.925C661.732 556.678 660.46 556.801 659.303 557.277C658.147 557.754 657.157 558.562 656.46 559.601C655.764 560.64 655.391 561.862 655.389 563.113C655.391 564.786 656.055 566.391 657.236 567.577C658.416 568.763 660.017 569.434 661.691 569.445Z" fill="white"/>
<path fill-rule="evenodd" clip-rule="evenodd" d="M1067.43 511.737C1068.68 511.739 1069.91 511.37 1070.95 510.678C1071.98 509.985 1072.8 508.999 1073.27 507.845C1073.75 506.692 1073.88 505.422 1073.64 504.196C1073.39 502.971 1072.79 501.845 1071.91 500.962C1071.02 500.079 1069.9 499.477 1068.67 499.234C1067.45 498.991 1066.18 499.117 1065.02 499.596C1063.87 500.075 1062.89 500.885 1062.19 501.925C1061.5 502.964 1061.13 504.186 1061.13 505.435C1061.14 507.106 1061.8 508.707 1062.98 509.888C1064.16 511.07 1065.76 511.735 1067.43 511.737Z" fill="white"/>
<path fill-rule="evenodd" clip-rule="evenodd" d="M883.532 695.632C884.78 695.628 886 695.255 887.036 694.559C888.073 693.862 888.88 692.875 889.356 691.72C889.832 690.566 889.956 689.296 889.711 688.072C889.467 686.848 888.865 685.723 887.982 684.84C887.099 683.957 885.974 683.355 884.75 683.111C883.525 682.866 882.256 682.99 881.101 683.466C879.947 683.942 878.96 684.749 878.263 685.785C877.567 686.822 877.193 688.041 877.189 689.29C877.187 690.124 877.349 690.95 877.667 691.72C877.985 692.491 878.452 693.191 879.041 693.781C879.631 694.37 880.331 694.837 881.101 695.155C881.872 695.473 882.698 695.635 883.532 695.632Z" fill="white"/>
<path fill-rule="evenodd" clip-rule="evenodd" d="M932.187 77.2626C933.436 77.2646 934.658 76.8959 935.697 76.2031C936.737 75.5103 937.547 74.5246 938.026 73.3708C938.505 72.217 938.631 70.9471 938.388 69.7217C938.145 68.4964 937.543 67.3708 936.66 66.4874C935.777 65.6041 934.651 65.0027 933.426 64.7595C932.2 64.5162 930.93 64.6421 929.777 65.1211C928.623 65.6001 927.637 66.4107 926.944 67.4502C926.252 68.4897 925.883 69.7115 925.885 70.9607C925.887 72.6313 926.552 74.2326 927.734 75.4139C928.915 76.5952 930.516 77.26 932.187 77.2626Z" fill="white"/>
<path fill-rule="evenodd" clip-rule="evenodd" d="M542.693 349.496C543.943 349.5 545.166 349.133 546.208 348.441C547.25 347.75 548.064 346.765 548.546 345.612C549.028 344.458 549.157 343.187 548.917 341.96C548.677 340.733 548.079 339.605 547.197 338.718C546.316 337.831 545.191 337.225 543.966 336.977C542.74 336.729 541.469 336.85 540.312 337.325C539.155 337.8 538.165 338.607 537.467 339.644C536.769 340.682 536.395 341.903 536.391 343.153C536.388 343.984 536.549 344.806 536.864 345.574C537.179 346.342 537.643 347.041 538.228 347.63C538.813 348.219 539.509 348.687 540.275 349.007C541.041 349.327 541.862 349.493 542.693 349.496Z" fill="white"/>
<path fill-rule="evenodd" clip-rule="evenodd" d="M353.808 494.599C354.431 494.595 355.038 494.406 355.554 494.057C356.07 493.708 356.47 493.214 356.705 492.637C356.941 492.061 357 491.427 356.875 490.817C356.75 490.207 356.448 489.647 356.005 489.209C355.563 488.771 355 488.474 354.389 488.355C353.778 488.236 353.145 488.301 352.57 488.542C351.996 488.782 351.506 489.188 351.162 489.707C350.817 490.226 350.635 490.835 350.637 491.458C350.634 491.87 350.713 492.279 350.869 492.661C351.026 493.042 351.256 493.389 351.547 493.681C351.838 493.973 352.184 494.205 352.566 494.362C352.947 494.52 353.355 494.6 353.768 494.599H353.808Z" fill="white"/>
<path fill-rule="evenodd" clip-rule="evenodd" d="M150.066 107.005C150.872 106.959 151.63 106.607 152.185 106.02C152.74 105.433 153.049 104.656 153.049 103.849C153.049 103.041 152.74 102.264 152.185 101.677C151.63 101.091 150.872 100.738 150.066 100.693C149.637 100.668 149.207 100.732 148.803 100.879C148.399 101.027 148.029 101.256 147.716 101.551C147.404 101.847 147.155 102.203 146.985 102.598C146.814 102.993 146.727 103.418 146.727 103.849C146.727 104.279 146.814 104.704 146.985 105.099C147.155 105.494 147.404 105.851 147.716 106.146C148.029 106.441 148.399 106.67 148.803 106.818C149.207 106.965 149.637 107.029 150.066 107.005Z" fill="white"/>
<path fill-rule="evenodd" clip-rule="evenodd" d="M526.917 51.1261C527.752 51.1261 528.554 50.7941 529.145 50.2032C529.736 49.6123 530.068 48.8108 530.068 47.9752C530.068 47.1395 529.736 46.338 529.145 45.7471C528.554 45.1562 527.752 44.8242 526.917 44.8242C526.081 44.8242 525.279 45.1562 524.689 45.7471C524.098 46.338 523.766 47.1395 523.766 47.9752C523.766 48.8108 524.098 49.6123 524.689 50.2032C525.279 50.7941 526.081 51.1261 526.917 51.1261Z" fill="white"/>
<path fill-rule="evenodd" clip-rule="evenodd" d="M480.025 171.901C480.65 171.905 481.261 171.724 481.782 171.38C482.303 171.035 482.71 170.544 482.952 169.968C483.193 169.392 483.258 168.757 483.138 168.145C483.017 167.532 482.718 166.968 482.277 166.526C481.836 166.084 481.274 165.782 480.661 165.66C480.049 165.538 479.414 165.601 478.837 165.84C478.261 166.08 477.768 166.485 477.422 167.005C477.076 167.525 476.893 168.136 476.895 168.761C476.893 169.173 476.973 169.581 477.13 169.962C477.287 170.343 477.517 170.689 477.808 170.981C478.099 171.273 478.444 171.504 478.825 171.662C479.205 171.82 479.613 171.901 480.025 171.901Z" fill="white"/>
<path fill-rule="evenodd" clip-rule="evenodd" d="M873.139 56.5486C873.979 56.5433 874.782 56.2075 875.376 55.614C875.969 55.0204 876.305 54.2169 876.31 53.3775C876.308 52.7532 876.121 52.1434 875.773 51.6251C875.425 51.1068 874.931 50.7033 874.354 50.4653C873.777 50.2273 873.142 50.1655 872.53 50.2878C871.918 50.4101 871.356 50.7109 870.914 51.1524C870.473 51.5939 870.172 52.1562 870.05 52.7684C869.927 53.3807 869.989 54.0154 870.227 54.5926C870.465 55.1698 870.869 55.6636 871.387 56.0117C871.905 56.3598 872.515 56.5466 873.139 56.5486Z" fill="white"/>
<path fill-rule="evenodd" clip-rule="evenodd" d="M586.452 420.696C586.866 420.694 587.275 420.61 587.657 420.449C588.038 420.288 588.384 420.054 588.675 419.759C588.965 419.465 589.195 419.116 589.351 418.733C589.507 418.349 589.586 417.939 589.583 417.525C589.584 417.114 589.504 416.706 589.348 416.326C589.191 415.945 588.96 415.6 588.669 415.309C588.378 415.018 588.032 414.787 587.652 414.63C587.272 414.473 586.864 414.393 586.452 414.395C586.039 414.392 585.628 414.471 585.245 414.627C584.862 414.783 584.513 415.012 584.218 415.303C583.924 415.594 583.69 415.94 583.529 416.321C583.368 416.702 583.284 417.112 583.281 417.525C583.287 418.365 583.622 419.168 584.216 419.762C584.809 420.355 585.613 420.691 586.452 420.696Z" fill="white"/>
<path fill-rule="evenodd" clip-rule="evenodd" d="M124.818 604.567C125.229 604.569 125.637 604.489 126.017 604.332C126.398 604.175 126.743 603.944 127.034 603.653C127.325 603.363 127.556 603.017 127.713 602.636C127.87 602.256 127.95 601.848 127.948 601.437C127.951 601.023 127.872 600.613 127.716 600.229C127.56 599.846 127.33 599.497 127.04 599.203C126.749 598.908 126.403 598.674 126.022 598.513C125.641 598.352 125.231 598.268 124.818 598.266C123.978 598.271 123.175 598.607 122.581 599.2C121.988 599.794 121.652 600.597 121.646 601.437C121.649 601.851 121.733 602.26 121.894 602.641C122.055 603.022 122.289 603.368 122.584 603.659C122.878 603.95 123.227 604.18 123.61 604.335C123.994 604.491 124.404 604.57 124.818 604.567Z" fill="white"/>
<path fill-rule="evenodd" clip-rule="evenodd" d="M1040.85 624.394C1041.27 624.396 1041.68 624.317 1042.06 624.161C1042.44 624.005 1042.79 623.774 1043.08 623.483C1043.37 623.192 1043.6 622.846 1043.76 622.465C1043.92 622.084 1044 621.675 1044 621.263C1044 620.638 1043.82 620.027 1043.47 619.506C1043.13 618.985 1042.64 618.578 1042.06 618.337C1041.49 618.095 1040.85 618.031 1040.24 618.151C1039.63 618.271 1039.06 618.57 1038.62 619.011C1038.18 619.452 1037.88 620.014 1037.75 620.627C1037.63 621.239 1037.69 621.874 1037.93 622.451C1038.17 623.028 1038.58 623.52 1039.1 623.866C1039.62 624.212 1040.23 624.396 1040.85 624.394Z" fill="white"/>
<path fill-rule="evenodd" clip-rule="evenodd" d="M848.123 597.378C848.543 597.378 848.946 597.211 849.244 596.914C849.541 596.616 849.708 596.213 849.708 595.793C849.708 595.372 849.541 594.969 849.244 594.671C848.946 594.374 848.543 594.207 848.123 594.207C847.702 594.207 847.299 594.374 847.002 594.671C846.704 594.969 846.537 595.372 846.537 595.793C846.537 596.213 846.704 596.616 847.002 596.914C847.299 597.211 847.702 597.378 848.123 597.378Z" fill="white"/>
<path fill-rule="evenodd" clip-rule="evenodd" d="M755.948 712.731C756.154 712.732 756.358 712.693 756.548 712.615C756.739 712.536 756.912 712.421 757.057 712.276C757.203 712.13 757.318 711.957 757.397 711.766C757.475 711.576 757.514 711.372 757.513 711.166C757.513 710.745 757.346 710.342 757.049 710.044C756.751 709.747 756.348 709.58 755.927 709.58C755.507 709.58 755.104 709.747 754.806 710.044C754.509 710.342 754.342 710.745 754.342 711.166C754.342 711.375 754.384 711.582 754.465 711.774C754.546 711.967 754.665 712.141 754.814 712.287C754.964 712.433 755.142 712.547 755.336 712.624C755.531 712.7 755.739 712.736 755.948 712.731Z" fill="white"/>
<path fill-rule="evenodd" clip-rule="evenodd" d="M422.339 555.921C422.76 555.921 423.163 555.754 423.461 555.457C423.758 555.159 423.925 554.756 423.925 554.336C423.925 553.915 423.758 553.512 423.461 553.214C423.163 552.917 422.76 552.75 422.339 552.75C421.919 552.75 421.516 552.917 421.218 553.214C420.921 553.512 420.754 553.915 420.754 554.336C420.754 554.756 420.921 555.159 421.218 555.457C421.516 555.754 421.919 555.921 422.339 555.921Z" fill="white"/>
<path fill-rule="evenodd" clip-rule="evenodd" d="M308.726 368.403C308.934 368.408 309.142 368.372 309.337 368.296C309.532 368.219 309.709 368.105 309.859 367.959C310.008 367.813 310.127 367.639 310.208 367.446C310.29 367.253 310.331 367.047 310.331 366.837C310.331 366.417 310.164 366.014 309.867 365.716C309.57 365.419 309.166 365.252 308.746 365.252C308.325 365.252 307.922 365.419 307.625 365.716C307.327 366.014 307.16 366.417 307.16 366.837C307.159 367.043 307.198 367.248 307.277 367.438C307.355 367.629 307.47 367.802 307.616 367.947C307.761 368.093 307.934 368.208 308.125 368.286C308.315 368.365 308.52 368.404 308.726 368.403Z" fill="white"/>
<path fill-rule="evenodd" clip-rule="evenodd" d="M148.258 346.769C148.464 346.77 148.669 346.731 148.86 346.653C149.051 346.574 149.225 346.459 149.371 346.314C149.517 346.168 149.634 345.995 149.713 345.805C149.792 345.614 149.833 345.41 149.833 345.203C149.837 344.889 149.747 344.58 149.575 344.316C149.403 344.052 149.156 343.846 148.866 343.723C148.576 343.6 148.256 343.567 147.947 343.626C147.638 343.686 147.353 343.837 147.13 344.058C146.907 344.28 146.755 344.564 146.693 344.873C146.631 345.181 146.663 345.502 146.784 345.792C146.905 346.083 147.109 346.331 147.372 346.505C147.634 346.679 147.943 346.771 148.258 346.769Z" fill="white"/>
<path fill-rule="evenodd" clip-rule="evenodd" d="M557.589 283.68C558.004 283.675 558.401 283.507 558.694 283.212C558.986 282.918 559.152 282.52 559.154 282.105C559.154 281.689 558.989 281.291 558.696 280.998C558.402 280.704 558.004 280.539 557.589 280.539C557.383 280.536 557.178 280.575 556.987 280.653C556.796 280.731 556.622 280.846 556.476 280.992C556.33 281.138 556.215 281.311 556.137 281.502C556.059 281.693 556.021 281.898 556.024 282.105C556.022 282.311 556.062 282.516 556.14 282.707C556.218 282.898 556.333 283.072 556.478 283.218C556.624 283.364 556.797 283.481 556.988 283.56C557.178 283.639 557.383 283.68 557.589 283.68Z" fill="white"/>
<path fill-rule="evenodd" clip-rule="evenodd" d="M764.946 101.622C765.26 101.626 765.567 101.537 765.83 101.366C766.093 101.195 766.3 100.95 766.423 100.662C766.547 100.374 766.582 100.056 766.525 99.7472C766.468 99.4389 766.321 99.1545 766.102 98.9299C765.883 98.7054 765.602 98.5508 765.295 98.4857C764.989 98.4206 764.67 98.4479 764.378 98.5642C764.087 98.6805 763.837 98.8806 763.659 99.139C763.482 99.3975 763.385 99.7029 763.381 100.016C763.378 100.436 763.541 100.84 763.834 101.141C764.127 101.441 764.527 101.614 764.946 101.622Z" fill="white"/>
<path fill-rule="evenodd" clip-rule="evenodd" d="M591.835 25.878C592.256 25.8807 592.662 25.7166 592.963 25.4214C593.263 25.1262 593.435 24.724 593.441 24.3026C593.443 23.9894 593.352 23.6827 593.18 23.4211C593.008 23.1595 592.762 22.9547 592.473 22.8326C592.185 22.7104 591.867 22.6764 591.559 22.7349C591.252 22.7933 590.968 22.9415 590.745 23.1608C590.521 23.3801 590.368 23.6607 590.303 23.9672C590.239 24.2737 590.267 24.5924 590.384 24.883C590.5 25.1737 590.7 25.4233 590.959 25.6003C591.217 25.7774 591.522 25.874 591.835 25.878Z" fill="white"/>
<path fill-rule="evenodd" clip-rule="evenodd" d="M983.138 584.744C983.345 584.747 983.551 584.708 983.743 584.63C983.934 584.551 984.109 584.435 984.255 584.288C984.401 584.141 984.516 583.967 984.593 583.774C984.67 583.582 984.707 583.376 984.703 583.169C984.703 582.754 984.538 582.356 984.245 582.062C983.951 581.768 983.553 581.604 983.138 581.604C982.723 581.606 982.325 581.772 982.03 582.064C981.736 582.357 981.568 582.754 981.562 583.169C981.562 583.587 981.728 583.987 982.024 584.283C982.319 584.578 982.72 584.744 983.138 584.744Z" fill="white"/>
<path fill-rule="evenodd" clip-rule="evenodd" d="M168.093 34.968C168.514 34.968 168.917 34.801 169.215 34.5036C169.512 34.2063 169.679 33.803 169.679 33.3824C169.679 32.9619 169.512 32.5586 169.215 32.2613C168.917 31.9639 168.514 31.7969 168.093 31.7969C167.673 31.7969 167.27 31.9639 166.972 32.2613C166.675 32.5586 166.508 32.9619 166.508 33.3824C166.508 33.803 166.675 34.2063 166.972 34.5036C167.27 34.801 167.673 34.968 168.093 34.968Z" fill="white"/>
<path fill-rule="evenodd" clip-rule="evenodd" d="M741.021 539.359C741.334 539.357 741.639 539.262 741.899 539.087C742.158 538.912 742.359 538.664 742.478 538.375C742.597 538.086 742.627 537.768 742.566 537.461C742.504 537.155 742.354 536.873 742.133 536.652C741.911 536.431 741.63 536.28 741.323 536.218C741.017 536.157 740.699 536.188 740.409 536.306C740.12 536.425 739.872 536.627 739.697 536.886C739.522 537.145 739.428 537.45 739.426 537.763C739.424 537.973 739.465 538.181 739.545 538.375C739.624 538.569 739.742 538.746 739.89 538.894C740.039 539.043 740.215 539.16 740.409 539.24C740.603 539.32 740.812 539.36 741.021 539.359Z" fill="white"/>
<path fill-rule="evenodd" clip-rule="evenodd" d="M677.912 420.353C678.226 420.351 678.533 420.255 678.792 420.079C679.052 419.903 679.254 419.653 679.372 419.362C679.49 419.071 679.518 418.752 679.454 418.444C679.39 418.137 679.237 417.855 679.012 417.635C678.788 417.415 678.504 417.267 678.195 417.209C677.887 417.151 677.568 417.186 677.279 417.309C676.99 417.433 676.745 417.639 676.573 417.902C676.402 418.165 676.313 418.473 676.317 418.787C676.318 418.995 676.36 419.201 676.441 419.392C676.522 419.583 676.64 419.757 676.789 419.902C676.937 420.048 677.113 420.162 677.305 420.24C677.498 420.317 677.704 420.355 677.912 420.353Z" fill="white"/>
<path fill-rule="evenodd" clip-rule="evenodd" d="M1058.38 277.954C1058.69 277.958 1059 277.869 1059.26 277.698C1059.52 277.527 1059.73 277.282 1059.85 276.994C1059.98 276.706 1060.01 276.388 1059.96 276.079C1059.9 275.771 1059.75 275.487 1059.53 275.262C1059.31 275.037 1059.03 274.883 1058.73 274.818C1058.42 274.753 1058.1 274.78 1057.81 274.896C1057.52 275.013 1057.27 275.213 1057.09 275.471C1056.91 275.73 1056.81 276.035 1056.81 276.348C1056.81 276.557 1056.85 276.763 1056.92 276.957C1057 277.15 1057.12 277.326 1057.26 277.476C1057.41 277.625 1057.58 277.744 1057.77 277.826C1057.96 277.908 1058.17 277.952 1058.38 277.954Z" fill="white"/>
<path fill-rule="evenodd" clip-rule="evenodd" d="M176.648 256.796C177.069 256.796 177.472 256.629 177.769 256.332C178.067 256.034 178.234 255.631 178.234 255.211C178.234 254.79 178.067 254.387 177.769 254.089C177.472 253.792 177.069 253.625 176.648 253.625C176.228 253.625 175.824 253.792 175.527 254.089C175.23 254.387 175.062 254.79 175.063 255.211C175.062 255.631 175.23 256.034 175.527 256.332C175.824 256.629 176.228 256.796 176.648 256.796Z" fill="white"/>
<path fill-rule="evenodd" clip-rule="evenodd" d="M371.359 299.566C371.672 299.564 371.976 299.469 372.235 299.295C372.494 299.12 372.696 298.873 372.815 298.584C372.934 298.296 372.965 297.978 372.904 297.672C372.844 297.366 372.694 297.084 372.474 296.862C372.254 296.641 371.973 296.489 371.667 296.427C371.361 296.364 371.044 296.393 370.754 296.51C370.465 296.628 370.216 296.828 370.04 297.086C369.864 297.343 369.768 297.648 369.764 297.96C369.762 298.17 369.803 298.379 369.882 298.574C369.962 298.768 370.079 298.945 370.227 299.095C370.376 299.244 370.552 299.362 370.746 299.443C370.941 299.524 371.149 299.566 371.359 299.566Z" fill="white"/>
<path fill-rule="evenodd" clip-rule="evenodd" d="M277.577 777.325C277.891 777.329 278.199 777.24 278.462 777.069C278.726 776.897 278.932 776.652 279.055 776.363C279.179 776.074 279.214 775.755 279.155 775.447C279.097 775.138 278.949 774.854 278.729 774.63C278.509 774.405 278.228 774.252 277.92 774.188C277.613 774.124 277.293 774.152 277.002 774.27C276.711 774.388 276.462 774.59 276.285 774.849C276.109 775.109 276.014 775.416 276.012 775.73C276.012 776.148 276.176 776.549 276.468 776.847C276.761 777.146 277.159 777.317 277.577 777.325Z" fill="white"/>
<path fill-rule="evenodd" clip-rule="evenodd" d="M573.294 876.458C573.609 876.462 573.919 876.372 574.182 876.199C574.446 876.027 574.653 875.779 574.775 875.489C574.898 875.198 574.931 874.878 574.87 874.568C574.81 874.259 574.658 873.974 574.435 873.752C574.212 873.529 573.928 873.377 573.619 873.317C573.309 873.256 572.989 873.289 572.698 873.412C572.408 873.534 572.16 873.74 571.987 874.004C571.815 874.268 571.725 874.577 571.729 874.893C571.734 875.306 571.9 875.701 572.193 875.994C572.485 876.286 572.88 876.453 573.294 876.458Z" fill="white"/>
<path fill-rule="evenodd" clip-rule="evenodd" d="M1143.12 777.325C1143.43 777.329 1143.74 777.24 1144 777.069C1144.27 776.897 1144.47 776.652 1144.6 776.363C1144.72 776.074 1144.75 775.755 1144.7 775.447C1144.64 775.138 1144.49 774.854 1144.27 774.63C1144.05 774.405 1143.77 774.252 1143.46 774.188C1143.15 774.124 1142.83 774.152 1142.54 774.27C1142.25 774.388 1142 774.59 1141.83 774.849C1141.65 775.109 1141.55 775.416 1141.55 775.73C1141.55 776.148 1141.72 776.549 1142.01 776.847C1142.3 777.146 1142.7 777.317 1143.12 777.325Z" fill="white"/>
<path fill-rule="evenodd" clip-rule="evenodd" d="M642.07 735.182C642.697 735.182 643.311 734.996 643.832 734.647C644.354 734.298 644.761 733.802 645 733.222C645.24 732.642 645.302 732.004 645.179 731.389C645.056 730.773 644.753 730.208 644.308 729.765C643.864 729.322 643.298 729.021 642.682 728.9C642.066 728.778 641.428 728.843 640.849 729.084C640.27 729.326 639.775 729.734 639.428 730.257C639.081 730.779 638.896 731.393 638.898 732.021C638.897 732.437 638.978 732.85 639.137 733.235C639.296 733.619 639.53 733.969 639.825 734.263C640.12 734.557 640.47 734.789 640.855 734.947C641.241 735.105 641.653 735.185 642.07 735.182Z" fill="white"/>
<path fill-rule="evenodd" clip-rule="evenodd" d="M993.702 839.737C994.116 839.735 994.525 839.651 994.907 839.49C995.288 839.329 995.634 839.095 995.925 838.8C996.215 838.506 996.445 838.157 996.601 837.774C996.757 837.39 996.836 836.98 996.833 836.566C996.834 836.155 996.754 835.747 996.598 835.367C996.441 834.986 996.21 834.641 995.919 834.35C995.628 834.059 995.282 833.828 994.902 833.671C994.522 833.514 994.114 833.434 993.702 833.436C993.289 833.433 992.878 833.512 992.495 833.668C992.112 833.824 991.763 834.053 991.468 834.344C991.174 834.635 990.94 834.981 990.779 835.362C990.618 835.743 990.534 836.153 990.531 836.566C990.537 837.406 990.872 838.209 991.466 838.803C992.059 839.396 992.863 839.732 993.702 839.737Z" fill="white"/>
<path fill-rule="evenodd" clip-rule="evenodd" d="M1127.11 677.476C1127.74 677.478 1128.35 677.294 1128.87 676.948C1129.39 676.602 1129.79 676.11 1130.03 675.533C1130.27 674.956 1130.33 674.321 1130.21 673.709C1130.09 673.096 1129.79 672.534 1129.35 672.093C1128.9 671.652 1128.34 671.353 1127.73 671.233C1127.11 671.113 1126.48 671.177 1125.9 671.419C1125.33 671.66 1124.84 672.067 1124.49 672.588C1124.15 673.109 1123.97 673.721 1123.97 674.345C1123.98 675.175 1124.31 675.97 1124.9 676.556C1125.49 677.143 1126.28 677.473 1127.11 677.476Z" fill="white"/>
<path fill-rule="evenodd" clip-rule="evenodd" d="M1330.88 740.564C1331.3 740.566 1331.71 740.487 1332.09 740.332C1332.47 740.176 1332.82 739.946 1333.12 739.655C1333.41 739.364 1333.64 739.018 1333.81 738.637C1333.97 738.256 1334.05 737.847 1334.05 737.433C1334.05 736.592 1333.72 735.785 1333.12 735.191C1332.53 734.596 1331.72 734.262 1330.88 734.262C1330.04 734.262 1329.23 734.596 1328.64 735.191C1328.05 735.785 1327.71 736.592 1327.71 737.433C1327.71 737.847 1327.8 738.256 1327.96 738.637C1328.12 739.018 1328.35 739.364 1328.65 739.655C1328.94 739.946 1329.29 740.176 1329.67 740.332C1330.06 740.487 1330.47 740.566 1330.88 740.564Z" fill="white"/>
<path fill-rule="evenodd" clip-rule="evenodd" d="M946.809 499.023C947.618 498.977 948.378 498.624 948.935 498.035C949.491 497.446 949.801 496.667 949.801 495.857C949.801 495.047 949.491 494.267 948.935 493.679C948.378 493.09 947.618 492.736 946.809 492.691C946.378 492.666 945.947 492.73 945.542 492.878C945.136 493.026 944.766 493.256 944.452 493.552C944.138 493.848 943.889 494.206 943.718 494.602C943.547 494.998 943.459 495.425 943.459 495.857C943.459 496.288 943.547 496.715 943.718 497.111C943.889 497.508 944.138 497.865 944.452 498.161C944.766 498.458 945.136 498.687 945.542 498.835C945.947 498.983 946.378 499.047 946.809 499.023Z" fill="white"/>
<path fill-rule="evenodd" clip-rule="evenodd" d="M1267.77 356.586C1268.4 356.584 1269.01 356.396 1269.53 356.047C1270.05 355.697 1270.45 355.202 1270.69 354.623C1270.92 354.044 1270.98 353.407 1270.86 352.794C1270.74 352.181 1270.43 351.619 1269.99 351.179C1269.54 350.739 1268.98 350.44 1268.36 350.321C1267.75 350.202 1267.11 350.268 1266.54 350.511C1265.96 350.754 1265.47 351.162 1265.12 351.684C1264.78 352.207 1264.6 352.819 1264.6 353.445C1264.61 354.282 1264.94 355.082 1265.54 355.671C1266.13 356.259 1266.94 356.588 1267.77 356.586Z" fill="white"/>
<path fill-rule="evenodd" clip-rule="evenodd" d="M1096.97 83.0199C1097.59 83.0259 1098.21 82.845 1098.73 82.5002C1099.26 82.1554 1099.67 81.6623 1099.92 81.0834C1100.16 80.5045 1100.23 79.866 1100.11 79.2489C1099.99 78.6317 1099.69 78.0639 1099.25 77.6173C1098.81 77.1708 1098.24 76.8658 1097.63 76.7409C1097.01 76.6161 1096.37 76.6771 1095.79 76.9162C1095.21 77.1553 1094.71 77.5617 1094.36 78.0838C1094.01 78.606 1093.82 79.2203 1093.82 79.8487C1093.83 80.6829 1094.16 81.482 1094.75 82.0747C1095.34 82.6674 1096.13 83.0067 1096.97 83.0199Z" fill="white"/>
<path fill-rule="evenodd" clip-rule="evenodd" d="M472.565 268.259C472.977 268.26 473.385 268.18 473.766 268.023C474.147 267.867 474.494 267.636 474.786 267.346C475.077 267.055 475.309 266.709 475.467 266.329C475.625 265.948 475.706 265.54 475.706 265.128C475.71 264.504 475.528 263.892 475.184 263.371C474.84 262.85 474.349 262.443 473.773 262.202C473.197 261.96 472.562 261.896 471.949 262.016C471.336 262.136 470.773 262.435 470.331 262.876C469.888 263.317 469.587 263.88 469.465 264.492C469.343 265.104 469.406 265.739 469.645 266.316C469.885 266.893 470.29 267.385 470.81 267.731C471.33 268.077 471.941 268.261 472.565 268.259Z" fill="white"/>
<path fill-rule="evenodd" clip-rule="evenodd" d="M209.944 233.155C210.572 233.161 211.188 232.98 211.714 232.635C212.239 232.29 212.65 231.797 212.895 231.218C213.14 230.639 213.207 230.001 213.088 229.384C212.969 228.766 212.669 228.199 212.227 227.752C211.785 227.306 211.22 227.001 210.604 226.876C209.988 226.751 209.349 226.812 208.767 227.051C208.186 227.29 207.689 227.696 207.339 228.219C206.99 228.741 206.803 229.355 206.803 229.984C206.805 230.819 207.136 231.619 207.724 232.212C208.311 232.806 209.109 233.144 209.944 233.155Z" fill="white"/>
<path fill-rule="evenodd" clip-rule="evenodd" d="M764.704 855.957C765.543 855.952 766.347 855.616 766.94 855.022C767.534 854.429 767.87 853.625 767.875 852.786C767.873 852.161 767.686 851.552 767.338 851.033C766.99 850.515 766.496 850.111 765.919 849.873C765.342 849.635 764.707 849.574 764.095 849.696C763.482 849.818 762.92 850.119 762.479 850.561C762.037 851.002 761.736 851.564 761.614 852.177C761.492 852.789 761.553 853.424 761.791 854.001C762.029 854.578 762.433 855.072 762.951 855.42C763.47 855.768 764.079 855.955 764.704 855.957Z" fill="white"/>
<path fill-rule="evenodd" clip-rule="evenodd" d="M1299.33 791.059C1300.58 791.059 1301.8 790.689 1302.84 789.996C1303.88 789.302 1304.69 788.316 1305.17 787.163C1305.64 786.01 1305.77 784.741 1305.52 783.516C1305.28 782.292 1304.68 781.167 1303.8 780.284C1302.91 779.402 1301.79 778.8 1300.56 778.557C1299.34 778.313 1298.07 778.438 1296.92 778.916C1295.76 779.394 1294.78 780.203 1294.09 781.241C1293.39 782.279 1293.02 783.499 1293.02 784.748C1293.02 786.422 1293.69 788.027 1294.87 789.211C1296.05 790.394 1297.66 791.059 1299.33 791.059Z" fill="white"/>
<path fill-rule="evenodd" clip-rule="evenodd" d="M1346.21 855.955C1347.46 855.955 1348.68 855.586 1349.71 854.893C1350.75 854.201 1351.56 853.217 1352.03 852.065C1352.51 850.914 1352.64 849.646 1352.39 848.424C1352.15 847.202 1351.55 846.079 1350.67 845.197C1349.79 844.316 1348.66 843.716 1347.44 843.473C1346.22 843.229 1344.95 843.354 1343.8 843.831C1342.65 844.308 1341.66 845.116 1340.97 846.152C1340.28 847.189 1339.91 848.407 1339.91 849.653C1339.91 851.324 1340.58 852.925 1341.76 854.107C1342.94 855.288 1344.54 855.953 1346.21 855.955Z" fill="white"/>
<path fill-rule="evenodd" clip-rule="evenodd" d="M1110 376.41C1111.25 376.408 1112.47 376.037 1113.5 375.343C1114.54 374.65 1115.34 373.665 1115.82 372.513C1116.29 371.361 1116.42 370.095 1116.17 368.873C1115.93 367.651 1115.33 366.529 1114.45 365.649C1113.56 364.769 1112.44 364.169 1111.22 363.927C1110 363.685 1108.73 363.81 1107.58 364.287C1106.43 364.765 1105.44 365.572 1104.75 366.608C1104.06 367.645 1103.69 368.863 1103.69 370.109C1103.69 371.781 1104.36 373.384 1105.54 374.565C1106.73 375.747 1108.33 376.41 1110 376.41Z" fill="white"/>
<path fill-rule="evenodd" clip-rule="evenodd" d="M601.482 210.562C602.734 210.566 603.959 210.198 605.002 209.505C606.044 208.812 606.858 207.825 607.339 206.669C607.82 205.513 607.947 204.24 607.703 203.012C607.46 201.783 606.858 200.655 605.972 199.77C605.087 198.884 603.958 198.282 602.73 198.038C601.502 197.795 600.229 197.922 599.073 198.403C597.917 198.884 596.93 199.698 596.237 200.74C595.544 201.783 595.176 203.008 595.18 204.26C595.182 205.931 595.847 207.532 597.028 208.713C598.21 209.895 599.811 210.559 601.482 210.562Z" fill="white"/>
<path fill-rule="evenodd" clip-rule="evenodd" d="M480.673 425.088C481.919 425.088 483.138 424.719 484.174 424.026C485.21 423.334 486.018 422.349 486.495 421.198C486.972 420.046 487.097 418.779 486.854 417.557C486.611 416.334 486.01 415.211 485.129 414.33C484.248 413.449 483.125 412.849 481.902 412.605C480.68 412.362 479.413 412.487 478.261 412.964C477.11 413.441 476.126 414.249 475.433 415.285C474.741 416.321 474.371 417.54 474.371 418.786C474.374 420.457 475.039 422.058 476.22 423.239C477.401 424.421 479.002 425.085 480.673 425.088Z" fill="white"/>
<path fill-rule="evenodd" clip-rule="evenodd" d="M168.71 553.063C169.956 553.063 171.175 552.693 172.211 552.001C173.248 551.308 174.055 550.324 174.532 549.173C175.009 548.021 175.134 546.754 174.891 545.531C174.648 544.309 174.048 543.186 173.166 542.305C172.285 541.423 171.162 540.823 169.94 540.58C168.717 540.337 167.45 540.462 166.298 540.939C165.147 541.416 164.163 542.223 163.47 543.26C162.778 544.296 162.408 545.514 162.408 546.761C162.411 548.431 163.076 550.033 164.257 551.214C165.438 552.395 167.04 553.06 168.71 553.063Z" fill="white"/>
<path fill-rule="evenodd" clip-rule="evenodd" d="M1384.99 897.989C1385.3 897.987 1385.61 897.893 1385.87 897.718C1386.13 897.543 1386.33 897.295 1386.45 897.006C1386.57 896.717 1386.6 896.399 1386.54 896.092C1386.48 895.785 1386.32 895.504 1386.1 895.283C1385.88 895.062 1385.6 894.911 1385.29 894.849C1384.99 894.788 1384.67 894.818 1384.38 894.937C1384.09 895.056 1383.84 895.258 1383.67 895.517C1383.49 895.776 1383.4 896.081 1383.4 896.394C1383.39 896.604 1383.43 896.813 1383.51 897.008C1383.59 897.202 1383.71 897.379 1383.86 897.528C1384.01 897.677 1384.18 897.794 1384.38 897.874C1384.57 897.953 1384.78 897.992 1384.99 897.989Z" fill="white"/>
</g>
<defs>
<filter id="filter0_f_121_743" x="-462.805" y="-399.623" width="2365.61" height="1272.21" filterUnits="userSpaceOnUse" color-interpolation-filters="sRGB">
<feFlood flood-opacity="0" result="BackgroundImageFix"/>
<feBlend mode="normal" in="SourceGraphic" in2="BackgroundImageFix" result="shape"/>
<feGaussianBlur stdDeviation="150" result="effect1_foregroundBlur_121_743"/>
</filter>
<clipPath id="clip0_121_743">
<rect width="1440" height="900" fill="white"/>
</clipPath>
</defs>
</svg>
