<svg width="256" height="370" viewBox="0 0 256 370" fill="none" xmlns="http://www.w3.org/2000/svg">
<path class="rocket_fire_animation r5_f_1" d="M118.586 261.897C118.586 261.897 126.116 301.568 127.718 301.568C129.32 301.568 136.859 261.897 136.859 261.897H118.586Z" fill="#FFAB31"/>
<path class="rocket_fire_animation r5_f_2" d="M120.559 261.897C120.559 261.897 125.926 293.778 127.718 293.778C129.14 293.778 134.887 261.897 134.887 261.897H120.559Z" fill="#FFCE45"/>
<path class="rocket_fire_animation r5_f_3" d="M122.641 261.897C122.641 261.897 126.265 284.506 127.717 284.506C129.169 284.506 132.804 261.897 132.804 261.897H122.641Z" fill="url(#paint0_linear_160_3029)"/>
<path d="M12.911 232.273C12.911 232.273 2.32744 262.713 1.89688 265.987C1.46633 269.261 2.14715 289.567 2.59773 289.887C3.71917 290.678 12.9009 269.161 12.9009 269.161L12.911 232.273Z" fill="#3FC6EF"/>
<path d="M25.7063 161.092C22.4421 161.092 19.6986 162.804 18.6973 165.187H32.8154C31.744 162.804 28.9704 161.092 25.7063 161.092Z" fill="#948E99"/>
<path d="M18.649 165.188C18.3751 165.82 18.2321 166.501 18.2285 167.19V174.94H33.1877V167.19C33.184 166.501 33.041 165.82 32.7672 165.188H18.649Z" fill="#D8D8D8"/>
<path d="M33.1877 220.148H18.2285V240.394H33.1877V220.148Z" fill="#948E99"/>
<path d="M33.1877 174.95H18.2285V188.687H33.1877V174.95Z" fill="#948E99"/>
<path d="M33.1877 188.688H18.2285V220.148H33.1877V188.688Z" fill="#D8D8D8"/>
<path opacity="0.2" d="M28.2503 208.073C29.6549 208.073 30.7935 198.457 30.7935 186.596C30.7935 174.734 29.6549 165.118 28.2503 165.118C26.8457 165.118 25.707 174.734 25.707 186.596C25.707 198.457 26.8457 208.073 28.2503 208.073Z" fill="#807B84"/>
<path d="M229.738 163.186C233.002 163.186 235.746 164.898 236.747 167.281H222.629C223.7 164.898 226.474 163.186 229.738 163.186Z" fill="#948E99"/>
<path d="M236.798 167.281C237.072 167.913 237.215 168.594 237.219 169.283V177.023H222.26V169.283C222.264 168.594 222.407 167.913 222.68 167.281H236.798Z" fill="#D8D8D8"/>
<path d="M237.219 222.241H222.26V242.487H237.219V222.241Z" fill="#948E99"/>
<path d="M237.219 177.043H222.26V190.781H237.219V177.043Z" fill="#948E99"/>
<path d="M237.219 190.78H222.26V222.241H237.219V190.78Z" fill="#D8D8D8"/>
<path opacity="0.2" d="M227.196 210.075C228.6 210.075 229.739 200.459 229.739 188.597C229.739 176.735 228.6 167.12 227.196 167.12C225.791 167.12 224.652 176.735 224.652 188.597C224.652 200.459 225.791 210.075 227.196 210.075Z" fill="#807B84"/>
<path d="M144.349 0.466309C146.131 0.466309 147.633 2.1785 148.194 4.56156H140.504C141.055 2.1785 142.567 0.466309 144.349 0.466309Z" fill="#948E99"/>
<path d="M148.194 4.56201C148.347 5.21844 148.425 5.89042 148.424 6.56458V14.3045H140.264V6.56458C140.266 5.89002 140.347 5.21803 140.504 4.56201H148.194Z" fill="#D8D8D8"/>
<path d="M148.424 59.522H140.264V79.7679H148.424V59.522Z" fill="#948E99"/>
<path d="M148.424 14.3242H140.264V28.0618H148.424V14.3242Z" fill="#948E99"/>
<path d="M148.424 28.0625H140.264V59.5229H148.424V28.0625Z" fill="#D8D8D8"/>
<path d="M109.845 0.466309C108.063 0.466309 106.551 2.1785 105.99 4.56156H113.7C113.129 2.1785 111.617 0.466309 109.845 0.466309Z" fill="#948E99"/>
<path d="M105.99 4.56201C105.841 5.21926 105.764 5.8907 105.76 6.56458V14.3045H113.92V6.56458C113.921 5.89042 113.844 5.21844 113.69 4.56201H105.99Z" fill="#D8D8D8"/>
<path d="M113.92 59.522H105.76V79.7679H113.92V59.522Z" fill="#948E99"/>
<path d="M113.92 14.3242H105.76V28.0618H113.92V14.3242Z" fill="#948E99"/>
<path d="M113.92 28.0625H105.76V59.5229H113.92V28.0625Z" fill="#D8D8D8"/>
<path d="M243.086 232.273C243.086 232.273 253.67 262.713 254.1 265.987C254.531 269.261 253.86 289.567 253.399 289.887C252.288 290.678 243.106 269.161 243.106 269.161L243.086 232.273Z" fill="#3FC6EF"/>
<path d="M118.887 26.75L100.394 69.5649L93.4648 160.682L121.641 242.407H127.719V37.3035L119.708 25.188C119.399 25.689 119.125 26.211 118.887 26.75Z" fill="url(#paint1_linear_160_3029)"/>
<path d="M119.707 25.1482L127.717 37.2637V20.3921C126.087 20.4352 124.495 20.8949 123.093 21.7275C121.691 22.56 120.525 23.7376 119.707 25.1482Z" fill="url(#paint2_linear_160_3029)"/>
<path opacity="0.3" d="M111.858 35.0007C112.56 35.0007 113.129 27.7294 113.129 18.7599C113.129 9.79031 112.56 2.51904 111.858 2.51904C111.155 2.51904 110.586 9.79031 110.586 18.7599C110.586 27.7294 111.155 35.0007 111.858 35.0007Z" fill="#807B84"/>
<path opacity="0.3" d="M142.387 35.0007C143.089 35.0007 143.659 27.7294 143.659 18.7599C143.659 9.79031 143.089 2.51904 142.387 2.51904C141.685 2.51904 141.115 9.79031 141.115 18.7599C141.115 27.7294 141.685 35.0007 142.387 35.0007Z" fill="#807B84"/>
<path d="M98.0799 104.991C98.0799 104.991 17.3863 203.507 12.9106 213.34C10.3072 219.047 11.3586 268.22 12.9106 269.161C16.3249 271.224 135.878 225.455 127.868 228.669L98.0799 104.991Z" fill="#B0E9F7"/>
<path d="M50.3197 176.743L35.4707 252.27L58.8707 244.019L94.0058 121.171L50.3197 176.743Z" fill="#3FC6EF"/>
<path d="M95.7885 118.898L94.0061 121.171L58.8711 244.019L120.68 222.251L95.7885 118.898Z" fill="#0093E9"/>
<path d="M127.717 262.032H117.635L113.77 250.838H127.717V262.032Z" fill="#3091B7"/>
<path d="M136.55 26.75L155.054 69.5649L161.983 160.682L133.807 242.407H127.719V37.3035L135.729 25.188C136.046 25.6848 136.32 26.2073 136.55 26.75Z" fill="url(#paint3_linear_160_3029)"/>
<path d="M135.729 25.1482L127.719 37.2637V20.3921C129.35 20.4323 130.943 20.8909 132.345 21.7237C133.748 22.5565 134.913 23.7357 135.729 25.1482Z" fill="url(#paint4_linear_160_3029)"/>
<path d="M132.315 41.5093L130.623 85.1552L142.769 97.7815L132.315 41.5093Z" fill="#D8D8D8"/>
<path d="M157.896 104.991C157.896 104.991 238.579 203.507 243.065 213.34C245.659 219.047 244.607 268.22 243.065 269.161C239.651 271.224 120.098 225.455 128.108 228.669L157.896 104.991Z" fill="#B0E9F7"/>
<path d="M134.857 30.1445L151.779 69.0845L145.161 86.4568L134.857 30.1445Z" fill="#D8D8D8"/>
<path d="M122.562 41.3691L124.265 85.0152L112.119 97.6413L122.562 41.3691Z" fill="#D8D8D8"/>
<path d="M120.017 30.0044L103.105 68.9544L109.724 86.3167L120.017 30.0044Z" fill="#D8D8D8"/>
<path d="M122.821 47.0859L124.083 79.6277L115.031 89.0398L122.821 47.0859Z" fill="#F7F7F7"/>
<path d="M118.425 38.6055L105.809 67.6427L110.745 80.5893L118.425 38.6055Z" fill="#F7F7F7"/>
<path d="M132.094 47.0264L130.822 79.5681L139.874 88.9802L132.094 47.0264Z" fill="#F7F7F7"/>
<path d="M136.488 38.7354L149.094 67.7726L144.158 80.7092L136.488 38.7354Z" fill="#F7F7F7"/>
<path d="M127.718 96.5103H122.271L106.51 115.855L98.3301 174.61L121.64 242.407H127.718V96.5103Z" fill="#B0E9F7"/>
<path d="M110.587 141.928L100.294 243.669C100.294 243.669 98.7318 300.852 100.294 300.852C102.697 300.852 110.607 243.569 110.587 243.669V141.928Z" fill="#3FC6EF"/>
<path d="M205.898 176.532L220.677 251.979L197.387 243.738L162.412 121.011L205.898 176.532Z" fill="#3FC6EF"/>
<path d="M160.639 118.739L162.411 121.012L197.386 243.739L135.867 221.991L160.639 118.739Z" fill="#0093E9"/>
<path opacity="0.1" d="M208.502 245.672C218.001 241.963 217.01 216.699 206.289 189.244C195.568 161.788 179.176 142.538 169.678 146.247C160.179 149.956 161.17 175.22 171.891 202.676C182.612 230.131 199.003 249.382 208.502 245.672Z" fill="#9ED4E5"/>
<path opacity="0.2" d="M193.61 193.754C199.029 191.638 200.099 181.412 196 170.914C191.9 160.416 184.184 153.621 178.765 155.737C173.346 157.853 172.276 168.079 176.376 178.577C180.475 189.075 188.191 195.87 193.61 193.754Z" fill="#9ED4E5"/>
<path opacity="0.3" d="M149.429 134.606C155.216 134.008 158.001 115.084 155.651 92.3391C153.3 69.5939 146.704 51.64 140.917 52.238C135.131 52.836 132.345 71.7594 134.695 94.5046C137.046 117.25 143.642 135.204 149.429 134.606Z" fill="#9ED4E5"/>
<path d="M127.719 96.5103H133.176L148.926 115.855L157.116 174.61L133.807 242.407H127.719V96.5103Z" fill="#B0E9F7"/>
<path d="M127.718 122.354C118.256 122.354 110.586 131.365 110.586 142.379V250.838H144.85V142.439C144.85 131.335 137.18 122.354 127.718 122.354Z" fill="url(#paint5_linear_160_3029)"/>
<path opacity="0.2" d="M135.269 135.069C132.085 135.069 129.512 143.16 129.512 153.143V250.838H141.026V153.143C141.026 143.16 138.443 135.069 135.269 135.069Z" fill="#9ED4E5"/>
<path opacity="0.3" d="M135.288 183.491C133.435 183.491 131.943 188.197 131.943 193.995V250.818H138.632V194.015C138.632 188.217 137.13 183.491 135.288 183.491Z" fill="#9ED4E5"/>
<path d="M144.85 141.998L155.153 243.688C155.153 243.688 157.746 300.851 155.153 300.851C153.01 300.851 144.86 243.778 144.85 243.688V141.998Z" fill="#3FC6EF"/>
<path d="M127.719 262.032H137.812L141.667 250.838H127.719V262.032Z" fill="#3091B7"/>
<defs>
<linearGradient id="paint0_linear_160_3029" x1="127.567" y1="282.774" x2="127.787" y2="253.066" gradientUnits="userSpaceOnUse">
<stop stop-color="#FFF33B"/>
<stop offset="0.11" stop-color="#FFF341"/>
<stop offset="0.26" stop-color="#FFF452"/>
<stop offset="0.43" stop-color="#FFF66F"/>
<stop offset="0.61" stop-color="#FFF996"/>
<stop offset="0.81" stop-color="#FFFCC8"/>
<stop offset="1" stop-color="white"/>
</linearGradient>
<linearGradient id="paint1_linear_160_3029" x1="93.4648" y1="133.777" x2="127.719" y2="133.777" gradientUnits="userSpaceOnUse">
<stop stop-color="#2AC0FF"/>
<stop offset="1" stop-color="#0093E9"/>
</linearGradient>
<linearGradient id="paint2_linear_160_3029" x1="119.727" y1="28.8329" x2="127.717" y2="28.8329" gradientUnits="userSpaceOnUse">
<stop stop-color="#2AC0FF"/>
<stop offset="1" stop-color="#0093E9"/>
</linearGradient>
<linearGradient id="paint3_linear_160_3029" x1="127.719" y1="133.777" x2="161.983" y2="133.777" gradientUnits="userSpaceOnUse">
<stop stop-color="#0093E9"/>
<stop offset="1" stop-color="#2AC0FF"/>
</linearGradient>
<linearGradient id="paint4_linear_160_3029" x1="127.719" y1="28.8329" x2="135.709" y2="28.8329" gradientUnits="userSpaceOnUse">
<stop stop-color="#0093E9"/>
<stop offset="1" stop-color="#2AC0FF"/>
</linearGradient>
<linearGradient id="paint5_linear_160_3029" x1="110.586" y1="186.596" x2="144.85" y2="186.596" gradientUnits="userSpaceOnUse">
<stop stop-color="#0093E9"/>
<stop offset="1" stop-color="#2AC0FF"/>
</linearGradient>
</defs>
</svg>
