<svg width="295" height="974" viewBox="0 0 295 974" fill="none" xmlns="http://www.w3.org/2000/svg">
<path d="M109.996 798.824C109.996 798.824 139.912 973.317 146.222 973.317C152.531 973.317 182.339 798.824 182.339 798.824H109.996Z" fill="#FFAB31"/>
<path d="M117.91 798.824C117.91 798.824 139.123 939.049 146.222 939.049C151.797 939.049 174.506 798.824 174.506 798.824H117.91Z" fill="#FFCE45"/>
<path d="M126.15 798.824C126.15 798.824 140.456 898.254 146.221 898.254C151.987 898.254 166.292 798.824 166.292 798.824H126.15Z" fill="url(#paint0_linear_123_949)"/>
<path d="M211.223 631.021C211.223 631.021 283.864 804.643 292.295 802.358C305.268 798.932 252.153 387.014 243.342 368.113C241.22 363.516 216.009 333.899 216.009 333.899L211.223 631.021Z" fill="url(#paint1_linear_123_949)"/>
<path d="M83.7529 631.021C83.7529 631.021 11.1111 804.643 2.70743 802.358C-10.2653 798.932 42.8494 387.014 51.661 368.113C53.8096 363.516 79.0207 333.899 79.0207 333.899L83.7529 631.021Z" fill="url(#paint2_linear_123_949)"/>
<path d="M212.691 271.293C194.252 114.206 163.874 0.688477 147.719 0.688477C130.64 0.688477 101.485 112.602 82.7467 271.32C77.71 313.743 75.1582 356.423 75.1045 399.144C75.1045 438.823 75.8116 475.593 77.0082 509.208C82.4475 664.527 98.0854 752.48 98.0854 752.48H197.353C197.353 752.48 212.882 664.472 218.403 509.181C219.599 475.566 220.334 438.823 220.334 399.117C220.278 356.396 217.726 313.716 212.691 271.293V271.293Z" fill="#F2F2F2"/>
<path d="M189.519 752.509H105.646V798.824H189.519V752.509Z" fill="url(#paint3_linear_123_949)"/>
<path d="M212.69 273.551C193.552 286.643 170.905 293.649 147.717 293.649C124.53 293.649 101.883 286.643 82.7451 273.551C101.375 113.472 130.42 0.688477 147.717 0.688477C164.117 0.688477 194.06 113.472 212.69 273.551Z" fill="url(#paint4_linear_123_949)"/>
<path opacity="0.68" d="M147.718 555.416L176.138 781.255L170.128 798.824H151.797L147.718 555.416Z" fill="url(#paint5_linear_123_949)"/>
<path d="M147.717 555.416V877.096L142.795 782.316L147.717 555.416Z" fill="url(#paint6_linear_123_949)"/>
<path d="M147.718 555.416V877.096L152.64 782.316L147.718 555.416Z" fill="url(#paint7_linear_123_949)"/>
<path d="M147.717 352.038C160.214 352.038 170.345 341.907 170.345 329.411C170.345 316.914 160.214 306.783 147.717 306.783C135.221 306.783 125.09 316.914 125.09 329.411C125.09 341.907 135.221 352.038 147.717 352.038Z" fill="url(#paint8_linear_123_949)"/>
<path d="M147.717 412.606C160.214 412.606 170.345 402.475 170.345 389.978C170.345 377.481 160.214 367.351 147.717 367.351C135.221 367.351 125.09 377.481 125.09 389.978C125.09 402.475 135.221 412.606 147.717 412.606Z" fill="url(#paint9_linear_123_949)"/>
<path d="M147.717 473.147C160.214 473.147 170.345 463.016 170.345 450.519C170.345 438.022 160.214 427.892 147.717 427.892C135.221 427.892 125.09 438.022 125.09 450.519C125.09 463.016 135.221 473.147 147.717 473.147Z" fill="url(#paint10_linear_123_949)"/>
<path opacity="0.4" d="M140.511 333.954C145.963 333.954 150.383 329.534 150.383 324.081C150.383 318.629 145.963 314.209 140.511 314.209C135.059 314.209 130.639 318.629 130.639 324.081C130.639 329.534 135.059 333.954 140.511 333.954Z" fill="#F9F9F9"/>
<path opacity="0.4" d="M140.511 395.363C145.963 395.363 150.383 390.943 150.383 385.49C150.383 380.038 145.963 375.618 140.511 375.618C135.059 375.618 130.639 380.038 130.639 385.49C130.639 390.943 135.059 395.363 140.511 395.363Z" fill="#F9F9F9"/>
<path opacity="0.4" d="M140.511 454.816C145.963 454.816 150.383 450.396 150.383 444.944C150.383 439.491 145.963 435.071 140.511 435.071C135.059 435.071 130.639 439.491 130.639 444.944C130.639 450.396 135.059 454.816 140.511 454.816Z" fill="#F9F9F9"/>
<path opacity="0.3" d="M220.333 399.171C220.333 438.878 219.599 475.621 218.402 509.235C212.963 664.527 197.352 752.535 197.352 752.535H175.731C176.248 752.535 193.517 587.616 193.517 378.856C193.517 173.468 157.509 12.4105 155.442 7.24316C172.331 33.4877 196.971 136.29 212.827 271.294C217.818 313.737 220.325 356.436 220.333 399.171V399.171Z" fill="url(#paint11_linear_123_949)"/>
<path opacity="0.5" d="M75.1045 399.171C75.1045 438.851 75.8387 475.621 77.0082 509.208C82.4475 664.527 98.0854 752.508 98.0854 752.508H119.707C119.19 752.508 101.92 587.616 101.92 378.856C101.92 173.468 137.901 12.3833 139.995 7.24316C123.133 33.4877 98.4662 136.29 82.6107 271.294C77.6323 313.738 75.1261 356.436 75.1045 399.171V399.171Z" fill="white"/>
<defs>
<linearGradient id="paint0_linear_123_949" x1="145.541" y1="890.667" x2="146.493" y2="760.042" gradientUnits="userSpaceOnUse">
<stop stop-color="#FFF33B"/>
<stop offset="0.11" stop-color="#FFF341"/>
<stop offset="0.26" stop-color="#FFF452"/>
<stop offset="0.43" stop-color="#FFF66F"/>
<stop offset="0.61" stop-color="#FFF996"/>
<stop offset="0.81" stop-color="#FFFCC8"/>
<stop offset="1" stop-color="white"/>
</linearGradient>
<linearGradient id="paint1_linear_123_949" x1="294.434" y1="579.439" x2="240.007" y2="590.748" gradientUnits="userSpaceOnUse">
<stop stop-color="#FBAB7E"/>
<stop offset="0.43" stop-color="#FB957E"/>
<stop offset="0.76" stop-color="#FB707E"/>
<stop offset="1" stop-color="#FB597E"/>
</linearGradient>
<linearGradient id="paint2_linear_123_949" x1="-10.9982" y1="553.14" x2="43.4015" y2="564.448" gradientUnits="userSpaceOnUse">
<stop stop-color="#FBAB7E"/>
<stop offset="0.43" stop-color="#FB957E"/>
<stop offset="0.76" stop-color="#FB707E"/>
<stop offset="1" stop-color="#FB597E"/>
</linearGradient>
<linearGradient id="paint3_linear_123_949" x1="107.549" y1="789.632" x2="191.559" y2="760.341" gradientUnits="userSpaceOnUse">
<stop stop-color="#FBAB7E"/>
<stop offset="0.43" stop-color="#FB957E"/>
<stop offset="0.76" stop-color="#FB707E"/>
<stop offset="1" stop-color="#FB597E"/>
</linearGradient>
<linearGradient id="paint4_linear_123_949" x1="82.7451" y1="147.169" x2="212.69" y2="147.169" gradientUnits="userSpaceOnUse">
<stop stop-color="#FBAB7E"/>
<stop offset="0.43" stop-color="#FB957E"/>
<stop offset="0.76" stop-color="#FB707E"/>
<stop offset="1" stop-color="#FB597E"/>
</linearGradient>
<linearGradient id="paint5_linear_123_949" x1="91.7746" y1="651.936" x2="591.102" y2="868.774" gradientUnits="userSpaceOnUse">
<stop/>
<stop offset="1" stop-color="#000711"/>
</linearGradient>
<linearGradient id="paint6_linear_123_949" x1="145.107" y1="653.459" x2="146.874" y2="830.073" gradientUnits="userSpaceOnUse">
<stop stop-color="#FBAB7E"/>
<stop offset="0.43" stop-color="#FB957E"/>
<stop offset="0.76" stop-color="#FB707E"/>
<stop offset="1" stop-color="#FB597E"/>
</linearGradient>
<linearGradient id="paint7_linear_123_949" x1="149.975" y1="838.966" x2="150.274" y2="591.37" gradientUnits="userSpaceOnUse">
<stop stop-color="#FBAB7E"/>
<stop offset="0.43" stop-color="#FB957E"/>
<stop offset="0.76" stop-color="#FB707E"/>
<stop offset="1" stop-color="#FB597E"/>
</linearGradient>
<linearGradient id="paint8_linear_123_949" x1="142.931" y1="300.338" x2="170.454" y2="468.058" gradientUnits="userSpaceOnUse">
<stop stop-color="#FBAB7E"/>
<stop offset="0.43" stop-color="#FB957E"/>
<stop offset="0.76" stop-color="#FB707E"/>
<stop offset="1" stop-color="#FB597E"/>
</linearGradient>
<linearGradient id="paint9_linear_123_949" x1="133.276" y1="301.916" x2="160.772" y2="469.637" gradientUnits="userSpaceOnUse">
<stop stop-color="#FBAB7E"/>
<stop offset="0.43" stop-color="#FB957E"/>
<stop offset="0.76" stop-color="#FB707E"/>
<stop offset="1" stop-color="#FB597E"/>
</linearGradient>
<linearGradient id="paint10_linear_123_949" x1="123.594" y1="303.495" x2="151.117" y2="471.216" gradientUnits="userSpaceOnUse">
<stop stop-color="#FBAB7E"/>
<stop offset="0.43" stop-color="#FB957E"/>
<stop offset="0.76" stop-color="#FB707E"/>
<stop offset="1" stop-color="#FB597E"/>
</linearGradient>
<linearGradient id="paint11_linear_123_949" x1="-23.7008" y1="222.53" x2="367.52" y2="547.882" gradientUnits="userSpaceOnUse">
<stop/>
<stop offset="1" stop-color="#000711"/>
</linearGradient>
</defs>
</svg>
